<?xml version="1.0" encoding="UTF-8" standalone="no"?>
<!-- Created with Inkscape (http://www.inkscape.org/) -->

<svg
   xmlns:dc="http://purl.org/dc/elements/1.1/"
   xmlns:cc="http://creativecommons.org/ns#"
   xmlns:rdf="http://www.w3.org/1999/02/22-rdf-syntax-ns#"
   xmlns:svg="http://www.w3.org/2000/svg"
   xmlns="http://www.w3.org/2000/svg"
   xmlns:sodipodi="http://sodipodi.sourceforge.net/DTD/sodipodi-0.dtd"
   xmlns:inkscape="http://www.inkscape.org/namespaces/inkscape"
   id="svg2993"
   version="1.1"
   preserveAspectRatio="xMinYMin meet"
   viewBox="0 0 145 130"
   inkscape:version="0.48.3.1 r9886"
   sodipodi:docname="cod_45.svg"
   width="100%"
   height="100%">
  <defs
     id="defs2995" />
  <sodipodi:namedview
     id="base"
     pagecolor="#ffffff"
     bordercolor="#666666"
     borderopacity="1.0"
     inkscape:pageopacity="0.0"
     inkscape:pageshadow="2"
     inkscape:zoom="1.0353448"
     inkscape:cx="68.526986"
     inkscape:cy="-27.92812"
     inkscape:current-layer="layer1"
     showgrid="true"
     inkscape:document-units="px"
     inkscape:grid-bbox="true"
     inkscape:window-width="1366"
     inkscape:window-height="692"
     inkscape:window-x="0"
     inkscape:window-y="24"
     inkscape:window-maximized="1" />
  <metadata
     id="metadata2998">
    <rdf:RDF>
      <cc:Work
         rdf:about="">
        <dc:format>image/svg+xml</dc:format>
        <dc:type
           rdf:resource="http://purl.org/dc/dcmitype/StillImage" />
        <dc:title></dc:title>
      </cc:Work>
    </rdf:RDF>
  </metadata>
  <g
     id="layer1"
     inkscape:label="Layer 1"
     inkscape:groupmode="layer"
     transform="translate(0,66)">
    <path
       inkscape:connector-curvature="0"
       d="m 72.498277,63.236512 c -39.51194,0 -71.65070661,-28.817794 -71.65070661,-64.2411473 0,-35.4202627 32.13876661,-64.2380587 71.65070661,-64.2380587 39.511943,0 71.650703,28.817796 71.650703,64.2380587 0,35.4233533 -32.13876,64.2411473 -71.650703,64.2411473 z M 72.498277,-66 C 32.521207,-66 0,-36.845279 0,-1.0046353 0,34.836009 32.521207,64 72.498277,64 112.47535,64 145,34.836009 145,-1.0046353 145,-36.845279 112.47535,-66 72.498277,-66"
       style="fill:#191412;fill-opacity:1;fill-rule:nonzero;stroke:none"
       id="path1112" />
    <path
       inkscape:connector-curvature="0"
       d="m 72.498277,45.305372 c -28.531424,0 -51.653558,-20.731626 -51.653558,-46.3100073 0,-25.5721987 23.122134,-46.3038277 51.653558,-46.3038277 28.527983,0 51.653563,20.731629 51.653563,46.3038277 0,25.5783813 -23.12558,46.3100073 -51.653563,46.3100073 z m 0,-108.764535 c -38.481763,0 -69.6730424,27.955396 -69.6730424,62.4545277 0,34.4991313 31.1912794,62.4637983 69.6730424,62.4637983 38.481763,0 69.669593,-27.964667 69.669593,-62.4637983 0,-34.4991317 -31.18783,-62.4545277 -69.669593,-62.4545277"
       style="fill:#c13339;fill-opacity:1;fill-rule:nonzero;stroke:none"
       id="path1114" />
    <path
       inkscape:connector-curvature="0"
       d="m 102.18736,-4.0616769 -59.378164,0 0,-3.8359844 59.378164,0 0,3.8359844 z m 0,6.9795752 -59.378164,0 0,-4.5407422 59.378164,0 0,4.5407422 z m -7.107878,13.7891427 0,-12.2158018 5.450638,0 0,12.2158018 c 0,0.877857 -0.582276,1.397152 -1.557327,1.397152 l -2.532375,0 C 95.468813,17.934185 95.079482,17.584898 95.079482,16.707041 z M 68.21219,9.9005646 c 0.585719,-1.0447726 1.946655,-1.9164467 3.50398,-1.9164467 1.364381,0 2.728763,0.8716741 3.311037,1.9164467 l 12.851372,0 0,-5.4093254 5.454081,0 0,12.2158018 c 0,0.877857 -0.589165,1.397152 -1.56077,1.397152 l -2.528929,0 C 88.26791,17.934185 87.878579,17.584898 87.878579,16.707041 l 0,-4.182181 -12.658429,0 c -0.775217,1.044773 -2.139599,1.913356 -3.50398,1.913356 -1.557325,0 -2.918261,-0.698576 -3.50398,-1.913356 l -11.287157,0 0,4.182181 c 0,0.877857 -0.58572,1.397152 -1.367827,1.397152 l -2.335987,0 c -0.975051,-0.170008 -1.557325,-0.519295 -1.557325,-1.397152 l 0,-12.2158018 5.261139,0 0,5.4093254 11.287157,0 z m -23.749198,6.8064764 0,-12.2158018 5.450635,0 0,12.2158018 c 0,0.877857 -0.585719,1.397152 -1.360936,1.397152 l -2.52893,0 c -0.978495,-0.170008 -1.560769,-0.519295 -1.560769,-1.397152 z m 56.745868,7.505053 0,0.4142 -0.41345,-0.179281 c -0.3721,-0.166916 -3.638347,-1.366241 -5.509204,-1.366241 -1.953546,0.08037 -3.869193,0.930404 -5.722822,1.752622 -1.932874,0.856218 -3.931211,1.740257 -5.981229,1.740257 -1.963882,-0.08964 -3.779613,-0.94895 -5.533325,-1.77735 -1.863966,-0.880947 -3.62457,-1.715529 -5.547107,-1.715529 -2.005228,0 -3.96911,0.846946 -5.864085,1.65989 -1.884638,0.816036 -3.834739,1.656799 -5.826185,1.656799 -2.187834,0 -4.206843,-0.874765 -6.153499,-1.715529 -1.819175,-0.782033 -3.534989,-1.523884 -5.330046,-1.60116 -1.074968,0 -2.935488,0.578025 -4.0518,0.921131 -1.033623,0.324559 -1.192111,0.370925 -1.367827,0.259648 0,0 -0.120452,-0.07728 -0.124035,-0.08655 l 0,-1.533157 c 0,-0.182372 0,-0.336924 2.177498,-0.942768 1.309255,-0.367834 2.556493,-0.633664 3.335155,-0.707849 l 0.03087,0 c 1.991446,0 3.893311,0.840764 5.736604,1.653708 1.843294,0.816035 3.748604,1.662981 5.746941,1.662981 1.81573,0 3.534989,-0.74185 5.347274,-1.526975 1.950101,-0.840764 3.965664,-1.712438 6.143162,-1.619707 2.067245,0 3.972556,0.85931 5.819295,1.684619 1.698586,0.763487 3.459189,1.551703 5.278365,1.635162 1.981109,0 3.927765,-0.831491 5.812403,-1.635162 1.94321,-0.825309 3.955329,-1.684619 6.060473,-1.684619 1.457408,0 5.936444,0.744942 5.936444,1.65989 l 0,1.39097 z m 0,5.063128 0,0.429655 -0.42034,-0.194735 c -0.41,-0.188554 -3.662466,-1.199325 -5.516095,-1.199325 -1.998337,0 -3.962219,0.843855 -5.857194,1.666072 -1.881193,0.816036 -3.831294,1.656799 -5.833076,1.656799 -1.963882,-0.09273 -3.779613,-0.94895 -5.533325,-1.77735 -1.863966,-0.884038 -3.62457,-1.715528 -5.547107,-1.715528 -2.005228,0 -3.96911,0.843854 -5.864085,1.65989 -1.884638,0.812944 -3.834739,1.656799 -5.826185,1.656799 -2.187834,0 -4.206843,-0.874765 -6.153499,-1.715529 -1.819175,-0.785125 -3.534989,-1.523884 -5.330046,-1.60116 -1.664132,0 -5.099204,1.36315 -5.137104,1.375514 l -0.406558,0.163825 0,-1.972085 c 0,-0.163826 0,-0.364744 2.177498,-0.930404 0.644291,-0.170008 2.263633,-0.556388 3.352382,-0.556388 2.043127,-0.08964 3.993228,0.751123 5.877866,1.564068 1.805394,0.775851 3.66936,1.579523 5.619461,1.579523 1.863966,0 3.621124,-0.735669 5.481644,-1.517703 1.905311,-0.797489 3.872639,-1.625888 6.008792,-1.625888 2.015564,0 3.882975,0.85931 5.681478,1.687709 1.739931,0.800581 3.54188,1.625889 5.433409,1.625889 2.012118,0.09273 3.913983,-0.744941 5.929547,-1.622798 1.901865,-0.83149 3.865748,-1.6908 5.926102,-1.6908 1.457407,0 5.936435,0.744941 5.936435,1.65989 l 0,1.39406 z m -28.807054,-69.468104 0.189359,0 c 23.556256,-0.169883 29.210175,6.809571 29.210175,15.368669 0,8.370545 -5.843417,15.1832034 -29.210175,15.3532108 l -0.189359,0 c -23.359867,0 -29.206725,-6.9826658 -29.206725,-15.3532108 0,-8.559098 5.647024,-15.189388 29.206725,-15.368669 z m 0.09647,-7.115581 c -28.531424,0 -51.653558,20.731629 -51.653558,46.3038277 0,25.5783813 23.122134,46.3100073 51.653558,46.3100073 28.527984,0 51.653564,-20.731626 51.653564,-46.3100073 0,-25.5721987 -23.12558,-46.3038277 -51.653564,-46.3038277"
       style="fill:#ffffff;fill-opacity:1;fill-rule:nonzero;stroke:none"
       id="path1116" />
    <path
       inkscape:connector-curvature="0"
       d="m 53.930973,-31.967614 c 3.727932,-1.947357 9.767732,-2.896307 18.467387,-2.896307 10.584294,-0.102004 17.371748,1.307511 20.748248,4.302732 1.695141,1.499156 2.518593,3.375419 2.518593,5.736976 0,6.840478 -7.393845,10.030435 -23.263395,10.030435 -8.627302,0 -14.64643,-0.94586 -18.398479,-2.893217 -3.145658,-1.628979 -4.671974,-3.965808 -4.671974,-7.137218 0,-3.189956 1.502198,-5.526785 4.59962,-7.143401 z m 18.470833,19.356112 0.189359,0 c 20.448498,-0.176189 25.309968,-5.585515 25.309968,-12.212711 0,-6.636469 -4.671973,-12.225075 -25.309968,-12.045795 l -0.189359,0 c -20.441606,0 -25.306523,5.409326 -25.306523,12.045795 0,6.627196 5.061305,12.212711 25.306523,12.212711"
       style="fill:#ffffff;fill-opacity:1;fill-rule:nonzero;stroke:none"
       id="path1118" />
    <path
       inkscape:connector-curvature="0"
       d="m 54.003327,-17.686995 c 3.752049,1.947357 9.771177,2.893217 18.398479,2.893217 15.86955,0 23.263395,-3.189957 23.263395,-10.030435 0,-2.361557 -0.823452,-4.23782 -2.518593,-5.736976 -3.3765,-2.995221 -10.163954,-4.404736 -20.748248,-4.302732 -8.699655,0 -14.739455,0.94895 -18.467387,2.896307 -3.097422,1.616616 -4.59962,3.953445 -4.59962,7.143401 0,3.17141 1.526316,5.508239 4.671974,7.137218"
       style="fill:#e95b1d;fill-opacity:1;fill-rule:nonzero;stroke:none"
       id="path1120" />
    <path
       inkscape:connector-curvature="0"
       d="m 72.401806,-36.870008 0.189359,0 c 20.637995,-0.17928 25.309968,5.409326 25.309968,12.045795 0,6.627196 -4.86147,12.036522 -25.309968,12.212711 l -0.189359,0 c -20.245218,0 -25.306523,-5.585515 -25.306523,-12.212711 0,-6.636469 4.864917,-12.045795 25.306523,-12.045795 z m 0,27.3990058 0.189359,0 c 23.366758,-0.1700074 29.210175,-6.9826658 29.210175,-15.3532108 0,-8.559098 -5.653919,-15.538676 -29.210175,-15.368669 l -0.189359,0 c -23.559701,0.179281 -29.206725,6.809571 -29.206725,15.368669 0,8.370545 5.846858,15.3532108 29.206725,15.3532108"
       style="fill:#191412;fill-opacity:1;fill-rule:nonzero;stroke:none"
       id="path1122" />
    <path
       inkscape:connector-curvature="0"
       d="m 42.809196,2.9178983 59.378164,0 0,-4.5399682 -59.378164,0 0,4.5399682 z"
       style="fill:#191412;fill-opacity:1;fill-rule:nonzero;stroke:none"
       id="path1124" />
    <path
       inkscape:connector-curvature="0"
       d="m 42.809196,-4.0616769 59.378164,0 0,-3.8360462 -59.378164,0 0,3.8360462 z"
       style="fill:#191412;fill-opacity:1;fill-rule:nonzero;stroke:none"
       id="path1126" />
    <path
       inkscape:connector-curvature="0"
       d="m 48.552691,18.104193 c 0.775217,0 1.360936,-0.519295 1.360936,-1.397152 l 0,-12.2158018 -5.450635,0 0,12.2158018 c 0,0.877857 0.582274,1.227144 1.560769,1.397152 l 2.52893,0"
       style="fill:#191412;fill-opacity:1;fill-rule:nonzero;stroke:none"
       id="path1128" />
    <path
       inkscape:connector-curvature="0"
       d="m 96.440418,18.104193 2.532375,0 c 0.975051,0 1.557327,-0.519295 1.557327,-1.397152 l 0,-12.2158018 -5.450638,0 0,12.2158018 c 0,0.877857 0.389331,1.227144 1.360936,1.397152"
       style="fill:#191412;fill-opacity:1;fill-rule:nonzero;stroke:none"
       id="path1130" />
    <path
       inkscape:connector-curvature="0"
       d="m 51.663894,4.4912392 0,12.2158018 c 0,0.877857 0.582274,1.227144 1.557325,1.397152 l 2.335987,0 c 0.782107,0 1.367827,-0.519295 1.367827,-1.397152 l 0,-4.182181 11.287157,0 c 0.585719,1.21478 1.946655,1.913356 3.50398,1.913356 1.364381,0 2.728763,-0.868583 3.50398,-1.913356 l 12.658429,0 0,4.182181 c 0,0.877857 0.389331,1.227144 1.364382,1.397152 l 2.528929,0 c 0.971605,0 1.56077,-0.519295 1.56077,-1.397152 l 0,-12.2158018 -5.454081,0 0,5.4093254 -12.851372,0 C 74.444933,8.855792 73.080551,7.9841179 71.71617,7.9841179 c -1.557325,0 -2.918261,0.8716741 -3.50398,1.9164467 l -11.287157,0 0,-5.4093254 -5.261139,0"
       style="fill:#191412;fill-opacity:1;fill-rule:nonzero;stroke:none"
       id="path1132" />
    <path
       inkscape:connector-curvature="0"
       d="m 95.272425,21.161234 c -2.105144,0 -4.117263,0.85931 -6.060473,1.684619 -1.884638,0.803671 -3.831294,1.635162 -5.812403,1.635162 -1.819176,-0.08346 -3.579779,-0.871675 -5.278366,-1.635162 -1.846738,-0.825309 -3.752049,-1.684619 -5.819294,-1.684619 -2.177498,-0.09273 -4.193062,0.778943 -6.143163,1.619707 -1.812284,0.785125 -3.531543,1.526975 -5.347273,1.526975 -1.998337,0 -3.903647,-0.846946 -5.746941,-1.662981 -1.843293,-0.812944 -3.745158,-1.653708 -5.736604,-1.653708 l -0.03087,0 c -0.778662,0.07418 -2.0259,0.340015 -3.335155,0.707849 -2.177498,0.605844 -2.177498,0.760396 -2.177498,0.942768 l 0,1.533157 c 0.0028,0.0091 0.124035,0.08655 0.124035,0.08655 0.175853,0.111277 0.334204,0.06491 1.367827,-0.259648 1.116312,-0.343106 2.976832,-0.921131 4.0518,-0.921131 1.795057,0.07728 3.51087,0.819127 5.330046,1.60116 1.946656,0.840764 3.965665,1.715529 6.153499,1.715529 1.991446,0 3.941547,-0.840763 5.826185,-1.656799 1.894974,-0.812944 3.858857,-1.65989 5.864085,-1.65989 1.922537,0 3.683141,0.834582 5.547107,1.715529 1.753712,0.8284 3.569442,1.68771 5.533325,1.77735 2.050018,0 4.048354,-0.884039 5.981228,-1.740257 1.85363,-0.822218 3.769277,-1.672255 5.722823,-1.752622 1.870857,0 5.137105,1.199325 5.509205,1.366241 l 0.41345,0.179281 0,-1.80517 c 0,-0.914948 -4.479029,-1.65989 -5.936436,-1.65989"
       style="fill:#2c4aa0;fill-opacity:1;fill-rule:nonzero;stroke:none"
       id="path1134" />
    <path
       inkscape:connector-curvature="0"
       d="m 95.272425,26.221272 c -2.060354,0 -4.024237,0.85931 -5.926102,1.6908 -2.015564,0.877857 -3.917429,1.715529 -5.929547,1.622798 -1.891529,0 -3.693478,-0.825308 -5.433409,-1.625889 -1.798503,-0.828399 -3.665914,-1.687709 -5.681478,-1.687709 -2.136153,0 -4.103481,0.828399 -6.008792,1.625888 -1.86052,0.782034 -3.617678,1.517703 -5.481644,1.517703 -1.950101,0 -3.814067,-0.803672 -5.619461,-1.579523 -1.884638,-0.812945 -3.834739,-1.653708 -5.877866,-1.564068 -1.088749,0 -2.708091,0.38638 -3.352382,0.556388 -2.177498,0.56566 -2.177498,0.766578 -2.177498,0.930404 l 0,1.972085 0.406558,-0.163825 c 0.03776,-0.01236 3.472972,-1.375514 5.137104,-1.375514 1.795057,0.07728 3.510871,0.816035 5.330046,1.60116 1.946656,0.840764 3.965665,1.715529 6.153499,1.715529 1.991446,0 3.941547,-0.843855 5.826185,-1.656799 1.894975,-0.816036 3.858857,-1.65989 5.864085,-1.65989 1.922537,0 3.683141,0.83149 5.547107,1.715528 1.753712,0.8284 3.569443,1.684619 5.533325,1.77735 2.001782,0 3.951883,-0.840763 5.833076,-1.656799 1.894975,-0.822217 3.858857,-1.666072 5.857194,-1.666072 1.853629,0 5.106095,1.010771 5.516095,1.199325 l 0.42034,0.194735 0,-1.823715 c 0,-0.914949 -4.479028,-1.65989 -5.936435,-1.65989"
       style="fill:#2c4aa0;fill-opacity:1;fill-rule:nonzero;stroke:none"
       id="path1136" />
  </g>
</svg>
