<?xml version="1.0" encoding="UTF-8" standalone="no"?>
<!-- Created with Inkscape (http://www.inkscape.org/) -->

<svg
   xmlns:dc="http://purl.org/dc/elements/1.1/"
   xmlns:cc="http://creativecommons.org/ns#"
   xmlns:rdf="http://www.w3.org/1999/02/22-rdf-syntax-ns#"
   xmlns:svg="http://www.w3.org/2000/svg"
   xmlns="http://www.w3.org/2000/svg"
   xmlns:sodipodi="http://sodipodi.sourceforge.net/DTD/sodipodi-0.dtd"
   xmlns:inkscape="http://www.inkscape.org/namespaces/inkscape"
   id="svg2993"
   version="1.1"
   preserveAspectRatio="xMinYMin meet"
   viewBox="0 0 145 130"
   inkscape:version="0.48.3.1 r9886"
   sodipodi:docname="cod_1.svg"
   width="100%"
   height="100%">
  <defs
     id="defs2995" />
  <sodipodi:namedview
     id="base"
     pagecolor="#ffffff"
     bordercolor="#666666"
     borderopacity="1.0"
     inkscape:pageopacity="0.0"
     inkscape:pageshadow="2"
     inkscape:zoom="2.75"
     inkscape:cx="1.2008402"
     inkscape:cy="52.233042"
     inkscape:current-layer="layer1"
     showgrid="true"
     inkscape:document-units="px"
     inkscape:grid-bbox="true"
     inkscape:window-width="1366"
     inkscape:window-height="692"
     inkscape:window-x="0"
     inkscape:window-y="24"
     inkscape:window-maximized="1" />
  <metadata
     id="metadata2998">
    <rdf:RDF>
      <cc:Work
         rdf:about="">
        <dc:format>image/svg+xml</dc:format>
        <dc:type
           rdf:resource="http://purl.org/dc/dcmitype/StillImage" />
        <dc:title></dc:title>
      </cc:Work>
    </rdf:RDF>
  </metadata>
  <g
     id="layer1"
     inkscape:label="Layer 1"
     inkscape:groupmode="layer"
     transform="translate(0,66)">
    <path
       inkscape:connector-curvature="0"
       d="m 102.7339,64.074086 -59.828112,0 -42.30210221,-37.958968 0,-53.681793 42.30210221,-37.964946 59.828112,0 42.30543,37.964946 0,53.681793 -42.30543,37.958968 z m 0.31957,-130.039131 -0.0832,-0.07473 -60.297476,0 -0.08655,0.07473 -42.47186948,38.111413 -0.08321943,0.07772 0,54.100271 0.08321943,0.07473 42.47186948,38.111413 0.08655,0.07473 60.297476,0 0.0832,-0.07473 42.46854,-38.111413 0.0832,-0.07473 0,-54.100271 -0.0832,-0.07772 -42.46854,-38.111413"
       style="fill:#191412;fill-opacity:1;fill-rule:nonzero;stroke:none"
       id="path1570" />
    <path
       inkscape:connector-curvature="0"
       d="m 86.426223,-10.693034 c -0.432741,-1.279348 -0.928729,-2.286685 -1.494621,-3.042935 -0.565892,-0.747282 -1.185045,-1.120924 -1.860786,-1.120924 -0.675742,0 -1.298224,0.373642 -1.860787,1.120924 -0.565892,0.75625 -1.065209,1.763587 -1.491292,3.042935 -0.429412,1.2733697 -0.768948,2.7619567 -1.015277,4.465761 -0.249659,1.7038043 -0.372823,3.5271739 -0.372823,5.4701087 0,1.948913 0.123164,3.78125 0.372823,5.5029891 0.246329,1.71875 0.585865,3.2192935 1.015277,4.4956522 0.426083,1.279348 0.9254,2.280707 1.491292,3.010054 0.562563,0.732337 1.185045,1.094022 1.860787,1.094022 0.675741,0 1.294894,-0.361685 1.860786,-1.094022 0.565892,-0.729347 1.06188,-1.730706 1.494621,-3.010054 0.429412,-1.2763587 0.768948,-2.7769022 1.011948,-4.4956522 0.249659,-1.7217391 0.372824,-3.5540761 0.372824,-5.5029891 0,-1.9429348 -0.123165,-3.7663044 -0.372824,-5.4701087 -0.243,-1.7038043 -0.582536,-3.1923913 -1.011948,-4.465761"
       style="fill:#df2924;fill-opacity:1;fill-rule:nonzero;stroke:none"
       id="path1572" />
    <path
       inkscape:connector-curvature="0"
       d="m 121.78117,-13.278632 c -0.54259,-0.529076 -1.18838,-0.941576 -1.93069,-1.246467 -0.74565,-0.304891 -1.52458,-0.454348 -2.33681,-0.454348 l -1.29156,0 0,11.5500001 1.29156,0 c 0.81223,0 1.59116,-0.1524457 2.33681,-0.457337 0.74231,-0.3048913 1.3881,-0.7173913 1.93069,-1.2464674 0.53926,-0.5260869 0.972,-1.1328804 1.28823,-1.8233695 0.31291,-0.6845109 0.47269,-1.4347826 0.47269,-2.2478261 0,-0.7741848 -0.15978,-1.5125001 -0.47269,-2.2179351 -0.31623,-0.711413 -0.74897,-1.333152 -1.28823,-1.85625"
       style="fill:#df2924;fill-opacity:1;fill-rule:nonzero;stroke:none"
       id="path1574" />
    <path
       inkscape:connector-curvature="0"
       d="m 131.19495,-3.9196643 c -0.85217,1.58125 -2.02057,2.95923913 -3.48856,4.13396739 -1.46799,1.17472821 -3.1923,2.10733691 -5.17958,2.79483691 -1.98728,0.6904892 -4.08774,1.0402174 -6.3047,1.0402174 l 0,16.4760866 -9.43376,0 0,-42.502445 13.09209,0 c 1.76425,0 3.39868,0.337771 4.91327,1.03125 1.51127,0.693478 2.84611,1.620108 3.99786,2.797826 1.15176,1.177717 2.05386,2.555706 2.70963,4.133967 0.65577,1.584239 0.98532,3.264131 0.98532,5.0456524 0,1.7875 -0.42942,3.4673913 -1.29157,5.0486413 z M 96.176212,7.6960966 c -0.742317,2.6304344 -1.760923,4.9350544 -3.04916,6.8989134 -1.288237,1.960869 -2.796173,3.512228 -4.537124,4.648097 -1.734293,1.13587 -3.578435,1.703805 -5.519112,1.703805 -1.98728,0 -3.838081,-0.567935 -5.55573,-1.703805 -1.71432,-1.135869 -3.21227,-2.687228 -4.500507,-4.648097 -1.284908,-1.963859 -2.306842,-4.268479 -3.04916,-6.8989134 -0.748975,-2.6334239 -1.118469,-5.4581522 -1.118469,-8.45923917 0,-2.99510873 0.369494,-5.80788043 1.118469,-8.44429343 0.742318,-2.639402 1.764252,-4.926087 3.04916,-6.875 1.288237,-1.942935 2.786187,-3.485326 4.500507,-4.615217 1.717649,-1.138859 3.56845,-1.706794 5.55573,-1.706794 1.940677,0 3.784819,0.567935 5.519112,1.706794 1.740951,1.129891 3.248887,2.672282 4.537124,4.615217 1.288237,1.948913 2.306843,4.235598 3.04916,6.875 0.748975,2.636413 1.11514,5.4491847 1.11514,8.44429343 0,3.00108697 -0.366165,5.82581527 -1.11514,8.45923917 z m -32.069441,-22.4842396 -5.555729,0 0,35.313587 -9.763304,0 0,-35.313587 -5.559058,0 0,-7.188858 20.878091,0 0,7.188858 z M 37.37336,14.047999 c -0.605837,1.357065 -1.454676,2.552717 -2.539857,3.583967 -1.085181,1.037228 -2.350117,1.847283 -3.794806,2.433152 -1.44469,0.588859 -2.979256,0.881794 -4.603698,0.881794 -1.218333,0 -2.463296,-0.224185 -3.728232,-0.666576 -1.264935,-0.44837 -2.473281,-1.052174 -3.625038,-1.826359 -1.148428,-0.771196 -2.17702,-1.676902 -3.082448,-2.735054 -0.905427,-1.052174 -1.624443,-2.16712 -2.163705,-3.341848 l 7.173515,-3.6497284 c 0.682399,1.5394024 1.434703,2.6543474 2.273555,3.3418474 0.835523,0.69049 1.657732,1.064131 2.473282,1.123913 0.812222,0.06576 1.557867,-0.116576 2.233609,-0.541032 0.67907,-0.427446 1.185045,-0.983424 1.527909,-1.676902 0.339535,-0.684511 0.436069,-1.4467395 0.306247,-2.2777177 C 29.687213,7.8634879 29.211198,7.0683792 28.398976,6.2971835 L 16.748256,-4.646023 c -0.499317,-0.4872283 -0.962017,-1.0641304 -1.391429,-1.7307065 -0.429412,-0.6695652 -0.81555,-1.3779892 -1.151757,-2.1282609 -0.339535,-0.7502717 -0.59918,-1.5214676 -0.782263,-2.3105976 -0.179754,-0.789131 -0.269631,-1.530435 -0.269631,-2.220924 0,-1.297283 0.309577,-2.51087 0.915414,-3.649728 0.609166,-1.13587 1.44469,-2.125272 2.509898,-2.977174 1.058552,-0.848913 2.290199,-1.518479 3.688286,-2.005707 1.401415,-0.487228 2.916009,-0.726359 4.543781,-0.726359 1.351484,0 2.686323,0.191305 3.994532,0.576903 1.311539,0.382608 2.516556,0.896739 3.625039,1.548369 1.105154,0.648642 2.077157,1.428805 2.909351,2.3375 0.835523,0.914674 1.434703,1.874185 1.79754,2.890489 l -6.977117,3.891848 c -0.542591,-1.297282 -1.228319,-2.26875 -2.063842,-2.92038 -0.838852,-0.648642 -1.661059,-1.028261 -2.47661,-1.153805 -0.815551,-0.119565 -1.571183,-0.02989 -2.266898,0.275 -0.702372,0.304892 -1.22499,0.750272 -1.561196,1.339131 -0.336207,0.585869 -0.416098,1.276359 -0.236344,2.065489 0.179754,0.78913 0.722345,1.6081521 1.627773,2.4600543 l 10.498963,9.78641305 c 0.629139,0.60978265 1.234976,1.28532605 1.794211,2.03858695 0.565892,0.7502717 1.048565,1.5274457 1.454676,2.3404891 0.409439,0.8130435 0.742317,1.6111413 0.985318,2.3972826 0.249658,0.7951087 0.372823,1.5154892 0.372823,2.1611413 0,1.5812497 -0.306248,3.0489127 -0.915414,4.4089677 z m 63.47646,-75.496468 -56.063273,0 -39.6357513,35.567663 0,50.304076 39.6357513,35.570653 56.063273,0 39.63575,-35.570653 0,-50.304076 -39.63575,-35.567663"
       style="fill:#c13339;fill-opacity:1;fill-rule:nonzero;stroke:none"
       id="path1576" />
    <path
       inkscape:connector-curvature="0"
       d="M 36.930633,5.0806074 C 36.524522,4.267564 36.041849,3.49039 35.475957,2.7401183 34.916722,1.9868574 34.310885,1.311314 33.681746,0.70153135 L 23.182783,-9.0848817 c -0.905428,-0.8519022 -1.448019,-1.6709243 -1.627773,-2.4600543 -0.179754,-0.78913 -0.09986,-1.47962 0.236344,-2.065489 0.336206,-0.588859 0.858824,-1.034239 1.561196,-1.339131 0.695715,-0.304891 1.451347,-0.394565 2.266898,-0.275 0.815551,0.125544 1.637758,0.505163 2.47661,1.153805 0.835523,0.65163 1.521251,1.623098 2.063842,2.92038 l 6.977117,-3.891848 c -0.362837,-1.016304 -0.962017,-1.975815 -1.79754,-2.890489 -0.832194,-0.908695 -1.804197,-1.688858 -2.909351,-2.3375 -1.108483,-0.65163 -2.3135,-1.165761 -3.625039,-1.548369 -1.308209,-0.385598 -2.643048,-0.576903 -3.994532,-0.576903 -1.627772,0 -3.142366,0.239131 -4.543781,0.726359 -1.398087,0.487228 -2.629734,1.156794 -3.688286,2.005707 -1.065208,0.851902 -1.900732,1.841304 -2.509898,2.977174 -0.605837,1.138858 -0.915414,2.352445 -0.915414,3.649728 0,0.690489 0.08988,1.431793 0.269631,2.220924 0.183083,0.78913 0.442728,1.5603259 0.782263,2.3105976 0.336207,0.7502717 0.722345,1.4586957 1.151757,2.1282609 0.429412,0.6665761 0.892112,1.2434782 1.391429,1.7307065 l 11.65072,10.9432065 c 0.812222,0.7711957 1.288237,1.5663044 1.424717,2.4002718 0.129822,0.8309782 0.03329,1.5932067 -0.306247,2.2777177 -0.342864,0.693478 -0.848839,1.249456 -1.527909,1.676902 -0.675742,0.424456 -1.421387,0.606793 -2.233609,0.541032 -0.81555,-0.05978 -1.637759,-0.433423 -2.473282,-1.123913 -0.838852,-0.6875 -1.591156,-1.802445 -2.273555,-3.3418474 l -7.173515,3.6497284 c 0.539262,1.174728 1.258278,2.289674 2.163705,3.341848 0.905428,1.058152 1.93402,1.963858 3.082448,2.735054 1.151757,0.774185 2.360103,1.377989 3.625038,1.826359 1.264936,0.442391 2.509899,0.666576 3.728232,0.666576 1.624442,0 3.159008,-0.292935 4.603698,-0.881794 1.444689,-0.585869 2.709625,-1.395924 3.794806,-2.433152 1.085181,-1.03125 1.93402,-2.226902 2.539857,-3.583967 0.609166,-1.360055 0.915414,-2.827718 0.915414,-4.4089677 0,-0.6456521 -0.123165,-1.3660326 -0.372823,-2.1611413 C 37.67295,6.6917487 37.340072,5.8936509 36.930633,5.0806074"
       style="fill:#ffffff;fill-opacity:1;fill-rule:nonzero;stroke:none"
       id="path1578" />
    <path
       inkscape:connector-curvature="0"
       d="m 43.22868,-14.788143 5.559058,0 0,35.313587 9.763304,0 0,-35.313587 5.555729,0 0,-7.188858 -20.878091,0 0,7.188858"
       style="fill:#ffffff;fill-opacity:1;fill-rule:nonzero;stroke:none"
       id="path1580" />
    <path
       inkscape:connector-curvature="0"
       d="m 87.438171,4.7458248 c -0.243,1.71875 -0.582536,3.2192935 -1.011948,4.4956522 -0.432741,1.279348 -0.928729,2.280707 -1.494621,3.010054 -0.565892,0.732337 -1.185045,1.094022 -1.860786,1.094022 -0.675742,0 -1.298224,-0.361685 -1.860787,-1.094022 C 80.644137,11.522184 80.14482,10.520825 79.718737,9.241477 79.289325,7.9651183 78.949789,6.4645748 78.70346,4.7458248 78.453801,3.0240857 78.330637,1.1917487 78.330637,-0.7571643 c 0,-1.9429348 0.123164,-3.7663044 0.372823,-5.4701087 0.246329,-1.7038043 0.585865,-3.1923913 1.015277,-4.465761 0.426083,-1.279348 0.9254,-2.286685 1.491292,-3.042935 0.562563,-0.747282 1.185045,-1.120924 1.860787,-1.120924 0.675741,0 1.294894,0.373642 1.860786,1.120924 0.565892,0.75625 1.06188,1.763587 1.494621,3.042935 0.429412,1.2733697 0.768948,2.7619567 1.011948,4.465761 0.249659,1.7038043 0.372824,3.5271739 0.372824,5.4701087 0,1.948913 -0.123165,3.78125 -0.372824,5.5029891 z m 5.688881,-20.8282608 c -1.288237,-1.942935 -2.796173,-3.485326 -4.537124,-4.615217 -1.734293,-1.138859 -3.578435,-1.706794 -5.519112,-1.706794 -1.98728,0 -3.838081,0.567935 -5.55573,1.706794 -1.71432,1.129891 -3.21227,2.672282 -4.500507,4.615217 -1.284908,1.948913 -2.306842,4.235598 -3.04916,6.875 -0.748975,2.636413 -1.118469,5.4491847 -1.118469,8.44429343 0,3.00108697 0.369494,5.82581527 1.118469,8.45923917 0.742318,2.6304344 1.764252,4.9350544 3.04916,6.8989134 1.288237,1.960869 2.786187,3.512228 4.500507,4.648097 1.717649,1.13587 3.56845,1.703805 5.55573,1.703805 1.940677,0 3.784819,-0.567935 5.519112,-1.703805 1.740951,-1.135869 3.248887,-2.687228 4.537124,-4.648097 1.288237,-1.963859 2.306843,-4.268479 3.04916,-6.8989134 0.748975,-2.6334239 1.11514,-5.4581522 1.11514,-8.45923917 0,-2.99510873 -0.366165,-5.80788043 -1.11514,-8.44429343 -0.742317,-2.639402 -1.760923,-4.926087 -3.04916,-6.875"
       style="fill:#ffffff;fill-opacity:1;fill-rule:nonzero;stroke:none"
       id="path1582" />
    <path
       inkscape:connector-curvature="0"
       d="m 123.0694,-6.9566208 c -0.31623,0.6904891 -0.74897,1.2972826 -1.28823,1.8233695 -0.54259,0.5290761 -1.18838,0.9415761 -1.93069,1.2464674 -0.74565,0.3048913 -1.52458,0.457337 -2.33681,0.457337 l -1.29156,0 0,-11.5500001 1.29156,0 c 0.81223,0 1.59116,0.149457 2.33681,0.454348 0.74231,0.304891 1.3881,0.717391 1.93069,1.246467 0.53926,0.523098 0.972,1.144837 1.28823,1.85625 0.31291,0.705435 0.47269,1.4437503 0.47269,2.2179351 0,0.8130435 -0.15978,1.5633152 -0.47269,2.2478261 z m 5.72217,-11.1913042 c -1.15175,-1.177718 -2.48659,-2.104348 -3.99786,-2.797826 -1.51459,-0.693479 -3.14902,-1.03125 -4.91327,-1.03125 l -13.09209,0 0,42.502445 9.43376,0 0,-16.4760866 c 2.21696,0 4.31742,-0.3497282 6.3047,-1.0402174 1.98728,-0.6875 3.71159,-1.6201087 5.17958,-2.79483691 1.46799,-1.17472826 2.63639,-2.55271739 3.48856,-4.13396739 0.86215,-1.58125 1.29157,-3.2611413 1.29157,-5.0486413 0,-1.7815214 -0.32955,-3.4614134 -0.98532,-5.0456524 -0.65577,-1.578261 -1.55787,-2.95625 -2.70963,-4.133967"
       style="fill:#ffffff;fill-opacity:1;fill-rule:nonzero;stroke:none"
       id="path1584" />
  </g>
</svg>
