<?xml version="1.0" encoding="UTF-8" standalone="no"?>
<!-- Created with Inkscape (http://www.inkscape.org/) -->

<svg
   xmlns:dc="http://purl.org/dc/elements/1.1/"
   xmlns:cc="http://creativecommons.org/ns#"
   xmlns:rdf="http://www.w3.org/1999/02/22-rdf-syntax-ns#"
   xmlns:svg="http://www.w3.org/2000/svg"
   xmlns="http://www.w3.org/2000/svg"
   xmlns:sodipodi="http://sodipodi.sourceforge.net/DTD/sodipodi-0.dtd"
   xmlns:inkscape="http://www.inkscape.org/namespaces/inkscape"
   id="svg2993"
   version="1.1"
   preserveAspectRatio="xMinYMin meet"
   viewBox="0 0 145 130"
   inkscape:version="0.48.3.1 r9886"
   sodipodi:docname="cod_45.svg"
   width="100%"
   height="100%">
  <defs
     id="defs2995" />
  <sodipodi:namedview
     id="base"
     pagecolor="#ffffff"
     bordercolor="#666666"
     borderopacity="1.0"
     inkscape:pageopacity="0.0"
     inkscape:pageshadow="2"
     inkscape:zoom="1.0353448"
     inkscape:cx="68.526986"
     inkscape:cy="-27.92812"
     inkscape:current-layer="layer1"
     showgrid="true"
     inkscape:document-units="px"
     inkscape:grid-bbox="true"
     inkscape:window-width="1366"
     inkscape:window-height="692"
     inkscape:window-x="0"
     inkscape:window-y="24"
     inkscape:window-maximized="1" />
  <metadata
     id="metadata2998">
    <rdf:RDF>
      <cc:Work
         rdf:about="">
        <dc:format>image/svg+xml</dc:format>
        <dc:type
           rdf:resource="http://purl.org/dc/dcmitype/StillImage" />
        <dc:title></dc:title>
      </cc:Work>
    </rdf:RDF>
  </metadata>
  <g
     id="layer1"
     inkscape:label="Layer 1"
     inkscape:groupmode="layer"
     transform="translate(0,66)">
    <path
       inkscape:connector-curvature="0"
       d="m 72.501076,47.189073 c -29.688636,0 -53.75217,-21.574988 -53.75217,-48.1938982 0,-26.6124758 24.063534,-48.1874648 53.75217,-48.1874648 29.685054,0 53.748584,21.574989 53.748584,48.1874648 0,26.6189102 -24.06353,48.1938982 -53.748584,48.1938982 z M 72.501076,-66 C 32.462109,-66 0,-36.907381 0,-1.0048252 0,34.897731 32.462109,64 72.501076,64 112.54363,64 145,34.897731 145,-1.0048252 145,-36.907381 112.54363,-66 72.501076,-66"
       style="fill:#c13339;fill-opacity:1;fill-rule:nonzero;stroke:none"
       id="path1090" />
    <path
       inkscape:connector-curvature="0"
       d="m 98.83401,27.878702 -52.669454,0 c -1.211781,0 -2.022025,-0.723777 -2.022025,-1.63091 0,-0.910351 0.810244,-1.453988 2.022025,-1.453988 l 52.669454,0 c 1.014598,0 1.82484,0.543637 1.82484,1.453988 0,0.907133 -0.810242,1.63091 -1.82484,1.63091 z m -0.605891,6.536511 c 0,0.730211 -1.011012,1.273847 -1.416134,1.273847 l -6.080416,0 c -0.810245,0 -1.616904,-0.73021 -1.616904,-1.453987 l 0,-5.088957 9.113454,0 0,5.269097 z m -41.931926,0 c 0,0.730211 -1.014598,1.273847 -1.616903,1.273847 l -6.084002,0 c -0.806659,0 -1.416134,-0.73021 -1.416134,-1.453987 l 0,-5.088957 9.117039,0 0,5.269097 z m -7.292197,-69.202732 15.595407,7.630218 5.065818,-15.804073 7.496551,18.171628 8.507563,-15.263653 -0.60589,13.076238 9.927283,-9.804766 -6.689892,17.795264 10.737528,-5.803083 -16.814359,21.9738699 -20.66481,0 -22.486068,-22.5239399 14.383626,4.172172 -4.452757,-13.619875 z m 0.405122,47.228862 5.062233,-10.5317595 c 1.215366,-1.27063069 2.02561,-1.82070121 3.850452,-2.18098132 4.861465,-0.18657362 9.321393,-0.36671368 13.978504,-0.36671368 4.861465,0 9.317808,0.18014006 13.978504,0.54363695 2.226379,0.36349689 2.835854,0.73342736 3.846867,2.00405805 L 96.005326,12.441343 92.552825,11.894489 88.50519,4.6309851 C 87.494177,3.5404944 87.089055,2.9968574 85.461397,2.6333606 81.015809,2.4467869 76.753065,2.0865068 72.501076,2.0865068 c -4.255575,0 -8.711917,0.3602801 -13.16826,0.5468538 -1.620489,0.1769232 -2.222794,0.7269937 -3.240977,1.9976245 l -3.846867,7.2635039 -2.835854,0.546854 z m 45.58161,10.898473 c -0.408707,0.18014 -0.813829,0.18014 -1.218951,0.18014 l -43.552415,0 c -7.492966,-0.543636 -7.492966,-9.441268 0,-10.171479 l 0.405122,0 c 7.292197,-0.907134 13.974919,-1.090491 22.281714,-1.090491 8.303209,0 14.182857,0 21.475054,1.090491 l 0.609476,0 c 7.492962,1.084057 7.492962,9.264346 0,9.991339 z M 72.501076,-49.19229 c -29.688636,0 -53.75217,21.574989 -53.75217,48.1874648 0,26.6189102 24.063534,48.1938982 53.75217,48.1938982 29.685054,0 53.748584,-21.574988 53.748584,-48.1938982 0,-26.6124758 -24.06353,-48.1874648 -53.748584,-48.1874648"
       style="fill:#ffffff;fill-opacity:1;fill-rule:nonzero;stroke:none"
       id="path1092" />
    <path
       inkscape:connector-curvature="0"
       d="m 90.731569,18.431 c 0,1.997624 1.821256,3.631752 4.259159,3.631752 2.226379,0 4.047636,-1.634128 4.047636,-3.631752 0,-2.180981 -1.821257,-3.811892 -4.047636,-3.811892 -2.437903,0 -4.259159,1.630911 -4.259159,3.811892"
       style="fill:#ffffff;fill-opacity:1;fill-rule:nonzero;stroke:none"
       id="path1094" />
    <path
       inkscape:connector-curvature="0"
       d="m 50.219362,14.802465 c -2.229964,0 -4.054806,1.634127 -4.054806,3.815109 0,1.997624 1.824842,3.631752 4.054806,3.631752 2.430732,0 4.251989,-1.634128 4.251989,-3.631752 0,-2.180982 -1.821257,-3.815109 -4.251989,-3.815109"
       style="fill:#ffffff;fill-opacity:1;fill-rule:nonzero;stroke:none"
       id="path1096" />
    <path
       inkscape:connector-curvature="0"
       d="m 98.83401,24.793804 -52.669454,0 c -1.211781,0 -2.022025,0.543637 -2.022025,1.453988 0,0.907133 0.810244,1.63091 2.022025,1.63091 l 52.669454,0 c 1.014598,0 1.82484,-0.723777 1.82484,-1.63091 0,-0.910351 -0.810242,-1.453988 -1.82484,-1.453988"
       style="fill:#191412;fill-opacity:1;fill-rule:nonzero;stroke:none"
       id="path1098" />
    <path
       inkscape:connector-curvature="0"
       d="m 47.179154,34.235073 c 0,0.723777 0.609475,1.453987 1.416134,1.453987 l 6.084002,0 c 0.602305,0 1.616903,-0.543636 1.616903,-1.273847 l 0,-5.269097 -9.117039,0 0,5.088957"
       style="fill:#191412;fill-opacity:1;fill-rule:nonzero;stroke:none"
       id="path1100" />
    <path
       inkscape:connector-curvature="0"
       d="m 89.114665,34.235073 c 0,0.723777 0.806659,1.453987 1.616904,1.453987 l 6.080416,0 c 0.405122,0 1.416134,-0.543636 1.416134,-1.273847 l 0,-5.269097 -9.113454,0 0,5.088957"
       style="fill:#191412;fill-opacity:1;fill-rule:nonzero;stroke:none"
       id="path1102" />
    <path
       inkscape:connector-curvature="0"
       d="m 56.091839,4.6309851 c 1.018183,-1.2706308 1.620488,-1.8207013 3.240977,-1.9976245 4.456343,-0.1865737 8.912685,-0.5468538 13.16826,-0.5468538 4.251989,0 8.514733,0.3602801 12.960321,0.5468538 1.627658,0.3634968 2.03278,0.9071338 3.043793,1.9976245 l 4.047635,7.2635039 3.452501,0.546854 L 90.125678,1.9095835 C 89.114665,0.63895281 88.50519,0.26902234 86.278811,-0.09447455 81.618115,-0.45797144 77.161772,-0.6381115 72.300307,-0.6381115 c -4.657111,0 -9.117039,0.18014006 -13.978504,0.36671368 -1.824842,0.36028011 -2.635086,0.91035063 -3.850452,2.18098132 l -5.062233,10.5317595 2.835854,-0.546854 3.846867,-7.2635039"
       style="fill:#191412;fill-opacity:1;fill-rule:nonzero;stroke:none"
       id="path1104" />
    <path
       inkscape:connector-curvature="0"
       d="m 99.038364,18.431 c 0,1.997624 -1.821257,3.631752 -4.047636,3.631752 -2.437903,0 -4.259159,-1.634128 -4.259159,-3.631752 0,-2.180981 1.821256,-3.811892 4.259159,-3.811892 2.226379,0 4.047636,1.630911 4.047636,3.811892 z m -48.819002,3.818326 c -2.229964,0 -4.054806,-1.634128 -4.054806,-3.631752 0,-2.180982 1.824842,-3.815109 4.054806,-3.815109 2.430732,0 4.251989,1.634127 4.251989,3.815109 0,1.997624 -1.821257,3.631752 -4.251989,3.631752 z m 44.16189,-8.900849 c -7.292197,-1.090491 -13.171845,-1.090491 -21.475054,-1.090491 -8.306795,0 -14.989517,0.183357 -22.281714,1.090491 l -0.405122,0 c -7.492966,0.730211 -7.492966,9.627843 0,10.171479 l 43.552415,0 c 0.405122,0 0.810244,0 1.218951,-0.18014 7.492962,-0.726993 7.492962,-8.907282 0,-9.991339 l -0.609476,0"
       style="fill:#191412;fill-opacity:1;fill-rule:nonzero;stroke:none"
       id="path1106" />
    <path
       inkscape:connector-curvature="0"
       d="m 61.559195,-2.8158761 5.671709,0 -10.533174,-14.1667289 5.879647,1.450771 -4.86505,-11.445327 9.726515,8.177072 3.441745,-9.447703 4.459928,12.172321 8.306795,-5.629376 -3.448915,8.720708 5.47094,-0.546854 -10.938296,10.7151169 7.492966,0 16.814359,-21.9738699 -10.737528,5.803083 6.689892,-17.795264 -9.927283,9.804766 0.60589,-13.076238 -8.507563,15.263653 -7.496551,-18.171628 -5.065818,15.804073 -15.595407,-7.630218 4.452757,13.619875 -14.383626,-4.172172 22.486068,22.5239399"
       style="fill:#e95b1d;fill-opacity:1;fill-rule:nonzero;stroke:none"
       id="path1108" />
    <path
       inkscape:connector-curvature="0"
       d="m 80.198395,-12.984139 3.448915,-8.720708 -8.306795,5.629376 -4.459928,-12.172321 -3.441745,9.447703 -9.726515,-8.177072 4.86505,11.445327 -5.879647,-1.450771 10.533174,14.1667289 7.500135,0 10.938296,-10.7151169 -5.47094,0.546854"
       style="fill:#ecee23;fill-opacity:1;fill-rule:nonzero;stroke:none"
       id="path1110" />
  </g>
</svg>
