<?xml version="1.0" encoding="UTF-8" standalone="no"?>
<!-- Created with Inkscape (http://www.inkscape.org/) -->

<svg
   xmlns:dc="http://purl.org/dc/elements/1.1/"
   xmlns:cc="http://creativecommons.org/ns#"
   xmlns:rdf="http://www.w3.org/1999/02/22-rdf-syntax-ns#"
   xmlns:svg="http://www.w3.org/2000/svg"
   xmlns="http://www.w3.org/2000/svg"
   xmlns:sodipodi="http://sodipodi.sourceforge.net/DTD/sodipodi-0.dtd"
   xmlns:inkscape="http://www.inkscape.org/namespaces/inkscape"
   id="svg2993"
   version="1.1"
   preserveAspectRatio="xMinYMin meet"
   viewBox="0 0 145 130"
   inkscape:version="0.48.3.1 r9886"
   sodipodi:docname="cod_46.svg"
   width="100%"
   height="100%">
  <defs
     id="defs2995" />
  <sodipodi:namedview
     id="base"
     pagecolor="#ffffff"
     bordercolor="#666666"
     borderopacity="1.0"
     inkscape:pageopacity="0.0"
     inkscape:pageshadow="2"
     inkscape:zoom="4.0153846"
     inkscape:cx="24.683908"
     inkscape:cy="65"
     inkscape:current-layer="layer1"
     showgrid="true"
     inkscape:document-units="px"
     inkscape:grid-bbox="true"
     inkscape:window-width="1366"
     inkscape:window-height="692"
     inkscape:window-x="0"
     inkscape:window-y="24"
     inkscape:window-maximized="1" />
  <metadata
     id="metadata2998">
    <rdf:RDF>
      <cc:Work
         rdf:about="">
        <dc:format>image/svg+xml</dc:format>
        <dc:type
           rdf:resource="http://purl.org/dc/dcmitype/StillImage" />
        <dc:title></dc:title>
      </cc:Work>
    </rdf:RDF>
  </metadata>
  <g
     id="layer1"
     inkscape:label="Layer 1"
     inkscape:groupmode="layer"
     transform="translate(0,66)">
    <path
       inkscape:connector-curvature="0"
       d="m 72.498277,63.239585 c -39.51194,0 -71.65070661,-28.81848 -71.65070661,-64.2457672 0,-35.4211048 32.13876661,-64.2395858 71.65070661,-64.2395858 39.511943,0 71.650703,28.818481 71.650703,64.2395858 0,35.4272872 -32.13876,64.2457672 -71.650703,64.2457672 z M 72.498277,-66 C 32.521207,-66 0,-36.844588 0,-1.0061822 0,34.838406 32.521207,64 72.498277,64 112.47535,64 145,34.838406 145,-1.0061822 145,-36.844588 112.47535,-66 72.498277,-66"
       style="fill:#191412;fill-opacity:1;fill-rule:nonzero;stroke:none"
       id="path1484" />
    <path
       inkscape:connector-curvature="0"
       d="m 72.498277,45.304927 c -28.531424,0 -51.653558,-20.732119 -51.653558,-46.3111092 0,-25.5728078 23.122134,-46.3049268 51.653558,-46.3049268 28.527983,0 51.653563,20.732119 51.653563,46.3049268 0,25.5789902 -23.12558,46.3111092 -51.653563,46.3111092 z m 0,-108.770211 c -38.481763,0 -69.6730424,27.96224 -69.6730424,62.4591018 0,34.4999522 31.1912794,62.4652842 69.6730424,62.4652842 38.481763,0 69.669593,-27.965332 69.669593,-62.4652842 0,-34.4968618 -31.18783,-62.4591018 -69.669593,-62.4591018"
       style="fill:#c13339;fill-opacity:1;fill-rule:nonzero;stroke:none"
       id="path1486" />
    <path
       inkscape:connector-curvature="0"
       d="m 114.74587,7.7262222 -36.790066,0 c -0.782108,0 -1.174884,-0.5254898 -1.174884,-1.0509797 l 0,-0.346205 c 0,-0.7016835 0.392776,-1.0509797 1.174884,-1.0509797 l 36.790066,0 c 0.58228,0 1.16799,0.3492962 1.16799,1.0509797 l 0,0.346205 c 0,0.5254899 -0.58571,1.0509797 -1.16799,1.0509797 z m -1.17144,4.3584748 c 0,0.355478 -0.57883,0.704774 -0.9716,0.704774 l -4.08626,0 c -0.38933,0 -0.9716,-0.349296 -0.9716,-0.874786 l 0,-2.7912781 6.02946,0 0,2.9612901 z m -28.417723,0 c 0,0.355478 -0.58572,0.704774 -0.978496,0.704774 l -4.082809,0 c -0.585719,0 -1.174884,-0.349296 -1.174884,-0.874786 l 0,-2.7912781 6.236189,0 0,2.9612901 z M 78.731021,1.6181758 c -0.392777,0 -0.58572,-0.3492962 -0.58572,-0.69859239 l 0,-0.52548982 c 0,-0.34929618 0.192943,-0.69859235 0.58572,-0.69859235 l 6.036355,0 C 84.570987,-1.1731025 83.981823,-1.7047746 83.20316,-2.0540708 l -5.057859,0 c 0.58572,-1.3910024 1.746822,-1.9164923 3.307592,-2.4419821 4.868362,-0.3492962 8.958061,-0.5223987 14.019366,-0.5223987 5.257691,0 10.319001,0.3492962 15.766191,0.7016835 1.75715,0.5223987 2.72876,1.3940936 3.31448,2.4419821 l -5.26114,0 c -0.77522,0.1700114 -1.16455,0.5223987 -1.36094,1.74648088 l 5.84342,0 c 0.38933,0 0.57882,0.34929618 0.57882,0.69241012 l 0,0.5316721 c 0,0.3431139 -0.18949,0.5223987 -0.57882,0.5223987 l -5.84342,0 c 0.19639,0.874786 0.58572,1.3910024 1.36094,1.9134011 l 5.26114,0 c -0.38933,0.3554785 -0.58572,0.528581 -1.17144,0.7016835 l -34.264584,0 c -0.385885,0 -0.971605,-0.346205 -0.971605,-0.7016835 l 5.254248,0 c 1.171438,-0.346205 1.367827,-1.0386151 1.367827,-1.9134011 l -6.036355,0 z m 4.668528,-14.3118698 c 0.778662,-1.054071 1.171438,-1.397185 2.532374,-1.746481 3.311038,-0.182376 6.622075,-0.352387 9.929667,-0.352387 3.50398,0 6.81157,0.170011 10.12261,0.352387 1.56077,0.349296 1.94665,0.522399 2.53237,1.567196 l 4.28265,7.6814249 -2.53238,-0.3492962 c -0.77522,-1.7402986 -1.94665,-3.6660643 -2.72187,-5.4156367 -0.78211,-0.865512 -0.9785,-1.214808 -2.34288,-1.394093 -2.91137,-0.173103 -5.83652,-0.173103 -8.951169,-0.173103 -3.114649,0 -6.229298,0 -9.347392,0.173103 -0.971606,0.179285 -1.553879,0.528581 -2.332542,1.394093 l -2.532375,5.4156367 -2.146489,0.1731025 c 1.174884,-2.4419821 2.335987,-4.8839642 3.507426,-7.3259462 z M 68.21908,6.6752425 c 0,0.5254899 -0.389331,1.0509797 -1.171438,1.0509797 l -36.597125,0 c -0.778662,0 -1.367827,-0.5254898 -1.367827,-1.0509797 l 0,-0.346205 c 0,-0.7016835 0.589165,-1.0509797 1.367827,-1.0509797 l 36.597125,0 c 0.782107,0 1.171438,0.3492962 1.171438,1.0509797 l 0,0.346205 z m -2.146489,5.4094545 c 0,0.355478 -0.582274,0.704774 -0.968159,0.704774 l -4.0897,0 c -0.585719,0 -0.97505,-0.349296 -0.97505,-0.874786 l 0,-2.7912781 6.032909,0 0,2.9612901 z m -28.424617,0 c 0,0.355478 -0.778662,0.704774 -1.161102,0.704774 l -4.0897,0 c -0.389331,0 -0.97505,-0.349296 -0.97505,-0.874786 l 0,-2.7912781 6.225852,0 0,2.9612901 z M 30.450517,0.39409359 c 0,-0.34929618 0.38244,-0.69859235 0.582274,-0.69859235 l 6.229298,0 C 36.869312,-1.1731025 36.486872,-1.7047746 35.70821,-2.0540708 l -5.257693,0 c 0.775217,-1.3910024 1.946655,-1.9164923 3.307592,-2.4419821 5.061304,-0.3492962 8.954615,-0.5223987 14.212308,-0.5223987 5.254247,0 10.315552,0.3492962 15.769633,0.7016835 1.750267,0.5223987 2.725318,1.3940936 3.114649,2.4419821 l -5.061305,0 c -0.778662,0.1700114 -1.171438,0.5223987 -1.557324,1.74648088 l 6.032909,0 c 0.196389,0 0.58572,0.34929618 0.58572,0.69241012 l 0,0.5316721 c 0,0.3431139 -0.196388,0.5223987 -0.58572,0.5223987 l -5.839966,0 c 0,0.874786 0.389331,1.3910024 1.167993,1.9134011 l 5.257693,0 c -0.196388,0.3554785 -0.389331,0.528581 -0.975051,0.7016835 l -34.264583,0 c -0.582274,0 -0.96816,-0.346205 -0.96816,-0.7016835 l 5.247357,0 c 0.97505,-0.346205 1.367827,-1.0386151 1.367827,-1.9134011 l -6.229298,0 c -0.199834,0 -0.582274,-0.3492962 -0.582274,-0.69859239 l 0,-0.52548982 z M 35.70821,-12.693694 c 0.968159,-1.054071 1.35749,-1.397185 2.721872,-1.746481 3.307592,-0.182376 6.622074,-0.352387 9.929666,-0.352387 3.307592,0 6.622075,0.170011 10.122609,0.352387 1.360936,0.349296 1.753713,0.522399 2.532375,1.567196 l 4.282642,7.6814249 -2.528929,-0.3492962 c -0.785553,-1.7402986 -2.146489,-3.6660643 -2.925152,-5.4156367 -0.585719,-0.865512 -0.97505,-1.214808 -2.139598,-1.394093 -3.118094,-0.173103 -6.036355,-0.173103 -8.958061,-0.173103 -3.111204,0 -6.225853,0 -9.343947,0.173103 -1.167993,0.179285 -1.557324,0.528581 -2.335987,1.394093 l -2.532375,5.4156367 -2.136153,0.1731025 c 1.164548,-2.4419821 2.136153,-4.8839642 3.311038,-7.3259462 z m 36.790067,-34.617415 c -28.531424,0 -51.653558,20.732119 -51.653558,46.3049268 0,25.5789902 23.122134,46.3111092 51.653558,46.3111092 28.527983,0 51.653563,-20.732119 51.653563,-46.3111092 0,-25.5728078 -23.12558,-46.3049268 -51.653563,-46.3049268"
       style="fill:#ffffff;fill-opacity:1;fill-rule:nonzero;stroke:none"
       id="path1488" />
    <path
       inkscape:connector-curvature="0"
       d="m 114.74587,5.2780578 -36.790066,0 c -0.782108,0 -1.174884,0.3492962 -1.174884,1.0509797 l 0,0.346205 c 0,0.5254899 0.392776,1.0509797 1.174884,1.0509797 l 36.790066,0 c 0.58228,0 1.16799,-0.5254898 1.16799,-1.0509797 l 0,-0.346205 c 0,-0.7016835 -0.58571,-1.0509797 -1.16799,-1.0509797"
       style="fill:#191412;fill-opacity:1;fill-rule:nonzero;stroke:none"
       id="path1490" />
    <path
       inkscape:connector-curvature="0"
       d="m 78.920518,11.914685 c 0,0.52549 0.589165,0.874786 1.174884,0.874786 l 4.082809,0 c 0.392776,0 0.978496,-0.349296 0.978496,-0.704774 l 0,-2.9612901 -6.236189,0 0,2.7912781"
       style="fill:#191412;fill-opacity:1;fill-rule:nonzero;stroke:none"
       id="path1492" />
    <path
       inkscape:connector-curvature="0"
       d="m 107.54497,11.914685 c 0,0.52549 0.58227,0.874786 0.9716,0.874786 l 4.08626,0 c 0.39277,0 0.9716,-0.349296 0.9716,-0.704774 l 0,-2.9612901 -6.02946,0 0,2.7912781"
       style="fill:#191412;fill-opacity:1;fill-rule:nonzero;stroke:none"
       id="path1494" />
    <path
       inkscape:connector-curvature="0"
       d="m 84.570987,-10.956487 c 0.778663,-0.865512 1.360936,-1.214808 2.332542,-1.394093 3.118094,-0.173103 6.232743,-0.173103 9.347392,-0.173103 3.114649,0 6.039799,0 8.951169,0.173103 1.36438,0.179285 1.56077,0.528581 2.34288,1.394093 0.77522,1.7495724 1.94665,3.6753381 2.72187,5.4156367 l 2.53238,0.3492962 -4.28265,-7.6814249 c -0.58572,-1.044797 -0.9716,-1.2179 -2.53237,-1.567196 -3.31104,-0.182376 -6.61863,-0.352387 -10.12261,-0.352387 -3.307592,0 -6.618629,0.170011 -9.929667,0.352387 -1.360936,0.349296 -1.753712,0.69241 -2.532374,1.746481 -1.171439,2.441982 -2.332542,4.8839641 -3.507426,7.3259462 l 2.146489,-0.1731025 2.532375,-5.4156367"
       style="fill:#191412;fill-opacity:1;fill-rule:nonzero;stroke:none"
       id="path1496" />
    <path
       inkscape:connector-curvature="0"
       d="m 90.800285,-0.30449876 c 0,-0.69859234 0.389331,-1.04788854 1.164548,-1.04788854 l 8.961507,0 c 0.77177,0 1.16455,0.3492962 1.16455,1.04788854 l 0,1.74338976 c 0,0.6985924 -0.39278,1.0540708 -1.16455,1.0540708 l -8.961507,0 c -0.775217,0 -1.164548,-0.3554784 -1.164548,-1.0540708 l 0,-1.74338976 z m -7.400736,3.83607566 -5.254248,0 c 0,0.3554785 0.58572,0.7016835 0.971605,0.7016835 l 34.264584,0 c 0.58572,-0.1731025 0.78211,-0.346205 1.17144,-0.7016835 l -5.26114,0 c -0.77522,-0.5223987 -1.16455,-1.0386151 -1.36094,-1.9134011 l 5.84342,0 c 0.38933,0 0.57882,-0.1792848 0.57882,-0.5223987 l 0,-0.5316721 c 0,-0.34311394 -0.18949,-0.69241012 -0.57882,-0.69241012 l -5.84342,0 c 0.19639,-1.22408218 0.58572,-1.57646948 1.36094,-1.74648088 l 5.26114,0 c -0.58572,-1.0478885 -1.55733,-1.9195834 -3.31448,-2.4419821 -5.44719,-0.3523873 -10.5085,-0.7016835 -15.766191,-0.7016835 -5.061305,0 -9.151004,0.1731025 -14.019366,0.5223987 -1.56077,0.5254898 -2.721872,1.0509797 -3.307592,2.4419821 l 5.057859,0 c 0.778663,0.3492962 1.367827,0.8809683 1.564216,1.74957204 l -6.036355,0 c -0.392777,0 -0.58572,0.34929617 -0.58572,0.69859235 l 0,0.52548982 c 0,0.34929619 0.192943,0.69859239 0.58572,0.69859239 l 6.036355,0 c 0,0.874786 -0.196389,1.5671961 -1.367827,1.9134011"
       style="fill:#191412;fill-opacity:1;fill-rule:nonzero;stroke:none"
       id="path1498" />
    <path
       inkscape:connector-curvature="0"
       d="m 91.964833,2.4929618 8.961507,0 c 0.77177,0 1.16455,-0.3554784 1.16455,-1.0540708 l 0,-1.74338976 c 0,-0.69859234 -0.39278,-1.04788854 -1.16455,-1.04788854 l -8.961507,0 c -0.775217,0 -1.164548,0.3492962 -1.164548,1.04788854 l 0,1.74338976 c 0,0.6985924 0.389331,1.0540708 1.164548,1.0540708"
       style="fill:#ffffff;fill-opacity:1;fill-rule:nonzero;stroke:none"
       id="path1500" />
    <path
       inkscape:connector-curvature="0"
       d="m 67.047642,5.2780578 -36.597125,0 c -0.778662,0 -1.367827,0.3492962 -1.367827,1.0509797 l 0,0.346205 c 0,0.5254899 0.589165,1.0509797 1.367827,1.0509797 l 36.597125,0 c 0.782107,0 1.171438,-0.5254898 1.171438,-1.0509797 l 0,-0.346205 c 0,-0.7016835 -0.389331,-1.0509797 -1.171438,-1.0509797"
       style="fill:#c13339;fill-opacity:1;fill-rule:nonzero;stroke:none"
       id="path1502" />
    <path
       inkscape:connector-curvature="0"
       d="m 31.422122,11.914685 c 0,0.52549 0.585719,0.874786 0.97505,0.874786 l 4.0897,0 c 0.38244,0 1.161102,-0.349296 1.161102,-0.704774 l 0,-2.9612901 -6.225852,0 0,2.7912781"
       style="fill:#c13339;fill-opacity:1;fill-rule:nonzero;stroke:none"
       id="path1504" />
    <path
       inkscape:connector-curvature="0"
       d="m 60.039682,11.914685 c 0,0.52549 0.389331,0.874786 0.97505,0.874786 l 4.0897,0 c 0.385885,0 0.968159,-0.349296 0.968159,-0.704774 l 0,-2.9612901 -6.032909,0 0,2.7912781"
       style="fill:#c13339;fill-opacity:1;fill-rule:nonzero;stroke:none"
       id="path1506" />
    <path
       inkscape:connector-curvature="0"
       d="m 37.0657,-10.956487 c 0.778663,-0.865512 1.167994,-1.214808 2.335987,-1.394093 3.118094,-0.173103 6.232743,-0.173103 9.343947,-0.173103 2.921706,0 5.839967,0 8.958061,0.173103 1.164548,0.179285 1.553879,0.528581 2.139598,1.394093 0.778663,1.7495724 2.139599,3.6753381 2.925152,5.4156367 l 2.528929,0.3492962 -4.282642,-7.6814249 c -0.778662,-1.044797 -1.171439,-1.2179 -2.532375,-1.567196 -3.500534,-0.182376 -6.815017,-0.352387 -10.122609,-0.352387 -3.307592,0 -6.622074,0.170011 -9.929666,0.352387 -1.364382,0.349296 -1.753713,0.69241 -2.721872,1.746481 -1.174885,2.441982 -2.14649,4.8839641 -3.311038,7.3259462 l 2.136153,-0.1731025 2.532375,-5.4156367"
       style="fill:#c13339;fill-opacity:1;fill-rule:nonzero;stroke:none"
       id="path1508" />
    <path
       inkscape:connector-curvature="0"
       d="m 43.102055,-0.30449876 c 0,-0.69859234 0.582274,-1.04788854 1.167994,-1.04788854 l 9.151004,0 c 0.585719,0 1.164548,0.3492962 1.164548,1.04788854 l 0,1.74338976 c 0,0.6985924 -0.578829,1.0540708 -1.164548,1.0540708 l -9.151004,0 c -0.58572,0 -1.167994,-0.3554784 -1.167994,-1.0540708 l 0,-1.74338976 z m -12.069264,1.92267456 6.229298,0 c 0,0.874786 -0.392777,1.5671961 -1.367827,1.9134011 l -5.247357,0 c 0,0.3554785 0.385886,0.7016835 0.96816,0.7016835 l 34.264583,0 c 0.58572,-0.1731025 0.778663,-0.346205 0.975051,-0.7016835 l -5.257693,0 C 60.818344,3.0091782 60.429013,2.4929618 60.429013,1.6181758 l 5.839966,0 c 0.389332,0 0.58572,-0.1792848 0.58572,-0.5223987 l 0,-0.5316721 c 0,-0.34311394 -0.389331,-0.69241012 -0.58572,-0.69241012 l -6.032909,0 C 60.621956,-1.3523873 61.014732,-1.7047746 61.793394,-1.874786 l 5.061305,0 C 66.465368,-2.9226745 65.490317,-3.7943694 63.74005,-4.3167681 58.285969,-4.6691554 53.224664,-5.0184516 47.970417,-5.0184516 c -5.257693,0 -9.151004,0.1731025 -14.212308,0.5223987 -1.360937,0.5254898 -2.532375,1.0509797 -3.307592,2.4419821 l 5.257693,0 c 0.778662,0.3492962 1.161102,0.8809683 1.553879,1.74957204 l -6.229298,0 c -0.199834,0 -0.582274,0.34929617 -0.582274,0.69859235 l 0,0.52548982 c 0,0.34929619 0.38244,0.69859239 0.582274,0.69859239"
       style="fill:#c13339;fill-opacity:1;fill-rule:nonzero;stroke:none"
       id="path1510" />
    <path
       inkscape:connector-curvature="0"
       d="m 44.270049,2.4929618 9.151004,0 c 0.585719,0 1.164548,-0.3554784 1.164548,-1.0540708 l 0,-1.74338976 c 0,-0.69859234 -0.578829,-1.04788854 -1.164548,-1.04788854 l -9.151004,0 c -0.58572,0 -1.167994,0.3492962 -1.167994,1.04788854 l 0,1.74338976 c 0,0.6985924 0.582274,1.0540708 1.167994,1.0540708"
       style="fill:#ffffff;fill-opacity:1;fill-rule:nonzero;stroke:none"
       id="path1512" />
  </g>
</svg>
