<?xml version="1.0" encoding="UTF-8" standalone="no"?>
<!-- Created with Inkscape (http://www.inkscape.org/) -->

<svg
   xmlns:dc="http://purl.org/dc/elements/1.1/"
   xmlns:cc="http://creativecommons.org/ns#"
   xmlns:rdf="http://www.w3.org/1999/02/22-rdf-syntax-ns#"
   xmlns:svg="http://www.w3.org/2000/svg"
   xmlns="http://www.w3.org/2000/svg"
   xmlns:sodipodi="http://sodipodi.sourceforge.net/DTD/sodipodi-0.dtd"
   xmlns:inkscape="http://www.inkscape.org/namespaces/inkscape"
   id="svg2993"
   version="1.1"
   preserveAspectRatio="xMinYMin meet"
   viewBox="0 0 145 130"
   inkscape:version="0.48.3.1 r9886"
   sodipodi:docname="cod_1.svg"
   width="100%"
   height="100%">
  <defs
     id="defs2995" />
  <sodipodi:namedview
     id="base"
     pagecolor="#ffffff"
     bordercolor="#666666"
     borderopacity="1.0"
     inkscape:pageopacity="0.0"
     inkscape:pageshadow="2"
     inkscape:zoom="4.0153846"
     inkscape:cx="72.5"
     inkscape:cy="65"
     inkscape:current-layer="layer1"
     showgrid="true"
     inkscape:document-units="px"
     inkscape:grid-bbox="true"
     inkscape:window-width="1366"
     inkscape:window-height="692"
     inkscape:window-x="0"
     inkscape:window-y="24"
     inkscape:window-maximized="1" />
  <metadata
     id="metadata2998">
    <rdf:RDF>
      <cc:Work
         rdf:about="">
        <dc:format>image/svg+xml</dc:format>
        <dc:type
           rdf:resource="http://purl.org/dc/dcmitype/StillImage" />
        <dc:title></dc:title>
      </cc:Work>
    </rdf:RDF>
  </metadata>
  <g
     id="layer1"
     inkscape:label="Layer 1"
     inkscape:groupmode="layer"
     transform="translate(0,66)">
    <path
       inkscape:connector-curvature="0"
       d="m 143.37394,59.570624 c -1.35162,2.378604 -3.77596,3.810138 -6.47921,3.810138 l -128.7903556,0 c -2.703246,0 -5.1275857,-1.424249 -6.4792087,-3.810138 -1.35162295,-2.378604 -1.35162295,-5.238029 0,-7.616633 L 31.507476,-0.73591303 66.020347,-61.577909 c 1.351623,-2.385889 3.772387,-3.806495 6.479209,-3.806495 2.703246,0 5.12401,1.420606 6.479209,3.806495 l 64.395175,113.5319 c 1.35162,2.378604 1.35162,5.230744 0,7.616633 z M 79.507971,-61.887528 C 78.045501,-64.466474 75.424497,-66 72.499556,-66 c -2.924941,0 -5.545945,1.533526 -7.008416,4.112472 L 30.981845,-1.0455322 1.0995346,51.64073 c -1.46604613,2.578946 -1.46604613,5.66421 0,8.243156 C 2.562005,62.455547 5.1794336,64 8.1043744,64 L 136.89473,64 c 2.92494,0 5.54595,-1.544453 7.00842,-4.123399 1.46247,-2.578946 1.46247,-5.656925 0,-8.235871 L 79.507971,-61.887528"
       style="fill:#191412;fill-opacity:1;fill-rule:nonzero;stroke:none"
       id="path1148" />
    <path
       inkscape:connector-curvature="0"
       d="m 23.097378,46.952731 49.402178,-87.101348 49.402174,87.101348 -98.804352,0 z M 76.994239,-60.408641 c -1.995253,-3.526017 -6.994113,-3.526017 -8.989366,0 -21.46506,37.831825 -42.930121,75.689148 -64.3951814,113.528258 -1.995253,3.518731 0.5006011,7.929894 4.4946828,7.929894 l 128.7903556,0 c 3.99051,0 6.48994,-4.411163 4.49111,-7.929894 C 119.92435,15.280507 98.459293,-22.576816 76.994239,-60.408641"
       style="fill:#c13339;fill-opacity:1;fill-rule:nonzero;stroke:none"
       id="path1150" />
    <path
       inkscape:connector-curvature="0"
       d="m 90.117139,17.921376 c 0,0.557315 -0.543509,1.293116 -0.722296,1.657374 0.178787,0.91793 0.539934,2.932276 0.178787,3.478663 1.441016,1.471602 1.619802,2.932276 3.783114,3.84292 l 0,2.564376 0.536352,1.471602 c 1.083444,2.196475 2.882032,6.778839 5.034617,7.325226 0,0.735801 1.079867,2.385889 1.623377,2.746505 -1.977373,2.928633 -7.916642,-6.957326 -8.456576,-8.421643 L 90.471136,28.92925 c -0.897506,-2.211046 -6.657995,-2.385889 -7.551926,-5.318165 -0.543509,-1.46796 -1.623377,-2.750147 -3.421966,-2.750147 -1.255078,-1.646446 -8.453007,-0.735801 -10.255171,-2.196476 -0.178786,-0.185771 -0.901082,-0.185771 -1.441016,-0.3679 -1.802164,0.91793 -4.315897,-1.096416 -6.475633,-0.550029 1.43744,2.025273 7.737863,4.210821 8.095435,4.942979 l 0.71872,2.935919 c -0.353996,0.364258 -2.15616,-0.185772 -2.520884,-1.096416 -2.874881,-1.646446 -7.015567,-5.128752 -8.453007,-5.864553 -1.26223,-0.560957 -3.239605,-1.464316 -3.239605,-3.110762 0.178787,-0.550029 0.539934,-0.739444 1.619803,-0.739444 0.901082,0.55003 5.939274,-0.185771 7.376715,-0.364257 0.178786,-0.91793 -0.539935,-2.010704 -0.722296,-3.110763 0,-0.735801 0,-2.014346 0.722296,-2.5643754 0,-0.7358009 -0.901082,-7.8716131 -1.437441,-8.24315615 -1.441016,-0.9179299 -6.475633,-1.65008825 -5.939274,-3.48230545 2.87488,-0.7321584 7.376715,-1.6500883 8.453007,-5.6787806 0,-0.5500294 -0.178786,-1.4606744 -0.357572,-1.6464454 0.357572,-0.55003 0.543509,-1.46796 1.083444,-1.46796 0,0.182129 -0.182362,0.732159 -0.182362,1.282188 0,0 0.357572,0.371543 0.71872,0.371543 0.182362,-0.185771 1.802164,-0.735801 2.338522,-1.103701 0.539934,-1.096416 1.98095,-2.374962 2.163312,-2.374962 -0.361148,0.535459 -0.71872,1.089131 -1.083444,1.631876 l 0,0.743086 1.441016,1.2858302 c -3.24318,0 -5.578126,0.7285158 -6.300422,3.8429208 0,0.1857715 0.364723,0.7321583 0.364723,0.7321583 1.258655,0 2.513733,0.1784864 3.600753,-0.371543 -0.722296,1.1037014 -2.342098,1.2967581 -3.060818,2.0216313 0.536358,1.0964163 1.973798,5.857267 2.152584,7.1430973 0.364724,0.5500294 0.185938,0.3642579 0.54351,0.9179299 0,0.5427443 0.364724,0.9142873 0.539934,1.2785452 1.258654,4.2144639 6.475633,6.232453 10.079961,7.143097 3.772387,-1.832217 7.737863,2.75379 10.076385,5.121466 z m -67.019761,29.031355 98.804352,0 -49.402174,-87.101348 -49.402178,87.101348"
       style="fill:#ffffff;fill-opacity:1;fill-rule:nonzero;stroke:none"
       id="path1152" />
    <path
       inkscape:connector-curvature="0"
       d="M 69.960793,5.656813 C 69.785583,5.2925551 69.420859,4.9210121 69.420859,4.3782678 69.063287,3.8245958 69.242073,4.0103673 68.877349,3.4603379 c -0.178786,-1.2858303 -1.616226,-6.046681 -2.152584,-7.1430973 0.71872,-0.7248732 2.338522,-0.9179299 3.060818,-2.0216313 -1.08702,0.5500294 -2.342098,0.371543 -3.600753,0.371543 0,0 -0.364723,-0.5463868 -0.364723,-0.7321583 0.722296,-3.114405 3.057242,-3.8429208 6.300422,-3.8429208 l -1.441016,-1.2858302 0,-0.743086 c 0.364724,-0.542745 0.722296,-1.096417 1.083444,-1.631876 -0.182362,0 -1.623378,1.278546 -2.163312,2.374962 -0.536358,0.3679 -2.15616,0.91793 -2.338522,1.103701 -0.361148,0 -0.71872,-0.371543 -0.71872,-0.371543 0,-0.550029 0.182362,-1.100059 0.182362,-1.282188 -0.539935,0 -0.725872,0.91793 -1.083444,1.46796 0.178786,0.185771 0.357572,1.096416 0.357572,1.6464454 -1.076292,4.0286923 -5.578127,4.9466222 -8.453007,5.6787806 -0.536359,1.8322172 4.498258,2.56437555 5.939274,3.48230545 0.536359,0.37154305 1.437441,7.50735525 1.437441,8.24315615 -0.722296,0.5500294 -0.722296,1.8285744 -0.722296,2.5643754 0.182361,1.100059 0.901082,2.192833 0.722296,3.110763 -1.437441,0.178486 -6.475633,0.914287 -7.376715,0.364257 -1.079869,0 -1.441016,0.189415 -1.619803,0.739444 0,1.646446 1.977375,2.549805 3.239605,3.110762 1.43744,0.735801 5.578126,4.218107 8.453007,5.864553 0.364724,0.910644 2.166888,1.460674 2.520884,1.096416 l -0.71872,-2.935919 c -0.357572,-0.732158 -6.657995,-2.917706 -8.095435,-4.942979 2.159736,-0.546387 4.673469,1.467959 6.475633,0.550029 0.539934,0.182129 1.26223,0.182129 1.441016,0.3679 1.802164,1.460675 9.000093,0.55003 10.255171,2.196476 1.798589,0 2.878457,1.282187 3.421966,2.750147 0.893931,2.932276 6.65442,3.107119 7.551926,5.318165 l 1.623378,3.657149 c 0.539934,1.464317 6.479203,11.350276 8.456576,8.421643 -0.54351,-0.360616 -1.623377,-2.010704 -1.623377,-2.746505 -2.152585,-0.546387 -3.951173,-5.128751 -5.034617,-7.325226 l -0.536352,-1.471602 0,-2.564376 c -2.163312,-0.910644 -2.342098,-2.371318 -3.783114,-3.84292 0.361147,-0.546387 0,-2.560733 -0.178787,-3.478663 0.178787,-0.364258 0.722296,-1.100059 0.722296,-1.657374 C 87.778617,15.5537 83.813141,10.967693 80.040754,12.79991 76.436426,11.889266 71.219447,9.8712769 69.960793,5.656813"
       style="fill:#191412;fill-opacity:1;fill-rule:nonzero;stroke:none"
       id="path1154" />
  </g>
</svg>
