<?xml version="1.0" encoding="UTF-8" standalone="no"?>
<!-- Created with Inkscape (http://www.inkscape.org/) -->

<svg
   xmlns:dc="http://purl.org/dc/elements/1.1/"
   xmlns:cc="http://creativecommons.org/ns#"
   xmlns:rdf="http://www.w3.org/1999/02/22-rdf-syntax-ns#"
   xmlns:svg="http://www.w3.org/2000/svg"
   xmlns="http://www.w3.org/2000/svg"
   xmlns:sodipodi="http://sodipodi.sourceforge.net/DTD/sodipodi-0.dtd"
   xmlns:inkscape="http://www.inkscape.org/namespaces/inkscape"
   id="svg2993"
   version="1.1"
   preserveAspectRatio="xMinYMin meet"
   viewBox="0 0 145 130"
   inkscape:version="0.48.3.1 r9886"
   sodipodi:docname="cod_1.svg"
   width="100%"
   height="100%">
  <defs
     id="defs2995" />
  <sodipodi:namedview
     id="base"
     pagecolor="#ffffff"
     bordercolor="#666666"
     borderopacity="1.0"
     inkscape:pageopacity="0.0"
     inkscape:pageshadow="2"
     inkscape:zoom="2.0706896"
     inkscape:cx="125.05014"
     inkscape:cy="-9.1396909"
     inkscape:current-layer="layer1"
     showgrid="true"
     inkscape:document-units="px"
     inkscape:grid-bbox="true"
     inkscape:window-width="1366"
     inkscape:window-height="692"
     inkscape:window-x="0"
     inkscape:window-y="24"
     inkscape:window-maximized="1" />
  <metadata
     id="metadata2998">
    <rdf:RDF>
      <cc:Work
         rdf:about="">
        <dc:format>image/svg+xml</dc:format>
        <dc:type
           rdf:resource="http://purl.org/dc/dcmitype/StillImage" />
        <dc:title></dc:title>
      </cc:Work>
    </rdf:RDF>
  </metadata>
  <g
     id="layer1"
     inkscape:label="Layer 1"
     inkscape:groupmode="layer"
     transform="translate(0,66)">
    <path
       inkscape:connector-curvature="0"
       d="m 21.033263,49.237159 51.461892,-91.244203 51.473065,91.244203 -102.934957,0 z m 56.148035,-112.46698 c -2.078591,-3.693572 -7.286244,-3.693572 -9.36111,0 C 45.454845,-23.592603 23.093229,16.056061 0.73533644,55.697094 -1.3507048,59.383035 1.2493966,64 5.4177541,64 L 139.58373,64 c 4.15718,0 6.76846,-4.616965 4.68242,-8.302906 C 121.90081,16.056061 99.542915,-23.592603 77.181298,-63.229821"
       style="fill:#c13339;fill-opacity:1;fill-rule:nonzero;stroke:none"
       id="path1024" />
    <path
       inkscape:connector-curvature="0"
       d="m 39.599029,32.245964 0,3.6516 6.746109,0 0,-3.6516 -6.746109,0"
       style="fill:#ffffff;fill-opacity:1;fill-rule:nonzero;stroke:none"
       id="path1026" />
    <path
       inkscape:connector-curvature="0"
       d="m 104.46001,35.897564 0,-3.6516 -7.681099,0 0,3.6516 7.681099,0"
       style="fill:#ffffff;fill-opacity:1;fill-rule:nonzero;stroke:none"
       id="path1028" />
    <path
       inkscape:connector-curvature="0"
       d="M 78.585651,4.0405048 79.151862,3.4643381 81.774314,6.341356 51.407513,35.317581 48.788786,32.623716 49.340097,32.058996 46.535117,28.983563 75.776945,0.96888758 78.585651,4.0405048 z M 91.71281,38.76695 l 0,1.541533 c -3.564895,-0.572352 -2.618726,-1.541533 -5.431157,-1.541533 -2.819881,-0.190783 -2.257395,1.541533 -6.381051,1.541533 -3.937403,0 -3.751149,-1.732316 -7.308595,-1.732316 -3.754874,0 -2.816156,1.732316 -6.56358,1.732316 -3.56117,0 -3.367466,-1.732316 -6.746108,-1.732316 -3.374917,0 -2.804981,1.346933 -5.993644,1.732316 l 0,-1.541533 c 3.188663,-0.763134 2.242495,-1.5339 5.993644,-1.5339 3.743699,0 3.184938,1.5339 6.746108,1.5339 3.564896,0 2.25367,-1.5339 6.56358,-1.5339 4.119932,-0.190784 3.557446,1.5339 7.308595,1.5339 3.747424,0 3.002409,-1.5339 6.183622,-1.5339 3.184938,0 2.819881,1.152333 5.628586,1.5339 z m 2.063691,-2.869386 2.432473,0 0,-4.414735 8.068506,0 0.93127,1.339302 0,3.075433 2.62245,0 4.50734,7.482536 -18.562039,0 0,-7.482536 z M 91.71281,43.3801 c -3.564895,-0.389199 -4.119931,-1.7285 -5.431157,-1.7285 -1.687458,0.186968 -2.257395,1.7285 -6.381051,1.7285 -3.937403,0 -6.001094,-1.7285 -7.308595,-1.7285 -1.501205,0 -2.816156,1.7285 -6.56358,1.7285 -3.56117,0 -5.434882,-1.7285 -6.746108,-1.7285 -1.311226,0 -2.804981,1.339301 -5.993644,1.530085 l 0,-1.343117 c 3.188663,-0.763135 3.743699,-1.7285 5.993644,-1.7285 2.063691,0 3.184938,1.7285 6.746108,1.7285 3.564896,0 4.131107,-1.7285 6.56358,-1.7285 2.24622,0 3.557446,1.7285 7.308595,1.7285 3.747424,0 3.933678,-1.530085 6.183622,-1.7285 2.249945,0 2.819881,1.343117 5.628586,1.7285 l 0,1.541532 z m -40.495276,0 -18.554592,0 4.499889,-7.482536 1.873712,0 0,-3.075433 0.931269,-1.339302 7.133516,0 0,4.414735 4.116206,0 0,7.482536 z m -30.184271,5.857059 102.934957,0 -51.473065,-91.244203 -51.461892,91.244203"
       style="fill:#ffffff;fill-opacity:1;fill-rule:nonzero;stroke:none"
       id="path1030" />
    <path
       inkscape:connector-curvature="0"
       d="m 59.09234,22.653361 -9.182307,8.829468 -2.249944,-2.499266 9.178582,-8.829468 2.253669,2.499266 z m 7.126066,-11.32492 2.242494,2.506898 -8.802349,8.436454 -2.249944,-2.49545 8.809799,-8.447902 z M 75.776945,2.1250367 78.02689,4.6204872 69.027112,13.255357 66.777167,10.759906 75.776945,2.1250367 z M 49.340097,32.058996 48.788786,32.623716 51.407513,35.317581 81.774314,6.341356 79.151862,3.4643381 78.585651,4.0405048 75.776945,0.96888758 46.535117,28.983563 l 2.80498,3.075433"
       style="fill:#191412;fill-opacity:1;fill-rule:nonzero;stroke:none"
       id="path1032" />
    <path
       inkscape:connector-curvature="0"
       d="M 78.02689,4.6204872 75.776945,2.1250367 66.777167,10.759906 69.027112,13.255357 78.02689,4.6204872"
       style="fill:#ffffff;fill-opacity:1;fill-rule:nonzero;stroke:none"
       id="path1034" />
    <path
       inkscape:connector-curvature="0"
       d="m 68.4609,13.835339 -2.242494,-2.506898 -8.809799,8.447902 2.249944,2.49545 8.802349,-8.436454"
       style="fill:#ffffff;fill-opacity:1;fill-rule:nonzero;stroke:none"
       id="path1036" />
    <path
       inkscape:connector-curvature="0"
       d="m 49.910033,31.482829 9.182307,-8.829468 -2.253669,-2.499266 -9.178582,8.829468 2.249944,2.499266"
       style="fill:#ffffff;fill-opacity:1;fill-rule:nonzero;stroke:none"
       id="path1038" />
    <path
       inkscape:connector-curvature="0"
       d="m 46.345138,35.897564 -6.746109,0 0,-3.6516 6.746109,0 0,3.6516 z m 0.75619,-4.414735 -7.133516,0 -0.931269,1.339302 0,3.075433 -1.873712,0 -4.499889,7.482536 18.554592,0 0,-7.482536 -4.116206,0 0,-4.414735"
       style="fill:#191412;fill-opacity:1;fill-rule:nonzero;stroke:none"
       id="path1040" />
    <path
       inkscape:connector-curvature="0"
       d="m 96.778911,32.245964 7.681099,0 0,3.6516 -7.681099,0 0,-3.6516 z m 15.559629,11.134136 -4.50734,-7.482536 -2.62245,0 0,-3.075433 -0.93127,-1.339302 -8.068506,0 0,4.414735 -2.432473,0 0,7.482536 18.562039,0"
       style="fill:#191412;fill-opacity:1;fill-rule:nonzero;stroke:none"
       id="path1042" />
    <path
       inkscape:connector-curvature="0"
       d="m 79.900602,41.838568 c -3.751149,0 -5.062375,-1.7285 -7.308595,-1.7285 -2.432473,0 -2.998684,1.7285 -6.56358,1.7285 -3.56117,0 -4.682417,-1.7285 -6.746108,-1.7285 -2.249945,0 -2.804981,0.965365 -5.993644,1.7285 l 0,1.343117 c 3.188663,-0.190784 4.682418,-1.530085 5.993644,-1.530085 1.311226,0 3.184938,1.7285 6.746108,1.7285 3.747424,0 5.062375,-1.7285 6.56358,-1.7285 1.307501,0 3.371192,1.7285 7.308595,1.7285 4.123656,0 4.693593,-1.541532 6.381051,-1.7285 1.311226,0 1.866262,1.339301 5.431157,1.7285 l 0,-1.541532 c -2.808705,-0.385383 -3.378641,-1.7285 -5.628586,-1.7285 -2.249944,0.198415 -2.436198,1.7285 -6.183622,1.7285"
       style="fill:#191412;fill-opacity:1;fill-rule:nonzero;stroke:none"
       id="path1044" />
    <path
       inkscape:connector-curvature="0"
       d="m 72.592007,37.23305 c -4.30991,0 -2.998684,1.5339 -6.56358,1.5339 -3.56117,0 -3.002409,-1.5339 -6.746108,-1.5339 -3.751149,0 -2.804981,0.770766 -5.993644,1.5339 l 0,1.541533 c 3.188663,-0.385383 2.618727,-1.732316 5.993644,-1.732316 3.378642,0 3.184938,1.732316 6.746108,1.732316 3.747424,0 2.808706,-1.732316 6.56358,-1.732316 3.557446,0 3.371192,1.732316 7.308595,1.732316 4.123656,0 3.56117,-1.732316 6.381051,-1.541533 2.812431,0 1.866262,0.969181 5.431157,1.541533 l 0,-1.541533 c -2.808705,-0.381567 -2.443648,-1.5339 -5.628586,-1.5339 -3.181213,0 -2.436198,1.5339 -6.183622,1.5339 -3.751149,0 -3.188663,-1.724684 -7.308595,-1.5339"
       style="fill:#191412;fill-opacity:1;fill-rule:nonzero;stroke:none"
       id="path1046" />
  </g>
</svg>
