<?xml version="1.0" encoding="UTF-8" standalone="no"?>
<!-- Created with Inkscape (http://www.inkscape.org/) -->

<svg
   xmlns:dc="http://purl.org/dc/elements/1.1/"
   xmlns:cc="http://creativecommons.org/ns#"
   xmlns:rdf="http://www.w3.org/1999/02/22-rdf-syntax-ns#"
   xmlns:svg="http://www.w3.org/2000/svg"
   xmlns="http://www.w3.org/2000/svg"
   xmlns:sodipodi="http://sodipodi.sourceforge.net/DTD/sodipodi-0.dtd"
   xmlns:inkscape="http://www.inkscape.org/namespaces/inkscape"
   id="svg2993"
   version="1.1"
   preserveAspectRatio="xMinYMin meet"
   viewBox="0 0 145 130"
   inkscape:version="0.48.3.1 r9886"
   sodipodi:docname="cod_45.svg"
   width="100%"
   height="100%">
  <defs
     id="defs2995" />
  <sodipodi:namedview
     id="base"
     pagecolor="#ffffff"
     bordercolor="#666666"
     borderopacity="1.0"
     inkscape:pageopacity="0.0"
     inkscape:pageshadow="2"
     inkscape:zoom="4.0153846"
     inkscape:cx="72.5"
     inkscape:cy="65"
     inkscape:current-layer="layer1"
     showgrid="true"
     inkscape:document-units="px"
     inkscape:grid-bbox="true"
     inkscape:window-width="1366"
     inkscape:window-height="692"
     inkscape:window-x="0"
     inkscape:window-y="24"
     inkscape:window-maximized="1" />
  <metadata
     id="metadata2998">
    <rdf:RDF>
      <cc:Work
         rdf:about="">
        <dc:format>image/svg+xml</dc:format>
        <dc:type
           rdf:resource="http://purl.org/dc/dcmitype/StillImage" />
        <dc:title></dc:title>
      </cc:Work>
    </rdf:RDF>
  </metadata>
  <g
     id="layer1"
     inkscape:label="Layer 1"
     inkscape:groupmode="layer"
     transform="translate(0,66)">
    <path
       inkscape:connector-curvature="0"
       d="m 72.496555,63.236512 c -39.505989,0 -71.65240996,-28.817795 -71.65240996,-64.2411486 0,-35.4202634 32.14642096,-64.2380574 71.65240996,-64.2380574 39.512875,0 71.659295,28.817794 71.659295,64.2380574 0,35.4233536 -32.14642,64.2411486 -71.659295,64.2411486 z M 72.496555,-66 C 32.52198,-66 0,-36.845281 0,-1.0046366 0,34.836008 32.52198,64 72.496555,64 112.47802,64 145,34.836008 145,-1.0046366 145,-36.845281 112.47802,-66 72.496555,-66"
       style="fill:#191412;fill-opacity:1;fill-rule:nonzero;stroke:none"
       id="path4223" />
    <path
       inkscape:connector-curvature="0"
       d="m 72.496555,45.305371 c -28.525212,0 -51.654786,-20.731626 -51.654786,-46.3100076 0,-25.5721994 23.129574,-46.3038254 51.654786,-46.3038254 28.532105,0 51.658235,20.731626 51.658235,46.3038254 0,25.5783816 -23.12613,46.3100076 -51.658235,46.3100076 z m 0,-108.764534 c -38.479233,0 -69.6746987,27.955394 -69.6746987,62.4545264 0,34.4991326 31.1954657,62.4637996 69.6746987,62.4637996 38.482675,0 69.678145,-27.964667 69.678145,-62.4637996 0,-34.4991324 -31.19547,-62.4545264 -69.678145,-62.4545264"
       style="fill:#c13339;fill-opacity:1;fill-rule:nonzero;stroke:none"
       id="path4225" />
    <path
       inkscape:connector-curvature="0"
       d="m 60.251283,-12.466224 c 0.334213,0 0.640861,-0.216373 0.8786,-0.605845 0.306649,-0.506931 0.465141,-1.282783 0.465141,-2.237915 0,-1.063319 -0.248075,-1.666072 -0.454804,-1.987541 -0.241185,-0.358561 -0.551279,-0.553297 -0.882046,-0.553297 -0.775235,0 -1.578034,1.016954 -1.578034,2.710845 0,1.650617 0.816581,2.673753 1.571143,2.673753"
       style="fill:#ffffff;fill-opacity:1;fill-rule:nonzero;stroke:none"
       id="path4227" />
    <path
       inkscape:connector-curvature="0"
       d="m 107.34769,28.146991 c 0,0.964405 -0.85104,2.006087 -2.23613,2.006087 l -4.28619,0 c -0.54438,0 -1.064653,-0.225646 -1.460885,-0.633664 -0.365222,-0.383289 -0.582287,-0.884038 -0.582287,-1.372423 l 0,-15.359393 c 0,-0.565661 0.21362,-1.072592 0.589178,-1.440426 0.38245,-0.361652 0.899274,-0.565661 1.453994,-0.565661 l 4.28619,0 c 1.31963,0 2.23613,0.828399 2.23613,2.006087 l 0,15.359393 z m -9.730068,0 c 0,1.06641 -0.954401,2.006087 -2.043176,2.006087 l -4.286189,0 c -1.126675,0 -2.236123,-0.995316 -2.236123,-2.006087 l 0,-6.543738 -12.40721,0 c -0.902718,1.480609 -2.53588,2.445015 -4.241398,2.445015 -1.660726,0 -3.121614,-0.899494 -4.04845,-2.445015 l -12.786214,0 c 0.0379,1.220962 0.189502,6.537556 0.189502,6.543738 0,0.284376 -1.071547,2.006087 -2.236123,2.006087 l -4.286189,0 c -1.08533,0 -2.03973,-0.939677 -2.03973,-2.006087 l 0,-15.359393 c 0,-1.143686 0.8786,-2.006087 2.03973,-2.006087 l 4.286189,0 c 1.316177,0 2.236123,0.828399 2.236123,2.006087 l 0,5.149678 12.586375,0 c 0.675316,-1.375515 2.229232,-2.268826 4.058787,-2.268826 1.888129,0 3.576419,0.933495 4.244844,2.268826 l 12.403764,0 0,-5.149678 c 0,-1.010771 1.109448,-2.006087 2.236123,-2.006087 l 4.286189,0 c 1.164576,0 2.043176,0.862401 2.043176,2.006087 l 0,15.359393 z m -51.596212,0 c 0,1.06641 -0.957847,2.006087 -2.036285,2.006087 l -4.28619,0 c -1.09222,0 -2.043175,-0.939677 -2.043175,-2.006087 l 0,-15.359393 c 0,-1.143686 0.875154,-2.006087 2.043175,-2.006087 l 4.28619,0 c 1.16113,0 2.036285,0.862401 2.036285,2.006087 l 0,15.359393 z m 14.508958,-57.159569 c 2.725382,0 5.919352,1.888627 6.322474,4.942578 l 0.02756,0.213282 -0.230848,0.06491 -3.693565,1.047863 -0.292867,0.08346 -0.08269,-0.265829 c -0.368667,-1.276601 -1.040538,-1.922629 -1.836446,-1.771168 -1.012974,0.191645 -1.950147,1.588796 -1.881237,3.1405 0.606406,-0.244193 1.578034,-0.370925 2.56689,-0.281285 2.270578,0.219464 3.883067,1.424971 4.437791,3.313598 -0.0069,-0.01236 -0.0069,-0.02473 -0.01378,-0.03709 l 0.01736,0.04327 c 0,-0.0032 -0.0036,-0.0032 -0.0036,-0.0062 1.209367,2.389376 1.043983,5.236227 -0.451359,7.43705 -1.174912,1.7278929 -2.956231,2.7664834 -4.871923,2.8437595 -1.698627,0.1298238 -3.214642,-0.3307416 -4.372327,-1.3384217 -1.895019,-1.6475258 -2.794292,-4.6798388 -2.549663,-8.5220058 0,-6.985757 2.318815,-10.657917 6.908208,-10.908291 z m 8.661962,-7.7647 0,-1.832989 1.364414,0 0,-2.497563 0.134374,-0.07418 2.139649,-1.227144 0.451359,-0.256557 0,4.197637 1.23004,-0.142188 0.327322,-0.03709 0,2.13282 -1.557362,0 0,5.291866 c 0.04135,0.306013 0.141265,0.522386 0.289421,0.627482 0.227403,0.157643 0.637416,0.114368 1.064657,0.06491 0.227402,-0.02782 0.461695,-0.04946 0.692543,-0.04946 l 0.289421,0 0,2.055544 -0.248075,0.034 c -1.974266,0.253466 -3.245651,0.123642 -4.007105,-0.401835 -0.45825,-0.318378 -0.730444,-0.791308 -0.806244,-1.400243 l 0,-6.22227 -1.364414,0 0,-0.262738 z m 6.01238,28.7250631 c -0.616743,1.2796919 -3.249097,2.6212046 -4.789231,2.4264689 l 0.04479,0.00321 c -0.744226,0 -1.102557,-0.030911 -1.150794,-0.3183775 -0.06202,-0.3091043 0.310094,-0.432746 1.216258,-0.7047578 L 70.7807,-6.7816725 c 0.857928,-0.454507 1.43677,-0.8068859 1.36786,-1.1623558 -0.80969,-0.052548 -1.402314,-0.3060133 -1.926029,-0.927313 -0.713216,-0.8562189 -0.396231,-2.4141047 0.640861,-3.1528637 1.043984,-0.751124 2.921776,-0.615118 4.027778,-0.02151 l 0.01378,0.0094 0.01709,0.01236 c 1.037092,0.735668 1.154239,2.4141047 0.28253,3.9719904 z m 3.042367,10.9793852 0.192948,0 c 0.161938,0 0.289421,0.1174596 0.289421,0.2627386 l 0,0.1730984 c 0,0.043275 -0.01378,0.08964 -0.04135,0.1298239 l -6.029607,9.4276818 c -0.04824,0.07728 -0.144711,0.129823 -0.248076,0.129823 -0.10681,0 -0.203284,-0.05255 -0.254966,-0.129823 L 66.118949,3.6721117 c -0.02756,-0.037093 -0.04135,-0.086549 -0.04135,-0.1329149 0,-0.1514611 0,-0.6120265 0.485814,-0.6120265 l 0.199838,0 c 0.01378,0 0.03101,0.00297 0.04479,0.00618 l 3.166405,0.4667475 0,-4.9271227 c 0,-0.1452791 0.127483,-0.2627387 0.285976,-0.2627387 l 4.289635,0 c 0.161938,0 0.289421,0.1174596 0.289421,0.2627387 l 0,4.9302137 3.366243,-0.4729296 c 0.01378,0 0.03101,-0.00297 0.04135,-0.00297 z m 0.682207,-14.9730133 0.241185,-0.03091 2.528989,-0.349288 0.303203,-0.04018 0.03445,0.272011 c 0.08614,0.79749 0.627079,1.344604 1.050875,1.335331 0.365222,-0.0062 0.820026,-0.497658 0.902718,-1.83608 0,-1.384787 -0.444468,-1.990631 -0.854481,-2.095727 -0.354886,-0.09273 -0.789018,0.163825 -1.147349,0.664574 l -0.09303,0.136006 -0.182611,-0.01533 -1.936365,-0.17619 -0.296312,-0.02782 0.03445,-0.26583 0.975073,-6.973393 0.03101,-0.228737 6.384493,0 0,2.611931 -3.352462,0 -0.28253,1.662981 c 0.616742,-0.173098 1.295504,-0.173098 1.953592,0.14837 1.419542,0.701667 2.267133,2.346102 2.267133,4.404737 -0.258412,3.2425041 -1.777873,4.958033 -4.379218,4.958033 -3.09405,-0.1978267 -4.182825,-2.237915 -4.182825,-3.925625 l 0,-0.228737 z m -6.432729,-35.262619 c -28.525212,0 -51.654786,20.731626 -51.654786,46.3038254 0,25.5783816 23.129574,46.3100076 51.654786,46.3100076 28.532105,0 51.658235,-20.731626 51.658235,-46.3100076 0,-25.5721994 -23.12613,-46.3038254 -51.658235,-46.3038254"
       style="fill:#ffffff;fill-opacity:1;fill-rule:nonzero;stroke:none"
       id="path4229" />
    <path
       inkscape:connector-curvature="0"
       d="m 65.85365,-18.561761 c 0.0069,0.01236 0.0069,0.02473 0.01378,0.03709 0,0.003 0.0036,0.003 0.0036,0.0062 l -0.01736,-0.04327"
       style="fill:#191412;fill-opacity:1;fill-rule:nonzero;stroke:none"
       id="path4231" />
    <path
       inkscape:connector-curvature="0"
       d="m 60.258174,-17.850822 c 0.330767,0 0.640861,0.194736 0.882046,0.553297 0.206729,0.321469 0.454804,0.924222 0.454804,1.987541 0,0.955132 -0.158492,1.730984 -0.465141,2.237915 -0.237739,0.389472 -0.544387,0.605845 -0.8786,0.605845 -0.754562,0 -1.571143,-1.023136 -1.571143,-2.673753 0,-1.693891 0.802799,-2.710845 1.578034,-2.710845 z m 0.285976,9.6069625 c 1.915692,-0.077276 3.697011,-1.1158666 4.871923,-2.8437595 1.495342,-2.200823 1.660726,-5.047674 0.451359,-7.43705 -0.554724,-1.888627 -2.167213,-3.094134 -4.437791,-3.313598 -0.988856,-0.08964 -1.960484,0.03709 -2.56689,0.281285 -0.06891,-1.551704 0.868263,-2.948855 1.881237,-3.1405 0.795908,-0.151461 1.467779,0.494567 1.836446,1.771168 l 0.08269,0.265829 0.292867,-0.08346 3.693565,-1.047863 0.230848,-0.06491 -0.02756,-0.213282 c -0.403124,-3.053951 -3.597094,-4.942578 -6.322476,-4.942578 -4.589393,0.250374 -6.908208,3.922534 -6.908208,10.908291 -0.244629,3.842167 0.654644,6.87448 2.549663,8.5220058 1.157685,1.0076801 2.6737,1.4682455 4.372327,1.3384217"
       style="fill:#191412;fill-opacity:1;fill-rule:nonzero;stroke:none"
       id="path4233" />
    <path
       inkscape:connector-curvature="0"
       d="m 105.11156,10.781511 -4.28619,0 c -0.55472,0 -1.071544,0.204009 -1.453994,0.565661 -0.375558,0.367834 -0.589178,0.874765 -0.589178,1.440426 l 0,15.359393 c 0,0.488385 0.217065,0.989134 0.582287,1.372423 0.396232,0.408018 0.916505,0.633664 1.460885,0.633664 l 4.28619,0 c 1.38509,0 2.23613,-1.041682 2.23613,-2.006087 l 0,-15.359393 c 0,-1.177688 -0.9165,-2.006087 -2.23613,-2.006087"
       style="fill:#191412;fill-opacity:1;fill-rule:nonzero;stroke:none"
       id="path4235" />
    <path
       inkscape:connector-curvature="0"
       d="m 95.574446,10.781511 -4.286189,0 c -1.126675,0 -2.236123,0.995316 -2.236123,2.006087 l 0,5.149678 -12.403764,0 c -0.668425,-1.335331 -2.356715,-2.268826 -4.244844,-2.268826 -1.829555,0 -3.383471,0.893311 -4.058787,2.268826 l -12.586375,0 0,-5.149678 c 0,-1.177688 -0.919946,-2.006087 -2.236123,-2.006087 l -4.286189,0 c -1.16113,0 -2.03973,0.862401 -2.03973,2.006087 l 0,15.359393 c 0,1.06641 0.9544,2.006087 2.03973,2.006087 l 4.286189,0 c 1.164576,0 2.236123,-1.721711 2.236123,-2.006087 0,-0.0062 -0.151601,-5.322776 -0.189502,-6.543738 l 12.786214,0 c 0.926836,1.545521 2.387724,2.445015 4.04845,2.445015 1.705518,0 3.33868,-0.964406 4.241398,-2.445015 l 12.40721,0 0,6.543738 c 0,1.010771 1.109448,2.006087 2.236123,2.006087 l 4.286189,0 c 1.088775,0 2.043176,-0.939677 2.043176,-2.006087 l 0,-15.359393 c 0,-1.143686 -0.8786,-2.006087 -2.043176,-2.006087"
       style="fill:#191412;fill-opacity:1;fill-rule:nonzero;stroke:none"
       id="path4237" />
    <path
       inkscape:connector-curvature="0"
       d="m 43.985125,10.781511 -4.28619,0 c -1.168021,0 -2.043175,0.862401 -2.043175,2.006087 l 0,15.359393 c 0,1.06641 0.950955,2.006087 2.043175,2.006087 l 4.28619,0 c 1.078438,0 2.036285,-0.939677 2.036285,-2.006087 l 0,-15.359393 c 0,-1.143686 -0.875155,-2.006087 -2.036285,-2.006087"
       style="fill:#191412;fill-opacity:1;fill-rule:nonzero;stroke:none"
       id="path4239" />
    <path
       inkscape:connector-curvature="0"
       d="m 74.839488,-1.5270228 c 0,-0.1452791 -0.127483,-0.2627387 -0.289421,-0.2627387 l -4.289635,0 c -0.158493,0 -0.285976,0.1174596 -0.285976,0.2627387 l 0,4.9271227 -3.166405,-0.4667475 c -0.01378,-0.00297 -0.03101,-0.00618 -0.04479,-0.00618 l -0.199838,0 c -0.485814,0 -0.485814,0.4605654 -0.485814,0.6120265 0,0.046366 0.01378,0.095822 0.04135,0.1329149 l 6.036498,9.2484013 c 0.05168,0.07728 0.148156,0.129823 0.254966,0.129823 0.103365,0 0.199839,-0.05255 0.248076,-0.129823 l 6.029607,-9.4276818 c 0.02756,-0.040184 0.04135,-0.086549 0.04135,-0.1298239 l 0,-0.1730984 c 0,-0.145279 -0.127483,-0.2627386 -0.289421,-0.2627386 l -0.192948,0 c -0.01047,0 -0.02756,0.00297 -0.04135,0.00297 l -3.366243,0.4729296 0,-4.9302138"
       style="fill:#191412;fill-opacity:1;fill-rule:nonzero;stroke:none"
       id="path4241" />
    <path
       inkscape:connector-curvature="0"
       d="m 70.556744,-36.51454 0,6.22227 c 0.0758,0.608935 0.347994,1.081865 0.806244,1.400243 0.761454,0.525477 2.032839,0.655301 4.007105,0.401835 l 0.248075,-0.034 0,-2.055544 -0.289421,0 c -0.230848,0 -0.465141,0.02151 -0.692543,0.04946 -0.427241,0.04946 -0.837254,0.09273 -1.064657,-0.06491 -0.148156,-0.105096 -0.248075,-0.321469 -0.289421,-0.627482 l 0,-5.291866 1.557362,0 0,-2.13282 -0.327322,0.03709 -1.23004,0.142188 0,-4.197637 -0.451359,0.256557 -2.139649,1.227144 -0.134374,0.07418 0,2.497563 -1.364414,0 0,2.095727 1.364414,0"
       style="fill:#191412;fill-opacity:1;fill-rule:nonzero;stroke:none"
       id="path4243" />
    <path
       inkscape:connector-curvature="0"
       d="m 83.112109,-7.8914806 c 2.601345,0 4.120806,-1.7155289 4.379218,-4.9580334 0,-2.058634 -0.847591,-3.703069 -2.267133,-4.404736 -0.658088,-0.321469 -1.33685,-0.321469 -1.953592,-0.14837 l 0.28253,-1.662981 3.352462,0 0,-2.611932 -6.384493,0 -0.03101,0.228737 -0.975073,6.973394 -0.03445,0.265829 0.296312,0.02782 1.936365,0.176189 0.182611,0.01533 0.09303,-0.136006 c 0.358331,-0.500749 0.792463,-0.757306 1.147349,-0.664574 0.410013,0.105095 0.854481,0.710939 0.854481,2.095727 -0.08269,1.338421 -0.537496,1.829897 -0.902718,1.836079 -0.423796,0.0094 -0.964738,-0.537841 -1.050875,-1.33533 l -0.03445,-0.272012 -0.303203,0.04018 -2.528989,0.349287 -0.241185,0.03091 0,0.228737 c 0,1.68771 1.088775,3.727798 4.182825,3.9256247"
       style="fill:#191412;fill-opacity:1;fill-rule:nonzero;stroke:none"
       id="path4245" />
    <path
       inkscape:connector-curvature="0"
       d="m 74.904952,-12.036569 -0.01378,-0.0094 c -1.106002,-0.59348 -2.983794,-0.729486 -4.027778,0.02151 -1.037092,0.73876 -1.354077,2.2966455 -0.640861,3.1528644 0.523715,0.6212997 1.116339,0.8747652 1.926029,0.927313 0.06891,0.3554699 -0.509932,0.7078488 -1.367859,1.1622322 l -0.254967,0.1360059 c -0.906164,0.2720118 -1.278277,0.3956535 -1.216258,0.7047578 0.04824,0.287467 0.406568,0.3183774 1.150794,0.3183774 l -0.04479,-0.00297 c 1.540134,0.1947358 4.172488,-1.1467769 4.789231,-2.4264688 0.871709,-1.5578857 0.754562,-3.2363225 -0.282531,-3.9719905 l -0.01709,-0.01236"
       style="fill:#191412;fill-opacity:1;fill-rule:nonzero;stroke:none"
       id="path4247" />
  </g>
</svg>
