<?xml version="1.0" encoding="UTF-8" standalone="no"?>
<!-- Created with Inkscape (http://www.inkscape.org/) -->

<svg
   xmlns:dc="http://purl.org/dc/elements/1.1/"
   xmlns:cc="http://creativecommons.org/ns#"
   xmlns:rdf="http://www.w3.org/1999/02/22-rdf-syntax-ns#"
   xmlns:svg="http://www.w3.org/2000/svg"
   xmlns="http://www.w3.org/2000/svg"
   xmlns:sodipodi="http://sodipodi.sourceforge.net/DTD/sodipodi-0.dtd"
   xmlns:inkscape="http://www.inkscape.org/namespaces/inkscape"
   id="svg2993"
   version="1.1"
   preserveAspectRatio="xMinYMin meet"
   viewBox="0 0 145 130"
   inkscape:version="0.48.3.1 r9886"
   sodipodi:docname="cod_46.svg"
   width="100%"
   height="100%">
  <defs
     id="defs2995" />
  <sodipodi:namedview
     id="base"
     pagecolor="#ffffff"
     bordercolor="#666666"
     borderopacity="1.0"
     inkscape:pageopacity="0.0"
     inkscape:pageshadow="2"
     inkscape:zoom="4.0153846"
     inkscape:cx="24.683908"
     inkscape:cy="65"
     inkscape:current-layer="layer1"
     showgrid="true"
     inkscape:document-units="px"
     inkscape:grid-bbox="true"
     inkscape:window-width="1366"
     inkscape:window-height="692"
     inkscape:window-x="0"
     inkscape:window-y="24"
     inkscape:window-maximized="1" />
  <metadata
     id="metadata2998">
    <rdf:RDF>
      <cc:Work
         rdf:about="">
        <dc:format>image/svg+xml</dc:format>
        <dc:type
           rdf:resource="http://purl.org/dc/dcmitype/StillImage" />
        <dc:title></dc:title>
      </cc:Work>
    </rdf:RDF>
  </metadata>
  <g
     id="layer1"
     inkscape:label="Layer 1"
     inkscape:groupmode="layer"
     transform="translate(0,66)">
    <path
       inkscape:connector-curvature="0"
       d="m 72.502238,63.239585 c -39.508211,0 -71.65432909,-28.81848 -71.65432909,-64.2457672 0,-35.4211048 32.14611809,-64.2395858 71.65432909,-64.2395858 39.508212,0 71.650202,28.818481 71.650202,64.2395858 0,35.4272872 -32.14199,64.2457672 -71.650199,64.2457672 z M 72.502238,-66 C 32.525455,-66 0,-36.844588 0,-1.0061822 0,34.838406 32.525455,64 72.502238,64 112.47558,64 145,34.838406 145,-1.0061822 145,-36.844588 112.47558,-66 72.502238,-66"
       style="fill:#191412;fill-opacity:1;fill-rule:nonzero;stroke:none"
       id="path1478" />
    <path
       inkscape:connector-curvature="0"
       d="m 9.1302666,-16.013553 126.7394734,0 0,30.024015 -126.7394734,0 0,-30.024015 z M 72.502238,-63.465284 c -38.481487,0 -69.6746117,27.96224 -69.6746117,62.4591018 0,34.4999522 31.1931227,62.4652842 69.6746117,62.4652842 38.478042,0 69.672552,-27.965332 69.672552,-62.4652842 0,-34.4968618 -31.19451,-62.4591018 -69.672549,-62.4591018"
       style="fill:#c13339;fill-opacity:1;fill-rule:nonzero;stroke:none"
       id="path1480" />
    <path
       inkscape:connector-curvature="0"
       d="m 9.1302666,14.010462 126.7401634,0 0,-30.023674 -126.7401634,0 0,30.023674 z"
       style="fill:#ffffff;fill-opacity:1;fill-rule:nonzero;stroke:none"
       id="path1482" />
  </g>
</svg>
