<?xml version="1.0" encoding="UTF-8" standalone="no"?>
<!-- Created with Inkscape (http://www.inkscape.org/) -->

<svg
   xmlns:dc="http://purl.org/dc/elements/1.1/"
   xmlns:cc="http://creativecommons.org/ns#"
   xmlns:rdf="http://www.w3.org/1999/02/22-rdf-syntax-ns#"
   xmlns:svg="http://www.w3.org/2000/svg"
   xmlns="http://www.w3.org/2000/svg"
   xmlns:sodipodi="http://sodipodi.sourceforge.net/DTD/sodipodi-0.dtd"
   xmlns:inkscape="http://www.inkscape.org/namespaces/inkscape"
   id="svg2993"
   version="1.1"
   preserveAspectRatio="xMinYMin meet"
   viewBox="0 0 145 130"
   inkscape:version="0.48.3.1 r9886"
   sodipodi:docname="cod_77g.svg"
   width="100%"
   height="100%">
  <defs
     id="defs2995" />
  <sodipodi:namedview
     id="base"
     pagecolor="#ffffff"
     bordercolor="#666666"
     borderopacity="1.0"
     inkscape:pageopacity="0.0"
     inkscape:pageshadow="2"
     inkscape:zoom="1.0353448"
     inkscape:cx="-71.788619"
     inkscape:cy="-31.652006"
     inkscape:current-layer="layer1"
     showgrid="true"
     inkscape:document-units="px"
     inkscape:grid-bbox="true"
     inkscape:window-width="1366"
     inkscape:window-height="692"
     inkscape:window-x="0"
     inkscape:window-y="24"
     inkscape:window-maximized="1" />
  <metadata
     id="metadata2998">
    <rdf:RDF>
      <cc:Work
         rdf:about="">
        <dc:format>image/svg+xml</dc:format>
        <dc:type
           rdf:resource="http://purl.org/dc/dcmitype/StillImage" />
        <dc:title></dc:title>
      </cc:Work>
    </rdf:RDF>
  </metadata>
  <g
     id="layer1"
     inkscape:label="Layer 1"
     inkscape:groupmode="layer"
     transform="translate(0,66)">
    <path
       inkscape:connector-curvature="0"
       d="m 79.034227,14.016908 2.966247,0 0,-31.140621 -2.69117,0 0,2.096459 c 0,0.27447 -0.0298,0.536109 -0.09169,0.815042 -0.06418,0.296249 -0.142123,0.547266 -0.240692,0.758697 -0.09628,0.228725 -0.2086,0.413937 -0.33697,0.564002 -0.128369,0.139467 -0.25903,0.215917 -0.394277,0.215917 l -1.373093,0 0,6.3719417 2.161648,0 0,20.3185843"
       style="fill:#191412;fill-opacity:1;fill-rule:nonzero;stroke:none"
       id="path4775" />
    <path
       inkscape:connector-curvature="0"
       d="m 93.131926,0.71738953 c 0.09857,-0.6649759 0.233816,-1.25073488 0.412616,-1.73663593 0.176508,-0.4842274 0.382816,-0.8808699 0.614339,-1.1598027 0.231523,-0.2789329 0.474508,-0.4183993 0.733539,-0.4183993 0.256738,0 0.497431,0.1394664 0.728954,0.4183993 0.233815,0.2789328 0.440123,0.6755753 0.616631,1.1598027 0.1788,0.48590105 0.311754,1.07166003 0.410323,1.73663593 0.09857,0.67334387 0.149,1.37067597 0.149,2.11375307 0,0.7475401 -0.05043,1.4493351 -0.149,2.1249105 -0.09857,0.6577236 -0.231523,1.2485034 -0.410323,1.7344044 -0.176508,0.4792066 -0.382816,0.8825435 -0.616631,1.154782 -0.231523,0.2789328 -0.472216,0.4295566 -0.728954,0.4295566 -0.259031,0 -0.502016,-0.1506238 -0.733539,-0.4295566 -0.231523,-0.2722385 -0.437831,-0.6755754 -0.614339,-1.154782 -0.1788,-0.485901 -0.314046,-1.0766808 -0.412616,-1.7344044 -0.09628,-0.6755754 -0.149,-1.3773704 -0.149,-2.1249105 0,-0.7430771 0.05272,-1.4404092 0.149,-2.11375307 z M 91.538772,11.203591 c 0.426369,1.072218 0.926092,1.912921 1.501462,2.520995 0.57537,0.614768 1.189708,0.915458 1.852186,0.915458 0.660185,0 1.272231,-0.300668 1.847601,-0.915458 0.573077,-0.608074 1.075092,-1.448777 1.503754,-2.520995 0.42637,-1.065524 0.763339,-2.3207213 1.015493,-3.7655935 0.252154,-1.4342727 0.375939,-2.9684033 0.375939,-4.6068549 0,-1.6345464 -0.123785,-3.16421417 -0.375939,-4.6090863 -0.252154,-1.4448721 -0.589123,-2.6889126 -1.015493,-3.758899 -0.428662,-1.0655235 -0.930677,-1.9196159 -1.503754,-2.5455412 -0.57537,-0.618673 -1.187416,-0.93052 -1.847601,-0.93052 -0.648724,0 -1.26077,0.3118246 -1.833848,0.93052 -0.573077,0.6259253 -1.075092,1.4800177 -1.503754,2.5455412 -0.42637,1.0699864 -0.765631,2.3140269 -1.015493,3.758899 -0.249862,1.44487213 -0.373646,2.9745399 -0.373646,4.6090863 0,1.6384516 0.121492,3.1725822 0.362184,4.6068549 0.24757,1.4448722 0.582247,2.7000695 1.010909,3.7655935"
       style="fill:#191412;fill-opacity:1;fill-rule:nonzero;stroke:none"
       id="path4777" />
    <path
       inkscape:connector-curvature="0"
       d="m 104.5247,2.4345001 c 0,-1.4337148 0.24069,-2.53215234 0.73125,-3.31874297 0.48597,-0.78659063 1.21951,-1.07668083 2.19603,-0.87194403 l 0,-7.256717 c -0.30488,0 -0.61663,0.03972 -0.9238,0.1394665 -0.31175,0.078681 -0.60517,0.2293051 -0.88025,0.412285 -0.27507,0.1957886 -0.51347,0.4401784 -0.7152,0.7363827 -0.20172,0.296249 -0.33697,0.6426613 -0.40803,1.02201 l -0.0206,-1.6908909 -2.9502,0 0,22.4105806 2.97083,0 0,-11.5824076"
       style="fill:#191412;fill-opacity:1;fill-rule:nonzero;stroke:none"
       id="path4779" />
    <path
       inkscape:connector-curvature="0"
       d="m 113.76958,4.5264965 0,2.7173638 c 0,0.3620771 -0.0619,0.6231359 -0.18338,0.7977479 -0.12149,0.1829799 -0.2682,0.3112891 -0.44012,0.407242 -0.16964,0.083144 -0.33927,0.1333522 -0.51348,0.1550866 -0.16963,0.010711 -0.30946,0.0241 -0.41949,0.0241 -0.18339,0 -0.36677,-0.1461608 -0.55016,-0.4250936 -0.18338,-0.2856273 -0.27508,-0.7190889 -0.27508,-1.3165631 0,-0.4139363 0.055,-0.7469821 0.16276,-0.9980217 0.11232,-0.2633126 0.25215,-0.4139363 0.42408,-0.4680493 l 1.79487,-0.8937009 z m -2.52841,-4.05122068 c -0.30488,0.17905257 -0.62122,0.42509366 -0.95131,0.75423438 -0.33009,0.3291408 -0.62809,0.7648339 -0.89629,1.2875541 -0.2705,0.5361089 -0.49285,1.1899275 -0.66248,1.9659187 -0.17192,0.7737597 -0.25674,1.6713656 -0.25674,2.7106693 0,1.4342727 0.0986,2.6214109 0.29342,3.5915397 0.19713,0.965107 0.45616,1.729941 0.77938,2.298964 0.32322,0.56456 0.69457,0.965108 1.10489,1.20499 0.4195,0.222031 0.84128,0.350875 1.26536,0.350875 0.36677,0 0.6854,-0.06079 0.9536,-0.178517 0.2682,-0.12215 0.50201,-0.278933 0.69686,-0.46247 0.19485,-0.200252 0.35989,-0.418355 0.49743,-0.653239 0.13066,-0.239882 0.25445,-0.484227 0.36448,-0.758697 0.33009,0.74754 0.70374,1.255198 1.11635,1.545288 0.41491,0.278933 0.84816,0.402779 1.30203,0.368191 l 0.96736,-5.5680573 c -0.0711,0 -0.16963,0.011157 -0.28883,0.0241 -0.12379,0.021868 -0.24528,0 -0.3576,-0.038827 -0.11691,-0.038828 -0.21319,-0.1244264 -0.29571,-0.228725 -0.0779,-0.1065746 -0.11691,-0.2683557 -0.11691,-0.5076578 l 0,-11.5433569 c 0,-1.0041582 -0.15129,-1.8738708 -0.45158,-2.5996541 -0.298,-0.7296883 -0.6556,-1.3160051 -1.06822,-1.7628556 -0.4172,-0.4471851 -0.85274,-0.7696315 -1.30432,-0.9765996 -0.45159,-0.2069905 -0.82753,-0.3118693 -1.1324,-0.3118693 -0.75876,0 -1.48083,0.2683111 -2.16853,0.8195047 -0.69227,0.5472663 -1.32954,1.4448722 -1.91637,2.695607 l 1.40748,5.21492853 c 0.15817,-0.32914076 0.34385,-0.6471242 0.55932,-0.96566553 0.21777,-0.3045946 0.42867,-0.5684651 0.64185,-0.7971901 0.21318,-0.2159163 0.42408,-0.4011277 0.63268,-0.5517291 0.2086,-0.1567826 0.39198,-0.2393467 0.54786,-0.2633126 0.33238,-0.065293 0.61434,0.0241 0.85503,0.2415335 0.23611,0.2226107 0.35531,0.5405719 0.35531,0.9589711 l 0,0.70179506 -2.4734,1.43375946"
       style="fill:#191412;fill-opacity:1;fill-rule:nonzero;stroke:none"
       id="path4781" />
    <path
       inkscape:connector-curvature="0"
       d="m 29.302585,-32.074514 4.126156,0 c 1.377677,0 2.814955,3.179277 2.814955,6.844454 0,3.822496 -0.919216,7.480979 -2.876848,7.480979 l -2.163939,0 0,7.64276 -1.900324,0 0,-21.968193 z m -1.173662,24.9142821 9.295312,0 c 0.598293,0 1.08197,-1.1770966 1.08197,-2.6281053 l 0,-22.6108548 c 0,-1.449335 -0.483677,-2.632568 -1.08197,-2.632568 l -9.295312,0 c -0.579955,0 -1.020078,1.133025 -1.020078,2.632568 l 0,22.6108548 c 0,1.5012166 0.440123,2.6281053 1.020078,2.6281053"
       style="fill:#2c4aa0;fill-opacity:1;fill-rule:nonzero;stroke:none"
       id="path4783" />
    <path
       inkscape:connector-curvature="0"
       d="m 32.775433,34.629487 c -3.601218,0.165708 -7.135958,-1.747793 -10.214529,-5.09945 l 1.900324,-9.862508 c 0.653308,0.791054 1.244724,1.272492 2.028694,1.906785 l -0.722078,5.735417 0.788555,0.635967 0.717492,-5.892177 c 0.589124,0.470838 1.572524,0.954508 2.028694,1.115731 0,0.954508 -0.325508,6.047264 -0.325508,6.047264 l 0.786262,0.156783 0.394277,-6.051727 c 0.589123,0.329141 1.503755,0.640987 2.157063,0.640987 l 0,5.5675 0.981108,0 0,-5.5675 c 0.524939,0 1.574816,-0.156782 2.16394,-0.640987 l 0.325507,6.051727 0.855032,-0.156783 c 0,0 -0.330093,-5.092756 -0.39657,-6.047264 0.460754,-0.161245 1.43957,-0.479206 2.097463,-0.958971 l 0.783969,5.892735 0.78397,-0.643219 -0.719785,-5.72426 c 0.78397,-0.47307 1.244724,-0.952276 1.964509,-2.068008 l 1.969093,9.705748 c -3.149632,3.508417 -6.684373,5.421896 -10.347482,5.25621 z M 35.003557,3.4280589 32.839617,15.204604 30.67797,3.4280589 l 4.325587,0 z M 26.65726,-32.399192 c 0,-2.091996 0.644139,-3.731005 1.471663,-3.731005 l 9.295312,0 c 0.845862,0 1.533555,1.67806 1.533555,3.731005 l 0,22.6108548 c 0,2.0635452 -0.687693,3.7265428 -1.533555,3.7265428 l -9.295312,0 c -0.827524,0 -1.471663,-1.6345464 -1.471663,-3.7265428 l 0,-22.6108548 z m 18.950518,-9.076474 -25.864121,0 0,81.515892 25.864121,0 0,-81.515892"
       style="fill:#2c4aa0;fill-opacity:1;fill-rule:nonzero;stroke:none"
       id="path4785" />
    <path
       inkscape:connector-curvature="0"
       d="m 32.972571,-21.575481 c 1.045293,0 1.434986,-1.747794 1.434986,-3.174814 0,-1.917942 -0.389693,-3.508975 -1.632124,-3.508975 l -1.572524,0 0,6.683789 1.769662,0"
       style="fill:#2c4aa0;fill-opacity:1;fill-rule:nonzero;stroke:none"
       id="path4787" />
    <path
       inkscape:connector-curvature="0"
       d="m 27.108845,-32.399192 c 0,-1.499543 0.440123,-2.632568 1.020078,-2.632568 l 9.295312,0 c 0.598293,0 1.08197,1.183233 1.08197,2.632568 l 0,22.6108548 c 0,1.4510087 -0.483677,2.6281053 -1.08197,2.6281053 l -9.295312,0 c -0.579955,0 -1.020078,-1.1268887 -1.020078,-2.6281053 l 0,-22.6108548 z m 1.020078,26.3373976 9.295312,0 c 0.845862,0 1.533555,-1.6629976 1.533555,-3.7265428 l 0,-22.6108548 c 0,-2.052945 -0.687693,-3.731005 -1.533555,-3.731005 l -9.295312,0 c -0.827524,0 -1.471663,1.639009 -1.471663,3.731005 l 0,22.6108548 c 0,2.0919964 0.644139,3.7265428 1.471663,3.7265428"
       style="fill:#ffffff;fill-opacity:1;fill-rule:nonzero;stroke:none"
       id="path4789" />
    <path
       inkscape:connector-curvature="0"
       d="m 39.189313,21.735537 0.719785,5.72426 -0.78397,0.643219 -0.783969,-5.892735 c -0.657893,0.479765 -1.636709,0.797748 -2.097463,0.958971 0.06648,0.954508 0.39657,6.047264 0.39657,6.047264 l -0.855032,0.156783 -0.325507,-6.051727 c -0.589124,0.484227 -1.639001,0.640987 -2.16394,0.640987 l 0,5.5675 -0.981108,0 0,-5.5675 c -0.653308,0 -1.56794,-0.311824 -2.157063,-0.640987 l -0.394277,6.051727 -0.786262,-0.156783 c 0,0 0.325508,-5.092756 0.325508,-6.047264 -0.45617,-0.161245 -1.43957,-0.644893 -2.028694,-1.115731 l -0.717492,5.892177 -0.788555,-0.635967 0.722078,-5.735417 c -0.78397,-0.634293 -1.375386,-1.115731 -2.028694,-1.906785 l -1.900324,9.862508 c 3.078571,3.351657 6.613311,5.265136 10.214529,5.09945 3.663109,0.165664 7.19785,-1.747793 10.347482,-5.25621 l -1.969093,-9.705748 c -0.719785,1.115732 -1.180539,1.594938 -1.964509,2.068008"
       style="fill:#ffffff;fill-opacity:1;fill-rule:nonzero;stroke:none"
       id="path4791" />
    <path
       inkscape:connector-curvature="0"
       d="m 32.839617,15.204604 2.16394,-11.7765451 -4.325587,0 2.161647,11.7765451"
       style="fill:#ffffff;fill-opacity:1;fill-rule:nonzero;stroke:none"
       id="path4793" />
    <path
       inkscape:connector-curvature="0"
       d="m 31.202909,-28.25927 1.572524,0 c 1.242431,0 1.632124,1.591033 1.632124,3.508975 0,1.42702 -0.389693,3.174814 -1.434986,3.174814 l -1.769662,0 0,-6.683789 z m 0,10.510189 2.163939,0 c 1.957632,0 2.876848,-3.658483 2.876848,-7.480979 0,-3.665177 -1.437278,-6.844454 -2.814955,-6.844454 l -4.126156,0 0,21.968193 1.900324,0 0,-7.64276"
       style="fill:#ffffff;fill-opacity:1;fill-rule:nonzero;stroke:none"
       id="path4795" />
    <path
       inkscape:connector-curvature="0"
       d="m 144.17706,61.99782 -143.3541211,0 0,-125.988388 143.3541211,0 0,125.988388 z M 0.4126156,-66 0,-66 0,64 145,64 145,-66 0.4126156,-66"
       style="fill:#191412;fill-opacity:1;fill-rule:nonzero;stroke:none"
       id="path4797" />
    <path
       inkscape:connector-curvature="0"
       d="m 3.5416173,-42.925001 c 0,-8.378585 2.7003399,-14.950801 6.1456801,-14.950801 l 125.8248326,0 c 3.27801,0 5.94625,6.704988 5.94625,14.950801 l 0,83.845539 c 0,7.838571 -2.72555,14.467689 -5.94625,14.467689 l -125.8248326,0 c -3.3903248,0 -6.1456801,-6.489651 -6.1456801,-14.467689 l 0,-83.845539 z m 6.1456801,101.771438 125.8248326,0 c 3.99321,0 7.36748,-8.206762 7.36748,-17.925899 l 0,-83.845539 c 0,-10.15483 -3.30321,-18.409568 -7.36748,-18.409568 l -125.8248326,0 c -4.2453561,0 -7.5714963,8.082916 -7.5714963,18.409568 l 0,83.845539 c 0,9.887054 3.3949095,17.925899 7.5714963,17.925899"
       style="fill:#191412;fill-opacity:1;fill-rule:nonzero;stroke:none"
       id="path4799" />
    <path
       inkscape:connector-curvature="0"
       d="m 12.720022,-41.375251 c 0,-4.144942 1.416647,-7.520587 3.161094,-7.520587 l 33.16971,0 c 1.70777,0 3.094617,3.375645 3.094617,7.520587 l 0,80.667937 c 0,4.245358 -1.386847,7.688505 -3.094617,7.688505 l -33.16971,0 c -1.774247,0 -3.161094,-3.371182 -3.161094,-7.688505 l 0,-80.667937 z m 3.161094,90.169506 33.16971,0 c 2.118093,0 3.839617,-4.252052 3.839617,-9.501569 l 0,-80.667937 c 0,-5.149658 -1.721524,-9.33365 -3.839617,-9.33365 l -33.16971,0 c -2.15477,0 -3.906094,4.183992 -3.906094,9.33365 l 0,80.667937 c 0,5.328176 1.714647,9.501569 3.906094,9.501569"
       style="fill:#191412;fill-opacity:1;fill-rule:nonzero;stroke:none"
       id="path4801" />
  </g>
</svg>
