<?xml version="1.0" encoding="UTF-8" standalone="no"?>
<!-- Created with Inkscape (http://www.inkscape.org/) -->

<svg
   xmlns:dc="http://purl.org/dc/elements/1.1/"
   xmlns:cc="http://creativecommons.org/ns#"
   xmlns:rdf="http://www.w3.org/1999/02/22-rdf-syntax-ns#"
   xmlns:svg="http://www.w3.org/2000/svg"
   xmlns="http://www.w3.org/2000/svg"
   xmlns:sodipodi="http://sodipodi.sourceforge.net/DTD/sodipodi-0.dtd"
   xmlns:inkscape="http://www.inkscape.org/namespaces/inkscape"
   id="svg2993"
   version="1.1"
   preserveAspectRatio="xMinYMin meet"
   viewBox="0 0 145 130"
   inkscape:version="0.48.3.1 r9886"
   sodipodi:docname="cod_1.svg"
   width="100%"
   height="100%">
  <defs
     id="defs2995" />
  <sodipodi:namedview
     id="base"
     pagecolor="#ffffff"
     bordercolor="#666666"
     borderopacity="1.0"
     inkscape:pageopacity="0.0"
     inkscape:pageshadow="2"
     inkscape:zoom="4.0153846"
     inkscape:cx="72.5"
     inkscape:cy="65"
     inkscape:current-layer="layer1"
     showgrid="true"
     inkscape:document-units="px"
     inkscape:grid-bbox="true"
     inkscape:window-width="1366"
     inkscape:window-height="692"
     inkscape:window-x="0"
     inkscape:window-y="24"
     inkscape:window-maximized="1" />
  <metadata
     id="metadata2998">
    <rdf:RDF>
      <cc:Work
         rdf:about="">
        <dc:format>image/svg+xml</dc:format>
        <dc:type
           rdf:resource="http://purl.org/dc/dcmitype/StillImage" />
        <dc:title></dc:title>
      </cc:Work>
    </rdf:RDF>
  </metadata>
  <g
     id="layer1"
     inkscape:label="Layer 1"
     inkscape:groupmode="layer"
     transform="translate(0,66)">
    <path
       inkscape:connector-curvature="0"
       d="m 143.37394,59.570624 c -1.35162,2.378604 -3.77954,3.810138 -6.47921,3.810138 l -128.7903559,0 c -2.7032459,0 -5.1240097,-1.424249 -6.4756327,-3.810138 -1.35877438,-2.378604 -1.35877438,-5.238029 0,-7.616633 L 66.02392,-61.577909 c 1.355199,-2.385889 3.775963,-3.806495 6.475633,-3.806495 2.703246,0 5.127585,1.420606 6.482784,3.806495 l 64.391603,113.5319 c 1.3552,2.378604 1.3552,5.230744 0,7.616633 z M 79.507968,-61.887528 C 78.045498,-64.466474 75.424494,-66 72.499553,-66 c -2.924941,0 -5.545945,1.533526 -7.011991,4.112472 L 1.0995345,51.64073 c -1.46604601,2.578946 -1.46604601,5.66421 0,8.243156 C 2.5620049,62.455547 5.1794334,64 8.1043741,64 L 136.89473,64 c 2.92852,0 5.54595,-1.544453 7.00842,-4.123399 1.46247,-2.578946 1.46247,-5.656925 0,-8.235871 L 79.507968,-61.887528"
       style="fill:#191412;fill-opacity:1;fill-rule:nonzero;stroke:none"
       id="path1208" />
    <path
       inkscape:connector-curvature="0"
       d="m 23.093801,46.952731 49.405752,-87.101348 49.409327,87.101348 -98.815079,0 z M 76.994236,-60.408641 c -1.995253,-3.526017 -6.990537,-3.526017 -8.98579,0 -21.468635,37.831825 -42.933695,75.689148 -64.3987546,113.528258 -1.9952529,3.518731 0.4970254,7.929894 4.4946827,7.929894 l 128.7903559,0 c 3.99408,0 6.49351,-4.411163 4.49468,-7.929894 C 119.92435,15.280507 98.462871,-22.576816 76.994236,-60.408641"
       style="fill:#c13339;fill-opacity:1;fill-rule:nonzero;stroke:none"
       id="path1210" />
    <path
       inkscape:connector-curvature="0"
       d="M 84.106347,0.53170445 63.950002,33.686458 l -0.539934,-0.3679 18.72248,-33.89419755 1.973799,1.107344 z m -0.71872,-4.93933705 0,-1.2967581 1.076292,-0.7285158 1.079868,-0.5463868 1.26223,0.5463868 1.076292,0.7285158 0,2.5716607 -1.076292,0.7285158 -1.26223,0.7321584 -1.079868,-0.7321584 -1.076292,-0.7285158 0,-1.2749026 z m 5.395764,16.2968986 0.357573,-0.921573 0.908233,-0.364258 0.901082,-0.185771 0.711569,0.732158 0.532782,0.550029 -0.171634,1.100059 -0.175211,0.925215 -0.897506,0.171202 -1.079868,0.182129 -0.54351,-0.546387 -0.722296,-0.732159 0.178786,-0.910644 z m 4.501834,6.775196 0.718721,1.107344 -0.718721,1.089132 -0.543509,1.282187 -2.692519,0 -0.547085,-1.092773 -0.718721,-1.107344 0.718721,-1.278546 0.547085,-1.096416 2.513733,0 0.722295,1.096416 z m 1.980951,6.585783 -28.609353,11.914876 -0.182362,-0.553672 28.430567,-13.000364 0.361148,1.63916 z m 1.802163,5.139679 1.255079,0.364258 0.357572,1.274903 0.361148,1.471601 -1.079868,0.91793 -0.893931,0.914288 -1.265805,-0.371543 -1.26223,-0.360616 -0.353997,-1.282187 -0.364723,-1.460675 0.901082,-0.921572 1.079868,-0.91793 1.265805,0.371543 z m 1.433865,-9.339572 1.079868,-0.739444 1.262228,0.364258 1.07629,0.557315 0.18594,1.278545 0.17521,1.282188 -0.90108,0.735801 -1.07987,0.910644 -1.079866,-0.546387 -1.258654,-0.364257 -0.17521,-1.285831 -0.178787,-1.28583 0.893931,-0.907002 z m -31.677322,17.393314 0,-0.546387 23.764249,-4.950265 0.361148,1.471602 -24.125397,4.02505 z M 86.988379,23.611085 66.113313,36.065062 65.752165,35.700804 86.083721,22.328897 l 0.904658,1.282188 z m -21.418575,11.53969 -0.353997,-0.55003 21.229062,-19.597074 1.258654,1.278545 -22.133719,18.868559 z m 48.043406,6.771554 -82.230885,0 1.258654,-2.010704 23.220739,0 c -0.722296,-0.185771 -1.26223,-0.553672 -1.26223,-1.282187 l 0,-4.210822 6.833205,0 0,4.396593 c 0,0.542744 -0.71872,1.096416 -1.076292,1.096416 l 52.001729,0 1.25508,2.010704 z m -75.926887,-11.168147 24.282729,0 c 0,0 1.441016,0.360615 1.265805,1.467959 -0.17521,0.910645 -1.076292,1.096417 -1.076292,1.096417 l -25.913258,0 c 0,0 1.619802,-2.564376 1.441016,-2.564376 z m 5.932123,-10.629045 c 0,0 13.501926,0.185771 16.012083,1.107344 2.706822,0.910644 3.239604,1.824932 3.429118,4.207178 0.350421,2.564376 -2.703246,4.218107 -4.866558,4.218107 l -19.795197,0 5.220554,-9.532629 z m 6.121636,-10.4323465 2.696094,0 c 0.904658,0.1784864 1.988102,0.5427445 2.882032,1.8285745 0.718721,1.278545 4.494683,8.789543 4.494683,8.789543 l -2.692519,-0.3679 -2.882032,-6.046681 c 0,0 -0.722295,-1.639161 -2.338522,-1.824932 -1.444592,0 -3.421966,-0.182129 -3.421966,-0.182129 l 1.26223,-2.1964755 z m -26.646281,37.2599405 98.815079,0 -49.409327,-87.101348 -49.405752,87.101348"
       style="fill:#ffffff;fill-opacity:1;fill-rule:nonzero;stroke:none"
       id="path1212" />
    <path
       inkscape:connector-curvature="0"
       d="m 63.950002,33.686458 20.156345,-33.15475355 -1.973799,-1.107344 -18.72248,33.89419755 0.539934,0.3679"
       style="fill:#191412;fill-opacity:1;fill-rule:nonzero;stroke:none"
       id="path1214" />
    <path
       inkscape:connector-curvature="0"
       d="m 86.444869,15.003671 -21.229062,19.597074 0.353997,0.55003 22.133719,-18.868559 -1.258654,-1.278545"
       style="fill:#191412;fill-opacity:1;fill-rule:nonzero;stroke:none"
       id="path1216" />
    <path
       inkscape:connector-curvature="0"
       d="m 66.656823,37.165121 28.609353,-11.914876 -0.361148,-1.63916 -28.430567,13.000364 0.182362,0.553672"
       style="fill:#191412;fill-opacity:1;fill-rule:nonzero;stroke:none"
       id="path1218" />
    <path
       inkscape:connector-curvature="0"
       d="M 66.113313,36.065062 86.988379,23.611085 86.083721,22.328897 65.752165,35.700804 66.113313,36.065062"
       style="fill:#191412;fill-opacity:1;fill-rule:nonzero;stroke:none"
       id="path1220" />
    <path
       inkscape:connector-curvature="0"
       d="m 66.824882,37.897279 0,0.546387 24.125397,-4.02505 -0.361148,-1.471602 -23.764249,4.950265"
       style="fill:#191412;fill-opacity:1;fill-rule:nonzero;stroke:none"
       id="path1222" />
    <path
       inkscape:connector-curvature="0"
       d="m 85.543787,-1.6720558 1.26223,-0.7321584 1.076292,-0.7285158 0,-2.5716607 -1.076292,-0.7285158 -1.26223,-0.5463868 -1.079868,0.5463868 -1.076292,0.7285158 0,2.5716607 1.076292,0.7285158 1.079868,0.7321584"
       style="fill:#191412;fill-opacity:1;fill-rule:nonzero;stroke:none"
       id="path1224" />
    <path
       inkscape:connector-curvature="0"
       d="m 89.870411,14.078456 1.079868,-0.182129 0.897506,-0.171202 0.175211,-0.925215 0.171634,-1.100059 -0.532782,-0.550029 -0.711569,-0.732158 -0.901082,0.185771 -0.908233,0.364258 -0.357573,0.921573 -0.178786,0.910644 0.722296,0.732159 0.54351,0.546387"
       style="fill:#191412;fill-opacity:1;fill-rule:nonzero;stroke:none"
       id="path1226" />
    <path
       inkscape:connector-curvature="0"
       d="m 90.049197,17.568046 -0.547085,1.096416 -0.718721,1.278546 0.718721,1.107344 0.547085,1.092773 2.692519,0 0.543509,-1.282187 0.718721,-1.089132 -0.718721,-1.107344 -0.722295,-1.096416 -2.513733,0"
       style="fill:#191412;fill-opacity:1;fill-rule:nonzero;stroke:none"
       id="path1228" />
    <path
       inkscape:connector-curvature="0"
       d="m 97.96227,24.529015 1.258654,0.364257 1.079866,0.546387 1.07987,-0.910644 0.90108,-0.735801 -0.17521,-1.282188 -0.18594,-1.278545 -1.07629,-0.557315 -1.262228,-0.364258 -1.079868,0.739444 -0.893931,0.907002 0.178787,1.28583 0.17521,1.285831"
       style="fill:#191412;fill-opacity:1;fill-rule:nonzero;stroke:none"
       id="path1230" />
    <path
       inkscape:connector-curvature="0"
       d="m 93.821584,31.857883 0.364723,1.460675 0.353997,1.282187 1.26223,0.360616 1.265805,0.371543 0.893931,-0.914288 1.079868,-0.91793 -0.361148,-1.471601 -0.357572,-1.274903 -1.255079,-0.364258 -1.265805,-0.371543 -1.079868,0.91793 -0.901082,0.921572"
       style="fill:#191412;fill-opacity:1;fill-rule:nonzero;stroke:none"
       id="path1232" />
    <path
       inkscape:connector-curvature="0"
       d="m 61.432693,38.815209 0,-4.396593 -6.833205,0 0,4.210822 c 0,0.728515 0.539934,1.096416 1.26223,1.282187 l -23.220739,0 -1.258654,2.010704 82.230885,0 -1.25508,-2.010704 -52.001729,0 c 0.357572,0 1.076292,-0.553672 1.076292,-1.096416"
       style="fill:#191412;fill-opacity:1;fill-rule:nonzero;stroke:none"
       id="path1234" />
    <path
       inkscape:connector-curvature="0"
       d="m 54.23834,13.896327 2.882032,6.046681 2.692519,0.3679 c 0,0 -3.775962,-7.510998 -4.494683,-8.789543 -0.89393,-1.28583 -1.977374,-1.6500881 -2.882032,-1.8285745 l -2.696094,0 -1.26223,2.1964755 c 0,0 1.977374,0.182129 3.421966,0.182129 1.616227,0.185771 2.338522,1.824932 2.338522,1.824932"
       style="fill:#191412;fill-opacity:1;fill-rule:nonzero;stroke:none"
       id="path1236" />
    <path
       inkscape:connector-curvature="0"
       d="m 55.861718,25.439659 c 0,-1.828574 1.433865,-3.296534 3.057243,-3.296534 1.619802,0 3.050091,1.46796 3.050091,3.296534 0,1.650089 -1.430289,3.114405 -3.050091,3.114405 -1.623378,0 -3.057243,-1.464316 -3.057243,-3.114405 z m 7.197929,0 C 62.870133,23.057413 62.337351,22.143125 59.630529,21.232481 57.120372,20.310908 43.618446,20.125137 43.618446,20.125137 l -5.220554,9.532629 19.795197,0 c 2.163312,0 5.216979,-1.653731 4.866558,-4.218107"
       style="fill:#191412;fill-opacity:1;fill-rule:nonzero;stroke:none"
       id="path1238" />
    <path
       inkscape:connector-curvature="0"
       d="m 63.234857,32.222141 c 0.175211,-1.107344 -1.265805,-1.467959 -1.265805,-1.467959 l -24.282729,0 c 0.178786,0 -1.441016,2.564376 -1.441016,2.564376 l 25.913258,0 c 0,0 0.901082,-0.185772 1.076292,-1.096417"
       style="fill:#191412;fill-opacity:1;fill-rule:nonzero;stroke:none"
       id="path1240" />
    <path
       inkscape:connector-curvature="0"
       d="m 61.969052,25.439659 c 0,-1.828574 -1.430289,-3.296534 -3.050091,-3.296534 -1.623378,0 -3.057243,1.46796 -3.057243,3.296534 0,1.650089 1.433865,3.114405 3.057243,3.114405 1.619802,0 3.050091,-1.464316 3.050091,-3.114405"
       style="fill:#ffffff;fill-opacity:1;fill-rule:nonzero;stroke:none"
       id="path1242" />
  </g>
</svg>
