<?xml version="1.0" encoding="UTF-8" standalone="no"?>
<!-- Created with Inkscape (http://www.inkscape.org/) -->

<svg
   xmlns:dc="http://purl.org/dc/elements/1.1/"
   xmlns:cc="http://creativecommons.org/ns#"
   xmlns:rdf="http://www.w3.org/1999/02/22-rdf-syntax-ns#"
   xmlns:svg="http://www.w3.org/2000/svg"
   xmlns="http://www.w3.org/2000/svg"
   xmlns:sodipodi="http://sodipodi.sourceforge.net/DTD/sodipodi-0.dtd"
   xmlns:inkscape="http://www.inkscape.org/namespaces/inkscape"
   id="svg2993"
   version="1.1"
   preserveAspectRatio="xMinYMin meet"
   viewBox="0 0 145 130"
   inkscape:version="0.48.3.1 r9886"
   sodipodi:docname="cod_51.svg"
   width="100%"
   height="100%">
  <defs
     id="defs2995" />
  <sodipodi:namedview
     id="base"
     pagecolor="#ffffff"
     bordercolor="#666666"
     borderopacity="1.0"
     inkscape:pageopacity="0.0"
     inkscape:pageshadow="2"
     inkscape:zoom="4.0153846"
     inkscape:cx="26.178161"
     inkscape:cy="9.2145592"
     inkscape:current-layer="layer1"
     showgrid="true"
     inkscape:document-units="px"
     inkscape:grid-bbox="true"
     inkscape:window-width="1366"
     inkscape:window-height="692"
     inkscape:window-x="0"
     inkscape:window-y="24"
     inkscape:window-maximized="1" />
  <metadata
     id="metadata2998">
    <rdf:RDF>
      <cc:Work
         rdf:about="">
        <dc:format>image/svg+xml</dc:format>
        <dc:type
           rdf:resource="http://purl.org/dc/dcmitype/StillImage" />
        <dc:title></dc:title>
      </cc:Work>
    </rdf:RDF>
  </metadata>
  <g
     id="layer1"
     inkscape:label="Layer 1"
     inkscape:groupmode="layer"
     transform="translate(0,66)">
    <path
       inkscape:connector-curvature="0"
       d="m 72.498277,63.239603 c -39.51194,0 -71.65070661,-28.817795 -71.65070661,-64.2411485 0,-35.4202625 32.13876661,-64.2380575 71.65070661,-64.2380575 39.511943,0 71.650703,28.817795 71.650703,64.2380575 0,35.4233535 -32.13876,64.2411485 -71.650703,64.2411485 z M 72.498277,-66 C 32.521207,-66 0,-36.839099 0,-1.0015455 0,34.84219 32.521207,64 72.498277,64 112.47535,64 145,34.84219 145,-1.0015455 145,-36.839099 112.47535,-66 72.498277,-66"
       style="fill:#191412;fill-opacity:1;fill-rule:nonzero;stroke:none"
       id="path1302" />
    <path
       inkscape:connector-curvature="0"
       d="m 72.498277,45.305371 c -28.531424,0 -51.653557,-20.731626 -51.653557,-46.3069165 0,-25.5721995 23.122133,-46.3007345 51.653557,-46.3007345 28.527983,0 51.653563,20.728535 51.653563,46.3007345 0,25.5752905 -23.12558,46.3069165 -51.653563,46.3069165 z m 0,-108.764534 c -38.481763,0 -69.6730424,27.961576 -69.6730424,62.4576175 0,34.4991325 31.1912794,62.4637995 69.6730424,62.4637995 38.481763,0 69.669593,-27.964667 69.669593,-62.4637995 0,-34.4960415 -31.18783,-62.4576175 -69.669593,-62.4576175"
       style="fill:#c13339;fill-opacity:1;fill-rule:nonzero;stroke:none"
       id="path1304" />
    <path
       inkscape:connector-curvature="0"
       d="m 57.121421,0.39869701 c -1.367827,-1.22096203 -3.500535,-2.09881831 -5.647024,-2.09881831 -2.918261,0 -5.643578,1.39406048 -7.204348,3.4928787 l 7.204348,-0.86858307 5.647024,-0.52547732"
       style="fill:#ffffff;fill-opacity:1;fill-rule:nonzero;stroke:none"
       id="path1306" />
    <path
       inkscape:connector-curvature="0"
       d="m 53.035167,3.8884847 c 0.778662,0.6985757 1.164548,1.3940604 1.164548,2.0926362 0,1.3971514 -1.164548,2.6181135 -2.725318,2.6181135 -1.557324,0 -2.918261,-1.2209621 -2.918261,-2.6181135 0,-0.5254774 0.192943,-1.2240531 0.582274,-1.573341 l -6.036355,0.7016668 c -0.192942,0.3461968 -0.192942,0.6954847 -0.192942,0.8716742 0,4.3614621 3.896756,7.8543401 8.565284,7.8543401 4.479031,0 8.372342,-3.492878 8.372342,-7.8543401 0,-0.8716742 -0.196389,-1.9195378 -0.58572,-2.791212 l -6.225852,0.6985758"
       style="fill:#ffffff;fill-opacity:1;fill-rule:nonzero;stroke:none"
       id="path1308" />
    <path
       inkscape:connector-curvature="0"
       d="m 113.18855,16.453575 -7.39729,-13.6129539 -5.45064,4.1914544 3.89676,7.6750605 c 1.16799,1.919537 -2.72877,3.842166 -4.09315,1.746439 L 96.054532,8.426136 C 94.889985,6.5065982 94.889985,5.8049314 96.83664,4.2346815 l 6.42569,-5.9348028 -4.286091,-5.7555222 -5.839967,5.7555222 c -1.750267,1.74643939 -4.864916,-0.8716741 -2.918261,-2.7912119 l 7.983011,-8.5529158 c 1.943208,-2.615023 8.172508,-2.964311 9.147558,1.743348 l 1.75027,9.9500676 7.79351,16.0579694 c 1.16455,2.101909 -2.33943,3.31978 -3.70381,1.746439 z M 79.899014,13.136886 78.148747,13.486174 77.173696,6.852795 74.255435,4.9363483 69.580017,1.9627648 62.182725,2.8406211 c 0.392777,1.0478636 0.58572,2.0957272 0.58572,3.1404998 0,5.7617041 -5.257693,10.2993551 -11.294048,10.2993551 -6.225852,0 -11.290602,-4.537651 -11.290602,-10.2993551 l 0,-0.5254774 L 26.557207,7.0320755 26.16443,3.8884847 40.962457,2.1389543 c 1.557324,-3.6628861 5.843412,-6.2840907 10.51194,-6.2840907 3.703814,0 7.00796,1.573341 9.147559,4.19145449 l 13.633479,-1.57024989 13.426756,-1.5733409 0.396222,2.79121188 -9.929666,1.23023515 1.750267,12.21271167 z m 20.830936,-36.480491 c 1.75371,0 3.50743,1.397151 3.50743,3.146682 0,1.743348 -1.75372,3.1405 -3.50743,3.1405 -1.943209,0 -3.700367,-1.397152 -3.700367,-3.1405 0,-1.749531 1.757158,-3.146682 3.700367,-3.146682 z M 72.498277,-47.30228 c -28.531424,0 -51.653557,20.728535 -51.653557,46.3007345 0,25.5752905 23.122133,46.3069165 51.653557,46.3069165 28.527983,0 51.653563,-20.731626 51.653563,-46.3069165 0,-25.5721995 -23.12558,-46.3007345 -51.653563,-46.3007345"
       style="fill:#ffffff;fill-opacity:1;fill-rule:nonzero;stroke:none"
       id="path1310" />
    <path
       inkscape:connector-curvature="0"
       d="m 74.255435,1.4434696 -2.725317,0.3492878 2.725317,1.7433484 2.721873,1.7464393 -0.778662,-4.0121739 -1.943211,0.1730984"
       style="fill:#ffffff;fill-opacity:1;fill-rule:nonzero;stroke:none"
       id="path1312" />
    <path
       inkscape:connector-curvature="0"
       d="M 74.255435,3.5361058 71.530118,1.7927574 74.255435,1.4434696 76.198646,1.2703712 76.977308,5.2825451 74.255435,3.5361058 z M 51.474397,13.835461 c -4.668528,0 -8.565284,-3.492878 -8.565284,-7.8543401 0,-0.1761895 0,-0.5254774 0.192942,-0.8716742 L 49.13841,4.4077799 c -0.389331,0.3492879 -0.582274,1.0478636 -0.582274,1.573341 0,1.3971514 1.360937,2.6181135 2.918261,2.6181135 1.56077,0 2.725318,-1.2209621 2.725318,-2.6181135 0,-0.6985758 -0.385886,-1.3940605 -1.164548,-2.0926362 l 6.225852,-0.6985758 c 0.389331,0.8716742 0.58572,1.9195378 0.58572,2.791212 0,4.3614621 -3.893311,7.8543401 -8.372342,7.8543401 z m 0,-15.5355823 c 2.146489,0 4.279197,0.87785628 5.647024,2.09881831 L 51.474397,0.92417433 44.270049,1.7927574 c 1.56077,-2.09881822 4.286087,-3.4928787 7.204348,-3.4928787 z M 87.682191,-3.0972727 74.255435,-1.5239318 60.621956,0.04631809 C 58.482357,-2.5717954 55.178211,-4.1451364 51.474397,-4.1451364 c -4.668528,0 -8.954616,2.6212046 -10.51194,6.2840907 l -14.798027,1.7495304 0.392777,3.1435908 13.626588,-1.576432 0,0.5254774 c 0,5.7617041 5.06475,10.2993551 11.290602,10.2993551 6.036355,0 11.294048,-4.537651 11.294048,-10.2993551 0,-1.0447726 -0.192943,-2.0926362 -0.58572,-3.1404998 l 7.397292,-0.8778563 4.675418,2.9735835 2.918261,1.9164467 0.975051,6.633379 1.750267,-0.349288 -1.750267,-12.21271167 9.929666,-1.23023515 -0.396222,-2.79121188"
       style="fill:#191412;fill-opacity:1;fill-rule:nonzero;stroke:none"
       id="path1314" />
    <path
       inkscape:connector-curvature="0"
       d="m 100.72995,-17.056423 c 1.75371,0 3.50743,-1.397152 3.50743,-3.1405 0,-1.749531 -1.75372,-3.146682 -3.50743,-3.146682 -1.943209,0 -3.700367,1.397151 -3.700367,3.146682 0,1.743348 1.757158,3.1405 3.700367,3.1405"
       style="fill:#191412;fill-opacity:1;fill-rule:nonzero;stroke:none"
       id="path1316" />
    <path
       inkscape:connector-curvature="0"
       d="m 116.89236,14.707136 -7.79351,-16.0579694 -1.75027,-9.9500676 c -0.97505,-4.707659 -7.20435,-4.358371 -9.147558,-1.743348 l -7.983011,8.5529158 c -1.946655,1.9195378 1.167994,4.53765129 2.918261,2.7912119 l 5.839967,-5.7555222 4.286091,5.7555222 -6.42569,5.9348028 C 94.889985,5.8049314 94.889985,6.5065982 96.054532,8.426136 l 4.089698,8.027439 c 1.36438,2.095727 5.26114,0.173098 4.09315,-1.746439 l -3.89676,-7.6750605 5.45064,-4.1914544 7.39729,13.6129539 c 1.36438,1.573341 4.86836,0.35547 3.70381,-1.746439"
       style="fill:#191412;fill-opacity:1;fill-rule:nonzero;stroke:none"
       id="path1318" />
  </g>
</svg>
