<?xml version="1.0" encoding="UTF-8" standalone="no"?>
<!-- Created with Inkscape (http://www.inkscape.org/) -->

<svg
   xmlns:dc="http://purl.org/dc/elements/1.1/"
   xmlns:cc="http://creativecommons.org/ns#"
   xmlns:rdf="http://www.w3.org/1999/02/22-rdf-syntax-ns#"
   xmlns:svg="http://www.w3.org/2000/svg"
   xmlns="http://www.w3.org/2000/svg"
   xmlns:sodipodi="http://sodipodi.sourceforge.net/DTD/sodipodi-0.dtd"
   xmlns:inkscape="http://www.inkscape.org/namespaces/inkscape"
   id="svg2993"
   version="1.1"
   preserveAspectRatio="xMinYMin meet"
   viewBox="0 0 145 130"
   inkscape:version="0.48.3.1 r9886"
   sodipodi:docname="cod_1.svg"
   width="100%"
   height="100%">
  <defs
     id="defs2995" />
  <sodipodi:namedview
     id="base"
     pagecolor="#ffffff"
     bordercolor="#666666"
     borderopacity="1.0"
     inkscape:pageopacity="0.0"
     inkscape:pageshadow="2"
     inkscape:zoom="4.0153846"
     inkscape:cx="24.683908"
     inkscape:cy="65"
     inkscape:current-layer="layer1"
     showgrid="true"
     inkscape:document-units="px"
     inkscape:grid-bbox="true"
     inkscape:window-width="1366"
     inkscape:window-height="692"
     inkscape:window-x="0"
     inkscape:window-y="24"
     inkscape:window-maximized="1" />
  <metadata
     id="metadata2998">
    <rdf:RDF>
      <cc:Work
         rdf:about="">
        <dc:format>image/svg+xml</dc:format>
        <dc:type
           rdf:resource="http://purl.org/dc/dcmitype/StillImage" />
        <dc:title></dc:title>
      </cc:Work>
    </rdf:RDF>
  </metadata>
  <g
     id="layer1"
     inkscape:label="Layer 1"
     inkscape:groupmode="layer"
     transform="translate(0,66)">
    <path
       inkscape:connector-curvature="0"
       d="m 143.79732,55.332414 c 0,4.184498 -3.78548,7.588206 -8.4582,7.588206 l -125.6703499,0 c -4.6727131,0 -8.4621454,-3.403708 -8.4621454,-7.588206 l 0,-112.664828 c 0,-4.188743 3.7894323,-7.585022 8.4621454,-7.585022 l 125.6703499,0 c 4.67272,0 8.4582,3.396279 8.4582,7.585022 l 0,112.664828 z M 0,64 145,64 145,-66 0,-66 0,64 z M 0,-66 0,64"
       style="fill:#2c4aa0;fill-opacity:1;fill-rule:nonzero;stroke:none"
       id="path1722" />
    <path
       inkscape:connector-curvature="0"
       d="m 141.38013,55.332414 c 0,2.991909 -2.7011,5.416003 -6.04101,5.416003 l -125.6703499,0 c -3.3359623,0 -6.0410097,-2.424094 -6.0410097,-5.416003 l 0,-112.664828 c 0,-2.99297 2.7050474,-5.412819 6.0410097,-5.412819 l 125.6703499,0 c 3.33991,0 6.04101,2.419849 6.04101,5.412819 l 0,112.664828 z m -6.04101,-120.24985 -125.6703499,0 c -4.6727131,0 -8.4621454,3.396279 -8.4621454,7.585022 l 0,112.664828 c 0,4.184498 3.7894323,7.588206 8.4621454,7.588206 l 125.6703499,0 c 4.67272,0 8.4582,-3.403708 8.4582,-7.588206 l 0,-112.664828 c 0,-4.188743 -3.78548,-7.585022 -8.4582,-7.585022"
       style="fill:#ffffff;fill-opacity:1;fill-rule:nonzero;stroke:none"
       id="path1724" />
    <path
       inkscape:connector-curvature="0"
       d="m 119.13644,-7.8033478 c -0.19716,0.1768895 -0.59543,0.1768895 -0.79653,0.1768895 l -12.58281,-1.790122 0,44.5864183 -10.185329,0 0,-44.5864183 -12.582808,1.790122 c -0.398265,0 -0.595426,0 -0.79653,-0.1768895 -0.201105,0 -0.201105,-0.5345602 -0.201105,-0.7181715 L 100.56388,-37.88518 119.34149,-8.5215193 c 0,0.1836255 0,0.5373904 -0.20505,0.7181715 z M 44.242904,35.888364 25.662462,6.7015928 c 0,-0.3576706 0,-0.7185252 0.20899,-0.8954147 0.193218,-0.1797198 0.394322,-0.1797198 0.79653,-0.1797198 l 12.586752,1.7897682 0,-44.5832345 10.185331,0 0,44.5832345 12.582808,-1.7897682 c 0.394322,0 0.591483,0 0.792587,0.1797198 0,0.1768895 0.197161,0.5377441 0.197161,0.7213554 L 44.242904,35.888364 z m 91.096216,-98.633597 -125.6703499,0 c -3.3359623,0 -6.0410097,2.419849 -6.0410097,5.412819 l 0,112.664828 c 0,2.991909 2.7050474,5.416003 6.0410097,5.416003 l 125.6703499,0 c 3.33991,0 6.04101,-2.424094 6.04101,-5.416003 l 0,-112.664828 c 0,-2.99297 -2.7011,-5.412819 -6.04101,-5.412819"
       style="fill:#2c4aa0;fill-opacity:1;fill-rule:nonzero;stroke:none"
       id="path1726" />
    <path
       inkscape:connector-curvature="0"
       d="m 62.022873,5.6264583 -12.582808,1.7897682 0,-44.5832345 -10.185331,0 0,44.5832345 -12.586752,-1.7897682 c -0.402208,0 -0.603312,0 -0.79653,0.1797198 -0.20899,0.1768895 -0.20899,0.5377441 -0.20899,0.8954147 L 44.242904,35.888364 63.012621,6.5275335 c 0,-0.1836254 -0.197161,-0.5444659 -0.197161,-0.7213554 C 62.614356,5.6264583 62.417195,5.6264583 62.022873,5.6264583"
       style="fill:#c13339;fill-opacity:1;fill-rule:nonzero;stroke:none"
       id="path1728" />
    <path
       inkscape:connector-curvature="0"
       d="m 81.991328,-8.5215193 c 0,0.1836255 0,0.7181715 0.201105,0.7181715 0.201104,0.1768895 0.398265,0.1768895 0.79653,0.1768895 l 12.582808,-1.790122 0,44.5864183 10.185329,0 0,-44.5864183 12.58281,1.790122 c 0.2011,0 0.59937,0 0.79653,-0.1768895 0.20505,-0.180767 0.20505,-0.5345602 0.20505,-0.7181715 L 100.56388,-37.88518 81.991328,-8.5215193"
       style="fill:#ffffff;fill-opacity:1;fill-rule:nonzero;stroke:none"
       id="path1730" />
  </g>
</svg>
