<?xml version="1.0" encoding="UTF-8" standalone="no"?>
<!-- Created with Inkscape (http://www.inkscape.org/) -->

<svg
   xmlns:dc="http://purl.org/dc/elements/1.1/"
   xmlns:cc="http://creativecommons.org/ns#"
   xmlns:rdf="http://www.w3.org/1999/02/22-rdf-syntax-ns#"
   xmlns:svg="http://www.w3.org/2000/svg"
   xmlns="http://www.w3.org/2000/svg"
   xmlns:sodipodi="http://sodipodi.sourceforge.net/DTD/sodipodi-0.dtd"
   xmlns:inkscape="http://www.inkscape.org/namespaces/inkscape"
   id="svg2993"
   version="1.1"
   preserveAspectRatio="xMinYMin meet"
   viewBox="0 0 145 130"
   inkscape:version="0.48.3.1 r9886"
   sodipodi:docname="cod_77e.svg"
   width="100%"
   height="100%">
  <defs
     id="defs2995" />
  <sodipodi:namedview
     id="base"
     pagecolor="#ffffff"
     bordercolor="#666666"
     borderopacity="1.0"
     inkscape:pageopacity="0.0"
     inkscape:pageshadow="2"
     inkscape:zoom="1.0353448"
     inkscape:cx="-71.788619"
     inkscape:cy="-31.652006"
     inkscape:current-layer="layer1"
     showgrid="true"
     inkscape:document-units="px"
     inkscape:grid-bbox="true"
     inkscape:window-width="1366"
     inkscape:window-height="692"
     inkscape:window-x="0"
     inkscape:window-y="24"
     inkscape:window-maximized="1" />
  <metadata
     id="metadata2998">
    <rdf:RDF>
      <cc:Work
         rdf:about="">
        <dc:format>image/svg+xml</dc:format>
        <dc:type
           rdf:resource="http://purl.org/dc/dcmitype/StillImage" />
        <dc:title></dc:title>
      </cc:Work>
    </rdf:RDF>
  </metadata>
  <g
     id="layer1"
     inkscape:label="Layer 1"
     inkscape:groupmode="layer"
     transform="translate(0,66)">
    <path
       inkscape:connector-curvature="0"
       d="m 144.17478,61.997168 -143.35185412,0 0,-125.988757 143.35185412,0 0,125.988757 z M 144.58968,-66 0,-66 0,64 l 145,0 0,-130 -0.41032,0"
       style="fill:#191412;fill-opacity:1;fill-rule:nonzero;stroke:none"
       id="path4727" />
    <path
       inkscape:connector-curvature="0"
       d="m 3.5438535,-42.931165 c 0,-8.379538 2.6957126,-14.945927 6.1410002,-14.945927 l 125.8297263,0 c 3.27565,0 5.93927,6.705862 5.93927,14.945927 l 0,83.856751 c 0,7.832804 -2.72092,14.454982 -5.93927,14.454982 l -125.8297263,0 c -3.3856885,0 -6.1410002,-6.482705 -6.1410002,-14.454982 l 0,-83.856751 z m 6.1410002,101.776243 125.8297263,0 c 3.99084,0 7.36507,-8.206592 7.36507,-17.919492 l 0,-83.856751 c 0,-10.153635 -3.30546,-18.404858 -7.36507,-18.404858 l -125.8297263,0 c -4.2429985,0 -7.5667938,8.083856 -7.5667938,18.404858 l 0,83.856751 c 0,9.880268 3.3925635,17.919492 7.5667938,17.919492"
       style="fill:#191412;fill-opacity:1;fill-rule:nonzero;stroke:none"
       id="path4729" />
    <path
       inkscape:connector-curvature="0"
       d="m 80.014071,-32.20848 c 0.03668,-0.769891 0.119198,-1.489572 0.240688,-2.125569 0.121491,-0.630418 0.297996,-1.149257 0.529515,-1.528624 0.23152,-0.390524 0.536392,-0.591365 0.919202,-0.591365 0.37364,0 0.67622,0.200841 0.900863,0.591365 0.226935,0.379367 0.398855,0.875891 0.518053,1.495151 0.112322,0.596944 0.192551,1.283152 0.224643,2.041885 0.03897,0.758733 0.05731,1.500729 0.05731,2.214831 0,0.914943 -0.01614,1.768518 -0.04814,2.560724 -0.03209,0.792207 -0.105444,1.489572 -0.22235,2.075359 -0.116906,0.602523 -0.291119,1.059995 -0.522638,1.400309 -0.23152,0.345893 -0.547854,0.507682 -0.946709,0.507682 -0.373641,0 -0.673928,-0.161789 -0.898571,-0.507682 -0.229228,-0.340314 -0.398856,-0.786628 -0.518055,-1.366836 -0.114613,-0.56905 -0.197135,-1.23852 -0.233811,-1.986095 -0.04126,-0.77547 -0.05731,-1.573256 -0.05731,-2.421252 0,-0.792206 0.01595,-1.562097 0.05731,-2.359883 z m -1.318057,10.164793 c 0.318626,1.08231 0.724358,1.952622 1.221781,2.605356 0.495131,0.652733 1.08883,0.981889 1.774219,0.981889 0.687682,0 1.279088,-0.329156 1.776512,-0.981889 0.497423,-0.652734 0.900863,-1.523046 1.221781,-2.610935 0.316333,-1.104626 0.550145,-2.343147 0.699143,-3.754613 0.144413,-1.400309 0.217766,-2.878723 0.217766,-4.39619 0,-1.506308 -0.07335,-2.934512 -0.217766,-4.306926 -0.148998,-1.355678 -0.38281,-2.571882 -0.70602,-3.61514 -0.32321,-1.048837 -0.728943,-1.874518 -1.228658,-2.493778 -0.497423,-0.613681 -1.093414,-0.920522 -1.785681,-0.920522 -0.680804,0 -1.265334,0.306841 -1.758173,0.926101 -0.495131,0.647155 -0.896278,1.478414 -1.214904,2.53283 -0.316334,1.059995 -0.552438,2.276199 -0.703728,3.654193 -0.15129,1.377993 -0.229227,2.811776 -0.229227,4.312505 0,1.506309 0.07794,2.956828 0.229227,4.351558 0.15129,1.405888 0.387394,2.638829 0.703728,3.715561"
       style="fill:#191412;fill-opacity:1;fill-rule:nonzero;stroke:none"
       id="path4731" />
    <path
       inkscape:connector-curvature="0"
       d="m 87.207222,-18.93065 c 0.09857,0.128315 0.192551,0.211999 0.277365,0.267788 0.0894,0.05579 0.13066,0.128316 0.13066,0.20642 0,0.111579 -0.02292,0.178526 -0.07794,0.228736 -0.05272,0.04463 -0.114613,0.07811 -0.181089,0.111579 -0.07106,0.02767 -0.135244,0.06137 -0.197136,0.105999 -0.0596,0.04463 -0.107736,0.122736 -0.130659,0.217578 0,0.04463 -0.0046,0.133894 -0.01155,0.239894 -0.0092,0.133894 -0.01375,0.195262 -0.01375,0.239893 0,0.345893 0.02751,0.574629 0.08481,0.686207 0.05272,0.111579 0.155875,0.172947 0.307165,0.172947 0.538684,0 0.969631,-0.368209 1.292842,-1.110205 0.320918,-0.741997 0.479085,-1.695992 0.479085,-2.889881 0,-0.730839 -0.107737,-1.333362 -0.318626,-1.774097 -0.210889,-0.446313 -0.511177,-0.675049 -0.891694,-0.675049 -0.33238,0 -0.609745,0.189683 -0.829803,0.541155 -0.22235,0.36263 -0.334672,0.926101 -0.334672,1.690413 0,0.507682 0.04585,0.892627 0.132952,1.165994 0.08481,0.251052 0.181089,0.451893 0.281949,0.574629"
       style="fill:#191412;fill-opacity:1;fill-rule:nonzero;stroke:none"
       id="path4733" />
    <path
       inkscape:connector-curvature="0"
       d="m 95.594648,-24.342202 c -0.114614,0.30684 -0.25215,0.546734 -0.405732,0.736417 -0.155875,0.172947 -0.323211,0.267788 -0.497424,0.267788 -0.236104,0 -0.433239,-0.08368 -0.589114,-0.228735 -0.153582,-0.139473 -0.286534,-0.351472 -0.387394,-0.596945 -0.107737,-0.262209 -0.197135,-0.541155 -0.270488,-0.864733 -0.07335,-0.30684 -0.148998,-0.652733 -0.229227,-1.009784 l -1.943847,1.483993 c 0.24298,1.216204 0.506592,2.214831 0.783957,3.007038 0.275073,0.797785 0.563899,1.417045 0.861894,1.868938 0.295703,0.457471 0.595991,0.781049 0.898571,0.953995 0.304872,0.178526 0.602868,0.267788 0.889402,0.267788 0.52493,0 1.004015,-0.211998 1.441839,-0.652733 0.440117,-0.429577 0.818342,-1.037679 1.134675,-1.824307 0.320919,-0.77547 0.568484,-1.712729 0.747281,-2.783881 0.176505,-1.082311 0.268196,-2.270621 0.268196,-3.525878 0,-1.121363 -0.09169,-2.159042 -0.268196,-3.107459 -0.178797,-0.931679 -0.421778,-1.746202 -0.733527,-2.432409 -0.307164,-0.691786 -0.662467,-1.221783 -1.061322,-1.584413 -0.401148,-0.379367 -0.820634,-0.552313 -1.267627,-0.529998 -0.279657,0.01651 -0.506592,0.08926 -0.678513,0.217578 -0.176505,0.133894 -0.334671,0.267789 -0.483669,0.41284 l 0.116906,-2.248304 3.889986,0 0,-4.574715 -5.794865,0 -0.612037,11.749206 2.163906,0.635997 c 0.04355,-0.20642 0.110029,-0.407261 0.197135,-0.574629 0.08481,-0.167367 0.183382,-0.317998 0.293411,-0.446313 0.107737,-0.122737 0.217766,-0.223157 0.33238,-0.278946 0.114613,-0.07253 0.217766,-0.106 0.314041,-0.106 0.17192,0 0.339256,0.100421 0.488254,0.273367 0.15129,0.184105 0.286534,0.423998 0.401148,0.708523 0.110029,0.306841 0.199427,0.658313 0.263611,1.071153 0.06877,0.418419 0.10086,0.853575 0.10086,1.322204 0,0.468629 -0.03209,0.903785 -0.10086,1.316625 -0.06418,0.41284 -0.153582,0.77547 -0.263611,1.076732"
       style="fill:#191412;fill-opacity:1;fill-rule:nonzero;stroke:none"
       id="path4735" />
    <path
       inkscape:connector-curvature="0"
       d="m 101.46057,-33.831946 c 0.0504,-0.518839 0.12608,-0.987469 0.22923,-1.400309 0.10315,-0.41284 0.24069,-0.741996 0.40573,-0.987469 0.16275,-0.234314 0.37364,-0.362629 0.62579,-0.362629 0.36447,0 0.66705,0.251051 0.90316,0.764312 0.23381,0.502102 0.35072,1.210625 0.35072,2.097674 0,0.574628 -0.0436,1.110205 -0.13754,1.634623 -0.0917,0.513261 -0.2086,0.998627 -0.35301,1.444941 -0.14212,0.440734 -0.30487,0.853574 -0.48596,1.23852 -0.17421,0.379367 -0.35072,0.714102 -0.52493,1.015363 l -2.610901,4.418505 c -0.08711,0.122737 -0.158166,0.284525 -0.220058,0.46863 -0.05272,0.195262 -0.08023,0.35705 -0.08023,0.507681 l 0,4.094928 6.528389,0 0,-4.730925 -2.71634,0 1.49227,-3.235773 c 0.39656,-0.870312 0.72436,-1.841044 0.98109,-2.923355 0.25903,-1.08231 0.38511,-2.281778 0.38511,-3.620719 0,-1.260836 -0.0848,-2.404514 -0.25445,-3.414299 -0.16733,-1.004206 -0.40573,-1.852202 -0.7106,-2.543988 -0.30487,-0.708523 -0.66935,-1.244099 -1.10029,-1.612308 -0.42407,-0.368208 -0.89628,-0.557892 -1.40287,-0.557892 -0.60516,0 -1.1278,0.217578 -1.5725,0.658313 -0.44241,0.435156 -0.81376,1.054416 -1.10946,1.868938 -0.295707,0.808944 -0.515765,1.796413 -0.660178,2.940091 -0.139829,1.1381 -0.210889,2.421252 -0.210889,3.838297 l 2.177657,0 c 0,-0.552313 0.0275,-1.087889 0.0711,-1.60115"
       style="fill:#191412;fill-opacity:1;fill-rule:nonzero;stroke:none"
       id="path4737" />
    <path
       inkscape:connector-curvature="0"
       d="m 112.25259,-26.908506 3.19933,0 0,-4.099221 -3.19933,0 0,4.099221 z"
       style="fill:#191412;fill-opacity:1;fill-rule:nonzero;stroke:none"
       id="path4739" />
    <path
       inkscape:connector-curvature="0"
       d="m 122.73745,-18.897176 2.11577,0 0,-22.192945 -1.91864,0 0,1.495151 c 0,0.184104 -0.0229,0.379366 -0.0665,0.574628 -0.0436,0.211999 -0.0986,0.384946 -0.16963,0.552314 -0.0711,0.156209 -0.149,0.290103 -0.24069,0.390524 -0.094,0.105999 -0.18797,0.161789 -0.27966,0.161789 l -0.98109,0 0,4.541241 1.54041,0 0,14.477298"
       style="fill:#191412;fill-opacity:1;fill-rule:nonzero;stroke:none"
       id="path4741" />
    <path
       inkscape:connector-curvature="0"
       d="m 129.26355,-27.628186 c 0,-0.368209 0.0298,-0.697365 0.0848,-1.020943 0.0596,-0.30684 0.13754,-0.591365 0.23611,-0.820101 0.10086,-0.239894 0.22005,-0.423998 0.35071,-0.552313 0.13983,-0.145052 0.28195,-0.211999 0.44241,-0.211999 0.15359,0 0.30029,0.06137 0.43324,0.189683 0.13754,0.128315 0.25444,0.317999 0.3553,0.557892 0.0986,0.245473 0.18109,0.529998 0.24299,0.836838 0.0573,0.323578 0.0894,0.652734 0.0894,1.020943 l 0,8.73101 2.03783,0 0,-10.23174 c 0,-0.831259 -0.0756,-1.645781 -0.21776,-2.404515 -0.14441,-0.758733 -0.34155,-1.417045 -0.5937,-1.96378 -0.24986,-0.552313 -0.54556,-0.998626 -0.88252,-1.322204 -0.33009,-0.329156 -0.68998,-0.496524 -1.07279,-0.496524 -0.29799,0 -0.58453,0.07253 -0.85731,0.211999 -0.27507,0.133895 -0.49054,0.317999 -0.64871,0.557892 l 0,-6.544073 -2.03096,0 0,22.192945 2.03096,0 0,-8.73101"
       style="fill:#191412;fill-opacity:1;fill-rule:nonzero;stroke:none"
       id="path4743" />
    <path
       inkscape:connector-curvature="0"
       d="m 80.014071,23.290619 c 0.03668,-0.781049 0.119198,-1.495151 0.240688,-2.125569 0.121491,-0.635997 0.297996,-1.154836 0.529515,-1.539782 0.23152,-0.390524 0.536392,-0.585786 0.919202,-0.585786 0.37364,0 0.67622,0.195262 0.900863,0.585786 0.226935,0.384946 0.398855,0.88147 0.518053,1.495151 0.112322,0.602523 0.192551,1.28873 0.226935,2.041885 0.03668,0.769891 0.05043,1.506308 0.05043,2.22041 0,0.914943 -0.01155,1.762939 -0.04355,2.560724 -0.03209,0.792207 -0.105444,1.483993 -0.22235,2.075359 -0.116909,0.596944 -0.291122,1.054416 -0.522641,1.400309 -0.23152,0.340314 -0.547854,0.507681 -0.944417,0.507681 -0.375933,0 -0.67622,-0.167367 -0.900863,-0.507681 -0.229227,-0.345893 -0.398855,-0.792207 -0.518054,-1.372415 -0.114613,-0.563471 -0.197135,-1.227362 -0.233811,-1.986095 -0.04126,-0.77547 -0.05731,-1.567677 -0.05731,-2.421252 0,-0.786627 0.01595,-1.562097 0.05731,-2.348725 z m -1.318057,10.164793 c 0.318626,1.076731 0.724358,1.947043 1.221781,2.599776 0.495131,0.652734 1.08883,0.98189 1.774219,0.98189 0.687682,0 1.279088,-0.329156 1.776512,-0.98189 0.497423,-0.652733 0.900863,-1.523045 1.219489,-2.610934 0.318625,-1.099048 0.552437,-2.348726 0.701435,-3.754614 0.144413,-1.400309 0.217766,-2.873144 0.217766,-4.396189 0,-1.511887 -0.07335,-2.940091 -0.217766,-4.306926 -0.148998,-1.361257 -0.385102,-2.571882 -0.70602,-3.620719 -0.32321,-1.048837 -0.731235,-1.874518 -1.228658,-2.48262 -0.497423,-0.61926 -1.093414,-0.926101 -1.785681,-0.926101 -0.680804,0 -1.265334,0.306841 -1.758173,0.937259 -0.495131,0.630418 -0.896278,1.467256 -1.214904,2.521672 -0.316334,1.059995 -0.552438,2.276199 -0.703728,3.654193 -0.15129,1.377993 -0.229227,2.811775 -0.229227,4.312505 0,1.500729 0.07794,2.956828 0.229227,4.351558 0.15129,1.405888 0.387394,2.638829 0.703728,3.72114"
       style="fill:#191412;fill-opacity:1;fill-rule:nonzero;stroke:none"
       id="path4745" />
    <path
       inkscape:connector-curvature="0"
       d="m 87.207222,36.56287 c 0.09857,0.122736 0.192551,0.217578 0.277365,0.267788 0.0894,0.05021 0.13066,0.128315 0.13066,0.20642 0,0.106 -0.02292,0.184105 -0.07794,0.228736 -0.05272,0.04463 -0.114613,0.07253 -0.181089,0.106 -0.07106,0.03347 -0.135244,0.0781 -0.197136,0.105999 -0.0596,0.05021 -0.107736,0.122736 -0.130659,0.223157 0,0.03883 -0.0046,0.128315 -0.01155,0.234315 -0.0092,0.133894 -0.01375,0.200841 -0.01375,0.239893 0,0.351472 0.02751,0.580208 0.08481,0.686207 0.05272,0.117158 0.155875,0.178526 0.307165,0.178526 0.538684,0 0.969631,-0.373788 1.292842,-1.110205 0.321009,-0.741997 0.479176,-1.701571 0.479176,-2.89546 0,-0.730839 -0.107737,-1.322204 -0.318626,-1.768518 -0.21089,-0.451892 -0.511177,-0.675049 -0.891695,-0.675049 -0.332379,0 -0.609744,0.189683 -0.829802,0.541155 -0.222351,0.36263 -0.334672,0.920522 -0.334672,1.684834 0,0.513261 0.04584,0.892627 0.132952,1.165994 0.08481,0.26221 0.181089,0.451893 0.281949,0.580208"
       style="fill:#191412;fill-opacity:1;fill-rule:nonzero;stroke:none"
       id="path4747" />
    <path
       inkscape:connector-curvature="0"
       d="m 91.711538,36.590765 2.326657,0 2.991415,-18.18728 0,-4.000086 -6.489423,0 0,4.75324 4.009184,0 -2.837833,17.434126"
       style="fill:#191412;fill-opacity:1;fill-rule:nonzero;stroke:none"
       id="path4749" />
    <path
       inkscape:connector-curvature="0"
       d="m 97.485773,19.156639 4.011477,0 -2.835541,17.434126 2.319781,0 2.99371,-18.18728 0,-4.000086 -6.489427,0 0,4.75324"
       style="fill:#191412;fill-opacity:1;fill-rule:nonzero;stroke:none"
       id="path4751" />
    <path
       inkscape:connector-curvature="0"
       d="m 109.35516,28.585014 3.19485,0 0,-4.10575 -3.19485,0 0,4.10575 z"
       style="fill:#191412;fill-opacity:1;fill-rule:nonzero;stroke:none"
       id="path4753" />
    <path
       inkscape:connector-curvature="0"
       d="m 120.18386,21.655995 c 0.0481,-0.51326 0.12607,-0.98189 0.23152,-1.400309 0.10315,-0.41284 0.23839,-0.725259 0.40344,-0.976311 0.16275,-0.239893 0.37364,-0.373787 0.62579,-0.373787 0.36447,0 0.66476,0.251051 0.90315,0.764312 0.23381,0.507681 0.35072,1.210625 0.35072,2.103253 0,0.574628 -0.0436,1.104626 -0.13983,1.629044 -0.0894,0.524419 -0.2063,1.009785 -0.35072,1.45052 -0.14212,0.440734 -0.30487,0.853574 -0.48367,1.232941 -0.1765,0.384945 -0.35301,0.719681 -0.52722,1.015363 l -2.6109,4.418505 c -0.0871,0.128315 -0.15816,0.284525 -0.21547,0.46863 -0.0573,0.195262 -0.0871,0.362629 -0.0871,0.51326 l 0,4.089349 6.52839,0 0,-4.725346 -2.71634,0 1.49456,-3.241352 c 0.39657,-0.870312 0.72436,-1.841044 0.9811,-2.917776 0.25673,-1.076731 0.3851,-2.281778 0.3851,-3.620719 0,-1.266415 -0.0848,-2.404515 -0.25215,-3.414299 -0.17192,-1.004206 -0.41032,-1.857781 -0.7129,-2.549567 -0.30487,-0.708523 -0.66705,-1.227362 -1.10029,-1.606729 -0.42636,-0.373787 -0.89399,-0.557892 -1.40516,-0.557892 -0.60058,0 -1.12551,0.217578 -1.57021,0.652734 -0.44241,0.435156 -0.81376,1.054416 -1.10946,1.874517 -0.29341,0.808944 -0.51347,1.790834 -0.65788,2.934512 -0.14441,1.143679 -0.21548,2.42683 -0.21548,3.843876 l 2.17996,0 c 0,-0.557892 0.0275,-1.08231 0.0711,-1.606729"
       style="fill:#191412;fill-opacity:1;fill-rule:nonzero;stroke:none"
       id="path4755" />
    <path
       inkscape:connector-curvature="0"
       d="m 128.82114,27.859755 c 0,-0.36263 0.0298,-0.691787 0.0848,-1.015364 0.0596,-0.312419 0.13754,-0.591366 0.2384,-0.820101 0.0986,-0.234315 0.21318,-0.423998 0.34843,-0.557892 0.13524,-0.133894 0.28195,-0.20642 0.44011,-0.20642 0.15588,0 0.30258,0.06137 0.43553,0.184104 0.13525,0.139473 0.25445,0.323577 0.35301,0.557892 0.10086,0.251051 0.18109,0.529998 0.24298,0.842417 0.0596,0.323577 0.0917,0.652734 0.0917,1.015364 l 0,8.73101 2.03553,0 0,-10.220582 c 0,-0.842417 -0.0711,-1.651361 -0.21776,-2.404515 -0.14212,-0.769891 -0.34155,-1.422624 -0.59141,-1.974938 -0.25215,-0.552313 -0.54785,-0.993047 -0.88252,-1.316625 -0.33238,-0.329156 -0.69227,-0.496524 -1.07508,-0.496524 -0.29799,0 -0.58224,0.07253 -0.85731,0.20642 -0.27278,0.133894 -0.49055,0.323578 -0.64642,0.563471 l 0,-6.544073 -2.03554,0 0,22.187366 2.03554,0 0,-8.73101"
       style="fill:#191412;fill-opacity:1;fill-rule:nonzero;stroke:none"
       id="path4757" />
    <path
       inkscape:connector-curvature="0"
       d="m 63.656413,-25.061883 1.723789,0 c 0.327795,2.627671 0.949001,4.719766 1.875079,6.287443 0.898571,1.517466 1.920925,2.281778 3.060184,2.281778 1.180521,0 2.234966,-0.887048 3.161044,-2.638829 l 0,-4.02798 c -0.797711,2.527251 -1.849864,3.782508 -3.161044,3.782508 -0.822926,0 -1.558745,-0.485366 -2.209751,-1.461677 -0.683097,-1.020943 -1.178228,-2.426831 -1.478516,-4.223243 l 5.214921,0 0.518053,-2.912196 -6.003462,0 c -0.01155,-0.161789 -0.01595,-0.401683 -0.01595,-0.714102 0,-0.334735 0.0046,-0.580208 0.01595,-0.747576 l 6.246443,0 0.515762,-2.912196 -6.480255,0 c 0.309457,-1.835465 0.800003,-3.330615 1.467054,-4.502189 0.676221,-1.182731 1.414332,-1.785254 2.209751,-1.785254 1.31118,0 2.363333,1.299888 3.161044,3.882928 l 0.515761,-3.029353 c -1.010892,-2.510514 -2.23955,-3.754614 -3.676805,-3.754614 -1.120921,0 -2.143275,0.875891 -3.060184,2.622093 -0.916909,1.735044 -1.538115,3.921981 -1.875079,6.566389 l -1.221781,0 -0.502008,2.912196 1.517485,0 c -0.0092,0.167368 -0.01375,0.412841 -0.01375,0.747576 0,0.312419 0.0046,0.552313 0.01375,0.714102 l -1.015477,0 -0.502008,2.912196"
       style="fill:#191412;fill-opacity:1;fill-rule:nonzero;stroke:none"
       id="path4759" />
    <path
       inkscape:connector-curvature="0"
       d="m 63.656413,30.431637 1.723789,0 c 0.327795,2.622092 0.949001,4.719766 1.875079,6.287443 0.898571,1.511887 1.920925,2.281778 3.060184,2.281778 1.180521,0 2.234966,-0.881469 3.161044,-2.638829 l 0,-4.016823 c -0.797711,2.516093 -1.849864,3.771351 -3.161044,3.771351 -0.822926,0 -1.558745,-0.490945 -2.209751,-1.461678 -0.683097,-1.026521 -1.178228,-2.42683 -1.478516,-4.223242 l 5.214921,0 0.518053,-2.906618 -6.003462,0 c -0.01155,-0.161788 -0.01595,-0.41284 -0.01595,-0.71968 0,-0.334736 0.0046,-0.585787 0.01595,-0.747576 l 6.246443,0 0.515762,-2.906617 -6.480255,0 c 0.309457,-1.841044 0.800003,-3.341773 1.467054,-4.49661 0.676221,-1.193889 1.414332,-1.785254 2.209751,-1.785254 1.31118,0 2.363333,1.28873 3.161044,3.866191 L 73.99227,17.70612 c -1.010892,-2.499357 -2.23955,-3.749035 -3.676805,-3.749035 -1.120921,0 -2.143275,0.88147 -3.060184,2.622093 -0.916909,1.740623 -1.538115,3.916402 -1.875079,6.571968 l -1.221781,0 -0.502008,2.906617 1.517485,0 c -0.0092,0.161789 -0.01375,0.41284 -0.01375,0.747576 0,0.30684 0.0046,0.557892 0.01375,0.71968 l -1.015477,0 -0.502008,2.906618"
       style="fill:#191412;fill-opacity:1;fill-rule:nonzero;stroke:none"
       id="path4761" />
    <path
       inkscape:connector-curvature="0"
       d="m 12.722115,-41.374646 c 0,-4.150717 1.418917,-7.525963 3.163336,-7.525963 l 33.169185,0 c 1.705451,0 3.094568,3.375246 3.094568,7.525963 l 0,80.671187 c 0,4.239979 -1.389117,7.687752 -3.094568,7.687752 l -33.169185,0 c -1.776511,0 -3.163336,-3.375247 -3.163336,-7.687752 l 0,-80.671187 z m 3.163336,90.172088 33.169185,0 c 2.11806,0 3.841849,-4.256716 3.841849,-9.500901 l 0,-80.671187 c 0,-5.149343 -1.723789,-9.339112 -3.841849,-9.339112 l -33.169185,0 c -2.157028,0 -3.912909,4.189769 -3.912909,9.339112 l 0,80.671187 c 0,5.327869 1.719204,9.500901 3.912909,9.500901"
       style="fill:#191412;fill-opacity:1;fill-rule:nonzero;stroke:none"
       id="path4763" />
    <path
       inkscape:connector-curvature="0"
       d="m 30.77147,43.927045 4.281895,0 0,-17.030935 -4.281895,0 0,17.030935 z"
       style="fill:#191412;fill-opacity:1;fill-rule:nonzero;stroke:none"
       id="path4765" />
    <path
       inkscape:connector-curvature="0"
       d="m 32.742824,-31.957429 c 4.080246,-0.161788 8.01837,1.991675 11.486578,6.120076 l -2.175366,11.235945 c -0.747281,-1.154836 -1.565623,-1.813149 -2.448147,-2.315252 l 0.74728,-6.76723 -0.813756,-0.663891 -0.884818,6.772809 c -0.747281,-0.490945 -1.494561,-0.820101 -2.03783,-0.987469 0.06877,-1.160415 0.405732,-7.113123 0.405732,-7.113123 l -0.882525,-0.161789 -0.408024,6.945756 c -0.678513,-0.167368 -2.312903,-0.334736 -2.989124,-0.334736 -0.678512,0 -2.312903,0.167368 -2.92494,0.334736 l -0.405732,-6.945756 -0.882525,0.161789 c 0,0 0.334672,5.952708 0.40344,7.113123 -0.543269,0.167368 -1.492269,0.66947 -2.104306,1.160415 l -0.884817,-6.945755 -0.882525,0.820101 0.882525,6.783967 c -0.882525,0.496524 -1.700867,1.322204 -2.445855,2.142305 L 21.389198,-26.0103 c 3.468208,-3.955454 7.342149,-6.108917 11.353626,-5.947129 z m 9.244736,41.0050644 -5.643575,0 0,-3.3082997 5.643575,0 0,3.3082997 z m -17.744483,15.5317136 16.589177,0 c 1.086538,0 1.558746,-2.147884 1.76505,-4.624924 l 2.991416,-34.388465 0,-23.637885 c 0,-2.477041 -0.680805,-3.966612 -1.767342,-3.966612 l -22.567424,0 c -1.086537,0 -1.76505,1.489571 -1.76505,3.966612 l 0,23.637885 2.986831,34.388465 c 0.275073,2.973564 0.680805,4.624924 1.767342,4.624924"
       style="fill:#191412;fill-opacity:1;fill-rule:nonzero;stroke:none"
       id="path4767" />
    <path
       inkscape:connector-curvature="0"
       d="m 36.343985,9.0476354 5.643826,0 0,-3.3081301 -5.643826,0 0,3.3081301 z"
       style="fill:#ffffff;fill-opacity:1;fill-rule:nonzero;stroke:none"
       id="path4769" />
    <path
       inkscape:connector-curvature="0"
       d="m 32.8093,-29.965754 1.428086,8.256802 -2.92494,0 1.496854,-8.256802 z m -6.865356,13.222041 -0.882525,-6.783967 0.882525,-0.820101 0.884817,6.945755 c 0.612037,-0.490945 1.561037,-0.993047 2.104306,-1.160415 -0.06877,-1.160415 -0.40344,-7.113123 -0.40344,-7.113123 l 0.882525,-0.161789 0.405732,6.945756 c 0.612037,-0.167368 2.246428,-0.334736 2.92494,-0.334736 0.676221,0 2.310611,0.167368 2.989124,0.334736 l 0.408024,-6.945756 0.882525,0.161789 c 0,0 -0.336964,5.952708 -0.405732,7.113123 0.543269,0.167368 1.290549,0.496524 2.03783,0.987469 l 0.884818,-6.772809 0.813756,0.663891 -0.74728,6.76723 c 0.882524,0.502103 1.700866,1.160416 2.448147,2.315252 l 2.175366,-11.235945 c -3.468208,-4.128401 -7.406332,-6.281864 -11.486578,-6.120076 -4.011477,-0.161788 -7.885418,1.991675 -11.353626,5.947129 l 2.108891,11.408892 c 0.744988,-0.820101 1.56333,-1.645781 2.445855,-2.142305"
       style="fill:#ffffff;fill-opacity:1;fill-rule:nonzero;stroke:none"
       id="path4771" />
    <path
       inkscape:connector-curvature="0"
       d="m 34.237386,-21.708952 -1.428086,-8.256802 -1.496854,8.256802 2.92494,0"
       style="fill:#191412;fill-opacity:1;fill-rule:nonzero;stroke:none"
       id="path4773" />
  </g>
</svg>
