<?xml version="1.0" encoding="UTF-8" standalone="no"?>
<!-- Created with Inkscape (http://www.inkscape.org/) -->

<svg
   xmlns:dc="http://purl.org/dc/elements/1.1/"
   xmlns:cc="http://creativecommons.org/ns#"
   xmlns:rdf="http://www.w3.org/1999/02/22-rdf-syntax-ns#"
   xmlns:svg="http://www.w3.org/2000/svg"
   xmlns="http://www.w3.org/2000/svg"
   xmlns:sodipodi="http://sodipodi.sourceforge.net/DTD/sodipodi-0.dtd"
   xmlns:inkscape="http://www.inkscape.org/namespaces/inkscape"
   id="svg2993"
   version="1.1"
   preserveAspectRatio="xMinYMin meet"
   viewBox="0 0 145 130"
   inkscape:version="0.48.3.1 r9886"
   sodipodi:docname="cod_1.svg"
   width="100%"
   height="100%">
  <defs
     id="defs2995" />
  <sodipodi:namedview
     id="base"
     pagecolor="#ffffff"
     bordercolor="#666666"
     borderopacity="1.0"
     inkscape:pageopacity="0.0"
     inkscape:pageshadow="2"
     inkscape:zoom="22"
     inkscape:cx="133.62751"
     inkscape:cy="8.1990765"
     inkscape:current-layer="layer1"
     showgrid="true"
     inkscape:document-units="px"
     inkscape:grid-bbox="true"
     inkscape:window-width="1366"
     inkscape:window-height="692"
     inkscape:window-x="0"
     inkscape:window-y="24"
     inkscape:window-maximized="1" />
  <metadata
     id="metadata2998">
    <rdf:RDF>
      <cc:Work
         rdf:about="">
        <dc:format>image/svg+xml</dc:format>
        <dc:type
           rdf:resource="http://purl.org/dc/dcmitype/StillImage" />
        <dc:title></dc:title>
      </cc:Work>
    </rdf:RDF>
  </metadata>
  <g
     id="layer1"
     inkscape:label="Layer 1"
     inkscape:groupmode="layer"
     transform="translate(0,66)">
    <path
       inkscape:connector-curvature="0"
       d="m 143.45545,59.56614 c -1.34899,2.385296 -3.78218,3.809191 -6.48374,3.809191 l -128.8770756,0 c -2.7087189,0 -5.1347579,-1.423895 -6.4873282,-3.809191 -1.3561486,-2.381655 -1.3561486,-5.229444 0.00344,-7.611099 L 66.047491,-61.552303 c 1.359726,-2.381655 3.782187,-3.801908 6.483749,-3.801908 2.705141,0 5.131181,1.420253 6.483751,3.801908 L 143.4553,51.955041 c 1.35615,2.381655 1.35615,5.229444 0,7.611099 z m 0.52958,-7.924284 -64.43674,-113.500059 c -1.467074,-2.578307 -4.086337,-4.122376 -7.016907,-4.122376 -2.926991,0 -5.546253,1.544069 -7.013327,4.118734 L 1.0813066,51.641856 c -1.46349545,2.578306 -1.46349545,5.659162 0,8.237468 1.4599172,2.574664 4.0827587,4.118733 7.0133278,4.118733 l 128.8770756,0 c 2.93056,0 5.5534,-1.544069 7.01332,-4.118733 1.45991,-2.578306 1.45991,-5.659162 0,-8.237468"
       style="fill:#191412;fill-opacity:1;fill-rule:nonzero;stroke:none"
       id="path810" />
    <path
       inkscape:connector-curvature="0"
       d="m 23.090992,46.955022 49.440391,-87.083356 49.443967,87.083356 -98.884358,0 z M 77.029217,-60.383325 c -1.993073,-3.521499 -6.995436,-3.521499 -8.992088,0 C 46.553444,-22.553613 25.07333,15.283381 3.5968013,53.120376 1.6001497,56.641875 4.094175,61.048301 8.0946344,61.048301 l 128.8770756,0 c 3.99688,0 6.49806,-4.406426 4.49782,-7.927925 C 119.98943,15.283381 98.509323,-22.553613 77.029217,-60.383325"
       style="fill:#c13339;fill-opacity:1;fill-rule:nonzero;stroke:none"
       id="path812" />
    <path
       inkscape:connector-curvature="0"
       d="m 77.394196,-1.8069959 c 1.982339,0.1893671 2.884053,2.02477092 4.680323,2.19957129 1.799849,0 2.164829,-1.09614395 3.782188,-1.09614395 1.799849,-0.18208371 4.14001,1.83176216 4.14001,3.65988256 0,2.1995713 -0.175477,4.3991425 -3.603276,5.3132027 -1.792692,0.5498929 -3.234718,-1.2818693 -4.855656,-1.2818693 -1.438448,0 -2.88763,1.463953 -4.3225,1.463953 -3.603277,0 -3.424365,-2.1922879 -5.410282,-2.1922879 -1.968025,0 -2.333005,2.1922879 -5.571302,2.381655 -2.164827,0 -3.249031,-1.4712363 -4.687479,-0.9177019 -2.333005,0.7283348 -2.701562,4.2134174 -2.880474,4.2134174 l -2.336583,0 c 0.361401,-3.2957155 1.259537,-5.8630958 3.961099,-8.2411091 0.536734,-1.0997857 0.178912,-6.41663 4.683901,-7.1413231 4.497833,-0.7356182 4.497833,2.56009693 7.922198,2.92426435 1.438448,0.18572539 2.876895,-1.28551105 4.497833,-1.28551105 z m 16.570776,27.2907069 0,6.59143 -7.929354,0 c -0.722802,0 -0.536734,0.921344 0,0.921344 l 12.427187,0 0,1.096144 -5.041723,0 c 0.54389,0.549893 0.901713,1.278227 0.901713,2.013845 0,1.463953 -1.255958,2.56738 -2.70514,2.56738 -1.442027,0 -2.519073,-1.103427 -2.519073,-2.56738 0,-0.735618 0.178911,-1.463952 0.722802,-2.013845 l -3.964677,0 c 0,0.178442 0.178911,0.367809 0.178911,0.367809 0,2.374372 -1.982339,4.388217 -4.315343,4.388217 -2.34374,0 -4.326079,-1.82812 -4.326079,-4.388217 l 0,-0.367809 -1.97876,0 0,0.367809 c 0,2.374372 -1.803428,4.388217 -4.143589,4.388217 -2.340162,0 -4.322499,-1.82812 -4.322499,-4.388217 l 0,-0.367809 -2.164829,0 c 0,0.178442 0.189789,0.367809 0.189789,0.367809 0,2.374372 -1.989495,4.388217 -4.326078,4.388217 -2.336583,0 -4.318922,-1.82812 -4.318922,-4.388217 l 0,-0.367809 -3.606855,0 c 0.54747,0.549893 0.722803,1.278227 0.722803,2.013845 0,1.463953 -1.080625,2.56738 -2.526229,2.56738 -1.43487,0 -2.694407,-1.103427 -2.694407,-2.56738 0,-0.735618 0.178912,-1.463952 0.722803,-2.013845 l -2.347318,0 0,-0.91406 2.347318,0 0,-3.845609 34.751755,0 0,-11.35474 12.963922,0 0,1.467595 -6.66624,0 0,6.037896 3.968255,0 z m -42.137218,-5.863095 3.417208,0 c 0.72638,-0.174801 1.084203,-0.728336 1.084203,-1.270945 l -1.084203,-3.302999 0.175476,-2.203213 4.147167,0 0.178911,2.203213 -1.080625,3.302999 c -0.175476,0.542609 0.36498,1.096144 1.080625,1.270945 l 6.487328,0 c 1.61736,0 1.61736,-1.096144 1.61736,-1.463954 l 12.963922,0 c 0.178911,0.549893 0,1.463954 1.985917,1.289153 l 0,8.965802 -30.973146,0 -2.880474,-4.388218 2.880474,-4.402783 z m -28.736762,27.334406 98.884358,0 -49.443967,-87.083356 -49.440391,87.083356"
       style="fill:#ffffff;fill-opacity:1;fill-rule:nonzero;stroke:none"
       id="path814" />
    <path
       inkscape:connector-curvature="0"
       d="m 96.662956,19.445815 0,-1.467595 -12.963921,0 0,11.35474 -34.751755,0 0,3.845609 -2.347319,0 0,0.91406 2.347319,0 c -0.543891,0.549893 -0.722803,1.278227 -0.722803,2.013845 0,1.463953 1.259537,2.56738 2.694407,2.56738 1.445604,0 2.526229,-1.103427 2.526229,-2.56738 0,-0.735618 -0.175477,-1.463952 -0.722803,-2.013845 l 3.606855,0 0,0.367809 c 0,2.560097 1.982338,4.388217 4.318922,4.388217 2.336583,0 4.326078,-2.013845 4.326078,-4.388217 0,0 -0.189789,-0.189367 -0.189789,-0.367809 l 2.164828,0 0,0.367809 c 0,2.560097 1.982338,4.388217 4.3225,4.388217 2.340161,0 4.143589,-2.013845 4.143589,-4.388217 l 0,-0.367809 1.97876,0 0,0.367809 c 0,2.560097 1.982339,4.388217 4.326079,4.388217 2.333004,0 4.315343,-2.013845 4.315343,-4.388217 0,0 -0.178911,-0.189367 -0.178911,-0.367809 l 3.964676,0 c -0.54389,0.549893 -0.722801,1.278227 -0.722801,2.013845 0,1.463953 1.077046,2.56738 2.519073,2.56738 1.449182,0 2.70514,-1.103427 2.70514,-2.56738 0,-0.735618 -0.357823,-1.463952 -0.901714,-2.013845 l 5.041724,0 0,-1.096144 -12.427187,0 c -0.536734,0 -0.722802,-0.921344 0,-0.921344 l 7.929354,0 0,-6.59143 -3.968255,0 0,-6.037896 6.666239,0"
       style="fill:#191412;fill-opacity:1;fill-rule:nonzero;stroke:none"
       id="path816" />
    <path
       inkscape:connector-curvature="0"
       d="m 82.8009,28.411617 0,-8.965802 c -1.985917,0.174801 -1.807006,-0.73926 -1.985917,-1.289153 l -12.963923,0 c 0,0.36781 0,1.463954 -1.617359,1.463954 l -6.487328,0 C 59.030728,19.445815 58.490415,18.89228 58.665748,18.349671 l 1.080625,-3.302999 -0.178911,-2.203213 -4.147168,0 -0.175475,2.203213 1.084203,3.302999 c 0,0.542609 -0.357823,1.096144 -1.084203,1.270945 l -3.417208,0 -2.880474,4.402783 2.880474,4.388218 30.973145,0"
       style="fill:#191412;fill-opacity:1;fill-rule:nonzero;stroke:none"
       id="path818" />
    <path
       inkscape:connector-curvature="0"
       d="m 64.974165,-3.4457492 c -4.504989,0.7246931 -4.147167,6.0415374 -4.683901,7.1413231 -2.701562,2.3780133 -3.599698,4.9453936 -3.961099,8.2411091 l 2.336583,0 c 0.178912,0 0.547469,-3.4850826 2.880474,-4.2134174 1.438448,-0.5535344 2.522652,0.9177019 4.687479,0.9177019 3.238297,-0.1893671 3.603277,-2.381655 5.571302,-2.381655 1.985917,0 1.807005,2.1922879 5.410282,2.1922879 1.43487,0 2.884052,-1.463953 4.3225,-1.463953 1.620938,0 3.062964,1.8317622 4.855656,1.2818693 3.427943,-0.9140602 3.603276,-3.1136314 3.603276,-5.3132027 0,-1.8281204 -2.340161,-3.84196627 -4.14001,-3.65988256 -1.617359,0 -1.982339,1.09614395 -3.782188,1.09614395 -1.79627,-0.17480037 -2.697984,-2.01020419 -4.680323,-2.19957129 -1.620938,0 -3.059385,1.47123644 -4.497833,1.28551105 -3.424365,-0.36416742 -3.424365,-3.65988255 -7.922198,-2.92426435"
       style="fill:#191412;fill-opacity:1;fill-rule:nonzero;stroke:none"
       id="path820" />
  </g>
</svg>
