<?xml version="1.0" encoding="UTF-8" standalone="no"?>
<!-- Created with Inkscape (http://www.inkscape.org/) -->

<svg
   xmlns:dc="http://purl.org/dc/elements/1.1/"
   xmlns:cc="http://creativecommons.org/ns#"
   xmlns:rdf="http://www.w3.org/1999/02/22-rdf-syntax-ns#"
   xmlns:svg="http://www.w3.org/2000/svg"
   xmlns="http://www.w3.org/2000/svg"
   xmlns:sodipodi="http://sodipodi.sourceforge.net/DTD/sodipodi-0.dtd"
   xmlns:inkscape="http://www.inkscape.org/namespaces/inkscape"
   id="svg2993"
   version="1.1"
   preserveAspectRatio="xMinYMin meet"
   viewBox="0 0 145 130"
   inkscape:version="0.48.3.1 r9886"
   sodipodi:docname="cod_77b.svg"
   width="100%"
   height="100%">
  <defs
     id="defs2995" />
  <sodipodi:namedview
     id="base"
     pagecolor="#ffffff"
     bordercolor="#666666"
     borderopacity="1.0"
     inkscape:pageopacity="0.0"
     inkscape:pageshadow="2"
     inkscape:zoom="1.0353448"
     inkscape:cx="-71.788619"
     inkscape:cy="-31.652006"
     inkscape:current-layer="layer1"
     showgrid="true"
     inkscape:document-units="px"
     inkscape:grid-bbox="true"
     inkscape:window-width="1366"
     inkscape:window-height="692"
     inkscape:window-x="0"
     inkscape:window-y="24"
     inkscape:window-maximized="1" />
  <metadata
     id="metadata2998">
    <rdf:RDF>
      <cc:Work
         rdf:about="">
        <dc:format>image/svg+xml</dc:format>
        <dc:type
           rdf:resource="http://purl.org/dc/dcmitype/StillImage" />
        <dc:title></dc:title>
      </cc:Work>
    </rdf:RDF>
  </metadata>
  <g
     id="layer1"
     inkscape:label="Layer 1"
     inkscape:groupmode="layer"
     transform="translate(0,66)">
    <path
       inkscape:connector-curvature="0"
       d="m 1.447625,-58.635353 c 0,-3.589871 4.8744248,-6.501003 10.876037,-6.501003 l 120.345138,0 c 6.01292,0 10.88358,2.911132 10.88358,6.501003 l 0,115.270706 c 0,3.587616 -4.87066,6.500552 -10.88358,6.500552 l -120.345138,0 c -6.0016122,0 -10.876037,-2.912936 -10.876037,-6.500552 l 0,-115.270706 z M 0,64 145,64 145,-66 0,-66 0,64"
       style="fill:#2c4aa0;fill-opacity:1;fill-rule:nonzero;stroke:none"
       id="path4013" />
    <path
       inkscape:connector-curvature="0"
       d="m 4.342875,-58.635353 c 0,-2.631519 3.577594,-4.764696 7.980787,-4.764696 l 120.345138,0 c 4.40696,0 7.98079,2.133177 7.98079,4.764696 l 0,115.270706 c 0,2.631068 -3.57383,4.762676 -7.98079,4.762676 l -120.345138,0 c -4.403193,0 -7.980787,-2.131608 -7.980787,-4.762676 l 0,-115.270706 z m 7.980787,121.771258 120.345138,0 c 6.01292,0 10.88358,-2.912936 10.88358,-6.500552 l 0,-115.270706 c 0,-3.589871 -4.87066,-6.501003 -10.88358,-6.501003 l -120.345138,0 c -6.0016122,0 -10.876037,2.911132 -10.876037,6.501003 l 0,115.270706 c 0,3.587616 4.8744248,6.500552 10.876037,6.500552"
       style="fill:#ffffff;fill-opacity:1;fill-rule:nonzero;stroke:none"
       id="path4015" />
    <path
       inkscape:connector-curvature="0"
       d="m 30.562229,31.138483 46.04503,0 -2.405169,-8.721908 c 0,-0.25277 0.139485,-0.338241 0.27897,-0.505558 0.147024,-0.08821 0.569248,-0.173541 0.991472,-0.08821 L 114.434,35.45643 75.472532,49.178 c -0.422224,0.08388 -0.844448,0 -0.991472,-0.08515 -0.139485,-0.171736 -0.27897,-0.255494 -0.27897,-0.507362 l 2.405169,-8.72483 -46.04503,0 0,-8.722124 z m 3.366482,-86.080237 43.296804,0 c 11.05322,0 19.343135,1.650619 25.092165,5.087154 5.76034,3.4433 8.75361,8.537218 8.75361,15.139695 0,6.746793 -2.76331,12.111305 -8.52365,15.694411 -5.752798,3.711638 -13.812752,5.506573 -24.406049,5.506573 l -19.803058,0 0,23.1199424 -24.409822,0 0,-64.5477754 z m -21.605049,116.339783 120.345138,0 c 4.40696,0 7.98079,-2.131608 7.98079,-4.762676 l 0,-115.270706 c 0,-2.631519 -3.57383,-4.764696 -7.98079,-4.764696 l -120.345138,0 c -4.403193,0 -7.980787,2.133177 -7.980787,4.764696 l 0,115.270706 c 0,2.631068 3.577594,4.762676 7.980787,4.762676"
       style="fill:#2c4aa0;fill-opacity:1;fill-rule:nonzero;stroke:none"
       id="path4017" />
    <path
       inkscape:connector-curvature="0"
       d="m 74.458441,-26.4573 c 4.376803,0 7.600031,-0.687758 9.673452,-1.925722 2.073421,-1.240219 2.993266,-3.298983 2.993266,-5.914719 0,-2.615735 -0.919845,-4.543712 -3.230767,-5.783931 -2.065881,-1.23571 -5.289109,-1.925723 -9.665913,-1.925723 l -15.889946,0 0,15.550095 16.119908,0"
       style="fill:#2c4aa0;fill-opacity:1;fill-rule:nonzero;stroke:none"
       id="path4019" />
    <path
       inkscape:connector-curvature="0"
       d="m 58.338533,-42.007395 15.889946,0 c 4.376804,0 7.600032,0.690013 9.665913,1.925723 2.310922,1.240219 3.230767,3.168196 3.230767,5.783931 0,2.615736 -0.919845,4.6745 -2.993266,5.914719 -2.073421,1.237964 -5.296649,1.925722 -9.673452,1.925722 l -16.119908,0 0,-15.550095 z m 0,28.493474 19.803058,0 c 10.593297,0 18.653251,-1.794935 24.406049,-5.506573 5.76034,-3.583106 8.52365,-8.947618 8.52365,-15.694411 0,-6.602477 -2.99327,-11.696395 -8.75361,-15.139695 -5.74903,-3.436535 -14.038945,-5.087154 -25.092165,-5.087154 l -43.296804,0 0,64.5477754 24.409822,0 0,-23.1199424"
       style="fill:#ffffff;fill-opacity:1;fill-rule:nonzero;stroke:none"
       id="path4021" />
    <path
       inkscape:connector-curvature="0"
       d="m 74.20209,48.585437 c 0,0.251868 0.139485,0.335535 0.27897,0.507362 0.147024,0.08515 0.569248,0.169031 0.991472,0.08515 L 114.434,35.456376 75.472532,21.822767 c -0.422224,-0.08551 -0.844448,0 -0.991472,0.08821 -0.139485,0.167227 -0.27897,0.25277 -0.27897,0.505558 l 2.405169,8.72189 -46.04503,0 0,8.722124 46.04503,0 -2.405169,8.724829"
       style="fill:#ffffff;fill-opacity:1;fill-rule:nonzero;stroke:none"
       id="path4023" />
  </g>
</svg>
