<?xml version="1.0" encoding="UTF-8" standalone="no"?>
<!-- Created with Inkscape (http://www.inkscape.org/) -->

<svg
   xmlns:dc="http://purl.org/dc/elements/1.1/"
   xmlns:cc="http://creativecommons.org/ns#"
   xmlns:rdf="http://www.w3.org/1999/02/22-rdf-syntax-ns#"
   xmlns:svg="http://www.w3.org/2000/svg"
   xmlns="http://www.w3.org/2000/svg"
   xmlns:sodipodi="http://sodipodi.sourceforge.net/DTD/sodipodi-0.dtd"
   xmlns:inkscape="http://www.inkscape.org/namespaces/inkscape"
   id="svg2993"
   version="1.1"
   preserveAspectRatio="xMinYMin meet"
   viewBox="0 0 145 130"
   inkscape:version="0.48.3.1 r9886"
   sodipodi:docname="cod_1.svg"
   width="100%"
   height="100%">
  <defs
     id="defs2995" />
  <sodipodi:namedview
     id="base"
     pagecolor="#ffffff"
     bordercolor="#666666"
     borderopacity="1.0"
     inkscape:pageopacity="0.0"
     inkscape:pageshadow="2"
     inkscape:zoom="4.0153846"
     inkscape:cx="72.5"
     inkscape:cy="65"
     inkscape:current-layer="layer1"
     showgrid="true"
     inkscape:document-units="px"
     inkscape:grid-bbox="true"
     inkscape:window-width="1366"
     inkscape:window-height="692"
     inkscape:window-x="0"
     inkscape:window-y="24"
     inkscape:window-maximized="1" />
  <metadata
     id="metadata2998">
    <rdf:RDF>
      <cc:Work
         rdf:about="">
        <dc:format>image/svg+xml</dc:format>
        <dc:type
           rdf:resource="http://purl.org/dc/dcmitype/StillImage" />
        <dc:title></dc:title>
      </cc:Work>
    </rdf:RDF>
  </metadata>
  <g
     id="layer1"
     inkscape:label="Layer 1"
     inkscape:groupmode="layer"
     transform="translate(0,66)">
    <path
       inkscape:connector-curvature="0"
       d="m 44.568406,35.342748 c 3.40809,-3.051524 6.81267,-6.0999 10.21374,-9.154574 C 60.685757,31.485042 66.592879,36.781909 72.5,42.078777 88.512055,27.712362 104.53113,13.355394 120.55371,-1.0047237 114.64308,-6.2952932 108.73596,-11.59531 102.83235,-16.895327 c 3.40458,-3.045227 6.80565,-6.099901 10.21374,-9.148277 8.30437,7.447737 16.61575,14.895473 24.92714,22.3495074 1.64964,1.483249 1.64964,3.89549676 0,5.385044 -20.8241,18.6618546 -41.648191,37.3300066 -62.465266,56.0044576 -1.663681,1.483249 -4.348737,1.483249 -6.012418,0 C 61.187669,50.244519 52.876283,42.793634 44.568406,35.342748 z M 26.850552,-1.0047237 72.5,-41.931058 89.020987,-27.120612 43.368029,13.802573 26.850552,-1.0047237 z M 101.63197,-15.81202 118.14945,-1.0047237 72.5,39.918461 55.979013,25.111165 101.63197,-15.81202 z M 31.957422,24.037305 C 23.646035,16.58642 15.338158,9.1386837 7.0267719,1.6909474 c -1.6601714,-1.48954724 -1.6601714,-3.901795 0,-5.385044 L 69.495546,-59.701703 c 1.663681,-1.489547 4.348737,-1.489547 6.012418,0 8.304367,7.447736 16.612243,14.898622 24.923626,22.346358 -3.404576,3.054674 -6.809156,6.106199 -10.213736,9.151426 C 84.314243,-33.49134 78.410631,-38.788208 72.5,-44.085075 56.484436,-29.721809 40.465361,-15.361692 24.453307,-1.0047237 30.360428,4.2921441 36.26053,9.5827136 42.171161,14.879581 c -3.4116,3.054674 -6.80916,6.10305 -10.213739,9.157724 z M 76.704832,58.769264 139.17361,2.7616579 c 2.32353,-2.07843802 2.32353,-5.4543252 0,-7.5359124 C 118.346,-23.439258 97.525416,-42.113708 76.704832,-60.775563 c -2.320029,-2.084736 -6.089635,-2.084736 -8.413173,0 -20.817075,18.661855 -41.63766,37.336305 -62.4617549,56.0013085 -2.320028,2.0815872 -2.320028,5.45747438 0,7.5359124 C 26.653999,21.436109 47.474584,40.097963 68.291659,58.769264 c 2.323538,2.081587 6.093144,2.081587 8.413173,0"
       style="fill:#191412;fill-opacity:1;fill-rule:nonzero;stroke:none"
       id="path1660" />
    <path
       inkscape:connector-curvature="0"
       d="M 72.5,39.918461 118.14945,-1.0047237 101.63197,-15.81202 55.979013,25.111165 72.5,39.918461"
       style="fill:#ecee23;fill-opacity:1;fill-rule:nonzero;stroke:none"
       id="path1662" />
    <path
       inkscape:connector-curvature="0"
       d="M 75.507964,57.695405 C 96.325039,39.020954 117.14913,20.352802 137.97323,1.6909474 c 1.64964,-1.48954724 1.64964,-3.901795 0,-5.385044 -8.31139,-7.4540344 -16.62277,-14.9017704 -24.92714,-22.3495074 -3.40809,3.048376 -6.80916,6.10305 -10.21374,9.148277 5.90361,5.300017 11.81073,10.6000338 17.72136,15.8906033 C 104.53113,13.355394 88.512055,27.712362 72.5,42.078777 66.592879,36.781909 60.685757,31.485042 54.782146,26.188174 c -3.40107,3.054674 -6.80565,6.10305 -10.21374,9.154574 8.307877,7.450886 16.619263,14.901771 24.92714,22.352657 1.663681,1.483249 4.348737,1.483249 6.012418,0"
       style="fill:#ffffff;fill-opacity:1;fill-rule:nonzero;stroke:none"
       id="path1664" />
    <path
       inkscape:connector-curvature="0"
       d="M 72.5,-41.931058 26.850552,-1.0047237 43.368029,13.802573 89.020987,-27.120612 72.5,-41.931058"
       style="fill:#ecee23;fill-opacity:1;fill-rule:nonzero;stroke:none"
       id="path1666" />
    <path
       inkscape:connector-curvature="0"
       d="m 72.5,-44.085075 c 5.910631,5.296867 11.814243,10.593735 17.717854,15.881156 3.40458,-3.045227 6.80916,-6.096752 10.213736,-9.151426 -8.311383,-7.447736 -16.619259,-14.898622 -24.923626,-22.346358 -1.663681,-1.489547 -4.348737,-1.489547 -6.012418,0 L 7.0267719,-3.6940966 c -1.6601714,1.483249 -1.6601714,3.89549676 0,5.385044 C 15.338158,9.1386837 23.646035,16.58642 31.957422,24.037305 35.362001,20.982631 38.759561,17.934255 42.171161,14.879581 36.26053,9.5827136 30.360428,4.2921441 24.453307,-1.0047237 40.465361,-15.361692 56.484436,-29.721809 72.5,-44.085075"
       style="fill:#ffffff;fill-opacity:1;fill-rule:nonzero;stroke:none"
       id="path1668" />
    <path
       inkscape:connector-curvature="0"
       d="M 0.84588013,-1.0047237 72.5,-65.244204 144.15412,-1.0047237 72.5,63.241055 0.84588013,-1.0047237 z M 72.714102,-65.8142 72.5,-66 72.292917,-65.8142 0.21761232,-1.1905235 0,-1.0047237 0.21761232,-0.81577481 72.292917,63.807902 72.5,64 72.714102,63.807902 144.78941,-0.81577481 145,-1.0047237 144.78941,-1.1905235 72.714102,-65.8142"
       style="fill:#191412;fill-opacity:1;fill-rule:nonzero;stroke:none"
       id="path1670" />
  </g>
</svg>
