<?xml version="1.0" encoding="UTF-8" standalone="no"?>
<!-- Created with Inkscape (http://www.inkscape.org/) -->

<svg
   xmlns:dc="http://purl.org/dc/elements/1.1/"
   xmlns:cc="http://creativecommons.org/ns#"
   xmlns:rdf="http://www.w3.org/1999/02/22-rdf-syntax-ns#"
   xmlns:svg="http://www.w3.org/2000/svg"
   xmlns="http://www.w3.org/2000/svg"
   xmlns:sodipodi="http://sodipodi.sourceforge.net/DTD/sodipodi-0.dtd"
   xmlns:inkscape="http://www.inkscape.org/namespaces/inkscape"
   id="svg2993"
   version="1.1"
   preserveAspectRatio="xMinYMin meet"
   viewBox="0 0 145 130"
   inkscape:version="0.48.3.1 r9886"
   sodipodi:docname="cod_45.svg"
   width="100%"
   height="100%">
  <defs
     id="defs2995" />
  <sodipodi:namedview
     id="base"
     pagecolor="#ffffff"
     bordercolor="#666666"
     borderopacity="1.0"
     inkscape:pageopacity="0.0"
     inkscape:pageshadow="2"
     inkscape:zoom="1.3571403"
     inkscape:cx="86.613068"
     inkscape:cy="140.12141"
     inkscape:current-layer="layer1"
     showgrid="true"
     inkscape:document-units="px"
     inkscape:grid-bbox="true"
     inkscape:window-width="1366"
     inkscape:window-height="692"
     inkscape:window-x="0"
     inkscape:window-y="24"
     inkscape:window-maximized="1" />
  <metadata
     id="metadata2998">
    <rdf:RDF>
      <cc:Work
         rdf:about="">
        <dc:format>image/svg+xml</dc:format>
        <dc:type
           rdf:resource="http://purl.org/dc/dcmitype/StillImage" />
        <dc:title></dc:title>
      </cc:Work>
    </rdf:RDF>
  </metadata>
  <g
     id="layer1"
     inkscape:label="Layer 1"
     inkscape:groupmode="layer"
     transform="translate(0,66)">
    <path
       inkscape:connector-curvature="0"
       d="m 5.0737785,-58.626345 c 0,-2.485052 3.3717091,-4.506991 7.5196675,-4.506991 l 119.809124,0 c 4.14398,0 7.51569,2.021939 7.51569,4.506991 l 0,115.045239 c 0,2.480277 -3.37171,4.502217 -7.51569,4.502217 l -119.809124,0 c -4.1479584,0 -7.5196675,-2.02194 -7.5196675,-4.502217 l 0,-115.045239 z m 7.5196675,120.055926 119.809124,0 c 4.61371,0 8.36359,-2.246334 8.36359,-5.010687 l 0,-115.045239 c 0,-2.766739 -3.74988,-5.013073 -8.36359,-5.013073 l -119.809124,0 c -4.613708,0 -8.36359,2.246334 -8.36359,5.013073 l 0,115.045239 c 0,2.764353 3.749882,5.010687 8.36359,5.010687"
       style="fill:#191412;fill-opacity:1;fill-rule:nonzero;stroke:none"
       id="path3827" />
    <path
       inkscape:connector-curvature="0"
       d="m 2.1917037,-58.626345 c 0,-3.437536 4.6654582,-6.235307 10.4017423,-6.235307 l 119.809124,0 c 5.73629,0 10.40573,2.797771 10.40573,6.235307 l 0,115.045239 c 0,3.43515 -4.66944,6.232921 -10.40573,6.232921 l -119.809124,0 c -5.7362841,0 -10.4017423,-2.797771 -10.4017423,-6.232921 l 0,-115.045239 z m 10.4017423,121.786629 119.809124,0 c 6.20203,0 11.25363,-3.024553 11.25363,-6.74139 l 0,-115.045239 c 0,-3.719223 -5.0516,-6.743776 -11.25363,-6.743776 l -119.809124,0 c -6.2060146,0 -11.2496456,3.024553 -11.2496456,6.743776 l 0,115.045239 c 0,3.716837 5.043631,6.74139 11.2496456,6.74139"
       style="fill:#191412;fill-opacity:1;fill-rule:nonzero;stroke:none"
       id="path3829" />
    <path
       inkscape:connector-curvature="0"
       d="m 144.24933,63.513586 -143.50264458,0 0,-129.239397 143.50264458,0 0,129.239397 z m 0.42196,-129.747865 -144.76852706,0 0,130.256334 145.19447706,0 0,-130.256334 -0.42595,0"
       style="fill:#191412;fill-opacity:1;fill-rule:nonzero;stroke:none"
       id="path3831" />
    <path
       inkscape:connector-curvature="0"
       d="m 72.496019,-55.079 c 29.764191,0 53.979201,14.511653 53.979201,32.351028 0,17.8346037 -24.21501,32.3462543 -53.979201,32.3462543 -29.76021,0 -53.975211,-14.5116506 -53.975211,-32.3462543 0,-17.839375 24.215001,-32.351028 53.975211,-32.351028 z m 0,65.079231 c 30.114501,0 54.620101,-14.6811421 54.620101,-32.728203 0,-18.04706 -24.5056,-32.730589 -54.620101,-32.730589 -30.114497,0 -54.612134,14.683529 -54.612134,32.730589 0,18.0470609 24.497637,32.728203 54.612134,32.728203"
       style="fill:#191412;fill-opacity:1;fill-rule:nonzero;stroke:none"
       id="path3833" />
    <path
       inkscape:connector-curvature="0"
       d="m 42.520848,-37.306463 0.151269,-0.119368 0.175154,0.107414 53.975212,32.34148 0.183115,0.1098081 -0.210981,0.088333 C 87.997123,-0.90918189 78.172592,0.82868416 68.375926,0.24382589 59.590374,-0.28135441 51.298438,-2.6637567 45.032712,-6.461756 c -6.118438,-3.669092 -10.083281,-8.880301 -10.879434,-14.30158 -0.613039,-4.19427 0.334383,-10.472547 8.36757,-16.543139 z m 5.6089,-3.36592 c 10.230569,-4.817325 20.703967,-5.409345 27.694192,-5.05843 9.024397,0.458338 17.746256,2.814483 23.932368,6.476413 6.277662,3.807548 10.210662,8.799135 11.058572,14.055701 0.95937,5.874843 -1.94261,11.740138 -8.39544,16.9632821 l -0.15525,0.1241375 -0.17516,-0.1098081 -53.979186,-32.2555475 -0.175154,-0.105035 0.195058,-0.09071 z M 72.496019,8.7230898 c 28.987941,0 52.494371,-14.0819585 52.494371,-31.4510618 0,-17.373876 -23.50643,-31.451062 -52.494371,-31.451062 -28.987941,0 -52.486405,14.077186 -52.486405,31.451062 0,17.3691033 23.498464,31.4510618 52.486405,31.4510618"
       style="fill:#c13339;fill-opacity:1;fill-rule:nonzero;stroke:none"
       id="path3835" />
    <path
       inkscape:connector-curvature="0"
       d="m 52.838994,-40.586445 c 6.982265,-2.931454 15.26624,-4.117881 23.968196,-3.439923 8.069013,0.630215 15.592661,2.824031 21.185638,6.178016 11.858702,7.011138 13.522672,17.815504 4.140002,26.879616 l -0.1473,0.138448 -0.19505,-0.114578 -48.983331,-29.443445 -0.187097,-0.107423 0.218942,-0.09071 z m 49.250036,32.3653499 0.17516,0.1098081 0.15525,-0.1241376 c 6.45283,-5.2231444 9.35481,-11.0884394 8.39544,-16.9632824 -0.84791,-5.256566 -4.78091,-10.248153 -11.058572,-14.0557 -6.186112,-3.661923 -14.907971,-6.018068 -23.932368,-6.476406 -6.990225,-0.350915 -17.463623,0.241105 -27.694192,5.05843 l -0.195058,0.09071 0.175154,0.105036 53.979186,32.2555397"
       style="fill:#ffffff;fill-opacity:1;fill-rule:nonzero;stroke:none"
       id="path3837" />
    <path
       inkscape:connector-curvature="0"
       d="m 101.79048,-10.944864 0.19505,0.114578 0.1473,-0.138448 c 9.38267,-9.064114 7.7187,-19.86848 -4.140002,-26.879618 -5.592977,-3.353985 -13.116625,-5.547801 -21.185638,-6.178016 -8.701956,-0.677958 -16.985931,0.508469 -23.968196,3.439923 l -0.218942,0.09071 0.187097,0.107423 48.983331,29.443445"
       style="fill:#2c4aa0;fill-opacity:1;fill-rule:nonzero;stroke:none"
       id="path3839" />
    <path
       inkscape:connector-curvature="0"
       d="m 42.807463,-34.491982 0.151269,-0.126513 0.183116,0.109808 49.130619,29.3551203 0.199038,0.1193674 -0.238846,0.081168 C 84.537838,-2.1099041 76.106575,-0.90437922 67.862407,-1.4462683 60.060105,-1.9666727 52.739475,-4.0888728 47.230095,-7.4309214 41.64906,-10.775357 38.01462,-15.284735 36.995544,-20.12593 c -1.078787,-5.132432 0.98723,-10.233829 5.811919,-14.366035 z M 68.375926,0.24383739 c 9.796666,0.58485827 19.621197,-1.15300778 28.418691,-5.02262179 l 0.210981,-0.088333 -0.183115,-0.1098081 -53.975212,-32.3414745 -0.175154,-0.107413 -0.151269,0.119367 c -8.033187,6.070592 -8.980609,12.348868 -8.36757,16.543138 0.796153,5.42128 4.760996,10.632489 10.879434,14.3015808 6.265726,3.7979992 14.557662,6.18040153 23.343214,6.70558183"
       style="fill:#ffffff;fill-opacity:1;fill-rule:nonzero;stroke:none"
       id="path3841" />
    <path
       inkscape:connector-curvature="0"
       d="m 67.862407,-1.4462855 c 8.244168,0.54188904 16.675431,-0.6636358 24.370252,-3.5067627 l 0.238846,-0.081168 -0.199038,-0.1193674 -49.130619,-29.3551201 -0.183116,-0.109808 -0.151269,0.126513 c -4.824689,4.132205 -6.890706,9.233602 -5.811919,14.366034 1.019076,4.841195 4.653516,9.350574 10.234551,12.6950091 5.50938,3.3420486 12.83001,5.4642487 20.632312,5.9846531"
       style="fill:#2c4aa0;fill-opacity:1;fill-rule:nonzero;stroke:none"
       id="path3843" />
    <path
       inkscape:connector-curvature="0"
       d="m 36.991564,30.202913 c 1.285787,0 2.241171,-0.205298 2.846247,-0.570536 0.609058,-0.367625 0.883731,-0.976355 0.883731,-1.749801 0,-0.775833 -0.274673,-1.34398 -0.947422,-1.711606 -0.621,-0.367625 -1.564442,-0.570536 -2.862172,-0.570536 l -4.681381,0 0,4.602479 4.760997,0"
       style="fill:#2c4aa0;fill-opacity:1;fill-rule:nonzero;stroke:none"
       id="path3845" />
    <path
       inkscape:connector-curvature="0"
       d="m 25.033341,21.773789 12.770299,0 c 3.256266,0 5.704438,0.491759 7.408206,1.506309 1.695807,1.019325 2.579537,2.523247 2.579537,4.480733 0,1.993293 -0.816057,3.583153 -2.519825,4.645447 -1.695807,1.093326 -4.072324,1.625667 -7.197226,1.625667 l -5.843765,0 0,6.836877 -7.197226,0 0,-19.095033 z m -6.456802,21.7448 33.76486,0 c 1.636095,0 2.921882,-0.775833 2.921882,-1.752188 l 0,-20.233716 c 0,-0.976356 -1.285787,-1.756962 -2.921882,-1.756962 l -33.76486,0 c -1.572404,0 -2.921884,0.780606 -2.921884,1.756962 l 0,20.233716 c 0,0.976355 1.34948,1.752188 2.921884,1.752188"
       style="fill:#2c4aa0;fill-opacity:1;fill-rule:nonzero;stroke:none"
       id="path3847" />
    <path
       inkscape:connector-curvature="0"
       d="m 32.230567,25.600434 4.681381,0 c 1.29773,0 2.241172,0.202911 2.862172,0.570536 0.672749,0.367626 0.947422,0.935773 0.947422,1.711606 0,0.773446 -0.274673,1.382176 -0.883731,1.749801 -0.605076,0.365238 -1.56046,0.570536 -2.846247,0.570536 l -4.760997,0 0,-4.602479 z m 0,8.431511 5.843765,0 c 3.124902,0 5.501419,-0.532341 7.197226,-1.625667 1.703768,-1.062294 2.519825,-2.652154 2.519825,-4.645447 0,-1.957486 -0.88373,-3.461408 -2.579537,-4.480733 -1.703768,-1.01455 -4.15194,-1.506309 -7.408206,-1.506309 l -12.770299,0 0,19.095033 7.197226,0 0,-6.836877"
       style="fill:#ffffff;fill-opacity:1;fill-rule:nonzero;stroke:none"
       id="path3849" />
    <path
       inkscape:connector-curvature="0"
       d="m 125.34865,19.880757 -31.475915,0 c -2.137671,0 -3.877267,1.040811 -3.877267,2.322724 l 0,18.858702 c 0,1.2843 1.739596,2.327498 3.877267,2.327498 l 31.475915,0 c 2.13768,0 3.87727,-1.043198 3.87727,-2.327498 l 0,-18.858702 c 0,-1.281913 -1.73959,-2.322724 -3.87727,-2.322724"
       style="fill:#ffffff;fill-opacity:1;fill-rule:nonzero;stroke:none"
       id="path3851" />
    <path
       inkscape:connector-curvature="0"
       d="m 129.22592,41.062183 c 0,1.2843 -1.73959,2.327498 -3.87727,2.327498 l -31.475915,0 c -2.137671,0 -3.877267,-1.043198 -3.877267,-2.327498 l 0,-18.858702 c 0,-1.281913 1.739596,-2.322724 3.877267,-2.322724 l 31.475915,0 c 2.13768,0 3.87727,1.040811 3.87727,2.322724 l 0,18.858702 z M 93.872735,19.739914 c -2.269037,0 -4.120093,1.102876 -4.120093,2.463567 l 0,18.858702 c 0,1.363078 1.851056,2.470728 4.120093,2.470728 l 31.475915,0 c 2.27302,0 4.1201,-1.10765 4.1201,-2.470728 l 0,-18.858702 c 0,-1.360691 -1.84708,-2.463567 -4.1201,-2.463567 l -31.475915,0"
       style="fill:#191412;fill-opacity:1;fill-rule:nonzero;stroke:none"
       id="path3853" />
    <path
       inkscape:connector-curvature="0"
       d="m 129.22592,41.062183 c 0,1.2843 -1.73959,2.327498 -3.87727,2.327498 l -31.475915,0 c -2.137671,0 -3.877267,-1.043198 -3.877267,-2.327498 l 0,-18.858702 c 0,-1.281913 1.739596,-2.322724 3.877267,-2.322724 l 31.475915,0 c 2.13768,0 3.87727,1.040811 3.87727,2.322724 l 0,18.858702 z M 93.872735,19.739914 c -2.269037,0 -4.120093,1.102876 -4.120093,2.463567 l 0,18.858702 c 0,1.363078 1.851056,2.470728 4.120093,2.470728 l 31.475915,0 c 2.27302,0 4.1201,-1.10765 4.1201,-2.470728 l 0,-18.858702 c 0,-1.360691 -1.84708,-2.463567 -4.1201,-2.463567 l -31.475915,0 z"
       style="fill:none;stroke:#191412;stroke-width:0.66585469;stroke-linecap:butt;stroke-linejoin:miter;stroke-miterlimit:10;stroke-opacity:1;stroke-dasharray:none"
       id="path3855" />
    <path
       inkscape:connector-curvature="0"
       d="m 14.356925,48.240424 116.286145,0 0,5.94646 -116.286145,0 0,-5.94646 z m 116.556845,6.271116 0.27467,0 0,-6.598159 -117.376879,0 0,6.598159 117.102209,0"
       style="fill:#191412;fill-opacity:1;fill-rule:nonzero;stroke:none"
       id="path3857" />
  </g>
</svg>
