<?xml version="1.0" encoding="UTF-8" standalone="no"?>
<!-- Created with Inkscape (http://www.inkscape.org/) -->

<svg
   xmlns:dc="http://purl.org/dc/elements/1.1/"
   xmlns:cc="http://creativecommons.org/ns#"
   xmlns:rdf="http://www.w3.org/1999/02/22-rdf-syntax-ns#"
   xmlns:svg="http://www.w3.org/2000/svg"
   xmlns="http://www.w3.org/2000/svg"
   xmlns:sodipodi="http://sodipodi.sourceforge.net/DTD/sodipodi-0.dtd"
   xmlns:inkscape="http://www.inkscape.org/namespaces/inkscape"
   id="svg2993"
   version="1.1"
   preserveAspectRatio="xMinYMin meet"
   viewBox="0 0 145 130"
   inkscape:version="0.48.3.1 r9886"
   sodipodi:docname="cod_1.svg"
   width="100%"
   height="100%">
  <defs
     id="defs2995" />
  <sodipodi:namedview
     id="base"
     pagecolor="#ffffff"
     bordercolor="#666666"
     borderopacity="1.0"
     inkscape:pageopacity="0.0"
     inkscape:pageshadow="2"
     inkscape:zoom="4.0153846"
     inkscape:cx="72.5"
     inkscape:cy="65"
     inkscape:current-layer="layer1"
     showgrid="true"
     inkscape:document-units="px"
     inkscape:grid-bbox="true"
     inkscape:window-width="1366"
     inkscape:window-height="692"
     inkscape:window-x="0"
     inkscape:window-y="24"
     inkscape:window-maximized="1" />
  <metadata
     id="metadata2998">
    <rdf:RDF>
      <cc:Work
         rdf:about="">
        <dc:format>image/svg+xml</dc:format>
        <dc:type
           rdf:resource="http://purl.org/dc/dcmitype/StillImage" />
        <dc:title></dc:title>
      </cc:Work>
    </rdf:RDF>
  </metadata>
  <g
     id="layer1"
     inkscape:label="Layer 1"
     inkscape:groupmode="layer"
     transform="translate(0,66)">
    <path
       inkscape:connector-curvature="0"
       d="M 143.37659,-21.375692 113.49015,16.757712 78.983798,60.796731 c -1.355224,1.721592 -3.776032,2.752439 -6.479328,2.752439 -2.706872,0 -5.127681,-1.030847 -6.482904,-2.752439 L 1.6251957,-21.375692 c -1.34807211,-1.726865 -1.34807211,-3.788558 0,-5.512787 1.3552238,-1.724229 3.7796082,-2.757711 6.4793283,-2.757711 l 128.792736,0 c 2.7033,0 5.12768,1.030846 6.47933,2.752438 1.34807,1.726866 1.34807,3.791195 0,5.51806 z m -6.47933,-8.721329 -128.792736,0 c -2.921419,0 -5.5424717,1.112576 -7.0049691,2.979172 -1.46607319,1.869233 -1.46607319,4.097021 0,5.966254 L 65.495925,61.020828 C 66.958422,62.887424 69.575899,64 72.50447,64 c 2.921419,0 5.542471,-1.112576 7.004969,-2.979172 l 34.509931,-44.039019 29.88644,-38.133404 c 1.45892,-1.869233 1.45892,-4.099657 0,-5.966254 -1.46607,-1.866596 -4.08355,-2.979172 -7.00855,-2.979172"
       style="fill:#191412;fill-opacity:1;fill-rule:nonzero;stroke:none"
       id="path1608" />
    <path
       inkscape:connector-curvature="0"
       d="m 72.50447,45.283944 -49.410242,-63.045083 98.813332,0 -49.40309,63.045083 z m 64.39279,-73.245452 -128.792736,0 c -3.9905797,0 -6.4936314,3.192723 -4.4947658,5.73952 21.4690328,27.3899289 42.9309138,54.782494 64.3963698,82.175059 1.998866,2.546797 6.994242,2.546797 8.993108,0 21.465456,-27.392565 42.930914,-54.7851301 64.389214,-82.175059 2.00245,-2.546797 -0.49703,-5.73952 -4.49119,-5.73952"
       style="fill:#c13339;fill-opacity:1;fill-rule:nonzero;stroke:none"
       id="path1610" />
    <path
       inkscape:connector-curvature="0"
       d="m 72.50447,45.283944 49.40309,-63.045083 -98.813332,0 49.410242,63.045083"
       style="fill:#ffffff;fill-opacity:1;fill-rule:nonzero;stroke:none"
       id="path1612" />
    <path
       inkscape:connector-curvature="0"
       d="m 3.5740003,-65.551806 137.8502097,0 0,33.981018 -137.8502097,0 0,-33.981018 z m 138.1541497,34.431848 0.30395,0 0,-34.880042 -139.0659837,0 0,34.880042 138.7620337,0"
       style="fill:#191412;fill-opacity:1;fill-rule:nonzero;stroke:none"
       id="path1614" />
    <path
       inkscape:connector-curvature="0"
       d="m 139.6542,-35.683628 c 0,1.552861 -1.70565,2.810441 -3.80822,2.810441 l -126.6901743,0 c -2.0989877,0 -3.8082144,-1.25758 -3.8082144,-2.810441 l 0,-25.755339 c 0,-1.55286 1.7092267,-2.807803 3.8082144,-2.807803 l 126.6901743,0 c 2.10257,0 3.80822,1.254943 3.80822,2.807803 l 0,25.755339 z m -3.80822,-29.583443 -126.6901743,0 c -2.8713579,0 -5.1920445,1.71632 -5.1920445,3.828104 l 0,25.755339 c 0,2.111785 2.3206866,3.828105 5.1920445,3.828105 l 126.6901743,0 c 2.86421,0 5.19205,-1.71632 5.19205,-3.828105 l 0,-25.755339 c 0,-2.111784 -2.32784,-3.828104 -5.19205,-3.828104"
       style="fill:#191412;fill-opacity:1;fill-rule:nonzero;stroke:none"
       id="path1616" />
    <path
       inkscape:connector-curvature="0"
       d="m 117.91698,-50.732402 c -0.18952,-0.30319 -0.46843,-0.548378 -0.84389,-0.738202 -0.3683,-0.195096 -0.85819,-0.292644 -1.47322,-0.292644 -0.62576,0 -1.12637,0.09755 -1.50541,0.292644 -0.37546,0.189824 -0.66867,0.445558 -0.86891,0.76193 -0.19667,0.313736 -0.3254,0.669655 -0.38976,1.051938 -0.0644,0.390192 -0.10013,0.777748 -0.10013,1.167941 0,0.419193 0.0358,0.819931 0.10013,1.196942 0.0644,0.37701 0.18951,0.709201 0.3826,0.991299 0.1931,0.282099 0.47201,0.508832 0.84389,0.680201 0.37188,0.166095 0.86177,0.247825 1.47323,0.247825 0.65436,0 1.17285,-0.08173 1.54831,-0.247825 0.37903,-0.171369 0.6651,-0.403375 0.85819,-0.696019 0.19309,-0.292645 0.31109,-0.635381 0.36116,-1.030847 0.0536,-0.392828 0.0751,-0.817295 0.0751,-1.268125 0,-0.355919 -0.0249,-0.722383 -0.0858,-1.099394 -0.0572,-0.379646 -0.18237,-0.71711 -0.37546,-1.017664"
       style="fill:#ffffff;fill-opacity:1;fill-rule:nonzero;stroke:none"
       id="path1618" />
    <path
       inkscape:connector-curvature="0"
       d="m 135.71725,-43.055102 -2.44584,0 0,-3.353546 c 0,-0.224097 -0.0965,-0.416556 -0.29679,-0.582652 -0.20024,-0.158186 -0.43624,-0.239915 -0.708,-0.239915 -0.27534,0 -0.51134,0.08173 -0.70443,0.239915 -0.19309,0.166096 -0.28964,0.363828 -0.28964,0.593198 l 0,3.343 -2.44226,0 0,-3.343 c 0,-0.22937 -0.0965,-0.427102 -0.29679,-0.593198 -0.20025,-0.158186 -0.43625,-0.239915 -0.71159,-0.239915 -0.27533,0 -0.50776,0.08173 -0.69728,0.239915 -0.19666,0.166096 -0.29321,0.363828 -0.29321,0.593198 l 0,3.343 -2.42796,0 0,-5.65779 2.12044,0 0.24673,0.300553 c 0.14303,-0.129185 0.36831,-0.237279 0.6794,-0.324281 0.3111,-0.09228 0.61504,-0.134458 0.92255,-0.134458 0.22528,0 0.44698,0.01308 0.67225,0.05273 0.2217,0.029 0.43267,0.07646 0.62577,0.139731 0.19309,0.05537 0.35757,0.129186 0.50061,0.205642 0.14303,0.07909 0.25388,0.160823 0.32539,0.253098 0.0572,-0.09228 0.16091,-0.174004 0.30752,-0.253098 0.15018,-0.07646 0.32182,-0.150276 0.52207,-0.205642 0.19666,-0.06327 0.41836,-0.11073 0.65794,-0.139731 0.236,-0.03955 0.47916,-0.05273 0.72231,-0.05273 0.41837,0 0.80813,0.04746 1.17643,0.14764 0.36831,0.09491 0.68656,0.22937 0.95116,0.390193 0.27176,0.168731 0.48631,0.361191 0.64365,0.582652 0.15733,0.218824 0.23957,0.453467 0.23957,0.701292 l 0,3.994199 z m -14.09218,-3.427366 c -0.23958,0.696019 -0.62218,1.318218 -1.14067,1.858687 -0.51849,0.54047 -1.18717,0.972845 -1.99529,1.299763 -0.81528,0.324282 -1.78432,0.487741 -2.90712,0.487741 -1.12995,0 -2.09899,-0.163459 -2.90712,-0.487741 -0.8117,-0.326918 -1.48037,-0.756657 -1.99886,-1.289217 -0.52207,-0.540469 -0.90825,-1.152122 -1.15498,-1.845505 -0.24673,-0.690746 -0.37188,-1.413129 -0.37188,-2.156604 0,-0.743475 0.12515,-1.457949 0.37188,-2.140786 0.24673,-0.682837 0.63291,-1.28658 1.15498,-1.811231 0.51849,-0.522014 1.18358,-0.941207 1.98814,-1.252307 0.80097,-0.308463 1.75928,-0.464012 2.87136,-0.464012 1.14067,0 2.11686,0.150276 2.92857,0.453466 0.8117,0.3111 1.48395,0.719747 2.00959,1.239125 0.52564,0.519378 0.91182,1.120485 1.1514,1.795413 0.24316,0.677564 0.36473,1.386765 0.36473,2.135513 0,0.75402 -0.12157,1.47904 -0.36473,2.177695 z m -15.55825,1.080939 0,2.346427 -10.684457,0 0,-2.035328 c 0,-0.07118 0.04649,-0.152913 0.139455,-0.250461 0.09297,-0.09228 0.210972,-0.171368 0.350428,-0.237279 l 4.276644,-2.188242 c 0.28606,-0.142367 0.57212,-0.311099 0.86534,-0.498286 0.29321,-0.19246 0.55425,-0.395465 0.79025,-0.619562 0.236,-0.218825 0.42909,-0.45874 0.5757,-0.711838 0.15376,-0.261007 0.22885,-0.527287 0.22885,-0.817295 0,-0.435012 -0.19309,-0.785658 -0.57928,-1.033483 -0.38618,-0.255734 -0.87607,-0.37701 -1.47322,-0.37701 -0.41479,0 -0.754493,0.05537 -1.026253,0.179278 -0.27176,0.116003 -0.493459,0.282098 -0.665097,0.490377 -0.168062,0.200369 -0.293214,0.429739 -0.371882,0.690746 -0.08224,0.253097 -0.118001,0.519377 -0.118001,0.796203 l -3.568636,0 c 0,-0.706565 0.114425,-1.339309 0.354003,-1.906143 0.232426,-0.566833 0.590005,-1.054574 1.076312,-1.457949 0.482732,-0.406011 1.090616,-0.711837 1.820076,-0.925388 0.72231,-0.216188 1.576923,-0.326918 2.560268,-0.326918 0.84388,0 1.6091,0.09227 2.30996,0.276825 0.69727,0.181914 1.29443,0.448194 1.79504,0.793567 0.49704,0.34801 0.8868,0.76984 1.16213,1.268126 0.27891,0.498286 0.41837,1.06512 0.41837,1.695228 0,0.656472 -0.21097,1.25758 -0.62934,1.79014 -0.42194,0.535196 -0.95831,1.0203 -1.61626,1.450039 l -2.43511,1.608226 4.44471,0 z m -14.049274,0.540469 c -0.264608,0.456104 -0.629339,0.833114 -1.097767,1.131031 -0.47558,0.30319 -1.036979,0.524651 -1.691348,0.674927 -0.654369,0.142368 -1.373102,0.218825 -2.159776,0.218825 -0.622187,0 -1.27298,-0.04218 -1.941653,-0.134459 -0.672248,-0.08964 -1.298011,-0.261007 -1.880864,-0.511468 -0.582854,-0.253098 -1.101343,-0.60638 -1.548317,-1.062484 -0.446973,-0.458739 -0.758067,-1.059847 -0.929705,-1.800685 l 3.457788,-0.398102 c 0.07152,0.305827 0.18594,0.556288 0.346851,0.743475 0.153759,0.187187 0.346851,0.3401 0.575702,0.45083 0.225275,0.108094 0.489883,0.181915 0.779522,0.218825 0.289639,0.03164 0.600732,0.05273 0.926129,0.05273 0.243153,0 0.479155,-0.02109 0.708006,-0.05273 0.225275,-0.03691 0.436246,-0.100185 0.622187,-0.181914 0.178789,-0.08437 0.328973,-0.197733 0.436246,-0.337464 0.107274,-0.145004 0.160911,-0.319009 0.160911,-0.524651 0,-0.300553 -0.114426,-0.527287 -0.343276,-0.682837 -0.22885,-0.155549 -0.507762,-0.26628 -0.833159,-0.3401 -0.325396,-0.06591 -0.675824,-0.105457 -1.047706,-0.108094 -0.371882,-0.0053 -0.697278,0 -0.983341,0.008 l 0,-2.235697 c 0.300366,0 0.625763,0 0.983341,-0.01055 0.354003,-0.0053 0.686552,-0.03691 0.990494,-0.108094 0.307518,-0.06591 0.564974,-0.179277 0.77237,-0.3401 0.207396,-0.15555 0.311094,-0.379647 0.311094,-0.674928 0,-0.197732 -0.05721,-0.363828 -0.160911,-0.495649 -0.107274,-0.131822 -0.250305,-0.234643 -0.429094,-0.305827 -0.175214,-0.07382 -0.375458,-0.123912 -0.597157,-0.160823 -0.221699,-0.03427 -0.439822,-0.04482 -0.650794,-0.04482 -0.700854,0 -1.27298,0.11073 -1.719954,0.3401 -0.450549,0.224097 -0.675824,0.590562 -0.675824,1.107303 l -3.522151,-0.361191 c 0.05721,-0.587926 0.27176,-1.096758 0.647218,-1.53177 0.379033,-0.440284 0.854613,-0.806749 1.423163,-1.096757 0.568551,-0.29528 1.201465,-0.514105 1.891592,-0.651199 0.690127,-0.142368 1.369527,-0.216188 2.041775,-0.216188 0.697279,0 1.373103,0.06855 2.031048,0.208278 0.654369,0.131822 1.237223,0.342737 1.744985,0.627472 0.518489,0.282099 0.929705,0.632745 1.233647,1.059847 0.307517,0.424466 0.461276,0.925389 0.461276,1.492223 0,0.490377 -0.128728,0.938571 -0.371882,1.341945 -0.253881,0.403375 -0.657945,0.743475 -1.212192,1.017664 0.629339,0.168732 1.058433,0.445558 1.294435,0.827841 0.232427,0.38492 0.354004,0.79884 0.354004,1.249671 0,0.609016 -0.132305,1.13894 -0.396913,1.59768 z M 68.35298,-48.987081 c -0.261033,0.437648 -0.607884,0.817295 -1.047706,1.133667 -0.439822,0.321645 -0.958312,0.574743 -1.551892,0.76193 -0.590005,0.189823 -1.219344,0.287371 -1.891592,0.287371 l -3.182452,0 0,3.749011 -3.590091,0 0,-11.007118 6.772543,0 c 0.672248,0 1.301587,0.100185 1.891592,0.292644 0.59358,0.189824 1.11207,0.456104 1.551892,0.785658 0.439822,0.329555 0.786673,0.717111 1.047706,1.173214 0.253881,0.453467 0.382609,0.930662 0.382609,1.431585 0,0.493013 -0.128728,0.957026 -0.382609,1.392038 z M 52.955636,-46.3401 c -0.364731,0.698655 -0.868917,1.307672 -1.51971,1.82705 -0.650794,0.522014 -1.430316,0.928025 -2.342142,1.225942 -0.90825,0.30319 -1.905895,0.450831 -2.989359,0.450831 -1.065585,0 -2.052502,-0.147641 -2.946449,-0.450831 -0.901099,-0.297917 -1.680621,-0.703928 -2.342141,-1.225942 -0.661521,-0.519378 -1.180011,-1.128395 -1.551893,-1.82705 -0.368306,-0.693383 -0.550671,-1.439494 -0.550671,-2.227788 0,-0.788294 0.189517,-1.531769 0.572126,-2.227788 0.389761,-0.698656 0.911826,-1.305036 1.584074,-1.819141 0.668673,-0.514105 1.45177,-0.920116 2.349293,-1.218033 0.897523,-0.30319 1.85941,-0.45083 2.885661,-0.45083 1.083464,0 2.081109,0.14764 2.989359,0.45083 0.911826,0.297917 1.691348,0.706565 2.342142,1.228579 0.650793,0.519378 1.154979,1.123122 1.51971,1.816504 0.36473,0.693383 0.543519,1.431585 0.543519,2.219879 0,0.788294 -0.178789,1.534405 -0.543519,2.227788 z m -16.037411,-5.375692 -4.42325,0 0,8.66069 -3.379119,0 0,-8.66069 -4.444705,0 0,-2.346428 12.247074,0 0,2.346428 z m -14.54273,6.699182 c -0.336124,0.435012 -0.790249,0.814659 -1.369527,1.136304 -0.575702,0.316372 -1.255102,0.56947 -2.041775,0.759294 -0.783098,0.18455 -1.616256,0.284735 -2.4959,0.284735 -0.643642,0 -1.31589,-0.06064 -2.023897,-0.181914 -0.70443,-0.123913 -1.380254,-0.287372 -2.027471,-0.50356 -0.650794,-0.216187 -1.247951,-0.464012 -1.795046,-0.748747 -0.547096,-0.284735 -0.9940692,-0.585289 -1.3337691,-0.912207 l 2.7962661,-1.637226 c 0.27176,0.187186 0.615036,0.366464 1.026251,0.537832 0.411216,0.160823 0.851038,0.3111 1.315891,0.432376 0.461276,0.118639 0.936856,0.216188 1.430315,0.290008 0.489883,0.07382 0.95116,0.108094 1.380254,0.108094 0.325397,0 0.629339,-0.07118 0.90825,-0.203006 0.278912,-0.137095 0.454125,-0.297917 0.525641,-0.493013 0.06794,-0.174005 0.01774,-0.353283 -0.153759,-0.53256 -0.168062,-0.179278 -0.40764,-0.300554 -0.70443,-0.358556 l -3.486394,-0.740838 c -0.536368,-0.121276 -1.040554,-0.282099 -1.501831,-0.503559 -0.464852,-0.221461 -0.876068,-0.471922 -1.230071,-0.746111 -0.357579,-0.282099 -0.632914,-0.582653 -0.833158,-0.901661 -0.200245,-0.319009 -0.296791,-0.635381 -0.296791,-0.949117 0,-0.474559 0.146608,-0.912207 0.446974,-1.323491 0.29679,-0.411284 0.70443,-0.772475 1.226495,-1.080938 0.522065,-0.3111 1.126373,-0.553652 1.816501,-0.732929 0.690127,-0.174005 1.430315,-0.26628 2.209837,-0.26628 0.529216,0 1.101342,0.04745 1.712802,0.142367 0.61146,0.09227 1.219344,0.221461 1.812925,0.382283 0.600732,0.150277 1.169283,0.337464 1.712802,0.545742 0.539944,0.210915 1.008373,0.435012 1.387406,0.680201 l -2.392202,1.666227 c -0.296791,-0.129185 -0.625763,-0.245189 -0.983342,-0.358555 -0.354003,-0.121276 -0.711582,-0.221461 -1.065585,-0.308463 -0.357579,-0.09228 -0.697278,-0.163459 -1.015524,-0.218824 -0.325396,-0.04746 -0.59358,-0.07646 -0.826007,-0.07646 -0.425519,0 -0.822431,0.07382 -1.183586,0.213551 -0.36473,0.145004 -0.582853,0.3111 -0.654369,0.511469 -0.07152,0.179277 0.0143,0.366464 0.24673,0.553651 0.236002,0.189824 0.557822,0.326918 0.972614,0.408648 l 3.486393,0.738202 c 0.482732,0.105457 0.936857,0.263643 1.365952,0.464012 0.425518,0.208279 0.7974,0.445558 1.108494,0.714474 0.314669,0.276826 0.561399,0.56947 0.74734,0.877933 0.185941,0.313736 0.278911,0.624836 0.278911,0.933299 0,0.49565 -0.168062,0.959662 -0.50061,1.39731 z m 113.470485,-19.23016 -126.6901743,0 c -2.0989877,0 -3.8082144,1.254943 -3.8082144,2.807803 l 0,25.755339 c 0,1.552861 1.7092267,2.810441 3.8082144,2.810441 l 126.6901743,0 c 2.10257,0 3.80822,-1.25758 3.80822,-2.810441 l 0,-25.755339 c 0,-1.55286 -1.70565,-2.807803 -3.80822,-2.807803"
       style="fill:#ffffff;fill-opacity:1;fill-rule:nonzero;stroke:none"
       id="path1620" />
    <path
       inkscape:connector-curvature="0"
       d="m 64.684221,-51.523332 c -0.146607,-0.123913 -0.328973,-0.232007 -0.532793,-0.305827 -0.207395,-0.06855 -0.421943,-0.11073 -0.650793,-0.11073 l -2.821297,0 0,2.881624 2.821297,0 c 0.457701,0 0.847462,-0.139731 1.176434,-0.42183 0.325397,-0.284735 0.489883,-0.627472 0.489883,-1.022937 0,-0.203005 -0.04291,-0.384919 -0.128728,-0.561561 -0.08582,-0.174004 -0.20382,-0.324281 -0.354003,-0.458739"
       style="fill:#ffffff;fill-opacity:1;fill-rule:nonzero;stroke:none"
       id="path1622" />
    <path
       inkscape:connector-curvature="0"
       d="m 48.646811,-50.848405 c -0.325397,-0.297917 -0.704431,-0.527287 -1.140677,-0.706565 -0.436246,-0.168732 -0.901098,-0.255734 -1.401709,-0.255734 -0.497034,0 -0.965462,0.087 -1.398133,0.255734 -0.43267,0.179278 -0.81528,0.408648 -1.144252,0.706565 -0.328973,0.295281 -0.586429,0.632745 -0.779522,1.02821 -0.193092,0.392829 -0.289639,0.812022 -0.289639,1.252307 0,0.448194 0.09655,0.87266 0.289639,1.265489 0.193093,0.392829 0.450549,0.738202 0.779522,1.038755 0.328972,0.292645 0.711582,0.519378 1.144252,0.685474 0.432671,0.171368 0.901099,0.255734 1.398133,0.255734 0.500611,0 0.965463,-0.08437 1.401709,-0.255734 0.436246,-0.166096 0.81528,-0.392829 1.140677,-0.685474 0.325396,-0.300553 0.586429,-0.645926 0.783097,-1.038755 0.189517,-0.392829 0.286063,-0.817295 0.286063,-1.265489 0,-0.440285 -0.09655,-0.859478 -0.286063,-1.252307 -0.196668,-0.395465 -0.457701,-0.732929 -0.783097,-1.02821"
       style="fill:#ffffff;fill-opacity:1;fill-rule:nonzero;stroke:none"
       id="path1624" />
    <path
       inkscape:connector-curvature="0"
       d="m 21.849854,-48.225152 c -0.311094,-0.268916 -0.682976,-0.506195 -1.108494,-0.714474 -0.429095,-0.200369 -0.88322,-0.358555 -1.365952,-0.464012 l -3.486393,-0.738202 c -0.414792,-0.08173 -0.736612,-0.218824 -0.972614,-0.408648 -0.232427,-0.187187 -0.318246,-0.374374 -0.24673,-0.553651 0.07152,-0.200369 0.289639,-0.366465 0.654369,-0.511469 0.361155,-0.139731 0.758067,-0.213551 1.183586,-0.213551 0.232427,0 0.500611,0.029 0.826007,0.07646 0.318246,0.05537 0.657945,0.126549 1.015524,0.218824 0.354003,0.087 0.711582,0.187187 1.065585,0.308463 0.357579,0.113366 0.686551,0.22937 0.983342,0.358555 l 2.392202,-1.666227 c -0.379033,-0.245189 -0.847462,-0.469286 -1.387406,-0.680201 -0.543519,-0.208278 -1.11207,-0.395465 -1.712802,-0.545742 -0.593581,-0.160822 -1.201465,-0.290008 -1.812925,-0.382283 -0.61146,-0.09491 -1.183586,-0.142367 -1.712802,-0.142367 -0.779522,0 -1.51971,0.09227 -2.209837,0.26628 -0.690128,0.179277 -1.294436,0.421829 -1.816501,0.732929 -0.522065,0.308463 -0.929705,0.669654 -1.226495,1.080938 -0.300366,0.411284 -0.446974,0.848932 -0.446974,1.323491 0,0.313736 0.09655,0.630108 0.296791,0.949117 0.200244,0.319008 0.475579,0.619562 0.833158,0.901661 0.354003,0.274189 0.765219,0.52465 1.230071,0.746111 0.461277,0.22146 0.965463,0.382283 1.501831,0.503559 l 3.486394,0.740838 c 0.29679,0.058 0.536368,0.179278 0.70443,0.358556 0.171638,0.179277 0.221699,0.358555 0.153759,0.53256 -0.07152,0.195096 -0.246729,0.355918 -0.525641,0.493013 -0.278911,0.131822 -0.582853,0.203006 -0.90825,0.203006 -0.429094,0 -0.890371,-0.03427 -1.380254,-0.108094 -0.493459,-0.07382 -0.969039,-0.171369 -1.430315,-0.290008 -0.464853,-0.121276 -0.904675,-0.271553 -1.315891,-0.432376 -0.411215,-0.171368 -0.754491,-0.350646 -1.026251,-0.537832 l -2.7962661,1.637226 c 0.3396999,0.326918 0.7866731,0.627472 1.3337691,0.912207 0.547095,0.284735 1.144252,0.53256 1.795046,0.748747 0.647217,0.216188 1.323041,0.379647 2.027471,0.50356 0.708007,0.121276 1.380255,0.181914 2.023897,0.181914 0.879644,0 1.712802,-0.100185 2.4959,-0.284735 0.786673,-0.189824 1.466073,-0.442922 2.041775,-0.759294 0.579278,-0.321645 1.033403,-0.701292 1.369527,-1.136304 0.332548,-0.437648 0.50061,-0.90166 0.50061,-1.39731 0,-0.308463 -0.09297,-0.619563 -0.278911,-0.933299 -0.185941,-0.308463 -0.432671,-0.601107 -0.74734,-0.877933"
       style="fill:#191412;fill-opacity:1;fill-rule:nonzero;stroke:none"
       id="path1626" />
    <path
       inkscape:connector-curvature="0"
       d="m 24.671151,-51.715792 4.444705,0 0,8.66069 3.379119,0 0,-8.66069 4.42325,0 0,-2.346428 -12.247074,0 0,2.346428"
       style="fill:#191412;fill-opacity:1;fill-rule:nonzero;stroke:none"
       id="path1628" />
    <path
       inkscape:connector-curvature="0"
       d="m 49.429908,-47.302399 c -0.196668,0.392829 -0.457701,0.738202 -0.783097,1.038755 -0.325397,0.292645 -0.704431,0.519378 -1.140677,0.685474 -0.436246,0.171368 -0.901098,0.255734 -1.401709,0.255734 -0.497034,0 -0.965462,-0.08437 -1.398133,-0.255734 -0.43267,-0.166096 -0.81528,-0.392829 -1.144252,-0.685474 -0.328973,-0.300553 -0.586429,-0.645926 -0.779522,-1.038755 -0.193092,-0.392829 -0.289639,-0.817295 -0.289639,-1.265489 0,-0.440285 0.09655,-0.859478 0.289639,-1.252307 0.193093,-0.395465 0.450549,-0.732929 0.779522,-1.02821 0.328972,-0.297917 0.711582,-0.527287 1.144252,-0.706565 0.432671,-0.168732 0.901099,-0.255734 1.398133,-0.255734 0.500611,0 0.965463,0.087 1.401709,0.255734 0.436246,0.179278 0.81528,0.408648 1.140677,0.706565 0.325396,0.295281 0.586429,0.632745 0.783097,1.02821 0.189517,0.392829 0.286063,0.812022 0.286063,1.252307 0,0.448194 -0.09655,0.87266 -0.286063,1.265489 z m 2.006018,-5.301872 c -0.650794,-0.522014 -1.430316,-0.930662 -2.342142,-1.228579 -0.90825,-0.30319 -1.905895,-0.45083 -2.989359,-0.45083 -1.026251,0 -1.988138,0.14764 -2.885661,0.45083 -0.897523,0.297917 -1.68062,0.703928 -2.349293,1.218033 -0.672248,0.514105 -1.194313,1.120485 -1.584074,1.819141 -0.382609,0.696019 -0.572126,1.439494 -0.572126,2.227788 0,0.788294 0.182365,1.534405 0.550671,2.227788 0.371882,0.698655 0.890372,1.307672 1.551893,1.82705 0.66152,0.522014 1.441042,0.928025 2.342141,1.225942 0.893947,0.30319 1.880864,0.450831 2.946449,0.450831 1.083464,0 2.081109,-0.147641 2.989359,-0.450831 0.911826,-0.297917 1.691348,-0.703928 2.342142,-1.225942 0.650793,-0.519378 1.154979,-1.128395 1.51971,-1.82705 0.36473,-0.693383 0.543519,-1.439494 0.543519,-2.227788 0,-0.788294 -0.178789,-1.526496 -0.543519,-2.219879 -0.364731,-0.693382 -0.868917,-1.297126 -1.51971,-1.816504"
       style="fill:#191412;fill-opacity:1;fill-rule:nonzero;stroke:none"
       id="path1630" />
    <path
       inkscape:connector-curvature="0"
       d="m 64.677069,-49.480095 c -0.328972,0.282099 -0.718733,0.42183 -1.176434,0.42183 l -2.821297,0 0,-2.881624 2.821297,0 c 0.22885,0 0.443398,0.04218 0.650793,0.11073 0.20382,0.07382 0.386186,0.181914 0.532793,0.305827 0.150183,0.134458 0.268184,0.284735 0.354003,0.458739 0.08582,0.176642 0.128728,0.358556 0.128728,0.561561 0,0.395465 -0.164486,0.738202 -0.489883,1.022937 z m 2.628205,-3.503823 c -0.439822,-0.329554 -0.958312,-0.595834 -1.551892,-0.785658 -0.590005,-0.192459 -1.219344,-0.292644 -1.891592,-0.292644 l -6.772543,0 0,11.007118 3.590091,0 0,-3.749011 3.182452,0 c 0.672248,0 1.301587,-0.09755 1.891592,-0.287371 0.59358,-0.187187 1.11207,-0.440285 1.551892,-0.76193 0.439822,-0.316372 0.786673,-0.696019 1.047706,-1.133667 0.253881,-0.435012 0.382609,-0.899025 0.382609,-1.392038 0,-0.500923 -0.128728,-0.978118 -0.382609,-1.431585 -0.261033,-0.456103 -0.607884,-0.843659 -1.047706,-1.173214"
       style="fill:#191412;fill-opacity:1;fill-rule:nonzero;stroke:none"
       id="path1632" />
    <path
       inkscape:connector-curvature="0"
       d="m 90.76602,-48.536251 c 0.554247,-0.274189 0.958311,-0.614289 1.212192,-1.017664 0.243154,-0.403375 0.371882,-0.851569 0.371882,-1.341946 0,-0.566833 -0.153759,-1.067756 -0.461276,-1.492222 -0.303942,-0.427103 -0.715158,-0.777749 -1.233647,-1.059847 -0.507762,-0.284735 -1.090616,-0.49565 -1.744985,-0.627472 -0.657945,-0.139731 -1.333769,-0.208278 -2.031048,-0.208278 -0.672248,0 -1.351648,0.07382 -2.041775,0.216187 -0.690127,0.137095 -1.323041,0.355919 -1.891592,0.6512 -0.56855,0.290008 -1.04413,0.656472 -1.423163,1.096757 -0.375458,0.435012 -0.590005,0.943844 -0.647218,1.531769 l 3.522151,0.361192 c 0,-0.516742 0.225275,-0.883206 0.675824,-1.107303 0.446974,-0.22937 1.0191,-0.3401 1.719954,-0.3401 0.210972,0 0.429095,0.01055 0.650794,0.04482 0.221699,0.03691 0.421943,0.087 0.597157,0.160823 0.178789,0.07118 0.32182,0.174004 0.429094,0.305826 0.103698,0.131822 0.160911,0.297917 0.160911,0.49565 0,0.295281 -0.103698,0.519378 -0.311094,0.674927 -0.207396,0.160823 -0.464852,0.27419 -0.77237,0.340101 -0.303942,0.07118 -0.636491,0.102821 -0.990494,0.108094 -0.357578,0.01055 -0.682975,0.01055 -0.983341,0.01055 l 0,2.235698 c 0.286063,-0.008 0.611459,-0.01329 0.983341,-0.008 0.371882,0.0027 0.72231,0.04218 1.047706,0.108094 0.325397,0.07382 0.604309,0.18455 0.833159,0.3401 0.22885,0.15555 0.343276,0.382283 0.343276,0.682837 0,0.205642 -0.05364,0.379646 -0.160911,0.52465 -0.107273,0.139731 -0.257457,0.253098 -0.436246,0.337464 -0.185941,0.08173 -0.396912,0.145004 -0.622187,0.181914 -0.228851,0.03164 -0.464853,0.05273 -0.708006,0.05273 -0.325397,0 -0.63649,-0.02109 -0.926129,-0.05273 -0.289639,-0.03691 -0.554247,-0.11073 -0.779522,-0.218824 -0.228851,-0.11073 -0.421943,-0.263644 -0.575702,-0.45083 -0.160911,-0.187187 -0.275336,-0.437649 -0.346851,-0.743475 l -3.457788,0.398101 c 0.171638,0.740839 0.482732,1.341946 0.929705,1.800686 0.446974,0.456103 0.965463,0.809386 1.548317,1.062483 0.582853,0.250462 1.208616,0.42183 1.880864,0.511469 0.668673,0.09228 1.319466,0.134458 1.941653,0.134458 0.786674,0 1.505407,-0.07646 2.159776,-0.218824 0.654369,-0.150277 1.215768,-0.371737 1.691348,-0.674927 0.468428,-0.297918 0.833159,-0.674928 1.097767,-1.131031 0.264608,-0.45874 0.396913,-0.988664 0.396913,-1.59768 0,-0.450831 -0.121577,-0.864751 -0.354004,-1.249671 -0.236002,-0.382283 -0.665096,-0.659109 -1.294435,-0.82784"
       style="fill:#191412;fill-opacity:1;fill-rule:nonzero;stroke:none"
       id="path1634" />
    <path
       inkscape:connector-curvature="0"
       d="m 105.67348,-48.459794 c 0.41837,-0.53256 0.62934,-1.133668 0.62934,-1.79014 0,-0.630108 -0.13946,-1.196942 -0.41837,-1.695228 -0.27533,-0.498286 -0.66509,-0.920116 -1.16213,-1.268126 -0.50061,-0.345373 -1.09777,-0.611653 -1.79504,-0.793567 -0.70086,-0.18455 -1.46608,-0.276825 -2.30996,-0.276825 -0.983345,0 -1.837958,0.11073 -2.560268,0.326918 -0.72946,0.213551 -1.337344,0.519377 -1.820076,0.925388 -0.486307,0.403375 -0.843886,0.891116 -1.076312,1.457949 -0.239578,0.566834 -0.354003,1.199578 -0.354003,1.906143 l 3.568636,0 c 0,-0.276826 0.03576,-0.543106 0.118001,-0.796203 0.07867,-0.261007 0.20382,-0.490377 0.371882,-0.690746 0.171638,-0.208279 0.393337,-0.374374 0.665097,-0.490377 0.27176,-0.123913 0.611463,-0.179278 1.026253,-0.179278 0.59715,0 1.08704,0.121276 1.47322,0.37701 0.38619,0.247825 0.57928,0.598471 0.57928,1.033483 0,0.290008 -0.0751,0.556288 -0.22885,0.817295 -0.14661,0.253098 -0.3397,0.493013 -0.5757,0.711838 -0.236,0.224097 -0.49704,0.427102 -0.79025,0.619562 -0.29322,0.187187 -0.57928,0.355919 -0.86534,0.498286 l -4.276644,2.188242 c -0.139456,0.06591 -0.257457,0.145004 -0.350428,0.237279 -0.09297,0.09755 -0.139455,0.179278 -0.139455,0.250461 l 0,2.035328 10.684457,0 0,-2.346427 -4.44471,0 2.43511,-1.608226 c 0.65795,-0.429739 1.19432,-0.914843 1.61626,-1.450039"
       style="fill:#191412;fill-opacity:1;fill-rule:nonzero;stroke:none"
       id="path1636" />
    <path
       inkscape:connector-curvature="0"
       d="m 118.30317,-47.347219 c -0.0501,0.395466 -0.16807,0.738202 -0.36116,1.030847 -0.19309,0.292644 -0.47916,0.52465 -0.85819,0.696019 -0.37546,0.166095 -0.89395,0.247825 -1.54831,0.247825 -0.61146,0 -1.10135,-0.08173 -1.47323,-0.247825 -0.37188,-0.171369 -0.65079,-0.398102 -0.84389,-0.680201 -0.19309,-0.282098 -0.31824,-0.614289 -0.3826,-0.991299 -0.0644,-0.377011 -0.10013,-0.777749 -0.10013,-1.196942 0,-0.390193 0.0358,-0.777749 0.10013,-1.167941 0.0644,-0.382283 0.19309,-0.738202 0.38976,-1.051938 0.20024,-0.316372 0.49345,-0.572106 0.86891,-0.76193 0.37904,-0.195096 0.87965,-0.292644 1.50541,-0.292644 0.61503,0 1.10492,0.09755 1.47322,0.292644 0.37546,0.189824 0.65437,0.435012 0.84389,0.738202 0.19309,0.300554 0.31825,0.638018 0.37546,1.017664 0.0608,0.377011 0.0858,0.743475 0.0858,1.099394 0,0.45083 -0.0215,0.875297 -0.0751,1.268125 z m 2.1705,-5.24387 c -0.52564,-0.519378 -1.19789,-0.928025 -2.00959,-1.239125 -0.81171,-0.30319 -1.7879,-0.453466 -2.92857,-0.453466 -1.11208,0 -2.07039,0.155549 -2.87136,0.464012 -0.80456,0.3111 -1.46965,0.730293 -1.98814,1.252307 -0.52207,0.524651 -0.90825,1.128394 -1.15498,1.811231 -0.24673,0.682837 -0.37188,1.397311 -0.37188,2.140786 0,0.743475 0.12515,1.465858 0.37188,2.156604 0.24673,0.693383 0.63291,1.305036 1.15498,1.845505 0.51849,0.53256 1.18716,0.962299 1.99886,1.289217 0.80813,0.324282 1.77717,0.487741 2.90712,0.487741 1.1228,0 2.09184,-0.163459 2.90712,-0.487741 0.80812,-0.326918 1.4768,-0.759293 1.99529,-1.299763 0.51849,-0.540469 0.90109,-1.162668 1.14067,-1.858687 0.24316,-0.698655 0.36473,-1.423675 0.36473,-2.177695 0,-0.748748 -0.12157,-1.457949 -0.36473,-2.135513 -0.23958,-0.674928 -0.62576,-1.276035 -1.1514,-1.795413"
       style="fill:#191412;fill-opacity:1;fill-rule:nonzero;stroke:none"
       id="path1638" />
    <path
       inkscape:connector-curvature="0"
       d="m 134.83403,-48.333245 c -0.2646,-0.160823 -0.58285,-0.295281 -0.95116,-0.390193 -0.3683,-0.100184 -0.75806,-0.14764 -1.17643,-0.14764 -0.24315,0 -0.48631,0.01308 -0.72231,0.05273 -0.23958,0.029 -0.46128,0.07646 -0.65794,0.139731 -0.20025,0.05537 -0.37189,0.129186 -0.52207,0.205642 -0.14661,0.07909 -0.2503,0.160823 -0.30752,0.253098 -0.0715,-0.09228 -0.18236,-0.174004 -0.32539,-0.253098 -0.14304,-0.07646 -0.30752,-0.150276 -0.50061,-0.205642 -0.1931,-0.06327 -0.40407,-0.11073 -0.62577,-0.139731 -0.22527,-0.03955 -0.44697,-0.05273 -0.67225,-0.05273 -0.30751,0 -0.61145,0.04218 -0.92255,0.134458 -0.31109,0.087 -0.53637,0.195096 -0.6794,0.324281 l -0.24673,-0.300553 -2.12044,0 0,5.65779 2.42796,0 0,-3.343 c 0,-0.22937 0.0966,-0.427102 0.29321,-0.593198 0.18952,-0.158186 0.42195,-0.239915 0.69728,-0.239915 0.27534,0 0.51134,0.08173 0.71159,0.239915 0.20024,0.166096 0.29679,0.363828 0.29679,0.593198 l 0,3.343 2.44226,0 0,-3.343 c 0,-0.22937 0.0966,-0.427102 0.28964,-0.593198 0.19309,-0.158186 0.42909,-0.239915 0.70443,-0.239915 0.27176,0 0.50776,0.08173 0.708,0.239915 0.20025,0.166096 0.29679,0.358555 0.29679,0.582652 l 0,3.353546 2.44584,0 0,-3.994199 c 0,-0.247825 -0.0822,-0.482468 -0.23957,-0.701292 -0.15734,-0.221461 -0.37189,-0.413921 -0.64365,-0.582652"
       style="fill:#191412;fill-opacity:1;fill-rule:nonzero;stroke:none"
       id="path1640" />
  </g>
</svg>
