<?xml version="1.0" encoding="UTF-8" standalone="no"?>
<!-- Created with Inkscape (http://www.inkscape.org/) -->

<svg
   xmlns:dc="http://purl.org/dc/elements/1.1/"
   xmlns:cc="http://creativecommons.org/ns#"
   xmlns:rdf="http://www.w3.org/1999/02/22-rdf-syntax-ns#"
   xmlns:svg="http://www.w3.org/2000/svg"
   xmlns="http://www.w3.org/2000/svg"
   xmlns:sodipodi="http://sodipodi.sourceforge.net/DTD/sodipodi-0.dtd"
   xmlns:inkscape="http://www.inkscape.org/namespaces/inkscape"
   id="svg2993"
   version="1.1"
   preserveAspectRatio="xMinYMin meet"
   viewBox="0 0 145 130"
   inkscape:version="0.48.3.1 r9886"
   sodipodi:docname="cod_1.svg"
   width="100%"
   height="100%">
  <defs
     id="defs2995" />
  <sodipodi:namedview
     id="base"
     pagecolor="#ffffff"
     bordercolor="#666666"
     borderopacity="1.0"
     inkscape:pageopacity="0.0"
     inkscape:pageshadow="2"
     inkscape:zoom="0.6875"
     inkscape:cx="149.35224"
     inkscape:cy="-41.797995"
     inkscape:current-layer="layer1"
     showgrid="true"
     inkscape:document-units="px"
     inkscape:grid-bbox="true"
     inkscape:window-width="1366"
     inkscape:window-height="692"
     inkscape:window-x="0"
     inkscape:window-y="24"
     inkscape:window-maximized="1" />
  <metadata
     id="metadata2998">
    <rdf:RDF>
      <cc:Work
         rdf:about="">
        <dc:format>image/svg+xml</dc:format>
        <dc:type
           rdf:resource="http://purl.org/dc/dcmitype/StillImage" />
        <dc:title></dc:title>
      </cc:Work>
    </rdf:RDF>
  </metadata>
  <g
     id="layer1"
     inkscape:label="Layer 1"
     inkscape:groupmode="layer"
     transform="translate(0,66)">
    <path
       inkscape:connector-curvature="0"
       d="m 72.726893,-26.475728 0.200875,-2.549973 -6.656233,-36.069625 6.455522,38.619598"
       style="fill:#f3d998;fill-opacity:1;fill-rule:nonzero;stroke:none"
       id="path122" />
    <path
       inkscape:connector-curvature="0"
       d="M 129.5486,55.95257 72.817009,27.95637 15.804426,56.224507 11.86967,48.12879 61.65092,22.776182 11.417046,-2.3178633 15.466904,-11.483497 72.657259,17.00308 129.3315,-12.410759 133.46861,-3.6418861 83.524328,22.192185 133.39897,47.451177 129.5486,55.95257 z m 13.46813,1.1992 L 140.00605,46.956339 90.827752,22.134233 140.174,-3.6106813 142.66035,-13.841775 133.3703,-18.504837 72.628585,13.253908 11.250743,-17.354675 1.9430756,-12.491004 4.6166288,-2.0191775 54.240997,22.798472 4.8329053,47.856853 2.3686648,57.807095 11.436298,62.064479 72.8252,31.674338 l 60.7499,29.930967 9.44163,-4.453535"
       style="fill:#c13339;fill-opacity:1;fill-rule:nonzero;stroke:none"
       id="path854" />
    <path
       inkscape:connector-curvature="0"
       d="m 72.911219,33.185597 -0.08618,-0.04012 -0.09012,0.04012 L 11.445556,63.522243 0.90617779,58.578328 3.7955979,46.907302 50.902475,23.012457 51.316187,22.802937 50.902475,22.593417 3.5830079,-1.0740701 0.48345577,-13.208726 11.237472,-18.834714 l 61.28445,30.572918 0.09012,0.04459 0.09438,-0.04903 60.651596,-31.714167 10.74829,5.394173 -2.88369,11.9117586 -47.113847,24.5858344 -0.405518,0.209519 0.409614,0.200612 46.896751,23.671946 3.51039,11.902841 -10.95718,5.171273 -60.6516,-29.88193 z m 68.475231,12.567084 -0.0294,-0.09361 -0.082,-0.04012 -46.581348,-23.502543 46.798438,-24.4208884 0.0861,-0.044587 0.0229,-0.1069924 2.96151,-12.192612 0.041,-0.191701 -0.15567,-0.08024 -11.00634,-5.518995 -0.0944,-0.04903 -0.0862,0.04903 -60.655688,31.709708 -61.28568,-30.564005 -0.08783,-0.04903 -0.08809,0.04903 -11.00551934,5.75527 -0.15811115,0.08471 0.04463158,0.187237 3.17614971,12.42442713 0.024249,0.10252736 0.089296,0.0445872 46.9915509,23.5025293 -46.7800062,23.7299 -0.088084,0.04012 -0.028509,0.106992 -2.96356001,11.969712 -0.0512182,0.187237 0.1712188,0.08024 10.7990733,5.068738 0.08481,0.04012 0.08477,-0.04012 61.288138,-30.341104 60.651602,29.877472 0.0862,0.04012 0.0862,-0.04012 11.21524,-5.291637 0.17597,-0.08024 -0.0573,-0.200611 -3.5964,-12.201528"
       style="fill:#191412;fill-opacity:1;fill-rule:nonzero;stroke:none"
       id="path856" />
    <path
       inkscape:connector-curvature="0"
       d="M 133.46861,-3.6418861 129.3315,-12.410759 72.657259,17.00308 15.466904,-11.483497 11.417046,-2.3178633 61.65092,22.776182 11.86967,48.12879 15.804426,56.224507 72.817009,27.95637 129.5486,55.95257 133.39897,47.451177 83.524328,22.192185 133.46861,-3.6418861"
       style="fill:#ffffff;fill-opacity:1;fill-rule:nonzero;stroke:none"
       id="path858" />
  </g>
</svg>
