<?xml version="1.0" encoding="UTF-8" standalone="no"?>
<!-- Created with Inkscape (http://www.inkscape.org/) -->

<svg
   xmlns:dc="http://purl.org/dc/elements/1.1/"
   xmlns:cc="http://creativecommons.org/ns#"
   xmlns:rdf="http://www.w3.org/1999/02/22-rdf-syntax-ns#"
   xmlns:svg="http://www.w3.org/2000/svg"
   xmlns="http://www.w3.org/2000/svg"
   xmlns:sodipodi="http://sodipodi.sourceforge.net/DTD/sodipodi-0.dtd"
   xmlns:inkscape="http://www.inkscape.org/namespaces/inkscape"
   id="svg2993"
   version="1.1"
   preserveAspectRatio="xMinYMin meet"
   viewBox="0 0 145 130"
   inkscape:version="0.48.3.1 r9886"
   sodipodi:docname="cod_1.svg"
   width="100%"
   height="100%">
  <defs
     id="defs2995" />
  <sodipodi:namedview
     id="base"
     pagecolor="#ffffff"
     bordercolor="#666666"
     borderopacity="1.0"
     inkscape:pageopacity="0.0"
     inkscape:pageshadow="2"
     inkscape:zoom="1"
     inkscape:cx="191.22843"
     inkscape:cy="9.5026285"
     inkscape:current-layer="layer1"
     showgrid="true"
     inkscape:document-units="px"
     inkscape:grid-bbox="true"
     inkscape:window-width="1366"
     inkscape:window-height="692"
     inkscape:window-x="0"
     inkscape:window-y="24"
     inkscape:window-maximized="1" />
  <metadata
     id="metadata2998">
    <rdf:RDF>
      <cc:Work
         rdf:about="">
        <dc:format>image/svg+xml</dc:format>
        <dc:type
           rdf:resource="http://purl.org/dc/dcmitype/StillImage" />
        <dc:title></dc:title>
      </cc:Work>
    </rdf:RDF>
  </metadata>
  <g
     id="layer1"
     inkscape:label="Layer 1"
     inkscape:groupmode="layer"
     transform="translate(0,66)">
    <path
       inkscape:connector-curvature="0"
       d="m 143.37394,59.570624 c -1.35162,2.378604 -3.77239,3.810138 -6.47921,3.810138 l -128.7903559,0 c -2.7032459,0 -5.1240097,-1.424249 -6.4792084,-3.810138 -1.34804724,-2.378604 -1.34804724,-5.238029 0,-7.616633 L 31.514627,-0.73591303 66.020345,-61.577909 c 1.351623,-2.385889 3.775962,-3.806495 6.479208,-3.806495 2.703246,0 5.127585,1.420606 6.479208,3.806495 l 64.395179,113.5319 c 1.35162,2.378604 1.35162,5.230744 0,7.616633 z M 79.507968,-61.887528 C 78.045498,-64.466474 75.424494,-66 72.499553,-66 c -2.921365,0 -5.545945,1.533526 -7.008415,4.112472 L 30.98542,-1.0455322 1.0995345,51.64073 c -1.46604601,2.578946 -1.46604601,5.66421 0,8.243156 C 2.5620049,62.455547 5.1830092,64 8.1043741,64 L 136.89473,64 c 2.92494,0 5.54237,-1.544453 7.00842,-4.123399 1.46247,-2.578946 1.46247,-5.656925 0,-8.235871 L 79.507968,-61.887528"
       style="fill:#191412;fill-opacity:1;fill-rule:nonzero;stroke:none"
       id="path1138" />
    <path
       inkscape:connector-curvature="0"
       d="m 23.097377,46.952731 49.402176,-87.101348 49.405757,87.101348 -98.807933,0 z M 76.994236,-60.408641 c -1.995253,-3.526017 -6.994113,-3.526017 -8.989366,0 -21.465059,37.831825 -42.930119,75.689148 -64.3916028,113.528258 -1.9988287,3.518731 0.5006011,7.929894 4.4911069,7.929894 l 128.7903559,0 c 3.99408,0 6.49351,-4.411163 4.49468,-7.929894 C 119.92435,15.280507 98.462871,-22.576816 76.994236,-60.408641"
       style="fill:#c13339;fill-opacity:1;fill-rule:nonzero;stroke:none"
       id="path1140" />
    <path
       inkscape:connector-curvature="0"
       d="m 87.074196,9.8712769 c 1.98095,-0.1784864 4.319473,-0.3715431 6.479209,0.3642581 0.901082,0.732158 1.258654,4.032335 1.441016,5.503937 0.182504,2.92499 0.532782,5.493009 1.076292,7.871613 0.182219,0.3679 0.547085,1.096416 0.722296,2.014346 -0.175354,2.564375 0,4.39295 0.178786,6.778839 l -1.258654,-0.182129 c 0,0.724873 -0.185938,1.464317 -0.185938,2.196475 -0.175353,1.282188 0.185938,1.646446 0.185938,2.924991 l 0,1.653731 c -0.536359,0.542744 -0.361148,1.828575 -0.361148,2.564376 l -4.137111,0 c 0.178787,-0.553672 0.539934,-1.103702 0.904658,-1.471602 0.353997,-0.178487 0.715145,-0.364258 1.255079,-1.092774 -0.178787,-1.464317 0.178786,-2.20376 0,-3.296534 0,-1.100059 -0.361148,-2.200118 -0.361148,-3.478663 -0.539934,-0.735801 -1.977375,-1.467959 -2.874881,-2.564375 -2.703246,-1.103702 -1.265806,0.903359 -1.80574,1.096416 -0.536358,0 -0.357572,-0.735801 -1.076292,-0.914287 -0.715144,0.178486 -0.897506,1.096416 -1.26223,0.914287 -0.539934,0 -0.182219,-0.546387 0,-1.289473 -1.616226,-1.085489 -1.98095,-1.639161 -2.334946,-2.746505 -1.079868,0.182129 -3.24318,2.38589 -8.638945,2.746505 -2.163312,0.375186 -3.600752,0.193057 -5.578126,-0.724873 0,2.196475 -0.539934,3.846563 -0.901082,6.039396 0,0.921572 -0.178786,2.014346 0.361148,2.753789 0.539934,0.728516 -0.361148,1.464317 -0.361148,2.557091 -0.357573,0.557314 0.901082,0.91793 0.536358,2.200117 l -3.954749,0 c -0.178786,-0.3679 -0.178786,-0.3679 -0.178786,-0.728515 0,-0.735801 0.357572,0 1.258654,-1.103702 0.178787,-0.91793 0.178787,-2.196475 -0.182218,-3.292891 -0.353997,-0.914287 -0.175354,-2.20376 -0.353997,-3.478663 -0.54351,-1.464317 0,-3.125333 -0.364723,-3.668077 -1.258655,0.542744 -3.057243,-0.178486 -4.680621,-1.278545 -1.795012,-2.021632 -2.334946,-5.314523 -3.597176,-8.614699 -0.539934,-1.646446 -1.798588,-1.646446 -2.513733,-1.460675 -0.543509,0.182129 -0.901082,0.914288 -1.626953,1.107344 -0.539934,0.171202 -0.539934,0.724874 -0.897507,0.724874 -3.057242,0.364258 -3.239604,-0.91793 -3.958324,-2.017989 1.26223,-2.196475 1.98095,-5.496652 2.163312,-6.77884 0.357572,-0.360615 1.079868,-0.914287 1.619802,-1.464316 -0.185937,-1.4606744 -0.361148,-2.5607332 -0.725871,-4.02505 1.444591,0.7321584 1.444591,1.4643168 2.163311,2.3749615 1.798589,-0.1748438 2.517309,-0.3606153 3.597177,0 0.901082,-0.7248732 1.623378,-1.2821878 2.520884,-2.1964751 0.361148,0.9142873 -0.71872,2.5643756 -1.079868,3.6607916 0.539934,0.367901 1.079868,0.553672 3.060818,0.367901 2.334946,0 6.654419,-1.092774 8.992941,-1.092774 2.703246,0 3.600752,1.824932 6.479208,1.824932 5.578127,0.189414 7.019143,-0.914287 10.255171,-1.2785451 z m -63.976819,37.0814541 98.807933,0 -49.405757,-87.101348 -49.402176,87.101348"
       style="fill:#ffffff;fill-opacity:1;fill-rule:nonzero;stroke:none"
       id="path1142" />
    <path
       inkscape:connector-curvature="0"
       d="m 93.918128,17.378632 c 0.536359,2.746505 0.171635,0.542744 0.715145,6.782482 l -0.178786,1.278545 -1.802164,-3.842921 1.265805,-4.218106 z M 61.346876,10.417664 c -1.98095,0.185771 -2.520884,0 -3.060818,-0.367901 0.361148,-1.096416 1.441016,-2.7465043 1.079868,-3.6607916 -0.897506,0.9142873 -1.619802,1.4716019 -2.520884,2.1964751 -1.079868,-0.3606153 -1.798588,-0.1748438 -3.597177,0 -0.71872,-0.9106447 -0.71872,-1.6428031 -2.163312,-2.3749615 0.364724,1.4643168 0.539935,2.5643756 0.725872,4.02505 -0.539934,0.550029 -1.26223,1.103701 -1.619802,1.464316 -0.182219,1.282188 -0.901082,4.582365 -2.163312,6.77884 0.71872,1.100059 0.901082,2.382247 3.958324,2.017989 0.357573,0 0.357573,-0.553672 0.897507,-0.724874 0.725871,-0.193056 1.083443,-0.925215 1.626953,-1.107344 0.715145,-0.185771 1.973799,-0.185771 2.513733,1.460675 1.26223,3.300176 1.802164,6.593067 3.597176,8.614699 1.623378,1.100059 3.421966,1.821289 4.68062,1.278545 0.364724,0.542744 -0.178786,2.20376 0.364724,3.668077 0.178786,1.274903 0,2.564376 0.353997,3.478663 0.361148,1.096416 0.361148,2.374961 0.182218,3.292891 -0.901082,1.103702 -1.258654,0.367901 -1.258654,1.103702 0,0.360615 0,0.360615 0.178786,0.728515 l 3.954749,0 c 0.364724,-1.282187 -0.893931,-1.642803 -0.536358,-2.200117 0,-1.092774 0.901082,-1.828575 0.361148,-2.557091 -0.539934,-0.739443 -0.361148,-1.832217 -0.361148,-2.753789 0.361148,-2.192833 0.901082,-3.842921 0.901082,-6.039396 1.977374,0.91793 3.414814,1.100059 5.578126,0.724873 5.395765,-0.360615 7.559077,-2.564376 8.638945,-2.746505 0.353996,1.107344 0.71872,1.661016 2.334946,2.746505 -0.182219,0.743086 -0.539934,1.289473 0,1.289473 0.364724,0.182129 0.547086,-0.735801 1.26223,-0.914287 0.71872,0.178486 0.539934,0.914287 1.076292,0.914287 0.539934,-0.193057 -0.897506,-2.200118 1.80574,-1.096416 0.897506,1.096416 2.334947,1.828574 2.874881,2.564375 0,1.278545 0.361148,2.378604 0.361148,3.478663 0.178786,1.092774 -0.178787,1.832217 0,3.296534 -0.539935,0.728516 -0.901082,0.914287 -1.255079,1.092774 -0.364724,0.3679 -0.725872,0.91793 -0.904658,1.471602 l 4.137111,0 c 0,-0.735801 -0.175068,-2.021632 0.361148,-2.564376 l 0,-1.653731 c 0,-1.278545 -0.361148,-1.642803 -0.185938,-2.924991 0,-0.732158 0.185938,-1.471602 0.185938,-2.196475 l 1.258654,0.182129 C 96.792866,30.018381 96.617655,28.189806 96.792866,25.625431 96.617512,24.707501 96.252932,23.978985 96.07057,23.611085 95.52706,21.232481 95.176639,18.664462 94.994278,15.739472 94.812059,14.26787 94.454344,10.967693 93.553262,10.235535 91.393525,9.4997338 89.055003,9.6927905 87.074053,9.8712769 83.838025,10.235535 82.397009,11.339236 76.818882,11.149822 c -2.878456,0 -3.775962,-1.824932 -6.479208,-1.824932 -2.338522,0 -6.657995,1.092774 -8.992941,1.092774"
       style="fill:#191412;fill-opacity:1;fill-rule:nonzero;stroke:none"
       id="path1144" />
    <path
       inkscape:connector-curvature="0"
       d="m 94.633273,24.161114 c -0.54351,-6.239738 -0.178786,-4.035977 -0.715145,-6.782482 l -1.265805,4.218106 1.802164,3.842921 0.178786,-1.278545"
       style="fill:#ffffff;fill-opacity:1;fill-rule:nonzero;stroke:none"
       id="path1146" />
  </g>
</svg>
