<?xml version="1.0" encoding="UTF-8" standalone="no"?>
<!-- Created with Inkscape (http://www.inkscape.org/) -->

<svg
   xmlns:dc="http://purl.org/dc/elements/1.1/"
   xmlns:cc="http://creativecommons.org/ns#"
   xmlns:rdf="http://www.w3.org/1999/02/22-rdf-syntax-ns#"
   xmlns:svg="http://www.w3.org/2000/svg"
   xmlns="http://www.w3.org/2000/svg"
   xmlns:sodipodi="http://sodipodi.sourceforge.net/DTD/sodipodi-0.dtd"
   xmlns:inkscape="http://www.inkscape.org/namespaces/inkscape"
   id="svg2993"
   version="1.1"
   preserveAspectRatio="xMinYMin meet"
   viewBox="0 0 145 130"
   inkscape:version="0.48.3.1 r9886"
   sodipodi:docname="cod_45.svg"
   width="100%"
   height="100%">
  <defs
     id="defs2995" />
  <sodipodi:namedview
     id="base"
     pagecolor="#ffffff"
     bordercolor="#666666"
     borderopacity="1.0"
     inkscape:pageopacity="0.0"
     inkscape:pageshadow="2"
     inkscape:zoom="1.0353448"
     inkscape:cx="-71.788619"
     inkscape:cy="-31.652006"
     inkscape:current-layer="layer1"
     showgrid="true"
     inkscape:document-units="px"
     inkscape:grid-bbox="true"
     inkscape:window-width="1366"
     inkscape:window-height="692"
     inkscape:window-x="0"
     inkscape:window-y="24"
     inkscape:window-maximized="1" />
  <metadata
     id="metadata2998">
    <rdf:RDF>
      <cc:Work
         rdf:about="">
        <dc:format>image/svg+xml</dc:format>
        <dc:type
           rdf:resource="http://purl.org/dc/dcmitype/StillImage" />
        <dc:title></dc:title>
      </cc:Work>
    </rdf:RDF>
  </metadata>
  <g
     id="layer1"
     inkscape:label="Layer 1"
     inkscape:groupmode="layer"
     transform="translate(0,66)">
    <path
       inkscape:connector-curvature="0"
       d="m 1.4438927,-58.630933 c 0,-3.592082 4.8745515,-6.503179 10.8800893,-6.503179 l 120.352038,0 c 6.00554,0 10.88009,2.911097 10.88009,6.503179 l 0,115.267043 c 0,3.589376 -4.87455,6.498904 -10.88009,6.498904 l -120.352038,0 c -6.0055378,0 -10.8800893,-2.909528 -10.8800893,-6.498904 l 0,-115.267043 z M 0,64 145,64 145,-66 0,-66 0,64"
       style="fill:#2c4aa0;fill-opacity:1;fill-rule:nonzero;stroke:none"
       id="path3989" />
    <path
       inkscape:connector-curvature="0"
       d="m 4.3467578,-58.630933 c 0,-2.633742 3.5701472,-4.769148 7.9772242,-4.769148 l 120.352038,0 c 4.39954,0 7.97722,2.135406 7.97722,4.769148 l 0,115.267043 c 0,2.631037 -3.57768,4.764422 -7.97722,4.764422 l -120.352038,0 c -4.407077,0 -7.9772242,-2.133385 -7.9772242,-4.764422 l 0,-115.267043 z m 7.9772242,121.765947 120.352038,0 c 6.00554,0 10.88009,-2.909528 10.88009,-6.498904 l 0,-115.267043 c 0,-3.592082 -4.87455,-6.503179 -10.88009,-6.503179 l -120.352038,0 c -6.0055378,0 -10.8800893,2.911097 -10.8800893,6.503179 l 0,115.267043 c 0,3.589376 4.8745515,6.498904 10.8800893,6.498904"
       style="fill:#ffffff;fill-opacity:1;fill-rule:nonzero;stroke:none"
       id="path3991" />
    <path
       inkscape:connector-curvature="0"
       d="m 74.460376,-26.451018 c 4.376918,0 7.600229,-0.690004 9.669934,-1.932464 2.077246,-1.237949 2.993345,-3.296688 2.993345,-5.912391 0,-2.613448 -0.916099,-4.545912 -3.227082,-5.781606 -2.065935,-1.237949 -5.293016,-1.925699 -9.666164,-1.925699 l -15.890359,0 0,15.55216 16.120326,0"
       style="fill:#2c4aa0;fill-opacity:1;fill-rule:nonzero;stroke:none"
       id="path3993" />
    <path
       inkscape:connector-curvature="0"
       d="m 33.933363,-54.939634 43.29039,0 c 11.053508,0 19.343638,1.650599 25.100357,5.091602 5.75672,3.438747 8.7463,8.532604 8.7463,15.135 0,6.75122 -2.75584,12.115666 -8.5201,15.694219 -5.752952,3.711593 -13.816885,5.504251 -24.410458,5.504251 l -19.799802,0 0,23.12417 -24.406687,0 0,-64.549242 z m 35.298086,97.509123 c -0.290286,0.08623 -0.867089,0 -1.153606,-0.08551 -0.147028,-0.08821 -0.441085,-0.259081 -0.441085,-0.523357 l 0,-9.70922 c -10.00923,0.349728 -15.079819,2.687409 -15.373875,8.49382 l 0,15.868064 -13.055353,0 0,-15.868064 C 39.931361,29.563094 50.521164,25.66456 65.174978,24.538906 l -5.372186,-9.190589 c -0.143258,-0.263826 0,-0.520886 0.143259,-0.694515 0.297826,-0.173538 0.735141,-0.259315 1.168686,-0.259315 l 44.673963,9.88532 -36.557251,18.289628 z m -56.907467,18.831043 120.352038,0 c 4.39954,0 7.97722,-2.133385 7.97722,-4.764422 l 0,-115.267043 c 0,-2.633742 -3.57768,-4.769148 -7.97722,-4.769148 l -120.352038,0 c -4.407077,0 -7.9772242,2.135406 -7.9772242,4.769148 l 0,115.267043 c 0,2.631037 3.5701472,4.764422 7.9772242,4.764422"
       style="fill:#2c4aa0;fill-opacity:1;fill-rule:nonzero;stroke:none"
       id="path3995" />
    <path
       inkscape:connector-curvature="0"
       d="m 58.34005,-42.003178 15.890359,0 c 4.373148,0 7.600229,0.68775 9.666164,1.925699 2.310983,1.235694 3.227082,3.168158 3.227082,5.781606 0,2.615703 -0.916099,4.674442 -2.993345,5.912391 -2.069705,1.24246 -5.293016,1.932464 -9.669934,1.932464 l -16.120326,0 0,-15.55216 z m 0,28.488616 19.799802,0 c 10.593573,0 18.657506,-1.792658 24.410458,-5.504251 5.76426,-3.578553 8.5201,-8.942999 8.5201,-15.694219 0,-6.602396 -2.98958,-11.696253 -8.7463,-15.135 -5.756719,-3.441003 -14.046849,-5.091602 -25.100357,-5.091602 l -43.29039,0 0,64.549242 24.406687,0 0,-23.12417"
       style="fill:#ffffff;fill-opacity:1;fill-rule:nonzero;stroke:none"
       id="path3997" />
    <path
       inkscape:connector-curvature="0"
       d="m 59.946051,14.653856 c -0.143259,0.173539 -0.286517,0.430689 -0.143259,0.694515 l 5.372186,9.190589 C 50.521164,25.664614 39.931361,29.56313 39.20753,40.745262 l 0,15.868082 13.055353,0 0,-15.868082 c 0.294056,-5.80641 5.364645,-8.144073 15.373875,-8.49382 l 0,9.70922 c 0,0.264276 0.294057,0.435199 0.441085,0.523375 0.286517,0.08551 0.86332,0.171554 1.153606,0.08551 L 105.7887,24.279915 61.114737,14.394595 c -0.433545,0 -0.87086,0.08569 -1.168686,0.259316"
       style="fill:#ffffff;fill-opacity:1;fill-rule:nonzero;stroke:none"
       id="path3999" />
  </g>
</svg>
