<?xml version="1.0" encoding="UTF-8" standalone="no"?>
<!-- Created with Inkscape (http://www.inkscape.org/) -->

<svg
   xmlns:dc="http://purl.org/dc/elements/1.1/"
   xmlns:cc="http://creativecommons.org/ns#"
   xmlns:rdf="http://www.w3.org/1999/02/22-rdf-syntax-ns#"
   xmlns:svg="http://www.w3.org/2000/svg"
   xmlns="http://www.w3.org/2000/svg"
   xmlns:sodipodi="http://sodipodi.sourceforge.net/DTD/sodipodi-0.dtd"
   xmlns:inkscape="http://www.inkscape.org/namespaces/inkscape"
   id="svg2993"
   version="1.1"
   preserveAspectRatio="xMinYMin meet"
   viewBox="0 0 145 130"
   inkscape:version="0.48.3.1 r9886"
   sodipodi:docname="cod_46.svg"
   width="100%"
   height="100%">
  <defs
     id="defs2995" />
  <sodipodi:namedview
     id="base"
     pagecolor="#ffffff"
     bordercolor="#666666"
     borderopacity="1.0"
     inkscape:pageopacity="0.0"
     inkscape:pageshadow="2"
     inkscape:zoom="4.0153846"
     inkscape:cx="24.683908"
     inkscape:cy="65"
     inkscape:current-layer="layer1"
     showgrid="true"
     inkscape:document-units="px"
     inkscape:grid-bbox="true"
     inkscape:window-width="1366"
     inkscape:window-height="692"
     inkscape:window-x="0"
     inkscape:window-y="24"
     inkscape:window-maximized="1" />
  <metadata
     id="metadata2998">
    <rdf:RDF>
      <cc:Work
         rdf:about="">
        <dc:format>image/svg+xml</dc:format>
        <dc:type
           rdf:resource="http://purl.org/dc/dcmitype/StillImage" />
        <dc:title></dc:title>
      </cc:Work>
    </rdf:RDF>
  </metadata>
  <g
     id="layer1"
     inkscape:label="Layer 1"
     inkscape:groupmode="layer"
     transform="translate(0,66)">
    <path
       inkscape:connector-curvature="0"
       d="m 72.498277,63.239585 c -39.513818,0 -71.65755747,-28.81848 -71.65755747,-64.2457672 0,-35.4211048 32.14373947,-64.2395858 71.65755747,-64.2395858 39.510373,0 71.657553,28.818481 71.657553,64.2395858 0,35.4272872 -32.14718,64.2457672 -71.657553,64.2457672 z M 72.498277,-66 C 32.526198,-66 0,-36.844588 0,-1.0061822 0,34.838406 32.526198,64 72.498277,64 112.48069,64 145,34.838406 145,-1.0061822 145,-36.844588 112.48069,-66 72.498277,-66"
       style="fill:#191412;fill-opacity:1;fill-rule:nonzero;stroke:none"
       id="path1568" />
    <path
       inkscape:connector-curvature="0"
       d="M 112.09479,28.714904 93.237174,11.169726 86.246109,4.672199 81.811658,0.5455583 76.677756,-4.233308 40.857591,-37.552454 c 8.744861,-6.092591 19.70178,-9.758655 31.640686,-9.758655 28.525893,0 51.659463,20.732119 51.659463,46.3049268 0,11.3165782 -4.53782,21.6749092 -12.06295,29.7210862 z M 72.498277,45.304927 c -28.53278,0 -51.656013,-20.732119 -51.656013,-46.3111092 0,-11.2733018 4.506808,-21.5945408 11.976808,-29.6314438 l 27.454316,25.4800742 0.103367,0.092734 7.173681,6.6613562 0.08269,0.080369 3.132025,2.9087407 0.09648,0.086551 3.852149,3.5764219 0.09303,0.08346 5.733432,5.325994 0.09303,0.08655 3.473137,3.220944 0.0758,0.06491 19.949861,18.51888 c -8.744859,6.089499 -19.701777,9.755564 -31.633793,9.755564 z m 0,-108.770211 c -38.483592,0 -69.6797992,27.96224 -69.6797992,62.4591018 0,34.4999522 31.1962072,62.4652842 69.6797992,62.4652842 38.483593,0 69.679803,-27.965332 69.679803,-62.4652842 0,-34.4968618 -31.19621,-62.4591018 -69.679803,-62.4591018"
       style="fill:#c13339;fill-opacity:1;fill-rule:nonzero;stroke:none"
       id="path1570" />
    <path
       inkscape:connector-curvature="0"
       d="m 55.656322,8.2486209 c -4.086448,0.346205 -4.086448,4.8870551 0,5.4094541 l 24.88392,0 -5.733432,-5.325994 -0.09303,-0.08346 -19.057458,0"
       style="fill:#ffffff;fill-opacity:1;fill-rule:nonzero;stroke:none"
       id="path1572" />
    <path
       inkscape:connector-curvature="0"
       d="m 110.75446,13.834269 c -4.4758,-1.047889 -4.86515,-4.5408507 -8.95159,-5.5856481 l -7.983394,0 c -0.08958,1.1004375 -0.296319,2.0215901 -0.582302,2.8345541 l -6.991065,-6.4975273 3.676425,0 C 89.729582,3.0091782 88.950883,1.7881872 87.975786,1.0926859 87.004135,0.39409359 85.836086,0.04479741 84.864435,0.21480883 83.844545,0.31063344 82.831547,0.37554689 81.811658,0.45900704 L 76.677756,-4.3229504 c 2.766794,0.1452825 5.543925,0.2689272 8.383076,0.3523873 1.161158,0.1731026 2.1397,0.3462051 2.914954,0.6985924 3.31464,1.0417063 4.679087,3.13748335 5.647292,7.5083222 l 8.179792,0 c 4.08644,-0.874786 3.69709,-4.02154267 8.75864,-5.0694312 5.2545,-1.2148088 9.34784,2.9736542 9.34784,7.5052311 0,4.5470326 -4.67565,8.0307206 -9.15489,7.1621176 z M 72.498277,-47.311109 c -11.938906,0 -22.895825,3.666064 -31.640686,9.758655 l 35.820165,33.319146 5.133902,4.7788663 4.434451,4.1266407 6.991065,6.497527 18.857616,17.545178 c 7.52513,-8.046177 12.06295,-18.404508 12.06295,-29.7210862 0,-25.5728078 -23.13357,-46.3049268 -51.659463,-46.3049268"
       style="fill:#ffffff;fill-opacity:1;fill-rule:nonzero;stroke:none"
       id="path1574" />
    <path
       inkscape:connector-curvature="0"
       d="m 84.106409,16.96557 c -0.0069,0.0032 -0.01709,0.0032 -0.02398,0.0062 l -29.00827,0 C 46.31207,16.279342 46.505022,5.1018642 54.877762,4.5856477 l 15.887531,0 -3.132024,-2.9087407 -0.08269,-0.080369 c -0.0758,0.00297 -0.137823,0.0094 -0.21018,0.015332 -7.979944,0.6985923 -15.963334,1.2240822 -23.95017,1.9226745 -9.147993,2.2657885 -9.340945,6.9766506 -11.487536,11.8667966 -0.385905,0.698592 -1.750351,0.877877 -2.332653,-0.516216 l 0,-33.340784 c 0.778562,-1.400152 1.753659,-0.528457 2.143008,0.176317 1.946748,5.230169 2.143146,9.9410312 11.873441,12.3861044 5.48535,0.2441982 11.074068,0.4945787 16.686904,0.7356858 L 32.819072,-30.637626 c -7.47,8.036903 -11.976808,18.358142 -11.976808,29.6314438 0,25.5789902 23.123233,46.3111092 51.656013,46.3111092 11.932016,0 22.888934,-3.666065 31.633793,-9.755564 l -19.949859,-18.51888 -0.0758,-0.06491"
       style="fill:#ffffff;fill-opacity:1;fill-rule:nonzero;stroke:none"
       id="path1576" />
    <path
       inkscape:connector-curvature="0"
       d="m 110.56151,-0.8330797 c -5.06155,1.04788853 -4.6722,4.1946452 -8.75864,5.0694312 l -8.179792,0 C 92.654873,-0.13448735 91.290426,-2.2302644 87.975786,-3.2719707 87.200532,-3.624358 86.22199,-3.7974605 85.060832,-3.9705631 82.221681,-4.0540232 79.44455,-4.1776679 76.677756,-4.3229504 l 5.133902,4.78195744 c 1.019889,-0.0834601 2.032887,-0.1483736 3.052777,-0.24419821 0.971651,-0.17001142 2.1397,0.17928476 3.111351,0.87787707 0.975097,0.6955013 1.753796,1.9164923 1.946748,3.4929618 l -3.676425,0 6.991065,6.4975273 c 0.285983,-0.812964 0.492717,-1.7341166 0.582302,-2.8345541 l 7.983394,0 c 4.08644,1.0447974 4.47579,4.5377591 8.95159,5.5856481 4.47924,0.868603 9.15489,-2.615085 9.15489,-7.1621176 0,-4.5315769 -4.09334,-8.7200399 -9.34784,-7.5052311"
       style="fill:#191412;fill-opacity:1;fill-rule:nonzero;stroke:none"
       id="path1578" />
    <path
       inkscape:connector-curvature="0"
       d="M 54.877623,4.5856477 C 46.504883,5.1018642 46.311931,16.279342 55.07402,16.971752 l 29.00827,0 c 0.0069,-0.003 0.01736,-0.003 0.02398,-0.0062 l -3.473136,-3.220944 -0.09303,-0.08655 -24.88392,0 c -4.086448,-0.522399 -4.086448,-5.0632491 0,-5.4094541 l 19.057458,0 -3.852149,-3.5764219 -0.09648,-0.086551 -15.887532,0"
       style="fill:#191412;fill-opacity:1;fill-rule:nonzero;stroke:none"
       id="path1580" />
    <path
       inkscape:connector-curvature="0"
       d="m 31.713043,-18.279342 c -0.389349,-0.704774 -1.364446,-1.576469 -2.143145,-0.176193 l 0,33.340783 c 0.582301,1.394094 1.946748,1.214809 2.332652,0.516217 2.146591,-4.890147 2.339543,-9.6010085 11.487536,-11.8667969 7.986836,-0.6985924 15.970226,-1.2240822 23.95017,-1.9226746 0.07236,-0.00618 0.134377,-0.012364 0.21018,-0.015332 l -7.173681,-6.6613563 -0.103367,-0.092733 C 54.660552,-5.3986589 49.071834,-5.6490394 43.586484,-5.8932376 33.856189,-8.3383108 33.659791,-13.049173 31.713043,-18.279342"
       style="fill:#191412;fill-opacity:1;fill-rule:nonzero;stroke:none"
       id="path1582" />
  </g>
</svg>
