<?xml version="1.0" encoding="UTF-8" standalone="no"?>
<!-- Created with Inkscape (http://www.inkscape.org/) -->

<svg
   xmlns:dc="http://purl.org/dc/elements/1.1/"
   xmlns:cc="http://creativecommons.org/ns#"
   xmlns:rdf="http://www.w3.org/1999/02/22-rdf-syntax-ns#"
   xmlns:svg="http://www.w3.org/2000/svg"
   xmlns="http://www.w3.org/2000/svg"
   xmlns:sodipodi="http://sodipodi.sourceforge.net/DTD/sodipodi-0.dtd"
   xmlns:inkscape="http://www.inkscape.org/namespaces/inkscape"
   id="svg2993"
   version="1.1"
   preserveAspectRatio="xMinYMin meet"
   viewBox="0 0 145 130"
   inkscape:version="0.48.3.1 r9886"
   sodipodi:docname="cod_45.svg"
   width="100%"
   height="100%">
  <defs
     id="defs2995" />
  <sodipodi:namedview
     id="base"
     pagecolor="#ffffff"
     bordercolor="#666666"
     borderopacity="1.0"
     inkscape:pageopacity="0.0"
     inkscape:pageshadow="2"
     inkscape:zoom="2.0706897"
     inkscape:cx="59.333669"
     inkscape:cy="37.333741"
     inkscape:current-layer="layer1"
     showgrid="true"
     inkscape:document-units="px"
     inkscape:grid-bbox="true"
     inkscape:window-width="1366"
     inkscape:window-height="692"
     inkscape:window-x="0"
     inkscape:window-y="24"
     inkscape:window-maximized="1" />
  <metadata
     id="metadata2998">
    <rdf:RDF>
      <cc:Work
         rdf:about="">
        <dc:format>image/svg+xml</dc:format>
        <dc:type
           rdf:resource="http://purl.org/dc/dcmitype/StillImage" />
        <dc:title></dc:title>
      </cc:Work>
    </rdf:RDF>
  </metadata>
  <g
     id="layer1"
     inkscape:label="Layer 1"
     inkscape:groupmode="layer"
     transform="translate(0,66)">
    <path
       inkscape:connector-curvature="0"
       d="m 72.498277,63.239603 c -39.508494,0 -71.65070661,-28.817795 -71.65070661,-64.2411485 0,-35.4202625 32.14221261,-64.2380575 71.65070661,-64.2380575 39.508493,0 71.654153,28.817795 71.654153,64.2380575 0,35.4233535 -32.14566,64.2411485 -71.654153,64.2411485 z M 72.498277,-66 C 32.521207,-66 0,-36.839099 0,-1.0015455 0,34.84219 32.521207,64 72.498277,64 112.47535,64 145,34.84219 145,-1.0015455 145,-36.839099 112.47535,-66 72.498277,-66"
       style="fill:#191412;fill-opacity:1;fill-rule:nonzero;stroke:none"
       id="path1340" />
    <path
       inkscape:connector-curvature="0"
       d="m 72.498277,45.305371 c -28.527979,0 -51.653558,-20.731626 -51.653558,-46.3069165 0,-25.5721995 23.125579,-46.3007345 51.653558,-46.3007345 28.527983,0 51.653563,20.728535 51.653563,46.3007345 0,25.5752905 -23.12558,46.3069165 -51.653563,46.3069165 z m 0,-108.764534 c -38.478317,0 -69.6764878,27.961576 -69.6764878,62.4576175 0,34.4991325 31.1981708,62.4637995 69.6764878,62.4637995 38.481763,0 69.673043,-27.964667 69.673043,-62.4637995 0,-34.4960415 -31.19128,-62.4576175 -69.673043,-62.4576175"
       style="fill:#c13339;fill-opacity:1;fill-rule:nonzero;stroke:none"
       id="path1342" />
    <path
       inkscape:connector-curvature="0"
       d="m 43.587858,6.852795 c -1.167993,0 -2.143044,0.8778563 -2.143044,2.0926362 0,1.0540457 0.975051,1.9257198 2.143044,1.9257198 1.360936,0 2.335987,-0.8716741 2.335987,-1.9257198 0,-1.2147799 -0.975051,-2.0926362 -2.335987,-2.0926362"
       style="fill:#ffffff;fill-opacity:1;fill-rule:nonzero;stroke:none"
       id="path1344" />
    <path
       inkscape:connector-curvature="0"
       d="m 94.793513,6.852795 c -1.364381,0 -2.335987,0.8778563 -2.335987,2.0926362 0,1.0540457 0.971606,1.9257198 2.335987,1.9257198 1.164548,0 2.143044,-0.8716741 2.143044,-1.9257198 0,-1.2147799 -0.978496,-2.0926362 -2.143044,-2.0926362"
       style="fill:#ffffff;fill-opacity:1;fill-rule:nonzero;stroke:none"
       id="path1346" />
    <path
       inkscape:connector-curvature="0"
       d="m 35.994178,-2.2194165 0,-7.6812421 -4.864916,0 -0.392776,7.6812421 5.257692,0"
       style="fill:#ffffff;fill-opacity:1;fill-rule:nonzero;stroke:none"
       id="path1348" />
    <path
       inkscape:connector-curvature="0"
       d="m 107.83783,-0.82226502 -68.921945,0 0,-10.82792398 75.340735,0 2.52893,8.9022041 0,1.92571988 -8.94772,0 z m 8.94772,9.42768152 c -4.86491,0.3400147 -9.92622,0.6923936 -14.78769,1.0385904 0.1895,-3.4836055 -2.342876,-7.5050526 -7.204347,-7.3257721 -4.675419,0 -7.597125,3.8421666 -7.404182,7.3257721 l -36.404182,0 c 0.196388,-3.4836055 -2.332541,-7.5050526 -7.204348,-7.5050526 -5.061305,0 -7.397291,4.0214471 -7.397291,7.5050526 l -8.172508,0 0.968159,-9.24530989 87.606389,0 0,8.20671949 z M 94.793513,14.014742 c -3.118094,0 -5.647024,-2.271917 -5.647024,-5.0693108 0,-2.7850298 2.52893,-5.0569465 5.647024,-5.0569465 3.111204,0 5.447187,2.2719167 5.447187,5.0569465 0,2.7973938 -2.335983,5.0693108 -5.447187,5.0693108 z m -51.205655,0 c -3.114649,0 -5.647024,-2.271917 -5.647024,-5.0693108 0,-2.7850298 2.532375,-5.0569465 5.647024,-5.0569465 3.114649,0 5.650469,2.2719167 5.650469,5.0569465 0,2.7973938 -2.53582,5.0693108 -5.650469,5.0693108 z m -13.630035,-25.485651 7.597125,0 0,10.64864398 -8.375787,0 0.778662,-10.64864398 z M 72.498277,-47.30228 c -28.527979,0 -51.653558,20.728535 -51.653558,46.3007345 0,25.5752905 23.125579,46.3069165 51.653558,46.3069165 28.527983,0 51.653563,-20.731626 51.653563,-46.3069165 0,-25.5721995 -23.12558,-46.3007345 -51.653563,-46.3007345"
       style="fill:#ffffff;fill-opacity:1;fill-rule:nonzero;stroke:none"
       id="path1350" />
    <path
       inkscape:connector-curvature="0"
       d="m 85.442676,-9.7244692 0,7.5050527 13.240703,0 0,-7.5050527 -13.240703,0"
       style="fill:#ffffff;fill-opacity:1;fill-rule:nonzero;stroke:none"
       id="path1352" />
    <path
       inkscape:connector-curvature="0"
       d="m 55.850065,-9.7244692 0,7.5050527 13.240704,0 0,-7.5050527 -13.240704,0"
       style="fill:#ffffff;fill-opacity:1;fill-rule:nonzero;stroke:none"
       id="path1354" />
    <path
       inkscape:connector-curvature="0"
       d="m 70.644648,-9.7244692 0,7.5050527 13.240703,0 0,-7.5050527 -13.240703,0"
       style="fill:#ffffff;fill-opacity:1;fill-rule:nonzero;stroke:none"
       id="path1356" />
    <path
       inkscape:connector-curvature="0"
       d="m 107.83783,-9.7244692 -7.59713,0 0,7.5050527 14.98753,0 -1.94321,-7.5050527 -5.44719,0"
       style="fill:#ffffff;fill-opacity:1;fill-rule:nonzero;stroke:none"
       id="path1358" />
    <path
       inkscape:connector-curvature="0"
       d="m 40.865986,-9.7244692 0,7.5050527 13.233812,0 0,-7.5050527 -13.233812,0"
       style="fill:#ffffff;fill-opacity:1;fill-rule:nonzero;stroke:none"
       id="path1360" />
    <path
       inkscape:connector-curvature="0"
       d="m 107.83783,-2.2194165 -7.59713,0 0,-7.5050527 13.04432,0 1.94321,7.5050527 -7.3904,0 z m -9.154451,0 -13.240703,0 0,-7.5050527 13.240703,0 0,7.5050527 z m -14.798028,0 -13.240703,0 0,-7.5050527 13.240703,0 0,7.5050527 z m -14.794582,0 -13.240704,0 0,-7.5050527 13.240704,0 0,7.5050527 z m -14.990971,0 -13.233812,0 0,-7.5050527 13.233812,0 0,7.5050527 z m 60.156822,-9.4307725 -75.340735,0 0,10.82792398 77.869665,0 0,-1.92571988 -2.52893,-8.9022041"
       style="fill:#191412;fill-opacity:1;fill-rule:nonzero;stroke:none"
       id="path1362" />
    <path
       inkscape:connector-curvature="0"
       d="m 31.129262,-9.9006586 4.864916,0 0,7.6812421 -5.257692,0 0.392776,-7.6812421 z m 6.425686,9.07839358 0,-10.64864398 -7.597125,0 -0.778662,10.64864398 8.375787,0"
       style="fill:#191412;fill-opacity:1;fill-rule:nonzero;stroke:none"
       id="path1364" />
    <path
       inkscape:connector-curvature="0"
       d="m 43.587858,10.871151 c -1.167993,0 -2.143044,-0.8716741 -2.143044,-1.9257198 0,-1.2147799 0.975051,-2.0926362 2.143044,-2.0926362 1.360936,0 2.335987,0.8778563 2.335987,2.0926362 0,1.0540457 -0.975051,1.9257198 -2.335987,1.9257198 z m 0,-6.9826663 c -3.114649,0 -5.647024,2.2719167 -5.647024,5.0569465 0,2.7973938 2.532375,5.0693108 5.647024,5.0693108 3.114649,0 5.650469,-2.271917 5.650469,-5.0693108 0,-2.7850298 -2.53582,-5.0569465 -5.650469,-5.0569465"
       style="fill:#191412;fill-opacity:1;fill-rule:nonzero;stroke:none"
       id="path1366" />
    <path
       inkscape:connector-curvature="0"
       d="m 94.793513,10.871151 c -1.364381,0 -2.335987,-0.8716741 -2.335987,-1.9257198 0,-1.2147799 0.971606,-2.0926362 2.335987,-2.0926362 1.164548,0 2.143044,0.8778563 2.143044,2.0926362 0,1.0540457 -0.978496,1.9257198 -2.143044,1.9257198 z m 0,-6.9826663 c -3.118094,0 -5.647024,2.2719167 -5.647024,5.0569465 0,2.7973938 2.52893,5.0693108 5.647024,5.0693108 3.111204,0 5.447187,-2.271917 5.447187,-5.0693108 0,-2.7850298 -2.335983,-5.0569465 -5.447187,-5.0569465"
       style="fill:#191412;fill-opacity:1;fill-rule:nonzero;stroke:none"
       id="path1368" />
    <path
       inkscape:connector-curvature="0"
       d="m 28.211002,9.6440069 8.172508,0 c 0,-3.4836055 2.335986,-7.5050526 7.397291,-7.5050526 4.871807,0 7.400736,4.0214471 7.204348,7.5050526 l 36.404182,0 c -0.192943,-3.4836055 2.728763,-7.3257721 7.404182,-7.3257721 4.861471,-0.1792805 7.393847,3.8421666 7.204347,7.3257721 4.86147,-0.3461968 9.92278,-0.6985757 14.78769,-1.0385904 l 0,-8.20671949 -87.606389,0 -0.968159,9.24530989"
       style="fill:#191412;fill-opacity:1;fill-rule:nonzero;stroke:none"
       id="path1370" />
  </g>
</svg>
