<?xml version="1.0" encoding="UTF-8" standalone="no"?>
<!-- Created with Inkscape (http://www.inkscape.org/) -->

<svg
   xmlns:dc="http://purl.org/dc/elements/1.1/"
   xmlns:cc="http://creativecommons.org/ns#"
   xmlns:rdf="http://www.w3.org/1999/02/22-rdf-syntax-ns#"
   xmlns:svg="http://www.w3.org/2000/svg"
   xmlns="http://www.w3.org/2000/svg"
   xmlns:sodipodi="http://sodipodi.sourceforge.net/DTD/sodipodi-0.dtd"
   xmlns:inkscape="http://www.inkscape.org/namespaces/inkscape"
   id="svg2993"
   version="1.1"
   preserveAspectRatio="xMinYMin meet"
   viewBox="0 0 145 130"
   inkscape:version="0.48.3.1 r9886"
   sodipodi:docname="cod_2.svg">
  <defs
     id="defs2995" />
  <sodipodi:namedview
     id="base"
     pagecolor="#ffffff"
     bordercolor="#666666"
     borderopacity="1.0"
     inkscape:pageopacity="0.0"
     inkscape:pageshadow="2"
     inkscape:zoom="3.8890873"
     inkscape:cx="180.03354"
     inkscape:cy="4.7866273"
     inkscape:current-layer="layer1"
     showgrid="true"
     inkscape:document-units="px"
     inkscape:grid-bbox="true"
     inkscape:window-width="1366"
     inkscape:window-height="692"
     inkscape:window-x="0"
     inkscape:window-y="24"
     inkscape:window-maximized="1" />
  <metadata
     id="metadata2998">
    <rdf:RDF>
      <cc:Work
         rdf:about="">
        <dc:format>image/svg+xml</dc:format>
        <dc:type
           rdf:resource="http://purl.org/dc/dcmitype/StillImage" />
        <dc:title></dc:title>
      </cc:Work>
    </rdf:RDF>
  </metadata>
  <g
     id="layer1"
     inkscape:label="Layer 1"
     inkscape:groupmode="layer"
     transform="translate(0,66)">
    <path
       inkscape:connector-curvature="0"
       d="m 143.46061,59.601822 c -1.35619,2.378735 -3.77872,3.806704 -6.48752,3.806704 l -128.8773182,0 c -2.7087997,0 -5.134911,-1.427969 -6.4875216,-3.806704 -1.35261064,-2.386019 -1.35261064,-5.231029 0,-7.620692 L 66.04691,-61.556993 c 1.356189,-2.378735 3.7823,-3.803062 6.483943,-3.803062 2.705221,0 5.131332,1.424327 6.480364,3.806704 L 143.45346,51.98113 c 1.35976,2.389663 1.35976,5.234673 0.007,7.620692 z M 143.98662,51.671494 79.540811,-61.86663 c -1.459961,-2.575445 -4.079302,-4.112697 -7.009958,-4.112697 -2.9235,0 -5.542841,1.537252 -7.013537,4.112697 L 1.0750783,51.671494 c -1.45638237,2.579086 -1.45638237,5.66452 0.00716,8.243608 1.4599607,2.575444 4.0793022,4.11634 7.0135369,4.11634 l 128.8773145,0 c 2.92708,0 5.54642,-1.540896 7.01354,-4.119984 1.46712,-2.579086 1.45996,-5.660878 0,-8.239964"
       style="fill:#191412;fill-opacity:1;fill-rule:nonzero;stroke:none"
       id="path3922" />
    <path
       inkscape:connector-curvature="0"
       d="m 23.088995,46.98688 49.441858,-87.113408 49.441857,87.113408 -98.883715,0 z M 77.02882,-60.387661 c -1.993133,-3.522568 -6.999224,-3.522568 -8.995935,0 -21.480744,37.844826 -42.961492,75.693296 -64.4386587,113.541765 -2.0002894,3.518925 0.5009669,7.923044 4.5015455,7.923044 l 128.8773182,0 c 3.997,0 6.49826,-4.404119 4.50155,-7.923044 C 119.99031,15.305635 98.509565,-22.542835 77.02882,-60.387661"
       style="fill:#c13339;fill-opacity:1;fill-rule:nonzero;stroke:none"
       id="path3924" />
    <path
       inkscape:connector-curvature="0"
       d="m 74.158995,-8.0190767 c 0,1.8359604 -1.449225,3.4824964 -3.238393,3.4824964 -1.807059,0 -3.428044,-1.646536 -3.428044,-3.4824964 0,-1.8250324 1.620985,-3.2930713 3.428044,-3.2930713 1.789168,0 3.238393,1.4680389 3.238393,3.2930713 z m 1.796325,4.9505362 8.817017,9.1579453 c 0.178916,0.3679206 0.364991,0.3679206 0.547486,1.0928336 l 0,4.4041186 c 0,2.014457 -3.603384,2.014457 -3.778722,0 l 0,-3.4824956 -3.238394,-2.3823772 -1.263152,3.2967147 c 2.873403,7.5150521 5.038296,14.2942631 7.732782,21.6162481 1.273888,3.664636 -2.876981,5.314814 -4.669727,1.832317 L 73.253677,13.965092 C 70.190621,20.380025 67.492558,26.423395 64.433081,32.834685 62.6296,36.1314 58.306972,33.566884 59.931535,30.262884 L 70.011705,9.5646156 69.113543,6.6431072 63.356002,12.500696 c -1.620985,1.650178 -4.329786,-1.10012 -2.529882,-2.9360804 l 9.725913,-11.3508981 c 1.080658,-0.9143374 1.624565,-1.1001192 2.701644,-1.6501787 1.263152,-0.5464168 1.445647,-0.5464168 2.701643,0.3679207 z m 15.490612,43.2288535 -7.929591,0 -0.543907,-4.578973 c 1.449226,-0.546416 4.147291,-1.646536 2.894874,-5.318456 l -1.810638,-5.671807 2.519148,0 4.870114,15.569236 z m 6.480364,-15.387097 8.638104,15.387097 -7.557446,0 -6.487522,-15.387097 5.406864,0 z m -28.633836,15.387097 0.719245,-15.569236 5.220791,0 0.722824,15.569236 -6.66286,0 z m -7.739938,0 -7.743518,0 4.684041,-15.569236 2.873402,0 -2.519147,5.489668 c -1.259574,3.486139 1.084235,5.136317 3.241971,5.686377 l -0.536749,4.393191 z m -15.487035,0 -7.568178,0 8.46634,-15.387097 5.403287,0 -6.301449,15.387097 z m -22.976492,6.826567 98.883715,0 L 72.530853,-40.126528 23.088995,46.98688"
       style="fill:#ffffff;fill-opacity:1;fill-rule:nonzero;stroke:none"
       id="path3926" />
    <path
       inkscape:connector-curvature="0"
       d="M 70.552033,-1.7862825 60.82612,9.5646156 c -1.799904,1.8359604 0.908897,4.5862584 2.529882,2.9360804 l 5.757541,-5.8575888 0.898162,2.9215084 -10.08017,20.6982684 c -1.624563,3.304 2.698065,5.868516 4.501546,2.571801 3.059477,-6.41129 5.75754,-12.45466 8.820596,-18.869593 l 6.848933,18.501672 c 1.792746,3.482497 5.943615,1.832319 4.669727,-1.832317 C 82.077851,23.312462 79.912958,16.533251 77.039555,9.0181989 l 1.263152,-3.2967147 3.238394,2.3823772 0,3.4824956 c 0.175338,2.014457 3.778722,2.014457 3.778722,0 l 0,-4.4041186 C 85.137328,6.4573254 84.951253,6.4573254 84.772337,6.0894048 L 75.95532,-3.0685405 c -1.255996,-0.9143375 -1.438491,-0.9143375 -2.701643,-0.3679207 -1.077079,0.5500595 -1.620986,0.7358413 -2.701644,1.6501787"
       style="fill:#191412;fill-opacity:1;fill-rule:nonzero;stroke:none"
       id="path3928" />
    <path
       inkscape:connector-curvature="0"
       d="m 67.492558,-8.0190767 c 0,1.8359604 1.620985,3.4824964 3.428044,3.4824964 1.789168,0 3.238393,-1.646536 3.238393,-3.4824964 0,-1.8250324 -1.449225,-3.2930713 -3.238393,-3.2930713 -1.807059,0 -3.428044,1.4680389 -3.428044,3.2930713"
       style="fill:#191412;fill-opacity:1;fill-rule:nonzero;stroke:none"
       id="path3930" />
    <path
       inkscape:connector-curvature="0"
       d="m 38.497309,40.160313 7.568178,0 6.301449,-15.387097 -5.403287,0 -8.46634,15.387097"
       style="fill:#191412;fill-opacity:1;fill-rule:nonzero;stroke:none"
       id="path3932" />
    <path
       inkscape:connector-curvature="0"
       d="m 106.5644,40.160313 -8.638104,-15.387097 -5.406864,0 6.487522,15.387097 7.557446,0"
       style="fill:#191412;fill-opacity:1;fill-rule:nonzero;stroke:none"
       id="path3934" />
    <path
       inkscape:connector-curvature="0"
       d="m 58.8473,30.080745 2.519147,-5.489668 -2.873402,0 -4.684041,15.569236 7.743518,0 0.536749,-4.393191 C 59.931535,35.217062 57.587726,33.566884 58.8473,30.080745"
       style="fill:#191412;fill-opacity:1;fill-rule:nonzero;stroke:none"
       id="path3936" />
    <path
       inkscape:connector-curvature="0"
       d="m 85.867308,30.262884 c 1.252417,3.67192 -1.445648,4.77204 -2.894874,5.318456 l 0.543907,4.578973 7.929591,0 -4.870114,-15.569236 -2.519148,0 1.810638,5.671807"
       style="fill:#191412;fill-opacity:1;fill-rule:nonzero;stroke:none"
       id="path3938" />
    <path
       inkscape:connector-curvature="0"
       d="m 70.011705,24.591077 -0.719245,15.569236 6.66286,0 -0.722824,-15.569236 -5.220791,0"
       style="fill:#191412;fill-opacity:1;fill-rule:nonzero;stroke:none"
       id="path3940" />
  </g>
</svg>
