<?xml version="1.0" encoding="UTF-8" standalone="no"?>
<!-- Created with Inkscape (http://www.inkscape.org/) -->

<svg
   xmlns:dc="http://purl.org/dc/elements/1.1/"
   xmlns:cc="http://creativecommons.org/ns#"
   xmlns:rdf="http://www.w3.org/1999/02/22-rdf-syntax-ns#"
   xmlns:svg="http://www.w3.org/2000/svg"
   xmlns="http://www.w3.org/2000/svg"
   xmlns:sodipodi="http://sodipodi.sourceforge.net/DTD/sodipodi-0.dtd"
   xmlns:inkscape="http://www.inkscape.org/namespaces/inkscape"
   id="svg2993"
   version="1.1"
   preserveAspectRatio="xMinYMin meet"
   viewBox="0 0 145 130"
   inkscape:version="0.48.3.1 r9886"
   sodipodi:docname="cod_1.svg"
   width="100%"
   height="100%">
  <defs
     id="defs2995" />
  <sodipodi:namedview
     id="base"
     pagecolor="#ffffff"
     bordercolor="#666666"
     borderopacity="1.0"
     inkscape:pageopacity="0.0"
     inkscape:pageshadow="2"
     inkscape:zoom="4.0153846"
     inkscape:cx="72.5"
     inkscape:cy="65"
     inkscape:current-layer="layer1"
     showgrid="true"
     inkscape:document-units="px"
     inkscape:grid-bbox="true"
     inkscape:window-width="1366"
     inkscape:window-height="692"
     inkscape:window-x="0"
     inkscape:window-y="24"
     inkscape:window-maximized="1" />
  <metadata
     id="metadata2998">
    <rdf:RDF>
      <cc:Work
         rdf:about="">
        <dc:format>image/svg+xml</dc:format>
        <dc:type
           rdf:resource="http://purl.org/dc/dcmitype/StillImage" />
        <dc:title></dc:title>
      </cc:Work>
    </rdf:RDF>
  </metadata>
  <g
     id="layer1"
     inkscape:label="Layer 1"
     inkscape:groupmode="layer"
     transform="translate(0,66)">
    <path
       inkscape:connector-curvature="0"
       d="m 143.37748,59.570624 c -1.34807,2.378604 -3.7796,3.810138 -6.4829,3.810138 l -128.7855863,0 c -2.7068717,0 -5.1312561,-1.424249 -6.482904,-3.810138 -1.35164796,-2.378604 -1.35164796,-5.238029 0,-7.616633 L 37.627124,-11.517947 66.022458,-61.577909 c 1.358799,-2.385889 3.772456,-3.806495 6.479328,-3.806495 2.69972,0 5.124105,1.420606 6.479328,3.806495 l 64.396366,113.5319 c 1.35523,2.378604 1.35523,5.230744 0,7.616633 z M 79.510334,-61.887528 C 78.047834,-64.466474 75.426781,-66 72.501789,-66 c -2.928571,0 -5.54605,1.533526 -7.008545,4.112472 L 37.101486,-11.827566 1.096873,51.64073 c -1.46249734,2.578946 -1.46249734,5.66421 0,8.243156 C 2.5593704,62.455547 5.1804232,64 8.1089937,64 L 136.89458,64 c 2.92499,0 5.54963,-1.544453 7.00854,-4.123399 1.46251,-2.578946 1.46251,-5.656925 0,-8.235871 L 79.510334,-61.887528"
       style="fill:#191412;fill-opacity:1;fill-rule:nonzero;stroke:none"
       id="path1166" />
    <path
       inkscape:connector-curvature="0"
       d="m 23.091546,46.952731 49.41024,-87.101348 49.406664,87.101348 -98.816904,0 z M 76.996552,-60.408641 c -1.99529,-3.526017 -6.990666,-3.526017 -8.989532,0 -21.465456,37.831825 -42.930911,75.689148 -64.3963679,113.528258 -1.9988656,3.518731 0.4970346,7.929894 4.4983416,7.929894 l 128.7855863,0 c 3.99773,0 6.49721,-4.411163 4.49477,-7.929894 C 119.92746,15.280507 98.462008,-22.576816 76.996552,-60.408641"
       style="fill:#c13339;fill-opacity:1;fill-rule:nonzero;stroke:none"
       id="path1168" />
    <path
       inkscape:connector-curvature="0"
       d="M 90.387882,6.210485 85.34602,10.417664 C 81.562836,4.5603968 75.812969,3.09608 71.486265,2.9139511 l 2.882083,5.8609095 c 0,0 0,0.1784864 -0.17879,0.3606153 0,0 -0.182365,0.1894141 -0.361154,0.1894141 L 54.758725,5.2925551 68.614904,-8.9972821 l 0.357579,0 c 0.17879,0.1930567 0.17879,0.1930567 0.354003,0.5500294 l 0.547096,4.9466223 c 9.897782,-0.182129 15.83359,3.11440495 20.514297,9.7111154 z m 7.198061,23.447281 c 0,0 0,0.182129 -0.178789,0.360615 0,0 -0.189517,0.189414 -0.364731,0 l -4.673555,-2.014346 c -4.691434,8.978957 -10.627242,12.453977 -18.540462,13.37555 l -0.904677,-6.600353 c 6.847637,-0.360616 10.802459,-4.760851 13.141022,-8.421643 l -6.293385,-0.553672 c -0.178789,0 -0.178789,0 -0.368309,-0.178486 0,0 0,-0.375186 0.189517,-0.55003 L 92.544076,10.235535 97.585937,29.657766 z M 50.4356,36.250834 c -0.175214,-0.185772 -0.175214,-0.185772 -0.357579,-0.375186 0,-0.174844 0.182365,-0.364258 0.357579,-0.542744 l 3.965549,-3.110763 C 49.176923,23.793214 49.176923,16.835888 52.416587,9.32489 l 5.942957,2.374961 c -3.068024,6.403654 -1.441043,12.093363 0.532792,15.932641 l 3.600819,-5.303595 c 0.175214,-0.185772 0.175214,-0.185772 0.361157,-0.185772 0.175214,0 0.357579,0.185772 0.357579,0.367901 L 69.51243,41.379585 50.4356,36.250834 z m -27.344054,10.701897 98.816904,0 -49.406661,-87.101348 -49.410243,87.101348"
       style="fill:#ffffff;fill-opacity:1;fill-rule:nonzero;stroke:none"
       id="path1170" />
    <path
       inkscape:connector-curvature="0"
       d="m 79.403057,25.625431 c 0.189517,0.178486 0.189517,0.178486 0.368309,0.178486 l 6.293385,0.553672 c -2.338563,3.660792 -6.293385,8.061027 -13.141022,8.421643 l 0.904677,6.600353 c 7.91322,-0.921573 13.849028,-4.396593 18.540462,-13.37555 l 4.673555,2.014346 c 0.175214,0.189414 0.364731,0 0.364731,0 0.178789,-0.178486 0.178789,-0.360615 0.178789,-0.360615 L 92.544082,10.235535 79.592577,25.075401 c -0.189517,0.174844 -0.189517,0.55003 -0.189517,0.55003"
       style="fill:#191412;fill-opacity:1;fill-rule:nonzero;stroke:none"
       id="path1172" />
    <path
       inkscape:connector-curvature="0"
       d="m 69.326489,-8.4472527 c -0.175214,-0.3569727 -0.175214,-0.3569727 -0.354003,-0.5500294 l -0.357579,0 L 54.758728,5.2925551 73.828406,9.32489 c 0.17879,0 0.361155,-0.1894141 0.361155,-0.1894141 C 74.36835,8.953347 74.36835,8.7748606 74.36835,8.7748606 L 71.486265,2.9139511 C 75.812969,3.09608 81.562836,4.5603968 85.34602,10.417664 L 90.387882,6.210485 C 85.707175,-0.38622545 79.771366,-3.6827594 69.873585,-3.5006304 l -0.547096,-4.9466223"
       style="fill:#191412;fill-opacity:1;fill-rule:nonzero;stroke:none"
       id="path1174" />
    <path
       inkscape:connector-curvature="0"
       d="m 62.854312,22.143125 c -0.185941,0 -0.185941,0 -0.361157,0.185772 l -3.600819,5.303595 C 56.918501,23.793214 55.291518,18.103505 58.359544,11.699851 L 52.416587,9.32489 c -3.239664,7.510998 -3.239664,14.468324 1.984562,22.897251 L 50.4356,35.332904 c -0.175214,0.178486 -0.357579,0.3679 -0.357579,0.542744 0.182365,0.189414 0.182365,0.189414 0.357579,0.375186 l 19.07683,5.128751 -6.300539,-18.868559 c 0,-0.182129 -0.182365,-0.367901 -0.357579,-0.367901"
       style="fill:#191412;fill-opacity:1;fill-rule:nonzero;stroke:none"
       id="path1176" />
  </g>
</svg>
