<?xml version="1.0" encoding="UTF-8" standalone="no"?>
<!-- Created with Inkscape (http://www.inkscape.org/) -->

<svg
   xmlns:dc="http://purl.org/dc/elements/1.1/"
   xmlns:cc="http://creativecommons.org/ns#"
   xmlns:rdf="http://www.w3.org/1999/02/22-rdf-syntax-ns#"
   xmlns:svg="http://www.w3.org/2000/svg"
   xmlns="http://www.w3.org/2000/svg"
   xmlns:sodipodi="http://sodipodi.sourceforge.net/DTD/sodipodi-0.dtd"
   xmlns:inkscape="http://www.inkscape.org/namespaces/inkscape"
   id="svg2993"
   version="1.1"
   preserveAspectRatio="xMinYMin meet"
   viewBox="0 0 145 130"
   inkscape:version="0.48.3.1 r9886"
   sodipodi:docname="cod_45.svg"
   width="100%"
   height="100%">
  <defs
     id="defs2995" />
  <sodipodi:namedview
     id="base"
     pagecolor="#ffffff"
     bordercolor="#666666"
     borderopacity="1.0"
     inkscape:pageopacity="0.0"
     inkscape:pageshadow="2"
     inkscape:zoom="2.9283974"
     inkscape:cx="89.73991"
     inkscape:cy="50.267348"
     inkscape:current-layer="layer1"
     showgrid="true"
     inkscape:document-units="px"
     inkscape:grid-bbox="true"
     inkscape:window-width="1366"
     inkscape:window-height="692"
     inkscape:window-x="0"
     inkscape:window-y="24"
     inkscape:window-maximized="1" />
  <metadata
     id="metadata2998">
    <rdf:RDF>
      <cc:Work
         rdf:about="">
        <dc:format>image/svg+xml</dc:format>
        <dc:type
           rdf:resource="http://purl.org/dc/dcmitype/StillImage" />
        <dc:title></dc:title>
      </cc:Work>
    </rdf:RDF>
  </metadata>
  <g
     id="layer1"
     inkscape:label="Layer 1"
     inkscape:groupmode="layer"
     transform="translate(0,66)">
    <path
       inkscape:connector-curvature="0"
       d="m 5.1640895,-58.407037 c 0,-2.480162 3.3671931,-4.498122 7.5056205,-4.498122 l 119.65263,0 c 4.13843,0 7.50562,2.01796 7.50562,4.498122 l 0,114.816457 c 0,2.477779 -3.36719,4.495739 -7.50562,4.495739 l -119.65263,0 c -4.1384274,0 -7.5056205,-2.01796 -7.5056205,-4.495739 l 0,-114.816457 z m 7.5056205,119.819664 119.65263,0 c 4.60753,0 8.35239,-2.241913 8.35239,-5.003207 l 0,-114.816457 c 0,-2.761294 -3.74486,-5.003208 -8.35239,-5.003208 l -119.65263,0 c -4.6035533,0 -8.3523881,2.241914 -8.3523881,5.003208 l 0,114.816457 c 0,2.761294 3.7488348,5.003207 8.3523881,5.003207"
       style="fill:#191412;fill-opacity:1;fill-rule:nonzero;stroke:none"
       id="path3893" />
    <path
       inkscape:connector-curvature="0"
       d="m 2.2858749,-58.407037 c 0,-3.430771 4.6592093,-6.22542 10.3838351,-6.22542 l 119.65263,0 c 5.7286,0 10.39179,2.794649 10.39179,6.22542 l 0,114.816457 c 0,3.428388 -4.66319,6.220654 -10.39179,6.220654 l -119.65263,0 c -5.7246258,0 -10.3838351,-2.792266 -10.3838351,-6.220654 l 0,-114.816457 z M 12.66971,63.137542 l 119.65263,0 c 6.1977,0 11.23458,-3.018601 11.23458,-6.728122 l 0,-114.816457 c 0,-3.714286 -5.03688,-6.732888 -11.23458,-6.732888 l -119.65263,0 c -6.1937271,0 -11.2306027,3.018602 -11.2306027,6.732888 l 0,114.816457 c 0,3.709521 5.0368756,6.728122 11.2306027,6.728122"
       style="fill:#191412;fill-opacity:1;fill-rule:nonzero;stroke:none"
       id="path3895" />
    <path
       inkscape:connector-curvature="0"
       d="m 144.15323,63.492532 -143.30646244,0 0,-128.985064 143.30646244,0 0,128.985064 z M 144.57463,-66 0,-66 0,64 l 145,0 0,-130 -0.42537,0"
       style="fill:#191412;fill-opacity:1;fill-rule:nonzero;stroke:none"
       id="path3897" />
    <path
       inkscape:connector-curvature="0"
       d="m 72.5,-54.869055 c 29.72035,0 53.90689,14.483093 53.90689,32.287363 0,17.7995056 -24.18654,32.2825992 -53.90689,32.2825992 -29.724324,0 -53.910868,-14.4830936 -53.910868,-32.2825992 0,-17.80427 24.186544,-32.287363 53.910868,-32.287363 z m 0,64.951159 c 30.07416,0 54.54694,-14.6522497 54.54694,-32.663796 0,-18.011545 -24.47278,-32.666178 -54.54694,-32.666178 -30.078138,0 -54.546938,14.654633 -54.546938,32.666178 0,18.0115463 24.4688,32.663796 54.546938,32.663796"
       style="fill:#191412;fill-opacity:1;fill-rule:nonzero;stroke:none"
       id="path3899" />
    <path
       inkscape:connector-curvature="0"
       d="m 42.561002,-37.131495 0.151067,-0.119124 0.174919,0.109595 53.898942,32.2754508 0.18287,0.1095941 -0.202747,0.090534 C 87.980342,-0.80344543 78.164994,0.92861725 68.38145,0.34490974 59.60369,-0.17685329 51.326836,-2.5569504 45.069502,-6.345093 38.959259,-10.009347 34.999726,-15.207917 34.204639,-20.620911 33.588447,-24.804545 34.5346,-31.072849 42.561002,-37.131495 z m 5.601388,-3.356913 c 10.216866,-4.810227 20.676235,-5.398699 27.657098,-5.050857 9.01231,0.459818 17.726463,2.811326 23.900312,6.463667 6.26926,3.800055 10.19301,8.784202 11.04773,14.030423 0.95808,5.860899 -1.94796,11.717034 -8.39214,16.9298996 l -0.15107,0.123889 -0.17889,-0.1095941 -53.902918,-32.1944465 -0.174919,-0.10483 0.194797,-0.08815 z M 72.5,8.8074773 c 28.94911,0 52.4161,-14.0542472 52.4161,-31.3891693 0,-17.337304 -23.46699,-31.389168 -52.4161,-31.389168 -28.949114,0 -52.42008,14.051864 -52.42008,31.389168 0,17.3349221 23.470966,31.3891693 52.42008,31.3891693"
       style="fill:#c13339;fill-opacity:1;fill-rule:nonzero;stroke:none"
       id="path3901" />
    <path
       inkscape:connector-curvature="0"
       d="m 52.861353,-40.405022 c 6.976888,-2.925684 15.249767,-4.109777 23.936092,-3.43077 8.058206,0.628974 15.575752,2.816091 21.165213,6.165857 11.838842,6.997343 13.500572,17.780445 4.130472,26.824338 l -0.14709,0.140566 -0.19082,-0.116741 -48.921695,-29.383121 -0.18287,-0.109594 0.210698,-0.09054 z m 49.184077,32.3040415 0.17889,0.1095941 0.15107,-0.123889 c 6.44418,-5.2128656 9.35022,-11.0690006 8.39214,-16.9298996 -0.85472,-5.246221 -4.77847,-10.230368 -11.04773,-14.030423 -6.173849,-3.652341 -14.888002,-6.003849 -23.900312,-6.463667 -6.980863,-0.347842 -17.440232,0.24063 -27.657098,5.050857 l -0.194797,0.08815 0.174919,0.10483 53.902918,32.1944465"
       style="fill:#ffffff;fill-opacity:1;fill-rule:nonzero;stroke:none"
       id="path3903" />
    <path
       inkscape:connector-curvature="0"
       d="m 101.75522,-10.821772 0.19082,0.116741 0.14709,-0.140566 c 9.3701,-9.043893 7.70837,-19.826995 -4.130472,-26.824338 -5.589461,-3.349766 -13.107007,-5.536883 -21.165213,-6.165857 -8.686325,-0.679007 -16.959204,0.505086 -23.936092,3.43077 l -0.210698,0.09054 0.18287,0.109594 48.921695,29.383121"
       style="fill:#2c4aa0;fill-opacity:1;fill-rule:nonzero;stroke:none"
       id="path3905" />
    <path
       inkscape:connector-curvature="0"
       d="m 42.843258,-34.322551 0.151067,-0.123889 0.186845,0.107212 49.068789,29.2973513 0.194796,0.119124 -0.23455,0.083387 C 84.517739,-2.0018327 76.101744,-0.79868047 67.864643,-1.3418858 60.076767,-1.8612664 52.757992,-3.9769083 47.263941,-7.3123797 41.690382,-10.650234 38.06081,-15.155503 37.043099,-19.982406 c -1.077343,-5.124714 0.981933,-10.21369 5.800159,-14.340145 z M 68.38145,0.34490974 c 9.783544,0.58370751 19.598892,-1.14835517 28.384603,-5.01035464 l 0.202747,-0.090534 -0.18287,-0.1095941 -53.898942,-32.2754508 -0.174919,-0.109595 -0.151067,0.119124 c -8.026402,6.058646 -8.972555,12.32695 -8.356363,16.510584 0.795087,5.412994 4.75462,10.611564 10.864863,14.275818 6.257334,3.7881426 14.534188,6.16823971 23.311948,6.69000274"
       style="fill:#ffffff;fill-opacity:1;fill-rule:nonzero;stroke:none"
       id="path3907" />
    <path
       inkscape:connector-curvature="0"
       d="m 67.864643,-1.3418858 c 8.237101,0.54320533 16.653096,-0.6599469 24.345562,-3.4974801 l 0.23455,-0.083387 -0.194796,-0.119124 -49.068789,-29.2973513 -0.186845,-0.107212 -0.151067,0.123889 c -4.818226,4.126455 -6.877502,9.215431 -5.800159,14.340145 1.017711,4.826903 4.647283,9.332172 10.220842,12.6700263 5.494051,3.3354714 12.812826,5.4511133 20.600702,5.9704939"
       style="fill:#2c4aa0;fill-opacity:1;fill-rule:nonzero;stroke:none"
       id="path3909" />
    <path
       inkscape:connector-curvature="0"
       d="m 111.73356,41.561807 c -3.6574,0 -6.91328,-1.236507 -8.5114,-3.263997 -0.0676,-0.0405 1.133,-1.867864 1.06144,-1.991753 0.53668,2.189499 3.72498,3.861999 7.44996,3.861999 4.18614,0 7.57321,-2.029872 7.57321,-4.536241 0,-1.553376 -1.3278,-2.949509 -3.31949,-3.742875 l 0.39754,-1.512875 c 3.12469,0.955375 5.31516,2.947128 5.31516,5.25575 0,3.304499 -4.45249,5.929992 -9.96642,5.929992 z m -13.230243,-1.076881 -0.198771,-0.03574 -3.255881,-0.5575 0.397543,-0.838633 3.323464,0.598002 0.198771,0.03812 4.122527,-7.207001 0.0636,-0.03574 9.37805,0 0.12323,-0.238248 0.27431,-1.076881 -7.71234,0 0,-1.236507 7.97472,0 0.93423,-4.216989 -0.0676,-0.157243 c -1.78894,0 -3.25588,-0.879135 -3.25588,-1.953633 0,-1.115001 1.46694,-1.948869 3.25588,-1.948869 1.7969,0 3.25986,0.833868 3.25986,1.948869 l -0.0716,-0.116742 -2.0553,8.996243 -0.33791,1.550994 -9.90678,0 0,0.0405 -3.98339,6.885366 -2.460793,-0.438376 z m 27.323163,-20.334463 -32.439547,0 c -1.717388,0 -3.120716,0.85531 -3.120716,1.903601 l 0,19.426739 c 0,1.029231 1.403328,1.870246 3.120716,1.870246 l 32.439547,0 c 1.75317,0 3.18432,-0.841015 3.18432,-1.870246 l 0,-19.426739 c 0,-1.067351 -1.39935,-1.903601 -3.18432,-1.903601"
       style="fill:#e95b1d;fill-opacity:1;fill-rule:nonzero;stroke:none"
       id="path3911" />
    <path
       inkscape:connector-curvature="0"
       d="m 129.0108,41.480803 c 0,1.029231 -1.43115,1.870246 -3.18432,1.870246 l -32.439547,0 c -1.717388,0 -3.120716,-0.841015 -3.120716,-1.870246 l 0,-19.426739 c 0,-1.048291 1.403328,-1.903601 3.120716,-1.903601 l 32.439547,0 c 1.78497,0 3.18432,0.83625 3.18432,1.903601 l 0,19.426739 z M 93.386933,19.824063 c -2.023496,0 -3.661375,1.000641 -3.661375,2.230001 l 0,19.426739 c 0,1.212682 1.637879,2.196646 3.661375,2.196646 l 32.439547,0 c 2.05927,0 3.72896,-0.983964 3.72896,-2.196646 l 0,-19.426739 c 0,-1.250802 -1.64186,-2.230001 -3.72896,-2.230001 l -32.439547,0"
       style="fill:#191412;fill-opacity:1;fill-rule:nonzero;stroke:none"
       id="path3913" />
    <path
       inkscape:connector-curvature="0"
       d="m 116.38482,30.376065 -0.39754,1.512875 c 1.99169,0.793366 3.31949,2.189499 3.31949,3.742875 0,2.506369 -3.38707,4.536241 -7.57321,4.536241 -3.72498,0 -6.91328,-1.6725 -7.44996,-3.861999 0.0716,0.123889 -1.12902,1.951251 -1.06144,1.991753 1.59812,2.02749 4.854,3.263997 8.5114,3.263997 5.51393,0 9.96642,-2.625493 9.96642,-5.929992 0,-2.308622 -2.19047,-4.300375 -5.31516,-5.25575"
       style="fill:#191412;fill-opacity:1;fill-rule:nonzero;stroke:none"
       id="path3915" />
    <path
       inkscape:connector-curvature="0"
       d="m 104.9475,33.997434 9.90678,0 0.33791,-1.550994 2.0553,-8.996243 0.0716,0.116742 c 0,-1.115001 -1.46296,-1.948869 -3.25986,-1.948869 -1.78894,0 -3.25588,0.833868 -3.25588,1.948869 0,1.074498 1.46694,1.953633 3.25588,1.953633 l 0.0676,0.157243 -0.93423,4.216989 -7.97472,0 0,1.236507 7.71234,0 -0.27431,1.076881 -0.12323,0.238248 -9.37805,0 -0.0636,0.03574 -4.122527,7.207001 -0.198771,-0.03812 -3.323464,-0.598002 -0.397543,0.838633 3.255881,0.5575 0.198771,0.03574 2.460793,0.438376 3.98339,-6.885366 0,-0.0405"
       style="fill:#191412;fill-opacity:1;fill-rule:nonzero;stroke:none"
       id="path3917" />
    <path
       inkscape:connector-curvature="0"
       d="m 25.081017,21.834876 12.753194,0 c 3.255881,0 5.700773,0.490791 7.394308,1.503344 1.701486,1.017319 2.576082,2.518281 2.576082,4.471915 0,1.98937 -0.810989,3.576102 -2.5085,4.636305 -1.693535,1.091176 -4.070845,1.622469 -7.191561,1.622469 l -5.831962,0 0,6.823421 -7.191561,0 0,-19.057454 z m -6.448155,21.702007 33.719636,0 c 1.629928,0 2.917969,-0.774306 2.917969,-1.74874 l 0,-20.193898 c 0,-0.974434 -1.288041,-1.753505 -2.917969,-1.753505 l -33.719636,0 c -1.562346,0 -2.917969,0.779071 -2.917969,1.753505 l 0,20.193898 c 0,0.974434 1.355623,1.74874 2.917969,1.74874"
       style="fill:#2c4aa0;fill-opacity:1;fill-rule:nonzero;stroke:none"
       id="path3919" />
    <path
       inkscape:connector-curvature="0"
       d="m 37.019247,30.247411 c 1.295991,0 2.242145,-0.204893 2.850386,-0.569412 0.612217,-0.366902 0.878571,-0.974434 0.878571,-1.746358 0,-0.774306 -0.266354,-1.341336 -0.950129,-1.708238 -0.608241,-0.366902 -1.55837,-0.569412 -2.850386,-0.569412 l -4.675111,0 0,4.59342 4.746669,0"
       style="fill:#2c4aa0;fill-opacity:1;fill-rule:nonzero;stroke:none"
       id="path3921" />
    <path
       inkscape:connector-curvature="0"
       d="m 32.272578,25.653991 4.675111,0 c 1.292016,0 2.242145,0.20251 2.850386,0.569412 0.683775,0.366902 0.950129,0.933932 0.950129,1.708238 0,0.771924 -0.266354,1.379456 -0.878571,1.746358 -0.608241,0.364519 -1.554395,0.569412 -2.850386,0.569412 l -4.746669,0 0,-4.59342 z m 0,8.414918 5.831962,0 c 3.120716,0 5.498026,-0.531293 7.191561,-1.622469 1.697511,-1.060203 2.5085,-2.646935 2.5085,-4.636305 0,-1.953634 -0.874596,-3.454596 -2.576082,-4.471915 -1.693535,-1.012553 -4.138427,-1.503344 -7.394308,-1.503344 l -12.753194,0 0,19.057454 7.191561,0 0,-6.823421"
       style="fill:#ffffff;fill-opacity:1;fill-rule:nonzero;stroke:none"
       id="path3923" />
    <path
       inkscape:connector-curvature="0"
       d="m 14.434803,48.249427 116.130397,0 0,5.934757 -116.130397,0 0,-5.934757 z m 116.404697,6.258774 0.26636,0 0,-6.585173 -117.215692,0 0,6.585173 116.949332,0"
       style="fill:#191412;fill-opacity:1;fill-rule:nonzero;stroke:none"
       id="path3925" />
  </g>
</svg>
