<?xml version="1.0" encoding="UTF-8" standalone="no"?>
<!-- Created with Inkscape (http://www.inkscape.org/) -->

<svg
   xmlns:dc="http://purl.org/dc/elements/1.1/"
   xmlns:cc="http://creativecommons.org/ns#"
   xmlns:rdf="http://www.w3.org/1999/02/22-rdf-syntax-ns#"
   xmlns:svg="http://www.w3.org/2000/svg"
   xmlns="http://www.w3.org/2000/svg"
   xmlns:sodipodi="http://sodipodi.sourceforge.net/DTD/sodipodi-0.dtd"
   xmlns:inkscape="http://www.inkscape.org/namespaces/inkscape"
   id="svg2993"
   version="1.1"
   preserveAspectRatio="xMinYMin meet"
   viewBox="0 0 145 130"
   inkscape:version="0.48.3.1 r9886"
   sodipodi:docname="cod_51.svg"
   width="100%"
   height="100%">
  <defs
     id="defs2995" />
  <sodipodi:namedview
     id="base"
     pagecolor="#ffffff"
     bordercolor="#666666"
     borderopacity="1.0"
     inkscape:pageopacity="0.0"
     inkscape:pageshadow="2"
     inkscape:zoom="4.0153846"
     inkscape:cx="26.178161"
     inkscape:cy="9.2145592"
     inkscape:current-layer="layer1"
     showgrid="true"
     inkscape:document-units="px"
     inkscape:grid-bbox="true"
     inkscape:window-width="1366"
     inkscape:window-height="692"
     inkscape:window-x="0"
     inkscape:window-y="24"
     inkscape:window-maximized="1" />
  <metadata
     id="metadata2998">
    <rdf:RDF>
      <cc:Work
         rdf:about="">
        <dc:format>image/svg+xml</dc:format>
        <dc:type
           rdf:resource="http://purl.org/dc/dcmitype/StillImage" />
        <dc:title></dc:title>
      </cc:Work>
    </rdf:RDF>
  </metadata>
  <g
     id="layer1"
     inkscape:label="Layer 1"
     inkscape:groupmode="layer"
     transform="translate(0,66)">
    <path
       inkscape:connector-curvature="0"
       d="m 72.498794,63.239603 c -39.504768,0 -71.65088511,-28.817798 -71.65088511,-64.241151 0,-35.420262 32.14611711,-64.238055 71.65088511,-64.238055 39.508216,0 71.653646,28.817793 71.653646,64.238055 0,35.423353 -32.14543,64.241151 -71.653646,64.241151 z M 72.498794,-66 C 32.525454,-66 0,-36.8391 0,-1.001548 0,34.842187 32.525454,64 72.498794,64 112.47558,64 145,34.842187 145,-1.001548 145,-36.8391 112.47558,-66 72.498794,-66"
       style="fill:#191412;fill-opacity:1;fill-rule:nonzero;stroke:none"
       id="path1284" />
    <path
       inkscape:connector-curvature="0"
       d="m 72.498794,45.305367 c -28.531221,0 -51.65319,-20.731625 -51.65319,-46.306915 0,-25.572199 23.121969,-46.300733 51.65319,-46.300733 28.527776,0 51.656636,20.728534 51.656636,46.300733 0,25.57529 -23.12886,46.306915 -51.656636,46.306915 z m 0,-108.76453 c -38.478043,0 -69.6711677,27.961575 -69.6711677,62.457615 0,34.499131 31.1931247,62.463802 69.6711677,62.463802 38.481486,0 69.675996,-27.964671 69.675996,-62.463802 0,-34.49604 -31.19451,-62.457615 -69.675996,-62.457615"
       style="fill:#c13339;fill-opacity:1;fill-rule:nonzero;stroke:none"
       id="path1286" />
    <path
       inkscape:connector-curvature="0"
       d="m 44.270767,1.8823951 c -5.419589,0 -9.829679,3.950353 -9.829679,8.8125639 0,4.856028 4.41009,8.809472 9.829679,8.809472 5.516059,0 9.840015,-3.869986 9.840015,-8.809472 0,-4.9425781 -4.323956,-8.8125639 -9.840015,-8.8125639"
       style="fill:#ffffff;fill-opacity:1;fill-rule:nonzero;stroke:none"
       id="path1288" />
    <path
       inkscape:connector-curvature="0"
       d="m 100.53388,1.8823951 c -5.419588,0 -9.829679,3.950353 -9.829679,8.8125639 0,4.856028 4.410091,8.809472 9.829679,8.809472 5.52984,0 10.02951,-3.953444 10.02951,-8.809472 0,-4.8622109 -4.49967,-8.8125639 -10.02951,-8.8125639"
       style="fill:#ffffff;fill-opacity:1;fill-rule:nonzero;stroke:none"
       id="path1290" />
    <path
       inkscape:connector-curvature="0"
       d="m 100.53388,23.516605 c -7.779676,0 -14.108846,-5.752431 -14.108846,-12.821646 0,-6.954847 6.46354,-12.8278287 14.108846,-12.8278287 7.89337,0 14.31212,5.755522 14.31212,12.8278287 0,3.446513 -1.48496,6.67047 -4.17236,9.084575 -2.69429,2.407923 -6.29127,3.737071 -10.13976,3.737071 z M 74.286948,8.5157734 c 1.157649,1.9040826 2.356643,3.8761676 3.531518,5.8977096 0.888909,1.690801 -0.05857,3.149773 -1.3058,3.789619 -1.385044,0.714031 -3.417821,0.602753 -4.8511,-1.270419 0,0 -8.175895,-13.2698471 -8.175895,-13.2791203 C 62.693233,2.2378651 62.496846,1.156 62.865502,0.24723337 c 0.341093,-0.82839952 1.161094,-1.48679167 2.51513,-2.01226897 l 9.895141,-3.6814322 -6.708162,-5.5298762 -8.182785,4.2625486 c -0.04824,0.024728 -0.09647,0.037092 -0.144707,0.037092 0,0 -10.708252,0 -10.725478,-0.00297 -1.946642,-0.1020044 -2.949249,-1.5949782 -2.904459,-2.948855 0.0379,-1.2209617 0.957817,-2.4511967 2.921685,-2.4511967 l 10.425731,0 c 0.768321,-0.448202 12.193212,-7.11249 12.175985,-7.106308 0.902691,-0.602754 1.908743,-0.85931 2.832106,-0.717122 0.699413,0.108186 1.292019,0.448201 1.657229,0.939677 0,0 10.125982,11.5234081 10.129428,11.5295902 0.933699,1.1127755 1.243783,2.3986493 0.847564,3.5361532 -0.347984,0.9922248 -1.205884,1.7526213 -2.342861,2.0957271 L 70.969044,2.979839 c 1.105968,1.8948094 2.232608,3.7494352 3.317904,5.536058 z M 54.410531,19.779534 c -2.69429,2.407923 -6.294716,3.737071 -10.139764,3.737071 -7.779676,0 -14.112291,-5.752431 -14.112291,-12.821646 0,-6.954847 6.463539,-12.8278287 14.112291,-12.8278287 7.893373,0 14.312123,5.755522 14.312123,12.8278287 0,3.446513 -1.481515,6.67047 -4.172359,9.084575 z m 6.814968,-49.781247 c 1.588322,-1.217871 3.85883,-1.764986 6.081102,-1.446608 4.923453,0.97986 6.914885,3.950352 6.263707,9.359678 -0.0069,0.07728 -0.05857,0.14837 -0.13437,0.191644 l -13.047667,7.328863 c -0.08614,0.04946 -0.199832,0.04946 -0.289412,0.0062 -0.09647,-0.04636 -0.151597,-0.132914 -0.151597,-0.225646 l 0,-2.445015 c 0,-0.09273 0.05168,-0.176189 0.137815,-0.225646 l 6.067321,-3.397056 -0.523699,-3.786528 -6.549674,0.166917 c -0.07924,0 -0.155042,-0.02782 -0.210168,-0.07728 -0.05857,-0.04636 -0.08958,-0.117459 -0.08958,-0.185462 0,-2.216278 0.844119,-4.036902 2.446222,-5.264046 z m 11.273295,-17.300568 c -28.531221,0 -51.65319,20.728534 -51.65319,46.300733 0,25.57529 23.121969,46.306915 51.65319,46.306915 28.527776,0 51.656636,-20.731625 51.656636,-46.306915 0,-25.572199 -23.12886,-46.300733 -51.656636,-46.300733"
       style="fill:#ffffff;fill-opacity:1;fill-rule:nonzero;stroke:none"
       id="path1292" />
    <path
       inkscape:connector-curvature="0"
       d="m 44.270767,19.504431 c -5.419589,0 -9.829679,-3.953444 -9.829679,-8.809472 0,-4.8622109 4.41009,-8.8125639 9.829679,-8.8125639 5.516059,0 9.840015,3.8699858 9.840015,8.8125639 0,4.939486 -4.323956,8.809472 -9.840015,8.809472 z m 0,-21.6373007 c -7.648752,0 -14.112291,5.8729817 -14.112291,12.8278287 0,7.069215 6.332615,12.821646 14.112291,12.821646 3.845048,0 7.445474,-1.329148 10.139764,-3.737071 2.690844,-2.414105 4.172359,-5.638062 4.172359,-9.084575 0,-7.0723067 -6.41875,-12.8278287 -14.312123,-12.8278287"
       style="fill:#191412;fill-opacity:1;fill-rule:nonzero;stroke:none"
       id="path1294" />
    <path
       inkscape:connector-curvature="0"
       d="m 100.53388,19.504431 c -5.419588,0 -9.829679,-3.953444 -9.829679,-8.809472 0,-4.8622109 4.410091,-8.8125639 9.829679,-8.8125639 5.52984,0 10.02951,3.950353 10.02951,8.8125639 0,4.856028 -4.49967,8.809472 -10.02951,8.809472 z m 0,-21.6373007 c -7.645306,0 -14.108846,5.8729817 -14.108846,12.8278287 0,7.069215 6.32917,12.821646 14.108846,12.821646 3.84849,0 7.44547,-1.329148 10.13976,-3.737071 2.6874,-2.414105 4.17236,-5.638062 4.17236,-9.084575 0,-7.0723067 -6.41875,-12.8278287 -14.31212,-12.8278287"
       style="fill:#191412;fill-opacity:1;fill-rule:nonzero;stroke:none"
       id="path1296" />
    <path
       inkscape:connector-curvature="0"
       d="m 87.59991,-3.8978553 c 0.396219,-1.1375038 0.08613,-2.4233777 -0.847564,-3.5361532 -0.0036,-0.00618 -10.129428,-11.5295905 -10.129428,-11.5295905 -0.36521,-0.491476 -0.957816,-0.83149 -1.657229,-0.939677 -0.923363,-0.142188 -1.929415,0.114369 -2.832106,0.717122 0.01736,-0.0062 -11.407664,6.658107 -12.175985,7.106308 l -10.425731,0 c -1.963868,0 -2.883786,1.230235 -2.921685,2.451197 -0.04479,1.3538768 0.957817,2.8468506 2.904459,2.948855 0.01736,0.00297 10.725478,0.00297 10.725478,0.00297 0.04824,0 0.09647,-0.012364 0.144707,-0.037092 l 8.182785,-4.2625479 6.708162,5.5298755 -9.895141,3.6814322 c -1.354036,0.5254774 -2.174037,1.18386951 -2.51513,2.01226903 -0.368656,0.90876667 -0.172269,1.99063167 0.620169,3.40632937 0,0.0094 8.175895,13.2791209 8.175895,13.2791209 1.433279,1.873172 3.466056,1.984449 4.8511,1.270418 1.247229,-0.639845 2.194709,-2.098818 1.3058,-3.789618 C 76.643591,12.391818 75.444597,10.419732 74.286948,8.5156497 73.201652,6.7290269 72.075012,4.8744011 70.969044,2.9795917 l 14.288005,-4.7818435 c 1.136977,-0.3431057 1.994877,-1.1035023 2.342861,-2.0957271"
       style="fill:#191412;fill-opacity:1;fill-rule:nonzero;stroke:none"
       id="path1298" />
    <path
       inkscape:connector-curvature="0"
       d="m 59.079025,-24.474928 6.549674,-0.166917 0.523699,3.786528 -6.067321,3.397056 c -0.08613,0.04946 -0.137815,0.132915 -0.137815,0.225646 l 0,2.445015 c 0,0.09273 0.05513,0.179281 0.151597,0.225646 0.08958,0.04327 0.203277,0.04327 0.289412,-0.0062 l 13.047667,-7.328863 c 0.0758,-0.04327 0.12748,-0.114368 0.13437,-0.191644 0.651178,-5.409326 -1.340254,-8.379818 -6.263707,-9.359678 -2.222272,-0.318378 -4.49278,0.228737 -6.081102,1.446608 -1.602103,1.227144 -2.446222,3.047768 -2.446222,5.264046 0,0.068 0.03101,0.139097 0.08958,0.185462 0.05513,0.04946 0.130924,0.07728 0.210168,0.07728"
       style="fill:#191412;fill-opacity:1;fill-rule:nonzero;stroke:none"
       id="path1300" />
  </g>
</svg>
