<?xml version="1.0" encoding="UTF-8" standalone="no"?>
<!-- Created with Inkscape (http://www.inkscape.org/) -->

<svg
   xmlns:dc="http://purl.org/dc/elements/1.1/"
   xmlns:cc="http://creativecommons.org/ns#"
   xmlns:rdf="http://www.w3.org/1999/02/22-rdf-syntax-ns#"
   xmlns:svg="http://www.w3.org/2000/svg"
   xmlns="http://www.w3.org/2000/svg"
   xmlns:sodipodi="http://sodipodi.sourceforge.net/DTD/sodipodi-0.dtd"
   xmlns:inkscape="http://www.inkscape.org/namespaces/inkscape"
   id="svg2993"
   version="1.1"
   preserveAspectRatio="xMinYMin meet"
   viewBox="0 0 145 130"
   inkscape:version="0.48.3.1 r9886"
   sodipodi:docname="cod_45.svg"
   width="100%"
   height="100%">
  <defs
     id="defs2995" />
  <sodipodi:namedview
     id="base"
     pagecolor="#ffffff"
     bordercolor="#666666"
     borderopacity="1.0"
     inkscape:pageopacity="0.0"
     inkscape:pageshadow="2"
     inkscape:zoom="4.0153846"
     inkscape:cx="24.683908"
     inkscape:cy="65"
     inkscape:current-layer="layer1"
     showgrid="true"
     inkscape:document-units="px"
     inkscape:grid-bbox="true"
     inkscape:window-width="1366"
     inkscape:window-height="692"
     inkscape:window-x="0"
     inkscape:window-y="24"
     inkscape:window-maximized="1" />
  <metadata
     id="metadata2998">
    <rdf:RDF>
      <cc:Work
         rdf:about="">
        <dc:format>image/svg+xml</dc:format>
        <dc:type
           rdf:resource="http://purl.org/dc/dcmitype/StillImage" />
        <dc:title></dc:title>
      </cc:Work>
    </rdf:RDF>
  </metadata>
  <g
     id="layer1"
     inkscape:label="Layer 1"
     inkscape:groupmode="layer"
     transform="translate(0,66)">
    <path
       inkscape:connector-curvature="0"
       d="m 72.501378,63.236512 c -39.508369,0 -71.65207279,-28.817795 -71.65207279,-64.2411486 0,-35.4202634 32.14370379,-64.2380574 71.65207279,-64.2380574 39.511122,0 71.653452,28.817794 71.653452,64.2380574 0,35.4233536 -32.14233,64.2411486 -71.653452,64.2411486 z M 72.501378,-66 C 32.527528,-66 0,-36.845281 0,-1.0046366 0,34.836008 32.527528,64 72.501378,64 112.48074,64 145,34.836008 145,-1.0046366 145,-36.845281 112.48074,-66 72.501378,-66"
       style="fill:#191412;fill-opacity:1;fill-rule:nonzero;stroke:none"
       id="path1070" />
    <path
       inkscape:connector-curvature="0"
       d="m 72.501378,45.305371 c -28.52873,0 -51.653605,-20.731626 -51.653605,-46.3100076 0,-25.5721994 23.124875,-46.3038254 51.653605,-46.3038254 28.531482,0 51.654982,20.731626 51.654982,46.3038254 0,25.5783816 -23.1235,46.3100076 -51.654982,46.3100076 z m 0,-108.764534 c -38.478866,0 -69.6761031,27.955394 -69.6761031,62.4545264 0,34.4991326 31.1972371,62.4637996 69.6761031,62.4637996 38.482652,0 69.675072,-27.964667 69.675072,-62.4637996 0,-34.4991324 -31.19242,-62.4545264 -69.675072,-62.4545264"
       style="fill:#c13339;fill-opacity:1;fill-rule:nonzero;stroke:none"
       id="path1072" />
    <path
       inkscape:connector-curvature="0"
       d="m 99.99785,9.7645576 -54.729021,0 0,-39.3427966 c 9.032266,-0.463657 18.326731,-0.930404 27.365888,-0.930404 9.034678,0 18.330866,0.466747 27.363133,0.930404 l 0,39.3427966 z m 0,6.7106544 -54.988809,0 0,-4.85912 54.988809,0 0,4.85912 z m -2.322928,10.877381 c 0,0.924222 -0.518196,1.152959 -1.292046,1.152959 l -2.324306,0 c -0.772816,0 -1.286878,-0.460565 -1.286878,-1.152959 l 0,-9.71824 4.90323,0 0,9.71824 z m -7.487323,0 c 0,0.924222 -0.516818,1.152959 -1.290668,1.152959 l -2.322927,0 c -1.035016,0 -1.549078,-0.460565 -1.549078,-1.152959 l 0,-3.699979 -9.035022,0 c -0.514063,1.15605 -2.067275,1.613525 -3.355187,1.613525 -1.550455,0 -2.579958,-0.686212 -3.357942,-1.613525 l -9.290676,0 0,3.699979 c 0,0.924222 -0.518196,1.152959 -1.292046,1.152959 l -2.324306,0 c -1.033637,0 -1.290668,-0.460565 -1.290668,-1.152959 l 0,-9.71824 4.90702,0 0,3.934898 9.290676,0 c 0.514062,-0.695484 1.807487,-1.387878 3.357942,-1.387878 1.550456,0 2.841124,0.692394 3.355187,1.613524 l 9.035022,0 0,-4.160544 5.162673,0 0,9.71824 z m -37.945854,0 c 0,0.924222 -0.518197,1.152959 -1.295836,1.152959 l -2.323272,0 c -0.775228,0 -1.28929,-0.460565 -1.28929,-1.152959 l 0,-9.71824 4.908398,0 0,9.71824 z m 20.259633,-74.661055 c -28.52873,0 -51.653605,20.731626 -51.653605,46.3038254 0,25.5783816 23.124875,46.3100076 51.653605,46.3100076 28.531482,0 51.654982,-20.731626 51.654982,-46.3100076 0,-25.5721994 -23.1235,-46.3038254 -51.654982,-46.3038254"
       style="fill:#ffffff;fill-opacity:1;fill-rule:nonzero;stroke:none"
       id="path1074" />
    <path
       inkscape:connector-curvature="0"
       d="m 45.009041,16.475212 54.988809,0 0,-4.858749 -54.988809,0 0,4.858749 z"
       style="fill:#191412;fill-opacity:1;fill-rule:nonzero;stroke:none"
       id="path1076" />
    <path
       inkscape:connector-curvature="0"
       d="m 47.333347,27.352593 c 0,0.692394 0.514062,1.152959 1.28929,1.152959 l 2.323272,0 c 0.777639,0 1.295836,-0.228737 1.295836,-1.152959 l 0,-9.71824 -4.908398,0 0,9.71824"
       style="fill:#191412;fill-opacity:1;fill-rule:nonzero;stroke:none"
       id="path1078" />
    <path
       inkscape:connector-curvature="0"
       d="m 92.771692,27.352593 c 0,0.692394 0.514062,1.152959 1.286878,1.152959 l 2.324306,0 c 0.77385,0 1.292046,-0.228737 1.292046,-1.152959 l 0,-9.71824 -4.90323,0 0,9.71824"
       style="fill:#191412;fill-opacity:1;fill-rule:nonzero;stroke:none"
       id="path1080" />
    <path
       inkscape:connector-curvature="0"
       d="m 85.024926,21.794897 -9.035022,0 c -0.514063,-0.92113 -1.804731,-1.613524 -3.355187,-1.613524 -1.550455,0 -2.84388,0.692394 -3.357942,1.387878 l -9.290676,0 0,-3.934898 -4.90702,0 0,9.71824 c 0,0.692394 0.257031,1.152959 1.290668,1.152959 l 2.324306,0 c 0.77385,0 1.292046,-0.228737 1.292046,-1.152959 l 0,-3.699979 9.290676,0 c 0.777984,0.927313 1.807487,1.613525 3.357942,1.613525 1.287912,0 2.841124,-0.457475 3.355187,-1.613525 l 9.035022,0 0,3.699979 c 0,0.692394 0.514062,1.152959 1.549078,1.152959 l 2.322927,0 c 0.77385,0 1.290668,-0.228737 1.290668,-1.152959 l 0,-9.71824 -5.162673,0 0,4.160544"
       style="fill:#191412;fill-opacity:1;fill-rule:nonzero;stroke:none"
       id="path1082" />
    <path
       inkscape:connector-curvature="0"
       d="m 50.341576,-25.278598 0,30.4900491 44.583527,0 0,-30.4900491 c -7.415658,-0.367834 -14.940536,-0.68003 -22.290386,-0.68003 -7.352605,0 -14.877484,0.312196 -22.293141,0.68003"
       style="fill:#e95b1d;fill-opacity:1;fill-rule:nonzero;stroke:none"
       id="path1084" />
    <path
       inkscape:connector-curvature="0"
       d="m 94.925103,5.2114511 -44.583527,0 0,-30.4900491 c 7.415657,-0.367834 14.940536,-0.68003 22.293141,-0.68003 7.34985,0 14.874728,0.312196 22.290386,0.68003 l 0,30.4900491 z m -49.656274,-34.7896901 0,39.3427966 54.729021,0 0,-39.3427966 c -9.032267,-0.463657 -18.328455,-0.930404 -27.363133,-0.930404 -9.039157,0 -18.333622,0.466747 -27.365888,0.930404"
       style="fill:#191412;fill-opacity:1;fill-rule:nonzero;stroke:none"
       id="path1086" />
  </g>
</svg>
