<?xml version="1.0" encoding="UTF-8" standalone="no"?>
<!-- Created with Inkscape (http://www.inkscape.org/) -->

<svg
   xmlns:dc="http://purl.org/dc/elements/1.1/"
   xmlns:cc="http://creativecommons.org/ns#"
   xmlns:rdf="http://www.w3.org/1999/02/22-rdf-syntax-ns#"
   xmlns:svg="http://www.w3.org/2000/svg"
   xmlns="http://www.w3.org/2000/svg"
   xmlns:sodipodi="http://sodipodi.sourceforge.net/DTD/sodipodi-0.dtd"
   xmlns:inkscape="http://www.inkscape.org/namespaces/inkscape"
   id="svg2993"
   version="1.1"
   preserveAspectRatio="xMinYMin meet"
   viewBox="0 0 145 130"
   inkscape:version="0.48.3.1 r9886"
   sodipodi:docname="cod_1.svg"
   width="100%"
   height="100%">
  <defs
     id="defs2995" />
  <sodipodi:namedview
     id="base"
     pagecolor="#ffffff"
     bordercolor="#666666"
     borderopacity="1.0"
     inkscape:pageopacity="0.0"
     inkscape:pageshadow="2"
     inkscape:zoom="2.75"
     inkscape:cx="3.4954161"
     inkscape:cy="88.059158"
     inkscape:current-layer="layer1"
     showgrid="true"
     inkscape:document-units="px"
     inkscape:grid-bbox="true"
     inkscape:window-width="1366"
     inkscape:window-height="692"
     inkscape:window-x="0"
     inkscape:window-y="24"
     inkscape:window-maximized="1" />
  <metadata
     id="metadata2998">
    <rdf:RDF>
      <cc:Work
         rdf:about="">
        <dc:format>image/svg+xml</dc:format>
        <dc:type
           rdf:resource="http://purl.org/dc/dcmitype/StillImage" />
        <dc:title></dc:title>
      </cc:Work>
    </rdf:RDF>
  </metadata>
  <g
     id="layer1"
     inkscape:label="Layer 1"
     inkscape:groupmode="layer"
     transform="translate(0,66)">
    <path
       inkscape:connector-curvature="0"
       d="m 144.07591,60.044213 c -1.35722,2.389702 -3.78799,3.818626 -6.506,3.818626 l -129.3210842,0 c -2.718014,0 -5.1487875,-1.426 -6.5049366,-3.818626 -1.3575564,-2.383854 -1.3575564,-5.251935 0,-7.641638 L 31.749757,-0.46103954 66.402461,-61.502413 c 1.360803,-2.390067 3.787985,-3.815337 6.505999,-3.815337 2.714424,0 5.145197,1.42527 6.506,3.815337 l 64.66145,113.904988 c 1.35721,2.389703 1.35721,5.25486 0,7.641638 z M 79.945855,-61.813049 c -1.468518,-2.583758 -4.10036,-4.129627 -7.037395,-4.129627 -2.933444,0 -5.568876,1.545869 -7.037394,4.129627 L 31.218362,-0.77094431 1.2139304,52.091209 c -1.47138992,2.587047 -1.47138992,5.683171 0,8.266929 1.4670814,2.587047 4.0967689,4.129993 7.0348954,4.129993 l 129.3210842,0 c 2.93703,0 5.56887,-1.542946 7.0338,-4.129993 1.47211,-2.588143 1.47211,-5.679882 0,-8.266929 L 79.945855,-61.813049"
       style="fill:#191412;fill-opacity:1;fill-rule:nonzero;stroke:none"
       id="path1688" />
    <path
       inkscape:connector-curvature="0"
       d="m 23.30095,47.387454 49.60751,-87.390223 49.60645,87.390223 -99.21396,0 z M 77.425319,-60.332961 c -2.007094,-3.530283 -7.023033,-3.530283 -9.030126,0 C 46.841378,-22.365972 25.286846,15.608693 3.7355581,53.574586 1.7284644,57.104869 4.2364195,61.52759 8.2488258,61.52759 l 129.3210842,0 c 4.01059,0 6.51677,-4.422721 4.51326,-7.953004 C 120.52936,15.608693 98.975543,-22.365972 77.425319,-60.332961"
       style="fill:#c13339;fill-opacity:1;fill-rule:nonzero;stroke:none"
       id="path1690" />
    <path
       inkscape:connector-curvature="0"
       d="m 81.945767,-3.5162328 0,44.0587378 -0.459585,-0.459741 -8.900867,-8.869562 -8.717752,8.865177 -0.463175,0.475455 0,-22.957804 -11.827131,0 0,-7.9515426 11.827131,0 0,-13.1563348 0.07526,-0.077096 8.908048,-9.2459795 0.197335,-0.204654 0.190153,0.200999 9.091164,9.245249 0.07899,0.077096 z M 23.30095,47.387454 l 99.21396,0 -49.60645,-87.390223 -49.60751,87.390223"
       style="fill:#ffffff;fill-opacity:1;fill-rule:nonzero;stroke:none"
       id="path1692" />
    <path
       inkscape:connector-curvature="0"
       d="m 72.585315,-13.039592 -0.197334,0.204654 -8.908049,9.2459799 -0.07526,0.077096 0,13.1563348 -11.827131,0 0,7.9515422 11.827131,0 0,22.957805 0.463175,-0.475456 8.717752,-8.865177 8.900868,8.869563 0.459585,0.459741 0,-44.0587385 -0.07899,-0.077096 -9.091164,-9.2452484 -0.190153,-0.201"
       style="fill:#191412;fill-opacity:1;fill-rule:nonzero;stroke:none"
       id="path1694" />
  </g>
</svg>
