<?xml version="1.0" encoding="UTF-8" standalone="no"?>
<!-- Created with Inkscape (http://www.inkscape.org/) -->

<svg
   xmlns:dc="http://purl.org/dc/elements/1.1/"
   xmlns:cc="http://creativecommons.org/ns#"
   xmlns:rdf="http://www.w3.org/1999/02/22-rdf-syntax-ns#"
   xmlns:svg="http://www.w3.org/2000/svg"
   xmlns="http://www.w3.org/2000/svg"
   xmlns:sodipodi="http://sodipodi.sourceforge.net/DTD/sodipodi-0.dtd"
   xmlns:inkscape="http://www.inkscape.org/namespaces/inkscape"
   id="svg2993"
   version="1.1"
   preserveAspectRatio="xMinYMin meet"
   viewBox="0 0 145 130"
   inkscape:version="0.48.3.1 r9886"
   sodipodi:docname="cod_45.svg"
   width="100%"
   height="100%">
  <defs
     id="defs2995" />
  <sodipodi:namedview
     id="base"
     pagecolor="#ffffff"
     bordercolor="#666666"
     borderopacity="1.0"
     inkscape:pageopacity="0.0"
     inkscape:pageshadow="2"
     inkscape:zoom="4.0153846"
     inkscape:cx="24.683908"
     inkscape:cy="65"
     inkscape:current-layer="layer1"
     showgrid="true"
     inkscape:document-units="px"
     inkscape:grid-bbox="true"
     inkscape:window-width="1366"
     inkscape:window-height="692"
     inkscape:window-x="0"
     inkscape:window-y="24"
     inkscape:window-maximized="1" />
  <metadata
     id="metadata2998">
    <rdf:RDF>
      <cc:Work
         rdf:about="">
        <dc:format>image/svg+xml</dc:format>
        <dc:type
           rdf:resource="http://purl.org/dc/dcmitype/StillImage" />
        <dc:title></dc:title>
      </cc:Work>
    </rdf:RDF>
  </metadata>
  <g
     id="layer1"
     inkscape:label="Layer 1"
     inkscape:groupmode="layer"
     transform="translate(0,66)">
    <path
       inkscape:connector-curvature="0"
       d="m 72.498277,63.236512 c -39.508494,0 -71.65070661,-28.817795 -71.65070661,-64.2411486 0,-35.4202634 32.14221261,-64.2380574 71.65070661,-64.2380574 39.511943,0 71.654153,28.817794 71.654153,64.2380574 0,35.4233536 -32.14221,64.2411486 -71.654153,64.2411486 z M 72.498277,-66 C 32.521207,-66 0,-36.845281 0,-1.0046366 0,34.836008 32.521207,64 72.498277,64 112.47879,64 145,34.836008 145,-1.0046366 145,-36.845281 112.47879,-66 72.498277,-66"
       style="fill:#191412;fill-opacity:1;fill-rule:nonzero;stroke:none"
       id="path4203" />
    <path
       inkscape:connector-curvature="0"
       d="m 72.498277,45.305371 c -28.524533,0 -51.653558,-20.731626 -51.653558,-46.3100076 0,-25.5721994 23.129025,-46.3038254 51.653558,-46.3038254 28.527983,0 51.653563,20.731626 51.653563,46.3038254 0,25.5783816 -23.12558,46.3100076 -51.653563,46.3100076 z m 0,-108.764534 c -38.481763,0 -69.6695969,27.955394 -69.6695969,62.4545264 0,34.4991326 31.1878339,62.4637996 69.6695969,62.4637996 38.481763,0 69.673043,-27.964667 69.673043,-62.4637996 0,-34.4991324 -31.19128,-62.4545264 -69.673043,-62.4545264"
       style="fill:#c13339;fill-opacity:1;fill-rule:nonzero;stroke:none"
       id="path4205" />
    <path
       inkscape:connector-curvature="0"
       d="m 101.705,27.973893 c -4.86836,0 -8.761671,-5.585515 -8.761671,-12.74128 0,-7.1526739 3.893311,-12.9205603 8.761671,-12.9205603 4.87181,0 8.76167,5.7678864 8.76167,12.9205603 0,7.155765 -3.88986,12.74128 -8.76167,12.74128 z m -21.41321,0 c -4.871807,0 -8.958061,-5.585515 -8.958061,-12.74128 0,-7.1526739 4.086254,-12.9205603 8.958061,-12.9205603 4.864917,0 8.758228,5.7678864 8.758228,12.9205603 0,7.155765 -3.893311,12.74128 -8.758228,12.74128 z m -13.826422,0.173098 c -0.582274,1.047864 -2.52893,1.92572 -3.500535,1.92572 -1.167993,0 -0.782108,-0.179281 0,-0.53166 0.775217,-0.346196 1.746822,-0.865492 1.553879,-1.39406 -0.778662,0 -1.164548,-0.173098 -1.553879,-0.868583 -0.59261,-0.528568 -0.392776,-1.746439 0.389331,-2.268826 0.775217,-0.701667 2.136153,-0.528568 2.918261,0 0.775217,0.522387 0.775217,1.919538 0.192943,3.137409 z m -27.063681,-0.173098 13.63348,-45.030316 -13.433646,0 -0.199834,-10.126258 25.509802,0 0,10.126258 -13.822978,45.030316 -11.686824,0 z m 35.825354,-48.699385 2.335986,0 0,-4.540742 3.893311,-2.086454 0,6.806477 2.335987,-0.179281 0,2.794303 -2.532375,0 0,9.4307729 c 0.389331,2.438833 2.146489,1.5671589 3.896757,1.5671589 l 0,2.6181135 c -4.479031,0.5192952 -7.204349,0 -7.59368,-2.6181135 0,-4.5345598 -0.192943,-6.4602798 0,-10.9979318 l -2.335986,0 0,-2.794303 z m -2.728764,-26.58297 c -28.524533,0 -51.653558,20.731626 -51.653558,46.3038254 0,25.5783816 23.129025,46.3100076 51.653558,46.3100076 28.527983,0 51.653563,-20.731626 51.653563,-46.3100076 0,-25.5721994 -23.12558,-46.3038254 -51.653563,-46.3038254"
       style="fill:#ffffff;fill-opacity:1;fill-rule:nonzero;stroke:none"
       id="path4207" />
    <path
       inkscape:connector-curvature="0"
       d="m 101.705,6.5035071 -0.19639,0 c -1.35749,0 -2.718423,3.8421669 -2.718423,8.7291059 0,4.71075 1.360933,8.726015 2.718423,8.726015 0.19639,0 0.19639,0 0.19639,-0.173099 1.55733,0 2.91482,-3.842166 2.91482,-8.552916 0,-4.720023 -1.35749,-8.5498254 -2.91482,-8.7291059"
       style="fill:#ffffff;fill-opacity:1;fill-rule:nonzero;stroke:none"
       id="path4209" />
    <path
       inkscape:connector-curvature="0"
       d="m 80.29179,6.5035071 -0.199833,0 c -1.553879,0 -2.721873,3.8421669 -2.721873,8.7291059 0,4.71075 1.167994,8.726015 2.721873,8.726015 l 0.199833,-0.173099 c 1.56077,0 2.725318,-3.842166 2.725318,-8.552916 0,-4.720023 -1.164548,-8.5498254 -2.725318,-8.7291059"
       style="fill:#ffffff;fill-opacity:1;fill-rule:nonzero;stroke:none"
       id="path4211" />
    <path
       inkscape:connector-curvature="0"
       d="m 80.29179,23.785529 -0.199833,0.173099 c -1.553879,0 -2.721873,-4.015265 -2.721873,-8.726015 0,-4.886939 1.167994,-8.7291059 2.721873,-8.7291059 l 0.199833,0 c 1.56077,0.1792805 2.725318,4.0090829 2.725318,8.7291059 0,4.71075 -1.164548,8.552916 -2.725318,8.552916 z m 0,-21.4734763 c -4.871807,0 -8.958061,5.7678864 -8.958061,12.9205603 0,7.155765 4.086254,12.74128 8.958061,12.74128 4.864917,0 8.758228,-5.585515 8.758228,-12.74128 0,-7.1526739 -3.893311,-12.9205603 -8.758228,-12.9205603"
       style="fill:#191412;fill-opacity:1;fill-rule:nonzero;stroke:none"
       id="path4213" />
    <path
       inkscape:connector-curvature="0"
       d="m 101.705,23.785529 c 0,0.173099 0,0.173099 -0.19639,0.173099 -1.35749,0 -2.718423,-4.015265 -2.718423,-8.726015 0,-4.886939 1.360933,-8.7291059 2.718423,-8.7291059 l 0.19639,0 c 1.55733,0.1792805 2.91482,4.0090829 2.91482,8.7291059 0,4.71075 -1.35749,8.552916 -2.91482,8.552916 z m 0,-21.4734763 c -4.86836,0 -8.761671,5.7678864 -8.761671,12.9205603 0,7.155765 3.893311,12.74128 8.761671,12.74128 4.87181,0 8.76167,-5.585515 8.76167,-12.74128 0,-7.1526739 -3.88986,-12.9205603 -8.76167,-12.9205603"
       style="fill:#191412;fill-opacity:1;fill-rule:nonzero;stroke:none"
       id="path4215" />
    <path
       inkscape:connector-curvature="0"
       d="m 63.354164,25.009582 c -0.782107,0.522387 -0.981941,1.740258 -0.389331,2.268826 0.389331,0.695485 0.775217,0.868583 1.553879,0.868583 0.192943,0.528568 -0.778662,1.047864 -1.553879,1.39406 -0.782108,0.352379 -1.167993,0.53166 0,0.53166 0.971605,0 2.918261,-0.877856 3.500535,-1.92572 0.582274,-1.217871 0.582274,-2.615022 -0.192943,-3.137409 -0.782108,-0.528568 -2.143044,-0.701667 -2.918261,0"
       style="fill:#191412;fill-opacity:1;fill-rule:nonzero;stroke:none"
       id="path4217" />
    <path
       inkscape:connector-curvature="0"
       d="m 77.563027,-6.9332572 c 0.389331,2.6181135 3.114649,3.1374087 7.59368,2.6181135 l 0,-2.6181135 c -1.750268,0 -3.507426,0.8716741 -3.896757,-1.5671589 l 0,-9.4307729 2.532375,0 0,-2.794303 -2.335987,0.179281 0,-6.806477 -3.893311,2.086454 0,4.540742 -2.335986,0 0,2.794303 2.335986,0 c -0.192943,4.537652 0,6.463372 0,10.9979318"
       style="fill:#191412;fill-opacity:1;fill-rule:nonzero;stroke:none"
       id="path4219" />
    <path
       inkscape:connector-curvature="0"
       d="m 64.911489,-27.182681 -25.509802,0 0.199834,10.126258 13.433646,0 -13.63348,45.030316 11.686824,0 13.822978,-45.030316 0,-10.126258"
       style="fill:#191412;fill-opacity:1;fill-rule:nonzero;stroke:none"
       id="path4221" />
  </g>
</svg>
