<?xml version="1.0" encoding="UTF-8" standalone="no"?>
<!-- Created with Inkscape (http://www.inkscape.org/) -->

<svg
   xmlns:dc="http://purl.org/dc/elements/1.1/"
   xmlns:cc="http://creativecommons.org/ns#"
   xmlns:rdf="http://www.w3.org/1999/02/22-rdf-syntax-ns#"
   xmlns:svg="http://www.w3.org/2000/svg"
   xmlns="http://www.w3.org/2000/svg"
   xmlns:sodipodi="http://sodipodi.sourceforge.net/DTD/sodipodi-0.dtd"
   xmlns:inkscape="http://www.inkscape.org/namespaces/inkscape"
   id="svg2993"
   version="1.1"
   preserveAspectRatio="xMinYMin meet"
   viewBox="0 0 145 130"
   inkscape:version="0.48.4 r9939"
   sodipodi:docname="cod_349.svg"
   width="100%"
   height="100%">
  <defs
     id="defs2995">
    <clipPath
       clipPathUnits="userSpaceOnUse"
       id="clipPath3570">
      <path
         inkscape:connector-curvature="0"
         d="m 43.696,200.037 109.817,0 0,135.081 -109.817,0 0,-135.081 z"
         id="path3572" />
    </clipPath>
  </defs>
  <sodipodi:namedview
     id="base"
     pagecolor="#ffffff"
     bordercolor="#666666"
     borderopacity="1.0"
     inkscape:pageopacity="0.0"
     inkscape:pageshadow="2"
     inkscape:zoom="0.70597302"
     inkscape:cx="3.0748299"
     inkscape:cy="-58.273586"
     inkscape:current-layer="layer1"
     showgrid="true"
     inkscape:document-units="px"
     inkscape:grid-bbox="true"
     inkscape:window-width="1311"
     inkscape:window-height="744"
     inkscape:window-x="55"
     inkscape:window-y="24"
     inkscape:window-maximized="1" />
  <metadata
     id="metadata2998">
    <rdf:RDF>
      <cc:Work
         rdf:about="">
        <dc:format>image/svg+xml</dc:format>
        <dc:type
           rdf:resource="http://purl.org/dc/dcmitype/StillImage" />
        <dc:title></dc:title>
      </cc:Work>
    </rdf:RDF>
  </metadata>
  <g
     id="layer1"
     inkscape:label="Layer 1"
     inkscape:groupmode="layer"
     transform="translate(0,66)">
    <g
       id="g4966"
       transform="matrix(2.8210117,0,0,-2.5309063,72.5,63.240728)">
      <path
         inkscape:connector-curvature="0"
         d="m 0,0 c -14.004,0 -25.399,11.387 -25.399,25.384 0,13.995 11.395,25.382 25.399,25.382 14.006,0 25.399,-11.387 25.399,-25.382 C 25.399,11.387 14.006,0 0,0 m 0,51.065 c -14.171,0 -25.7,-11.521 -25.7,-25.681 C -25.7,11.221 -14.171,-0.3 0,-0.3 c 14.172,0 25.7,11.521 25.7,25.684 0,14.16 -11.528,25.681 -25.7,25.681"
         style="fill:#1f1916;fill-opacity:1;fill-rule:nonzero;stroke:none"
         id="path4968" />
    </g>
    <g
       id="g4970"
       transform="matrix(2.8210117,0,0,-2.5309063,76.466613,26.367955)">
      <path
         inkscape:connector-curvature="0"
         d="M 0,0 C -0.201,-0.066 -0.401,0 -0.468,0.069 -0.535,0.203 -0.603,0.27 -0.603,0.47 l 1.139,6.895 -21.774,0 0,6.898 21.774,0 -1.139,6.894 c 0,0.202 0.068,0.27 0.135,0.404 0.067,0.066 0.267,0.131 0.468,0.066 L 18.427,10.848 0,0 z m -1.406,35.492 c -13.639,0 -24.698,-11.047 -24.698,-24.677 0,-13.631 11.059,-24.681 24.698,-24.681 13.641,0 24.698,11.05 24.698,24.681 0,13.63 -11.057,24.677 -24.698,24.677"
         style="fill:#00458f;fill-opacity:1;fill-rule:nonzero;stroke:none"
         id="path4972" />
    </g>
    <g
       id="g4974"
       transform="matrix(2.8210117,0,0,-2.5309063,76.466613,-28.368967)">
      <path
         inkscape:connector-curvature="0"
         d="M 0,0 C -0.201,0.065 -0.401,0 -0.468,-0.066 -0.535,-0.2 -0.603,-0.268 -0.603,-0.471 l 1.139,-6.894 -21.774,0 0,-6.898 21.774,0 -1.139,-6.894 c 0,-0.2 0.068,-0.267 0.135,-0.401 0.067,-0.069 0.267,-0.135 0.468,-0.069 L 18.427,-10.78 0,0 z"
         style="fill:#ffffff;fill-opacity:1;fill-rule:nonzero;stroke:none"
         id="path4976" />
    </g>
  </g>
</svg>
