<?xml version="1.0" encoding="UTF-8" standalone="no"?>
<!-- Created with Inkscape (http://www.inkscape.org/) -->

<svg
   xmlns:dc="http://purl.org/dc/elements/1.1/"
   xmlns:cc="http://creativecommons.org/ns#"
   xmlns:rdf="http://www.w3.org/1999/02/22-rdf-syntax-ns#"
   xmlns:svg="http://www.w3.org/2000/svg"
   xmlns="http://www.w3.org/2000/svg"
   xmlns:sodipodi="http://sodipodi.sourceforge.net/DTD/sodipodi-0.dtd"
   xmlns:inkscape="http://www.inkscape.org/namespaces/inkscape"
   id="svg2993"
   version="1.1"
   preserveAspectRatio="xMinYMin meet"
   viewBox="0 0 145 130"
   inkscape:version="0.48.3.1 r9886"
   sodipodi:docname="cod_45.svg"
   width="100%"
   height="100%">
  <defs
     id="defs2995" />
  <sodipodi:namedview
     id="base"
     pagecolor="#ffffff"
     bordercolor="#666666"
     borderopacity="1.0"
     inkscape:pageopacity="0.0"
     inkscape:pageshadow="2"
     inkscape:zoom="1"
     inkscape:cx="59.333669"
     inkscape:cy="37.333741"
     inkscape:current-layer="layer1"
     showgrid="true"
     inkscape:document-units="px"
     inkscape:grid-bbox="true"
     inkscape:window-width="1366"
     inkscape:window-height="692"
     inkscape:window-x="0"
     inkscape:window-y="24"
     inkscape:window-maximized="1" />
  <metadata
     id="metadata2998">
    <rdf:RDF>
      <cc:Work
         rdf:about="">
        <dc:format>image/svg+xml</dc:format>
        <dc:type
           rdf:resource="http://purl.org/dc/dcmitype/StillImage" />
        <dc:title></dc:title>
      </cc:Work>
    </rdf:RDF>
  </metadata>
  <g
     id="layer1"
     inkscape:label="Layer 1"
     inkscape:groupmode="layer"
     transform="translate(0,66)">
    <path
       inkscape:connector-curvature="0"
       d="m 72.5,63.239603 c -39.507556,0 -71.65244975,-28.817795 -71.65244975,-64.2411485 0,-35.4202625 32.14489375,-64.2380575 71.65244975,-64.2380575 39.50756,0 71.65245,28.817795 71.65245,64.2380575 0,35.4233535 -32.14489,64.2411485 -71.65245,64.2411485 z M 72.5,-66 C 32.52388,-66 0,-36.839099 0,-1.0015455 0,34.84219 32.52388,64 72.5,64 112.47957,64 145,34.84219 145,-1.0015455 145,-36.839099 112.47957,-66 72.5,-66"
       style="fill:#191412;fill-opacity:1;fill-rule:nonzero;stroke:none"
       id="path1394" />
    <path
       inkscape:connector-curvature="0"
       d="m 72.5,45.305371 c -28.527301,0 -51.655776,-20.731626 -51.655776,-46.3069165 0,-25.5721995 23.128475,-46.3007345 51.655776,-46.3007345 28.5273,0 51.64889,20.728535 51.64889,46.3007345 0,25.5752905 -23.12159,46.3069165 -51.64889,46.3069165 z m 0,-108.764534 c -38.480849,0 -69.6679418,27.961576 -69.6679418,62.4576175 0,34.4991325 31.1870928,62.4637995 69.6679418,62.4637995 38.48085,0 69.67139,-27.964667 69.67139,-62.4637995 0,-34.4960415 -31.19054,-62.4576175 -69.67139,-62.4576175"
       style="fill:#c13339;fill-opacity:1;fill-rule:nonzero;stroke:none"
       id="path1396" />
    <path
       inkscape:connector-curvature="0"
       d="m 40.382669,10.342583 c -1.753671,0 -2.925082,1.224053 -2.925082,2.621204 0,1.567159 1.171411,2.611932 2.925082,2.611932 1.553842,0 2.921636,-1.044773 2.921636,-2.611932 0,-1.397151 -1.367794,-2.621204 -2.921636,-2.621204"
       style="fill:#ffffff;fill-opacity:1;fill-rule:nonzero;stroke:none"
       id="path1398" />
    <path
       inkscape:connector-curvature="0"
       d="m 94.884285,10.342583 c -1.550397,0 -2.914746,1.224053 -2.914746,2.621204 0,1.567159 1.364349,2.611932 2.914746,2.611932 1.753671,0 2.928527,-1.044773 2.928527,-2.611932 0,-1.397151 -1.174856,-2.621204 -2.928527,-2.621204"
       style="fill:#ffffff;fill-opacity:1;fill-rule:nonzero;stroke:none"
       id="path1400" />
    <path
       inkscape:connector-curvature="0"
       d="m 34.928717,-9.211356 -2.921636,8.033621 14.99406,0 0,-8.033621 -12.072424,0"
       style="fill:#ffffff;fill-opacity:1;fill-rule:nonzero;stroke:none"
       id="path1402" />
    <path
       inkscape:connector-curvature="0"
       d="m 51.087297,-20.546211 62.108893,0 0,26.5242408 -62.108893,0 0,-26.5242408 z M 113.1893,9.8201964 c -3.30062,1.0447726 -6.61502,1.9257196 -9.73304,2.9643106 -0.39277,-1.919538 -0.39277,-3.4866969 -2.53232,-5.0600378 l 12.26536,0 0,2.0957272 z M 94.884285,18.549302 c -3.307514,0 -6.029321,-2.448106 -6.029321,-5.585515 0,-2.9704922 2.721807,-5.4124162 6.029321,-5.4124162 3.514232,0 6.236045,2.441924 6.236045,5.4124162 0,3.137409 -2.721813,5.585515 -6.236045,5.585515 z M 48.758257,12.784507 c 0.189631,-4.0183563 -4.096493,-7.5019619 -8.375588,-7.5019619 -0.392767,0 -0.585706,0 -0.975028,0.1730984 -3.889773,0.3492879 -7.40056,3.3105072 -7.586608,7.3288635 l -2.732144,0 0,-12.73818891 4.871692,-11.69341609 15.180107,0 0,19.3715672 39.714276,0 c -1.36435,1.5733409 -2.142993,1.9226288 -2.339377,5.0600378 l -37.75733,0 z m -8.375588,5.764795 c -3.507342,0 -6.232595,-2.448106 -6.232595,-5.585515 0,-2.9704922 2.725253,-5.4124162 6.232595,-5.4124162 3.307513,0 6.036211,2.441924 6.036211,5.4124162 0,3.137409 -2.728698,5.585515 -6.036211,5.585515 z M 72.5,-47.30228 c -28.527301,0 -51.655776,20.728535 -51.655776,46.3007345 0,25.5752905 23.128475,46.3069165 51.655776,46.3069165 28.5273,0 51.64889,-20.731626 51.64889,-46.3069165 C 124.14889,-26.573745 101.0273,-47.30228 72.5,-47.30228"
       style="fill:#ffffff;fill-opacity:1;fill-rule:nonzero;stroke:none"
       id="path1404" />
    <path
       inkscape:connector-curvature="0"
       d="m 68.803165,-1.3508334 c 0.975027,0 1.946609,-0.8716741 1.946609,-3.1404998 0,-2.0926362 -0.971582,-3.1435908 -1.946609,-2.9643103 -0.778644,0 -1.750226,1.217871 -1.750226,2.9643103 0,1.9195378 0.775199,3.1404998 1.750226,3.1404998"
       style="fill:#191412;fill-opacity:1;fill-rule:nonzero;stroke:none"
       id="path1406" />
    <path
       inkscape:connector-curvature="0"
       d="m 102.48123,2.4882421 c -3.696836,0.352379 -5.843274,0 -6.229151,-1.74643931 l 0,-7.85434049 -1.750226,0 0,-1.7402573 1.750226,0 0,-3.149773 3.11802,-1.567159 0,4.716932 1.943161,0 0,1.7402573 -1.943161,0 0,6.63646951 c 0.189355,1.74025729 1.750231,1.21787098 3.111131,1.21787098 l 0,1.74643931 z M 86.515587,2.8406211 C 83.018581,2.6613406 81.650786,0.39869701 81.650786,-1.7063034 l 3.118021,-0.3369236 c 0.18963,2.08954509 2.914746,3.1343177 3.114575,-0.7047579 0,-3.1404998 -1.94661,-3.6690681 -3.114575,-2.0988182 l -2.339377,-0.1700074 1.16452,-8.5529165 7.014685,0 0,2.618114 -3.896664,0 -0.58226,2.9704921 c 1.946609,-1.2302351 5.44706,0.5254774 5.261013,4.8776661 0,3.14977289 -1.367795,5.9440759 -4.875137,5.9440759 z M 80.093499,2.6613406 c -0.58226,0.8716741 -2.139548,1.4033335 -3.310958,1.4033335 -1.164521,0 0.975027,-0.5316594 1.364349,-1.576432 -0.58226,0 -0.968137,0 -1.557288,-0.5223862 -0.385876,-0.5223863 -0.192938,-1.74643939 0.589151,-2.27809881 0.775198,-0.68621157 1.943164,-0.68621157 2.721808,0 0.975027,0.53165942 0.975027,1.92262881 0.192938,2.97358351 z M 68.803165,-11.121621 c 1.946609,-0.173098 4.861355,0.343106 5.64689,3.1405001 2.332486,4.8776661 -0.785535,10.2962646 -5.257568,10.469363 l -0.389322,0 c -3.893219,0.1730985 -6.422088,-3.13740871 -6.621917,-8.3767268 l 0,-1.7464393 c 0,-2.615023 0.199829,-10.475545 6.621917,-10.991749 l 0.389322,0 c 2.721808,0 5.839828,1.740257 6.232595,4.880757 l -3.893219,1.047863 c -0.58915,-1.919537 -1.753671,-2.271916 -2.728698,-1.740257 -0.975027,0.519295 -1.946609,2.092636 -1.750226,3.829802 0.192938,-0.170007 0.971582,-0.513113 1.750226,-0.513113 z m -17.715868,17.0965598 62.108893,0 0,-26.5242408 -62.108893,0 0,26.5242408 z m 0,-26.5211498 0,26.5211498"
       style="fill:#191412;fill-opacity:1;fill-rule:nonzero;stroke:none"
       id="path1408" />
    <path
       inkscape:connector-curvature="0"
       d="m 103.45626,12.784507 c 3.11802,-1.038591 6.43242,-1.919538 9.73304,-2.9643106 l 0,-2.0957272 -12.26536,0 c 2.13955,1.5733409 2.13955,3.1404998 2.53232,5.0600378"
       style="fill:#191412;fill-opacity:1;fill-rule:nonzero;stroke:none"
       id="path1410" />
    <path
       inkscape:connector-curvature="0"
       d="m 47.001141,-1.177735 -14.99406,0 2.921636,-8.033621 12.072424,0 0,8.033621 z m 2.139547,8.9022042 0,-19.3715672 -15.180107,0 -4.871692,11.69341609 0,12.73818891 2.732144,0 c 0.186048,-4.0183563 3.696835,-6.9795756 7.586608,-7.3288635 0.389322,-0.1730984 0.582261,-0.1730984 0.975028,-0.1730984 4.279095,0 8.565081,3.4836056 8.375588,7.5019619 l 37.75733,0 c 0.196246,-3.137409 0.975027,-3.4866969 2.339377,-5.0600378 l -39.714276,0"
       style="fill:#191412;fill-opacity:1;fill-rule:nonzero;stroke:none"
       id="path1412" />
    <path
       inkscape:connector-curvature="0"
       d="m 40.382669,15.575719 c -1.753671,0 -2.925082,-1.044773 -2.925082,-2.611932 0,-1.397151 1.171411,-2.621204 2.925082,-2.621204 1.553842,0 2.921636,1.224053 2.921636,2.621204 0,1.567159 -1.367794,2.611932 -2.921636,2.611932 z m 0,-8.0243482 c -3.507342,0 -6.232595,2.441924 -6.232595,5.4124162 0,3.137409 2.725253,5.585515 6.232595,5.585515 3.307513,0 6.036211,-2.448106 6.036211,-5.585515 0,-2.9704922 -2.728698,-5.4124162 -6.036211,-5.4124162"
       style="fill:#191412;fill-opacity:1;fill-rule:nonzero;stroke:none"
       id="path1414" />
    <path
       inkscape:connector-curvature="0"
       d="m 94.884285,15.575719 c -1.550397,0 -2.914746,-1.044773 -2.914746,-2.611932 0,-1.397151 1.364349,-2.621204 2.914746,-2.621204 1.753671,0 2.928527,1.224053 2.928527,2.621204 0,1.567159 -1.174856,2.611932 -2.928527,2.611932 z m 0,-8.0243482 c -3.307514,0 -6.029321,2.441924 -6.029321,5.4124162 0,3.137409 2.721807,5.585515 6.029321,5.585515 3.514232,0 6.236045,-2.448106 6.236045,-5.585515 0,-2.9704922 -2.721813,-5.4124162 -6.236045,-5.4124162"
       style="fill:#191412;fill-opacity:1;fill-rule:nonzero;stroke:none"
       id="path1416" />
    <path
       inkscape:connector-curvature="0"
       d="m 86.129711,-7.9811209 0.58226,-2.9704921 3.896664,0 0,-2.618114 -7.014685,0 -1.16452,8.5529165 2.339377,0.1700074 c 1.167965,-1.5702499 3.114575,-1.0416816 3.114575,2.0988182 -0.199829,3.8390756 -2.925082,2.79430299 -3.114575,0.7047579 l -3.118021,0.3369236 c 0,2.10500041 1.367795,4.367644 4.864801,4.5469245 3.507342,0 4.875137,-2.79430301 4.875137,-5.9440759 0.186047,-4.3521887 -3.314404,-6.1079012 -5.261013,-4.8776661"
       style="fill:#ffffff;fill-opacity:1;fill-rule:nonzero;stroke:none"
       id="path1418" />
    <path
       inkscape:connector-curvature="0"
       d="m 77.178753,-0.31224291 c -0.782089,0.53165942 -0.975027,1.75571251 -0.589151,2.27809881 0.589151,0.5223862 0.975028,0.5223862 1.557288,0.5223862 -0.389322,1.0447726 -2.52887,1.576432 -1.364349,1.576432 1.17141,0 2.728698,-0.5316594 3.310958,-1.4033335 0.782089,-1.0509547 0.782089,-2.44192409 -0.192938,-2.97358351 -0.778644,-0.68621157 -1.94661,-0.68621157 -2.721808,0"
       style="fill:#ffffff;fill-opacity:1;fill-rule:nonzero;stroke:none"
       id="path1420" />
    <path
       inkscape:connector-curvature="0"
       d="m 68.803165,-7.4556435 c 0.975027,-0.1792805 1.946609,0.8716741 1.946609,2.9643103 0,2.2688257 -0.971582,3.1404998 -1.946609,3.1404998 -0.975027,0 -1.750226,-1.220962 -1.750226,-3.1404998 0,-1.7464393 0.971582,-2.9643103 1.750226,-2.9643103 z m 0,-6.9826665 c 0.975027,-0.531659 2.139548,-0.17928 2.728698,1.740257 l 3.893219,-1.047863 c -0.392767,-3.1405 -3.510787,-4.880757 -6.232595,-4.880757 l -0.389322,0 c -6.422088,0.516204 -6.621917,8.376726 -6.621917,10.991749 l 0,1.7464393 c 0.199829,5.23931809 2.728698,8.5498253 6.621917,8.3767268 l 0.389322,0 c 4.472033,-0.1730984 7.590054,-5.5916969 5.257568,-10.469363 -0.785535,-2.7973941 -3.700281,-3.3135981 -5.64689,-3.1405001 -0.778644,0 -1.557288,0.343106 -1.750226,0.513113 -0.196521,-1.737166 0.775199,-3.310507 1.750226,-3.829802"
       style="fill:#ffffff;fill-opacity:1;fill-rule:nonzero;stroke:none"
       id="path1422" />
    <path
       inkscape:connector-curvature="0"
       d="m 99.370099,-0.47606819 0,-6.63646951 1.943161,0 0,-1.7402573 -1.943161,0 0,-4.716932 -3.11802,1.567159 0,3.149773 -1.750226,0 0,1.7402573 1.750226,0 0,7.85434049 c 0.385877,1.74643931 2.532315,2.09881831 6.229151,1.74643931 l 0,-1.74643931 c -1.3609,0 -2.921638,0.52238631 -3.111131,-1.21787098"
       style="fill:#ffffff;fill-opacity:1;fill-rule:nonzero;stroke:none"
       id="path1424" />
  </g>
</svg>
