<?xml version="1.0" encoding="UTF-8" standalone="no"?>
<!-- Created with Inkscape (http://www.inkscape.org/) -->

<svg
   xmlns:dc="http://purl.org/dc/elements/1.1/"
   xmlns:cc="http://creativecommons.org/ns#"
   xmlns:rdf="http://www.w3.org/1999/02/22-rdf-syntax-ns#"
   xmlns:svg="http://www.w3.org/2000/svg"
   xmlns="http://www.w3.org/2000/svg"
   xmlns:sodipodi="http://sodipodi.sourceforge.net/DTD/sodipodi-0.dtd"
   xmlns:inkscape="http://www.inkscape.org/namespaces/inkscape"
   id="svg2993"
   version="1.1"
   preserveAspectRatio="xMinYMin meet"
   viewBox="0 0 145 130"
   inkscape:version="0.48.3.1 r9886"
   sodipodi:docname="cod_1.svg"
   width="100%"
   height="100%">
  <defs
     id="defs2995" />
  <sodipodi:namedview
     id="base"
     pagecolor="#ffffff"
     bordercolor="#666666"
     borderopacity="1.0"
     inkscape:pageopacity="0.0"
     inkscape:pageshadow="2"
     inkscape:zoom="4.0153846"
     inkscape:cx="72.5"
     inkscape:cy="65"
     inkscape:current-layer="layer1"
     showgrid="true"
     inkscape:document-units="px"
     inkscape:grid-bbox="true"
     inkscape:window-width="1366"
     inkscape:window-height="692"
     inkscape:window-x="0"
     inkscape:window-y="24"
     inkscape:window-maximized="1" />
  <metadata
     id="metadata2998">
    <rdf:RDF>
      <cc:Work
         rdf:about="">
        <dc:format>image/svg+xml</dc:format>
        <dc:type
           rdf:resource="http://purl.org/dc/dcmitype/StillImage" />
        <dc:title></dc:title>
      </cc:Work>
    </rdf:RDF>
  </metadata>
  <g
     id="layer1"
     inkscape:label="Layer 1"
     inkscape:groupmode="layer"
     transform="translate(0,66)">
    <path
       inkscape:connector-curvature="0"
       d="m 143.37455,59.566981 c -1.3552,2.389532 -3.77955,3.813781 -6.47922,3.813781 l -128.7904824,0 c -2.7032486,0 -5.1275906,-1.424249 -6.479215,-3.810138 -1.35162431,-2.382247 -1.35162431,-5.227101 0,-7.616633 L 21.081156,17.648183 66.017298,-61.581552 c 1.3552,-2.385889 3.775966,-3.806495 6.479215,-3.806495 2.706824,0 5.12759,1.420606 6.479215,3.806495 L 143.37455,51.953991 c 1.35162,2.389532 1.35162,5.230744 0,7.61299 z M 79.504935,-61.891171 C 78.042463,-64.466474 75.425032,-66 72.496513,-66 c -2.924944,0 -5.542375,1.533526 -7.008423,4.108829 L 20.551948,17.334921 1.1000009,51.644372 c -1.46604749,2.578946 -1.46604749,5.660568 -0.00372,8.239514 C 2.5587539,62.459189 5.179761,64 8.1047045,64 L 136.89519,64 c 2.92137,0 5.54237,-1.540811 7.00842,-4.119757 1.46247,-2.578946 1.46247,-5.656925 -0.004,-8.235871 L 79.504792,-61.891171"
       style="fill:#191412;fill-opacity:1;fill-rule:nonzero;stroke:none"
       id="path1320" />
    <path
       inkscape:connector-curvature="0"
       d="m 23.094289,46.952731 49.402224,-87.104991 49.405797,87.104991 -98.808021,0 z M 76.9912,-60.408641 c -1.995255,-3.533302 -6.990544,-3.533302 -8.989374,0 -21.461506,37.835467 -42.93016,75.689148 -64.3916655,113.5319 -1.9988308,3.522374 0.5006015,7.926252 4.4946871,7.926252 l 128.7904824,0 c 3.99051,0 6.48994,-4.403878 4.49111,-7.926252 C 119.92136,15.280507 98.459857,-22.573174 76.9912,-60.408641"
       style="fill:#c13339;fill-opacity:1;fill-rule:nonzero;stroke:none"
       id="path1322" />
    <path
       inkscape:connector-curvature="0"
       d="M 89.845933,0.71383339 77.785011,13.899969 c -0.536359,0.735801 -1.072718,2.389532 -1.437442,3.485948 7.01915,3.850206 13.316002,8.061027 18.708197,12.275491 l 6.843934,-3.296534 2.52089,1.089131 c -2.15974,1.475245 -6.658,3.668077 -6.479214,4.221749 1.258656,0.724874 2.882034,2.18919 3.783114,3.285607 -1.44459,-0.356973 -3.243179,-0.910645 -4.501835,-1.639161 -0.54351,0.371543 0,5.307238 0,7.867971 l -2.166889,-1.460675 -1.072718,-8.053742 c -6.300429,-2.385889 -13.13364,-5.31088 -20.156365,-9.164728 -0.715145,0.91793 -1.619804,2.200117 -1.973801,3.12169 -1.444593,5.667853 -3.057245,11.536047 -4.680625,17.396957 l -3.243183,-1.839502 1.62338,-23.250582 C 59.613173,14.817899 55.472483,11.714422 50.977796,6.2068424 57.457011,6.7568719 62.491632,8.9642747 68.252126,12.435652 L 86.60275,-1.1183838 89.845933,0.71383339 z M 23.094289,46.952731 l 98.808021,0 L 72.496513,-40.15226 23.094289,46.952731"
       style="fill:#ffffff;fill-opacity:1;fill-rule:nonzero;stroke:none"
       id="path1324" />
    <path
       inkscape:connector-curvature="0"
       d="m 50.977796,6.2068424 c 4.494687,5.5075796 8.635377,8.6110566 14.574658,11.7327466 l -1.62338,23.250582 3.243183,1.839502 c 1.62338,-5.86091 3.236032,-11.729104 4.680625,-17.396957 0.353997,-0.921573 1.258656,-2.20376 1.973801,-3.12169 7.022725,3.853848 13.855936,6.778839 20.156365,9.164728 l 1.072718,8.053742 2.166889,1.460675 c 0,-2.560733 -0.54351,-7.496428 0,-7.867971 1.258656,0.728516 3.057245,1.282188 4.501835,1.639161 -0.90108,-1.096417 -2.524458,-2.560733 -3.783114,-3.285607 -0.178786,-0.553672 4.319474,-2.746504 6.479214,-4.221749 l -2.52089,-1.089131 -6.843934,3.296534 C 89.663571,25.446944 83.366719,21.236123 76.347569,17.385917 76.712293,16.289501 77.248652,14.63577 77.785011,13.899969 L 89.845933,0.71383339 86.60275,-1.1183838 68.252126,12.435652 C 62.491632,8.9642747 57.457011,6.7568719 50.977796,6.2068424"
       style="fill:#191412;fill-opacity:1;fill-rule:nonzero;stroke:none"
       id="path1326" />
  </g>
</svg>
