<?xml version="1.0" encoding="UTF-8" standalone="no"?>
<!-- Created with Inkscape (http://www.inkscape.org/) -->

<svg
   xmlns:dc="http://purl.org/dc/elements/1.1/"
   xmlns:cc="http://creativecommons.org/ns#"
   xmlns:rdf="http://www.w3.org/1999/02/22-rdf-syntax-ns#"
   xmlns:svg="http://www.w3.org/2000/svg"
   xmlns="http://www.w3.org/2000/svg"
   xmlns:sodipodi="http://sodipodi.sourceforge.net/DTD/sodipodi-0.dtd"
   xmlns:inkscape="http://www.inkscape.org/namespaces/inkscape"
   id="svg2993"
   version="1.1"
   preserveAspectRatio="xMinYMin meet"
   viewBox="0 0 145 130"
   inkscape:version="0.48.3.1 r9886"
   sodipodi:docname="cod_45.svg"
   width="100%"
   height="100%">
  <defs
     id="defs2995" />
  <sodipodi:namedview
     id="base"
     pagecolor="#ffffff"
     bordercolor="#666666"
     borderopacity="1.0"
     inkscape:pageopacity="0.0"
     inkscape:pageshadow="2"
     inkscape:zoom="8.2827586"
     inkscape:cx="72.5"
     inkscape:cy="26.224375"
     inkscape:current-layer="layer1"
     showgrid="true"
     inkscape:document-units="px"
     inkscape:grid-bbox="true"
     inkscape:window-width="1366"
     inkscape:window-height="692"
     inkscape:window-x="0"
     inkscape:window-y="24"
     inkscape:window-maximized="1" />
  <metadata
     id="metadata2998">
    <rdf:RDF>
      <cc:Work
         rdf:about="">
        <dc:format>image/svg+xml</dc:format>
        <dc:type
           rdf:resource="http://purl.org/dc/dcmitype/StillImage" />
        <dc:title></dc:title>
      </cc:Work>
    </rdf:RDF>
  </metadata>
  <g
     id="layer1"
     inkscape:label="Layer 1"
     inkscape:groupmode="layer"
     transform="translate(0,66)">
    <path
       inkscape:connector-curvature="0"
       d="M 72.5,63.237827 C 32.98845,63.237827 0.84948797,34.420887 0.84948797,-0.99845087 0.84948797,-36.423985 32.98845,-65.240926 72.5,-65.240926 c 39.50464,0 71.64706,28.816941 71.64706,64.24247513 C 144.14706,34.420887 112.00464,63.237827 72.5,63.237827 z M 72.5,-66 C 32.522267,-66 0,-36.839153 0,-0.99845087 0,34.839153 32.522267,64 72.5,64 112.47428,64 145,34.839153 145,-0.99845087 145,-36.839153 112.47428,-66 72.5,-66"
       style="fill:#191412;fill-opacity:1;fill-rule:nonzero;stroke:none"
       id="path4689" />
    <path
       inkscape:connector-curvature="0"
       d="M 72.831508,61.072142 92.466421,-60.432422 c 28.471659,7.705379 49.280659,31.419481 49.280659,59.43397113 0,34.13355887 -30.8889,61.91258087 -68.915572,62.07059287 z M 52.723506,58.478896 C 24.14825,50.826187 3.2529174,27.074906 3.2529174,-0.99845087 3.2529174,-35.138206 34.141819,-62.91413 72.175399,-63.072142 L 52.723506,58.478896 z M 72.5,-63.846708 c -38.651703,0 -70.0965706,28.19419 -70.0965706,62.84825713 C 2.4034294,33.655616 33.848297,61.843609 72.5,61.843609 c 38.6517,0 70.09657,-28.187993 70.09657,-62.84205987 C 142.59657,-35.652518 111.1517,-63.846708 72.5,-63.846708"
       style="fill:#191412;fill-opacity:1;fill-rule:nonzero;stroke:none"
       id="path4691" />
    <path
       inkscape:connector-curvature="0"
       d="m 14.158133,10.372173 41.756823,0 0,-3.6719371 -41.756823,0 0,3.6719371 z"
       style="fill:#898b91;fill-opacity:1;fill-rule:nonzero;stroke:none"
       id="path4693" />
    <path
       inkscape:connector-curvature="0"
       d="m 14.158133,5.2972187 41.756132,0 0,-29.9106267 c -6.826982,-0.350104 -13.857704,-0.870612 -20.878066,-0.870612 -6.826983,0 -13.850798,0.520508 -20.684687,0.870612 L 14.158133,5.2972187"
       style="fill:#898b91;fill-opacity:1;fill-rule:nonzero;stroke:none"
       id="path4695" />
    <path
       inkscape:connector-curvature="0"
       d="m 15.919266,18.594962 c 0,0.700207 0.386759,0.879906 0.966897,0.879906 l 1.761134,0 c 0.587045,0 0.977256,-0.179699 0.977256,-0.879906 l 0,-7.352177 -3.705287,0 0,7.352177"
       style="fill:#898b91;fill-opacity:1;fill-rule:nonzero;stroke:none"
       id="path4697" />
    <path
       inkscape:connector-curvature="0"
       d="m 50.447845,18.594962 c 0,0.700207 0.393665,0.879906 0.980709,0.879906 l 1.754228,0 c 0.587044,0 0.977256,-0.179699 0.977256,-0.879906 l 0,-7.352177 -3.712193,0 0,7.352177"
       style="fill:#898b91;fill-opacity:1;fill-rule:nonzero;stroke:none"
       id="path4699" />
    <path
       inkscape:connector-curvature="0"
       d="m 44.601572,14.399914 -6.830436,0 c -0.393665,-0.706404 -1.370922,-1.233108 -2.734937,-1.233108 -1.167183,0 -2.147892,0.526704 -2.534651,1.233108 l -7.023815,0 0,-3.157129 -3.712194,0 0,7.352177 c 0,0.700207 0.19338,0.879906 0.977257,0.879906 l 1.754227,0 c 0.590498,0 0.98071,-0.179699 0.98071,-0.879906 l 0,-2.624229 7.217194,0 c 0.390212,0.523607 1.367469,1.05341 2.341272,1.05341 0.973803,0 2.144439,-0.353202 2.734937,-1.05341 l 6.830436,0 0,2.624229 c 0,0.700207 0.383305,0.879906 1.167182,0.879906 l 1.754228,0 c 0.587044,0 0.977256,-0.179699 0.977256,-0.879906 l 0,-7.352177 -3.898666,0 0,3.157129"
       style="fill:#898b91;fill-opacity:1;fill-rule:nonzero;stroke:none"
       id="path4701" />
    <path
       inkscape:connector-curvature="0"
       d="m 129.4744,11.772588 -37.070137,0 c -0.783877,0 -1.367469,0.520508 -1.367469,1.047212 l 0,0.347006 c 0,0.700207 0.583592,1.053409 1.367469,1.053409 l 37.070137,0 c 0.77697,0 1.36401,-0.353202 1.36401,-1.053409 l 0,-0.347006 c 0,-0.526704 -0.58704,-1.047212 -1.36401,-1.047212"
       style="fill:#898b91;fill-opacity:1;fill-rule:nonzero;stroke:none"
       id="path4703" />
    <path
       inkscape:connector-curvature="0"
       d="m 93.378066,18.594962 c 0,0.526704 0.583592,0.879906 0.977257,0.879906 l 4.292331,0 c 0.390212,0 0.97035,-0.353202 0.97035,-0.709502 l 0,-2.965037 -6.239938,0 0,2.794633"
       style="fill:#898b91;fill-opacity:1;fill-rule:nonzero;stroke:none"
       id="path4705" />
    <path
       inkscape:connector-curvature="0"
       d="m 122.25375,18.594962 c 0,0.526704 0.5905,0.879906 1.17409,0.879906 l 4.09895,0 c 0.38676,0 0.97726,-0.353202 0.97726,-0.709502 l 0,-2.965037 -6.2503,0 0,2.794633"
       style="fill:#898b91;fill-opacity:1;fill-rule:nonzero;stroke:none"
       id="path4707" />
    <path
       inkscape:connector-curvature="0"
       d="m 99.037866,-4.669892 c 0.780424,-0.8768084 1.364014,-1.226912 2.538104,-1.4004147 3.11824,-0.1735027 6.24339,-0.1735027 9.36163,-0.1735027 3.12515,0 6.05002,0 9.17516,0.1735027 1.17064,0.3501036 1.5574,0.6971091 2.14099,1.5708191 0.78733,1.7536166 2.15135,3.67144117 2.93177,5.25155509 l 2.53465,0.52980291 -4.29233,-7.8788818 c -0.78388,-1.0441145 -1.17409,-1.2238137 -2.73148,-1.5739174 -3.31508,-0.1796992 -6.63361,-0.3501036 -10.14551,-0.3501036 -3.31853,0 -6.63361,0.1704044 -10.14897,0.3501036 -1.364014,0.5298029 -1.754226,0.6971091 -2.538103,1.7505184 -1.167183,2.4476274 -2.337818,5.0718559 -3.508454,7.5225816 L 96.499762,0.75206749 99.037866,-4.669892"
       style="fill:#898b91;fill-opacity:1;fill-rule:nonzero;stroke:none"
       id="path4709" />
    <path
       inkscape:connector-curvature="0"
       d="m 105.28126,6.174027 c 0,-0.6940108 0.58359,-1.050311 1.16718,-1.050311 l 9.17516,0 c 0.78042,0 1.17064,0.3563002 1.17064,1.050311 l 0,1.7474201 c 0,0.7033056 -0.39022,1.0472128 -1.17064,1.0472128 l -9.17516,0 c -0.58359,0 -1.16718,-0.3439072 -1.16718,-1.0472128 l 0,-1.7474201 z m -12.293406,1.9302176 6.243392,0 c 0,0.8644153 -0.19338,1.5677209 -1.367469,1.9209224 l -5.266135,0 c 0,0.347006 0.390212,0.69711 0.973804,0.876809 l 34.735774,0 c 0.58359,-0.350104 0.78042,-0.529803 1.16718,-0.876809 l -5.46297,0 c -0.78042,-0.523606 -1.16718,-1.0565071 -1.36747,-1.9209224 l 6.05347,0 c 0.39021,0 0.58704,-0.1827975 0.58704,-0.5298029 l 0,-0.5236064 c 0,-0.3501036 -0.19683,-0.7064038 -0.58704,-0.7064038 l -6.05347,0 c 0.39712,-1.2207155 0.78388,-1.5677209 1.5643,-1.7443219 l 5.26614,0 c -0.58359,-1.0472127 -1.56085,-1.9178245 -3.31508,-2.4507257 -5.65634,-0.3470054 -10.73255,-0.7002073 -15.99869,-0.7002073 -5.27304,0 -9.36854,0.1796992 -14.244459,0.3532019 -1.560848,0.6971091 -2.731484,1.2207155 -3.511908,2.6211302 l 5.269588,0 c 0.780424,0.3532019 1.364015,0.87371 1.557395,1.7505183 l -6.243392,0 c -0.196832,0 -0.583591,0.3501037 -0.583591,0.7002074 l 0,0.5236063 c 0,0.3501037 0.386759,0.7064039 0.583591,0.7064039"
       style="fill:#898b91;fill-opacity:1;fill-rule:nonzero;stroke:none"
       id="path4711" />
    <path
       inkscape:connector-curvature="0"
       d="m 106.44844,8.9686599 9.17516,0 c 0.78042,0 1.17064,-0.3439072 1.17064,-1.0472128 l 0,-1.7474201 c 0,-0.6940108 -0.39022,-1.050311 -1.17064,-1.050311 l -9.17516,0 c -0.58359,0 -1.16718,0.3563002 -1.16718,1.050311 l 0,1.7474201 c 0,0.7033056 0.58359,1.0472128 1.16718,1.0472128"
       style="fill:#ffffff;fill-opacity:1;fill-rule:nonzero;stroke:none"
       id="path4713" />
  </g>
</svg>
