<?xml version="1.0" encoding="UTF-8" standalone="no"?>
<!-- Created with Inkscape (http://www.inkscape.org/) -->

<svg
   xmlns:dc="http://purl.org/dc/elements/1.1/"
   xmlns:cc="http://creativecommons.org/ns#"
   xmlns:rdf="http://www.w3.org/1999/02/22-rdf-syntax-ns#"
   xmlns:svg="http://www.w3.org/2000/svg"
   xmlns="http://www.w3.org/2000/svg"
   xmlns:sodipodi="http://sodipodi.sourceforge.net/DTD/sodipodi-0.dtd"
   xmlns:inkscape="http://www.inkscape.org/namespaces/inkscape"
   id="svg2993"
   version="1.1"
   preserveAspectRatio="xMinYMin meet"
   viewBox="0 0 145 130"
   inkscape:version="0.48.3.1 r9886"
   sodipodi:docname="cod_51.svg"
   width="100%"
   height="100%">
  <defs
     id="defs2995" />
  <sodipodi:namedview
     id="base"
     pagecolor="#ffffff"
     bordercolor="#666666"
     borderopacity="1.0"
     inkscape:pageopacity="0.0"
     inkscape:pageshadow="2"
     inkscape:zoom="4.0153846"
     inkscape:cx="24.683908"
     inkscape:cy="65"
     inkscape:current-layer="layer1"
     showgrid="true"
     inkscape:document-units="px"
     inkscape:grid-bbox="true"
     inkscape:window-width="1366"
     inkscape:window-height="692"
     inkscape:window-x="0"
     inkscape:window-y="24"
     inkscape:window-maximized="1" />
  <metadata
     id="metadata2998">
    <rdf:RDF>
      <cc:Work
         rdf:about="">
        <dc:format>image/svg+xml</dc:format>
        <dc:type
           rdf:resource="http://purl.org/dc/dcmitype/StillImage" />
        <dc:title></dc:title>
      </cc:Work>
    </rdf:RDF>
  </metadata>
  <g
     id="layer1"
     inkscape:label="Layer 1"
     inkscape:groupmode="layer"
     transform="translate(0,66)">
    <path
       inkscape:connector-curvature="0"
       d="m 72.5,63.239585 c -39.507866,0 -71.65581484,-28.81848 -71.65581484,-64.2457672 0,-35.4211048 32.14794884,-64.2395858 71.65581484,-64.2395858 39.51476,0 71.65926,28.818481 71.65926,64.2395858 0,35.4272872 -32.1445,64.2457672 -71.65926,64.2457672 z M 72.5,-66 C 32.523525,-66 0,-36.844588 0,-1.0061822 0,34.838406 32.523525,64 72.5,64 112.47992,64 145,34.838406 145,-1.0061822 145,-36.844588 112.47992,-66 72.5,-66"
       style="fill:#191412;fill-opacity:1;fill-rule:nonzero;stroke:none"
       id="path1612" />
    <path
       inkscape:connector-curvature="0"
       d="m 72.5,45.304927 c -28.530013,0 -51.657241,-20.732119 -51.657241,-46.3111092 0,-25.5728078 23.127228,-46.3049268 51.657241,-46.3049268 28.53346,0 51.66069,20.732119 51.66069,46.3049268 0,25.5789902 -23.12723,46.3111092 -51.66069,46.3111092 z m 0,-108.770211 c -38.481061,0 -69.6780096,27.96224 -69.6780096,62.4591018 0,34.4999522 31.1969486,62.4652842 69.6780096,62.4652842 38.48451,0 69.67801,-27.965332 69.67801,-62.4652842 0,-34.4968618 -31.1935,-62.4591018 -69.67801,-62.4591018"
       style="fill:#c13339;fill-opacity:1;fill-rule:nonzero;stroke:none"
       id="path1614" />
    <path
       inkscape:connector-curvature="0"
       d="m 98.593936,11.828134 c 0.382467,0.519308 0.585761,1.2179 0.585761,1.740299 0,1.925765 -1.564327,3.319859 -3.511121,3.319859 -1.943349,0 -3.697187,-1.394094 -3.697187,-3.319859 0,-0.695502 0.389359,-1.394094 0.97512,-2.092686 L 87.109572,11.12645 c -0.199848,0.701684 -0.39625,1.746481 -0.39625,2.618176 0,4.364657 4.093436,8.030721 8.955254,8.030721 4.868704,0 8.962144,-3.666064 8.962144,-8.030721 0,-0.52549 0,-1.044797 -0.19985,-1.746481 l -5.836934,-0.170011"
       style="fill:#ffffff;fill-opacity:1;fill-rule:nonzero;stroke:none"
       id="path1616" />
    <path
       inkscape:connector-curvature="0"
       d="m 106.57407,12.174339 c 0,0.52549 0.19985,1.044797 0.19985,1.570287 0,5.412545 -5.06511,9.953396 -11.105344,9.953396 -6.036786,0 -11.095005,-4.540851 -11.095005,-9.953396 0,-0.871695 0.192956,-1.916492 0.392804,-2.618176 L 73.478566,10.427858 c 0,0.874786 0.582315,1.227173 1.361033,2.618176 0.778718,1.397185 1.946794,2.618176 1.55399,3.489871 -1.946795,0 -4.276057,-2.967472 -4.668861,-4.01227 -0.196402,-0.868604 -0.582316,-1.746481 -0.785609,-2.268879 l -2.332708,-0.173103 -0.971674,0 c 0,0.346205 0.199848,0.695501 0.199848,1.044797 0.186065,1.047889 0.57887,1.397185 0.771826,1.919584 0.782164,0.522399 1.364479,0.698592 1.946795,1.573378 0.199848,2.445073 0.385913,4.188463 1.171522,6.457343 0.971674,1.397185 -0.582316,1.397185 -0.392805,3.666064 -0.392804,0.346205 -1.943348,0.173103 -2.725512,0.173103 l -0.192956,0.173102 c -0.196403,-0.871695 0,-1.746481 0.192956,-2.268879 0.389359,-0.522399 0.782164,-1.044798 0.782164,-1.397185 0.385913,0.179285 0,-1.394094 -0.782164,-3.137483 -0.389359,-1.05098 -0.771826,-2.095778 -1.55399,-2.970564 -1.168076,-0.871694 -1.757283,-1.217899 -3.507675,-1.74648 -0.582316,0.176193 -0.97512,0 -1.164631,1.397184 -0.199848,0.698593 -0.389359,1.400276 -0.199848,1.922675 -0.968229,0.522399 -1.55399,0.522399 -2.725512,1.74339 -1.361033,1.220991 -1.55399,2.275061 -1.750392,2.618175 -0.199848,0.352388 -1.753838,-0.343114 -1.357588,0.173103 0,0.352387 0.192957,1.220991 0.192957,1.573378 -0.192957,0 -2.532556,0.346205 -3.311273,0.346205 -0.196403,-0.698592 0,-1.391002 0.192956,-1.919583 0.97512,-0.868604 2.336154,-2.265789 2.92536,-3.313677 1.746947,-1.220991 2.722067,-4.364657 3.500785,-5.934944 -0.582316,-1.047889 -0.97512,-1.047889 -1.946795,-1.220991 -3.700632,0.874786 -7.005014,1.044797 -11.880614,0.173102 0.585761,3.143666 0.782164,4.188463 3.507676,10.123407 -0.775272,0.52549 -0.585762,1.394094 -0.585762,2.791279 l -3.500784,0 c 0.389359,-0.865513 0.971675,-2.265789 1.361034,-3.134393 -0.389359,-4.194645 -2.921915,-5.242533 -4.47935,-8.908598 -2.143197,0.701684 -3.700632,1.220991 -6.229742,2.098869 0,3.137483 0.778717,2.967471 1.946794,5.060157 0.389359,1.220991 1.364479,1.047889 1.946794,1.220991 0,1.224083 -2.336153,2.797461 -2.529109,3.662974 -0.389359,-0.865513 -1.746947,-2.089595 -1.557436,-3.134393 -0.97512,-1.05407 -1.750392,-5.06634 -2.150088,-6.985923 0.592653,-1.746481 3.318165,-2.967472 5.072003,-5.060158 -0.589207,-1.7464809 -0.782164,-4.0153605 -0.589207,-5.938035 -1.750392,-2.44198215 -3.693741,-5.0570668 -4.0831,-4.8870554 -0.585761,-0.1700114 -1.168077,-0.346205 -1.557435,0.1792848 -0.392805,0.6955012 -0.978566,1.57028722 -1.364479,2.43889098 -0.392805,0.69859232 0.582315,0.87169492 -0.196403,1.92267452 -1.361033,0 -2.918468,0.1792848 -4.086545,-0.5254898 0,-1.39718472 0.968229,-6.1080464 0.968229,-8.5500285 -0.192957,-0.5254899 -0.385913,-1.2240822 -0.385913,-1.749572 0.192956,-0.3462051 0.778717,-0.5223987 1.750392,-1.5702873 -0.189511,-1.3910023 -0.389359,-2.9674723 -0.582316,-4.1853723 0.582316,0.871695 1.361033,2.092686 2.139751,2.967472 1.171522,0.170012 2.536001,-0.173102 3.507676,0.170012 7.204862,3.3229501 7.397818,8.0307207 11.67732,9.2517118 3.507676,1.04788852 6.040231,0.1761936 11.880614,0.69859235 1.168077,0.17619364 3.111425,-0.69859235 5.061665,-0.17310255 1.753838,0.34929619 4.482796,1.91649231 5.643981,2.6150847 0.199848,0 0.389359,0.1761936 0.389359,0.1761936 1.361033,0.874786 2.336153,4.0153605 3.700632,6.4604337 l 8.179982,0.1700114 -3.700632,-9.9472132 0,-5.9287617 18.492824,1.2209911 20.639464,1.3940936 -4.47246,15.0104622 6.22285,0.346205 0,2.271971 -11.48436,-0.52549 z m -34.267027,-22.86499 c 0,-1.740298 1.171523,-2.268879 3.114871,-2.095777 l 5.254622,0.176194 c 0.782164,0 0.982012,-1.394094 0.782164,-1.746481 l -1.361034,-2.095777 -5.061665,1.749572 c -2.339599,0.698592 -3.311273,-2.095777 -1.364479,-2.791278 3.697187,-1.224082 7.005014,-2.275062 10.709092,-3.492962 2.332708,-0.698592 3.311273,0.52549 3.114871,2.095777 l 0,7.681425 c 0,1.567196 -0.385913,2.4388909 -2.339599,2.6150845 -3.111425,-0.1761936 -6.419253,-0.3462051 -9.537569,-0.5254898 l 0,8.55311962 c -0.196403,2.26887958 -3.311274,2.09268598 -3.311274,0 l 0,-10.12340732 z m 13.434604,-16.404555 c 1.367925,0 2.332708,1.047888 2.332708,2.268879 0,1.220991 -0.964783,2.26888 -2.332708,2.26888 -1.361033,0 -2.52911,-1.047889 -2.52911,-2.26888 0,-1.220991 1.168077,-2.268879 2.52911,-2.268879 z M 72.5,-47.311109 c -28.530013,0 -51.657241,20.732119 -51.657241,46.3049268 0,25.5789902 23.127228,46.3111092 51.657241,46.3111092 28.53346,0 51.66069,-20.732119 51.66069,-46.3111092 0,-25.5728078 -23.12723,-46.3049268 -51.66069,-46.3049268"
       style="fill:#ffffff;fill-opacity:1;fill-rule:nonzero;stroke:none"
       id="path1618" />
    <path
       inkscape:connector-curvature="0"
       d="m 68.606411,5.8900989 c -0.389359,-0.1731025 -1.161185,0.3492962 -1.161185,0.874786 l 0,1.0447974 1.161185,0 1.364479,0.1792848 c -0.196402,-0.3523873 -0.385913,-0.874786 -0.778718,-1.2240822 0,-0.5254898 -0.196402,-0.6985923 -0.585761,-0.874786"
       style="fill:#ffffff;fill-opacity:1;fill-rule:nonzero;stroke:none"
       id="path1620" />
    <path
       inkscape:connector-curvature="0"
       d="m 95.668576,21.775347 c -4.861818,0 -8.955254,-3.666064 -8.955254,-8.030721 0,-0.871695 0.196402,-1.916492 0.39625,-2.618176 l 5.836937,0.349297 c -0.585761,0.698592 -0.97512,1.397184 -0.97512,2.092686 0,1.925765 1.753838,3.319859 3.697187,3.319859 1.946794,0 3.511121,-1.394094 3.511121,-3.319859 0,-0.522399 -0.203294,-1.220991 -0.585761,-1.740299 l 5.836934,0.170011 c 0.19985,0.701684 0.19985,1.220991 0.19985,1.746481 0,4.364657 -4.09344,8.030721 -8.962144,8.030721 z M 68.606411,7.8096823 l -1.161185,0 0,-1.0447974 c 0,-0.5254898 0.771826,-1.0478885 1.161185,-0.874786 0.389359,0.1761937 0.585761,0.3492962 0.585761,0.874786 0.392805,0.3492962 0.582316,0.8716949 0.778718,1.2240822 L 68.606411,7.8096823 z m 43.229169,2.2719707 4.47246,-15.0104622 -20.639464,-1.3940936 -18.492824,-1.2209911 0,5.9287617 3.700632,9.9472132 -8.179982,-0.1700114 C 71.331923,5.7169964 70.356803,2.5764219 68.99577,1.7016359 c 0,0 -0.189511,-0.1761936 -0.389359,-0.1761936 -1.161185,-0.69859239 -3.890143,-2.26578851 -5.643981,-2.6150847 -1.95024,-0.5254898 -3.893588,0.34929619 -5.061665,0.17310255 -5.840383,-0.52239875 -8.372938,0.34929617 -11.880614,-0.69859235 -4.279502,-1.2209911 -4.472458,-5.9287617 -11.67732,-9.2517118 -0.971675,-0.343114 -2.336154,0 -3.507676,-0.170012 -0.778718,-0.874786 -1.557435,-2.095777 -2.139751,-2.967472 0.192957,1.2179 0.392805,2.79437 0.582316,4.1853723 -0.971675,1.0478886 -1.557436,1.2240822 -1.750392,1.5702873 0,0.5254898 0.192956,1.2240821 0.385913,1.749572 0,2.4419821 -0.968229,7.15284378 -0.968229,8.5500285 1.168077,0.7047746 2.725512,0.5254898 4.086545,0.5254898 0.778718,-1.0509796 -0.196402,-1.2240822 0.196403,-1.92267452 0.385913,-0.86860376 0.971674,-1.74338978 1.364479,-2.43889098 0.389358,-0.5254898 0.971674,-0.3492962 1.557435,-0.1792848 0.389359,-0.1700114 2.332708,2.44507325 4.0831,4.8870554 -0.192957,1.9226745 0,4.1915541 0.589207,5.938035 -1.753838,2.092686 -4.47935,3.313677 -5.072003,5.060158 0.399696,1.919583 1.174968,5.931853 2.150088,6.985923 -0.189511,1.044798 1.168077,2.26888 1.557436,3.134393 0.192956,-0.865513 2.529109,-2.438891 2.529109,-3.662974 -0.582315,-0.173102 -1.557435,0 -1.946794,-1.220991 -1.168077,-2.092686 -1.946794,-1.922674 -1.946794,-5.060157 2.52911,-0.877878 4.086545,-1.397185 6.229742,-2.098869 1.557435,3.666065 4.089991,4.713953 4.47935,8.908598 -0.389359,0.868604 -0.971675,2.26888 -1.361034,3.134393 l 3.500784,0 c 0,-1.397185 -0.18951,-2.265789 0.585762,-2.791279 -2.725512,-5.934944 -2.921915,-6.979741 -3.507676,-10.123407 4.8756,0.871695 8.179982,0.701684 11.880614,-0.173102 0.971675,0.173102 1.364479,0.173102 1.946795,1.220991 -0.778718,1.570287 -1.753838,4.713953 -3.500785,5.934944 -0.589206,1.047888 -1.95024,2.445073 -2.92536,3.313677 -0.192956,0.528581 -0.389359,1.220991 -0.192956,1.919583 0.778717,0 3.118316,-0.346205 3.311273,-0.346205 0,-0.352387 -0.192957,-1.220991 -0.192957,-1.573378 -0.39625,-0.516217 1.15774,0.179285 1.357588,-0.173103 0.196402,-0.343114 0.389359,-1.397184 1.750392,-2.618175 1.171522,-1.220991 1.757283,-1.220991 2.725512,-1.74339 -0.189511,-0.522399 0,-1.224082 0.199848,-1.922675 0.189511,-1.397184 0.582315,-1.220991 1.164631,-1.397184 1.750392,0.528581 2.339599,0.874786 3.507675,1.74648 0.782164,0.874786 1.164631,1.919584 1.55399,2.970564 0.782164,1.743389 1.168077,3.316768 0.782164,3.137483 0,0.352387 -0.392805,0.874786 -0.782164,1.397185 -0.192956,0.522398 -0.389359,1.397184 -0.192956,2.268879 l 0.192956,-0.173102 c 0.782164,0 2.332708,0.173102 2.725512,-0.173103 -0.189511,-2.268879 1.364479,-2.268879 0.392805,-3.666064 -0.785609,-2.26888 -0.971674,-4.01227 -1.171522,-6.457343 -0.582316,-0.874786 -1.164631,-1.050979 -1.946795,-1.573378 -0.192956,-0.522399 -0.585761,-0.871695 -0.771826,-1.919584 0,-0.349296 -0.199848,-0.698592 -0.199848,-1.044797 l 0.971674,0 2.332708,0.173103 c 0.203293,0.522398 0.589207,1.400275 0.785609,2.268879 0.392804,1.044798 2.722066,4.01227 4.668861,4.01227 0.392804,-0.871695 -0.775272,-2.092686 -1.55399,-3.489871 -0.778718,-1.391003 -1.361033,-1.74339 -1.361033,-2.618176 l 11.487809,0.698592 c -0.199848,0.701684 -0.392804,1.746481 -0.392804,2.618176 0,5.412545 5.058219,9.953396 11.095005,9.953396 6.040234,0 11.105344,-4.540851 11.105344,-9.953396 0,-0.52549 -0.19985,-1.044797 -0.19985,-1.570287 l 11.48436,0.52549 0,-2.271971 -6.22285,-0.346205"
       style="fill:#191412;fill-opacity:1;fill-rule:nonzero;stroke:none"
       id="path1622" />
    <path
       inkscape:connector-curvature="0"
       d="m 85.741647,-22.557447 c 1.367925,0 2.332708,-1.047889 2.332708,-2.26888 0,-1.220991 -0.964783,-2.268879 -2.332708,-2.268879 -1.361033,0 -2.52911,1.047888 -2.52911,2.268879 0,1.220991 1.168077,2.26888 2.52911,2.26888"
       style="fill:#191412;fill-opacity:1;fill-rule:nonzero;stroke:none"
       id="path1624" />
    <path
       inkscape:connector-curvature="0"
       d="m 75.618317,-0.56724368 0,-8.55311962 c 3.118316,0.1792847 6.426144,0.3492962 9.537569,0.5254898 1.953686,-0.1761936 2.339599,-1.0478885 2.339599,-2.6150845 l 0,-7.681425 c 0.196402,-1.570287 -0.782163,-2.794369 -3.114871,-2.095777 -3.704078,1.2179 -7.011905,2.26888 -10.709092,3.492962 -1.946794,0.695501 -0.97512,3.48987 1.364479,2.791278 l 5.061665,-1.749572 1.361034,2.095777 c 0.199848,0.352387 0,1.746481 -0.782164,1.746481 l -5.254622,-0.176194 c -1.943348,-0.173102 -3.114871,0.355479 -3.114871,2.095777 l 0,10.12340732 c 0,2.09268598 3.114871,2.26887958 3.311274,0"
       style="fill:#191412;fill-opacity:1;fill-rule:nonzero;stroke:none"
       id="path1626" />
  </g>
</svg>
