<?xml version="1.0" encoding="UTF-8" standalone="no"?>
<!-- Created with Inkscape (http://www.inkscape.org/) -->

<svg
   xmlns:dc="http://purl.org/dc/elements/1.1/"
   xmlns:cc="http://creativecommons.org/ns#"
   xmlns:rdf="http://www.w3.org/1999/02/22-rdf-syntax-ns#"
   xmlns:svg="http://www.w3.org/2000/svg"
   xmlns="http://www.w3.org/2000/svg"
   xmlns:sodipodi="http://sodipodi.sourceforge.net/DTD/sodipodi-0.dtd"
   xmlns:inkscape="http://www.inkscape.org/namespaces/inkscape"
   id="svg2993"
   version="1.1"
   preserveAspectRatio="xMinYMin meet"
   viewBox="0 0 145 130"
   inkscape:version="0.48.3.1 r9886"
   sodipodi:docname="cod_1.svg"
   width="100%"
   height="100%">
  <defs
     id="defs2995" />
  <sodipodi:namedview
     id="base"
     pagecolor="#ffffff"
     bordercolor="#666666"
     borderopacity="1.0"
     inkscape:pageopacity="0.0"
     inkscape:pageshadow="2"
     inkscape:zoom="4.0153846"
     inkscape:cx="72.5"
     inkscape:cy="64.041711"
     inkscape:current-layer="layer1"
     showgrid="true"
     inkscape:document-units="px"
     inkscape:grid-bbox="true"
     inkscape:window-width="1366"
     inkscape:window-height="692"
     inkscape:window-x="0"
     inkscape:window-y="24"
     inkscape:window-maximized="1" />
  <metadata
     id="metadata2998">
    <rdf:RDF>
      <cc:Work
         rdf:about="">
        <dc:format>image/svg+xml</dc:format>
        <dc:type
           rdf:resource="http://purl.org/dc/dcmitype/StillImage" />
        <dc:title></dc:title>
      </cc:Work>
    </rdf:RDF>
  </metadata>
  <g
     id="layer1"
     inkscape:label="Layer 1"
     inkscape:groupmode="layer"
     transform="translate(0,66)">
    <path
       inkscape:connector-curvature="0"
       d="m 143.37481,59.566857 c -1.35164,2.389599 -3.77244,3.813887 -6.4793,3.813887 l -128.7904938,0 c -2.7068617,0 -5.1276614,-1.424288 -6.4782174,-3.810244 -1.35201479,-2.382313 -1.35201479,-5.227247 0,-7.616846 L 66.020069,-61.577785 c 1.355219,-2.385956 3.772443,-3.806602 6.479305,-3.806602 2.703285,0 5.124085,1.420646 6.479304,3.806602 L 143.37481,51.953654 c 1.35164,2.389599 1.35164,5.23089 0,7.613203 z M 79.507893,-61.887413 C 78.045401,-64.466431 75.424357,-66 72.499374,-66 c -2.921409,0 -5.546028,1.533569 -7.00852,4.112587 L 1.0990145,51.644026 c -1.46535265,2.579018 -1.46535265,5.660726 0,8.239744 C 2.5600761,62.459146 5.1789738,64 8.1050162,64 L 136.89551,64 c 2.92498,0 5.54602,-1.540854 7.00494,-4.119872 1.46607,-2.579018 1.46607,-5.657084 0,-8.236102 L 79.507893,-61.887413"
       style="fill:#191412;fill-opacity:1;fill-rule:nonzero;stroke:none"
       id="path1284" />
    <path
       inkscape:connector-curvature="0"
       d="m 23.09538,46.952253 49.403994,-87.100146 49.402906,87.100146 -98.8069,0 z M 76.997699,-60.404842 c -1.998856,-3.533401 -6.994214,-3.533401 -8.993075,0 C 46.539247,-22.5756 25.073156,15.279141 3.6102669,53.122954 c -1.9988582,3.522473 0.498835,7.926474 4.4947493,7.926474 l 128.7904938,0 c 3.99414,0 6.49003,-4.404001 4.49475,-7.926474 C 119.92488,15.279141 98.4595,-22.5756 76.997699,-60.404842"
       style="fill:#c13339;fill-opacity:1;fill-rule:nonzero;stroke:none"
       id="path1286" />
    <path
       inkscape:connector-curvature="0"
       d="m 81.678388,-6.7918628 c 0,5.1179668 -4.244442,9.4345438 -9.268409,9.4345438 -4.927418,0 -9.086044,-4.316577 -9.086044,-9.4345438 0,-5.0997532 4.072808,-9.2524102 9.086044,-9.2524102 5.023964,0 9.268409,4.236438 9.268409,9.2524102 z M 72.409979,21.693903 c -5.013236,0 -9.086044,-4.152657 -9.086044,-9.256053 0,-5.0997532 4.072808,-9.2451242 9.086044,-9.2451242 5.023964,0 9.268409,4.2364381 9.268409,9.2451242 0,5.019615 -4.244442,9.256053 -9.268409,9.256053 z m 0,19.229713 c -5.013236,0 -9.086044,-4.152657 -9.086044,-9.248767 0,-5.103396 4.072808,-9.256053 9.086044,-9.256053 5.023964,0 9.268409,4.236438 9.268409,9.256053 0,5.015971 -4.244442,9.248767 -9.268409,9.248767 z m -49.314599,6.028637 98.8069,0 L 72.499374,-40.147893 23.09538,46.952253"
       style="fill:#ffffff;fill-opacity:1;fill-rule:nonzero;stroke:none"
       id="path1288" />
    <path
       inkscape:connector-curvature="0"
       d="m 72.409982,3.7427707 c -4.712871,0 -8.542529,3.9013113 -8.542529,8.6950793 0,4.797411 3.829658,8.702365 8.542529,8.702365 4.73075,0 8.728467,-3.985093 8.728467,-8.702365 0,-4.713629 -3.997717,-8.6950793 -8.728467,-8.6950793"
       style="fill:#ecee23;fill-opacity:1;fill-rule:nonzero;stroke:none"
       id="path1290" />
    <path
       inkscape:connector-curvature="0"
       d="m 72.409982,21.140215 c -4.712871,0 -8.542529,-3.904954 -8.542529,-8.702365 0,-4.793768 3.829658,-8.6950793 8.542529,-8.6950793 4.73075,0 8.728467,3.9814503 8.728467,8.6950793 0,4.717272 -3.997717,8.702365 -8.728467,8.702365 z m 0,-17.9474892 c -5.013237,0 -9.086047,4.145371 -9.086047,9.2451242 0,5.103396 4.07281,9.256053 9.086047,9.256053 5.023964,0 9.268409,-4.236438 9.268409,-9.256053 0,-5.0086861 -4.244445,-9.2451242 -9.268409,-9.2451242"
       style="fill:#191412;fill-opacity:1;fill-rule:nonzero;stroke:none"
       id="path1292" />
    <path
       inkscape:connector-curvature="0"
       d="m 63.867453,-6.7918628 c 0,4.8156243 3.9119,8.884499 8.542529,8.884499 4.73075,0 8.728467,-4.0688747 8.728467,-8.884499 0,-4.7136292 -3.997717,-8.6987222 -8.728467,-8.6987222 -4.712871,0 -8.542529,3.901311 -8.542529,8.6987222"
       style="fill:#c13339;fill-opacity:1;fill-rule:nonzero;stroke:none"
       id="path1294" />
    <path
       inkscape:connector-curvature="0"
       d="m 81.138446,-6.7918628 c 0,4.8156243 -3.997716,8.884499 -8.728467,8.884499 -4.630629,0 -8.542526,-4.0688747 -8.542526,-8.884499 0,-4.7974112 3.829655,-8.6987222 8.542526,-8.6987222 4.730751,0 8.728467,3.985093 8.728467,8.6987222 z m -17.814511,0 c 0,5.1179668 4.158629,9.4345438 9.086047,9.4345438 5.023964,0 9.268409,-4.316577 9.268409,-9.4345438 0,-5.0159722 -4.244445,-9.2524102 -9.268409,-9.2524102 -5.013237,0 -9.086047,4.152657 -9.086047,9.2524102"
       style="fill:#191412;fill-opacity:1;fill-rule:nonzero;stroke:none"
       id="path1296" />
    <path
       inkscape:connector-curvature="0"
       d="m 72.409982,22.968841 c -4.712871,0 -8.542529,3.904954 -8.542529,8.706008 0,4.793768 3.829658,8.698722 8.542529,8.698722 4.73075,0 8.728467,-3.98145 8.728467,-8.698722 0,-4.717272 -3.997717,-8.706008 -8.728467,-8.706008"
       style="fill:#2ea04d;fill-opacity:1;fill-rule:nonzero;stroke:none"
       id="path1298" />
    <path
       inkscape:connector-curvature="0"
       d="m 72.409982,40.373571 c -4.712871,0 -8.542529,-3.904954 -8.542529,-8.698722 0,-4.801054 3.829658,-8.706008 8.542529,-8.706008 4.73075,0 8.728467,3.988736 8.728467,8.706008 0,4.717272 -3.997717,8.698722 -8.728467,8.698722 z m 0,-17.954775 c -5.013237,0 -9.086047,4.152657 -9.086047,9.256053 0,5.09611 4.07281,9.248767 9.086047,9.248767 5.023964,0 9.268409,-4.232796 9.268409,-9.248767 0,-5.019615 -4.244445,-9.256053 -9.268409,-9.256053"
       style="fill:#191412;fill-opacity:1;fill-rule:nonzero;stroke:none"
       id="path1300" />
  </g>
</svg>
