<?xml version="1.0" encoding="UTF-8" standalone="no"?>
<!-- Created with Inkscape (http://www.inkscape.org/) -->

<svg
   xmlns:dc="http://purl.org/dc/elements/1.1/"
   xmlns:cc="http://creativecommons.org/ns#"
   xmlns:rdf="http://www.w3.org/1999/02/22-rdf-syntax-ns#"
   xmlns:svg="http://www.w3.org/2000/svg"
   xmlns="http://www.w3.org/2000/svg"
   xmlns:sodipodi="http://sodipodi.sourceforge.net/DTD/sodipodi-0.dtd"
   xmlns:inkscape="http://www.inkscape.org/namespaces/inkscape"
   id="svg2993"
   version="1.1"
   preserveAspectRatio="xMinYMin meet"
   viewBox="0 0 145 130"
   inkscape:version="0.48.3.1 r9886"
   sodipodi:docname="cod_45.svg"
   width="100%"
   height="100%">
  <defs
     id="defs2995" />
  <sodipodi:namedview
     id="base"
     pagecolor="#ffffff"
     bordercolor="#666666"
     borderopacity="1.0"
     inkscape:pageopacity="0.0"
     inkscape:pageshadow="2"
     inkscape:zoom="4.0153846"
     inkscape:cx="72.5"
     inkscape:cy="87.965878"
     inkscape:current-layer="layer1"
     showgrid="true"
     inkscape:document-units="px"
     inkscape:grid-bbox="true"
     inkscape:window-width="1366"
     inkscape:window-height="692"
     inkscape:window-x="0"
     inkscape:window-y="24"
     inkscape:window-maximized="1" />
  <metadata
     id="metadata2998">
    <rdf:RDF>
      <cc:Work
         rdf:about="">
        <dc:format>image/svg+xml</dc:format>
        <dc:type
           rdf:resource="http://purl.org/dc/dcmitype/StillImage" />
        <dc:title></dc:title>
      </cc:Work>
    </rdf:RDF>
  </metadata>
  <g
     id="layer1"
     inkscape:label="Layer 1"
     inkscape:groupmode="layer"
     transform="translate(0,66)">
    <path
       inkscape:connector-curvature="0"
       d="m 72.498794,63.237827 c -39.505775,0 -71.64895865,-28.81694 -71.64895865,-64.23627787 0,-35.42553413 32.14318365,-64.24247513 71.64895865,-64.24247513 39.510606,0 71.652766,28.816941 71.652766,64.24247513 0,35.41933787 -32.14216,64.23627787 -71.652766,64.23627787 z M 72.498794,-66 C 32.52649,-66 0,-36.839153 0,-0.99845087 0,34.839153 32.52649,64 72.498794,64 112.47627,64 145,34.839153 145,-0.99845087 145,-36.839153 112.47627,-66 72.498794,-66"
       style="fill:#191412;fill-opacity:1;fill-rule:nonzero;stroke:none"
       id="path4653" />
    <path
       inkscape:connector-curvature="0"
       d="M 72.831684,61.072142 92.466653,-60.432422 c 28.475517,7.705379 49.283877,31.419481 49.283877,59.43397113 0,34.13355887 -30.89036,61.91258087 -68.918846,62.07059287 z M 52.726396,58.478896 C 24.152452,50.826187 3.2508533,27.074906 3.2508533,-0.99845087 3.2508533,-35.138206 34.140866,-62.91413 72.177645,-63.072142 L 52.726396,58.478896 z M 72.498794,-63.846708 c -38.650415,0 -70.0963948,28.19419 -70.0963948,62.84825713 0,34.65406687 31.4459798,62.84205987 70.0963948,62.84205987 38.651446,0 70.097436,-28.187993 70.097436,-62.84205987 0,-34.65406713 -31.44599,-62.84825713 -70.097436,-62.84825713"
       style="fill:#191412;fill-opacity:1;fill-rule:nonzero;stroke:none"
       id="path4655" />
    <path
       inkscape:connector-curvature="0"
       d="m 108.20708,18.50821 -0.19448,0 c -5.85425,-0.526704 -5.85425,-9.7967059 -6.24551,-20.8234225 0,-8.2196905 1.7563,-18.1929975 6.24548,-17.6693915 l 0.19448,0 c 3.7053,0.350104 6.43817,5.77826 6.43817,19.42300816 0,6.46917224 -0.9738,18.71970284 -6.43817,19.06980584 z m 0,-48.983531 c -0.19448,-0.173503 -0.19448,-0.173503 -0.39126,-0.173503 -13.265168,1.217617 -17.169018,10.140614 -18.339657,25.012274 -0.585665,14.3480541 1.950382,34.288472 17.756757,33.588265 l 0.97416,0 c 13.0735,-0.523607 18.34379,-12.07393 18.73229,-26.4126888 l 0,-4.7279487 C 126.35128,-22.958936 118.74454,-29.778212 108.20708,-30.475321"
       style="fill:#898b91;fill-opacity:1;fill-rule:nonzero;stroke:none"
       id="path4657" />
    <path
       inkscape:connector-curvature="0"
       d="M 29.57503,1.5390262 C 33.476123,-4.5862389 40.304158,-2.4825186 40.695407,8.7115041 40.110088,22.532853 30.550217,18.681713 29.7691,11.159132 l -11.708459,1.050311 c 0.389868,8.046187 5.462981,16.272075 17.367237,16.442479 12.879443,0 17.75296,-10.143712 17.949793,-21.1704282 C 53.76892,-8.0872757 41.669213,-14.565743 34.646762,-10.3614 l 1.757684,-10.673515 14.240354,0 0,-8.919898 -25.756123,0 -3.900748,30.61083435 8.587101,0.88300485"
       style="fill:#898b91;fill-opacity:1;fill-rule:nonzero;stroke:none"
       id="path4659" />
  </g>
</svg>
