<?xml version="1.0" encoding="UTF-8" standalone="no"?>
<!-- Created with Inkscape (http://www.inkscape.org/) -->

<svg
   xmlns:dc="http://purl.org/dc/elements/1.1/"
   xmlns:cc="http://creativecommons.org/ns#"
   xmlns:rdf="http://www.w3.org/1999/02/22-rdf-syntax-ns#"
   xmlns:svg="http://www.w3.org/2000/svg"
   xmlns="http://www.w3.org/2000/svg"
   xmlns:sodipodi="http://sodipodi.sourceforge.net/DTD/sodipodi-0.dtd"
   xmlns:inkscape="http://www.inkscape.org/namespaces/inkscape"
   id="svg2993"
   version="1.1"
   preserveAspectRatio="xMinYMin meet"
   viewBox="0 0 145 130"
   inkscape:version="0.48.3.1 r9886"
   sodipodi:docname="cod_1.svg"
   width="100%"
   height="100%">
  <defs
     id="defs2995" />
  <sodipodi:namedview
     id="base"
     pagecolor="#ffffff"
     bordercolor="#666666"
     borderopacity="1.0"
     inkscape:pageopacity="0.0"
     inkscape:pageshadow="2"
     inkscape:zoom="11"
     inkscape:cx="159.0989"
     inkscape:cy="5.9370905"
     inkscape:current-layer="layer1"
     showgrid="true"
     inkscape:document-units="px"
     inkscape:grid-bbox="true"
     inkscape:window-width="1366"
     inkscape:window-height="692"
     inkscape:window-x="0"
     inkscape:window-y="24"
     inkscape:window-maximized="1" />
  <metadata
     id="metadata2998">
    <rdf:RDF>
      <cc:Work
         rdf:about="">
        <dc:format>image/svg+xml</dc:format>
        <dc:type
           rdf:resource="http://purl.org/dc/dcmitype/StillImage" />
        <dc:title></dc:title>
      </cc:Work>
    </rdf:RDF>
  </metadata>
  <g
     id="layer1"
     inkscape:label="Layer 1"
     inkscape:groupmode="layer"
     transform="translate(0,66)">
    <path
       inkscape:connector-curvature="0"
       d="m 120.03888,59.731599 c 6.03807,3.745328 2.93677,10.241358 5.07585,2.145913 -3.16569,-7.854987 -2.89742,-0.291466 -5.07585,-2.145913"
       style="fill:#f3d998;fill-opacity:1;fill-rule:nonzero;stroke:none"
       id="path126" />
    <path
       inkscape:connector-curvature="0"
       d="m 143.53657,59.753459 c -1.35213,2.379085 -3.77379,3.807264 -6.48163,3.807264 l -128.8366167,0 c -2.7078315,0 -5.1294984,-1.428179 -6.4805524,-3.807264 -1.35248491,-2.390015 -1.35248491,-5.235443 0,-7.618172 L 31.63123,-0.56161814 66.154112,-61.423193 c 1.355705,-2.382728 3.773795,-3.80362 6.481624,-3.80362 2.704254,0 5.125924,1.420892 6.481628,3.80362 l 64.419206,113.55848 c 1.35212,2.382729 1.35212,5.228157 0,7.618172 z M 79.646771,-61.732874 c -1.463016,-2.579467 -4.085001,-4.116946 -7.011032,-4.116946 -2.922456,0 -5.548015,1.537479 -7.01103,4.116946 L 31.101825,-0.87858654 1.2097974,51.821963 c -1.46587756,2.579466 -1.46587756,5.665355 0,8.244821 1.4615851,2.575824 4.0814209,4.116946 7.0085259,4.116946 l 128.8366167,0 c 2.92604,0 5.54801,-1.541122 7.00745,-4.12059 1.46659,-2.579466 1.46659,-5.661711 0,-8.241177 L 79.646768,-61.732874"
       style="fill:#191412;fill-opacity:1;fill-rule:nonzero;stroke:none"
       id="path924" />
    <path
       inkscape:connector-curvature="0"
       d="m 23.214058,47.133017 49.421678,-87.122588 49.420604,87.122588 -98.842282,0 z M 77.135675,-60.253689 c -1.999577,-3.526728 -6.996725,-3.526728 -8.996299,0 C 46.666309,-22.406934 25.192528,15.45075 3.7219638,53.301148 1.7223895,56.82059 4.2209631,61.229002 8.2183233,61.229002 l 128.8366167,0 c 3.99558,0 6.49236,-4.408412 4.49636,-7.927854 C 120.07823,15.45075 98.605165,-22.406934 77.135675,-60.253689"
       style="fill:#c13339;fill-opacity:1;fill-rule:nonzero;stroke:none"
       id="path926" />
    <path
       inkscape:connector-curvature="0"
       d="m 54.364136,31.696292 c 0.175276,0.182165 0.175276,0.546496 0.175276,0.921758 0,0.732306 -0.529405,1.460969 -1.4344,1.460969 -0.718988,0 -1.445131,-0.728663 -1.445131,-1.460969 0,-0.921758 0.726143,-1.471899 1.445131,-1.471899 l 3.237233,-6.040616 c -1.076691,-0.375261 -2.153385,-0.735949 -3.237233,-0.735949 -4.317509,0 -7.921391,3.66153 -7.921391,8.059012 0,4.586933 3.603885,8.062656 7.921391,8.062656 3.773792,0 6.835751,-2.750703 7.740749,-6.226425 0,-0.550141 0.175276,-1.100281 0.175276,-1.836231 0,-0.550141 -0.175276,-1.092995 -0.175276,-1.646779 -0.543712,-2.014753 -1.623983,-3.665174 -3.237235,-4.947621 l -3.24439,5.862094"
       style="fill:#ffffff;fill-opacity:1;fill-rule:nonzero;stroke:none"
       id="path928" />
    <path
       inkscape:connector-curvature="0"
       d="m 81.903893,27.666785 c -0.536558,0.918116 -0.901418,1.832587 -1.259123,2.932868 l 1.259123,0 5.222499,0.360689 -3.240813,-5.126144 c -0.718984,0.55014 -1.441551,1.100281 -1.981686,1.832587"
       style="fill:#ffffff;fill-opacity:1;fill-rule:nonzero;stroke:none"
       id="path930" />
    <path
       inkscape:connector-curvature="0"
       d="m 68.225228,11.362951 c -0.529404,0.444485 -1.065963,0.590217 -1.545288,0.542854 0.214623,0.0038 0.447132,0.0073 0.647447,0.0073 0.897841,0 0.718988,1.460969 0,1.460969 -1.985266,0.18581 -5.226079,-0.178523 -5.762637,0.732306 -0.357706,0.914472 1.080271,2.382728 0.901418,2.936513 l -1.259124,2.200562 7.37589,0 -0.536559,-0.92176 c -0.718988,-2.01111 -1.080271,-3.11139 1.080271,-4.215315 l 7.919605,-3.479366 -2.342974,-5.3119523 -6.478049,6.0479023"
       style="fill:#ffffff;fill-opacity:1;fill-rule:nonzero;stroke:none"
       id="path932" />
    <path
       inkscape:connector-curvature="0"
       d="m 69.126646,20.70441 -8.280888,0 10.799133,9.523626 c 0.364859,-0.189453 0.540136,-0.189453 0.904995,-0.189453 1.259124,1.468256 3.591365,1.107568 4.313933,0.189453 l 2.342971,0.182165 c 0.540136,-1.8253 1.437977,-3.661531 2.6971,-4.943978 0.540136,-0.360688 0.904996,-0.735949 1.262702,-0.910829 l -1.262702,-2.025682 -1.259123,-2.003824 -2.883107,5.85845 -0.715412,-1.654064 2.160542,-4.025864 -5.043652,0 2.518251,6.04426 c 1.441554,3.122321 -2.518251,4.397481 -3.95265,2.018396 L 69.126646,20.70441"
       style="fill:#ffffff;fill-opacity:1;fill-rule:nonzero;stroke:none"
       id="path934" />
    <path
       inkscape:connector-curvature="0"
       d="m 90.009499,32.61805 c 0,0.732306 -0.726142,1.460969 -1.44513,1.460969 l -6.660476,0.728664 -0.901418,0 c 0.18243,0.735949 0.540135,1.650421 0.901418,2.207848 1.434399,2.193275 3.777369,3.475723 6.485203,3.475723 4.317506,0 7.916025,-3.665176 7.916025,-8.062656 0,-4.397482 -3.598519,-8.059012 -7.916025,-8.059012 -1.083848,0 -2.160541,0.185808 -3.247967,0.735949 l 3.602095,5.854807 c 0.722566,0.185809 1.266278,0.918115 1.266278,1.657708"
       style="fill:#ffffff;fill-opacity:1;fill-rule:nonzero;stroke:none"
       id="path936" />
    <path
       inkscape:connector-curvature="0"
       d="m 76.681389,-10.074313 c 1.623983,0.3643314 2.87953,2.0147529 2.704254,3.843697 -0.178853,1.6504216 -1.985266,2.9365118 -3.598521,2.754346 -1.802837,-0.1858091 -3.058383,-1.8325873 -2.704255,-3.6688181 0.178853,-1.828944 1.79926,-3.1113909 3.598522,-2.9292249 z m 4.861219,10.6275492 0.361282,2.0147531 1.623984,8.0590117 c 0.540136,2.018397 0,2.382729 -1.623984,3.118678 -0.178852,0 -0.361282,0.182166 -0.536558,0.182166 l -8.638593,3.661531 0.715411,1.654066 6.478051,0 1.080271,-2.018397 -1.795682,0 C 78.484225,17.04288 78.484225,16.310572 79.024361,16.128407 l 2.879529,-1.293376 1.623984,-0.546498 c 0.357705,0 1.073117,-0.360688 1.255547,0.375262 l 0,2.014752 c 0,0.364333 -0.357706,0.72502 -0.897842,0.546498 l -1.441553,0 -0.540136,0.914472 -0.536558,1.103925 0.536558,0.728662 2.521825,3.843697 c 1.080271,-0.55014 2.518248,-0.910829 3.963378,-0.910829 5.222502,0 9.354001,4.211673 9.354001,9.523626 0,5.311953 -4.131499,9.530911 -9.354001,9.530911 -2.521825,0 -4.682366,-0.918115 -6.485203,-2.57218 -1.259123,-1.092995 -2.156964,-2.739772 -2.518247,-4.579646 l -6.835757,0.735949 c -1.623983,0.185809 -2.521825,-1.464613 -2.521825,-2.747059 0,-0.553785 0.171699,-1.100281 0.536559,-1.650422 l -9.718862,-8.434274 -1.080271,-0.907186 -1.441553,2.750703 c 0.897841,0.732307 1.802836,1.643135 2.521824,2.561251 1.080272,1.468256 1.620407,3.293556 1.620407,5.311953 0,2.014753 -0.540135,4.029506 -1.620407,5.497761 -1.799259,2.564895 -4.503513,4.211673 -7.740749,4.211673 -5.040072,0 -9.357579,-4.397481 -9.357579,-9.709434 0,-5.126144 4.317507,-9.523626 9.357579,-9.523626 1.4344,0 2.6971,0.360689 3.963378,0.910829 l 3.777371,-6.958731 0,-0.367975 c -0.178853,-0.728663 -1.2627,-1.654064 -0.718988,-3.115034 0,-0.364331 0.357706,-0.728663 0.718988,-0.914471 1.13035,-0.659441 3.702253,-0.575645 5.780523,-0.553785 -1.466593,-0.193096 -2.400204,-2.2442817 -0.92288,-3.4757221 l 9.722438,-9.5272684 c 2.879533,-2.9328684 5.394204,-2.0183963 6.116769,1.6504217 z m -58.32855,46.5797808 98.842282,0 -49.420604,-87.122588 -49.421678,87.122588"
       style="fill:#ffffff;fill-opacity:1;fill-rule:nonzero;stroke:none"
       id="path938" />
    <path
       inkscape:connector-curvature="0"
       d="m 69.126646,14.106367 c -2.160542,1.103925 -1.799259,2.204205 -1.080271,4.215315 l 0.536559,0.92176 -7.37589,0 1.259124,-2.200562 c 0.178853,-0.553785 -1.259124,-2.022041 -0.901418,-2.936513 0.536558,-0.910829 3.777371,-0.546496 5.762637,-0.732306 0.718988,0 0.897841,-1.460969 0,-1.460969 -0.200315,0 -0.432827,-0.0035 -0.647447,-0.0073 0.479325,0.04737 1.015884,-0.09837 1.545288,-0.542854 l 6.478046,-6.0479023 2.342974,5.3119523 -7.919605,3.479366 z m 7.554743,12.642303 -2.518251,-6.04426 5.043652,0 -2.160542,4.025864 0.715412,1.654064 2.883107,-5.85845 1.259123,2.003824 1.262702,2.025682 c -0.357706,0.17488 -0.722566,0.550141 -1.262702,0.910829 -1.259123,1.282447 -2.156964,3.118678 -2.6971,4.943978 l -2.342971,-0.182165 c -0.722568,0.918115 -3.054809,1.278803 -4.313933,-0.189453 -0.364859,0 -0.540136,0 -0.904995,0.189453 l -10.799133,-9.523626 8.280888,0 3.602093,8.062656 c 1.434399,2.379085 5.394204,1.103925 3.95265,-2.018396 z m 10.445003,4.211672 -5.222499,-0.360689 -1.259123,0 c 0.357705,-1.100281 0.722565,-2.014752 1.259123,-2.932868 0.540135,-0.732306 1.262702,-1.282447 1.981686,-1.832587 l 3.240813,5.126144 z m 1.262701,-6.590756 c 4.317506,0 7.916028,3.66153 7.916028,8.059012 0,4.39748 -3.598519,8.062656 -7.916028,8.062656 -2.707831,0 -5.050801,-1.282448 -6.485203,-3.475723 -0.361282,-0.557427 -0.718987,-1.471899 -0.901418,-2.207848 l 0.901418,0 6.660479,-0.728664 c 0.718988,0 1.44513,-0.728663 1.44513,-1.460969 0,-0.739593 -0.543712,-1.471899 -1.266278,-1.657708 l -3.602094,-5.854807 c 1.087425,-0.550141 2.164118,-0.735949 3.247966,-0.735949 z m -27.543335,6.412233 c 0,0.553784 0.175276,1.096638 0.175276,1.646779 0,0.73595 -0.175276,1.28609 -0.175276,1.836231 -0.904995,3.475722 -3.966954,6.226425 -7.740749,6.226425 -4.317506,0 -7.92139,-3.475723 -7.92139,-8.062656 0,-4.397482 3.603884,-8.059012 7.92139,-8.059012 1.083848,0 2.160545,0.360688 3.237236,0.735949 l -3.237233,6.040616 c -0.718988,0 -1.445131,0.550141 -1.445131,1.471899 0,0.732306 0.726143,1.460969 1.445131,1.460969 0.904995,0 1.4344,-0.728663 1.4344,-1.460969 0,-0.375262 0,-0.739593 -0.175276,-0.921758 l 3.244387,-5.862094 c 1.613252,1.282447 2.693523,2.932868 3.237235,4.947621 z M 75.425839,-1.0971855 65.703401,8.4300829 c -1.477324,1.2314404 -0.543713,3.2826261 0.92288,3.4757221 -2.07827,-0.02186 -4.650173,-0.105656 -5.780523,0.553785 -0.361282,0.185808 -0.718988,0.55014 -0.718988,0.914471 -0.543712,1.46097 0.540135,2.386371 0.718988,3.115034 l 0,0.367975 -3.777371,6.958731 c -1.266278,-0.55014 -2.528978,-0.910829 -3.963378,-0.910829 -5.040072,0 -9.357579,4.397482 -9.357579,9.523626 0,5.311953 4.317507,9.709434 9.357579,9.709434 3.237236,0 5.94149,-1.646778 7.740749,-4.211673 1.080272,-1.468255 1.620407,-3.483008 1.620407,-5.497761 0,-2.018397 -0.540135,-3.843697 -1.620407,-5.311953 -0.718988,-0.918116 -1.623983,-1.828944 -2.521824,-2.561251 l 1.441553,-2.750703 1.080271,0.907186 9.718862,8.434274 c -0.36486,0.550141 -0.536559,1.096637 -0.536559,1.650422 0,1.282446 0.897842,2.932868 2.521825,2.747059 l 6.835757,-0.735949 c 0.361283,1.839874 1.259124,3.486651 2.518247,4.579646 1.802837,1.654065 3.963378,2.57218 6.485203,2.57218 5.222502,0 9.354001,-4.218958 9.354001,-9.530911 0,-5.311953 -4.131499,-9.523626 -9.354001,-9.523626 -1.44513,0 -2.883107,0.360689 -3.963378,0.910829 l -2.521825,-3.843697 -0.536558,-0.728662 0.536558,-1.103925 0.540136,-0.914472 1.441553,0 c 0.540136,0.178522 0.897842,-0.182165 0.897842,-0.546498 l 0,-2.014752 c -0.18243,-0.73595 -0.897842,-0.375262 -1.255547,-0.375262 l -1.623984,0.546498 -2.879529,1.293376 c -0.540136,0.182165 -0.540136,0.914473 0.182429,1.096638 l 1.795682,0 -1.080271,2.018397 -6.478051,0 -0.715411,-1.654066 8.638596,-3.661531 c 0.175275,0 0.357706,-0.182166 0.536558,-0.182166 1.623981,-0.735949 2.164117,-1.100281 1.623981,-3.118678 L 81.903893,2.5679893 81.54261,0.5532362 c -0.722565,-3.668818 -3.237235,-4.5832901 -6.116768,-1.6504217"
       style="fill:#191412;fill-opacity:1;fill-rule:nonzero;stroke:none"
       id="path940" />
    <path
       inkscape:connector-curvature="0"
       d="m 75.787122,-3.47627 c 1.613255,0.1821658 3.419668,-1.1039244 3.598521,-2.754346 0.175276,-1.8289441 -1.080271,-3.4793656 -2.704254,-3.843697 -1.799262,-0.182166 -3.419669,1.1002809 -3.598522,2.9292249 -0.354128,1.8362308 0.901418,3.483009 2.704255,3.6688181"
       style="fill:#191412;fill-opacity:1;fill-rule:nonzero;stroke:none"
       id="path942" />
  </g>
</svg>
