<?xml version="1.0" encoding="UTF-8" standalone="no"?>
<!-- Created with Inkscape (http://www.inkscape.org/) -->

<svg
   xmlns:dc="http://purl.org/dc/elements/1.1/"
   xmlns:cc="http://creativecommons.org/ns#"
   xmlns:rdf="http://www.w3.org/1999/02/22-rdf-syntax-ns#"
   xmlns:svg="http://www.w3.org/2000/svg"
   xmlns="http://www.w3.org/2000/svg"
   xmlns:sodipodi="http://sodipodi.sourceforge.net/DTD/sodipodi-0.dtd"
   xmlns:inkscape="http://www.inkscape.org/namespaces/inkscape"
   id="svg2993"
   version="1.1"
   preserveAspectRatio="xMinYMin meet"
   viewBox="0 0 145 130"
   inkscape:version="0.48.3.1 r9886"
   sodipodi:docname="cod_45.svg"
   width="100%"
   height="100%">
  <defs
     id="defs2995" />
  <sodipodi:namedview
     id="base"
     pagecolor="#ffffff"
     bordercolor="#666666"
     borderopacity="1.0"
     inkscape:pageopacity="0.0"
     inkscape:pageshadow="2"
     inkscape:zoom="1.0353448"
     inkscape:cx="-71.788619"
     inkscape:cy="-31.652006"
     inkscape:current-layer="layer1"
     showgrid="true"
     inkscape:document-units="px"
     inkscape:grid-bbox="true"
     inkscape:window-width="1366"
     inkscape:window-height="692"
     inkscape:window-x="0"
     inkscape:window-y="24"
     inkscape:window-maximized="1" />
  <metadata
     id="metadata2998">
    <rdf:RDF>
      <cc:Work
         rdf:about="">
        <dc:format>image/svg+xml</dc:format>
        <dc:type
           rdf:resource="http://purl.org/dc/dcmitype/StillImage" />
        <dc:title></dc:title>
      </cc:Work>
    </rdf:RDF>
  </metadata>
  <g
     id="layer1"
     inkscape:label="Layer 1"
     inkscape:groupmode="layer"
     transform="translate(0,66)">
    <path
       inkscape:connector-curvature="0"
       d="m 143.78997,55.335479 c 0,4.183714 -3.78872,7.582132 -8.45902,7.582132 l -125.6679106,0 c -4.6712122,0 -8.4542185,-3.398418 -8.4542185,-7.582132 l 0,-112.665546 c 0,-4.186138 3.7830063,-7.587544 8.4542185,-7.587544 l 125.6679106,0 c 4.6703,0 8.45902,3.401406 8.45902,7.587544 l 0,112.665546 z M 0,64 145,64 145,-66 0,-66 0,64 z M 0,-65.997294 0,64"
       style="fill:#2c4aa0;fill-opacity:1;fill-rule:nonzero;stroke:none"
       id="path3979" />
    <path
       inkscape:connector-curvature="0"
       d="m 141.37595,55.335479 c 0,2.99038 -2.70597,5.411943 -6.045,5.411943 l -125.6679106,0 c -3.3351152,0 -6.0365766,-2.421563 -6.0365766,-5.411943 l 0,-112.665546 c 0,-2.990099 2.7014614,-5.411943 6.0365766,-5.411943 l 125.6679106,0 c 3.33903,0 6.045,2.421844 6.045,5.411943 l 0,112.665546 z m -6.045,-120.25309 -125.6679106,0 c -4.6712122,0 -8.4542185,3.401406 -8.4542185,7.587544 l 0,112.665546 c 0,4.183714 3.7830063,7.582132 8.4542185,7.582132 l 125.6679106,0 c 4.6703,0 8.45902,-3.398418 8.45902,-7.582132 l 0,-112.665546 c 0,-4.186138 -3.78872,-7.587544 -8.45902,-7.587544"
       style="fill:#ffffff;fill-opacity:1;fill-rule:nonzero;stroke:none"
       id="path3981" />
    <path
       inkscape:connector-curvature="0"
       d="m 74.252006,-30.440829 -16.12514,0 0,23.6799564 16.357084,0 c 4.444094,0 7.71346,-1.0445049 9.818642,-2.938685 2.103083,-1.8833564 3.037133,-5.0222834 3.037133,-9.0081794 0,-3.975072 -0.93405,-6.913757 -3.269366,-8.797113 -2.106389,-1.891474 -5.374549,-2.935979 -9.818353,-2.935979"
       style="fill:#2c4aa0;fill-opacity:1;fill-rule:nonzero;stroke:none"
       id="path3983" />
    <path
       inkscape:connector-curvature="0"
       d="M 103.00433,4.5582061 C 97.157184,10.213686 88.975011,12.9386 78.228038,12.9386 l -20.101172,0 0,35.201701 -24.776317,0 0,-98.277896 43.937383,0 c 11.224132,0 19.634895,2.516553 25.479658,7.755314 5.84352,5.236055 8.87945,12.985957 8.87945,23.046759 0,10.2718677 -2.80036,18.43848963 -8.64271,23.8937281 z m 32.32662,-67.3002161 -125.6679106,0 c -3.3351152,0 -6.0365766,2.421844 -6.0365766,5.411943 l 0,112.665546 c 0,2.99038 2.7014614,5.411943 6.0365766,5.411943 l 125.6679106,0 c 3.33903,0 6.045,-2.421563 6.045,-5.411943 l 0,-112.665546 c 0,-2.990099 -2.70597,-5.411943 -6.045,-5.411943"
       style="fill:#2c4aa0;fill-opacity:1;fill-rule:nonzero;stroke:none"
       id="path3985" />
    <path
       inkscape:connector-curvature="0"
       d="m 84.302592,-9.6995576 c -2.105182,1.8941801 -5.374548,2.938685 -9.818642,2.938685 l -16.357084,0 0,-23.6799564 16.12514,0 c 4.443804,0 7.711964,1.044505 9.818353,2.935979 2.335316,1.883356 3.269366,4.822041 3.269366,8.797113 0,3.985896 -0.93405,7.124823 -3.037133,9.0081794 z m -7.01466,-40.4380374 -43.937383,0 0,98.277896 24.776317,0 0,-35.201701 20.101172,0 c 10.746973,0 18.929146,-2.724914 24.776292,-8.3803939 5.84235,-5.45523847 8.64271,-13.6218604 8.64271,-23.8937281 0,-10.060802 -3.03593,-17.810704 -8.87945,-23.046759 -5.844763,-5.238761 -14.255526,-7.755314 -25.479658,-7.755314"
       style="fill:#ffffff;fill-opacity:1;fill-rule:nonzero;stroke:none"
       id="path3987" />
  </g>
</svg>
