<?xml version="1.0" encoding="UTF-8" standalone="no"?>
<!-- Created with Inkscape (http://www.inkscape.org/) -->

<svg
   xmlns:dc="http://purl.org/dc/elements/1.1/"
   xmlns:cc="http://creativecommons.org/ns#"
   xmlns:rdf="http://www.w3.org/1999/02/22-rdf-syntax-ns#"
   xmlns:svg="http://www.w3.org/2000/svg"
   xmlns="http://www.w3.org/2000/svg"
   xmlns:sodipodi="http://sodipodi.sourceforge.net/DTD/sodipodi-0.dtd"
   xmlns:inkscape="http://www.inkscape.org/namespaces/inkscape"
   id="svg2993"
   version="1.1"
   preserveAspectRatio="xMinYMin meet"
   viewBox="0 0 145 130"
   inkscape:version="0.48.3.1 r9886"
   sodipodi:docname="cod_1.svg"
   width="100%"
   height="100%">
  <defs
     id="defs2995" />
  <sodipodi:namedview
     id="base"
     pagecolor="#ffffff"
     bordercolor="#666666"
     borderopacity="1.0"
     inkscape:pageopacity="0.0"
     inkscape:pageshadow="2"
     inkscape:zoom="4.0153846"
     inkscape:cx="72.5"
     inkscape:cy="65"
     inkscape:current-layer="layer1"
     showgrid="true"
     inkscape:document-units="px"
     inkscape:grid-bbox="true"
     inkscape:window-width="1366"
     inkscape:window-height="692"
     inkscape:window-x="0"
     inkscape:window-y="24"
     inkscape:window-maximized="1" />
  <metadata
     id="metadata2998">
    <rdf:RDF>
      <cc:Work
         rdf:about="">
        <dc:format>image/svg+xml</dc:format>
        <dc:type
           rdf:resource="http://purl.org/dc/dcmitype/StillImage" />
        <dc:title></dc:title>
      </cc:Work>
    </rdf:RDF>
  </metadata>
  <g
     id="layer1"
     inkscape:label="Layer 1"
     inkscape:groupmode="layer"
     transform="translate(0,66)">
    <path
       inkscape:connector-curvature="0"
       d="m 143.37531,59.570624 c -1.35518,2.378604 -3.77591,3.810138 -6.48269,3.810138 l -128.7847952,0 c -2.7067799,0 -5.1239307,-1.424249 -6.4826842,-3.810138 -1.34802641,-2.385889 -1.34802641,-5.238029 0.00715,-7.616633 l 64.3906114,-113.5319 c 1.351603,-2.385889 3.768754,-3.806495 6.475533,-3.806495 2.70678,0 5.131083,1.420606 6.475533,3.806495 l 64.397762,113.5319 c 1.3516,2.378604 1.3516,5.230744 0.004,7.616633 z M 79.506743,-61.887528 C 78.044295,-64.466474 75.423331,-66 72.498435,-66 c -2.921319,0 -5.542283,1.533526 -7.004731,4.112472 L 1.0995176,51.64073 c -1.46602346,2.578946 -1.46602346,5.656925 0,8.235871 C 2.5583897,62.455547 5.1793536,64 8.1078248,64 L 136.89262,64 c 2.92132,0 5.54586,-1.544453 7.01188,-4.123399 1.46245,-2.578946 1.45888,-5.656925 0,-8.235871 L 79.506743,-61.887528"
       style="fill:#191412;fill-opacity:1;fill-rule:nonzero;stroke:none"
       id="path1244" />
    <path
       inkscape:connector-curvature="0"
       d="m 23.100596,46.952731 49.397839,-87.101348 49.401415,87.101348 -98.799254,0 z M 77.0002,-60.408641 c -2.002373,-3.526017 -6.994004,-3.526017 -8.996378,0 -21.461153,37.831825 -42.929457,75.689148 -64.3941862,113.528258 -1.9952222,3.518731 0.504169,7.929894 4.498189,7.929894 l 128.7847952,0 c 3.99402,0 6.49699,-4.411163 4.49819,-7.929894 C 119.92608,15.280507 98.461353,-22.576816 77.0002,-60.408641"
       style="fill:#c13339;fill-opacity:1;fill-rule:nonzero;stroke:none"
       id="path1246" />
    <path
       inkscape:connector-curvature="0"
       d="m 73.342293,8.7748606 -7.015459,13.1897784 6.657892,11.361204 7.920102,0 3.958264,7.325226 24.833008,0 1.07627,2.010704 -80.248689,0 37.787648,-67.223795 2.871261,5.496652 -2.334911,4.578721 4.137047,7.6967698 -4.137047,7.8716131 4.494614,7.6931267 z m 0.904644,-22.7114796 1.616201,0 0.901068,1.282188 -0.901068,1.467959 -1.616201,0 -0.729436,-1.467959 0.729436,-1.282188 z m 4.855755,16.3005407 -1.258634,2.1964751 -2.338487,0 -1.258634,-2.1964751 1.258634,-2.0143462 2.338487,0 1.258634,2.0143462 z m 1.440994,12.2718483 0.715133,1.289473 -0.715133,1.096416 -1.265786,0 -0.711558,-1.096416 0.711558,-1.289473 1.265786,0 z m 7.912951,6.050324 -1.258635,2.196475 -2.517269,0 -1.255059,-2.196475 1.255059,-2.382247 2.517269,0 1.258635,2.382247 z m -6.479108,-16.1256972 4.144198,0 2.159702,3.6644344 -2.159702,3.8538488 -4.144198,0 -2.334911,-3.8538488 2.334911,-3.6644344 z m 10.440947,15.9435682 4.140622,0 2.156128,3.846563 -2.156128,3.660792 -4.140622,0 -2.338486,-3.660792 2.338486,-3.846563 z m -69.31788,26.448766 98.799254,0 -49.401415,-87.101348 -49.397839,87.101348"
       style="fill:#ffffff;fill-opacity:1;fill-rule:nonzero;stroke:none"
       id="path1248" />
    <path
       inkscape:connector-curvature="0"
       d="m 75.863138,-11.186472 0.901068,-1.467959 -0.901068,-1.282188 -1.616201,0 -0.729436,1.282188 0.729436,1.467959 1.616201,0"
       style="fill:#191412;fill-opacity:1;fill-rule:nonzero;stroke:none"
       id="path1250" />
    <path
       inkscape:connector-curvature="0"
       d="m 74.246937,2.3639217 1.258634,2.1964751 2.338487,0 1.258634,-2.1964751 -1.258634,-2.0143462 -2.338487,0 -1.258634,2.0143462"
       style="fill:#191412;fill-opacity:1;fill-rule:nonzero;stroke:none"
       id="path1252" />
    <path
       inkscape:connector-curvature="0"
       d="m 86.121727,12.07868 2.159702,-3.8538488 -2.159702,-3.6644344 -4.144198,0 -2.334911,3.6644344 2.334911,3.8538488 4.144198,0"
       style="fill:#191412;fill-opacity:1;fill-rule:nonzero;stroke:none"
       id="path1254" />
    <path
       inkscape:connector-curvature="0"
       d="m 96.559098,28.01132 2.156128,-3.660792 -2.156128,-3.846563 -4.140622,0 -2.338486,3.846563 2.338486,3.660792 4.140622,0"
       style="fill:#191412;fill-opacity:1;fill-rule:nonzero;stroke:none"
       id="path1256" />
    <path
       inkscape:connector-curvature="0"
       d="m 84.680733,18.303847 -1.255059,2.382247 1.255059,2.196475 2.517269,0 1.258635,-2.196475 -1.258635,-2.382247 -2.517269,0"
       style="fill:#191412;fill-opacity:1;fill-rule:nonzero;stroke:none"
       id="path1258" />
    <path
       inkscape:connector-curvature="0"
       d="m 79.2779,17.021659 1.265786,0 0.715133,-1.096416 -0.715133,-1.289473 -1.265786,0 -0.711558,1.289473 0.711558,1.096416"
       style="fill:#191412;fill-opacity:1;fill-rule:nonzero;stroke:none"
       id="path1260" />
    <path
       inkscape:connector-curvature="0"
       d="m 68.847679,-14.486649 2.334911,-4.578721 -2.871261,-5.496652 -37.787648,67.223795 80.248689,0 -1.07627,-2.010704 -24.833008,0 -3.958264,-7.325226 -7.920102,0 -6.657892,-11.361204 7.015459,-13.1897784 -4.494614,-7.6931267 4.137047,-7.8716131 -4.137047,-7.6967698"
       style="fill:#191412;fill-opacity:1;fill-rule:nonzero;stroke:none"
       id="path1262" />
  </g>
</svg>
