<?xml version="1.0" encoding="UTF-8" standalone="no"?>
<!-- Created with Inkscape (http://www.inkscape.org/) -->

<svg
   xmlns:dc="http://purl.org/dc/elements/1.1/"
   xmlns:cc="http://creativecommons.org/ns#"
   xmlns:rdf="http://www.w3.org/1999/02/22-rdf-syntax-ns#"
   xmlns:svg="http://www.w3.org/2000/svg"
   xmlns="http://www.w3.org/2000/svg"
   xmlns:sodipodi="http://sodipodi.sourceforge.net/DTD/sodipodi-0.dtd"
   xmlns:inkscape="http://www.inkscape.org/namespaces/inkscape"
   id="svg2993"
   version="1.1"
   preserveAspectRatio="xMinYMin meet"
   viewBox="0 0 145 130"
   inkscape:version="0.48.3.1 r9886"
   sodipodi:docname="cod_1.svg"
   width="100%"
   height="100%">
  <defs
     id="defs2995" />
  <sodipodi:namedview
     id="base"
     pagecolor="#ffffff"
     bordercolor="#666666"
     borderopacity="1.0"
     inkscape:pageopacity="0.0"
     inkscape:pageshadow="2"
     inkscape:zoom="2.0706896"
     inkscape:cx="125.05014"
     inkscape:cy="-9.1396909"
     inkscape:current-layer="layer1"
     showgrid="true"
     inkscape:document-units="px"
     inkscape:grid-bbox="true"
     inkscape:window-width="1366"
     inkscape:window-height="692"
     inkscape:window-x="0"
     inkscape:window-y="24"
     inkscape:window-maximized="1" />
  <metadata
     id="metadata2998">
    <rdf:RDF>
      <cc:Work
         rdf:about="">
        <dc:format>image/svg+xml</dc:format>
        <dc:type
           rdf:resource="http://purl.org/dc/dcmitype/StillImage" />
        <dc:title></dc:title>
      </cc:Work>
    </rdf:RDF>
  </metadata>
  <g
     id="layer1"
     inkscape:label="Layer 1"
     inkscape:groupmode="layer"
     transform="translate(0,66)">
    <path
       inkscape:connector-curvature="0"
       d="m 143.37752,59.570872 c -1.35876,2.378471 -3.77594,3.806282 -6.48274,3.806282 l -128.7967135,0 c -2.6960778,0 -5.1168267,-1.427811 -6.4720169,-3.806282 -1.35161463,-2.389398 -1.35161463,-5.234092 0,-7.616206 L 66.017253,-61.574515 c 1.35519,-2.382113 3.775939,-3.802639 6.479168,-3.802639 2.70323,0 5.127554,1.420526 6.479169,3.802639 l 64.39478,113.529181 c 1.35519,2.382114 1.35519,5.226808 0.006,7.616206 z M 79.504793,-61.884116 C 78.045908,-64.462918 75.421344,-66 72.496421,-66 c -2.924922,0 -5.54591,1.537082 -7.004793,4.115884 L 1.096846,51.641422 c -1.46246132,2.578802 -1.46246132,5.663893 0,8.242694 C 2.5593072,62.459275 5.1802953,64 8.0980665,64 L 136.89478,64 c 2.92135,0 5.54591,-1.540725 7.00837,-4.119526 1.46604,-2.578801 1.45889,-5.66025 0,-8.239052 L 79.504796,-61.884116"
       style="fill:#191412;fill-opacity:1;fill-rule:nonzero;stroke:none"
       id="path1048" />
    <path
       inkscape:connector-curvature="0"
       d="m 23.090976,46.953686 49.405445,-87.100109 49.405449,87.100109 -98.810894,0 z m 53.9001,-107.358998 c -1.998816,-3.525819 -6.986918,-3.525819 -8.98931,0 C 46.53684,-22.568323 25.071914,15.279594 3.610563,53.120226 1.6117468,56.63876 4.111161,61.046034 8.0980665,61.046034 l 128.7967135,0 c 3.99405,0 6.49347,-4.407274 4.49823,-7.925808 C 119.92451,15.279594 98.459579,-22.568323 76.991076,-60.405312"
       style="fill:#c13339;fill-opacity:1;fill-rule:nonzero;stroke:none"
       id="path1050" />
    <path
       inkscape:connector-curvature="0"
       d="m 87.614481,3.6276372 2.520868,7.8784568 -2.17045,-0.739402 -1.61264,-5.3032979 C 85.819479,4.5455157 85.640694,4.1812782 84.557257,3.6276372 L 76.637082,1.9812838 68.541697,0.87764422 C 67.10069,0.69916786 66.918329,1.059763 66.203189,1.7955227 l -3.064374,4.5748228 -1.977363,0 4.13351,-6.40329498 c 0.908227,-0.92152083 1.448158,-1.10363962 2.528019,-1.28575832 l 17.817713,3.2999916 c 1.24792,0.3678799 1.433856,0.728475 1.973787,1.6463534 z M 86.534619,14.066683 c -0.71514,0 -1.437431,0.182119 -1.623367,1.832115 l 5.942813,1.099997 -0.182218,0.914236 -5.939237,-1.099997 c -0.175353,1.282116 0,2.017876 0.718715,2.199994 l 4.684167,0.921521 c 0,0.360595 -0.543506,0.546357 -0.8975,0.546357 L 74.116356,17.730913 59.005448,15.170323 C 58.640727,14.98092 58.286733,14.620324 58.286733,14.248802 l 4.677015,0.732118 c 0.897501,0 1.258647,-0.546357 1.433856,-1.821188 l -5.932086,-0.921521 0.175352,-1.099997 5.939238,1.099997 c 0.368297,-1.649995 -0.35757,-2.014233 -1.076286,-2.3821128 l -4.498231,-0.728475 c 0.897501,-1.2857583 1.977363,-2.0251604 3.421945,-1.8357569 4.140661,0.1821187 8.63174,0.9142361 13.126395,1.8357569 4.323021,0.9142358 9.003612,1.6390688 13.140697,2.7390658 1.262222,0.549999 1.977362,1.653638 2.338508,2.932112 l -4.498231,-0.732118 z m 5.395732,18.86386 c 0.543506,0 1.083437,0.557283 1.083437,1.103639 0,0.553641 -0.539931,1.099997 -1.083437,1.099997 -0.71514,0 -1.258647,-0.546356 -1.258647,-1.099997 0,-0.546356 0.543507,-1.103639 1.258647,-1.103639 z m 2.885589,5.685747 c 0,0.906951 -0.908227,1.82483 -1.802152,1.82483 -1.083437,0 -1.980938,-0.917879 -1.980938,-1.82483 0,-1.107282 0.897501,-2.021518 1.980938,-2.021518 0.893925,0 1.802152,0.914236 1.802152,2.021518 z m 3.057224,-3.667872 c 0.539931,0 0.893925,0.364238 0.893925,0.910594 0,0.549999 -0.353994,0.917879 -0.893925,0.917879 -0.543506,0 -0.904652,-0.36788 -0.904652,-0.917879 0,-0.546356 0.361146,-0.910594 0.904652,-0.910594 z m 1.798577,5.314225 c 0,0.546356 -0.35757,0.910594 -0.904652,0.910594 -0.543506,0 -0.893925,-0.364238 -0.893925,-0.910594 0,-0.549998 0.350419,-0.917878 0.893925,-0.917878 0.547082,0 0.904652,0.36788 0.904652,0.917878 z m 2.152569,-5.128464 c 1.08344,0 1.98809,0.910594 1.98809,2.014234 0,0.914236 -0.90465,1.821187 -1.98809,1.821187 -0.8975,0 -1.79142,-0.906951 -1.79142,-1.821187 0,-1.10364 0.89392,-2.014234 1.79142,-2.014234 z m 3.24316,5.856939 0,0.182119 -1.61979,0 c -0.17878,0 -0.17878,-0.182119 -0.17878,-0.182119 0,-0.549998 0.35757,-0.921521 0.89392,-0.921521 0.54351,0 0.90465,0.371523 0.90465,0.921521 z M 89.591843,23.955731 57.389089,18.09515 c -0.729443,0 -0.904652,-0.542714 -0.904652,-1.096355 l 0,-0.364237 c 0.175066,-0.553641 0.718716,-0.917879 1.258646,-0.73576 l 32.213481,5.860581 c 0.71514,0 1.076286,0.546356 0.897501,1.099997 l 0,0.36788 c 0,0.542714 -0.543506,0.910594 -1.262222,0.728475 z M 88.333196,38.9696 c -0.718715,0 -1.444582,-0.728475 -1.444582,-1.642711 0,-0.732117 0.725867,-1.467877 1.444582,-1.467877 0.904653,0 1.623368,0.73576 1.623368,1.467877 0,0.914236 -0.718715,1.642711 -1.623368,1.642711 z m -3.057223,-2.560589 c -0.718716,0 -1.258646,-0.549999 -1.258646,-1.274832 0,-0.914236 0.53993,-1.467877 1.258646,-1.467877 0.71514,0 1.433856,0.553641 1.433856,1.467877 0,0.724833 -0.718716,1.274832 -1.433856,1.274832 z m 3.597154,-4.571181 c 0,0.546356 -0.364721,1.092713 -0.908228,1.092713 -0.350418,0 -0.890349,-0.546357 -0.890349,-1.092713 0,-0.375164 0.539931,-0.921521 0.890349,-0.921521 0.543507,0 0.908228,0.546357 0.908228,0.921521 z m -0.908228,-4.028466 c 0,0.539071 -0.707988,0.724832 -0.890349,0.539071 l -3.60073,-0.539071 c -0.532779,-0.189404 -0.8975,-0.546357 -0.8975,-0.921521 l 0.536355,-2.749993 5.395731,0.921521 -0.543507,2.749993 z m -5.924934,3.653302 c 0,-0.906952 0.71514,-1.639069 1.433855,-1.639069 0.901077,0 1.623368,0.732117 1.623368,1.639069 0,0.739402 -0.722291,1.467877 -1.623368,1.467877 -0.718715,0 -1.433855,-0.728475 -1.433855,-1.467877 z m -0.539931,4.946345 c -0.539931,0 -0.897501,-0.364238 -0.897501,-0.914236 0,-0.546357 0.35757,-0.906952 0.897501,-0.906952 0.353994,0 0.893925,0.360595 0.893925,0.906952 0,0.549998 -0.539931,0.914236 -0.893925,0.914236 z M 78.97559,33.116304 c -1.076286,0 -1.798577,-0.732118 -1.798577,-1.832115 0,-1.099997 0.722291,-1.828472 1.798577,-1.828472 1.079861,0 1.795001,0.728475 1.795001,1.828472 0,1.099997 -0.71514,1.832115 -1.795001,1.832115 z m -2.338508,3.11423 c -0.722292,0 -1.255071,-0.549998 -1.255071,-1.282116 0,-0.728475 0.532779,-1.282116 1.255071,-1.282116 0.897501,0 1.441007,0.553641 1.441007,1.282116 0,0.732118 -0.543506,1.282116 -1.441007,1.282116 z m -3.597154,-8.42117 c 0,-1.099997 1.076285,-2.017876 2.159723,-2.017876 1.25507,0 2.159722,0.917879 2.159722,2.017876 0,1.274831 -0.904652,2.196352 -2.159722,2.196352 -1.083438,0 -2.159723,-0.921521 -2.159723,-2.196352 z m 0.718715,4.574822 c -0.35757,0 -0.8975,-0.367879 -0.8975,-0.92152 0,-0.546357 0.53993,-0.906952 0.8975,-0.906952 0.539931,0 1.079862,0.360595 1.079862,0.906952 0,0.553641 -0.539931,0.92152 -1.079862,0.92152 z m -16.190769,-10.078451 0.539931,-2.560589 5.395731,0.914236 -0.539931,2.746351 c 0,0.364237 -0.722291,0.549998 -0.901076,0.549998 L 58.28659,23.227256 c -0.364722,0 -0.718716,-0.36788 -0.718716,-0.921521 z m 14.567402,9.160573 -32.206327,0 0,-6.0427 32.206327,0 0,6.0427 z m -49.0443,15.487378 98.810894,0 -49.405449,-87.100109 -49.405445,87.100109"
       style="fill:#ffffff;fill-opacity:1;fill-rule:nonzero;stroke:none"
       id="path1052" />
    <path
       inkscape:connector-curvature="0"
       d="m 39.928946,31.466308 32.206415,0 0,-6.042627 -32.206415,0 0,6.042627 z"
       style="fill:#191412;fill-opacity:1;fill-rule:nonzero;stroke:none"
       id="path1054" />
    <path
       inkscape:connector-curvature="0"
       d="m 77.359373,27.809364 c 0,-1.099997 -0.904652,-2.017876 -2.159722,-2.017876 -1.083438,0 -2.159723,0.917879 -2.159723,2.017876 0,1.274831 1.076285,2.196352 2.159723,2.196352 1.25507,0 2.159722,-0.921521 2.159722,-2.196352"
       style="fill:#191412;fill-opacity:1;fill-rule:nonzero;stroke:none"
       id="path1056" />
    <path
       inkscape:connector-curvature="0"
       d="m 78.97559,29.455717 c -1.076286,0 -1.798577,0.728475 -1.798577,1.828472 0,1.099997 0.722291,1.832115 1.798577,1.832115 1.079861,0 1.795001,-0.732118 1.795001,-1.832115 0,-1.099997 -0.71514,-1.828472 -1.795001,-1.828472"
       style="fill:#191412;fill-opacity:1;fill-rule:nonzero;stroke:none"
       id="path1058" />
    <path
       inkscape:connector-curvature="0"
       d="m 91.03285,38.61629 c 0,0.906951 0.897501,1.82483 1.980938,1.82483 0.893925,0 1.802152,-0.917879 1.802152,-1.82483 0,-1.107282 -0.908227,-2.021518 -1.802152,-2.021518 -1.083437,0 -1.980938,0.914236 -1.980938,2.021518"
       style="fill:#191412;fill-opacity:1;fill-rule:nonzero;stroke:none"
       id="path1060" />
    <path
       inkscape:connector-curvature="0"
       d="m 101.82431,38.9696 c 1.08344,0 1.98809,-0.906951 1.98809,-1.821187 0,-1.10364 -0.90465,-2.014234 -1.98809,-2.014234 -0.8975,0 -1.79142,0.910594 -1.79142,2.014234 0,0.914236 0.89392,1.821187 1.79142,1.821187"
       style="fill:#191412;fill-opacity:1;fill-rule:nonzero;stroke:none"
       id="path1062" />
    <path
       inkscape:connector-curvature="0"
       d="m 76.637082,33.666302 c -0.722292,0 -1.255071,0.553641 -1.255071,1.282116 0,0.732118 0.532779,1.282116 1.255071,1.282116 0.897501,0 1.441007,-0.549998 1.441007,-1.282116 0,-0.728475 -0.543506,-1.282116 -1.441007,-1.282116"
       style="fill:#191412;fill-opacity:1;fill-rule:nonzero;stroke:none"
       id="path1064" />
    <path
       inkscape:connector-curvature="0"
       d="m 85.097188,31.462666 c 0,-0.906952 -0.722291,-1.639069 -1.623368,-1.639069 -0.718715,0 -1.433855,0.732117 -1.433855,1.639069 0,0.739402 0.71514,1.467877 1.433855,1.467877 0.901077,0 1.623368,-0.728475 1.623368,-1.467877"
       style="fill:#191412;fill-opacity:1;fill-rule:nonzero;stroke:none"
       id="path1066" />
    <path
       inkscape:connector-curvature="0"
       d="m 85.275973,33.666302 c -0.718716,0 -1.258646,0.553641 -1.258646,1.467877 0,0.724833 0.53993,1.274832 1.258646,1.274832 0.71514,0 1.433856,-0.549999 1.433856,-1.274832 0,-0.914236 -0.718716,-1.467877 -1.433856,-1.467877"
       style="fill:#191412;fill-opacity:1;fill-rule:nonzero;stroke:none"
       id="path1068" />
    <path
       inkscape:connector-curvature="0"
       d="m 88.333196,35.859012 c -0.718715,0 -1.444582,0.73576 -1.444582,1.467877 0,0.914236 0.725867,1.642711 1.444582,1.642711 0.904653,0 1.623368,-0.728475 1.623368,-1.642711 0,-0.732117 -0.718715,-1.467877 -1.623368,-1.467877"
       style="fill:#191412;fill-opacity:1;fill-rule:nonzero;stroke:none"
       id="path1070" />
    <path
       inkscape:connector-curvature="0"
       d="m 91.930351,35.134179 c 0.543506,0 1.083437,-0.546356 1.083437,-1.099997 0,-0.546356 -0.539931,-1.103639 -1.083437,-1.103639 -0.71514,0 -1.258647,0.557283 -1.258647,1.103639 0,0.553641 0.543507,1.099997 1.258647,1.099997"
       style="fill:#191412;fill-opacity:1;fill-rule:nonzero;stroke:none"
       id="path1072" />
    <path
       inkscape:connector-curvature="0"
       d="m 73.758643,30.555714 c -0.35757,0 -0.8975,0.360595 -0.8975,0.906952 0,0.553641 0.53993,0.92152 0.8975,0.92152 0.539931,0 1.079862,-0.367879 1.079862,-0.92152 0,-0.546357 -0.539931,-0.906952 -1.079862,-0.906952"
       style="fill:#191412;fill-opacity:1;fill-rule:nonzero;stroke:none"
       id="path1074" />
    <path
       inkscape:connector-curvature="0"
       d="m 81.500034,34.587823 c -0.539931,0 -0.897501,0.360595 -0.897501,0.906952 0,0.549998 0.35757,0.914236 0.897501,0.914236 0.353994,0 0.893925,-0.364238 0.893925,-0.914236 0,-0.546357 -0.539931,-0.906952 -0.893925,-0.906952"
       style="fill:#191412;fill-opacity:1;fill-rule:nonzero;stroke:none"
       id="path1076" />
    <path
       inkscape:connector-curvature="0"
       d="m 87.07455,31.83783 c 0,0.546356 0.539931,1.092713 0.890349,1.092713 0.543507,0 0.908228,-0.546357 0.908228,-1.092713 0,-0.375164 -0.364721,-0.921521 -0.908228,-0.921521 -0.350418,0 -0.890349,0.546357 -0.890349,0.921521"
       style="fill:#191412;fill-opacity:1;fill-rule:nonzero;stroke:none"
       id="path1078" />
    <path
       inkscape:connector-curvature="0"
       d="m 97.873164,36.776891 c 0.539931,0 0.893925,-0.36788 0.893925,-0.917879 0,-0.546356 -0.353994,-0.910594 -0.893925,-0.910594 -0.543506,0 -0.904652,0.364238 -0.904652,0.910594 0,0.549999 0.361146,0.917879 0.904652,0.917879"
       style="fill:#191412;fill-opacity:1;fill-rule:nonzero;stroke:none"
       id="path1080" />
    <path
       inkscape:connector-curvature="0"
       d="m 97.873164,40.262643 c 0,0.546356 0.350419,0.910594 0.893925,0.910594 0.547082,0 0.904652,-0.364238 0.904652,-0.910594 0,-0.549998 -0.35757,-0.917878 -0.904652,-0.917878 -0.543506,0 -0.893925,0.36788 -0.893925,0.917878"
       style="fill:#191412;fill-opacity:1;fill-rule:nonzero;stroke:none"
       id="path1082" />
    <path
       inkscape:connector-curvature="0"
       d="m 103.2689,40.991118 c 0,0 0,0.182119 0.17878,0.182119 l 1.61979,0 0,-0.182119 c 0,-0.549998 -0.36114,-0.921521 -0.90465,-0.921521 -0.53635,0 -0.89392,0.371523 -0.89392,0.921521"
       style="fill:#191412;fill-opacity:1;fill-rule:nonzero;stroke:none"
       id="path1084" />
    <path
       inkscape:connector-curvature="0"
       d="M 90.854065,22.859376 C 91.03285,22.305735 90.671847,21.759379 89.956564,21.759379 L 57.743083,15.898798 c -0.53993,-0.182119 -1.083437,0.182119 -1.258646,0.73576 l 0,0.364237 c 0,0.553641 0.175066,1.096355 0.904652,1.096355 l 32.202754,5.860581 c 0.718716,0.182119 1.262222,-0.185761 1.262222,-0.728475 l 0,-0.36788"
       style="fill:#191412;fill-opacity:1;fill-rule:nonzero;stroke:none"
       id="path1086" />
    <path
       inkscape:connector-curvature="0"
       d="m 62.062529,23.955731 c 0.178785,0 0.901076,-0.185761 0.901076,-0.549998 l 0.539931,-2.746351 -5.395731,-0.914236 -0.539931,2.560589 c 0,0.553641 0.353994,0.921521 0.718716,0.921521 l 3.775939,0.728475"
       style="fill:#191412;fill-opacity:1;fill-rule:nonzero;stroke:none"
       id="path1088" />
    <path
       inkscape:connector-curvature="0"
       d="m 82.57632,26.887843 c 0,0.375164 0.364721,0.732117 0.8975,0.921521 l 3.60073,0.539071 c 0.182218,0.185761 0.890349,0 0.890349,-0.539071 l 0.543507,-2.749993 -5.395731,-0.921521 -0.536355,2.749993"
       style="fill:#191412;fill-opacity:1;fill-rule:nonzero;stroke:none"
       id="path1090" />
    <path
       inkscape:connector-curvature="0"
       d="m 65.294962,-0.03294948 -4.13351,6.40329498 1.977363,0 3.064374,-4.5748228 C 66.918329,1.059763 67.10069,0.69916786 68.541697,0.87764422 l 8.095385,1.10363958 7.920175,1.6463534 c 1.083437,0.553641 1.262222,0.9178785 1.795002,1.8357569 l 1.61264,5.3032979 2.17045,0.739402 -2.520868,-7.8784568 C 87.07455,2.7097588 86.888614,2.3491637 85.640694,1.9812838 L 67.822981,-1.3187078 c -1.079858,0.1821187 -1.619789,0.36423749 -2.528017,1.28575832"
       style="fill:#191412;fill-opacity:1;fill-rule:nonzero;stroke:none"
       id="path1092" />
    <path
       inkscape:connector-curvature="0"
       d="m 79.876666,14.434563 -0.364721,1.646354 c 0,0.553641 -0.536355,0.917878 -1.258647,0.917878 l -7.737814,-1.471519 c -0.718716,-0.174834 -1.076286,-0.728475 -0.893925,-1.278474 l 0.175352,-1.642711 c 0.178785,-0.549998 0.718716,-0.921521 1.262222,-0.739402 l 7.9166,1.464235 c 0.536355,0 1.079861,0.549998 0.901076,1.103639 z m 8.817676,-2.567874 C 84.557257,10.766692 79.876666,10.041859 75.553645,9.1276232 71.05899,8.2061024 66.567911,7.473985 62.42725,7.2918663 60.982667,7.1024628 59.902806,7.8418649 59.005305,9.1276232 l 4.498231,0.728475 c 0.718716,0.3678798 1.444583,0.7321178 1.076286,2.3821128 l -5.939238,-1.099997 -0.175352,1.099997 5.932083,0.921521 c -0.175352,1.274831 -0.536355,1.821188 -1.433856,1.821188 l -4.677012,-0.732118 c 0,0.371522 0.353994,0.732118 0.718715,0.921521 l 15.110908,2.56059 15.121633,2.749993 c 0.353994,0 0.8975,-0.185762 0.8975,-0.546357 L 85.451039,19.013028 C 84.732324,18.83091 84.557114,18.09515 84.732324,16.813034 l 5.939234,1.099997 0.182218,-0.914236 -5.942813,-1.099997 c 0.185936,-1.649996 0.908227,-1.832115 1.623367,-1.832115 l 4.498231,0.732118 c -0.361146,-1.278474 -1.076286,-2.382113 -2.338508,-2.932112"
       style="fill:#191412;fill-opacity:1;fill-rule:nonzero;stroke:none"
       id="path1094" />
    <path
       inkscape:connector-curvature="0"
       d="m 78.97559,13.330924 -7.9166,-1.464235 c -0.543506,-0.182119 -1.083437,0.189404 -1.262222,0.739402 l -0.175352,1.642711 c -0.182218,0.549999 0.175352,1.10364 0.893925,1.278474 l 7.737814,1.471519 c 0.722292,0 1.258647,-0.364237 1.258647,-0.917878 l 0.364721,-1.646354 c 0.178785,-0.553641 -0.364721,-1.103639 -0.901076,-1.103639"
       style="fill:#ffffff;fill-opacity:1;fill-rule:nonzero;stroke:none"
       id="path1096" />
  </g>
</svg>
