<?xml version="1.0" encoding="UTF-8" standalone="no"?>
<!-- Created with Inkscape (http://www.inkscape.org/) -->

<svg
   xmlns:dc="http://purl.org/dc/elements/1.1/"
   xmlns:cc="http://creativecommons.org/ns#"
   xmlns:rdf="http://www.w3.org/1999/02/22-rdf-syntax-ns#"
   xmlns:svg="http://www.w3.org/2000/svg"
   xmlns="http://www.w3.org/2000/svg"
   xmlns:sodipodi="http://sodipodi.sourceforge.net/DTD/sodipodi-0.dtd"
   xmlns:inkscape="http://www.inkscape.org/namespaces/inkscape"
   id="svg2993"
   version="1.1"
   preserveAspectRatio="xMinYMin meet"
   viewBox="0 0 145 130"
   inkscape:version="0.48.3.1 r9886"
   sodipodi:docname="cod_1.svg"
   width="100%"
   height="100%">
  <defs
     id="defs2995" />
  <sodipodi:namedview
     id="base"
     pagecolor="#ffffff"
     bordercolor="#666666"
     borderopacity="1.0"
     inkscape:pageopacity="0.0"
     inkscape:pageshadow="2"
     inkscape:zoom="15.556349"
     inkscape:cx="140.29316"
     inkscape:cy="9.1126569"
     inkscape:current-layer="layer1"
     showgrid="true"
     inkscape:document-units="px"
     inkscape:grid-bbox="true"
     inkscape:window-width="1366"
     inkscape:window-height="692"
     inkscape:window-x="0"
     inkscape:window-y="24"
     inkscape:window-maximized="1" />
  <metadata
     id="metadata2998">
    <rdf:RDF>
      <cc:Work
         rdf:about="">
        <dc:format>image/svg+xml</dc:format>
        <dc:type
           rdf:resource="http://purl.org/dc/dcmitype/StillImage" />
        <dc:title></dc:title>
      </cc:Work>
    </rdf:RDF>
  </metadata>
  <g
     id="layer1"
     inkscape:label="Layer 1"
     inkscape:groupmode="layer"
     transform="translate(0,66)">
    <path
       inkscape:connector-curvature="0"
       d="m 143.50612,59.641106 c -1.35354,2.378726 -3.78133,3.80669 -6.48842,3.80669 l -128.9735994,0 c -2.7070919,0 -5.1348808,-1.427964 -6.4884269,-3.80669 -1.35354587,-2.389655 -1.35354587,-5.234655 0,-7.617023 L 31.480498,-0.66487927 66.042471,-61.517278 c 1.353546,-2.382369 3.777754,-3.803048 6.488427,-3.803048 2.707093,0 5.131301,1.420679 6.488427,3.803048 L 143.50612,52.024083 c 1.35354,2.382368 1.35354,5.227368 0,7.617023 z M 79.549285,-61.826913 c -1.464551,-2.579079 -4.089284,-4.116326 -7.018387,-4.116326 -2.929102,0 -5.553836,1.537247 -7.018386,4.116326 L 30.95412,-0.98179985 1.0292947,51.710805 c -1.46813177,2.579077 -1.46813177,5.6645 0,8.243578 1.4645511,2.575435 4.0857036,4.116326 7.0148059,4.116326 l 128.9735994,0 c 2.9291,0 5.55383,-1.540891 7.01837,-4.119968 1.46457,-2.579078 1.46457,-5.660859 0,-8.239936 L 79.549285,-61.826913"
       style="fill:#191412;fill-opacity:1;fill-rule:nonzero;stroke:none"
       id="path968" />
    <path
       inkscape:connector-curvature="0"
       d="m 23.058436,47.022566 49.472462,-87.109455 49.472462,87.109455 -98.944924,0 z M 77.031976,-60.34795 c -1.998092,-3.526198 -7.004063,-3.526198 -9.002155,0 -21.4956,37.841048 -42.991198,75.693026 -64.4867979,113.537718 -1.9980917,3.518912 0.5013133,7.926657 4.5010775,7.926657 l 128.9735994,0 c 3.99617,0 6.49917,-4.407745 4.49749,-7.926657 C 120.02317,15.345076 98.527575,-22.506902 77.031976,-60.34795"
       style="fill:#c13339;fill-opacity:1;fill-rule:nonzero;stroke:none"
       id="path970" />
    <path
       inkscape:connector-curvature="0"
       d="m 60.363308,16.02263 c 0.540702,1.092831 1.081405,1.832311 1.622107,2.382369 0.175459,0.360634 0.361662,0.546415 0.540702,0.732195 0.719742,0.364277 1.260445,0.542773 1.801147,0.174852 0.544283,-0.360632 0.719743,-0.907047 0.719743,-1.646529 -0.17546,-0.914333 -0.719743,-2.010806 -1.618526,-3.478841 -0.537122,-1.096472 -1.081404,-1.83231 -1.443066,-2.378726 -0.358082,-0.367919 -0.540702,-0.550057 -0.719743,-0.735838 -0.544283,-0.36792 -1.260445,-0.546415 -1.801147,-0.185782 -0.544284,0.371563 -0.719743,0.92162 -0.544284,1.653816 0,0.728553 0.544284,1.832311 1.264026,3.296704 l 0.179041,0.18578"
       style="fill:#ffffff;fill-opacity:1;fill-rule:nonzero;stroke:none"
       id="path972" />
    <path
       inkscape:connector-curvature="0"
       d="m 84.150625,7.4038466 0.361662,0 c 0.358082,0 0.537121,0 0.895202,-0.1784955 0.368824,-0.1821384 0.544283,-0.5537004 0.726904,-0.9143343 0,-0.5500575 0,-0.9179769 -0.182621,-1.2858962 -0.175459,-0.3642766 -0.544283,-0.7249103 -1.081403,-0.7249103 0,-0.1857811 -0.179041,-0.1857811 -0.358082,-0.1857811 -0.361662,0 -0.540703,0.1857811 -0.719743,0.1857811 -0.544283,0.3606337 -0.726904,0.7249103 -0.902365,1.0928296 0,0.3679194 0,0.9179769 0.175461,1.2786108 0.182621,0.371562 0.544283,0.7321959 1.084985,0.7321959"
       style="fill:#ffffff;fill-opacity:1;fill-rule:nonzero;stroke:none"
       id="path974" />
    <path
       inkscape:connector-curvature="0"
       d="m 73.701824,0.81408356 c 1.077822,0.36427664 1.980187,0.91433414 2.52447,2.01444934 0.537122,0.9216197 0.716161,2.021735 0.358081,3.1145646 -0.358081,1.1001152 -0.902364,1.8323111 -1.983769,2.5645071 -0.540702,0.3642766 -1.260445,0.5500575 -1.983768,0.5500575 -0.361662,0 -0.716162,-0.1857809 -1.081405,-0.1857809 -1.081405,-0.3642766 -1.797567,-0.9179771 -2.52447,-2.0108067 -0.537122,-0.917977 -0.537122,-2.0108066 -0.361661,-3.1109219 0.361661,-1.1074007 0.905944,-2.0217349 1.983767,-2.5717924 0.544284,-0.36427664 1.267607,-0.55005768 1.983769,-0.55005768 0.35808,0 0.723323,0 1.084986,0.18578104 z m 5.586062,-4.76109466 0.175459,17.5872731 -1.622106,0.914334 -0.17904,-17.5836301 1.625687,-0.917977 z M 80.54475,4.660844 C 80.909992,3.5607288 81.447114,2.8285329 82.528518,2.2784753 83.06564,1.9178415 83.792544,1.7284177 84.512287,1.7284177 l 1.081405,0 c 1.077823,0.3679194 1.980187,1.1001152 2.52447,2.0217349 0.537121,0.9106914 0.716162,2.0108067 0.35808,3.1109219 -0.35808,1.0928296 -0.902363,2.0108067 -1.980188,2.564507 -0.544282,0.3606338 -1.264024,0.5464149 -1.983767,0.5464149 -0.361662,0 -0.719743,0 -1.084986,-0.1857811 C 82.345896,9.6040771 81.626155,8.8718812 80.909992,7.9539041 80.36929,6.8610745 80.36929,5.7609593 80.54475,4.660844 z m 11.634049,3.4679129 0.13249,0.2404225 19.465281,34.0671446 0.23634,0.418918 -78.964016,0 0.873717,-0.513631 L 91.942466,8.2708247 92.178799,8.1287569 z M 45.767928,19.312046 c 1.081405,-0.728552 1.804728,-1.278609 2.166391,-2.010805 0.354499,-0.728553 0.354499,-1.464391 -0.182622,-2.200231 l 2.524471,-1.460748 7.025547,12.450973 -3.065172,1.832311 -4.683699,-8.243579 -2.878971,1.650173 -1.084986,-1.828669 0.179041,-0.189425 z M 58.204079,8.5076046 c 1.260446,-0.732196 2.51731,-0.9106915 3.781336,-0.732196 0.175459,0 0.361662,0.1784955 0.719742,0.3679194 1.443066,0.5464148 2.707092,2.01445 3.963956,4.211038 1.264026,2.20023 1.804728,4.028898 1.625688,5.500575 -0.182622,1.64653 -1.084985,2.921498 -2.707092,3.843118 -1.260445,0.728553 -2.52089,0.907048 -3.602294,0.728553 -0.358082,-0.182138 -0.540702,-0.182138 -0.898783,-0.360634 -1.260445,-0.550057 -2.707092,-2.021735 -3.963957,-4.211037 -1.260445,-2.20023 -1.801147,-4.032542 -1.625686,-5.679072 0.1862,-1.471677 1.081403,-2.7502875 2.70709,-3.6682644 z m -35.145643,38.5149614 98.944924,0 -49.472462,-87.109455 -49.472462,87.109455"
       style="fill:#ffffff;fill-opacity:1;fill-rule:nonzero;stroke:none"
       id="path976" />
    <path
       inkscape:connector-curvature="0"
       d="m 72.255176,6.4931552 0.361662,0 c 0.35808,0 0.540703,0 0.902364,-0.1821384 0.361662,-0.1894238 0.540702,-0.5500575 0.719743,-1.1001151 0.18262,-0.3606338 0,-0.7285531 -0.179041,-1.2786108 -0.17904,-0.3715621 -0.540702,-0.5537003 -1.084986,-0.7321958 l -0.35808,0 c -0.182621,0 -0.537122,0 -0.716162,0.1784955 -0.537122,0.1821382 -0.723323,0.5537003 -0.905945,1.103758 0,0.3679193 0,0.7285531 0.182622,1.2786107 0.186201,0.3606337 0.540702,0.5500575 1.077823,0.7321959"
       style="fill:#ffffff;fill-opacity:1;fill-rule:nonzero;stroke:none"
       id="path978" />
    <path
       inkscape:connector-curvature="0"
       d="m 33.048894,42.855242 78.964016,0 -0.23634,-0.418918 L 92.311289,8.3691794 92.178799,8.1287569 91.942466,8.2708247 33.922611,42.341611 33.048894,42.855242"
       style="fill:#191412;fill-opacity:1;fill-rule:nonzero;stroke:none"
       id="path980" />
    <path
       inkscape:connector-curvature="0"
       d="m 49.552844,19.679967 4.683699,8.243579 3.065172,-1.832311 -7.025547,-12.450973 -2.524471,1.460748 c 0.537121,0.73584 0.537121,1.471678 0.182622,2.200231 -0.361663,0.732196 -1.084986,1.282253 -2.166391,2.010805 l -0.179041,0.189425 1.084986,1.828669 2.878971,-1.650173"
       style="fill:#191412;fill-opacity:1;fill-rule:nonzero;stroke:none"
       id="path982" />
    <path
       inkscape:connector-curvature="0"
       d="m 59.464525,10.88633 c 0.540702,-0.360633 1.256864,-0.182138 1.801147,0.185782 0.179041,0.185781 0.361661,0.367919 0.719743,0.735838 0.361662,0.546416 0.905944,1.282254 1.443066,2.378726 0.898783,1.468035 1.443066,2.564508 1.618526,3.478841 0,0.739482 -0.17546,1.285897 -0.719743,1.646529 -0.540702,0.367921 -1.081405,0.189425 -1.801147,-0.174852 -0.17904,-0.18578 -0.365243,-0.371561 -0.540702,-0.732195 -0.540702,-0.550058 -1.081405,-1.289538 -1.622107,-2.382369 l -0.179041,-0.18578 c -0.719742,-1.464393 -1.264026,-2.568151 -1.264026,-3.296704 -0.175459,-0.732196 0,-1.282253 0.544284,-1.653816 z m 1.622107,11.179648 c 0.358081,0.178496 0.540701,0.178496 0.898783,0.360634 1.081404,0.178495 2.341849,0 3.602294,-0.728553 1.622107,-0.92162 2.52447,-2.196588 2.707092,-3.843118 0.17904,-1.471677 -0.361662,-3.300345 -1.625688,-5.500575 -1.256864,-2.196588 -2.52089,-3.6646232 -3.963956,-4.211038 -0.35808,-0.1894239 -0.544283,-0.3679194 -0.719742,-0.3679194 -1.264026,-0.1784955 -2.52089,0 -3.781336,0.732196 -1.625687,0.9179769 -2.52089,2.1965874 -2.70709,3.6682644 -0.175461,1.64653 0.365241,3.478842 1.625686,5.679072 1.256865,2.189302 2.703512,3.66098 3.963957,4.211037"
       style="fill:#191412;fill-opacity:1;fill-rule:nonzero;stroke:none"
       id="path984" />
    <path
       inkscape:connector-curvature="0"
       d="m 83.792544,4.3002103 c 0.17904,0 0.358081,-0.1857811 0.719743,-0.1857811 0.179041,0 0.358082,0 0.358082,0.1857811 0.53712,0 0.905944,0.3606337 1.081403,0.7249103 0.182621,0.3679193 0.182621,0.7358387 0.182621,1.2858962 -0.182621,0.3606339 -0.35808,0.7321959 -0.726904,0.9143343 -0.358081,0.1784955 -0.53712,0.1784955 -0.895202,0.1784955 l -0.361662,0 c -0.540702,0 -0.902364,-0.3606339 -1.084985,-0.7321959 C 82.890179,6.3110168 82.890179,5.7609593 82.890179,5.3930399 83.06564,5.0251206 83.248261,4.660844 83.792544,4.3002103 z m -0.365243,5.486005 c 0.365243,0.1857811 0.723324,0.1857811 1.084986,0.1857811 0.719743,0 1.439485,-0.1857811 1.983767,-0.5464149 1.077825,-0.5537003 1.622108,-1.4716774 1.980188,-2.564507 C 88.834324,5.7609593 88.655283,4.660844 88.118162,3.7501526 87.573879,2.8285329 86.671515,2.0963371 85.593692,1.7284177 l -1.081405,0 c -0.719743,0 -1.446647,0.1894238 -1.983769,0.5500576 -1.081404,0.5500576 -1.618526,1.2822535 -1.983768,2.3823687 -0.17546,1.1001153 -0.17546,2.2002305 0.365242,3.2930601 0.716163,0.9179771 1.435904,1.650173 2.517309,1.8323112"
       style="fill:#191412;fill-opacity:1;fill-rule:nonzero;stroke:none"
       id="path986" />
    <path
       inkscape:connector-curvature="0"
       d="m 79.463345,13.640262 -0.175459,-17.5872731 -1.625687,0.917977 0.17904,17.5836301 1.622106,-0.914334"
       style="fill:#191412;fill-opacity:1;fill-rule:nonzero;stroke:none"
       id="path988" />
    <path
       inkscape:connector-curvature="0"
       d="m 71.900676,3.3785906 c 0.17904,-0.1784955 0.533541,-0.1784955 0.716162,-0.1784955 l 0.35808,0 c 0.544284,0.1784955 0.905946,0.3606337 1.084986,0.7321958 0.179041,0.5500577 0.361661,0.917977 0.179041,1.2786108 -0.179041,0.5500576 -0.358081,0.9106913 -0.719743,1.1001151 -0.361661,0.1821384 -0.544284,0.1821384 -0.902364,0.1821384 l -0.361662,0 C 71.718055,6.3110168 71.363554,6.121593 71.177353,5.7609593 70.994731,5.2109017 70.994731,4.8502679 70.994731,4.4823486 71.177353,3.9322909 71.363554,3.5607288 71.900676,3.3785906 z m -3.251374,0.371562 c -0.175461,1.1001153 -0.175461,2.1929449 0.361661,3.1109219 0.726903,1.0928296 1.443065,1.6465301 2.52447,2.0108067 0.365243,0 0.719743,0.1857809 1.081405,0.1857809 0.723323,0 1.443066,-0.1857809 1.983768,-0.5500575 1.081405,-0.732196 1.625688,-1.4643919 1.983769,-2.5645071 C 76.942455,4.8502679 76.763416,3.7501526 76.226294,2.8285329 75.682011,1.7284177 74.779646,1.1783602 73.701824,0.81408356 73.340161,0.62830252 72.974918,0.62830252 72.616838,0.62830252 c -0.716162,0 -1.439485,0.18578104 -1.983769,0.55005768 -1.077823,0.5500575 -1.622106,1.4643917 -1.983767,2.5717924"
       style="fill:#191412;fill-opacity:1;fill-rule:nonzero;stroke:none"
       id="path990" />
  </g>
</svg>
