<?xml version="1.0" encoding="UTF-8" standalone="no"?>
<!-- Created with Inkscape (http://www.inkscape.org/) -->

<svg
   xmlns:dc="http://purl.org/dc/elements/1.1/"
   xmlns:cc="http://creativecommons.org/ns#"
   xmlns:rdf="http://www.w3.org/1999/02/22-rdf-syntax-ns#"
   xmlns:svg="http://www.w3.org/2000/svg"
   xmlns="http://www.w3.org/2000/svg"
   xmlns:sodipodi="http://sodipodi.sourceforge.net/DTD/sodipodi-0.dtd"
   xmlns:inkscape="http://www.inkscape.org/namespaces/inkscape"
   id="svg2993"
   version="1.1"
   preserveAspectRatio="xMinYMin meet"
   viewBox="0 0 145 130"
   inkscape:version="0.48.3.1 r9886"
   sodipodi:docname="cod_77c.svg"
   width="100%"
   height="100%">
  <defs
     id="defs2995" />
  <sodipodi:namedview
     id="base"
     pagecolor="#ffffff"
     bordercolor="#666666"
     borderopacity="1.0"
     inkscape:pageopacity="0.0"
     inkscape:pageshadow="2"
     inkscape:zoom="1.0353448"
     inkscape:cx="-71.788619"
     inkscape:cy="-31.652006"
     inkscape:current-layer="layer1"
     showgrid="true"
     inkscape:document-units="px"
     inkscape:grid-bbox="true"
     inkscape:window-width="1366"
     inkscape:window-height="692"
     inkscape:window-x="0"
     inkscape:window-y="24"
     inkscape:window-maximized="1" />
  <metadata
     id="metadata2998">
    <rdf:RDF>
      <cc:Work
         rdf:about="">
        <dc:format>image/svg+xml</dc:format>
        <dc:type
           rdf:resource="http://purl.org/dc/dcmitype/StillImage" />
        <dc:title></dc:title>
      </cc:Work>
    </rdf:RDF>
  </metadata>
  <g
     id="layer1"
     inkscape:label="Layer 1"
     inkscape:groupmode="layer"
     transform="translate(0,66)">
    <path
       inkscape:connector-curvature="0"
       d="m 29.937087,15.044975 c -0.297996,0.446313 -0.63496,0.764312 -1.001723,0.965153 -0.371348,0.195039 -0.751866,0.290104 -1.146136,0.290104 -0.524931,0 -1.031523,-0.09507 -1.501439,-0.290104 -0.4745,-0.200841 -0.896279,-0.596945 -1.263042,-1.182731 C 24.653399,14.24161 24.34165,13.438246 24.091792,12.428461 23.832765,11.424255 23.649383,10.10763 23.537062,8.4841644 L 17.927871,10.57626 c 0.277365,3.988928 0.779373,7.196807 1.506023,9.640374 0.72665,2.437988 1.56333,4.334821 2.507746,5.68492 0.944417,1.333361 1.964478,2.253883 3.04643,2.722513 1.084245,0.479787 2.131814,0.714101 3.147291,0.714101 1.269919,0 2.436685,-0.390524 3.498008,-1.171573 1.061322,-0.781049 1.973646,-1.974938 2.732388,-3.570509 0.761035,-1.595571 1.357026,-3.620719 1.783389,-6.069865 0.426362,-2.437988 0.637251,-5.27208 0.637251,-8.5301692 0,-2.4156724 -0.185674,-4.6472405 -0.568483,-6.7058621 -0.380518,-2.0418848 -1.079661,-3.50914086 -2.092845,-4.4185049 0.900863,-1.4505192 1.549576,-3.2580894 1.955308,-5.4227105 0.405733,-2.1534632 0.60516,-4.5635563 0.60516,-7.1912283 0,-3.029354 -0.247565,-5.68492 -0.742696,-7.95554 -0.497423,-2.270621 -1.162182,-4.167454 -1.989693,-5.68492 -0.832095,-1.517466 -1.778803,-2.627671 -2.840125,-3.35851 -1.061322,-0.736417 -2.157029,-1.093468 -3.287119,-1.093468 -1.084245,0 -2.182244,0.379366 -3.307749,1.138099 -1.116337,0.747576 -2.136398,1.91357 -3.060184,3.481247 -0.921494,1.578834 -1.689405,3.531456 -2.303734,5.846708 -0.607452,2.337568 -0.960462,5.071239 -1.052153,8.212171 l 5.712343,1.935885 c 0,-2.750408 0.359887,-4.725345 1.086537,-5.94155 0.728943,-1.193889 1.659605,-1.796412 2.787404,-1.796412 0.34384,0 0.699143,0.07811 1.054445,0.240116 0.357594,0.172724 0.680805,0.451893 0.971923,0.847996 0.286535,0.39588 0.515762,0.937259 0.689974,1.645782 0.171829,0.691786 0.26132,1.578834 0.26132,2.644408 0,1.578834 -0.169629,2.783881 -0.5043,3.6207192 -0.33238,0.842417 -0.751866,1.4505193 -1.244704,1.818728 -0.499716,0.3570509 -1.033815,0.5523131 -1.611468,0.5746288 -0.57536,0.035705 -1.104875,0.055789 -1.590837,0.055789 l 0,11.9500472 c 0.463039,-0.055789 0.992554,-0.078105 1.590837,-0.044631 0.600575,0.031242 1.169059,0.2289588 1.696282,0.5857866 0.534099,0.3682087 0.981092,0.9707321 1.35244,1.8019912 0.364472,0.842417 0.552438,2.0642005 0.552438,3.6262981 0,1.121363 -0.08931,2.058622 -0.259027,2.822934 -0.174212,0.753154 -0.410316,1.355677 -0.710604,1.813149"
       style="fill:#191412;fill-opacity:1;fill-rule:nonzero;stroke:none"
       id="path4715" />
    <path
       inkscape:connector-curvature="0"
       d="m 48.09647,-7.0977598 c 0.105445,-2.0753584 0.318626,-3.9498752 0.639544,-5.6458672 0.323211,-1.673676 0.793126,-3.034933 1.402871,-4.072612 0.614329,-1.037679 1.423501,-1.55094 2.44127,-1.55094 0.992554,0 1.787973,0.513261 2.386256,1.55094 0.600575,1.037679 1.056738,2.354304 1.368487,3.955455 0.311749,1.595571 0.513469,3.4087198 0.60516,5.4338679 0.09407,2.0084113 0.135335,3.9777701 0.135335,5.8857608 0,2.41009359 -0.03668,4.6695563 -0.116814,6.7728092 -0.08252,2.1088319 -0.275073,3.9387177 -0.589114,5.5119731 -0.311749,1.573256 -0.774788,2.806197 -1.386825,3.709982 -0.607452,0.892627 -1.446424,1.34452 -2.505454,1.34452 -0.994846,0 -1.792557,-0.451893 -2.388548,-1.34452 C 49.488063,13.549824 49.031901,12.350356 48.720152,10.83289 48.40611,9.3210025 48.202098,7.5469058 48.096653,5.5384945 47.995793,3.5133465 47.942979,1.382199 47.942979,-0.86610591 c 0,-2.07535839 0.05281,-4.15629559 0.153674,-6.23165389 z M 44.598462,19.831688 c 0.843556,2.861986 1.920925,5.16608 3.238981,6.912282 1.31118,1.729466 2.881387,2.594198 4.706036,2.594198 1.822356,0 3.390271,-0.864732 4.706035,-2.594198 1.315765,-1.746202 2.395425,-4.061453 3.234397,-6.951334 0.843556,-2.884302 1.460178,-6.20376 1.849864,-9.9248993 0.394271,-3.7378766 0.591406,-7.6208051 0.591406,-11.6655223 0,-3.9777701 -0.197135,-7.7770148 -0.591406,-11.4033134 -0.389686,-3.61514 -1.013185,-6.81744 -1.86591,-9.595742 -0.855018,-2.772724 -1.93697,-4.981976 -3.255027,-6.605442 -1.313472,-1.617887 -2.89514,-2.432409 -4.738127,-2.432409 -1.804019,0 -3.351303,0.82568 -4.655606,2.47704 -1.304303,1.65694 -2.377087,3.882929 -3.220643,6.694705 -0.838972,2.800618 -1.464762,6.025233 -1.86591,9.679426 -0.405732,3.6486141 -0.60516,7.4590167 -0.60516,11.4423657 0,3.988928 0.199428,7.8328041 0.60516,11.5372071 0.401148,3.7044032 1.026938,6.9792292 1.86591,9.8356362"
       style="fill:#191412;fill-opacity:1;fill-rule:nonzero;stroke:none"
       id="path4717" />
    <path
       inkscape:connector-curvature="0"
       d="m 73.258746,-7.0977598 c 0.105444,-2.0753584 0.320918,-3.9498752 0.644128,-5.6458672 0.320919,-1.673676 0.788542,-3.034933 1.400579,-4.072612 0.609745,-1.037679 1.425794,-1.55094 2.438978,-1.55094 0.992554,0 1.78568,0.513261 2.388548,1.55094 0.598283,1.037679 1.054445,2.354304 1.366194,3.955455 0.309457,1.595571 0.513469,3.4087198 0.60516,5.4338679 0.09169,2.0084113 0.142121,3.9777701 0.142121,5.8857608 0,2.41009359 -0.04346,4.6695563 -0.125983,6.7728092 -0.07794,2.1088319 -0.275073,3.9387177 -0.589114,5.5119731 -0.309457,1.573256 -0.770204,2.806197 -1.379948,3.709982 -0.614329,0.892627 -1.451009,1.34452 -2.512331,1.34452 -0.990262,0 -1.78568,-0.451893 -2.388548,-1.34452 C 74.650247,13.549824 74.196377,12.350356 73.882336,10.83289 73.572879,9.3210025 73.364282,7.5469058 73.258838,5.5384945 73.155777,3.5133465 73.105347,1.382199 73.105347,-0.86610591 c 0,-2.07535839 0.05043,-4.15629559 0.153491,-6.23165389 z M 69.76303,19.831688 c 0.843557,2.861986 1.920925,5.16608 3.236689,6.912282 1.315765,1.729466 2.883679,2.594198 4.703743,2.594198 1.822357,0 3.392564,-0.864732 4.71062,-2.594198 1.31118,-1.746202 2.390841,-4.061453 3.232105,-6.951334 0.843556,-2.884302 1.46247,-6.20376 1.856741,-9.9248993 0.389686,-3.7378766 0.586821,-7.6208051 0.586821,-11.6655223 0,-3.9777701 -0.197135,-7.7770148 -0.586821,-11.4033134 -0.394271,-3.61514 -1.017769,-6.81744 -1.872787,-9.595742 -0.855018,-2.772724 -1.934678,-4.981976 -3.250443,-6.605442 -1.315764,-1.617887 -2.897432,-2.432409 -4.742712,-2.432409 -1.797141,0 -3.351302,0.82568 -4.655605,2.47704 -1.302011,1.65694 -2.374794,3.882929 -3.218351,6.694705 -0.841264,2.800618 -1.46247,6.025233 -1.870494,9.679426 -0.40344,3.6486141 -0.60516,7.4590167 -0.60516,11.4423657 0,3.988928 0.20172,7.8328041 0.60516,11.5372071 0.408024,3.7044032 1.02923,6.9792292 1.870494,9.8356362"
       style="fill:#191412;fill-opacity:1;fill-rule:nonzero;stroke:none"
       id="path4719" />
    <path
       inkscape:connector-curvature="0"
       d="m 106.92535,3.1730324 c 0,-1.7406232 0.22006,-3.20787919 0.66018,-4.4240838 0.43782,-1.1994679 0.96504,-1.7964123 1.58854,-1.7964123 0.62579,0 1.16218,0.5969444 1.61376,1.7964123 0.447,1.21620461 0.67164,2.6834606 0.67164,4.4240838 l 0,24.9935626 5.53584,0 0,-24.9935626 c 0,-1.7406232 0.22235,-3.20787919 0.66017,-4.4240838 0.43782,-1.1994679 0.96963,-1.7964123 1.59084,-1.7964123 0.6235,0 1.15989,0.5969444 1.61147,1.7964123 0.44928,1.21620461 0.67622,2.655566 0.67622,4.334821 l 0,25.0828254 5.53583,0 0,-29.869539 c 0,-1.8577804 -0.18099,-3.6095614 -0.53639,-5.2720796 -0.3553,-1.6457815 -0.84355,-3.1018794 -1.4533,-4.3348214 -0.61433,-1.227362 -1.33639,-2.203673 -2.1662,-2.94567 -0.82521,-0.71968 -1.7192,-1.08231 -2.66132,-1.08231 -0.55244,0 -1.10259,0.122736 -1.64586,0.368209 -0.54097,0.25663 -1.0384,0.602523 -1.48768,1.059995 -0.45158,0.446313 -0.84127,0.959574 -1.17594,1.556518 -0.33467,0.585787 -0.57307,1.221784 -0.70831,1.885675 -0.16284,-0.663891 -0.40573,-1.299888 -0.72894,-1.885675 -0.32321,-0.596944 -0.70373,-1.110205 -1.14385,-1.556518 -0.43553,-0.457472 -0.90774,-0.803365 -1.41433,-1.059995 -0.51117,-0.245473 -1.01777,-0.368209 -1.52436,-0.368209 -0.69456,0 -1.39141,0.328933 -2.09514,1.004206 -0.70372,0.66947 -1.2149,1.49515 -1.5404,2.449146 l -0.55244,-2.281779 -4.81148,0 0,42.332847 5.50145,0 0,-24.9935626"
       style="fill:#191412;fill-opacity:1;fill-rule:nonzero;stroke:none"
       id="path4721" />
    <path
       inkscape:connector-curvature="0"
       d="m 144.17707,61.997168 -143.35414415,0 0,-125.988757 143.35414415,0 0,125.988757 z M 0.41260906,-66 0,-66 0,64 145,64 145,-66 0.41260906,-66"
       style="fill:#191412;fill-opacity:1;fill-rule:nonzero;stroke:none"
       id="path4723" />
    <path
       inkscape:connector-curvature="0"
       d="m 3.5415611,-42.931165 c 0,-8.379538 2.7002971,-14.945927 6.1455827,-14.945927 l 125.8274362,0 c 3.27565,0 5.94157,6.705862 5.94157,14.945927 l 0,83.856751 c 0,7.832804 -2.72093,14.454982 -5.94157,14.454982 l -125.8274362,0 c -3.3902711,0 -6.1455827,-6.482705 -6.1455827,-14.454982 l 0,-83.856751 z m 6.1455827,101.776243 125.8274362,0 c 3.99084,0 7.36278,-8.206592 7.36278,-17.919492 l 0,-83.856751 c 0,-10.153635 -3.30088,-18.404858 -7.36278,-18.404858 l -125.8274362,0 c -4.2452888,0 -7.5713762,8.083856 -7.5713762,18.404858 l 0,83.856751 c 0,9.880268 3.3948556,17.919492 7.5713762,17.919492"
       style="fill:#191412;fill-opacity:1;fill-rule:nonzero;stroke:none"
       id="path4725" />
  </g>
</svg>
