<?xml version="1.0" encoding="UTF-8" standalone="no"?>
<!-- Created with Inkscape (http://www.inkscape.org/) -->

<svg
   xmlns:dc="http://purl.org/dc/elements/1.1/"
   xmlns:cc="http://creativecommons.org/ns#"
   xmlns:rdf="http://www.w3.org/1999/02/22-rdf-syntax-ns#"
   xmlns:svg="http://www.w3.org/2000/svg"
   xmlns="http://www.w3.org/2000/svg"
   xmlns:sodipodi="http://sodipodi.sourceforge.net/DTD/sodipodi-0.dtd"
   xmlns:inkscape="http://www.inkscape.org/namespaces/inkscape"
   id="svg2993"
   version="1.1"
   preserveAspectRatio="xMinYMin meet"
   viewBox="0 0 145 130"
   inkscape:version="0.48.3.1 r9886"
   sodipodi:docname="cod_1.svg"
   width="100%"
   height="100%">
  <defs
     id="defs2995" />
  <sodipodi:namedview
     id="base"
     pagecolor="#ffffff"
     bordercolor="#666666"
     borderopacity="1.0"
     inkscape:pageopacity="0.0"
     inkscape:pageshadow="2"
     inkscape:zoom="4.0153846"
     inkscape:cx="72.5"
     inkscape:cy="94.885057"
     inkscape:current-layer="layer1"
     showgrid="true"
     inkscape:document-units="px"
     inkscape:grid-bbox="true"
     inkscape:window-width="1366"
     inkscape:window-height="692"
     inkscape:window-x="0"
     inkscape:window-y="24"
     inkscape:window-maximized="1" />
  <metadata
     id="metadata2998">
    <rdf:RDF>
      <cc:Work
         rdf:about="">
        <dc:format>image/svg+xml</dc:format>
        <dc:type
           rdf:resource="http://purl.org/dc/dcmitype/StillImage" />
        <dc:title></dc:title>
      </cc:Work>
    </rdf:RDF>
  </metadata>
  <g
     id="layer1"
     inkscape:label="Layer 1"
     inkscape:groupmode="layer"
     transform="translate(0,66)">
    <path
       inkscape:connector-curvature="0"
       d="M 143.37437,-21.375692 113.48491,16.757712 78.979198,60.796733 c -1.355198,1.72159 -3.775962,2.752439 -6.479208,2.752439 -2.706821,0 -5.127584,-1.030849 -6.479207,-2.752439 L 1.6256129,-21.375692 c -1.35162282,-1.726865 -1.35162282,-3.788558 0,-5.512787 1.3516228,-1.724229 3.775962,-2.757711 6.4792076,-2.757711 l 128.7903395,0 c 2.69967,0 5.12401,1.030846 6.47921,2.752438 1.35162,1.726866 1.35162,3.791195 0,5.51806 z m -6.47921,-8.721329 -128.7903395,0 c -2.9249403,0 -5.5459443,1.112576 -7.0084144,2.979172 -1.4624702,1.869233 -1.4624702,4.097021 0.00358,5.966254 L 65.491576,61.02083 C 66.954046,62.887426 69.571474,64 72.49999,64 c 2.924941,0 5.545945,-1.112574 7.008415,-2.97917 L 114.01412,16.981809 143.9,-21.151595 c 1.46605,-1.869233 1.46605,-4.099657 0.004,-5.966254 -1.46605,-1.866596 -4.08705,-2.979172 -7.00842,-2.979172"
       style="fill:#191412;fill-opacity:1;fill-rule:nonzero;stroke:none"
       id="path1586" />
    <path
       inkscape:connector-curvature="0"
       d="m 72.49999,45.283946 -49.405745,-63.045085 98.807915,0 -49.40217,63.045085 z m 64.39517,-73.245454 -128.7903395,0 c -3.9940811,0 -6.4899348,3.192723 -4.4946821,5.73952 21.4650566,27.3899289 42.9301126,54.782496 64.3915946,82.175062 1.998828,2.546796 6.994111,2.546796 8.99294,0 21.465057,-27.392566 42.930117,-54.7851331 64.391597,-82.175062 1.99883,-2.546797 -0.5006,-5.73952 -4.49111,-5.73952"
       style="fill:#c13339;fill-opacity:1;fill-rule:nonzero;stroke:none"
       id="path1588" />
    <path
       inkscape:connector-curvature="0"
       d="m 72.49999,45.283946 49.40217,-63.045085 -98.807915,0 49.405745,63.045083"
       style="fill:#ffffff;fill-opacity:1;fill-rule:nonzero;stroke:none"
       id="path1590" />
    <path
       inkscape:connector-curvature="0"
       d="m 3.5743812,-65.551806 137.8440688,0 0,33.981018 -137.8440688,0 0,-33.981018 z m 138.1515788,34.431848 0.30751,0 0,-34.880042 -139.0705372,0 0,34.880042 138.7630272,0"
       style="fill:#191412;fill-opacity:1;fill-rule:nonzero;stroke:none"
       id="path1592" />
    <path
       inkscape:connector-curvature="0"
       d="m 139.64847,-35.683628 c 0,1.552861 -1.70205,2.810441 -3.80815,2.810441 l -126.6842373,0 c -2.1025244,0 -3.8081436,-1.25758 -3.8081436,-2.810441 l 0,-25.755339 c 0,-1.55286 1.7056192,-2.807803 3.8081436,-2.807803 l 126.6842373,0 c 2.1061,0 3.80815,1.254943 3.80815,2.807803 l 0,25.755339 z m -3.80815,-29.583443 -126.6842373,0 c -2.8677288,0 -5.1955236,1.71632 -5.1955236,3.828104 l 0,25.755339 c 0,2.111785 2.3277948,3.828105 5.1955236,3.828105 l 126.6842373,0 c 2.86773,0 5.19195,-1.71632 5.19195,-3.828105 l 0,-25.755339 c 0,-2.111784 -2.32422,-3.828104 -5.19195,-3.828104"
       style="fill:#191412;fill-opacity:1;fill-rule:nonzero;stroke:none"
       id="path1594" />
    <path
       inkscape:connector-curvature="0"
       d="m 83.212853,-51.043501 c -0.221695,-0.3401 -0.539934,-0.622199 -0.965445,-0.841023 -0.421935,-0.224097 -0.983324,-0.332191 -1.684165,-0.332191 -0.715145,0 -1.290836,0.108094 -1.723498,0.332191 -0.429087,0.218824 -0.758053,0.508832 -0.986899,0.870024 -0.228846,0.358555 -0.379027,0.764566 -0.454117,1.210124 -0.06794,0.442921 -0.107272,0.885842 -0.107272,1.331399 0,0.477195 0.03933,0.933299 0.107272,1.365674 0.07509,0.427103 0.225271,0.806749 0.44339,1.133667 0.218119,0.324282 0.539934,0.580016 0.965444,0.76984 0.421936,0.192459 0.983324,0.292644 1.684165,0.292644 0.750902,0 1.340896,-0.100185 1.769983,-0.292644 0.432662,-0.189824 0.754477,-0.453467 0.979747,-0.788295 0.218119,-0.3401 0.353997,-0.730292 0.411208,-1.178486 0.06079,-0.450831 0.08939,-0.935935 0.08939,-1.45004 0,-0.408647 -0.03576,-0.827841 -0.103696,-1.262853 -0.06436,-0.429739 -0.203813,-0.814658 -0.425507,-1.160031"
       style="fill:#ffffff;fill-opacity:1;fill-rule:nonzero;stroke:none"
       id="path1596" />
    <path
       inkscape:connector-curvature="0"
       d="m 104.24882,-42.269444 -2.92851,0 0,-4.020564 c 0,-0.271553 -0.118,-0.500923 -0.35758,-0.698655 -0.23957,-0.189824 -0.52205,-0.287372 -0.85102,-0.287372 -0.332539,0 -0.611445,0.09755 -0.843867,0.287372 -0.228846,0.197732 -0.346845,0.432375 -0.346845,0.711837 l 0,4.007382 -2.932092,0 0,-4.007382 c 0,-0.279462 -0.117999,-0.514105 -0.357572,-0.711837 -0.239574,-0.189824 -0.51848,-0.287372 -0.851022,-0.287372 -0.332542,0 -0.615024,0.09755 -0.84387,0.287372 -0.232422,0.197732 -0.346845,0.432375 -0.346845,0.711837 l 0,4.007382 -2.910638,0 0,-6.786185 2.542338,0 0.29321,0.361192 c 0.17521,-0.150277 0.446965,-0.279462 0.81884,-0.390193 0.368299,-0.108093 0.736599,-0.158186 1.101322,-0.158186 0.271755,0 0.539934,0.01582 0.811689,0.05536 0.268179,0.04482 0.51848,0.09755 0.750901,0.171369 0.232422,0.06855 0.429087,0.152913 0.600722,0.250461 0.17521,0.09228 0.30036,0.197733 0.386178,0.305827 0.07509,-0.108094 0.20024,-0.213552 0.37545,-0.305827 0.178787,-0.09755 0.382603,-0.181914 0.625752,-0.250461 0.232422,-0.07382 0.497025,-0.126549 0.783083,-0.171369 0.289636,-0.03955 0.579266,-0.05536 0.868896,-0.05536 0.50418,0 0.9726,0.05536 1.40884,0.171369 0.44696,0.118639 0.82957,0.279462 1.15138,0.474558 0.32539,0.197733 0.57569,0.429739 0.76878,0.690746 0.18594,0.268917 0.28248,0.551015 0.28248,0.846296 l 0,4.790403 z m -16.798737,-3.91247 c -0.275331,0.793567 -0.711569,1.505405 -1.305139,2.119694 -0.589994,0.622199 -1.358774,1.112576 -2.28131,1.48695 -0.926112,0.371737 -2.038161,0.558924 -3.321846,0.558924 -1.287259,0 -2.395733,-0.187187 -3.321845,-0.558924 -0.926112,-0.374374 -1.691316,-0.864751 -2.284886,-1.479041 -0.59357,-0.60638 -1.033384,-1.312944 -1.315866,-2.101239 -0.286057,-0.788294 -0.432662,-1.613498 -0.432662,-2.465067 0,-0.851569 0.146605,-1.668864 0.432662,-2.443976 0.282482,-0.785657 0.722296,-1.471131 1.315866,-2.069602 0.59357,-0.603743 1.351623,-1.078302 2.274159,-1.434221 0.915385,-0.350645 2.013131,-0.532559 3.282512,-0.532559 1.301563,0 2.420764,0.176641 3.3433,0.522014 0.929688,0.348009 1.694892,0.822568 2.299189,1.415766 0.600721,0.593198 1.040535,1.278671 1.315866,2.053783 0.278906,0.775112 0.418359,1.581861 0.418359,2.436066 0,0.859478 -0.139453,1.689956 -0.418359,2.491432 z m -17.789216,1.225942 0,2.686528 -12.211089,0 0,-2.327972 c 0,-0.08173 0.05364,-0.179278 0.160908,-0.290008 0.107271,-0.102821 0.235997,-0.195096 0.40048,-0.26628 l 4.884436,-2.504614 c 0.328967,-0.166095 0.654357,-0.361192 0.986899,-0.580016 0.336118,-0.210915 0.636479,-0.442921 0.904658,-0.693382 0.271755,-0.255735 0.486298,-0.527287 0.661508,-0.822568 0.171635,-0.292645 0.253877,-0.598471 0.253877,-0.925389 0,-0.500923 -0.218119,-0.899025 -0.657933,-1.186396 -0.439814,-0.290008 -1.001202,-0.432376 -1.680589,-0.432376 -0.475571,0 -0.865325,0.06855 -1.176413,0.210915 -0.307512,0.131822 -0.564964,0.316373 -0.754477,0.553652 -0.20024,0.232006 -0.339694,0.49565 -0.432662,0.79093 -0.08582,0.297918 -0.132302,0.598471 -0.132302,0.909571 l -4.076323,0 c 0,-0.804113 0.132302,-1.526496 0.400481,-2.177696 0.268179,-0.645927 0.679387,-1.204851 1.233624,-1.663591 0.557813,-0.464013 1.247927,-0.814658 2.073919,-1.059847 0.833143,-0.247825 1.812891,-0.369101 2.935667,-0.369101 0.961869,0 1.837921,0.105458 2.635307,0.313736 0.800962,0.208278 1.480349,0.511468 2.048888,0.906934 0.572116,0.392829 1.015505,0.880569 1.333745,1.450039 0.314663,0.56947 0.479146,1.212761 0.479146,1.932508 0,0.75402 -0.243149,1.439493 -0.722295,2.051146 -0.479147,0.61429 -1.097747,1.165305 -1.845073,1.658318 l -2.785487,1.834959 5.0811,0 z m -16.058565,0.630109 c -0.300361,0.519377 -0.71872,0.951753 -1.255079,1.294489 -0.539934,0.337464 -1.183564,0.593198 -1.930889,0.76193 -0.747326,0.168732 -1.569742,0.253098 -2.463673,0.253098 -0.722295,0 -1.458894,-0.05537 -2.224098,-0.15555 -0.765205,-0.100184 -1.480349,-0.29528 -2.152585,-0.582652 -0.665084,-0.284735 -1.255078,-0.696019 -1.766406,-1.21276 -0.514904,-0.524651 -0.868901,-1.207488 -1.065565,-2.061693 l 3.954748,-0.45083 c 0.08582,0.345373 0.214543,0.632744 0.396905,0.846296 0.17521,0.216187 0.396905,0.387556 0.657933,0.514104 0.261027,0.123913 0.557812,0.208279 0.89393,0.250462 0.332542,0.03955 0.682963,0.06064 1.058414,0.06064 0.278906,0 0.547085,-0.02109 0.804537,-0.06064 0.264603,-0.04218 0.497025,-0.11073 0.711569,-0.205642 0.207391,-0.09491 0.37545,-0.224097 0.500601,-0.38492 0.121574,-0.166095 0.178786,-0.366464 0.178786,-0.60638 0,-0.334827 -0.128726,-0.595834 -0.386178,-0.775112 -0.261028,-0.179278 -0.582843,-0.305826 -0.954718,-0.387556 -0.371875,-0.07382 -0.775932,-0.11864 -1.197867,-0.121276 -0.425511,-0.01055 -0.79381,-0.0053 -1.122776,0.0078 l 0,-2.557343 c 0.343269,0 0.71872,-0.0025 1.122776,-0.0053 0.407633,-0.0053 0.786659,-0.05009 1.13708,-0.129186 0.353996,-0.07382 0.64363,-0.205642 0.879627,-0.387556 0.232422,-0.179277 0.353997,-0.435012 0.353997,-0.775112 0,-0.226733 -0.06079,-0.416557 -0.185938,-0.564197 -0.117999,-0.147641 -0.282482,-0.268917 -0.486298,-0.350646 -0.207392,-0.08173 -0.432662,-0.14764 -0.682963,-0.181914 -0.2503,-0.03427 -0.500601,-0.05273 -0.74375,-0.05273 -0.797386,0 -1.455319,0.129186 -1.970222,0.387556 -0.511329,0.258371 -0.768781,0.680201 -0.768781,1.270762 l -4.029838,-0.41392 c 0.06794,-0.672291 0.314664,-1.25758 0.747326,-1.755866 0.432662,-0.498287 0.96902,-0.914843 1.623378,-1.249671 0.650781,-0.3401 1.369501,-0.587925 2.159735,-0.746111 0.793811,-0.163459 1.569742,-0.247825 2.334947,-0.247825 0.800961,0 1.569741,0.07909 2.313492,0.237279 0.754477,0.152914 1.419561,0.395466 2.009555,0.714474 0.589994,0.324282 1.054838,0.730293 1.405259,1.218034 0.346845,0.48774 0.525631,1.054574 0.525631,1.703137 0,0.561561 -0.143029,1.075666 -0.429087,1.537042 -0.289633,0.461376 -0.747326,0.846296 -1.380228,1.157395 0.711568,0.19246 1.208594,0.511468 1.480348,0.94648 0.264604,0.440285 0.404057,0.914843 0.404057,1.431585 0,0.696019 -0.153756,1.305035 -0.457692,1.829686 z m 82.238018,-19.920907 -126.6842373,0 c -2.1025244,0 -3.8081436,1.254943 -3.8081436,2.807803 l 0,25.755339 c 0,1.552861 1.7056192,2.810441 3.8081436,2.810441 l 126.6842373,0 c 2.1061,0 3.80815,-1.25758 3.80815,-2.810441 l 0,-25.755339 c 0,-1.55286 -1.70205,-2.807803 -3.80815,-2.807803"
       style="fill:#ffffff;fill-opacity:1;fill-rule:nonzero;stroke:none"
       id="path1598" />
    <path
       inkscape:connector-curvature="0"
       d="m 52.175589,-48.533615 c 0.632902,-0.311099 1.090595,-0.696019 1.380228,-1.157395 0.286058,-0.461376 0.429087,-0.975481 0.429087,-1.537042 0,-0.648563 -0.178786,-1.215396 -0.525631,-1.703137 -0.350421,-0.487741 -0.815265,-0.893752 -1.405259,-1.218033 -0.589994,-0.319009 -1.255078,-0.561561 -2.009555,-0.714474 -0.743751,-0.158186 -1.512531,-0.237279 -2.313492,-0.237279 -0.765205,0 -1.541136,0.08436 -2.334947,0.247824 -0.790234,0.158187 -1.508954,0.406012 -2.159735,0.746112 -0.654358,0.334827 -1.190716,0.751384 -1.623378,1.24967 -0.432662,0.498286 -0.679387,1.083575 -0.747326,1.755866 l 4.029838,0.413921 c 0,-0.590562 0.257452,-1.012392 0.768781,-1.270762 0.514903,-0.258371 1.172836,-0.387556 1.970222,-0.387556 0.243149,0 0.49345,0.01835 0.74375,0.05273 0.250301,0.03427 0.475571,0.100185 0.682963,0.181914 0.203816,0.08173 0.368299,0.203006 0.486298,0.350646 0.12515,0.147641 0.185938,0.337464 0.185938,0.564198 0,0.3401 -0.121575,0.595834 -0.353997,0.775112 -0.235997,0.181914 -0.525631,0.313735 -0.879627,0.387556 -0.350421,0.07909 -0.729447,0.123912 -1.13708,0.129185 -0.404056,0.0025 -0.779507,0.0053 -1.122776,0.0053 l 0,2.557342 c 0.328966,-0.01308 0.697265,-0.01835 1.122776,-0.0078 0.421935,0.0025 0.825992,0.04746 1.197867,0.121276 0.371875,0.08173 0.69369,0.208279 0.954718,0.387557 0.257452,0.179277 0.386178,0.440284 0.386178,0.775112 0,0.239915 -0.05721,0.440284 -0.178786,0.60638 -0.125151,0.160822 -0.29321,0.290008 -0.500601,0.384919 -0.214544,0.09491 -0.446966,0.163459 -0.711569,0.205642 -0.257452,0.03955 -0.525631,0.06064 -0.804537,0.06064 -0.375451,0 -0.725872,-0.02109 -1.058414,-0.06064 -0.336118,-0.04218 -0.632903,-0.126549 -0.89393,-0.250461 -0.261028,-0.126549 -0.482723,-0.297917 -0.657933,-0.514105 -0.182362,-0.213551 -0.311088,-0.500923 -0.396905,-0.846296 l -3.954748,0.450831 c 0.196664,0.854205 0.550661,1.537042 1.065565,2.061692 0.511328,0.516742 1.101322,0.928026 1.766406,1.212761 0.672236,0.287371 1.38738,0.482467 2.152585,0.582652 0.765204,0.100184 1.501803,0.15555 2.224098,0.15555 0.893931,0 1.716347,-0.08437 2.463673,-0.253098 0.747325,-0.168732 1.390955,-0.424466 1.930889,-0.76193 0.536359,-0.342737 0.954718,-0.775112 1.255079,-1.29449 0.303936,-0.524651 0.457692,-1.133667 0.457692,-1.829686 0,-0.516742 -0.139453,-0.9913 -0.404057,-1.431585 -0.271754,-0.435012 -0.76878,-0.75402 -1.480348,-0.94648"
       style="fill:#191412;fill-opacity:1;fill-rule:nonzero;stroke:none"
       id="path1600" />
    <path
       inkscape:connector-curvature="0"
       d="m 69.210327,-48.449249 c 0.479146,-0.611653 0.722295,-1.297126 0.722295,-2.051146 0,-0.719747 -0.164483,-1.363038 -0.479146,-1.932508 -0.31824,-0.56947 -0.761629,-1.05721 -1.333745,-1.450039 -0.568539,-0.395466 -1.247926,-0.698656 -2.048888,-0.906934 -0.797386,-0.208278 -1.673438,-0.313736 -2.635307,-0.313736 -1.122776,0 -2.102524,0.121276 -2.935667,0.369101 -0.825992,0.245189 -1.516106,0.595834 -2.073919,1.059847 -0.554237,0.45874 -0.965445,1.017664 -1.233624,1.663591 -0.268179,0.6512 -0.400481,1.373583 -0.400481,2.177696 l 4.076323,0 c 0,-0.3111 0.04648,-0.611653 0.132302,-0.909571 0.09297,-0.29528 0.232422,-0.558924 0.432662,-0.79093 0.189513,-0.237279 0.446965,-0.42183 0.754477,-0.553652 0.311088,-0.142367 0.700842,-0.210915 1.176413,-0.210915 0.679387,0 1.240775,0.142368 1.680589,0.432376 0.439814,0.287371 0.657933,0.685473 0.657933,1.186396 0,0.326918 -0.08224,0.632744 -0.253877,0.925389 -0.17521,0.295281 -0.389753,0.566833 -0.661508,0.822568 -0.268179,0.250461 -0.56854,0.482467 -0.904658,0.693382 -0.332542,0.218824 -0.657932,0.413921 -0.986899,0.580016 l -4.884436,2.504614 c -0.164483,0.07118 -0.293209,0.163459 -0.40048,0.26628 -0.107272,0.11073 -0.160908,0.208278 -0.160908,0.290008 l 0,2.327972 12.211089,0 0,-2.686528 -5.0811,0 2.785487,-1.834959 c 0.747326,-0.493013 1.365926,-1.044028 1.845073,-1.658318"
       style="fill:#191412;fill-opacity:1;fill-rule:nonzero;stroke:none"
       id="path1602" />
    <path
       inkscape:connector-curvature="0"
       d="m 83.652666,-47.170577 c -0.05721,0.448194 -0.193089,0.838386 -0.411208,1.178486 -0.22527,0.334828 -0.547085,0.598471 -0.979747,0.788295 -0.429087,0.192459 -1.019081,0.292644 -1.769983,0.292644 -0.700841,0 -1.262229,-0.100185 -1.684165,-0.292644 -0.42551,-0.189824 -0.747325,-0.445558 -0.965444,-0.76984 -0.218119,-0.326918 -0.3683,-0.706564 -0.44339,-1.133667 -0.06794,-0.432375 -0.107272,-0.888479 -0.107272,-1.365674 0,-0.445557 0.03933,-0.888478 0.107272,-1.331399 0.07509,-0.445558 0.225271,-0.851569 0.454117,-1.210124 0.228846,-0.361192 0.557812,-0.6512 0.986899,-0.870024 0.432662,-0.224097 1.008353,-0.332191 1.723498,-0.332191 0.700841,0 1.26223,0.108094 1.684165,0.332191 0.425511,0.218824 0.74375,0.500923 0.965445,0.841023 0.221694,0.345373 0.361147,0.730292 0.42551,1.160031 0.06794,0.435012 0.103696,0.854206 0.103696,1.262853 0,0.514105 -0.0286,0.999209 -0.08939,1.45004 z m 2.481551,-5.992618 c -0.604297,-0.593198 -1.369501,-1.067757 -2.299189,-1.415766 -0.922536,-0.345373 -2.041737,-0.522014 -3.3433,-0.522014 -1.269381,0 -2.367127,0.181914 -3.282512,0.532559 -0.922536,0.355919 -1.680589,0.830478 -2.274159,1.434221 -0.59357,0.598471 -1.033384,1.283945 -1.315866,2.069602 -0.286057,0.775112 -0.432662,1.592407 -0.432662,2.443976 0,0.851569 0.146605,1.676773 0.432662,2.465067 0.282482,0.788295 0.722296,1.494859 1.315866,2.101239 0.59357,0.61429 1.358774,1.104667 2.284886,1.479041 0.926112,0.371737 2.034586,0.558924 3.321845,0.558924 1.283685,0 2.395734,-0.187187 3.321846,-0.558924 0.922536,-0.374374 1.691316,-0.864751 2.28131,-1.48695 0.59357,-0.614289 1.029808,-1.326127 1.305139,-2.119694 0.278906,-0.801476 0.418359,-1.631954 0.418359,-2.491432 0,-0.854205 -0.139453,-1.660954 -0.418359,-2.436066 -0.275331,-0.775112 -0.715145,-1.460585 -1.315866,-2.053783"
       style="fill:#191412;fill-opacity:1;fill-rule:nonzero;stroke:none"
       id="path1604" />
    <path
       inkscape:connector-curvature="0"
       d="m 103.19756,-48.596889 c -0.32181,-0.195096 -0.70442,-0.355919 -1.15138,-0.474558 -0.43624,-0.116004 -0.90466,-0.171369 -1.40884,-0.171369 -0.28963,0 -0.57926,0.01582 -0.868896,0.05536 -0.286058,0.04482 -0.550661,0.09755 -0.783083,0.171369 -0.243149,0.06855 -0.446965,0.152913 -0.625752,0.250461 -0.17521,0.09228 -0.30036,0.197733 -0.37545,0.305827 -0.08582,-0.108094 -0.210968,-0.213552 -0.386178,-0.305827 -0.171635,-0.09755 -0.3683,-0.181914 -0.600722,-0.250461 -0.232421,-0.07382 -0.482722,-0.126549 -0.750901,-0.171369 -0.271755,-0.03955 -0.539934,-0.05536 -0.811689,-0.05536 -0.364723,0 -0.733023,0.05009 -1.101322,0.158186 -0.371875,0.110731 -0.64363,0.239916 -0.81884,0.390193 l -0.29321,-0.361192 -2.542338,0 0,6.786185 2.910638,0 0,-4.007382 c 0,-0.279462 0.114423,-0.514105 0.346845,-0.711837 0.228846,-0.189824 0.511328,-0.287372 0.84387,-0.287372 0.332542,0 0.611448,0.09755 0.851022,0.287372 0.239573,0.197732 0.357572,0.432375 0.357572,0.711837 l 0,4.007382 2.932092,0 0,-4.007382 c 0,-0.279462 0.117999,-0.514105 0.346845,-0.711837 0.232422,-0.189824 0.511328,-0.287372 0.843867,-0.287372 0.32897,0 0.61145,0.09755 0.85102,0.287372 0.23958,0.197732 0.35758,0.427102 0.35758,0.698655 l 0,4.020564 2.92851,0 0,-4.790403 c 0,-0.295281 -0.0965,-0.577379 -0.28248,-0.846296 -0.19309,-0.261007 -0.44339,-0.493013 -0.76878,-0.690746"
       style="fill:#191412;fill-opacity:1;fill-rule:nonzero;stroke:none"
       id="path1606" />
  </g>
</svg>
