<?xml version="1.0" encoding="UTF-8" standalone="no"?>
<!-- Created with Inkscape (http://www.inkscape.org/) -->

<svg
   xmlns:dc="http://purl.org/dc/elements/1.1/"
   xmlns:cc="http://creativecommons.org/ns#"
   xmlns:rdf="http://www.w3.org/1999/02/22-rdf-syntax-ns#"
   xmlns:svg="http://www.w3.org/2000/svg"
   xmlns="http://www.w3.org/2000/svg"
   xmlns:sodipodi="http://sodipodi.sourceforge.net/DTD/sodipodi-0.dtd"
   xmlns:inkscape="http://www.inkscape.org/namespaces/inkscape"
   id="svg2993"
   version="1.1"
   preserveAspectRatio="xMinYMin meet"
   viewBox="0 0 145 130"
   inkscape:version="0.48.3.1 r9886"
   sodipodi:docname="cod_45.svg"
   width="100%"
   height="100%">
  <defs
     id="defs2995" />
  <sodipodi:namedview
     id="base"
     pagecolor="#ffffff"
     bordercolor="#666666"
     borderopacity="1.0"
     inkscape:pageopacity="0.0"
     inkscape:pageshadow="2"
     inkscape:zoom="2.0706897"
     inkscape:cx="22.738936"
     inkscape:cy="102.2508"
     inkscape:current-layer="layer1"
     showgrid="true"
     inkscape:document-units="px"
     inkscape:grid-bbox="true"
     inkscape:window-width="1366"
     inkscape:window-height="692"
     inkscape:window-x="0"
     inkscape:window-y="24"
     inkscape:window-maximized="1" />
  <metadata
     id="metadata2998">
    <rdf:RDF>
      <cc:Work
         rdf:about="">
        <dc:format>image/svg+xml</dc:format>
        <dc:type
           rdf:resource="http://purl.org/dc/dcmitype/StillImage" />
        <dc:title></dc:title>
      </cc:Work>
    </rdf:RDF>
  </metadata>
  <g
     id="layer1"
     inkscape:label="Layer 1"
     inkscape:groupmode="layer"
     transform="translate(0,66)">
    <path
       inkscape:connector-curvature="0"
       d="m 72.496201,63.237827 c -39.508285,0 -71.65154349,-28.81694 -71.65154349,-64.23627787 0,-35.42553413 32.14325849,-64.24247513 71.65154349,-64.24247513 39.511739,0 71.654309,28.816941 71.654309,64.24247513 0,35.41933787 -32.14257,64.23627787 -71.654309,64.23627787 z M 72.496201,-66 C 32.521731,-66 0,-36.839153 0,-0.99845087 0,34.839153 32.521731,64 72.496201,64 112.47412,64 145,34.839153 145,-0.99845087 145,-36.839153 112.47412,-66 72.496201,-66"
       style="fill:#191412;fill-opacity:1;fill-rule:nonzero;stroke:none"
       id="path4661" />
    <path
       inkscape:connector-curvature="0"
       d="m 72.824257,61.072142 19.63846,-121.504564 c 28.478703,7.705379 49.280893,31.419481 49.280893,59.43397113 0,34.13355887 -30.88214,61.91258087 -68.919353,62.07059287 z M 52.723066,58.478896 C 24.151127,50.826187 3.2480983,27.074906 3.2480983,-0.99845087 3.2480983,-35.138206 34.137838,-62.91413 72.171599,-63.072142 L 52.723066,58.478896 z M 72.496201,-63.846708 c -38.651886,0 -70.0951774,28.19419 -70.0951774,62.84825713 0,34.65406687 31.4432914,62.84205987 70.0951774,62.84205987 38.651889,0 70.096909,-28.187993 70.096909,-62.84205987 0,-34.65406713 -31.44502,-62.84825713 -70.096909,-62.84825713"
       style="fill:#191412;fill-opacity:1;fill-rule:nonzero;stroke:none"
       id="path4663" />
    <path
       inkscape:connector-curvature="0"
       d="m 10.348954,6.787483 0,0.3501037 c 0,0.7033056 0.586702,1.2238137 1.367129,1.2238137 l 39.998643,0 c 0.783881,0 1.170641,-0.5205081 1.170641,-1.2238137 l 0,-0.3501037 c 0,-0.7064039 -0.38676,-1.226912 -1.170641,-1.226912 l -39.998643,0 c -0.780427,0 -1.367129,0.5205081 -1.367129,1.226912"
       style="fill:#898b91;fill-opacity:1;fill-rule:nonzero;stroke:none"
       id="path4665" />
    <path
       inkscape:connector-curvature="0"
       d="m 12.886725,12.90965 c 0,0.520508 0.583594,0.87371 1.174095,1.053409 l 4.485732,0 c 0.38676,0 0.970354,-0.359398 0.970354,-0.879906 l 0,-3.1478352 -6.630181,0 0,2.9743322"
       style="fill:#898b91;fill-opacity:1;fill-rule:nonzero;stroke:none"
       id="path4667" />
    <path
       inkscape:connector-curvature="0"
       d="m 43.906996,12.90965 c 0,0.520508 0.587048,0.87371 1.177548,1.053409 l 4.485733,0 c 0.390213,0 0.973808,-0.359398 0.973808,-0.879906 l 0,-3.1478352 -6.637089,0 0,2.9743322"
       style="fill:#898b91;fill-opacity:1;fill-rule:nonzero;stroke:none"
       id="path4669" />
    <path
       inkscape:connector-curvature="0"
       d="m 17.569291,-13.856241 c -1.170642,2.624229 -2.341283,5.4250582 -3.708758,8.0461883 l 2.344736,-0.3501036 2.728043,-5.7689647 c 0.783881,-1.05341 1.367475,-1.400415 2.534664,-1.577016 3.515377,-0.176601 6.830468,-0.350104 10.152465,-0.350104 3.315091,0 6.440255,0.173503 9.952179,0.350104 1.167188,0.176601 1.557402,0.703306 2.334376,1.577016 0.787335,1.924021 2.151356,4.0184463 3.128617,5.7689647 l 2.534664,0.3501036 -4.485733,-8.3931933 c -0.783881,-1.050311 -1.177548,-1.23001 -2.931783,-1.577016 -3.508471,-0.179699 -7.217229,-0.353202 -10.922534,-0.353202 -3.511924,0 -7.023848,0.173503 -10.92944,0.353202 -1.367475,0.526705 -1.754235,0.697109 -2.731496,1.924021"
       style="fill:#898b91;fill-opacity:1;fill-rule:nonzero;stroke:none"
       id="path4671" />
    <path
       inkscape:connector-curvature="0"
       d="m 38.060696,1.5421245 c 0,0.697109 -0.590501,1.0379179 -1.367475,1.0379179 l -9.755346,0 c -0.78388,0 -1.367475,-0.3408089 -1.367475,-1.0379179 l 0,-1.93021764 c 0,-0.69710906 0.583595,-1.22071546 1.367475,-1.22071546 l 9.755346,0 c 0.776974,0 1.367475,0.5236064 1.367475,1.22071546 l 0,1.93021764 z M 30.840014,-5.459949 c -5.659827,0 -9.952179,0.1735027 -15.415173,0.3501037 -1.564308,0.7002073 -2.73495,1.4004147 -3.511924,2.7977311 l 5.45954,0 c 0.977261,0.3532019 1.560855,0.87371 1.754236,2.10062203 l -6.630182,0 c -0.393667,0 -0.583594,0.1735027 -0.583594,0.5298029 l 0,0.69401087 c 0,0.3470054 0.189927,0.5298029 0.583594,0.5298029 l 6.630182,0 c 0,1.0379179 -0.193381,1.9178245 -1.360569,2.0975237 l -5.853207,0 c 0.189927,0.5205081 0.583594,0.8737101 1.170641,1.0441145 l 37.267146,0 c 0.587048,-0.3470054 0.780428,-0.5236064 1.174095,-1.0441145 l -5.659827,0 C 44.887711,3.2926428 44.494044,2.5800424 44.300663,1.7125289 l 6.440255,0 c 0.390214,0 0.583594,-0.1704044 0.583594,-0.5267046 l 0,-0.69401086 c 0,-0.35320194 -0.19338,-0.70330561 -0.583594,-0.70330561 l -6.440255,0 c 0.393668,-1.39731643 0.783881,-1.74742013 1.564309,-1.92711933 l 5.659827,0 C 50.937752,-3.359327 49.96049,-4.2392335 48.012875,-4.7628399 41.959381,-5.1098453 36.496387,-5.459949 30.840014,-5.459949"
       style="fill:#898b91;fill-opacity:1;fill-rule:nonzero;stroke:none"
       id="path4673" />
    <path
       inkscape:connector-curvature="0"
       d="m 133.47315,5.9106747 -40.002093,0 c -0.780427,0 -1.360568,0.5267046 -1.360568,1.0534093 l 0,0.3470054 c 0,0.6971091 0.580141,1.2207155 1.360568,1.2207155 l 40.002093,0 c 0.78043,0 1.17064,-0.5236064 1.17064,-1.2207155 l 0,-0.3470054 c 0,-0.5267047 -0.39021,-1.0534093 -1.17064,-1.0534093"
       style="fill:#898b91;fill-opacity:1;fill-rule:nonzero;stroke:none"
       id="path4675" />
    <path
       inkscape:connector-curvature="0"
       d="m 94.645152,13.259754 c 0,0.523606 0.583594,0.870611 1.167188,0.870611 l 4.48919,0 c 0.20028,0 0.97726,-0.347005 0.97726,-0.870611 l 0,-3.154032 -6.633638,0 0,3.154032"
       style="fill:#898b91;fill-opacity:1;fill-rule:nonzero;stroke:none"
       id="path4677" />
    <path
       inkscape:connector-curvature="0"
       d="m 125.66888,13.259754 c 0,0.523606 0.58359,0.870611 1.17064,0.870611 l 4.48918,0 c 0.19338,0 0.97381,-0.347005 0.97381,-0.870611 l 0,-3.154032 -6.63363,0 0,3.154032"
       style="fill:#898b91;fill-opacity:1;fill-rule:nonzero;stroke:none"
       id="path4679" />
    <path
       inkscape:connector-curvature="0"
       d="m 100.69174,-11.761815 c 0.78043,-1.041016 1.36747,-1.400415 2.53812,-1.567721 3.51537,-0.176601 6.82701,-0.176601 10.14901,-0.176601 3.31509,0 6.44025,0 9.94872,0.176601 1.17065,0.347005 1.55741,0.697109 2.34129,1.567721 0.77697,1.9333158 2.14445,4.0277413 3.12516,5.7782596 l 2.53466,0.5236064 -4.48918,-8.396292 c -0.78043,-1.047212 -1.17064,-1.397316 -2.92833,-1.74742 -3.51193,-0.176601 -7.21723,-0.3563 -10.91908,-0.3563 -3.51883,0 -7.22759,0.3563 -10.9329,0.3563 -1.36747,0.520508 -1.75768,0.700208 -2.734946,1.920923 -1.170641,2.62113 -2.337829,5.4219596 -3.705304,8.0430898 l 2.341283,-0.3439072 2.731497,-5.7782596"
       style="fill:#898b91;fill-opacity:1;fill-rule:nonzero;stroke:none"
       id="path4681" />
    <path
       inkscape:connector-curvature="0"
       d="m 107.32883,-0.21149217 c 0,-0.69710908 0.58359,-1.04721273 1.36402,-1.04721273 l 9.75534,0 c 0.78043,0 1.37093,0.35010365 1.37093,1.04721273 l 0,1.92402107 c 0,0.7002073 -0.5905,1.2238137 -1.37093,1.2238137 l -9.75534,0 c -0.78043,0 -1.36402,-0.5236064 -1.36402,-1.2238137 l 0,-1.92402107 z m -7.807732,4.20434237 -5.849754,0 c 0,0.3439071 0.580141,0.6909125 1.167188,0.8706118 l 37.267148,0 c 0.58705,-0.1796993 0.78388,-0.5267047 1.17409,-0.8706118 l -5.8532,0 c -0.78043,-0.5329012 -1.1741,-1.0565076 -1.36748,-1.9302176 l 6.44026,0 c 0.39021,0 0.58359,-0.3501037 0.58359,-0.7033056 l 0,-0.70020738 c 0,-0.34080889 -0.19338,-0.69710909 -0.58359,-0.69710909 l -6.44026,0 c 0.38676,-1.22071543 0.78043,-1.57081913 1.56431,-1.92092283 l 5.65637,0 c -0.58704,-1.050311 -1.75769,-2.100622 -3.50847,-2.6304249 -6.05349,-0.3470054 -11.51649,-0.6971091 -17.17286,-0.6971091 -5.65983,0 -9.95218,0.176601 -15.415172,0.5236064 -1.564308,0.5236064 -2.731496,1.2300102 -3.511924,2.8039276 l 5.45954,0 c 0.977266,0.1673062 1.560856,0.7002074 1.754236,1.92092283 l -6.633635,0 c -0.386761,0 -0.580141,0.3563002 -0.580141,0.52980291 l 0,0.69401086 c 0,0.3563002 0.19338,0.7033056 0.580141,0.7033056 l 6.633635,0 c 0,0.8706118 -0.38331,1.7505183 -1.364022,2.1037203"
       style="fill:#898b91;fill-opacity:1;fill-rule:nonzero;stroke:none"
       id="path4683" />
    <path
       inkscape:connector-curvature="0"
       d="m 108.69285,2.9363426 9.75534,0 c 0.78043,0 1.37093,-0.5236064 1.37093,-1.2238137 l 0,-1.92402107 c 0,-0.69710908 -0.5905,-1.04721273 -1.37093,-1.04721273 l -9.75534,0 c -0.78043,0 -1.36402,0.35010365 -1.36402,1.04721273 l 0,1.92402107 c 0,0.7002073 0.58359,1.2238137 1.36402,1.2238137"
       style="fill:#ffffff;fill-opacity:1;fill-rule:nonzero;stroke:none"
       id="path4685" />
    <path
       inkscape:connector-curvature="0"
       d="m 36.693221,-1.6088086 -9.755346,0 c -0.78388,0 -1.367475,0.5236064 -1.367475,1.22071546 l 0,1.93021764 c 0,0.697109 0.583595,1.0379179 1.367475,1.0379179 l 9.755346,0 c 0.776974,0 1.367475,-0.3408089 1.367475,-1.0379179 l 0,-1.93021764 c 0,-0.69710906 -0.590501,-1.22071546 -1.367475,-1.22071546"
       style="fill:#ffffff;fill-opacity:1;fill-rule:nonzero;stroke:none"
       id="path4687" />
  </g>
</svg>
