<?xml version="1.0" encoding="UTF-8" standalone="no"?>
<!-- Created with Inkscape (http://www.inkscape.org/) -->

<svg
   xmlns:dc="http://purl.org/dc/elements/1.1/"
   xmlns:cc="http://creativecommons.org/ns#"
   xmlns:rdf="http://www.w3.org/1999/02/22-rdf-syntax-ns#"
   xmlns:svg="http://www.w3.org/2000/svg"
   xmlns="http://www.w3.org/2000/svg"
   xmlns:sodipodi="http://sodipodi.sourceforge.net/DTD/sodipodi-0.dtd"
   xmlns:inkscape="http://www.inkscape.org/namespaces/inkscape"
   id="svg2993"
   version="1.1"
   preserveAspectRatio="xMinYMin meet"
   viewBox="0 0 145 130"
   inkscape:version="0.48.3.1 r9886"
   sodipodi:docname="cod_45.svg"
   width="100%"
   height="100%">
  <defs
     id="defs2995" />
  <sodipodi:namedview
     id="base"
     pagecolor="#ffffff"
     bordercolor="#666666"
     borderopacity="1.0"
     inkscape:pageopacity="0.0"
     inkscape:pageshadow="2"
     inkscape:zoom="2.9283974"
     inkscape:cx="89.73991"
     inkscape:cy="36.608"
     inkscape:current-layer="layer1"
     showgrid="true"
     inkscape:document-units="px"
     inkscape:grid-bbox="true"
     inkscape:window-width="1366"
     inkscape:window-height="692"
     inkscape:window-x="0"
     inkscape:window-y="24"
     inkscape:window-maximized="1" />
  <metadata
     id="metadata2998">
    <rdf:RDF>
      <cc:Work
         rdf:about="">
        <dc:format>image/svg+xml</dc:format>
        <dc:type
           rdf:resource="http://purl.org/dc/dcmitype/StillImage" />
        <dc:title></dc:title>
      </cc:Work>
    </rdf:RDF>
  </metadata>
  <g
     id="layer1"
     inkscape:label="Layer 1"
     inkscape:groupmode="layer"
     transform="translate(0,66)">
    <path
       inkscape:connector-curvature="0"
       d="m 72.498272,63.242658 c -39.508492,0 -71.65070167,-28.822256 -71.65070167,-64.2472948 0,-35.4219472 32.14220967,-64.2380212 71.65070167,-64.2380212 39.508488,0 71.654158,28.816074 71.654158,64.2380212 0,35.4250388 -32.14567,64.2472948 -71.654158,64.2472948 z M 72.498272,-66 C 32.521205,-66 0,-36.843895 0,-1.0046368 0,34.843895 32.521205,64 72.498272,64 112.47534,64 145,34.843895 145,-1.0046368 145,-36.843895 112.47534,-66 72.498272,-66"
       style="fill:#191412;fill-opacity:1;fill-rule:nonzero;stroke:none"
       id="path4633" />
    <path
       inkscape:connector-curvature="0"
       d="m 112.08601,27.811437 -0.19984,0.234931 -0.23428,-0.210201 -32.121541,-28.79752712 -0.206724,-0.18238018 0.206724,-0.1854714 32.314481,-28.9737253 0.23773,-0.210201 0.19984,0.234931 c 6.71854,7.87017 10.69799,17.505409 11.20791,27.1375579 0.58227,11.0139103 -3.36272,21.7217931 -11.4043,30.9520861 z m -7.25259,6.680062 C 94.531655,41.703246 82.589871,45.239567 70.303547,44.714065 59.567656,44.25966 48.817984,40.692427 40.039085,34.670788 l -0.268742,-0.179289 0.237733,-0.210201 32.317925,-28.9706334 0.21017,-0.1854714 0.199834,0.1854714 32.124985,28.7944354 0.23084,0.204019 -0.25841,0.18238 z M 32.982889,28.222566 32.783056,27.990726 C 25.995602,20.15456 21.988593,10.51932 21.499345,0.85316847 20.944634,-10.139104 24.913744,-20.843895 32.975998,-30.1051 l 0.20328,-0.23184 0.234287,0.20711 32.121538,28.9799073 0.203279,0.1823802 -0.203279,0.18238021 -32.317926,28.79752729 -0.234288,0.210201 z m 7.249138,-64.655333 c 10.329333,-7.227202 22.267671,-10.788253 34.526432,-10.28748 10.780681,0.438949 21.530354,4.030912 30.267911,10.111283 l 0.26529,0.176197 -0.23428,0.216384 -32.321375,28.9737246 -0.199834,0.1854714 -0.21017,-0.1854714 -32.121537,-28.8006186 -0.227397,-0.204018 0.25496,-0.185472 z m 32.266245,-27.029366 c -38.478315,0 -69.676483,27.959815 -69.676483,62.4574962 0,34.5007728 31.198168,62.4636788 69.676483,62.4636788 38.481758,0 69.673048,-27.962906 69.673048,-62.4636788 0,-34.4976812 -31.19129,-62.4574962 -69.673048,-62.4574962"
       style="fill:#c13339;fill-opacity:1;fill-rule:nonzero;stroke:none"
       id="path4635" />
    <path
       inkscape:connector-curvature="0"
       d="m 46.481997,-36.44204 c 16.279552,-9.363215 35.828796,-9.434312 52.2944,-0.18238 l 0.310087,0.170015 -0.25496,0.238022 -26.095519,23.564142 -0.199834,0.185471 -0.21017,-0.185471 -25.89224,-23.391036 -0.251514,-0.228748 0.29975,-0.170015 z m 25.844004,29.1993816 0.21017,0.1854714 0.199834,-0.1854714 32.321375,-28.9737246 0.23428,-0.216384 -0.26529,-0.176197 c -8.737557,-6.080371 -19.48723,-9.672334 -30.267911,-10.111283 -12.258761,-0.500773 -24.197099,3.060278 -34.526432,10.28748 l -0.25496,0.185472 0.227397,0.204018 32.121537,28.8006186"
       style="fill:#ffffff;fill-opacity:1;fill-rule:nonzero;stroke:none"
       id="path4637" />
    <path
       inkscape:connector-curvature="0"
       d="m 72.326001,-12.652241 0.21017,0.185471 0.199834,-0.185471 26.095519,-23.564142 0.25496,-0.238022 -0.310087,-0.170015 c -16.465604,-9.251932 -36.014848,-9.180835 -52.2944,0.18238 l -0.29975,0.170015 0.251514,0.228748 25.89224,23.391036"
       style="fill:#2c4aa0;fill-opacity:1;fill-rule:nonzero;stroke:none"
       id="path4639" />
    <path
       inkscape:connector-curvature="0"
       d="M 59.30236,-0.78516229 33.217177,22.426584 32.958771,22.652241 32.765829,22.386399 C 22.326243,7.9567233 22.398596,-9.5703246 32.958771,-24.500773 l 0.199834,-0.275116 0.25496,0.23184 25.89224,23.3941263 0.203279,0.1823802 -0.206724,0.18238021 z M 65.738382,-0.9675425 65.535103,-1.1499227 33.413565,-30.12983 l -0.234287,-0.20711 -0.20328,0.23184 C 24.913744,-20.843895 20.944634,-10.139104 21.499345,0.85316847 21.988593,10.51932 25.995602,20.15456 32.783056,27.990726 l 0.199833,0.23184 0.234288,-0.210201 32.317926,-28.79752729 0.203279,-0.18238021"
       style="fill:#ffffff;fill-opacity:1;fill-rule:nonzero;stroke:none"
       id="path4641" />
    <path
       inkscape:connector-curvature="0"
       d="m 33.413565,-24.544049 -0.25496,-0.23184 -0.199834,0.275116 C 22.398596,-9.5703246 22.326243,7.9567233 32.765829,22.386399 l 0.192942,0.265842 0.258406,-0.225657 L 59.30236,-0.78516229 59.509084,-0.9675425 59.305805,-1.1499227 33.413565,-24.544049"
       style="fill:#2c4aa0;fill-opacity:1;fill-rule:nonzero;stroke:none"
       id="path4643" />
    <path
       inkscape:connector-curvature="0"
       d="m 98.583455,34.503864 c -16.351906,9.4034 -35.904596,9.4034 -52.297846,0 l -0.303196,-0.170015 0.258406,-0.228749 26.085182,-23.384853 0.21017,-0.18238 0.199834,0.18238 25.899131,23.384853 0.251514,0.228749 -0.303195,0.170015 z M 72.736005,5.3106646 72.536171,5.1251932 72.326001,5.3106646 40.008076,34.281298 l -0.237733,0.210201 0.268742,0.179289 c 8.778899,6.021639 19.528571,9.588872 30.264462,10.043277 12.286324,0.525502 24.228108,-3.010819 34.529873,-10.222566 l 0.25841,-0.18238 L 104.86099,34.1051 72.736005,5.3106646"
       style="fill:#ffffff;fill-opacity:1;fill-rule:nonzero;stroke:none"
       id="path4645" />
    <path
       inkscape:connector-curvature="0"
       d="m 72.736005,10.720247 -0.199834,-0.18238 -0.21017,0.18238 -26.085182,23.384853 -0.258406,0.228749 0.303196,0.170015 c 16.39325,9.4034 35.94594,9.4034 52.297846,0 L 98.88665,34.333849 98.635136,34.1051 72.736005,10.720247"
       style="fill:#2c4aa0;fill-opacity:1;fill-rule:nonzero;stroke:none"
       id="path4647" />
    <path
       inkscape:connector-curvature="0"
       d="m 112.10323,22.213292 -0.19638,0.268934 -0.25496,-0.225657 -26.085186,-23.21792912 -0.206725,-0.18238018 0.206725,-0.1854714 26.085186,-23.3848533 0.25496,-0.228748 0.19638,0.275116 c 10.48783,14.6924265 10.48783,32.2163832 0,46.880989 z M 123.49031,-3.1406491 C 122.98039,-12.772798 119.00094,-22.408037 112.2824,-30.278207 l -0.19984,-0.234931 -0.23773,0.210201 -32.314481,28.9737253 -0.206724,0.1854714 0.206724,0.18238018 32.121541,28.79752712 0.23428,0.210201 0.19984,-0.234931 c 8.04158,-9.230293 11.98657,-19.9381758 11.4043,-30.9520861"
       style="fill:#ffffff;fill-opacity:1;fill-rule:nonzero;stroke:none"
       id="path4649" />
    <path
       inkscape:connector-curvature="0"
       d="m 111.90685,-24.942813 -0.25496,0.228748 -26.085186,23.3848533 -0.206725,0.1854714 0.206725,0.18238018 26.085186,23.21792912 0.25496,0.225657 0.19638,-0.268934 c 10.48783,-14.6646058 10.48783,-32.1885625 0,-46.880989 l -0.19638,-0.275116"
       style="fill:#2c4aa0;fill-opacity:1;fill-rule:nonzero;stroke:none"
       id="path4651" />
  </g>
</svg>
