<?xml version="1.0" encoding="UTF-8" standalone="no"?>
<!-- Created with Inkscape (http://www.inkscape.org/) -->

<svg
   xmlns:dc="http://purl.org/dc/elements/1.1/"
   xmlns:cc="http://creativecommons.org/ns#"
   xmlns:rdf="http://www.w3.org/1999/02/22-rdf-syntax-ns#"
   xmlns:svg="http://www.w3.org/2000/svg"
   xmlns="http://www.w3.org/2000/svg"
   xmlns:sodipodi="http://sodipodi.sourceforge.net/DTD/sodipodi-0.dtd"
   xmlns:inkscape="http://www.inkscape.org/namespaces/inkscape"
   id="svg2993"
   version="1.1"
   preserveAspectRatio="xMinYMin meet"
   viewBox="0 0 145 130"
   inkscape:version="0.48.3.1 r9886"
   sodipodi:docname="cod_45.svg"
   width="100%"
   height="100%">
  <defs
     id="defs2995" />
  <sodipodi:namedview
     id="base"
     pagecolor="#ffffff"
     bordercolor="#666666"
     borderopacity="1.0"
     inkscape:pageopacity="0.0"
     inkscape:pageshadow="2"
     inkscape:zoom="1"
     inkscape:cx="59.333669"
     inkscape:cy="37.333741"
     inkscape:current-layer="layer1"
     showgrid="true"
     inkscape:document-units="px"
     inkscape:grid-bbox="true"
     inkscape:window-width="1366"
     inkscape:window-height="692"
     inkscape:window-x="0"
     inkscape:window-y="24"
     inkscape:window-maximized="1" />
  <metadata
     id="metadata2998">
    <rdf:RDF>
      <cc:Work
         rdf:about="">
        <dc:format>image/svg+xml</dc:format>
        <dc:type
           rdf:resource="http://purl.org/dc/dcmitype/StillImage" />
        <dc:title></dc:title>
      </cc:Work>
    </rdf:RDF>
  </metadata>
  <g
     id="layer1"
     inkscape:label="Layer 1"
     inkscape:groupmode="layer"
     transform="translate(0,66)">
    <path
       inkscape:connector-curvature="0"
       d="m 72.494832,63.239603 c -39.510373,0 -71.65411247,-28.817795 -71.65411247,-64.2411485 0,-35.4202625 32.14373947,-64.2380575 71.65411247,-64.2380575 39.510368,0 71.657558,28.817795 71.657558,64.2380575 0,35.4233535 -32.14719,64.2411485 -71.657558,64.2411485 z M 72.494832,-66 C 32.519307,-66 0,-36.839099 0,-1.0015455 0,34.84219 32.519307,64 72.494832,64 112.4738,64 145,34.84219 145,-1.0015455 145,-36.839099 112.4738,-66 72.494832,-66"
       style="fill:#191412;fill-opacity:1;fill-rule:nonzero;stroke:none"
       id="path1372" />
    <path
       inkscape:connector-curvature="0"
       d="m 72.494832,45.305371 c -28.529335,0 -51.652568,-20.731626 -51.652568,-46.3069165 0,-25.5721995 23.123233,-46.3007345 51.652568,-46.3007345 28.529338,0 51.662908,20.728535 51.662908,46.3007345 0,25.5752905 -23.13357,46.3069165 -51.662908,46.3069165 z m 0,-108.764534 c -38.480147,0 -69.6797998,27.961576 -69.6797998,62.4576175 0,34.4991325 31.1996528,62.4637995 69.6797998,62.4637995 38.483588,0 69.679798,-27.964667 69.679798,-62.4637995 0,-34.4960415 -31.19621,-62.4576175 -69.679798,-62.4576175"
       style="fill:#c13339;fill-opacity:1;fill-rule:nonzero;stroke:none"
       id="path1374" />
    <path
       inkscape:connector-curvature="0"
       d="m 34.924316,-10.243764 -3.114797,7.845067 14.988238,0 0,-7.845067 -11.873441,0"
       style="fill:#ffffff;fill-opacity:1;fill-rule:nonzero;stroke:none"
       id="path1376" />
    <path
       inkscape:connector-curvature="0"
       d="m 40.178813,9.2978101 c -1.75035,0 -2.921845,1.2240529 -2.921845,2.6212049 0,1.39406 1.171495,2.615022 2.921845,2.615022 1.553953,0 2.921845,-1.220962 2.921845,-2.615022 0,-1.397152 -1.367892,-2.6212049 -2.921845,-2.6212049"
       style="fill:#ffffff;fill-opacity:1;fill-rule:nonzero;stroke:none"
       id="path1378" />
    <path
       inkscape:connector-curvature="0"
       d="m 51.080603,-21.597166 61.913477,0 0,26.5335143 -61.913477,0 0,-26.5335143 z M 112.99408,8.7723328 c -3.31119,0.8778562 -6.61894,1.9226292 -9.73374,2.7973942 -0.38935,-1.919538 -0.38935,-3.3197805 -2.72544,-4.8931214 l 12.45918,0 0,2.0957272 z M 94.691205,17.50453 c -3.307748,0 -6.229593,-2.621205 -6.229593,-5.585515 0,-3.1466822 2.921845,-5.5886063 6.229593,-5.5886063 3.311195,0 6.236485,2.4419241 6.236485,5.5886063 0,2.96431 -2.92529,5.585515 -6.236485,5.585515 z M 48.551553,11.569727 C 48.74795,7.5575528 44.458214,4.2346815 40.178813,4.2346815 l -0.975097,0 c -3.89005,0.5285684 -7.394197,3.4959698 -7.59404,7.3350455 l -2.725447,0 0,-12.5712725 4.872038,-11.8634235 15.184636,0 0,19.5415746 39.720552,-0.1730985 0,0.1730985 c -1.367892,1.4002425 -2.143146,1.7433483 -2.339544,4.8931214 l -37.770358,0 z m -8.37274,5.934803 c -3.507592,0 -6.229594,-2.621205 -6.229594,-5.585515 0,-3.1466822 2.722002,-5.5886063 6.229594,-5.5886063 3.31464,0 6.036642,2.4419241 6.036642,5.5886063 0,2.96431 -2.722002,5.585515 -6.036642,5.585515 z m 32.316019,-64.80681 c -28.529335,0 -51.652568,20.728535 -51.652568,46.3007345 0,25.5752905 23.123233,46.3069165 51.652568,46.3069165 28.529338,0 51.662908,-20.731626 51.662908,-46.3069165 0,-25.5721995 -23.13357,-46.3007345 -51.662908,-46.3007345"
       style="fill:#ffffff;fill-opacity:1;fill-rule:nonzero;stroke:none"
       id="path1380" />
    <path
       inkscape:connector-curvature="0"
       d="m 94.691205,9.2978101 c -1.560844,0 -2.918399,1.2240529 -2.918399,2.6212049 0,1.39406 1.357555,2.615022 2.918399,2.615022 1.56429,0 2.921845,-1.220962 2.921845,-2.615022 0,-1.397152 -1.357555,-2.6212049 -2.921845,-2.6212049"
       style="fill:#ffffff;fill-opacity:1;fill-rule:nonzero;stroke:none"
       id="path1382" />
    <path
       inkscape:connector-curvature="0"
       d="m 51.080603,4.9363483 61.913827,0 0,-26.5334523 -61.913827,0 0,26.5334523 z"
       style="fill:#191412;fill-opacity:1;fill-rule:nonzero;stroke:none"
       id="path1384" />
    <path
       inkscape:connector-curvature="0"
       d="m 103.26034,11.569727 c 3.1148,-0.874765 6.42255,-1.919538 9.73374,-2.7973942 l 0,-2.0957272 -12.45918,0 c 2.33609,1.5733409 2.33609,2.9735834 2.72544,4.8931214"
       style="fill:#191412;fill-opacity:1;fill-rule:nonzero;stroke:none"
       id="path1386" />
    <path
       inkscape:connector-curvature="0"
       d="m 46.797757,-2.398697 -14.988238,0 3.114797,-7.845067 11.873441,0 0,7.845067 z m 41.863698,8.9022041 -39.720552,0.1730985 0,-19.5415746 -15.184636,0 -4.872038,11.8634235 0,12.5712725 2.725447,0 c 0.199843,-3.8390757 3.70399,-6.8064771 7.59404,-7.3350455 l 0.975097,0 c 4.279401,0 8.569137,3.3228713 8.37274,7.3350455 l 37.770358,0 c 0.196398,-3.1497731 0.971652,-3.4928789 2.339544,-4.8931214 l 0,-0.1730985"
       style="fill:#191412;fill-opacity:1;fill-rule:nonzero;stroke:none"
       id="path1388" />
    <path
       inkscape:connector-curvature="0"
       d="m 40.178813,14.534037 c -1.75035,0 -2.921845,-1.220962 -2.921845,-2.615022 0,-1.397152 1.171495,-2.6212049 2.921845,-2.6212049 1.553953,0 2.921845,1.2240529 2.921845,2.6212049 0,1.39406 -1.367892,2.615022 -2.921845,2.615022 z m 0,-8.2036283 c -3.507592,0 -6.229594,2.4419241 -6.229594,5.5886063 0,2.96431 2.722002,5.585515 6.229594,5.585515 3.31464,0 6.036642,-2.621205 6.036642,-5.585515 0,-3.1466822 -2.722002,-5.5886063 -6.036642,-5.5886063"
       style="fill:#191412;fill-opacity:1;fill-rule:nonzero;stroke:none"
       id="path1390" />
    <path
       inkscape:connector-curvature="0"
       d="m 94.691205,14.534037 c -1.560844,0 -2.918399,-1.220962 -2.918399,-2.615022 0,-1.397152 1.357555,-2.6212049 2.918399,-2.6212049 1.56429,0 2.921845,1.2240529 2.921845,2.6212049 0,1.39406 -1.357555,2.615022 -2.921845,2.615022 z m 0,-8.2036283 c -3.307748,0 -6.229593,2.4419241 -6.229593,5.5886063 0,2.96431 2.921845,5.585515 6.229593,5.585515 3.311195,0 6.236485,-2.621205 6.236485,-5.585515 0,-3.1466822 -2.92529,-5.5886063 -6.236485,-5.5886063"
       style="fill:#191412;fill-opacity:1;fill-rule:nonzero;stroke:none"
       id="path1392" />
  </g>
</svg>
