<?xml version="1.0" encoding="UTF-8" standalone="no"?>
<!-- Created with Inkscape (http://www.inkscape.org/) -->

<svg
   xmlns:dc="http://purl.org/dc/elements/1.1/"
   xmlns:cc="http://creativecommons.org/ns#"
   xmlns:rdf="http://www.w3.org/1999/02/22-rdf-syntax-ns#"
   xmlns:svg="http://www.w3.org/2000/svg"
   xmlns="http://www.w3.org/2000/svg"
   xmlns:sodipodi="http://sodipodi.sourceforge.net/DTD/sodipodi-0.dtd"
   xmlns:inkscape="http://www.inkscape.org/namespaces/inkscape"
   id="svg2993"
   version="1.1"
   preserveAspectRatio="xMinYMin meet"
   viewBox="0 0 145 130"
   inkscape:version="0.48.3.1 r9886"
   sodipodi:docname="cod_45.svg"
   width="100%"
   height="100%">
  <defs
     id="defs2995" />
  <sodipodi:namedview
     id="base"
     pagecolor="#ffffff"
     bordercolor="#666666"
     borderopacity="1.0"
     inkscape:pageopacity="0.0"
     inkscape:pageshadow="2"
     inkscape:zoom="2.9283974"
     inkscape:cx="89.73991"
     inkscape:cy="36.608"
     inkscape:current-layer="layer1"
     showgrid="true"
     inkscape:document-units="px"
     inkscape:grid-bbox="true"
     inkscape:window-width="1366"
     inkscape:window-height="692"
     inkscape:window-x="0"
     inkscape:window-y="24"
     inkscape:window-maximized="1" />
  <metadata
     id="metadata2998">
    <rdf:RDF>
      <cc:Work
         rdf:about="">
        <dc:format>image/svg+xml</dc:format>
        <dc:type
           rdf:resource="http://purl.org/dc/dcmitype/StillImage" />
        <dc:title></dc:title>
      </cc:Work>
    </rdf:RDF>
  </metadata>
  <g
     id="layer1"
     inkscape:label="Layer 1"
     inkscape:groupmode="layer"
     transform="translate(0,66)">
    <path
       inkscape:connector-curvature="0"
       d="m 72.501723,63.242658 c -39.508495,0 -71.6507072,-28.822256 -71.6507072,-64.2472948 0,-35.4219472 32.1422122,-64.2380212 71.6507072,-64.2380212 39.511937,0 71.650707,28.816074 71.650707,64.2380212 0,35.4250388 -32.13877,64.2472948 -71.650707,64.2472948 z M 72.501723,-66 C 32.528098,-66 0,-36.843895 0,-1.0046368 0,34.843895 32.528098,64 72.501723,64 112.47879,64 145,34.843895 145,-1.0046368 145,-36.843895 112.47879,-66 72.501723,-66"
       style="fill:#191412;fill-opacity:1;fill-rule:nonzero;stroke:none"
       id="path4621" />
    <path
       inkscape:connector-curvature="0"
       d="m 112.21694,27.783617 -0.19983,0.241113 -0.24118,-0.216384 -71.643816,-64.05255 -0.230843,-0.210201 0.25496,-0.179289 c 13.574908,-9.567233 27.484021,-10.741886 36.759059,-10.043277 11.98313,0.902628 23.56315,5.585781 31.77011,12.859351 8.33444,7.564142 13.54734,17.477589 14.68433,27.9103557 1.26791,11.6692427 -2.58406,23.3168473 -11.15279,33.6908813 z m -7.45931,6.865533 C 93.081145,42.33694 80.033385,45.786708 67.03386,44.62442 55.367708,43.582689 44.359629,38.853168 36.042414,31.307573 27.925033,24.02473 22.660449,13.675425 21.602709,2.9119011 20.782702,-5.4281298 22.047166,-17.901082 32.71415,-29.953632 l 0.199834,-0.231839 0.230842,0.210201 71.643814,64.228748 0.24118,0.219474 -0.27219,0.176198 z M 72.501723,-63.462133 c -38.478318,0 -69.6730429,27.959815 -69.6730429,62.4574962 0,34.5007728 31.1947249,62.4636788 69.6730429,62.4636788 38.485207,0 69.673047,-27.962906 69.673047,-62.4636788 0,-34.4976812 -31.18784,-62.4574962 -69.673047,-62.4574962"
       style="fill:#c13339;fill-opacity:1;fill-rule:nonzero;stroke:none"
       id="path4623" />
    <path
       inkscape:connector-curvature="0"
       d="m 111.83795,22.355487 -0.19295,0.281298 -0.2584,-0.23493 -65.025189,-58.472952 -0.241178,-0.216384 0.282523,-0.176198 c 9.275039,-5.817619 20.276227,-8.18238 31.818344,-6.834621 10.708329,1.255023 20.696567,5.613601 28.12831,12.268934 15.73518,13.935085 17.94713,35.3848529 5.48854,53.384853 z M 123.36973,-5.9072643 C 122.23274,-16.340031 117.01984,-26.253478 108.6854,-33.81762 100.47844,-41.09119 88.89842,-45.774343 76.91529,-46.676971 67.640252,-47.37558 53.731139,-46.200927 40.156231,-36.633694 l -0.25496,0.179289 0.230843,0.210201 71.643816,64.05255 0.24118,0.216384 0.19983,-0.241113 c 8.56873,-10.374034 12.4207,-22.0216386 11.15279,-33.6908813"
       style="fill:#ffffff;fill-opacity:1;fill-rule:nonzero;stroke:none"
       id="path4625" />
    <path
       inkscape:connector-curvature="0"
       d="m 78.2211,-43.2983 c -11.542117,-1.347759 -22.543305,1.017002 -31.818344,6.834621 l -0.282523,0.176198 0.241178,0.216384 65.025189,58.472952 0.2584,0.23493 0.19295,-0.281298 C 124.29654,4.3554869 122.08459,-17.094281 106.34941,-31.029366 98.917667,-37.684699 88.929429,-42.043277 78.2211,-43.2983"
       style="fill:#2c4aa0;fill-opacity:1;fill-rule:nonzero;stroke:none"
       id="path4627" />
    <path
       inkscape:connector-curvature="0"
       d="M 98.700606,34.309119 C 88.481525,39.941267 77.294285,42.346213 66.348224,41.264297 55.991327,40.241113 46.271831,36.018547 38.96412,29.387944 31.553047,22.741886 26.726031,13.780526 25.378876,4.1669243 23.945586,-6.0247295 26.688131,-16.151468 33.089699,-24.358578 l 0.199834,-0.250386 0.244624,0.216383 65.221575,58.299845 0.258406,0.228748 -0.313532,0.173107 z m -65.55578,-64.284389 -0.230842,-0.210201 -0.199834,0.231839 C 22.047166,-17.901082 20.782702,-5.4281298 21.602709,2.9119011 22.660449,13.675425 27.925033,24.02473 36.042414,31.307573 c 8.317215,7.545595 19.325294,12.275116 30.991446,13.316847 12.999525,1.162288 26.047285,-2.28748 37.72377,-9.97527 l 0.27219,-0.176198 -0.24118,-0.219474 -71.643814,-64.228748"
       style="fill:#ffffff;fill-opacity:1;fill-rule:nonzero;stroke:none"
       id="path4629" />
    <path
       inkscape:connector-curvature="0"
       d="m 33.534157,-24.392581 -0.244624,-0.216383 -0.199834,0.250386 c -6.401568,8.20711 -9.144113,18.3338485 -7.710823,28.5255023 1.347155,9.6136017 6.174171,18.5749617 13.585244,25.2210197 7.307711,6.630603 17.027207,10.853169 27.384104,11.876353 10.946061,1.081916 22.133301,-1.32303 32.352382,-6.955178 l 0.313532,-0.173107 -0.258406,-0.228748 -65.221575,-58.299845"
       style="fill:#2c4aa0;fill-opacity:1;fill-rule:nonzero;stroke:none"
       id="path4631" />
  </g>
</svg>
