<?xml version="1.0" encoding="UTF-8" standalone="no"?>
<!-- Created with Inkscape (http://www.inkscape.org/) -->

<svg
   xmlns:dc="http://purl.org/dc/elements/1.1/"
   xmlns:cc="http://creativecommons.org/ns#"
   xmlns:rdf="http://www.w3.org/1999/02/22-rdf-syntax-ns#"
   xmlns:svg="http://www.w3.org/2000/svg"
   xmlns="http://www.w3.org/2000/svg"
   xmlns:sodipodi="http://sodipodi.sourceforge.net/DTD/sodipodi-0.dtd"
   xmlns:inkscape="http://www.inkscape.org/namespaces/inkscape"
   id="svg2993"
   version="1.1"
   preserveAspectRatio="xMinYMin meet"
   viewBox="0 0 145 130"
   inkscape:version="0.48.3.1 r9886"
   sodipodi:docname="cod_2.svg">
  <defs
     id="defs2995" />
  <sodipodi:namedview
     id="base"
     pagecolor="#ffffff"
     bordercolor="#666666"
     borderopacity="1.0"
     inkscape:pageopacity="0.0"
     inkscape:pageshadow="2"
     inkscape:zoom="0.97227182"
     inkscape:cx="409.7779"
     inkscape:cy="-1.4410206"
     inkscape:current-layer="layer1"
     showgrid="true"
     inkscape:document-units="px"
     inkscape:grid-bbox="true"
     inkscape:window-width="1366"
     inkscape:window-height="692"
     inkscape:window-x="0"
     inkscape:window-y="24"
     inkscape:window-maximized="1" />
  <metadata
     id="metadata2998">
    <rdf:RDF>
      <cc:Work
         rdf:about="">
        <dc:format>image/svg+xml</dc:format>
        <dc:type
           rdf:resource="http://purl.org/dc/dcmitype/StillImage" />
        <dc:title></dc:title>
      </cc:Work>
    </rdf:RDF>
  </metadata>
  <g
     id="layer1"
     inkscape:label="Layer 1"
     inkscape:groupmode="layer"
     transform="translate(0,66)">
    <path
       inkscape:connector-curvature="0"
       d="m 142.74782,59.270894 c -0.95463,1.724428 -3.05198,2.752176 -5.59856,2.752176 l -128.5281252,0 c -2.7900125,0 -4.9508191,-1.019111 -5.9335144,-2.780964 -0.8861106,-1.59776 -0.7370217,-3.584163 0.4245244,-5.587839 L 67.518276,-60.73377 c 1.198889,-2.147619 2.995817,-3.376885 4.935939,-3.376885 1.940117,0 3.742661,1.229266 4.935933,3.371127 0,0 64.978622,114.684558 64.978622,114.678801 1.10062,1.902917 1.23539,3.797197 0.37905,5.331621 z m 0.32287,-7.084838 -64.259844,-113.075283 c -1.58916,-2.850057 -3.905513,-4.482362 -6.356631,-4.482362 -2.445508,0 -4.761861,1.632305 -6.353828,4.482362 L 2.2709575,52.036355 C 0.47122108,55.24051 0.1180123,58.13375 1.2806813,60.186367 2.490239,62.325349 5.299063,63.497039 9.193625,63.497039 l 127.236855,0 c 3.58824,0 6.2331,-1.191843 7.45726,-3.36537 1.18204,-2.098678 0.89284,-4.919947 -0.81705,-7.945613"
       style="fill:#eeee1e;fill-opacity:1;fill-rule:nonzero;stroke:none"
       id="path5297" />
    <path
       inkscape:connector-curvature="0"
       d="m 136.43048,63.497039 -127.236855,0 c -3.894562,0 -6.703386,-1.17169 -7.9129437,-3.310672 C 0.1180123,58.13375 0.47122108,55.24051 2.2709575,52.036355 L 66.100387,-60.889227 c 1.591967,-2.850057 3.90832,-4.482362 6.353828,-4.482362 2.451118,0 4.767471,1.632305 6.356631,4.482362 L 143.07069,52.186056 c 1.70989,3.025666 1.99909,5.846935 0.81705,7.945613 -1.22416,2.173527 -3.86902,3.36537 -7.45726,3.36537 z M 143.53677,51.906808 79.276924,-61.165597 c -1.690237,-3.025666 -4.172244,-4.755852 -6.822709,-4.755852 -2.642047,0 -5.132478,1.730186 -6.817098,4.755852 L 1.8048791,51.762865 c -1.89519821,3.376886 -2.24616082,6.468766 -0.98718772,8.696992 1.30530022,2.314591 4.28062102,3.592799 8.37593362,3.592799 l 127.236855,0 c 3.78759,0 6.60372,-1.29836 7.92334,-3.64174 1.2803,-2.277166 0.99112,-5.297075 -0.81705,-8.504108"
       style="fill:#191412;fill-opacity:1;fill-rule:nonzero;stroke:none"
       id="path5299" />
    <path
       inkscape:connector-curvature="0"
       d="m 25.93791,45.884264 46.659498,-83.005745 46.377592,83.005745 -93.03709,0 z m 50.458313,-106.03075 c -0.988312,-1.770489 -2.423047,-2.783843 -3.942008,-2.783843 -1.507735,0 -2.948086,1.013354 -3.939205,2.789601 L 4.1133709,54.247309 c -0.946476,1.635184 -1.0955649,3.195518 -0.4264897,4.410391 0.7774523,1.384724 2.572977,2.179285 4.9342536,2.179285 l 128.5281252,0 c 2.12823,0 3.84935,-0.800318 4.59339,-2.147618 0.64297,-1.154417 0.51101,-2.625506 -0.37061,-4.145537 0,0 -64.975817,-114.684558 -64.975817,-114.690316"
       style="fill:#c13339;fill-opacity:1;fill-rule:nonzero;stroke:none"
       id="path5301" />
    <path
       inkscape:connector-curvature="0"
       d="m 141.74265,58.689367 c -0.74404,1.3473 -2.46516,2.147618 -4.59339,2.147618 l -128.5281252,0 c -2.3612766,0 -4.1568013,-0.794561 -4.9342536,-2.179285 C 3.017806,57.442827 3.1668949,55.882493 4.1133709,54.247309 L 68.51501,-60.140728 c 0.991119,-1.776247 2.43147,-2.789601 3.939205,-2.789601 1.518961,0 2.953696,1.013354 3.942008,2.783843 0,0.0057 64.975817,114.690316 64.975817,114.690316 0.88162,1.520031 1.01358,2.99112 0.37061,4.145537 z M 77.390148,-60.739528 c -1.193272,-2.141861 -2.995816,-3.371127 -4.935933,-3.371127 -1.940122,0 -3.73705,1.229266 -4.935939,3.376885 L 3.1121448,53.654267 c -1.1615461,2.003676 -1.310635,3.990079 -0.4245244,5.587839 0.9826953,1.761853 3.1435019,2.780964 5.9335144,2.780964 l 128.5281252,0 c 2.54658,0 4.64393,-1.027748 5.59856,-2.752176 0.85634,-1.534424 0.72157,-3.428704 -0.37905,-5.331621 0,0.0057 -64.978622,-114.678801 -64.978622,-114.678801"
       style="fill:#c13339;fill-opacity:1;fill-rule:nonzero;stroke:none"
       id="path5303" />
    <path
       inkscape:connector-curvature="0"
       d="m 77.968535,-13.068729 c 0,0.62183 -0.117923,1.217751 -0.294809,1.782005 l -1.850275,34.30432 -0.0089,0.19864 -0.01348,0 c -0.112308,1.963372 -1.754813,3.532343 -3.773546,3.532343 -1.979429,0 -3.652818,-1.715792 -3.652818,-3.742499 0,-0.253338 0.02526,-0.49804 0.07019,-0.739863 l -2.074891,-33.414757 -0.01392,-0.236065 0.134769,0 c -0.157231,-0.541222 -0.263923,-1.093961 -0.263923,-1.684124 0,-3.333703 2.611161,-5.944816 5.94671,-5.944816 3.192351,0 5.79509,2.66869 5.79509,5.944816 z m -5.79509,54.407296 c -2.863856,0 -5.303748,-2.495959 -5.303748,-5.426623 0,-3.086123 2.439892,-5.426624 5.303748,-5.426624 2.86385,0 5.152127,2.340501 5.152127,5.426624 0,2.930664 -2.288277,5.426623 -5.152127,5.426623 z m -46.235535,4.545697 93.03709,0 L 72.597408,-37.121481 25.93791,45.884264"
       style="fill:#eeee1e;fill-opacity:1;fill-rule:nonzero;stroke:none"
       id="path5305" />
    <path
       inkscape:connector-curvature="0"
       d="m 72.173445,30.48532 c -2.863856,0 -5.303748,2.340501 -5.303748,5.426624 0,2.930664 2.439892,5.426623 5.303748,5.426623 2.86385,0 5.152127,-2.495959 5.152127,-5.426623 0,-3.086123 -2.288277,-5.426624 -5.152127,-5.426624"
       style="fill:#191412;fill-opacity:1;fill-rule:nonzero;stroke:none"
       id="path5307" />
    <path
       inkscape:connector-curvature="0"
       d="m 66.226734,-13.068729 c 0,0.590163 0.106693,1.142902 0.263924,1.684124 l -0.13477,0 0.01392,0.236065 2.074891,33.414757 c -0.04492,0.241823 -0.07019,0.486525 -0.07019,0.739863 0,2.026707 1.673389,3.742499 3.652819,3.742499 2.018733,0 3.661238,-1.568971 3.773545,-3.532343 l 0.01348,0 0.0089,-0.19864 1.850275,-34.30432 c 0.176772,-0.564254 0.294809,-1.160175 0.294809,-1.782005 0,-3.276126 -2.602739,-5.944816 -5.795091,-5.944816 -3.335549,0 -5.946711,2.611113 -5.946711,5.944816"
       style="fill:#191412;fill-opacity:1;fill-rule:nonzero;stroke:none"
       id="path5309" />
  </g>
</svg>
