<?xml version="1.0" encoding="UTF-8" standalone="no"?>
<!-- Created with Inkscape (http://www.inkscape.org/) -->

<svg
   xmlns:dc="http://purl.org/dc/elements/1.1/"
   xmlns:cc="http://creativecommons.org/ns#"
   xmlns:rdf="http://www.w3.org/1999/02/22-rdf-syntax-ns#"
   xmlns:svg="http://www.w3.org/2000/svg"
   xmlns="http://www.w3.org/2000/svg"
   xmlns:sodipodi="http://sodipodi.sourceforge.net/DTD/sodipodi-0.dtd"
   xmlns:inkscape="http://www.inkscape.org/namespaces/inkscape"
   id="svg2993"
   version="1.1"
   preserveAspectRatio="xMinYMin meet"
   viewBox="0 0 145 130"
   inkscape:version="0.48.3.1 r9886"
   sodipodi:docname="cod_1.svg"
   width="100%"
   height="100%">
  <defs
     id="defs2995" />
  <sodipodi:namedview
     id="base"
     pagecolor="#ffffff"
     bordercolor="#666666"
     borderopacity="1.0"
     inkscape:pageopacity="0.0"
     inkscape:pageshadow="2"
     inkscape:zoom="11"
     inkscape:cx="135.61165"
     inkscape:cy="15.442983"
     inkscape:current-layer="layer1"
     showgrid="true"
     inkscape:document-units="px"
     inkscape:grid-bbox="true"
     inkscape:window-width="1366"
     inkscape:window-height="692"
     inkscape:window-x="0"
     inkscape:window-y="24"
     inkscape:window-maximized="1" />
  <metadata
     id="metadata2998">
    <rdf:RDF>
      <cc:Work
         rdf:about="">
        <dc:format>image/svg+xml</dc:format>
        <dc:type
           rdf:resource="http://purl.org/dc/dcmitype/StillImage" />
        <dc:title></dc:title>
      </cc:Work>
    </rdf:RDF>
  </metadata>
  <g
     id="layer1"
     inkscape:label="Layer 1"
     inkscape:groupmode="layer"
     transform="translate(0,66)">
    <path
       inkscape:connector-curvature="0"
       d="m 143.57621,59.64493 c -1.35397,2.386456 -3.77895,3.811042 -6.49047,3.811042 l -129.0071659,0 c -2.715111,0 -5.1365029,-1.424586 -6.4868947,-3.811042 -1.36471938,-2.382812 -1.35755551,-5.228341 0,-7.614797 l 40.8914256,-71.998087 23.60857,-41.564405 c 1.353974,-2.382812 3.782529,-3.803754 6.490477,-3.803754 2.707947,0 5.132921,1.420942 6.486895,3.803754 L 143.57621,52.030133 c 1.35398,2.382812 1.35398,5.231985 0,7.614797 z M 79.606337,-61.838408 c -1.468596,-2.579558 -4.097739,-4.124378 -7.024185,-4.124378 -2.930028,0 -5.55559,1.54482 -7.020604,4.120734 L 41.949395,-20.277647 1.0579703,51.716797 c -1.46501378,2.579559 -1.46501378,5.661912 0,8.241469 1.4614317,2.575915 4.0905763,4.120736 7.0206038,4.120736 l 129.0071659,0 c 2.93361,0 5.55559,-1.544821 7.02418,-4.120736 1.46502,-2.579557 1.46502,-5.66191 0,-8.241469 L 79.606337,-61.838408"
       style="fill:#191412;fill-opacity:1;fill-rule:nonzero;stroke:none"
       id="path770" />
    <path
       inkscape:connector-curvature="0"
       d="m 23.094061,47.027685 49.488091,-87.125665 49.491678,87.125665 -98.979769,0 z M 77.088233,-60.362813 c -2.002305,-3.52321 -7.009858,-3.52321 -9.012163,0 -21.498808,37.848092 -43.004778,75.70347 -64.4999953,113.558849 -2.002305,3.52321 0.4943078,7.931776 4.5024994,7.931776 l 129.0071659,0 c 4.00103,0 6.5048,-4.408566 4.50608,-7.931776 C 120.08943,15.340657 98.587041,-22.514721 77.088233,-60.362813"
       style="fill:#c13339;fill-opacity:1;fill-rule:nonzero;stroke:none"
       id="path772" />
    <path
       inkscape:connector-curvature="0"
       d="m 76.762277,14.517239 0,-15.5757216 5.046954,-4.9441529 5.043372,4.9441529 0,17.0440286 c -0.179096,7.873482 -6.845088,13.189266 -15.137281,9.163261 l -7.568641,-4.951439 c -1.268006,-1.103965 -1.805298,0 -1.805298,1.278847 l 0,20.15553 -4.875021,-3.297316 -5.039791,3.118788 0,-22.359814 C 52.609107,10.855578 61.073377,7.0081014 66.851047,10.48759 l 8.105932,5.129969 c 1.443521,0.914504 1.622619,-0.185816 1.805298,-1.10032 z m -53.668216,32.510446 98.979769,0 L 72.582152,-40.09798 23.094061,47.027685"
       style="fill:#ffffff;fill-opacity:1;fill-rule:nonzero;stroke:none"
       id="path774" />
    <path
       inkscape:connector-curvature="0"
       d="m 52.426571,19.093403 0,22.359814 5.039791,-3.118788 4.875021,3.297316 0,-20.15553 c 0,-1.278847 0.537292,-2.382812 1.805298,-1.278847 l 7.568641,4.951439 c 8.292193,4.026005 14.958185,-1.289779 15.137281,-9.163261 l 0,-17.0440286 -5.043372,-4.9441529 -5.046954,4.9441529 0,15.5757216 c -0.182536,0.914504 -0.361777,2.014824 -1.805298,1.10032 L 66.851047,10.48759 C 61.073377,7.0081014 52.60925,10.855578 52.426571,19.093403"
       style="fill:#191412;fill-opacity:1;fill-rule:nonzero;stroke:none"
       id="path776" />
  </g>
</svg>
