<?xml version="1.0" encoding="UTF-8" standalone="no"?>
<!-- Created with Inkscape (http://www.inkscape.org/) -->

<svg
   xmlns:dc="http://purl.org/dc/elements/1.1/"
   xmlns:cc="http://creativecommons.org/ns#"
   xmlns:rdf="http://www.w3.org/1999/02/22-rdf-syntax-ns#"
   xmlns:svg="http://www.w3.org/2000/svg"
   xmlns="http://www.w3.org/2000/svg"
   xmlns:sodipodi="http://sodipodi.sourceforge.net/DTD/sodipodi-0.dtd"
   xmlns:inkscape="http://www.inkscape.org/namespaces/inkscape"
   id="svg2993"
   version="1.1"
   preserveAspectRatio="xMinYMin meet"
   viewBox="0 0 145 130"
   inkscape:version="0.48.3.1 r9886"
   sodipodi:docname="cod_45.svg"
   width="100%"
   height="100%">
  <defs
     id="defs2995" />
  <sodipodi:namedview
     id="base"
     pagecolor="#ffffff"
     bordercolor="#666666"
     borderopacity="1.0"
     inkscape:pageopacity="0.0"
     inkscape:pageshadow="2"
     inkscape:zoom="4.0153846"
     inkscape:cx="24.683908"
     inkscape:cy="65"
     inkscape:current-layer="layer1"
     showgrid="true"
     inkscape:document-units="px"
     inkscape:grid-bbox="true"
     inkscape:window-width="1366"
     inkscape:window-height="692"
     inkscape:window-x="0"
     inkscape:window-y="24"
     inkscape:window-maximized="1" />
  <metadata
     id="metadata2998">
    <rdf:RDF>
      <cc:Work
         rdf:about="">
        <dc:format>image/svg+xml</dc:format>
        <dc:type
           rdf:resource="http://purl.org/dc/dcmitype/StillImage" />
        <dc:title></dc:title>
      </cc:Work>
    </rdf:RDF>
  </metadata>
  <g
     id="layer1"
     inkscape:label="Layer 1"
     inkscape:groupmode="layer"
     transform="translate(0,66)">
    <path
       inkscape:connector-curvature="0"
       d="m 72.501723,63.239603 c -39.510373,0 -71.6575579,-28.817795 -71.6575579,-64.2411485 0,-35.4202625 32.1471849,-64.2380575 71.6575579,-64.2380575 39.510377,0 71.654107,28.817795 71.654107,64.2380575 0,35.4233535 -32.14373,64.2411485 -71.654107,64.2411485 z M 72.501723,-66 C 32.522753,-66 0,-36.839099 0,-1.0015455 0,34.84219 32.522753,64 72.501723,64 112.47725,64 145,34.84219 145,-1.0015455 145,-36.839099 112.47725,-66 72.501723,-66"
       style="fill:#191412;fill-opacity:1;fill-rule:nonzero;stroke:none"
       id="path1450" />
    <path
       inkscape:connector-curvature="0"
       d="m 72.501723,45.305371 c -28.532781,0 -51.662904,-20.731626 -51.662904,-46.3069165 0,-25.5721995 23.130123,-46.3007345 51.662904,-46.3007345 28.529337,0 51.656017,20.728535 51.656017,46.3007345 0,25.5752905 -23.12668,46.3069165 -51.656017,46.3069165 z m 0,-108.764534 c -38.480147,0 -69.6797997,27.961576 -69.6797997,62.4576175 0,34.4991325 31.1996527,62.4637995 69.6797997,62.4637995 38.480147,0 69.672907,-27.964667 69.672907,-62.4637995 0,-34.4960415 -31.19276,-62.4576175 -69.672907,-62.4576175"
       style="fill:#c13339;fill-opacity:1;fill-rule:nonzero;stroke:none"
       id="path1452" />
    <path
       inkscape:connector-curvature="0"
       d="m 42.804339,11.742825 c -2.525604,0 -4.472352,1.743349 -4.472352,4.015265 0,2.268826 1.946748,4.191455 4.472352,4.191455 2.539386,0 4.675641,-1.922629 4.675641,-4.191455 0,-2.271916 -2.136255,-4.015265 -4.675641,-4.015265"
       style="fill:#ffffff;fill-opacity:1;fill-rule:nonzero;stroke:none"
       id="path1454" />
    <path
       inkscape:connector-curvature="0"
       d="m 98.488226,4.0677652 c -3.500701,0 -6.229594,2.4357419 -6.229594,5.5824238 0,3.137409 2.728893,5.582424 6.229594,5.582424 3.307744,0 6.236484,-2.618114 6.236484,-5.582424 0,-3.1466819 -2.92874,-5.5824238 -6.236484,-5.5824238"
       style="fill:#ffffff;fill-opacity:1;fill-rule:nonzero;stroke:none"
       id="path1456" />
    <path
       inkscape:connector-curvature="0"
       d="m 98.488226,24.660294 c -9.147994,0 -16.738588,-6.806477 -16.738588,-15.010105 0,-8.2067194 7.590594,-15.0131963 16.738588,-15.0131963 9.154884,0 16.745474,6.8064769 16.745474,15.0131963 0,8.203628 -7.59059,15.010105 -16.745474,15.010105 z M 75.320201,5.634924 79.217142,-5.8823026 c 0.385904,-1.2271441 0.975097,-1.2271441 2.1397,-1.5733409 l 9.733741,-2.6212045 -1.557399,-5.056947 -9.340945,4.361462 c -2.725447,1.2271443 -4.675641,-2.265734 -2.143146,-3.662886 l 16.742034,-7.505053 c 1.364447,-0.17928 3.504147,-0.877856 4.089894,2.441925 l 0,8.902204 c 0,1.9226285 -0.196398,3.1404995 -3.307749,3.8421663 -4.093339,1.0447725 -8.179788,1.9164467 -12.073284,2.9612193 L 79.603046,6.8589771 C 78.438443,9.4770906 74.348549,8.2499465 75.320201,5.634924 z M 73.56985,-7.2794541 72.401801,-8.6735145 68.9011,-5.7092042 l 3.111352,10.9917493 -34.655562,0 -4.479243,-15.3593931 34.662452,0 0.7787,2.4481061 2.722001,-2.2719167 -1.757241,-1.7433484 c -0.382459,-0.525477 -0.578856,-1.220962 0,-1.74953 l 0.199843,0 c 0.582301,-0.525478 1.361001,-0.525478 1.939857,0 l 4.286291,4.3676436 c 0.589193,0.5192952 0.589193,1.217871 0,1.7464393 l -0.192952,0 c -0.57541,0.5254774 -1.357555,0.3492879 -1.946748,0 z M 53.123827,10.521863 C 51.966115,8.7723328 50.787729,7.7306513 48.651474,6.5035071 l 23.750327,0 1.168049,4.0183559 -20.446023,0 z M 42.804339,25.009582 c -5.640401,0 -10.116199,-4.188363 -10.116199,-9.251492 0,-5.063128 4.475798,-9.2545829 10.116199,-9.2545829 5.650738,0 10.319488,4.1914549 10.319488,9.2545829 0,5.063129 -4.66875,9.251492 -10.319488,9.251492 z M 93.626524,-31.71415 c 2.332652,0 4.286291,1.743348 4.286291,3.662886 0,2.092636 -1.953639,3.835985 -4.286291,3.835985 -2.146591,0 -4.09334,-1.743349 -4.09334,-3.835985 0,-1.919538 1.946749,-3.662886 4.09334,-3.662886 z M 72.501723,-47.30228 c -28.532781,0 -51.662904,20.728535 -51.662904,46.3007345 0,25.5752905 23.130123,46.3069165 51.662904,46.3069165 28.529337,0 51.656017,-20.731626 51.656017,-46.3069165 0,-25.5721995 -23.12668,-46.3007345 -51.656017,-46.3007345"
       style="fill:#ffffff;fill-opacity:1;fill-rule:nonzero;stroke:none"
       id="path1458" />
    <path
       inkscape:connector-curvature="0"
       d="m 42.804339,19.949545 c -2.525604,0 -4.472352,-1.922629 -4.472352,-4.191455 0,-2.271916 1.946748,-4.015265 4.472352,-4.015265 2.539386,0 4.675641,1.743349 4.675641,4.015265 0,2.268826 -2.136255,4.191455 -4.675641,4.191455 z m 0,-13.4460379 c -5.640401,0 -10.116199,4.1914549 -10.116199,9.2545829 0,5.063129 4.475798,9.251492 10.116199,9.251492 5.650738,0 10.319488,-4.188363 10.319488,-9.251492 0,-5.063128 -4.66875,-9.2545829 -10.319488,-9.2545829"
       style="fill:#191412;fill-opacity:1;fill-rule:nonzero;stroke:none"
       id="path1460" />
    <path
       inkscape:connector-curvature="0"
       d="m 98.488226,15.232613 c -3.500701,0 -6.229594,-2.445015 -6.229594,-5.582424 0,-3.1466819 2.728893,-5.5824238 6.229594,-5.5824238 3.307744,0 6.236484,2.4357419 6.236484,5.5824238 0,2.96431 -2.92874,5.582424 -6.236484,5.582424 z m 0,-20.5956203 c -9.147994,0 -16.738588,6.8064769 -16.738588,15.0131963 0,8.203628 7.590594,15.010105 16.738588,15.010105 9.154884,0 16.745474,-6.806477 16.745474,-15.010105 0,-8.2067194 -7.59059,-15.0131963 -16.745474,-15.0131963"
       style="fill:#191412;fill-opacity:1;fill-rule:nonzero;stroke:none"
       id="path1462" />
    <path
       inkscape:connector-curvature="0"
       d="m 75.70955,-7.2794541 c 0.589193,-0.5285683 0.589193,-1.2271441 0,-1.7464393 l -4.286291,-4.3676436 c -0.578856,-0.525478 -1.357556,-0.525478 -1.939857,0 l -0.199843,0 c -0.578856,0.528568 -0.382459,1.224053 0,1.74953 l 1.757241,1.7433484 -2.722001,2.2719167 -0.7787,-2.4481061 -34.662452,0 4.479243,15.3593931 34.655562,0 -3.111352,-10.9917493 3.500701,-2.9643103 1.168049,1.3940604 c 0.589193,0.3492879 1.371338,0.5254774 1.946748,0 l 0.192952,0"
       style="fill:#191412;fill-opacity:1;fill-rule:nonzero;stroke:none"
       id="path1464" />
    <path
       inkscape:connector-curvature="0"
       d="m 48.651474,6.5035071 c 2.136255,1.2271442 3.314641,2.2688257 4.472353,4.0183559 l 20.446023,0 -1.168049,-4.0183559 -23.750327,0"
       style="fill:#191412;fill-opacity:1;fill-rule:nonzero;stroke:none"
       id="path1466" />
    <path
       inkscape:connector-curvature="0"
       d="m 93.626524,-24.215279 c 2.332652,0 4.286291,-1.743349 4.286291,-3.835985 0,-1.919538 -1.953639,-3.662886 -4.286291,-3.662886 -2.146591,0 -4.09334,1.743348 -4.09334,3.662886 0,2.092636 1.946749,3.835985 4.09334,3.835985"
       style="fill:#191412;fill-opacity:1;fill-rule:nonzero;stroke:none"
       id="path1468" />
    <path
       inkscape:connector-curvature="0"
       d="m 95.573272,-6.7539767 c 3.111351,-0.7016668 3.307749,-1.9195378 3.307749,-3.8421663 l 0,-8.902204 c -0.585747,-3.319781 -2.725447,-2.621205 -4.089894,-2.441925 l -16.742034,7.505053 c -2.532495,1.397152 -0.582301,4.8900303 2.143146,3.662886 l 9.340945,-4.361462 1.557399,5.056947 -9.733741,2.6212045 c -1.164603,0.3461968 -1.753796,0.3461968 -2.1397,1.5733409 L 75.320201,5.634924 c -0.971652,2.6150225 3.118242,3.8421666 4.282845,1.2240531 l 3.896942,-10.6517345 c 3.893496,-1.0447726 7.979945,-1.9164468 12.073284,-2.9612193"
       style="fill:#191412;fill-opacity:1;fill-rule:nonzero;stroke:none"
       id="path1470" />
  </g>
</svg>
