<?xml version="1.0" encoding="UTF-8" standalone="no"?>
<!-- Created with Inkscape (http://www.inkscape.org/) -->

<svg
   xmlns:dc="http://purl.org/dc/elements/1.1/"
   xmlns:cc="http://creativecommons.org/ns#"
   xmlns:rdf="http://www.w3.org/1999/02/22-rdf-syntax-ns#"
   xmlns:svg="http://www.w3.org/2000/svg"
   xmlns="http://www.w3.org/2000/svg"
   xmlns:sodipodi="http://sodipodi.sourceforge.net/DTD/sodipodi-0.dtd"
   xmlns:inkscape="http://www.inkscape.org/namespaces/inkscape"
   id="svg2993"
   version="1.1"
   preserveAspectRatio="xMinYMin meet"
   viewBox="0 0 145 130"
   inkscape:version="0.48.3.1 r9886"
   sodipodi:docname="cod_1.svg"
   width="100%"
   height="100%">
  <defs
     id="defs2995" />
  <sodipodi:namedview
     id="base"
     pagecolor="#ffffff"
     bordercolor="#666666"
     borderopacity="1.0"
     inkscape:pageopacity="0.0"
     inkscape:pageshadow="2"
     inkscape:zoom="2.75"
     inkscape:cx="-37.360106"
     inkscape:cy="75.725606"
     inkscape:current-layer="layer1"
     showgrid="true"
     inkscape:document-units="px"
     inkscape:grid-bbox="true"
     inkscape:window-width="1366"
     inkscape:window-height="692"
     inkscape:window-x="0"
     inkscape:window-y="24"
     inkscape:window-maximized="1" />
  <metadata
     id="metadata2998">
    <rdf:RDF>
      <cc:Work
         rdf:about="">
        <dc:format>image/svg+xml</dc:format>
        <dc:type
           rdf:resource="http://purl.org/dc/dcmitype/StillImage" />
        <dc:title></dc:title>
      </cc:Work>
    </rdf:RDF>
  </metadata>
  <g
     id="layer1"
     inkscape:label="Layer 1"
     inkscape:groupmode="layer"
     transform="translate(0,66)">
    <path
       inkscape:connector-curvature="0"
       d="m 72.907355,63.342624 c -39.797532,0 -72.17489074,-28.823921 -72.17489074,-64.25789767 0,-35.42779333 32.37735874,-64.25171433 72.17489074,-64.25171433 39.797535,0 72.178365,28.823921 72.178365,64.25171433 0,35.43397667 -32.38083,64.25789767 -72.178365,64.25789767 z m 0,-129.263987 c -40.269536,0 -73.02866182,29.160917 -73.02866182,65.00608933 0,35.85135567 32.75912582,65.01845567 73.02866182,65.01845567 40.269535,0 73.032135,-29.1671 73.032135,-65.01845567 0,-35.84517233 -32.7626,-65.00608933 -73.032135,-65.00608933"
       style="fill:#191412;fill-opacity:1;fill-rule:nonzero;stroke:none"
       id="path6399" />
    <path
       inkscape:connector-curvature="0"
       d="m 72.907355,45.404579 c -28.740155,0 -52.031446,-20.736033 -52.031446,-46.31985267 0,-25.57763633 23.291291,-46.31366933 52.031446,-46.31366933 28.733215,0 52.031445,20.736033 52.031445,46.31366933 0,25.58381967 -23.29823,46.31985267 -52.031445,46.31985267 z m 0,-108.790748 c -38.763289,0 -70.1862288,27.967521 -70.1862288,62.47089533 0,34.50646667 31.4229398,62.47707867 70.1862288,62.47707867 38.759815,0 70.182755,-27.970612 70.182755,-62.47707867 0,-34.50337433 -31.42294,-62.47089533 -70.182755,-62.47089533"
       style="fill:#c13339;fill-opacity:1;fill-rule:nonzero;stroke:none"
       id="path6401" />
    <path
       inkscape:connector-curvature="0"
       d="m 52.021199,-6.4123167 c 2.353077,0 4.706153,-2.7918053 4.320915,-8.0291453 -0.593475,-3.666757 -2.550901,-5.23734 -4.320915,-5.064205 -2.15178,0.176227 -4.112677,2.445535 -4.310502,6.285426 0,4.541708 2.158722,6.8079243 4.310502,6.8079243"
       style="fill:#ffffff;fill-opacity:1;fill-rule:nonzero;stroke:none"
       id="path6403" />
    <path
       inkscape:connector-curvature="0"
       d="M 111.83723,1.9723744 C 111.44158,15.937584 106.34672,26.93167 93.796982,27.457259 l -0.985655,0 C 77.318506,28.152892 74.9689,8.9534335 75.558904,-5.0148682 76.731972,-19.32944 80.459412,-27.704856 93.401332,-28.92917 l 0.39565,0 c 10.196668,0.874952 17.446778,7.330422 18.040248,26.3598367 l 0,4.5417077 z M 69.086209,13.492049 c -0.787829,6.634789 -5.684866,12.917124 -17.06501,14.138346 l -0.975242,0 C 40.259288,26.758535 34.95966,20.822471 33.977477,14.363909 l 0,-4.538616 c 0.787829,-4.8879781 3.73091,-9.60282098 8.246179,-12.0452642 -11.380144,-5.9360644 -7.45835,-26.5360628 9.797543,-27.0554688 0.201296,-0.179319 0.399121,-0.179319 0.784359,-0.179319 19.223732,2.445535 17.06501,23.0424423 7.649234,27.2347878 4.907448,1.74681066 8.041413,6.6378804 8.631417,12.0452642 l 0,3.666756 z m 3.821146,-60.720992 c -28.740155,0 -52.031446,20.736033 -52.031446,46.31366933 0,25.58381967 23.291291,46.31985267 52.031446,46.31985267 28.733215,0 52.031445,-20.736033 52.031445,-46.31985267 0,-25.57763633 -23.29823,-46.31366933 -52.031445,-46.31366933"
       style="fill:#ffffff;fill-opacity:1;fill-rule:nonzero;stroke:none"
       id="path6405" />
    <path
       inkscape:connector-curvature="0"
       d="m 52.021199,4.2385906 c -2.349605,0.1793186 -4.702682,2.7918054 -5.098332,7.1541944 0,5.23734 2.554372,7.682875 5.098332,7.682875 2.748727,0 5.493983,-3.138076 4.903978,-9.0803235 C 56.342114,5.8091744 54.179921,4.0654554 52.021199,4.2385906"
       style="fill:#ffffff;fill-opacity:1;fill-rule:nonzero;stroke:none"
       id="path6407" />
    <path
       inkscape:connector-curvature="0"
       d="m 93.796982,-18.630716 -0.197825,0 c -4.313974,-0.519406 -6.080516,8.9010049 -6.080516,17.1063774 0.197825,10.4777721 0.197825,19.3787776 6.080516,19.9043666 l 0.197825,0 c 5.094861,-0.349363 6.077045,-12.2214915 6.077045,-18.50382641 0,-12.92021559 -2.550901,-18.33069059 -6.077045,-18.50691759"
       style="fill:#ffffff;fill-opacity:1;fill-rule:nonzero;stroke:none"
       id="path6409" />
    <path
       inkscape:connector-curvature="0"
       d="m 93.796982,18.380028 -0.197825,0 c -5.882691,-0.525589 -5.882691,-9.4265945 -6.080516,-19.9043666 0,-8.2053725 1.766542,-17.6257834 6.080516,-17.1063774 l 0.197825,0 c 3.526144,0.176227 6.077045,5.586702 6.077045,18.50691759 0,6.28233491 -0.982184,18.15446341 -6.077045,18.50382641 z m 0,-47.309198 -0.39565,0 c -12.94192,1.224314 -16.66936,9.59973 -17.842428,23.9143018 C 74.9689,8.9534335 77.318506,28.152892 92.811327,27.457259 l 0.985655,0 C 106.34672,26.93167 111.44158,15.937584 111.83723,1.9723744 l 0,-4.5417077 C 111.24376,-21.598748 103.99365,-28.054218 93.796982,-28.92917"
       style="fill:#191412;fill-opacity:1;fill-rule:nonzero;stroke:none"
       id="path6411" />
    <path
       inkscape:connector-curvature="0"
       d="m 52.021199,19.07566 c -2.54396,0 -5.098332,-2.445535 -5.098332,-7.682875 0.39565,-4.362389 2.748727,-6.9748758 5.098332,-7.1541944 2.158722,-0.1731352 4.320915,1.5705838 4.903978,5.7567459 0.590005,5.9422475 -2.155251,9.0803235 -4.903978,9.0803235 z m 0,-38.581327 c 1.770014,-0.173135 3.72744,1.397448 4.320915,5.064205 0.385238,5.23734 -1.967838,8.0291453 -4.320915,8.0291453 -2.15178,0 -4.310502,-2.2662163 -4.310502,-6.8079243 0.197825,-3.839891 2.158722,-6.109199 4.310502,-6.285426 z m 8.433593,17.2856958 c 9.415776,-4.1923455 11.574498,-24.7892528 -7.649234,-27.2347878 -0.385238,0 -0.583063,0 -0.784359,0.179319 -17.255893,0.519406 -21.177687,21.1194044 -9.797543,27.0554688 -4.515269,2.44244322 -7.45835,7.1572861 -8.246179,12.0452642 l 0,4.538616 c 0.982183,6.458562 6.281811,12.394626 17.06848,13.266486 l 0.975242,0 C 63.401343,26.409173 68.29838,20.126838 69.086209,13.492049 l 0,-3.666756 C 68.496205,4.4179092 65.36224,-0.47316054 60.454792,-2.2199712"
       style="fill:#191412;fill-opacity:1;fill-rule:nonzero;stroke:none"
       id="path6413" />
  </g>
</svg>
