<?xml version="1.0" encoding="UTF-8" standalone="no"?>
<!-- Created with Inkscape (http://www.inkscape.org/) -->

<svg
   xmlns:dc="http://purl.org/dc/elements/1.1/"
   xmlns:cc="http://creativecommons.org/ns#"
   xmlns:rdf="http://www.w3.org/1999/02/22-rdf-syntax-ns#"
   xmlns:svg="http://www.w3.org/2000/svg"
   xmlns="http://www.w3.org/2000/svg"
   xmlns:sodipodi="http://sodipodi.sourceforge.net/DTD/sodipodi-0.dtd"
   xmlns:inkscape="http://www.inkscape.org/namespaces/inkscape"
   id="svg2993"
   version="1.1"
   preserveAspectRatio="xMinYMin meet"
   viewBox="0 0 145 130"
   inkscape:version="0.48.3.1 r9886"
   sodipodi:docname="cod_1.svg"
   width="100%"
   height="100%">
  <defs
     id="defs2995" />
  <sodipodi:namedview
     id="base"
     pagecolor="#ffffff"
     bordercolor="#666666"
     borderopacity="1.0"
     inkscape:pageopacity="0.0"
     inkscape:pageshadow="2"
     inkscape:zoom="2.068479"
     inkscape:cx="191.22843"
     inkscape:cy="9.5026285"
     inkscape:current-layer="layer1"
     showgrid="true"
     inkscape:document-units="px"
     inkscape:grid-bbox="true"
     inkscape:window-width="1366"
     inkscape:window-height="692"
     inkscape:window-x="0"
     inkscape:window-y="24"
     inkscape:window-maximized="1" />
  <metadata
     id="metadata2998">
    <rdf:RDF>
      <cc:Work
         rdf:about="">
        <dc:format>image/svg+xml</dc:format>
        <dc:type
           rdf:resource="http://purl.org/dc/dcmitype/StillImage" />
        <dc:title></dc:title>
      </cc:Work>
    </rdf:RDF>
  </metadata>
  <g
     id="layer1"
     inkscape:label="Layer 1"
     inkscape:groupmode="layer"
     transform="translate(0,66)">
    <path
       inkscape:connector-curvature="0"
       d="m 143.37481,59.570624 c -1.35164,2.378604 -3.77244,3.810138 -6.4793,3.810138 l -128.7904934,0 c -2.7068618,0 -5.1276617,-1.424249 -6.4782177,-3.810138 -1.35201488,-2.378604 -1.35201488,-5.238029 0,-7.616633 L 31.509554,-0.73591303 66.020073,-61.577909 c 1.355219,-2.385889 3.772443,-3.806495 6.479305,-3.806495 2.703286,0 5.124086,1.420606 6.479305,3.806495 l 64.396127,113.5319 c 1.35164,2.378604 1.35164,5.230744 0,7.616633 z M 79.5079,-61.887528 C 78.045408,-64.466474 75.424365,-66 72.499381,-66 c -2.921409,0 -5.546028,1.533526 -7.00852,4.112472 L 30.980339,-1.0455322 1.0990145,51.64073 c -1.46535267,2.578946 -1.46535267,5.66421 0,8.243156 C 2.5600763,62.455547 5.1789741,64 8.1050166,64 L 136.89551,64 c 2.92498,0 5.54602,-1.544453 7.00494,-4.123399 1.46607,-2.578946 1.46607,-5.656925 0,-8.235871 L 79.507897,-61.887528"
       style="fill:#191412;fill-opacity:1;fill-rule:nonzero;stroke:none"
       id="path1120" />
    <path
       inkscape:connector-curvature="0"
       d="m 23.095382,46.952731 49.403996,-87.101348 49.402912,87.101348 -98.806908,0 z M 76.997703,-60.408641 c -1.998858,-3.526017 -6.994213,-3.526017 -8.993072,0 C 46.53925,-22.576816 25.073157,15.280507 3.6102672,53.119617 c -1.9988584,3.518731 0.4988349,7.929894 4.4947494,7.929894 l 128.7904934,0 c 3.99414,0 6.49003,-4.411163 4.49474,-7.929894 C 119.92488,15.280507 98.459506,-22.576816 76.997703,-60.408641"
       style="fill:#c13339;fill-opacity:1;fill-rule:nonzero;stroke:none"
       id="path1122" />
    <path
       inkscape:connector-curvature="0"
       d="m 73.307506,15.160301 -6.293365,-2.192832 2.338555,7.139455 3.593654,4.578721 -0.715155,0.553672 1.258673,1.460675 5.395844,-2.935919 c 1.984556,-1.092774 3.060864,1.475244 1.441038,2.571661 l -5.756998,3.47502 c -0.89752,0.550029 -2.159769,0.743086 -3.060864,-0.360615 l -1.619826,-2.196475 -0.718728,0.542744 -1.619826,-2.192833 -1.079884,2.564376 -0.901096,-0.371543 -0.897519,2.385889 1.441037,10.989661 c 0.357578,2.385889 -3.060863,2.750147 -3.422017,0.178486 l -1.437461,-9.707473 c 0,-1.089131 0,-2.007061 0.178788,-2.742862 l 1.079884,-2.382246 -1.079884,-0.371543 1.798612,-4.02505 -4.140747,-5.314523 -3.41129,5.675138 c -1.262246,1.839503 -3.422017,0.553672 -2.520919,-1.642803 L 59.633741,9.670935 C 60.713626,7.6493037 61.972298,7.6493037 64.135642,8.3814621 L 74.390966,12.41744 c 1.977403,1.092773 0.897519,3.47502 -1.08346,2.742861 z m 5.220632,-0.185771 1.977403,2.382247 5.399421,-3.478663 c 1.441037,-1.092774 2.163344,-0.910645 3.59723,-0.367901 l 4.319536,1.650088 c 0.904672,0.55003 0.722307,0.732159 1.079885,1.282188 l 1.258672,3.118048 c 0.539942,1.646446 -1.61625,2.382246 -2.159768,0.546387 l -0.897519,-2.382247 -1.619827,-0.728516 -1.61625,4.210822 3.057288,6.225167 -0.722307,0 0.722307,1.653731 5.756998,-1.832217 c 1.441033,-0.367901 1.984553,1.832217 0.901095,2.382246 l -6.114575,2.007061 c -1.08346,0.557315 -2.163344,0.367901 -2.703286,-0.728516 l -1.437462,-3.296534 -1.444613,0.178487 -1.795039,4.950265 0.901095,8.796828 c 0.357577,1.642803 -1.98098,2.192832 -2.520922,0.360615 l -1.079884,-8.239513 c -0.182221,-0.735801 -0.182221,-1.289473 0.178789,-2.021632 l 1.441037,-3.664434 -1.441037,0.189414 2.159768,-6.775197 -1.258673,-3.482305 -2.882074,1.650088 c -0.715156,0.546387 -1.437462,0.546387 -2.338557,0 l -2.699711,-3.118048 c -0.722306,-1.650088 1.079884,-2.746504 1.98098,-1.467959 z M 87.707153,4.1669982 c 1.973828,0 3.418438,1.4679593 3.418438,3.4823055 0,0.5500294 -0.182221,1.0964163 -0.361153,1.6500883 l 0.904671,0.371543 0,-1.4716019 2.331405,1.2821878 -1.255097,0.7394431 2.156193,1.089132 c 0.182221,0.185771 0.357577,0.553672 0.182221,0.925215 0,0.182129 -0.722306,0.364257 -0.901095,0.364257 l -1.98098,-1.103701 0,1.471602 -2.334981,-1.471602 1.258673,-0.553672 -1.258673,-0.721231 c -0.539939,0.539102 -1.25867,0.910645 -2.159765,0.910645 -1.802191,0 -3.42202,-1.6500881 -3.42202,-3.4823053 0,-2.0143462 1.619826,-3.4823055 3.42202,-3.4823055 z m 13.133827,20.8829048 -6.840463,2.746505 -0.357577,-4.39295 4.680689,-1.832218 2.517351,3.478663 z m -48.044121,8.971672 -8.636584,-6.225167 4.499412,-6.589425 8.631922,6.225167 -4.49475,6.589425 z M 56.937607,0.50620639 c 2.152617,0 3.776019,1.83585981 3.776019,3.85020591 0,2.1964751 -1.623402,3.8429208 -3.776019,3.8429208 -2.163344,0 -3.779595,-1.6464457 -3.779595,-3.8429208 0,-2.0143461 1.616251,-3.85020591 3.779595,-3.85020591 z M 23.095382,46.952731 l 98.806908,0 -49.402909,-87.101348 -49.403999,87.101348"
       style="fill:#ffffff;fill-opacity:1;fill-rule:nonzero;stroke:none"
       id="path1124" />
    <path
       inkscape:connector-curvature="0"
       d="m 59.633741,9.670935 -6.475729,11.168147 c -0.901098,2.196475 1.258673,3.482306 2.520919,1.642803 l 3.41129,-5.675138 4.140747,5.314523 -1.798612,4.02505 1.079884,0.371543 -1.079884,2.382246 c -0.178788,0.735801 -0.178788,1.653731 -0.178788,2.742862 l 1.437461,9.707473 c 0.361151,2.571661 3.779595,2.207403 3.422017,-0.178486 l -1.441037,-10.989661 0.897519,-2.385889 0.901096,0.371543 1.079884,-2.564376 1.619826,2.192833 0.718728,-0.542744 1.619826,2.196475 c 0.901095,1.103701 2.163344,0.910644 3.060864,0.360615 l 5.756998,-3.47502 c 1.619826,-1.096417 0.543518,-3.664435 -1.441038,-2.571661 l -5.395844,2.935919 -1.258673,-1.460675 0.715155,-0.553672 -3.593654,-4.578721 -2.338555,-7.139455 6.293365,2.192832 c 1.980979,0.732159 3.060863,-1.650088 1.08346,-2.742861 L 64.135642,8.3814621 C 61.972298,7.6493037 60.713626,7.6493037 59.633741,9.670935"
       style="fill:#191412;fill-opacity:1;fill-rule:nonzero;stroke:none"
       id="path1126" />
    <path
       inkscape:connector-curvature="0"
       d="m 44.160275,27.796408 8.636581,6.225167 4.49475,-6.589425 -8.631922,-6.225167 -4.499409,6.589425"
       style="fill:#191412;fill-opacity:1;fill-rule:nonzero;stroke:none"
       id="path1128" />
    <path
       inkscape:connector-curvature="0"
       d="m 56.937607,8.1993331 c 2.152617,0 3.776019,-1.6464457 3.776019,-3.8429208 0,-2.0143461 -1.623402,-3.85020591 -3.776019,-3.85020591 -2.163344,0 -3.779595,1.83585981 -3.779595,3.85020591 0,2.1964751 1.616251,3.8429208 3.779595,3.8429208"
       style="fill:#191412;fill-opacity:1;fill-rule:nonzero;stroke:none"
       id="path1130" />
    <path
       inkscape:connector-curvature="0"
       d="m 79.246869,19.560537 c 0.901095,0.546387 1.623401,0.546387 2.338557,0 l 2.882072,-1.650088 1.258672,3.482305 -2.159768,6.775197 1.441038,-0.189414 -1.441038,3.664434 c -0.36115,0.732159 -0.36115,1.285831 -0.178789,2.021632 l 1.079885,8.239513 c 0.539942,1.832217 2.878499,1.282188 2.520921,-0.360615 l -0.901095,-8.796828 1.795039,-4.950265 1.444613,-0.178487 1.437462,3.296534 c 0.539942,1.096417 1.619826,1.285831 2.703286,0.728516 l 6.114575,-2.007061 c 1.083461,-0.550029 0.539941,-2.750147 -0.901095,-2.382246 l -5.756998,1.832217 -0.722307,-1.653731 0.722307,0 -3.057288,-6.225167 1.616251,-4.210822 1.619826,0.728516 0.897519,2.382247 c 0.543518,1.835859 2.699711,1.100059 2.159769,-0.546387 L 94.90161,16.442489 C 94.544032,15.89246 94.726254,15.710331 93.821726,15.160301 l -4.319537,-1.650088 c -1.433886,-0.542744 -2.156192,-0.724873 -3.59723,0.367901 l -5.39942,3.478663 -1.977404,-2.382247 c -0.901095,-1.278545 -2.703286,-0.182129 -1.98098,1.467959 l 2.699711,3.118048"
       style="fill:#191412;fill-opacity:1;fill-rule:nonzero;stroke:none"
       id="path1132" />
    <path
       inkscape:connector-curvature="0"
       d="m 94.000517,27.796408 6.840463,-2.746505 -2.517351,-3.478663 -4.680689,1.832218 0.357577,4.39295"
       style="fill:#191412;fill-opacity:1;fill-rule:nonzero;stroke:none"
       id="path1134" />
    <path
       inkscape:connector-curvature="0"
       d="m 87.707153,11.131609 c 0.901095,0 1.619826,-0.371543 2.159768,-0.910645 l 1.25867,0.721231 -1.25867,0.553672 2.334978,1.471602 0,-1.471602 1.98098,1.103701 c 0.178789,0 0.901095,-0.182128 0.901095,-0.364257 0.175356,-0.371543 0,-0.739444 -0.182221,-0.925215 l -2.156193,-1.089132 1.255097,-0.7394431 -2.331405,-1.2821878 0,1.4716019 -0.904668,-0.371543 c 0.178788,-0.553672 0.36115,-1.1000589 0.36115,-1.6500883 0,-2.0143462 -1.44461,-3.4823055 -3.418438,-3.4823055 -1.802191,0 -3.422017,1.4679593 -3.422017,3.4823055 0,1.8322172 1.619823,3.4823053 3.422017,3.4823053"
       style="fill:#191412;fill-opacity:1;fill-rule:nonzero;stroke:none"
       id="path1136" />
  </g>
</svg>
