<?xml version="1.0" encoding="UTF-8" standalone="no"?>
<!-- Created with Inkscape (http://www.inkscape.org/) -->

<svg
   xmlns:dc="http://purl.org/dc/elements/1.1/"
   xmlns:cc="http://creativecommons.org/ns#"
   xmlns:rdf="http://www.w3.org/1999/02/22-rdf-syntax-ns#"
   xmlns:svg="http://www.w3.org/2000/svg"
   xmlns="http://www.w3.org/2000/svg"
   xmlns:sodipodi="http://sodipodi.sourceforge.net/DTD/sodipodi-0.dtd"
   xmlns:inkscape="http://www.inkscape.org/namespaces/inkscape"
   id="svg2993"
   version="1.1"
   preserveAspectRatio="xMinYMin meet"
   viewBox="0 0 145 130"
   inkscape:version="0.48.3.1 r9886"
   sodipodi:docname="cod_51.svg"
   width="100%"
   height="100%">
  <defs
     id="defs2995" />
  <sodipodi:namedview
     id="base"
     pagecolor="#ffffff"
     bordercolor="#666666"
     borderopacity="1.0"
     inkscape:pageopacity="0.0"
     inkscape:pageshadow="2"
     inkscape:zoom="4.0153846"
     inkscape:cx="24.683908"
     inkscape:cy="65"
     inkscape:current-layer="layer1"
     showgrid="true"
     inkscape:document-units="px"
     inkscape:grid-bbox="true"
     inkscape:window-width="1366"
     inkscape:window-height="692"
     inkscape:window-x="0"
     inkscape:window-y="24"
     inkscape:window-maximized="1" />
  <metadata
     id="metadata2998">
    <rdf:RDF>
      <cc:Work
         rdf:about="">
        <dc:format>image/svg+xml</dc:format>
        <dc:type
           rdf:resource="http://purl.org/dc/dcmitype/StillImage" />
        <dc:title></dc:title>
      </cc:Work>
    </rdf:RDF>
  </metadata>
  <g
     id="layer1"
     inkscape:label="Layer 1"
     inkscape:groupmode="layer"
     transform="translate(0,66)">
    <path
       inkscape:connector-curvature="0"
       d="m 72.499997,63.239585 c -39.509432,0 -71.6524065,-28.81848 -71.6524065,-64.2457672 0,-35.4211048 32.1429745,-64.2395858 71.6524065,-64.2395858 39.512873,0 71.652413,28.818481 71.652413,64.2395858 0,35.4272872 -32.13954,64.2457672 -71.652413,64.2457672 z M 72.499997,-66 C 32.521979,-66 0,-36.844588 0,-1.0061822 0,34.838406 32.521979,64 72.499997,64 112.47802,64 145,34.838406 145,-1.0061822 145,-36.844588 112.47802,-66 72.499997,-66"
       style="fill:#191412;fill-opacity:1;fill-rule:nonzero;stroke:none"
       id="path1584" />
    <path
       inkscape:connector-curvature="0"
       d="m 72.499997,45.304927 c -28.528656,0 -51.654783,-20.732119 -51.654783,-46.3111092 0,-25.5728078 23.126127,-46.3049268 51.654783,-46.3049268 28.528653,0 51.654783,20.732119 51.654783,46.3049268 0,25.5789902 -23.12613,46.3111092 -51.654783,46.3111092 z m 0,-108.770211 c -38.482676,0 -69.6746953,27.96224 -69.6746953,62.4591018 0,34.4999522 31.1920193,62.4652842 69.6746953,62.4652842 38.482673,0 69.671253,-27.965332 69.671253,-62.4652842 0,-34.4968618 -31.18858,-62.4591018 -69.671253,-62.4591018"
       style="fill:#c13339;fill-opacity:1;fill-rule:nonzero;stroke:none"
       id="path1586" />
    <path
       inkscape:connector-curvature="0"
       d="m 112.416,16.535905 -32.511645,0 c -0.585733,0 -0.978519,-0.349297 -0.978519,-0.871695 l 0,-0.352388 c 0,-0.522398 0.392786,-0.868603 0.978519,-0.868603 l 32.511645,0 c 0.77179,0 1.16802,0.346205 1.16802,0.868603 l 0,0.352388 c 0,0.522398 -0.39623,0.871695 -1.16802,0.871695 z m -0.78213,4.018451 c 0,0.352387 -0.58229,0.701684 -0.97507,0.701684 l -3.50407,0 c -0.58228,-0.179285 -0.97162,-0.349297 -0.97162,-0.880969 l 0,-2.441982 5.45076,0 0,2.621267 z m -25.310568,0 c 0,0.352387 -0.585733,0.701684 -0.975073,0.701684 l -3.504063,0 c -0.578843,-0.179285 -0.971628,-0.349297 -0.971628,-0.880969 l 0,-2.441982 5.450764,0 0,2.621267 z m -12.06955,-13.4401749 -41.273523,0 0,-29.6716281 c 6.811733,-0.352388 13.823305,-0.701684 20.635038,-0.701684 6.811734,0 13.823306,0.349296 20.638485,0.701684 l 0,29.6716281 z m 0,5.0632489 -41.469916,0 0,-3.6660642 41.469916,0 0,3.6660642 z m -1.7572,8.197641 c 0,0.701684 -0.38245,0.880969 -0.968183,0.880969 l -1.750309,0 c -0.589178,0 -0.978519,-0.349297 -0.978519,-0.880969 l 0,-7.322855 3.697011,0 0,7.322855 z m -5.636822,0 c 0,0.701684 -0.392785,0.880969 -0.978519,0.880969 l -1.753754,0 c -0.775235,0 -1.16113,-0.349297 -1.16113,-0.880969 l 0,-2.791278 -6.818625,0 c -0.392785,0.874786 -1.557361,1.224082 -2.532435,1.224082 -1.164575,0 -1.950147,-0.522398 -2.532435,-1.224082 l -7.00468,0 0,2.791278 c 0,0.701684 -0.389341,0.880969 -0.971629,0.880969 l -1.757199,0 c -0.77179,0 -0.971629,-0.349297 -0.971629,-0.880969 l 0,-7.322855 3.700457,0 0,2.96129 7.00468,0 c 0.396232,-0.522399 1.36786,-1.044798 2.532435,-1.044798 1.171467,0 2.13965,0.522399 2.532435,1.2179 l 6.818625,0 0,-3.134392 3.893403,0 0,7.322855 z m -28.625129,0 c 0,0.701684 -0.389341,0.880969 -0.964737,0.880969 l -1.7572,0 c -0.585733,0 -0.975074,-0.349297 -0.975074,-0.880969 l 0,-7.322855 3.697011,0 0,7.322855 z m 42.252042,-9.245529 c -0.203284,0 -0.392786,-0.176194 -0.392786,-0.519308 l 0,-0.531672 c 0,-0.3492963 0.189502,-0.5223988 0.392786,-0.5223988 l 5.45421,0 C 85.737569,8.6813772 85.348229,8.3351722 84.572994,7.9889671 l -4.479137,0 c 0.585733,-1.2240822 1.557361,-1.749572 2.921775,-2.2719707 4.475692,-0.1700114 7.979755,-0.3523873 12.458892,-0.3523873 4.675526,0 9.144326,0.3523873 14.016256,0.5254898 1.5608,0.5223987 2.53588,1.2240822 2.92522,2.2719707 l -4.67553,0 c -0.58574,0.1731026 -0.97508,0.3492962 -1.16802,1.5671961 l 5.25437,0 c 0.19984,0 0.58918,0.1761937 0.58918,0.5254903 l 0,0.522398 c 0,0.352388 -0.38934,0.52549 -0.58918,0.52549 l -5.25437,0 c 0.19294,0.698592 0.38934,1.224082 1.16802,1.570287 l 4.67553,0 c -0.1895,0.346205 -0.38934,0.528581 -0.97508,0.698593 l -30.37199,0 c -0.582287,0 -0.975073,-0.352388 -0.975073,-0.698593 l 4.672084,0 c 0.971628,-0.173102 1.174912,-0.871695 1.174912,-1.743389 l -5.45421,0 z m 4.279298,-12.5715717 c 0.782126,-1.0478885 1.174912,-1.2178999 2.339488,-1.5671961 2.91833,-0.1731025 5.840105,-0.3492962 8.758435,-0.3492962 2.91833,0 6.036496,0.1761937 8.954826,0.3492962 1.36442,0.1700114 1.75376,0.3492962 2.33604,1.2240822 l 3.69701,6.9797413 -2.13964,-0.3492962 c -0.77869,-1.5764695 -1.94671,-3.1436656 -2.52899,-4.71395282 -0.58574,-0.69859236 -0.97508,-1.0417063 -1.94671,-1.39718468 -2.72193,0 -5.454206,-0.1761937 -7.986641,-0.1761937 -2.718492,0 -5.636822,0 -8.369095,0.1761937 -0.971628,0.1761936 -1.360969,0.52548979 -1.939811,1.39718468 L 83.59792,4.8453015 81.651218,5.0153129 C 82.626292,2.922627 83.59792,0.6568385 84.765941,-1.4420297 z M 72.499997,-47.311109 c -28.528656,0 -51.654783,20.732119 -51.654783,46.3049268 0,25.5789902 23.126127,46.3111092 51.654783,46.3111092 28.528653,0 51.654783,-20.732119 51.654783,-46.3111092 0,-25.5728078 -23.12613,-46.3049268 -51.654783,-46.3049268"
       style="fill:#ffffff;fill-opacity:1;fill-rule:nonzero;stroke:none"
       id="path1588" />
    <path
       inkscape:connector-curvature="0"
       d="m 32.783836,12.17743 41.469571,0 0,-3.6658787 -41.469571,0 0,3.6658787 z"
       style="fill:#c13339;fill-opacity:1;fill-rule:nonzero;stroke:none"
       id="path1590" />
    <path
       inkscape:connector-curvature="0"
       d="m 32.980229,-22.557447 0,29.6716281 41.273523,0 0,-29.6716281 c -6.815179,-0.352388 -13.826751,-0.701684 -20.638485,-0.701684 -6.811733,0 -13.823305,0.349296 -20.635038,0.701684"
       style="fill:#c13339;fill-opacity:1;fill-rule:nonzero;stroke:none"
       id="path1592" />
    <path
       inkscape:connector-curvature="0"
       d="m 34.53759,20.375071 c 0,0.531672 0.389341,0.880969 0.975074,0.880969 l 1.7572,0 c 0.575396,0 0.964737,-0.179285 0.964737,-0.880969 l 0,-7.322855 -3.697011,0 0,7.322855"
       style="fill:#c13339;fill-opacity:1;fill-rule:nonzero;stroke:none"
       id="path1594" />
    <path
       inkscape:connector-curvature="0"
       d="m 68.799541,20.375071 c 0,0.531672 0.389341,0.880969 0.978519,0.880969 l 1.750309,0 c 0.585733,0 0.968183,-0.179285 0.968183,-0.880969 l 0,-7.322855 -3.697011,0 0,7.322855"
       style="fill:#c13339;fill-opacity:1;fill-rule:nonzero;stroke:none"
       id="path1596" />
    <path
       inkscape:connector-curvature="0"
       d="m 62.966327,16.186608 -6.818625,0 c -0.392785,-0.695501 -1.360968,-1.2179 -2.532435,-1.2179 -1.164575,0 -2.136203,0.522399 -2.532435,1.044798 l -7.00468,0 0,-2.96129 -3.700457,0 0,7.322855 c 0,0.531672 0.199839,0.880969 0.971629,0.880969 l 1.757199,0 c 0.582288,0 0.971629,-0.179285 0.971629,-0.880969 l 0,-2.791278 7.00468,0 c 0.582288,0.701684 1.36786,1.224082 2.532435,1.224082 0.975074,0 2.13965,-0.349296 2.532435,-1.224082 l 6.818625,0 0,2.791278 c 0,0.531672 0.385895,0.880969 1.16113,0.880969 l 1.753754,0 c 0.585734,0 0.978519,-0.179285 0.978519,-0.880969 l 0,-7.322855 -3.893403,0 0,3.134392"
       style="fill:#c13339;fill-opacity:1;fill-rule:nonzero;stroke:none"
       id="path1598" />
    <path
       inkscape:connector-curvature="0"
       d="m 112.416,14.443219 -32.511645,0 c -0.585733,0 -0.978519,0.346205 -0.978519,0.868603 l 0,0.352388 c 0,0.522398 0.392786,0.871695 0.978519,0.871695 l 32.511645,0 c 0.77179,0 1.16802,-0.349297 1.16802,-0.871695 l 0,-0.352388 c 0,-0.522398 -0.39623,-0.868603 -1.16802,-0.868603"
       style="fill:#191412;fill-opacity:1;fill-rule:nonzero;stroke:none"
       id="path1600" />
    <path
       inkscape:connector-curvature="0"
       d="m 80.872538,20.375071 c 0,0.531672 0.392785,0.701684 0.971628,0.880969 l 3.504063,0 c 0.38934,0 0.975073,-0.349297 0.975073,-0.701684 l 0,-2.621267 -5.450764,0 0,2.441982"
       style="fill:#191412;fill-opacity:1;fill-rule:nonzero;stroke:none"
       id="path1602" />
    <path
       inkscape:connector-curvature="0"
       d="m 106.18311,20.375071 c 0,0.531672 0.38934,0.701684 0.97162,0.880969 l 3.50407,0 c 0.39278,0 0.97507,-0.349297 0.97507,-0.701684 l 0,-2.621267 -5.45076,0 0,2.441982"
       style="fill:#191412;fill-opacity:1;fill-rule:nonzero;stroke:none"
       id="path1604" />
    <path
       inkscape:connector-curvature="0"
       d="m 85.940853,0.13134868 c 0.578842,-0.87169489 0.968183,-1.22099108 1.939811,-1.39718468 2.732273,-0.1761937 5.650603,-0.1761937 8.369095,-0.1761937 2.532435,0 5.264711,0.1761937 7.986641,0.1761937 0.97163,0.35547838 1.36097,0.69859232 1.94671,1.39718468 0.58228,1.57028722 1.7503,3.13748332 2.52899,4.71395282 l 2.13964,0.3492962 -3.69701,-6.9797413 c -0.58228,-0.874786 -0.97162,-1.0540708 -2.33604,-1.2240822 -2.91833,-0.1731025 -6.036496,-0.3492962 -8.954826,-0.3492962 -2.91833,0 -5.840105,0.1761937 -8.758435,0.3492962 -1.164576,0.3492962 -1.557362,0.5193076 -2.339488,1.5671961 C 83.59792,0.6568385 82.626292,2.922627 81.651218,5.0153129 L 83.59792,4.8453015 85.940853,0.13134868"
       style="fill:#191412;fill-opacity:1;fill-rule:nonzero;stroke:none"
       id="path1606" />
    <path
       inkscape:connector-curvature="0"
       d="m 91.19178,9.5561632 c 0,-0.5223987 0.582287,-1.0447974 1.168021,-1.0447974 l 7.983199,0 c 0.57884,0 0.97163,0.5223987 0.97163,1.0447974 l 0,1.5733788 c 0,0.525489 -0.39279,0.871694 -0.97163,0.871694 l -7.983199,0 c -0.585734,0 -1.168021,-0.346205 -1.168021,-0.871694 l 0,-1.5733788 z m -6.425839,3.3167678 -4.672084,0 c 0,0.346205 0.392786,0.698593 0.975073,0.698593 l 30.37199,0 c 0.58574,-0.170012 0.78558,-0.352388 0.97508,-0.698593 l -4.67553,0 c -0.77868,-0.346205 -0.97508,-0.871695 -1.16802,-1.570287 l 5.25437,0 c 0.19984,0 0.58918,-0.173102 0.58918,-0.52549 l 0,-0.522398 c 0,-0.3492966 -0.38934,-0.5254903 -0.58918,-0.5254903 l -5.25437,0 c 0.19294,-1.2178999 0.58228,-1.3940935 1.16802,-1.5671961 l 4.67553,0 c -0.38934,-1.0478885 -1.36442,-1.749572 -2.92522,-2.2719707 -4.87193,-0.1731025 -9.34073,-0.5254898 -14.016256,-0.5254898 -4.479137,0 -7.9832,0.1823759 -12.458892,0.3523873 -1.364414,0.5223987 -2.336042,1.0478885 -2.921775,2.2719707 l 4.479137,0 c 0.775235,0.3462051 1.164575,0.6924101 1.367859,1.5671961 l -5.45421,0 c -0.203284,0 -0.392786,0.1731025 -0.392786,0.5223988 l 0,0.531672 c 0,0.343114 0.189502,0.519308 0.392786,0.519308 l 5.45421,0 c 0,0.871694 -0.203284,1.570287 -1.174912,1.743389"
       style="fill:#191412;fill-opacity:1;fill-rule:nonzero;stroke:none"
       id="path1608" />
    <path
       inkscape:connector-curvature="0"
       d="m 92.359801,12.001236 7.983199,0 c 0.57884,0 0.97163,-0.346205 0.97163,-0.871694 l 0,-1.5733788 c 0,-0.5223987 -0.39279,-1.0447974 -0.97163,-1.0447974 l -7.983199,0 c -0.585734,0 -1.168021,0.5223987 -1.168021,1.0447974 l 0,1.5733788 c 0,0.525489 0.582287,0.871694 1.168021,0.871694"
       style="fill:#ffffff;fill-opacity:1;fill-rule:nonzero;stroke:none"
       id="path1610" />
  </g>
</svg>
