<?xml version="1.0" encoding="UTF-8" standalone="no"?>
<!-- Created with Inkscape (http://www.inkscape.org/) -->

<svg
   xmlns:dc="http://purl.org/dc/elements/1.1/"
   xmlns:cc="http://creativecommons.org/ns#"
   xmlns:rdf="http://www.w3.org/1999/02/22-rdf-syntax-ns#"
   xmlns:svg="http://www.w3.org/2000/svg"
   xmlns="http://www.w3.org/2000/svg"
   xmlns:sodipodi="http://sodipodi.sourceforge.net/DTD/sodipodi-0.dtd"
   xmlns:inkscape="http://www.inkscape.org/namespaces/inkscape"
   id="svg2993"
   version="1.1"
   preserveAspectRatio="xMinYMin meet"
   viewBox="0 0 145 130"
   inkscape:version="0.48.3.1 r9886"
   sodipodi:docname="cod_1.svg"
   width="100%"
   height="100%">
  <defs
     id="defs2995" />
  <sodipodi:namedview
     id="base"
     pagecolor="#ffffff"
     bordercolor="#666666"
     borderopacity="1.0"
     inkscape:pageopacity="0.0"
     inkscape:pageshadow="2"
     inkscape:zoom="4.0153846"
     inkscape:cx="72.5"
     inkscape:cy="65"
     inkscape:current-layer="layer1"
     showgrid="true"
     inkscape:document-units="px"
     inkscape:grid-bbox="true"
     inkscape:window-width="1366"
     inkscape:window-height="692"
     inkscape:window-x="0"
     inkscape:window-y="24"
     inkscape:window-maximized="1" />
  <metadata
     id="metadata2998">
    <rdf:RDF>
      <cc:Work
         rdf:about="">
        <dc:format>image/svg+xml</dc:format>
        <dc:type
           rdf:resource="http://purl.org/dc/dcmitype/StillImage" />
        <dc:title></dc:title>
      </cc:Work>
    </rdf:RDF>
  </metadata>
  <g
     id="layer1"
     inkscape:label="Layer 1"
     inkscape:groupmode="layer"
     transform="translate(0,66)">
    <path
       inkscape:connector-curvature="0"
       d="m 143.37969,59.566981 c -1.35167,2.389532 -3.77966,3.813781 -6.483,3.813781 l -128.7911472,0 c -2.7069134,0 -5.1277593,-1.424249 -6.4794281,-3.810138 -1.35166873,-2.382247 -1.35166873,-5.227101 0,-7.616633 L 66.023475,-61.581552 c 1.355245,-2.385889 3.772515,-3.806494 6.479428,-3.806494 2.699762,0 5.120608,1.420605 6.475852,3.806494 L 143.37612,51.953991 c 1.35882,2.389532 1.35882,5.230744 0.004,7.61299 z M 79.50798,-61.891171 C 78.04546,-64.466475 75.427943,-66 72.502903,-66 c -2.928616,0 -5.546136,1.533525 -7.015804,4.108829 L 1.0968899,51.644372 c -1.46251988,2.578946 -1.46251988,5.660568 0,8.239514 C 2.555834,62.459189 5.1769271,64 8.1055428,64 L 136.89669,64 c 2.92504,0 5.54613,-1.540811 7.00508,-4.119757 1.46609,-2.578946 1.46252,-5.656925 0,-8.235871 L 79.507983,-61.891171"
       style="fill:#191412;fill-opacity:1;fill-rule:nonzero;stroke:none"
       id="path1344" />
    <path
       inkscape:connector-curvature="0"
       d="m 23.095478,46.95273 49.407425,-87.10499 49.403847,87.10499 -98.811272,0 z M 76.994162,-60.408642 c -1.99532,-3.533301 -6.994349,-3.533301 -8.98967,0 C 46.538705,-22.573174 25.076495,15.280506 3.6071319,53.123259 1.6118114,56.645633 4.10775,61.049511 8.1055428,61.049511 l 128.7911472,0 c 3.99779,0 6.49015,-4.403878 4.49483,-7.926252 C 119.92931,15.280506 98.459952,-22.573174 76.994162,-60.408642"
       style="fill:#c13339;fill-opacity:1;fill-rule:nonzero;stroke:none"
       id="path1346" />
    <path
       inkscape:connector-curvature="0"
       d="m 60.477342,32.772171 c 0.668683,0.171201 1.473247,0.320546 1.727132,-0.101993 l -2.6497,-1.234834 c 0.339706,0.648379 0.432678,1.085488 0.922568,1.336827"
       style="fill:#ffffff;fill-opacity:1;fill-rule:nonzero;stroke:none"
       id="path1348" />
    <path
       inkscape:connector-curvature="0"
       d="m 73.968999,3.278209 c 0.364736,-0.1784864 0.543528,-0.3606154 0.725896,-0.5427443 0.354008,-0.371543 0.178792,-1.4716019 -0.36116,-1.4716019 l -0.364736,0 c -0.354009,0.1894141 -0.539953,0.5463868 -0.718745,1.1000589 -0.178792,0.5536719 -0.178792,0.9142873 0,1.4679593 0.178792,-0.182129 0.543528,-0.3679005 0.718745,-0.553672"
       style="fill:#ffffff;fill-opacity:1;fill-rule:nonzero;stroke:none"
       id="path1350" />
    <path
       inkscape:connector-curvature="0"
       d="m 58.142316,30.022023 c 0,0.371543 0.157338,0.582813 0.207399,0.848721 -0.05006,-0.265908 -0.207399,-0.477178 -0.207399,-0.852363 l 0,0.0035"
       style="fill:#ffffff;fill-opacity:1;fill-rule:nonzero;stroke:none"
       id="path1352" />
    <path
       inkscape:connector-curvature="0"
       d="m 72.352718,0.71383336 0.182368,0 c 0.536376,0 0.715168,-0.55367195 0.185943,-0.55367195 l -0.185943,0 C 71.995133,0.3495755 71.995133,0.71383336 72.352718,0.71383336"
       style="fill:#ffffff;fill-opacity:1;fill-rule:nonzero;stroke:none"
       id="path1354" />
    <path
       inkscape:connector-curvature="0"
       d="m 73.968999,-8.2541959 c 0.364736,0 0.543528,0.1784863 0.904688,0.3606153 0.543528,-1.0964163 1.441065,-1.467959 2.342177,-1.6464453 1.072753,-0.1857719 1.973866,0.9142872 4.140827,0.9142872 1.977441,0 2.335026,1.6500881 4.308891,2.5643753 1.984593,0.7321582 2.342177,2.7537897 1.087057,4.2108212 -1.441065,1.47160188 0.357584,2.9395612 -3.246866,3.6607918 -3.411355,0.7321584 -7.191021,1.107344 -9.536774,3.1144051 l -0.718745,0.7358009 c -0.897536,4.7644934 0.178792,16.6757264 -0.346857,15.5756674 0,0.174844 -0.182368,-0.182129 -0.368311,-0.557315 -0.182368,-0.550029 -0.539953,-1.650088 -1.079905,-2.374961 -0.178792,-0.364258 -0.357584,-0.550029 -0.72232,-0.735801 0,0 0.364736,-7.143097 -0.536377,-11.7218189 C 69.295372,1.9923786 67.854307,3.4639805 65.336913,2.9175936 62.815944,2.3639217 60.10903,1.9923786 60.656134,-0.56835441 59.397437,-1.1183839 59.215069,-0.19681134 57.598788,-1.1183839 c -1.623433,-1.1000587 -0.72232,-2.5607329 0,-4.5787213 0.904689,-2.0070617 1.258697,-2.1964754 3.597299,-2.1964754 0.357584,-1.6464453 0.901112,-2.7428614 3.786818,-2.7428614 1.247969,0.182128 3.411354,0.539101 6.472276,1.4643161 0.357584,0.182129 0.72232,0.182129 1.079905,0.3642581 0.536376,0.1821291 0.89396,0.3606154 1.433913,0.5536719 z M 88.36892,33.500686 c 1.076328,2.014346 0.72232,6.043039 -0.361161,6.228811 -0.536376,0.185771 -1.079901,2.017988 -1.798646,2.753789 -0.543528,0.910645 -2.703337,1.100059 -3.236144,1.100059 -0.725893,-0.189414 -1.98459,-0.743086 -1.98459,-1.467959 0.657955,0.338759 1.430337,-0.09835 1.569795,-0.593741 -0.843902,0.491748 -2.753402,0.295049 -3.1825,-0.14206 -0.722321,-0.360615 -1.265849,-0.728516 -1.619857,-1.464317 l -6.693979,-3.118048 0.393343,0.185772 c 0,0.3679 -10.613103,0.185771 -10.977839,-0.185772 -3.236138,-0.185771 -6.475852,0 -6.475852,0 0.178792,-0.732158 0.715169,-1.282188 1.441065,-1.83586 0.354008,-1.096416 0.354008,-1.267617 1.433913,-0.356972 1.083483,0.728515 1.083483,-0.185772 1.083483,-0.910645 0,-0.921572 0.36116,-2.017989 0.36116,-2.393174 0.05721,-0.171202 0.05006,-0.305977 0.02861,-0.429825 l -4.169433,-1.941494 0.36116,-0.550029 3.600874,1.635518 c 0,-0.688448 0.178792,-0.367901 0.657955,0.302333 l 18.919787,8.603772 c 0.08582,0.02914 0.178792,0.07286 0.207399,0.08014 0.132306,0.08378 0.286068,0.142061 0.414798,0.167558 0.08224,-0.01457 0.303947,-0.08377 0.36116,-0.167558 -0.02861,-0.051 -0.09297,-0.105635 -0.193095,-0.163917 -0.02146,-0.0072 -0.0143,-0.01107 -0.03933,-0.01836 C 77.75582,38.44352 55.62135,28.379075 55.62135,28.379075 c 0,0 -1.237242,-0.342402 -1.659192,-0.116563 -0.03218,0.04371 -0.09655,0.04371 -0.114427,0.09835 -0.03218,0.051 -0.04649,0.11292 -0.02489,0.196699 0,0 -0.139458,-0.302334 -0.175217,-0.633809 0,-0.01107 0,-0.02914 -0.0034,-0.04371 -0.01802,-0.378828 0.139458,-0.79044 0.897534,-0.79044 0.100124,0 0.332554,0.07286 0.632925,0.174845 0.03218,0.01078 0.05006,0 0.08224,0.01457 l 0.271764,0.120205 c 1.330217,0.506319 3.826152,1.620947 6.740467,2.986915 -1.08348,-0.932501 -3.232565,-3.660792 -2.871402,-4.753565 -0.182368,-0.735802 0,-1.285831 0.36116,-1.46796 0.536377,0.732158 1.437489,1.46796 2.338602,1.65373 2.338602,0.721231 2.338602,1.635518 2.517394,-0.743085 0.182368,-2.378605 0.547104,0.371543 1.616281,1.832217 0,0.728515 0.364736,1.832217 0.901112,2.564375 0.368312,-0.732158 -0.168064,-1.467959 0.178793,-2.192832 0.189519,-0.55003 0.725896,-0.914287 0.725896,-2.568018 0,-1.467959 -0.536377,-1.467959 0.722317,-1.282188 0.536377,-0.91793 -0.364733,-2.017989 0.34686,-2.374962 0.368309,0 0.908264,0 0.729472,-0.739443 0,-0.371544 0.897537,0 0.536376,-0.914287 -0.357584,-0.91793 0,-1.096416 -0.175216,-1.832217 -0.543528,-0.732159 0.536377,0.185771 0.901113,0.735801 0.357584,0.724872 0.715168,0.724872 0.897533,1.824931 0.182368,0.550029 0.539953,1.650088 0.908267,1.471602 0.711593,0 0.525649,0 1.065602,-0.735801 0.725896,0.546387 -0.354009,1.471602 0.543528,2.564376 0.904685,1.092773 0.36116,1.467959 1.26227,2.017989 0.357584,-0.55003 0.182368,-0.735801 0.893961,-0.735801 0,0 -0.536377,0.921573 0,2.196475 0.547104,1.278545 -0.354009,2.021631 0.725896,1.832217 0,1.100058 0.715168,2.560733 1.258697,2.560733 0.536376,0 1.262272,-2.371319 1.798649,-3.664435 0.175216,-1.271259 -0.178792,-2.739219 -1.262273,-4.392949 0,-0.546388 -0.357584,-1.282188 -0.357584,-1.464318 0.357584,-0.178486 0.897536,0.18213 1.981017,0.91793 1.973865,1.824932 2.520969,2.014347 2.878554,0.91793 0.357584,-0.728516 0.178792,0.360616 0.539952,2.01799 0.357584,1.45703 0.72232,1.646445 1.433913,2.189189 0.722321,0.735801 0.91184,0.557315 1.087057,-0.367901 0.718744,0.182129 0.897536,1.475245 0.718744,2.761075 -0.178792,1.085489 0.536377,2.557091 0.897537,3.285607 z m -65.273442,13.452044 98.811272,0 -49.403847,-87.10499 -49.407425,87.10499"
       style="fill:#ffffff;fill-opacity:1;fill-rule:nonzero;stroke:none"
       id="path1356" />
    <path
       inkscape:connector-curvature="0"
       d="m 70.732861,3.0997226 c 0.178792,0.5500294 0.364736,0.9142873 0.72232,0.9142873 0.357584,-0.1821289 0.897537,-1.2785452 0.539952,-2.0216313 -0.182368,0.1894141 -0.36116,0.1894141 -0.539952,0.3715431 -0.357584,0.1784863 -0.72232,0.371543 -0.72232,0.7358009"
       style="fill:#ffffff;fill-opacity:1;fill-rule:nonzero;stroke:none"
       id="path1358" />
    <path
       inkscape:connector-curvature="0"
       d="m 86.752639,27.454005 c -0.175217,0.925216 -0.364737,1.103702 -1.087057,0.367901 -0.711593,-0.542744 -1.076329,-0.732159 -1.433913,-2.18919 -0.36116,-1.657373 -0.182368,-2.746505 -0.539952,-2.017989 -0.357585,1.096417 -0.904692,0.907002 -2.878557,-0.91793 -1.083481,-0.735801 -1.623433,-1.096416 -1.981017,-0.91793 0,0.182129 0.357584,0.91793 0.357584,1.464317 1.083483,1.653731 1.437489,3.121691 1.262276,4.39295 -0.536377,1.293116 -1.262276,3.664435 -1.798652,3.664435 -0.543529,0 -1.258697,-1.460675 -1.258697,-2.560734 -1.079902,0.189415 -0.178792,-0.553671 -0.725896,-1.832217 -0.536377,-1.274902 0,-2.196474 0,-2.196474 -0.711588,0 -0.536377,0.185771 -0.893961,0.735801 -0.901113,-0.55003 -0.357585,-0.925216 -1.26227,-2.017989 -0.897537,-1.092774 0.182368,-2.017989 -0.543528,-2.564376 -0.539953,0.735801 -0.354009,0.735801 -1.065602,0.735801 -0.368311,0.178486 -0.725896,-0.921573 -0.908267,-1.471602 -0.182368,-1.100059 -0.539952,-1.100059 -0.897536,-1.824932 -0.364733,-0.550029 -1.444641,-1.467959 -0.90111,-0.735801 0.175216,0.735801 -0.182368,0.914288 0.175216,1.832217 0.361161,0.914288 -0.536376,0.542744 -0.536376,0.914288 0.178792,0.739443 -0.36116,0.739443 -0.729472,0.739443 -0.711596,0.356973 0.18952,1.457032 -0.34686,2.374962 -1.258697,-0.185772 -0.72232,-0.185772 -0.72232,1.282188 0,1.653731 -0.536377,2.017988 -0.725893,2.568018 -0.34686,0.724872 0.189519,1.460673 -0.178793,2.192832 -0.536376,-0.732159 -0.901112,-1.83586 -0.901112,-2.564376 -1.069177,-1.460673 -1.433913,-4.210821 -1.616281,-1.832217 -0.178792,2.378604 -0.178792,1.464317 -2.517394,0.743086 -0.901112,-0.185771 -1.802225,-0.921572 -2.338601,-1.65373 -0.361161,0.182129 -0.543529,0.732158 -0.361161,1.467959 -0.36116,1.092774 1.787922,3.821065 2.8714,4.753566 7.187448,3.347529 16.745677,8.057384 16.745677,8.057384 -0.182368,-1.092774 -0.182368,-2.185547 0.36116,-2.928634 1.795073,-2.014346 2.338598,-4.025049 3.057343,-5.675138 0.901112,0.91793 1.616281,2.378605 2.156233,4.210822 0.722321,1.832217 0.175217,6.414582 -1.616281,6.414582 -0.0034,-0.02535 -0.03218,-0.051 -0.03933,-0.07286 0.02146,0.200342 0.06437,0.375186 0.03933,0.626524 -0.03576,0.218554 -0.203823,0.378828 -0.414795,0.502675 -0.139458,0.495391 -0.911843,0.932501 -1.569792,0.593741 0,0.724874 1.258694,1.278545 1.98459,1.467959 0.532801,0 2.69261,-0.189414 3.236138,-1.100059 0.718745,-0.735801 1.262273,-2.568018 1.798649,-2.753789 1.083481,-0.185772 1.437489,-4.214464 0.361161,-6.228811 -0.361161,-0.728515 -1.076329,-2.200117 -0.897537,-3.285606 0.178792,-1.28583 0,-2.578945 -0.718744,-2.761074"
       style="fill:#c13339;fill-opacity:1;fill-rule:nonzero;stroke:none"
       id="path1360" />
    <path
       inkscape:connector-curvature="0"
       d="m 78.51032,38.837064 c 0.100123,0.05828 0.164489,0.11292 0.193095,0.163916 0.03576,-0.051 0,-0.112919 -0.193095,-0.163916"
       style="fill:#df2924;fill-opacity:1;fill-rule:nonzero;stroke:none"
       id="path1362" />
    <path
       inkscape:connector-curvature="0"
       d="m 78.342255,39.168539 c -0.12873,-0.02565 -0.282492,-0.08378 -0.414798,-0.167559 -0.02861,-0.0072 -0.121578,-0.051 -0.207399,-0.08013 l 0.568559,0.262265 0.05364,-0.01457"
       style="fill:#df2924;fill-opacity:1;fill-rule:nonzero;stroke:none"
       id="path1364" />
    <path
       inkscape:connector-curvature="0"
       d="m 55.256611,27.279162 c -0.03218,-0.01457 -0.05006,-0.0035 -0.08225,-0.01457 0.09297,0.03279 0.23243,0.09106 0.354009,0.134774 l -0.271764,-0.120204"
       style="fill:#df2924;fill-opacity:1;fill-rule:nonzero;stroke:none"
       id="path1366" />
    <path
       inkscape:connector-curvature="0"
       d="m 80.52352,38.363529 c 1.069177,0.06557 2.27066,0.506319 2.410118,2.028917 0.0072,0.02186 0.03576,0.04736 0.03933,0.07285 1.791498,0 2.338602,-4.582364 1.616281,-6.414581 -0.539952,-1.832217 -1.255121,-3.292892 -2.156233,-4.210822 -0.718748,1.650088 -1.262273,3.660792 -3.057349,5.675138 -0.543528,0.743087 -0.543528,1.83586 -0.36116,2.928634 0,0 0.50777,-0.09471 1.147845,-0.09835 0.118003,0 0.23243,0.0072 0.361161,0.01836"
       style="fill:#ecee23;fill-opacity:1;fill-rule:nonzero;stroke:none"
       id="path1368" />
    <path
       inkscape:connector-curvature="0"
       d="m 58.142316,30.018381 0,-0.0038 -3.600874,-1.635518 -0.361163,0.550029 4.169433,1.941494 c -0.05006,-0.265908 -0.207398,-0.477178 -0.207398,-0.848721 l 0,-0.0035"
       style="fill:#191412;fill-opacity:1;fill-rule:nonzero;stroke:none"
       id="path1370" />
    <path
       inkscape:connector-curvature="0"
       d="m 82.972972,41.01897 c 0.02489,-0.251339 -0.01802,-0.426182 -0.03933,-0.626524 -0.139458,-1.522598 -1.340941,-1.96335 -2.410118,-2.028917 -0.128731,-0.01078 -0.243158,-0.01836 -0.361161,-0.01836 -0.640076,0.0038 -1.147845,0.09835 -1.147845,0.09835 0,0 -9.558229,-4.709854 -16.745674,-8.057384 C 59.354531,29.020168 56.858593,27.90554 55.528379,27.399221 55.4068,27.35551 55.267342,27.297229 55.17437,27.264446 54.874,27.162453 54.64157,27.089601 54.541446,27.089601 c -0.758079,0 -0.915416,0.411612 -0.897536,0.79044 0.0034,0.01457 0.0034,0.03278 0.0034,0.04371 0.03576,0.331475 0.175217,0.63381 0.175217,0.63381 -0.02146,-0.08378 -0.0072,-0.145703 0.02489,-0.1967 0.01802,-0.05464 0.08224,-0.05464 0.114427,-0.09835 0.421949,-0.22584 1.659191,0.116562 1.659191,0.116562 0,0 22.13447,10.064445 22.849638,10.439631 0.02489,0.0072 0.01774,0.01108 0.03934,0.01836 0.193095,0.051 0.228854,0.11292 0.193095,0.163916 -0.05721,0.08378 -0.278916,0.152988 -0.36116,0.167559 l -0.05364,0.01457 -0.568559,-0.262266 -18.919787,-8.603771 c 0.02146,0.02535 0.03218,0.04736 0.05721,0.0765 0.343281,0.407969 0.539952,0.739444 0.697289,1.041779 l 2.649984,1.234833 c 0.01802,-0.02914 0.06079,-0.04007 0.07509,-0.08013 l 8.782268,4.207179 6.693979,3.118047 c 0.354009,0.735801 0.897537,1.103702 1.619857,1.464317 0.429101,0.437109 2.338602,0.633809 3.182503,0.14206 0.210975,-0.123847 0.379037,-0.284121 0.414795,-0.502675"
       style="fill:#191412;fill-opacity:1;fill-rule:nonzero;stroke:none"
       id="path1372" />
    <path
       inkscape:connector-curvature="0"
       d="m 62.204474,32.670178 c -0.253885,0.422539 -1.058449,0.273194 -1.727132,0.101993 -0.48989,-0.251339 -0.582862,-0.688448 -0.922568,-1.336827 -0.157337,-0.302334 -0.354008,-0.633809 -0.697289,-1.041778 -0.02489,-0.02914 -0.03576,-0.051 -0.05721,-0.0765 -0.479163,-0.670235 -0.657956,-0.990782 -0.657956,-0.302334 l 0,0.0038 c 0,0.375186 0.157338,0.586455 0.207399,0.852364 0.02145,0.123848 0.02861,0.258623 -0.02861,0.429824 0,0.375186 -0.361161,1.471602 -0.361161,2.393175 0,0.724872 0,1.63916 -1.08348,0.910644 -1.079902,-0.910644 -1.079902,-0.739443 -1.43391,0.356973 -0.725902,0.553672 -1.262279,1.103702 -1.441071,1.83586 0,0 3.239714,-0.185772 6.475855,0 0.364736,0.371543 10.977836,0.553672 10.977836,0.185771 l -0.393342,-0.185771 -8.782268,-4.207179 c -0.0143,0.04007 -0.05721,0.051 -0.07509,0.08014"
       style="fill:#c13339;fill-opacity:1;fill-rule:nonzero;stroke:none"
       id="path1374" />
    <path
       inkscape:connector-curvature="0"
       d="m 71.455181,4.0140099 c -0.357584,0 -0.543528,-0.3642579 -0.72232,-0.9142873 0,-0.3642579 0.364736,-0.5573146 0.72232,-0.7358009 0.178792,-0.182129 0.357584,-0.182129 0.539952,-0.3715431 0.357585,0.7430861 -0.182368,1.8395024 -0.539952,2.0216313 z m 1.079905,-3.85384849 0.185943,0 c 0.529225,0 0.350433,0.55367195 -0.185943,0.55367195 l -0.182368,0 c -0.357585,0 -0.357585,-0.36425786 0.182368,-0.55367195 z M 73.250254,2.3639217 C 73.429046,1.8102496 73.61499,1.4532769 73.968999,1.2638628 l 0.364736,0 c 0.539952,0 0.715168,1.1000589 0.36116,1.4716019 -0.182368,0.1821289 -0.36116,0.3642579 -0.725896,0.5427443 -0.175217,0.1857715 -0.539953,0.371543 -0.718745,0.553672 -0.178792,-0.553672 -0.178792,-0.9142874 0,-1.4679593 z M 64.982905,-10.636442 c -2.885706,0 -3.429234,1.0964161 -3.786818,2.7428614 -2.338602,0 -2.69261,0.1894137 -3.597299,2.1964754 -0.72232,2.0179884 -1.623433,3.4786626 0,4.5787213 1.616281,0.92157256 1.798649,0 3.057346,0.55002949 -0.547104,2.56073301 2.15981,2.93227611 4.680779,3.48594801 2.517394,0.5463869 3.958459,-0.925215 4.859571,2.9286335 0.901113,4.5787219 0.536377,11.7218189 0.536377,11.7218189 0.364736,0.185772 0.543528,0.371543 0.72232,0.735801 0.539952,0.724873 0.897537,1.824932 1.079905,2.374961 0.185943,0.375186 0.368311,0.732159 0.368311,0.557315 0.525649,1.100059 -0.550679,-10.811174 0.346857,-15.5756674 l 0.718745,-0.7358009 c 2.345753,-2.0070611 6.125419,-2.3822467 9.536774,-3.1144051 3.60445,-0.7212306 1.805801,-2.18918992 3.246866,-3.6607918 1.25512,-1.4570315 0.897536,-3.478663 -1.087057,-4.2108212 -1.973865,-0.9142872 -2.33145,-2.5643753 -4.308891,-2.5643753 -2.166958,0 -3.068074,-1.1000591 -4.140827,-0.9142872 -0.901109,0.1784863 -1.798646,0.550029 -2.342177,1.6464453 -0.36116,-0.182129 -0.539952,-0.3606153 -0.904685,-0.3606153 -0.539953,-0.1930565 -0.897537,-0.3715428 -1.433914,-0.5536719 -0.357584,-0.1821291 -0.72232,-0.1821291 -1.079904,-0.3642581 -3.060922,-0.9252151 -5.224307,-1.2821881 -6.472277,-1.4643161"
       style="fill:#191412;fill-opacity:1;fill-rule:nonzero;stroke:none"
       id="path1376" />
  </g>
</svg>
