<?xml version="1.0" encoding="UTF-8" standalone="no"?>
<!-- Created with Inkscape (http://www.inkscape.org/) -->

<svg
   xmlns:dc="http://purl.org/dc/elements/1.1/"
   xmlns:cc="http://creativecommons.org/ns#"
   xmlns:rdf="http://www.w3.org/1999/02/22-rdf-syntax-ns#"
   xmlns:svg="http://www.w3.org/2000/svg"
   xmlns="http://www.w3.org/2000/svg"
   xmlns:sodipodi="http://sodipodi.sourceforge.net/DTD/sodipodi-0.dtd"
   xmlns:inkscape="http://www.inkscape.org/namespaces/inkscape"
   id="svg2993"
   version="1.1"
   preserveAspectRatio="xMinYMin meet"
   viewBox="0 0 145 130"
   inkscape:version="0.48.3.1 r9886"
   sodipodi:docname="cod_1.svg"
   width="100%"
   height="100%">
  <defs
     id="defs2995" />
  <sodipodi:namedview
     id="base"
     pagecolor="#ffffff"
     bordercolor="#666666"
     borderopacity="1.0"
     inkscape:pageopacity="0.0"
     inkscape:pageshadow="2"
     inkscape:zoom="7.7781746"
     inkscape:cx="77.815647"
     inkscape:cy="14.722397"
     inkscape:current-layer="layer1"
     showgrid="true"
     inkscape:document-units="px"
     inkscape:grid-bbox="true"
     inkscape:window-width="1366"
     inkscape:window-height="692"
     inkscape:window-x="0"
     inkscape:window-y="24"
     inkscape:window-maximized="1" />
  <metadata
     id="metadata2998">
    <rdf:RDF>
      <cc:Work
         rdf:about="">
        <dc:format>image/svg+xml</dc:format>
        <dc:type
           rdf:resource="http://purl.org/dc/dcmitype/StillImage" />
        <dc:title></dc:title>
      </cc:Work>
    </rdf:RDF>
  </metadata>
  <g
     id="layer1"
     inkscape:label="Layer 1"
     inkscape:groupmode="layer"
     transform="translate(0,66)">
    <path
       inkscape:connector-curvature="0"
       d="M 125.65657,37.431656 103.11602,5.4998807 86.004592,30.819909 79.045838,21.273673 94.062098,-1.1118666 78.614955,-23.30714 l 6.549416,-8.971779 17.806229,25.0309703 21.84575,-32.1183823 10.71282,3.589443 -23.93553,34.6650214 24.63032,34.7638136 -10.56739,3.779709 z M 76.255873,-19.626223 89.19851,-1.2069997 76.675983,18.251369 63.183971,-1.2069997 76.255873,-19.626223 z M 94.762282,50.084353 84.049462,53.673796 52.600416,8.7124507 21.986205,53.955535 10.99331,50.183145 45.647047,-1.0130746 10.023824,-51.645813 20.45657,-55.044991 52.600416,-10.650785 82.65448,-55.425523 93.512722,-51.645813 59.004409,-1.0130746 94.762282,50.084353 z m 20.520788,-51.1852428 26.17612,-38.3642332 -5.22445,-7.866772 -12.21553,2.151471 -21.40409,31.602468 -15.991134,-22.272111 13.351976,-19.835242 -5.940794,-8.218032 -11.59613,2.528343 L 51.803283,-16.60026 20.171111,-61.228639 7.9555878,-63.383768 2.7095916,-55.176713 41.12278,-1.3204276 3.8460446,54.204346 9.786839,62.126002 22.093925,59.967213 51.99718,14.972938 82.837605,59.228102 95.424764,61.712538 101.34401,53.673796 87.167975,34.434965 102.79286,11.540829 l 22.61595,31.730533 11.69308,2.447847 5.46143,-8.269258 -27.28025,-38.5508408"
       style="fill:#c13339;fill-opacity:1;fill-rule:nonzero;stroke:none"
       id="path866-5" />
    <path
       inkscape:connector-curvature="0"
       d="m 138.16832,47.307199 -14.12218,-2.949125 -20.96244,-29.396113 -0.25853,-0.358578 -0.24775,0.362236 -13.217329,19.363236 -0.05925,0.0805 0.05925,0.08049 14.138339,19.183947 -7.066478,9.601121 L 81.45878,60.314815 52.304184,18.452612 52.045654,18.086716 51.803283,18.456271 23.456592,61.075879 8.7742648,63.659108 1.7024034,54.237276 38.941436,-1.2216356 l 0.05386,-0.084156 -0.05925,-0.076838 -38.34316535,-53.7648111 6.25318435,-9.780411 14.67694,2.57957 29.989432,42.33055 0.263916,0.365897 0.242371,-0.365897 29.025332,-42.429342 13.987528,-3.044257 7.077246,9.780409 -13.303501,19.758403 -0.05386,0.08416 0.05386,0.08049 13.508171,18.796097 0.25314,0.362237 0.24776,-0.365897 19.83676,-29.297322 14.67155,-2.579569 6.25858,9.410855 -26.11149,38.2727591 -0.0593,0.080497 0.0593,0.076838 27.21024,38.4630254 -6.51172,9.875543 z m -20.13838,-48.4227246 26.10611,-38.2691004 0.0539,-0.07683 -0.0485,-0.07683 -6.40938,-9.634052 -0.0969,-0.1427 -0.22621,0.04025 -15.02703,2.638112 -0.12388,0.02547 -0.0593,0.08416 -19.64286,29.011922 -13.190393,-18.35702 13.303503,-19.758404 0.0592,-0.08416 -0.0592,-0.08035 -7.244216,-10.007266 -0.102335,-0.150017 -0.231599,0.05488 -14.332234,3.113779 -0.118493,0.02195 -0.04847,0.08049 -28.826048,42.143943 -29.800921,-42.048809 -0.05925,-0.0805 -0.123879,-0.02195 -15.0270326,-2.64909 -0.2315994,-0.04025 -0.091563,0.146358 -6.40399331,10.014583 -0.0484743,0.0805 0.05386033,0.08049 L 38.381289,-1.2984738 1.142256,54.167756 l -0.05386,0.0805 0.059246,0.08049 7.2334424,9.634051 0.1077207,0.139041 0.2100552,-0.04025 15.0324187,-2.641772 0.129265,-0.02547 0.05386,-0.08416 28.142022,-42.319573 28.955314,41.565827 0.05386,0.0805 0.118493,0.02195 15.312492,3.022304 0.226213,0.04757 0.102335,-0.1427 7.233437,-9.827975 0.0646,-0.08416 -0.0646,-0.08415 -14.143718,-19.187606 12.921098,-18.9205 20.75777,29.114373 0.0539,0.07683 0.11849,0.01844 14.47227,3.025963 0.22621,0.04757 0.10772,-0.153676 6.6733,-10.106058 0.0539,-0.08049 -0.0539,-0.07713 -27.21563,-38.4630256"
       style="fill:#191412;fill-opacity:1;fill-rule:nonzero;stroke:none"
       id="path868-0" />
    <path
       inkscape:connector-curvature="0"
       d="M 93.512722,-51.645813 82.65448,-55.425523 52.600416,-10.650785 20.45657,-55.044991 10.023824,-51.645813 45.647047,-1.0130746 10.99331,50.183145 21.986205,53.955535 52.600416,8.7124507 84.049462,53.673796 94.762282,50.084353 59.004409,-1.0130746 93.512722,-51.645813"
       style="fill:#ffffff;fill-opacity:1;fill-rule:nonzero;stroke:none"
       id="path870-7" />
    <path
       inkscape:connector-curvature="0"
       d="M 135.52917,-35.776888 124.81635,-39.366331 102.9706,-7.2479487 85.164371,-32.278919 78.614955,-23.30714 94.062098,-1.1118666 79.045838,21.273673 86.004592,30.819909 103.11602,5.4998807 125.65657,37.431656 136.22396,33.651947 111.59364,-1.1118666 135.52917,-35.776888"
       style="fill:#ffffff;fill-opacity:1;fill-rule:nonzero;stroke:none"
       id="path872-7" />
    <path
       inkscape:connector-curvature="0"
       d="m 76.282803,15.499828 -11.272967,-16.6263305 -0.04848,-0.080497 0.04848,-0.084156 10.858242,-15.4847341 0.247758,-0.358578 0.258529,0.358578 10.707434,15.39326 0.05386,0.076838 -0.04847,0.080497 L 76.78909,15.496169 76.541332,15.891337 76.282803,15.499828 z M 89.19851,-1.2069997 76.255873,-19.626223 63.183971,-1.2069997 76.675983,18.251369 89.19851,-1.2069997"
       style="fill:#ffffff;fill-opacity:1;fill-rule:nonzero;stroke:none"
       id="path874-0" />
    <path
       inkscape:connector-curvature="0"
       d="M 76.519788,14.950984 86.521651,-1.2948148 76.115836,-16.252658 65.569983,-1.2069997 76.519788,14.950984"
       style="fill:#ffffff;fill-opacity:1;fill-rule:nonzero;stroke:none"
       id="path876-8" />
    <path
       inkscape:connector-curvature="0"
       d="M 86.521651,-1.2948148 76.519788,14.950984 65.569983,-1.2069997 76.115836,-16.252658 86.521651,-1.2948148 z m 0.565534,0.06952 0.04847,-0.080497 -0.05386,-0.076838 -10.707434,-15.39326 -0.258529,-0.358578 -0.247758,0.358578 -10.858242,15.4847341 -0.04848,0.084156 0.04848,0.080497 11.272967,16.6263305 0.258529,0.391509 0.247758,-0.395168 10.298095,-16.7214635"
       style="fill:#191412;fill-opacity:1;fill-rule:nonzero;stroke:none"
       id="path878-8" />
  </g>
</svg>
