<?xml version="1.0" encoding="UTF-8" standalone="no"?>
<!-- Created with Inkscape (http://www.inkscape.org/) -->

<svg
   xmlns:dc="http://purl.org/dc/elements/1.1/"
   xmlns:cc="http://creativecommons.org/ns#"
   xmlns:rdf="http://www.w3.org/1999/02/22-rdf-syntax-ns#"
   xmlns:svg="http://www.w3.org/2000/svg"
   xmlns="http://www.w3.org/2000/svg"
   xmlns:sodipodi="http://sodipodi.sourceforge.net/DTD/sodipodi-0.dtd"
   xmlns:inkscape="http://www.inkscape.org/namespaces/inkscape"
   id="svg2993"
   version="1.1"
   preserveAspectRatio="xMinYMin meet"
   viewBox="0 0 145 130"
   inkscape:version="0.48.3.1 r9886"
   sodipodi:docname="cod_51.svg"
   width="100%"
   height="100%">
  <defs
     id="defs2995" />
  <sodipodi:namedview
     id="base"
     pagecolor="#ffffff"
     bordercolor="#666666"
     borderopacity="1.0"
     inkscape:pageopacity="0.0"
     inkscape:pageshadow="2"
     inkscape:zoom="4.0153846"
     inkscape:cx="24.683908"
     inkscape:cy="65"
     inkscape:current-layer="layer1"
     showgrid="true"
     inkscape:document-units="px"
     inkscape:grid-bbox="true"
     inkscape:window-width="1366"
     inkscape:window-height="692"
     inkscape:window-x="0"
     inkscape:window-y="24"
     inkscape:window-maximized="1" />
  <metadata
     id="metadata2998">
    <rdf:RDF>
      <cc:Work
         rdf:about="">
        <dc:format>image/svg+xml</dc:format>
        <dc:type
           rdf:resource="http://purl.org/dc/dcmitype/StillImage" />
        <dc:title></dc:title>
      </cc:Work>
    </rdf:RDF>
  </metadata>
  <g
     id="layer1"
     inkscape:label="Layer 1"
     inkscape:groupmode="layer"
     transform="translate(0,66)">
    <path
       inkscape:connector-curvature="0"
       d="m 72.501723,63.239585 c -39.510373,0 -71.6575579,-28.81848 -71.6575579,-64.2457672 0,-35.4211048 32.1471849,-64.2395858 71.6575579,-64.2395858 39.510377,0 71.654107,28.818481 71.654107,64.2395858 0,35.4272872 -32.14373,64.2457672 -71.654107,64.2457672 z M 72.501723,-66 C 32.522753,-66 0,-36.844588 0,-1.0061822 0,34.838406 32.522753,64 72.501723,64 112.47725,64 145,34.838406 145,-1.0061822 145,-36.844588 112.47725,-66 72.501723,-66"
       style="fill:#191412;fill-opacity:1;fill-rule:nonzero;stroke:none"
       id="path1628" />
    <path
       inkscape:connector-curvature="0"
       d="m 72.501723,45.304927 c -28.536226,0 -51.662904,-20.732119 -51.662904,-46.3111092 0,-25.5728078 23.126678,-46.3049268 51.662904,-46.3049268 28.529337,0 51.656017,20.732119 51.656017,46.3049268 0,25.5789902 -23.12668,46.3111092 -51.656017,46.3111092 z m 0,-108.770211 c -38.480147,0 -69.6797997,27.96224 -69.6797997,62.4591018 0,34.4999522 31.1996527,62.4652842 69.6797997,62.4652842 38.480147,0 69.672907,-27.965332 69.672907,-62.4652842 0,-34.4968618 -31.19276,-62.4591018 -69.672907,-62.4591018"
       style="fill:#c13339;fill-opacity:1;fill-rule:nonzero;stroke:none"
       id="path1630" />
    <path
       inkscape:connector-curvature="0"
       d="m 95.697312,-2.5702872 c 0,3.1343922 -6.618943,3.1343922 -6.618943,0 l 0,-5.5887389 -6.036642,-3.8391669 -2.136254,5.4125453 c 5.058099,11.690603 9.147993,22.5126027 14.01314,34.3793987 2.143146,5.59183 -5.450894,8.210006 -8.365848,2.800552 L 74.090131,1.0957771 C 68.446285,11.392286 63.577692,20.990204 58.123351,30.937417 54.815602,36.173768 47.02861,32.16459 49.947009,27.09825 L 68.05349,-5.7139528 66.492645,-10.601008 56.176603,-1.1731025 C 53.061806,1.438891 48.386165,-2.9226745 51.504408,-5.7139528 L 69.218093,-24.041183 c 1.950193,-1.220991 2.725447,-1.570287 4.872038,-2.441982 2.139701,-1.05098 2.525605,-1.05098 4.66875,0.698592 l 15.96678,14.484972 c 0.582302,0.522399 0.778699,0.346206 0.971651,1.5671966 l 0,7.1621172 z M 69.800394,-39.051645 c 3.314641,0 6.033197,2.441982 6.033197,5.412545 0,2.967472 -2.718556,5.409454 -6.033197,5.409454 -3.307749,0 -6.033196,-2.441982 -6.033196,-5.409454 0,-2.970563 2.725447,-5.412545 6.033196,-5.412545 z m 2.701329,-8.259464 c -28.536226,0 -51.662904,20.732119 -51.662904,46.3049268 0,25.5789902 23.126678,46.3111092 51.662904,46.3111092 28.529337,0 51.656017,-20.732119 51.656017,-46.3111092 0,-25.5728078 -23.12668,-46.3049268 -51.656017,-46.3049268"
       style="fill:#ffffff;fill-opacity:1;fill-rule:nonzero;stroke:none"
       id="path1632" />
    <path
       inkscape:connector-curvature="0"
       d="m 94.725661,-11.299601 -15.96678,-14.484972 c -2.143145,-1.749572 -2.529049,-1.749572 -4.66875,-0.698592 -2.146591,0.871695 -2.921845,1.220991 -4.872038,2.441982 L 51.504408,-5.7139528 c -3.118243,2.7912783 1.557398,7.1528438 4.672195,4.5408503 L 66.492645,-10.601008 68.05349,-5.7139528 49.947009,27.09825 c -2.918399,5.06634 4.868593,9.075518 8.176342,3.839167 5.454341,-9.947213 10.322934,-19.545131 15.96678,-29.8416399 L 86.552765,30.594303 c 2.914954,5.409454 10.508994,2.791278 8.365848,-2.800552 C 90.053466,15.926955 85.963572,5.1049553 80.905473,-6.5856477 l 2.136254,-5.4125453 6.036642,3.8391669 0,5.5887389 c 0,3.1343922 6.618943,3.1343922 6.618943,0 l 0,-7.1621172 C 95.50436,-10.953395 95.307963,-10.777202 94.725661,-11.299601"
       style="fill:#191412;fill-opacity:1;fill-rule:nonzero;stroke:none"
       id="path1634" />
    <path
       inkscape:connector-curvature="0"
       d="m 69.800394,-28.229646 c 3.314641,0 6.033197,-2.441982 6.033197,-5.409454 0,-2.970563 -2.718556,-5.412545 -6.033197,-5.412545 -3.307749,0 -6.033196,2.441982 -6.033196,5.412545 0,2.967472 2.725447,5.409454 6.033196,5.409454"
       style="fill:#191412;fill-opacity:1;fill-rule:nonzero;stroke:none"
       id="path1636" />
  </g>
</svg>
