<?xml version="1.0" encoding="UTF-8" standalone="no"?>
<!-- Created with Inkscape (http://www.inkscape.org/) -->

<svg
   xmlns:dc="http://purl.org/dc/elements/1.1/"
   xmlns:cc="http://creativecommons.org/ns#"
   xmlns:rdf="http://www.w3.org/1999/02/22-rdf-syntax-ns#"
   xmlns:svg="http://www.w3.org/2000/svg"
   xmlns="http://www.w3.org/2000/svg"
   xmlns:sodipodi="http://sodipodi.sourceforge.net/DTD/sodipodi-0.dtd"
   xmlns:inkscape="http://www.inkscape.org/namespaces/inkscape"
   id="svg2993"
   version="1.1"
   preserveAspectRatio="xMinYMin meet"
   viewBox="0 0 145 130"
   inkscape:version="0.48.3.1 r9886"
   sodipodi:docname="cod_1.svg"
   width="100%"
   height="100%">
  <defs
     id="defs2995" />
  <sodipodi:namedview
     id="base"
     pagecolor="#ffffff"
     bordercolor="#666666"
     borderopacity="1.0"
     inkscape:pageopacity="0.0"
     inkscape:pageshadow="2"
     inkscape:zoom="4.0153846"
     inkscape:cx="72.5"
     inkscape:cy="65"
     inkscape:current-layer="layer1"
     showgrid="true"
     inkscape:document-units="px"
     inkscape:grid-bbox="true"
     inkscape:window-width="1366"
     inkscape:window-height="692"
     inkscape:window-x="0"
     inkscape:window-y="24"
     inkscape:window-maximized="1" />
  <metadata
     id="metadata2998">
    <rdf:RDF>
      <cc:Work
         rdf:about="">
        <dc:format>image/svg+xml</dc:format>
        <dc:type
           rdf:resource="http://purl.org/dc/dcmitype/StillImage" />
        <dc:title></dc:title>
      </cc:Work>
    </rdf:RDF>
  </metadata>
  <g
     id="layer1"
     inkscape:label="Layer 1"
     inkscape:groupmode="layer"
     transform="translate(0,66)">
    <path
       inkscape:connector-curvature="0"
       d="m 72.501922,63.241379 c -39.510511,0 -71.66012787,-28.820689 -71.66012787,-64.2448273 0,-35.4206897 32.14961687,-64.2413797 71.66012787,-64.2413797 39.510508,0 71.652438,28.82069 71.652438,64.2413797 0,35.4241383 -32.14193,64.2448273 -71.652438,64.2448273 z M 72.501922,-66 C 32.518623,-66 0,-36.837931 0,-1.0034483 0,34.834483 32.518623,64 72.501922,64 112.47369,64 145,34.834483 145,-1.0034483 145,-36.837931 112.47369,-66 72.501922,-66"
       style="fill:#191412;fill-opacity:1;fill-rule:nonzero;stroke:none"
       id="path1650" />
    <path
       inkscape:connector-curvature="0"
       d="m 72.501922,45.306897 c -28.536437,0 -51.664634,-20.734483 -51.664634,-46.3103453 0,-25.5724137 23.128197,-46.3034487 51.664634,-46.3034487 28.528748,0 51.645418,20.731035 51.645418,46.3034487 0,25.5758623 -23.11667,46.3103453 -51.645418,46.3103453 z m 0,-108.765518 c -38.488058,0 -69.6805663,27.958621 -69.6805663,62.4551727 0,34.4965513 31.1925083,62.4620693 69.6805663,62.4620693 38.480368,0 69.669038,-27.965518 69.669038,-62.4620693 0,-34.4965517 -31.18867,-62.4551727 -69.669038,-62.4551727"
       style="fill:#c13339;fill-opacity:1;fill-rule:nonzero;stroke:none"
       id="path1652" />
    <path
       inkscape:connector-curvature="0"
       d="m 104.271,-5.9758621 c -0.18834,0 -0.38438,0.1758621 -0.58041,0.1758621 l -9.936249,-1.5724138 0,34.7310348 -7.975903,0 0,-34.7310348 L 75.849879,-5.8 c -0.19219,0 -0.392068,-0.1758621 -0.580415,-0.3482759 -0.19219,0 -0.19219,-0.3517241 -0.19219,-0.5206896 L 89.67606,-29.355172 104.47088,-6.6689655 c 0,0.1689655 -0.19988,0.5206896 -0.19988,0.6931034 z M 55.216314,27.358621 40.613684,4.6689655 c -0.196034,-0.1655172 0,-0.5172414 0,-0.6965517 0.196034,-0.1689655 0.392068,-0.1689655 0.580415,-0.1689655 l 9.936246,1.3931034 0,-34.5517237 8.183469,0 -0.203722,34.5517237 9.924714,-1.3931034 c 0.203722,0 0.395913,0.1689655 0.588103,0.1689655 C 69.8151,4.1517241 69.8151,4.5034483 69.8151,4.6689655 L 55.216314,27.358621 z m 17.285608,-74.665518 c -28.536437,0 -51.664634,20.731035 -51.664634,46.3034487 0,25.5758623 23.128197,46.3103453 51.664634,46.3103453 28.528748,0 51.645418,-20.734483 51.645418,-46.3103453 0,-25.5724137 -23.11667,-46.3034487 -51.645418,-46.3034487"
       style="fill:#ffffff;fill-opacity:1;fill-rule:nonzero;stroke:none"
       id="path1654" />
    <path
       inkscape:connector-curvature="0"
       d="m 75.077274,-6.6689655 c 0,0.1689655 0,0.5206896 0.19219,0.5206896 C 75.457811,-5.9758621 75.657689,-5.8 75.849879,-5.8 l 9.928559,-1.5724138 0,34.7310348 7.975903,0 0,-34.7310348 L 103.69059,-5.8 c 0.19603,0 0.39207,-0.1758621 0.58041,-0.1758621 0,-0.1724138 0.19988,-0.5241379 0.19988,-0.6931034 L 89.67606,-29.355172 75.077274,-6.6689655"
       style="fill:#c13339;fill-opacity:1;fill-rule:nonzero;stroke:none"
       id="path1656" />
    <path
       inkscape:connector-curvature="0"
       d="m 69.034806,3.8034483 -9.924714,1.3931034 0.203722,-34.5517237 -8.183469,0 0,34.5517237 -9.936246,-1.3931034 c -0.188347,0 -0.384381,0 -0.580415,0.1689655 0,0.1793103 -0.196034,0.5310345 0,0.6965517 L 55.216314,27.358621 69.8151,4.6689655 c 0,-0.1655172 0,-0.5172414 -0.192191,-0.6965517 -0.19219,0 -0.384381,-0.1689655 -0.588103,-0.1689655"
       style="fill:#191412;fill-opacity:1;fill-rule:nonzero;stroke:none"
       id="path1658" />
  </g>
</svg>
