<?xml version="1.0" encoding="UTF-8" standalone="no"?>
<!-- Created with Inkscape (http://www.inkscape.org/) -->

<svg
   xmlns:dc="http://purl.org/dc/elements/1.1/"
   xmlns:cc="http://creativecommons.org/ns#"
   xmlns:rdf="http://www.w3.org/1999/02/22-rdf-syntax-ns#"
   xmlns:svg="http://www.w3.org/2000/svg"
   xmlns="http://www.w3.org/2000/svg"
   xmlns:sodipodi="http://sodipodi.sourceforge.net/DTD/sodipodi-0.dtd"
   xmlns:inkscape="http://www.inkscape.org/namespaces/inkscape"
   id="svg2993"
   version="1.1"
   preserveAspectRatio="xMinYMin meet"
   viewBox="0 0 145 130"
   inkscape:version="0.48.3.1 r9886"
   sodipodi:docname="cod_1.svg"
   width="100%"
   height="100%">
  <defs
     id="defs2995" />
  <sodipodi:namedview
     id="base"
     pagecolor="#ffffff"
     bordercolor="#666666"
     borderopacity="1.0"
     inkscape:pageopacity="0.0"
     inkscape:pageshadow="2"
     inkscape:zoom="5.5"
     inkscape:cx="129.98109"
     inkscape:cy="-2.6395598"
     inkscape:current-layer="layer1"
     showgrid="true"
     inkscape:document-units="px"
     inkscape:grid-bbox="true"
     inkscape:window-width="1366"
     inkscape:window-height="692"
     inkscape:window-x="0"
     inkscape:window-y="24"
     inkscape:window-maximized="1" />
  <metadata
     id="metadata2998">
    <rdf:RDF>
      <cc:Work
         rdf:about="">
        <dc:format>image/svg+xml</dc:format>
        <dc:type
           rdf:resource="http://purl.org/dc/dcmitype/StillImage" />
        <dc:title></dc:title>
      </cc:Work>
    </rdf:RDF>
  </metadata>
  <g
     id="layer1"
     inkscape:label="Layer 1"
     inkscape:groupmode="layer"
     transform="translate(0,66)">
    <path
       inkscape:connector-curvature="0"
       d="M 129.42034,54.23508 72.362855,23.229191 15.924805,55.113106 12.138903,45.768403 61.620514,17.000997 11.715078,-9.9042227 l 4.209727,-9.7065263 56.43805,30.88528 56.955595,-32.009347 3.99375,9.590743 -50.109197,28.14507 50.427057,27.3973 -4.20972,9.836783 z M 93.839389,-4.5395815 72.146867,7.5356856 51.619866,-4.1729333 72.146867,-15.751295 93.839389,-4.5395815 z M 65.414565,-28.082251 29.613548,-47.640035 l 4.00189,-9.585919 38.637385,21.41997 38.739257,-22.047132 4.21381,9.465312 L 79.620864,-28.20286 107.83377,-12.890475 97.20554,-6.6622813 72.252823,-20.112478 47.507946,-6.2908088 37.507298,-12.137881 65.414565,-28.082251 z M 140.32569,44.316283 90.171669,17.54132 l 49.326741,-27.599921 2.77932,-11.264781 -8.96553,-5.297101 -21.44394,12.683131 -25.506943,-13.980873 35.364963,-20.247661 2.71411,-10.463944 -9.21413,-4.887034 -42.961211,24.415871 -42.769683,-23.436535 -8.761774,4.684412 2.400318,10.936729 35.222334,19.157364 L 33.533933,-13.445272 11.425736,-25.395106 2.2686638,-20.088357 5.0765064,-9.7064257 54.990093,17.71982 5.2354409,46.03374 2.8432731,56.965644 11.99627,61.664529 72.020535,27.276793 l 61.890725,33.364981 8.82289,-5.321223 -2.40846,-11.004268"
       style="fill:#c13339;fill-opacity:1;fill-rule:nonzero;stroke:none"
       id="path840" />
    <path
       inkscape:connector-curvature="0"
       d="m 133.94386,62.557028 -61.813294,-33.33121 -0.08966,-0.04342 -0.08966,0.04342 L 12.024797,63.555661 1.1194451,57.954629 3.9965669,44.827661 51.17974,17.980334 51.579114,17.748765 51.17974,17.526847 3.8865354,-8.466576 0.49593288,-20.980856 11.40536,-27.305537 l 22.01039,11.906416 0.09373,0.04824 0.08966,-0.04824 20.954904,-12.084915 0.395299,-0.231568 -0.399373,-0.226742 -32.650856,-17.753489 -2.881197,-13.136617 10.493752,-5.586559 42.651502,23.359345 0.09373,0.04824 0.08558,-0.04824 42.867483,-24.362804 11.00723,5.842248 -3.28465,12.639713 -32.769023,18.752122 -0.399374,0.226743 0.403449,0.226743 21.582488,11.829227 0.0937,0.05307 0.0856,-0.05307 21.3828,-12.644536 10.70159,6.32468 -3.2928,13.3923058 -46.657455,26.1043822 -0.415675,0.231567 0.419751,0.22192 47.488809,25.366261 2.88934,13.136618 -10.5019,6.329504 z m 7.99562,-19.712162 -0.0206,-0.120608 -0.0938,-0.0386 -47.170944,-25.192586 46.331444,-25.9258838 0.0815,-0.043419 0.0283,-0.1109593 3.37022,-13.6962379 0.0489,-0.197797 -0.15485,-0.09166 -10.95426,-6.479058 -0.0937,-0.05789 -0.0938,0.05789 -21.38688,12.644536 -21.085305,-11.554241 32.451155,-18.573623 0.0856,-0.04824 0.0248,-0.11096 3.36615,-12.948468 0.0529,-0.207446 -0.16709,-0.09649 -11.26804,-5.97733 -0.0856,-0.04824 -0.0896,0.04824 -42.867489,24.362804 -42.651503,-23.359346 -0.08558,-0.05307 -0.08558,0.05307 -10.746418,5.721641 -0.163009,0.08684 0.0489,0.207445 2.954551,13.450198 0.02021,0.110959 0.09373,0.05306 32.337062,17.589462 -20.469952,11.800281 -22.01039,-11.911239 -0.08966,-0.05307 -0.09373,0.05789 -11.15801653,6.474234 -0.16300974,0.09649 0.05297817,0.202621 3.4761826,12.827861 0.024451,0.1109593 0.085581,0.033577 46.9712608,25.8197478 -46.8693797,26.668828 -0.089655,0.04824 -0.024451,0.120609 -2.94232568,13.440548 -0.0489029,0.21227 0.16708498,0.08201 11.16209165,5.731289 0.08558,0.04342 0.08559,-0.04824 59.926459,-34.329845 61.813293,33.336035 0.0856,0.04824 0.0938,-0.05306 10.74234,-6.479059 0.15078,-0.09147 -0.0407,-0.197798 -2.95456,-13.445373"
       style="fill:#191412;fill-opacity:1;fill-rule:nonzero;stroke:none"
       id="path842" />
    <path
       inkscape:connector-curvature="0"
       d="m 133.3122,-11.144073 -3.99375,-9.590743 -56.955595,32.009347 -56.43805,-30.88528 -4.209727,9.7065263 49.905436,26.9052197 -49.481611,28.767406 3.785902,9.344703 56.43805,-31.883915 57.057485,31.005889 4.20972,-9.836783 -50.427057,-27.3973 50.109197,-28.14507"
       style="fill:#ffffff;fill-opacity:1;fill-rule:nonzero;stroke:none"
       id="path844" />
    <path
       inkscape:connector-curvature="0"
       d="m 72.252823,-20.112478 24.952717,13.4501967 10.62823,-6.2281937 -28.212906,-15.312385 35.585026,-20.184944 -4.21381,-9.465312 -38.739257,22.047132 -38.637385,-21.41997 -4.00189,9.585919 35.801017,19.557784 -27.907267,15.94437 10.000648,5.8470722 24.744877,-13.8216692"
       style="fill:#ffffff;fill-opacity:1;fill-rule:nonzero;stroke:none"
       id="path846" />
    <path
       inkscape:connector-curvature="0"
       d="m 91.198631,-4.4334466 -0.440126,0.2363917 -18.526057,10.0924725 -0.08966,0.048243 -0.08559,-0.053068 -17.262731,-9.7113514 -0.403449,-0.2267429 0.403449,-0.2219186 17.16085,-9.5907433 0.08558,-0.04824 0.08558,0.04342 18.627937,9.2144461 0.444202,0.2170943 z M 51.619866,-4.1729333 72.146867,7.5356856 93.839389,-4.5395815 72.146867,-15.751295 51.619866,-4.1729333"
       style="fill:#ffffff;fill-opacity:1;fill-rule:nonzero;stroke:none"
       id="path848" />
    <path
       inkscape:connector-curvature="0"
       d="M 72.146867,5.3936884 90.151294,-4.409325 72.049062,-13.363258 55.373166,-4.0475011 72.146867,5.3936884"
       style="fill:#ffffff;fill-opacity:1;fill-rule:nonzero;stroke:none"
       id="path850" />
    <path
       inkscape:connector-curvature="0"
       d="M 90.151294,-4.409325 72.146867,5.3936884 55.373166,-4.0475011 72.049062,-13.363258 90.151294,-4.409325 z m -18.110383,-9.499081 -0.08558,0.04824 -17.16085,9.5907433 -0.403449,0.2219186 0.403449,0.2267429 17.262731,9.7113514 0.08558,0.053068 0.08966,-0.048243 18.526057,-10.0924725 0.440126,-0.2363917 -0.444202,-0.2170943 -18.627937,-9.2144461 -0.08559,-0.04342"
       style="fill:#191412;fill-opacity:1;fill-rule:nonzero;stroke:none"
       id="path852" />
  </g>
</svg>
