<?xml version="1.0" encoding="UTF-8" standalone="no"?>
<!-- Created with Inkscape (http://www.inkscape.org/) -->

<svg
   xmlns:dc="http://purl.org/dc/elements/1.1/"
   xmlns:cc="http://creativecommons.org/ns#"
   xmlns:rdf="http://www.w3.org/1999/02/22-rdf-syntax-ns#"
   xmlns:svg="http://www.w3.org/2000/svg"
   xmlns="http://www.w3.org/2000/svg"
   xmlns:sodipodi="http://sodipodi.sourceforge.net/DTD/sodipodi-0.dtd"
   xmlns:inkscape="http://www.inkscape.org/namespaces/inkscape"
   id="svg2993"
   version="1.1"
   preserveAspectRatio="xMinYMin meet"
   viewBox="0 0 145 130"
   inkscape:version="0.48.3.1 r9886"
   sodipodi:docname="cod_45.svg"
   width="100%"
   height="100%">
  <defs
     id="defs2995" />
  <sodipodi:namedview
     id="base"
     pagecolor="#ffffff"
     bordercolor="#666666"
     borderopacity="1.0"
     inkscape:pageopacity="0.0"
     inkscape:pageshadow="2"
     inkscape:zoom="1.0353448"
     inkscape:cx="-71.788619"
     inkscape:cy="-31.652006"
     inkscape:current-layer="layer1"
     showgrid="true"
     inkscape:document-units="px"
     inkscape:grid-bbox="true"
     inkscape:window-width="1366"
     inkscape:window-height="692"
     inkscape:window-x="0"
     inkscape:window-y="24"
     inkscape:window-maximized="1" />
  <metadata
     id="metadata2998">
    <rdf:RDF>
      <cc:Work
         rdf:about="">
        <dc:format>image/svg+xml</dc:format>
        <dc:type
           rdf:resource="http://purl.org/dc/dcmitype/StillImage" />
        <dc:title></dc:title>
      </cc:Work>
    </rdf:RDF>
  </metadata>
  <g
     id="layer1"
     inkscape:label="Layer 1"
     inkscape:groupmode="layer"
     transform="translate(0,66)">
    <path
       inkscape:connector-curvature="0"
       d="m 1.4438927,-58.63534 c 0,-3.585367 4.8745515,-6.49876 10.8763193,-6.49876 l 120.352038,0 c 6.00554,0 10.87632,2.913393 10.87632,6.49876 l 0,115.27068 c 0,3.587622 -4.87078,6.49876 -10.87632,6.49876 l -120.352038,0 c -6.0017678,0 -10.8763193,-2.911138 -10.8763193,-6.49876 l 0,-115.27068 z M 0,64 145,64 145,-66 0,-66 0,64"
       style="fill:#2c4aa0;fill-opacity:1;fill-rule:nonzero;stroke:none"
       id="path4001" />
    <path
       inkscape:connector-curvature="0"
       d="m 4.3429879,-58.63534 c 0,-2.629269 3.5701471,-4.76696 7.9772241,-4.76696 l 120.352038,0 c 4.40331,0 7.97722,2.137691 7.97722,4.76696 l 0,115.27068 c 0,2.633563 -3.57391,4.764489 -7.97722,4.764489 l -120.352038,0 c -4.407077,0 -7.9772241,-2.130926 -7.9772241,-4.764489 l 0,-115.27068 z m 7.9772241,121.76944 120.352038,0 c 6.00554,0 10.87632,-2.911138 10.87632,-6.49876 l 0,-115.27068 c 0,-3.585367 -4.87078,-6.49876 -10.87632,-6.49876 l -120.352038,0 c -6.0017678,0 -10.8763193,2.913393 -10.8763193,6.49876 l 0,115.27068 c 0,3.587622 4.8745515,6.49876 10.8763193,6.49876"
       style="fill:#ffffff;fill-opacity:1;fill-rule:nonzero;stroke:none"
       id="path4003" />
    <path
       inkscape:connector-curvature="0"
       d="m 74.460376,-26.452724 c 4.373148,0 7.592689,-0.692269 9.669934,-1.927981 2.073476,-1.240221 2.993345,-3.298988 2.993345,-5.916983 0,-2.613484 -0.919869,-4.54372 -3.227082,-5.781686 -2.069705,-1.237967 -5.293016,-1.925726 -9.669934,-1.925726 l -15.890359,0 0,15.552376 16.124096,0"
       style="fill:#2c4aa0;fill-opacity:1;fill-rule:nonzero;stroke:none"
       id="path4005" />
    <path
       inkscape:connector-curvature="0"
       d="m 33.929593,-54.941736 43.29416,0 c 11.049738,0 19.339868,1.652877 25.096587,5.089418 5.75672,3.44105 8.75007,8.534977 8.75007,15.13972 0,6.749059 -2.76338,12.11358 -8.5201,15.694437 -5.752952,3.709389 -13.820655,5.504328 -24.410458,5.504328 l -19.803572,0 0,23.1177254 -24.406687,0 0,-64.5456284 z m 71.859107,111.556782 -13.059123,0 0,-15.865814 C 92.446831,34.94027 87.368702,32.599851 77.355702,32.252823 l 0,9.709355 c 0,0.26428 -0.290287,0.435205 -0.437315,0.523364 -0.286517,0.0837 -0.86332,0.171557 -1.157376,0.0837 L 39.20753,24.276892 83.885263,14.393456 c 0.433545,0 0.87086,0.08569 1.157376,0.259319 0.147029,0.178231 0.290287,0.43746 0.147029,0.696779 l -5.368416,9.186206 c 14.650044,1.127474 25.239848,5.031475 25.967448,16.213527 l 0,15.865813 z m -93.468488,4.784783 120.352038,0 c 4.40331,0 7.97722,-2.130926 7.97722,-4.764489 l 0,-115.27068 c 0,-2.629269 -3.57391,-4.76696 -7.97722,-4.76696 l -120.352038,0 c -4.407077,0 -7.9772241,2.137691 -7.9772241,4.76696 l 0,115.27068 c 0,2.633563 3.5701471,4.764489 7.9772241,4.764489"
       style="fill:#2c4aa0;fill-opacity:1;fill-rule:nonzero;stroke:none"
       id="path4007" />
    <path
       inkscape:connector-curvature="0"
       d="m 58.33628,-42.0051 15.890359,0 c 4.376918,0 7.600229,0.687759 9.669934,1.925726 2.307213,1.237966 3.227082,3.168202 3.227082,5.781686 0,2.617995 -0.919869,4.676762 -2.993345,5.916983 -2.077245,1.235712 -5.296786,1.927981 -9.669934,1.927981 l -16.124096,0 0,-15.552376 z m 0,28.491267 19.803572,0 c 10.589803,0 18.657506,-1.794939 24.410458,-5.504328 5.75672,-3.580857 8.5201,-8.945378 8.5201,-15.694437 0,-6.604743 -2.99335,-11.69867 -8.75007,-15.13972 -5.756719,-3.436541 -14.046849,-5.089418 -25.096587,-5.089418 l -43.29416,0 0,64.5456284 24.406687,0 0,-23.1177254"
       style="fill:#ffffff;fill-opacity:1;fill-rule:nonzero;stroke:none"
       id="path4009" />
    <path
       inkscape:connector-curvature="0"
       d="M 79.821252,24.535706 85.189668,15.3495 c 0.143258,-0.259319 0,-0.518638 -0.147029,-0.696779 -0.286516,-0.173541 -0.723831,-0.259319 -1.157376,-0.259319 L 39.20753,24.276838 75.761011,42.56921 c 0.294056,0.08803 0.870859,0 1.157376,-0.0837 0.147028,-0.08821 0.437315,-0.259102 0.437315,-0.523382 l 0,-9.709355 c 10.013,0.347046 15.091129,2.687447 15.373875,8.496427 l 0,15.865814 13.059123,0 0,-15.865814 C 105.0611,29.567126 94.471296,25.663144 79.821252,24.53567"
       style="fill:#ffffff;fill-opacity:1;fill-rule:nonzero;stroke:none"
       id="path4011" />
  </g>
</svg>
