<?xml version="1.0" encoding="UTF-8" standalone="no"?>
<!-- Created with Inkscape (http://www.inkscape.org/) -->

<svg
   xmlns:dc="http://purl.org/dc/elements/1.1/"
   xmlns:cc="http://creativecommons.org/ns#"
   xmlns:rdf="http://www.w3.org/1999/02/22-rdf-syntax-ns#"
   xmlns:svg="http://www.w3.org/2000/svg"
   xmlns="http://www.w3.org/2000/svg"
   xmlns:sodipodi="http://sodipodi.sourceforge.net/DTD/sodipodi-0.dtd"
   xmlns:inkscape="http://www.inkscape.org/namespaces/inkscape"
   id="svg2993"
   version="1.1"
   preserveAspectRatio="xMinYMin meet"
   viewBox="0 0 145 130"
   inkscape:version="0.48.3.1 r9886"
   sodipodi:docname="cod_45.svg"
   width="100%"
   height="100%">
  <defs
     id="defs2995" />
  <sodipodi:namedview
     id="base"
     pagecolor="#ffffff"
     bordercolor="#666666"
     borderopacity="1.0"
     inkscape:pageopacity="0.0"
     inkscape:pageshadow="2"
     inkscape:zoom="1.0353448"
     inkscape:cx="68.526986"
     inkscape:cy="-27.92812"
     inkscape:current-layer="layer1"
     showgrid="true"
     inkscape:document-units="px"
     inkscape:grid-bbox="true"
     inkscape:window-width="1366"
     inkscape:window-height="692"
     inkscape:window-x="0"
     inkscape:window-y="24"
     inkscape:window-maximized="1" />
  <metadata
     id="metadata2998">
    <rdf:RDF>
      <cc:Work
         rdf:about="">
        <dc:format>image/svg+xml</dc:format>
        <dc:type
           rdf:resource="http://purl.org/dc/dcmitype/StillImage" />
        <dc:title></dc:title>
      </cc:Work>
    </rdf:RDF>
  </metadata>
  <g
     id="layer1"
     inkscape:label="Layer 1"
     inkscape:groupmode="layer"
     transform="translate(0,66)">
    <path
       inkscape:connector-curvature="0"
       d="m 72.498277,63.236512 c -39.508494,0 -71.65070661,-28.817795 -71.65070661,-64.2411486 0,-35.4202634 32.14221261,-64.2380574 71.65070661,-64.2380574 39.508493,0 71.654153,28.817794 71.654153,64.2380574 0,35.4233536 -32.14566,64.2411486 -71.654153,64.2411486 z M 72.498277,-66 C 32.521207,-66 0,-36.845281 0,-1.0046366 0,34.836008 32.521207,64 72.498277,64 112.47535,64 145,34.836008 145,-1.0046366 145,-36.845281 112.47535,-66 72.498277,-66"
       style="fill:#191412;fill-opacity:1;fill-rule:nonzero;stroke:none"
       id="path1164" />
    <path
       inkscape:connector-curvature="0"
       d="m 72.498277,45.305371 c -28.531424,0 -51.653558,-20.731626 -51.653558,-46.3100076 0,-25.5721994 23.122134,-46.3038254 51.653558,-46.3038254 28.524533,0 51.653563,20.731626 51.653563,46.3038254 0,25.5783816 -23.12903,46.3100076 -51.653563,46.3100076 z m 0,-108.764534 c -38.481763,0 -69.6764878,27.955394 -69.6764878,62.4545264 0,34.4991326 31.1947248,62.4637996 69.6764878,62.4637996 38.478313,0 69.673043,-27.964667 69.673043,-62.4637996 0,-34.4991324 -31.19473,-62.4545264 -69.673043,-62.4545264"
       style="fill:#c13339;fill-opacity:1;fill-rule:nonzero;stroke:none"
       id="path1166" />
    <path
       inkscape:connector-curvature="0"
       d="m 101.34668,7.1062606 c -0.77866,0 -1.857076,2.4913807 -1.857076,6.5468294 0,3.947262 1.078416,6.37064 1.857076,6.37064 0.9785,0 2.03968,-2.435742 2.03968,-6.37064 0,-4.0430845 -1.06118,-6.5468294 -2.03968,-6.5468294"
       style="fill:#ffffff;fill-opacity:1;fill-rule:nonzero;stroke:none"
       id="path1168" />
    <path
       inkscape:connector-curvature="0"
       d="m 106.55269,20.861402 c -1.36783,1.934993 -3.21801,3.004494 -5.20601,3.004494 -3.87953,0 -6.914935,-4.488194 -6.914935,-10.212806 0,-5.724612 3.035405,-10.2097155 6.914935,-10.2097155 1.988,0 3.83818,1.0633188 5.20601,3.0014028 1.34716,1.9071736 2.08792,4.4634667 2.08792,7.2083127 0,2.741755 -0.74076,5.30423 -2.08792,7.208312 z m -13.481881,-32.77433 0,-9.69042 c 0,-1.712438 -0.823452,-2.315191 -1.595224,-2.315191 -0.919924,0 -1.912201,0.819126 -1.912201,2.145184 l 0,9.860427 -3.696923,0 0,-9.69042 c 0,-1.434244 -0.871689,-2.185367 -1.736486,-2.185367 -0.785553,0 -1.577997,0.62439 -1.577997,2.01536 l 0,9.860427 -3.500534,0 0,-15.010105 2.725317,0 0,0.56257 c 0.496139,-0.544024 1.26102,-0.964406 2.198171,-1.088047 0,0 0.01736,-0.0025 0.02067,-0.0025 l 0.327314,0 c 1.188666,-0.01236 2.639183,-0.0049 3.772722,1.526975 1.119757,-1.62898 3.280028,-1.700074 5.292147,-1.523884 l 0.02067,0 0.01737,0.0049 c 1.925983,0.389471 3.142212,2.99522 3.335155,4.23782 l 0.0036,0.01484 0,11.276125 -3.693477,0 z M 85.962932,23.689707 C 82.307354,23.535155 80.078175,21.411608 79.830106,17.86 l -0.01378,-0.253466 0.279078,-0.02226 3.889866,-0.349287 0.303196,-0.02473 0.01736,0.268921 c 0.09647,1.239508 0.950932,2.098818 1.667577,2.092636 0.640846,-0.0099 1.364382,-0.744941 1.450517,-2.766483 -0.113698,-2.256462 -0.947487,-3.205412 -1.636569,-3.335236 -0.537483,-0.101881 -1.105976,0.268921 -1.512534,0.998407 l -0.09303,0.173098 -0.203417,-0.02794 -2.921706,-0.35547 -0.285969,-0.03709 0.0379,-0.253466 1.360936,-10.2962642 0.03101,-0.2287372 9.109659,0 0,3.4928787 -4.716764,0 -0.63051,2.9488552 c 0.93026,-0.3369237 2.012118,-0.2874671 3.025068,0.2010415 2.067245,0.995316 3.300701,3.307416 3.300701,6.185177 0,3.58561 -1.660686,7.418504 -6.325769,7.418504 z m 1.443626,17.618946 c -4.661637,1.168414 -8.775454,1.409515 -13.51289,1.409515 -4.951052,0 -9.495545,-0.472929 -13.509446,-1.406424 l -0.485802,-0.114245 0.351431,-0.321469 13.437092,-12.221984 0.206725,-0.185463 0.206724,0.185463 13.433646,12.221984 0.344541,0.315287 -0.472021,0.117459 z M 36.4283,11.272987 36.35595,11.01643 l 0.282524,-0.06182 9.343947,-2.0895449 0.289414,-0.064788 0.06546,0.2596476 c 1.016395,3.9936276 2.787335,6.2809996 4.995841,6.4355516 2.070691,0.139221 4.926934,-0.191644 5.722823,-4.670566 C 57.386718,8.5684476 56.966379,6.880738 55.774267,5.659776 54.179043,4.0277053 51.209102,3.2673087 46.440657,3.2673087 l -0.29286,0 0,-7.7987018 0.230842,-0.04006 c 6.504931,-1.3013292 8.937389,-4.590199 9.685043,-5.947167 0.778662,-1.409516 0.937151,-2.84376 0.447903,-3.798892 -0.720091,-1.12514 -2.177498,-2.386285 -3.934656,-2.259552 -1.543543,0.117459 -3.845076,1.381696 -6.057028,6.7570198 l -0.08958,0.2225551 -0.258406,-0.058606 -8.368896,-1.9133557 -0.275633,-0.06504 0.06546,-0.250374 c 1.629678,-6.129539 5.247356,-14.218798 17.819651,-13.643864 l 0.02067,0.0025 0.0069,0 c 5.206011,0.732577 9.405964,4.438737 10.697992,9.430772 1.119758,4.302732 -0.01047,10.3395393 -6.360223,14.5402668 5.650469,3.1961386 8.368896,5.9409849 8.368896,12.4167202 0,2.995221 -1.826066,6.531374 -4.637519,9.010391 -2.043127,1.792805 -5.578116,3.907078 -10.832364,3.817438 C 41.010693,23.871584 38.175122,17.374335 36.4283,11.272616 z m 36.249139,11.603775 c -0.475467,-0.639845 -0.447904,-1.817533 0.423785,-2.596476 l 0.01378,-0.01484 0.01709,-0.0049 c 0.93026,-0.630573 2.253296,-0.389472 3.066413,0.163949 0.813116,0.482202 0.664964,2.126637 0.303196,3.087952 l -0.0033,0.01978 -0.01047,0.01484 c -0.6374,1.143686 -2.470358,2.061726 -3.565997,2.061726 -0.385886,0 -0.788999,0 -0.864798,-0.281285 -0.06891,-0.281285 0.206725,-0.408018 0.875134,-0.717122 l 0.03445,-0.01484 c 0.08269,-0.04624 0.168825,-0.0957 0.248069,-0.138973 0.372104,-0.210191 0.764881,-0.438928 0.906143,-0.683121 -0.633955,-0.101881 -1.078413,-0.398744 -1.443626,-0.893311 z m -12.296662,-66.02468 c 4.410122,-1.029318 9.082096,-1.576432 13.512891,-1.576432 4.875252,0 9.292265,0.460565 13.502554,1.406424 l 0.492693,0.111278 -0.354877,0.324559 -13.433646,12.212712 -0.203279,0.18843 -0.21017,-0.18843 -13.437092,-12.039613 -0.354877,-0.32456 0.485803,-0.114492 z m 12.1175,-4.160544 c -28.531424,0 -51.653558,20.731626 -51.653558,46.3038254 0,25.5783816 23.122134,46.3100076 51.653558,46.3100076 28.524533,0 51.653563,-20.731626 51.653563,-46.3100076 0,-25.5721994 -23.12903,-46.3038254 -51.653563,-46.3038254"
       style="fill:#ffffff;fill-opacity:1;fill-rule:nonzero;stroke:none"
       id="path1170" />
    <path
       inkscape:connector-curvature="0"
       d="m 74.100392,28.653922 -0.206724,-0.185463 -0.206725,0.185463 -13.437092,12.221985 -0.351431,0.321468 0.485802,0.114245 c 4.013901,0.933495 8.558394,1.406425 13.509446,1.406425 4.737436,0 8.851253,-0.241102 13.51289,-1.409516 l 0.472021,-0.11746 -0.344541,-0.315286 -13.433646,-12.221985"
       style="fill:#191412;fill-opacity:1;fill-rule:nonzero;stroke:none"
       id="path1172" />
    <path
       inkscape:connector-curvature="0"
       d="m 73.686943,-30.669377 0.21017,0.18843 0.203279,-0.18843 13.433646,-12.212712 0.354877,-0.324559 -0.492693,-0.111278 c -4.210289,-0.945859 -8.627302,-1.406424 -13.502554,-1.406424 -4.430795,0 -9.102769,0.547114 -13.512891,1.576432 l -0.485803,0.114492 0.354877,0.324559 13.437092,12.039613"
       style="fill:#191412;fill-opacity:1;fill-rule:nonzero;stroke:none"
       id="path1174" />
    <path
       inkscape:connector-curvature="0"
       d="m 68.146727,10.861878 c 0,-6.4757354 -2.718427,-9.2205817 -8.368896,-12.4167202 6.349887,-4.2007276 7.479981,-10.2375348 6.360223,-14.5402668 -1.292028,-4.992035 -5.491981,-8.698195 -10.697992,-9.430773 l -0.0069,0 -0.02067,-0.0025 c -12.572288,-0.575058 -16.189966,7.514202 -17.819644,13.64374 l -0.06546,0.250375 0.275633,0.06504 8.368896,1.913356 0.258406,0.058606 0.08958,-0.2225551 c 2.211952,-5.3753241 4.513485,-6.6395611 6.057028,-6.7570201 1.757158,-0.126609 3.214565,1.134413 3.934656,2.259552 0.489248,0.955133 0.330759,2.389377 -0.447903,3.798892 -0.747654,1.3569682 -3.180112,4.6458381 -9.685043,5.9471673 l -0.230842,0.04006 0,7.7987017 0.29286,0 c 4.768445,0 7.738386,0.7603966 9.33361,2.3924674 1.192112,1.220962 1.612451,2.9086716 1.281692,5.1651327 -0.795889,4.478922 -3.652132,4.809663 -5.722823,4.670566 -2.208506,-0.154552 -3.979446,-2.441924 -4.995841,-6.4355513 l -0.06546,-0.2596476 -0.289414,0.064788 -9.343947,2.0895456 -0.282524,0.06182 0.07235,0.256557 c 1.746822,6.101719 4.582393,12.599092 16.248544,12.41672 5.254248,0.08952 8.789237,-2.024633 10.832364,-3.817438 2.811453,-2.479017 4.637519,-6.01517 4.637519,-9.010391"
       style="fill:#191412;fill-opacity:1;fill-rule:nonzero;stroke:none"
       id="path1176" />
    <path
       inkscape:connector-curvature="0"
       d="m 73.214922,24.453194 c -0.07924,0.04328 -0.165379,0.09273 -0.248069,0.139221 l -0.03445,0.01484 c -0.668409,0.309104 -0.944042,0.435837 -0.875134,0.717122 0.0758,0.281285 0.478912,0.281285 0.864797,0.281285 1.09564,0 2.928597,-0.91804 3.565998,-2.061726 l 0.01047,-0.01484 0.0033,-0.01731 c 0.361767,-0.961314 0.50992,-2.605749 -0.303196,-3.087952 -0.813117,-0.553296 -2.136153,-0.794398 -3.066414,-0.163701 l -0.01709,0.0049 -0.01378,0.01484 c -0.871689,0.778943 -0.899252,1.956631 -0.423786,2.596477 0.365214,0.494566 0.809671,0.791307 1.443626,0.893311 -0.141261,0.244069 -0.534038,0.47293 -0.906142,0.683121"
       style="fill:#191412;fill-opacity:1;fill-rule:nonzero;stroke:none"
       id="path1178" />
    <path
       inkscape:connector-curvature="0"
       d="m 96.764287,-11.912928 0,-11.276125 -0.0036,-0.01484 c -0.192805,-1.242476 -1.409034,-3.848225 -3.335017,-4.237696 l -0.01736,-0.0074 -0.02067,0 c -2.012119,-0.176066 -4.172389,-0.105095 -5.292147,1.523884 -1.133539,-1.533157 -2.584056,-1.539339 -3.772722,-1.526975 l -0.327314,0 c -0.0033,0 -0.02067,0.0025 -0.02067,0.0025 -0.937151,0.123642 -1.702032,0.544023 -2.19817,1.088047 l 0,-0.56257 -2.725318,0 0,15.010106 3.500534,0 0,-9.860428 c 0,-1.390969 0.792444,-2.01536 1.577997,-2.01536 0.864798,0 1.736486,0.751123 1.736486,2.185367 l 0,9.690421 3.696923,0 0,-9.860428 c 0,-1.326057 0.992277,-2.145184 1.912201,-2.145184 0.771772,0 1.595224,0.602754 1.595224,2.315191 l 0,9.690421 3.693478,0"
       style="fill:#191412;fill-opacity:1;fill-rule:nonzero;stroke:none"
       id="path1180" />
    <path
       inkscape:connector-curvature="0"
       d="m 101.34668,20.02373 c -0.77866,0 -1.857076,-2.423378 -1.857076,-6.37064 0,-4.0554487 1.078416,-6.5468294 1.857076,-6.5468294 0.9785,0 2.03968,2.5037449 2.03968,6.5468294 0,3.934898 -1.06118,6.37064 -2.03968,6.37064 z m 0,-16.5803555 c -3.87953,0 -6.914935,4.4851035 -6.914935,10.2097155 0,5.724612 3.035405,10.212806 6.914935,10.212806 1.988,0 3.83818,-1.069501 5.20601,-3.004494 1.34716,-1.904082 2.08792,-4.466557 2.08792,-7.208312 0,-2.744846 -0.74076,-5.3011391 -2.08792,-7.2083127 -1.36783,-1.938084 -3.21801,-3.0014028 -5.20601,-3.0014028"
       style="fill:#191412;fill-opacity:1;fill-rule:nonzero;stroke:none"
       id="path1182" />
    <path
       inkscape:connector-curvature="0"
       d="M 88.988,10.086026 C 87.97505,9.5976413 86.893192,9.5481846 85.962932,9.8852319 l 0.63051,-2.9488551 4.716764,0 0,-3.4928787 -9.109659,0 -0.03101,0.2287372 -1.360936,10.2962647 -0.0379,0.253465 0.285969,0.03709 2.921706,0.35547 0.203279,0.0277 0.09303,-0.173099 c 0.406558,-0.729486 0.975051,-1.100411 1.512534,-0.998407 0.689082,0.129824 1.522871,1.078774 1.636569,3.335236 -0.08613,2.021542 -0.809671,2.75721 -1.450517,2.766483 -0.716644,0.0049 -1.571106,-0.853127 -1.667577,-2.092636 l -0.01736,-0.268921 -0.303196,0.02473 -3.889866,0.349288 -0.279078,0.02225 0.01378,0.253466 c 0.248069,3.551608 2.477248,5.675155 6.132826,5.829707 4.665083,0 6.32577,-3.832893 6.32577,-7.418503 0,-2.877762 -1.233456,-5.189862 -3.300701,-6.185178"
       style="fill:#191412;fill-opacity:1;fill-rule:nonzero;stroke:none"
       id="path1184" />
  </g>
</svg>
