<?xml version="1.0" encoding="UTF-8" standalone="no"?>
<!-- Created with Inkscape (http://www.inkscape.org/) -->

<svg
   xmlns:dc="http://purl.org/dc/elements/1.1/"
   xmlns:cc="http://creativecommons.org/ns#"
   xmlns:rdf="http://www.w3.org/1999/02/22-rdf-syntax-ns#"
   xmlns:svg="http://www.w3.org/2000/svg"
   xmlns="http://www.w3.org/2000/svg"
   xmlns:sodipodi="http://sodipodi.sourceforge.net/DTD/sodipodi-0.dtd"
   xmlns:inkscape="http://www.inkscape.org/namespaces/inkscape"
   id="svg2993"
   version="1.1"
   preserveAspectRatio="xMinYMin meet"
   viewBox="0 0 145 130"
   inkscape:version="0.48.3.1 r9886"
   sodipodi:docname="cod_45.svg"
   width="100%"
   height="100%">
  <defs
     id="defs2995" />
  <sodipodi:namedview
     id="base"
     pagecolor="#ffffff"
     bordercolor="#666666"
     borderopacity="1.0"
     inkscape:pageopacity="0.0"
     inkscape:pageshadow="2"
     inkscape:zoom="1.0353448"
     inkscape:cx="68.526986"
     inkscape:cy="-27.92812"
     inkscape:current-layer="layer1"
     showgrid="true"
     inkscape:document-units="px"
     inkscape:grid-bbox="true"
     inkscape:window-width="1366"
     inkscape:window-height="692"
     inkscape:window-x="0"
     inkscape:window-y="24"
     inkscape:window-maximized="1" />
  <metadata
     id="metadata2998">
    <rdf:RDF>
      <cc:Work
         rdf:about="">
        <dc:format>image/svg+xml</dc:format>
        <dc:type
           rdf:resource="http://purl.org/dc/dcmitype/StillImage" />
        <dc:title></dc:title>
      </cc:Work>
    </rdf:RDF>
  </metadata>
  <g
     id="layer1"
     inkscape:label="Layer 1"
     inkscape:groupmode="layer"
     transform="translate(0,66)">
    <path
       inkscape:connector-curvature="0"
       d="m 72.501723,63.236512 c -39.508495,0 -71.6507072,-28.817795 -71.6507072,-64.2411486 0,-35.4202634 32.1422122,-64.2380574 71.6507072,-64.2380574 39.511937,0 71.650707,28.817794 71.650707,64.2380574 0,35.4233536 -32.13877,64.2411486 -71.650707,64.2411486 z M 72.501723,-66 C 32.528098,-66 0,-36.845281 0,-1.0046366 0,34.836008 32.528098,64 72.501723,64 112.47879,64 145,34.836008 145,-1.0046366 145,-36.845281 112.47879,-66 72.501723,-66"
       style="fill:#191412;fill-opacity:1;fill-rule:nonzero;stroke:none"
       id="path1138" />
    <path
       inkscape:connector-curvature="0"
       d="m 72.501723,45.305371 c -28.531425,0 -51.657004,-20.731626 -51.657004,-46.3100076 0,-25.5721994 23.125579,-46.3038254 51.657004,-46.3038254 28.527977,0 51.657007,20.731626 51.657007,46.3038254 0,25.5783816 -23.12903,46.3100076 -51.657007,46.3100076 z m 0,-108.764534 c -38.481763,0 -69.6730429,27.955394 -69.6730429,62.4545264 0,34.4991326 31.1912799,62.4637996 69.6730429,62.4637996 38.478317,0 69.673047,-27.964667 69.673047,-62.4637996 0,-34.4991324 -31.19473,-62.4545264 -69.673047,-62.4545264"
       style="fill:#c13339;fill-opacity:1;fill-rule:nonzero;stroke:none"
       id="path1140" />
    <path
       inkscape:connector-curvature="0"
       d="m 98.201022,6.3334998 c -0.58572,0 -1.664132,2.4141046 -1.664132,6.3644582 0,4.012173 1.10253,6.197541 1.664132,6.197541 0.981941,0 2.043128,-2.367739 2.043128,-6.197541 0,-3.8081656 -1.057742,-6.3644582 -2.043128,-6.3644582"
       style="fill:#ffffff;fill-opacity:1;fill-rule:nonzero;stroke:none"
       id="path1142" />
    <path
       inkscape:connector-curvature="0"
       d="m 118.39111,13.538721 -0.34109,-0.302922 -13.24071,-11.693416 -0.21017,-0.1885537 0.21017,-0.1854626 13.24071,-11.6934157 0.35487,-0.309105 0.12748,0.426564 c 1.29548,4.2718219 1.56767,8.7538344 1.56767,11.7614193 0,4.2903679 -0.26875,7.9316166 -1.57111,11.7676007 l -0.13782,0.417291 z m -19.9937,9.198945 c -3.876084,0 -6.914934,-4.407828 -6.914934,-10.039708 0,-5.6256989 3.03885,-10.0366174 6.914934,-10.0366174 3.87264,0 6.90804,4.4109185 6.90804,10.0366174 0,5.63188 -3.0354,10.039708 -6.90804,10.039708 z m -8.572175,-45.719619 c -0.892361,0 -1.85363,0.831491 -1.85363,2.173003 l 0,9.504958 -3.693477,0 0,-9.504958 c 0,-1.33533 -0.851016,-2.030815 -1.695141,-2.030815 -0.80278,0 -1.615897,0.624391 -1.615897,2.030815 l 0,9.504958 -3.50398,0 0,-14.654636 2.725318,0 0,0.584208 c 0.520257,-0.550206 1.319591,-0.939678 2.242961,-0.939678 l -0.04134,0.0032 c 1.230011,-0.154552 2.87347,-0.333833 3.962219,1.353877 0.926815,-1.313693 2.680528,-1.820624 5.068196,-1.353877 1.946655,0.204009 3.369609,2.822123 3.369609,4.101814 l 0,10.9052 -3.500535,0 0,-9.504957 c 0,-1.60116 -0.754544,-2.173003 -1.464298,-2.173003 z m -1.64346,44.130822 c -1.167993,0.998407 -2.687418,1.486792 -4.375668,1.412607 -4.620293,0.188554 -5.991565,-2.469743 -6.721992,-5.087857 l -0.06891,-0.247283 0.279078,-0.068 3.700369,-0.871674 0.289414,-0.068 0.06546,0.262738 c 0.365213,1.462064 1.074967,2.426469 1.89842,2.590294 1.068076,-0.0032 1.857075,-0.154552 2.201615,-1.86699 0.12059,-0.80058 -0.02067,-1.387878 -0.42723,-1.80826 -0.744208,-0.760396 -2.31876,-0.862401 -3.762386,-0.862401 l -0.285969,0 0,-3.613429 0.223952,-0.04637 C 83.923246,10.358038 84.874178,9.072164 85.160147,8.5466866 85.421998,8.0552108 85.473679,7.5637349 85.284182,7.2299023 85.049894,6.8187935 84.519301,6.3860475 83.902573,6.4262311 83.030885,6.4756878 82.18676,7.4370022 81.535578,9.1216207 l -0.08958,0.2318282 -0.268742,-0.068003 -3.311037,-0.8747652 -0.265296,-0.071094 0.06546,-0.2411014 c 0.7132,-2.7108448 2.187835,-5.7957058 7.30082,-5.6102433 l 0.01709,0.00321 0.02067,0.00297 c 2.225734,0.3431058 3.993228,1.9504482 4.506594,4.086359 0.530593,2.2131869 -0.441013,4.3243698 -2.532375,5.7493398 2.060354,1.230236 3.142212,2.392468 3.142212,4.908577 0,1.366241 -0.764881,2.90558 -1.939765,3.910169 z m -13.264821,1.236418 -0.01736,0.02782 c 0.0069,-0.0062 0.01047,-0.01533 0.01378,-0.01855 -0.45824,1.193142 -2.36355,2.086454 -3.383391,2.086454 l -0.06202,0 c -0.50303,-0.09582 -0.778663,-0.145279 -0.806226,-0.395654 -0.02756,-0.234919 0.196388,-0.32765 0.506475,-0.448201 0.117144,-0.04328 0.258406,-0.102004 0.416894,-0.170007 0.0758,-0.04327 0.148153,-0.09273 0.227397,-0.132915 0.434122,-0.253466 0.699418,-0.451292 0.744208,-0.65221 -0.575245,-0.123642 -0.968021,-0.525478 -1.271217,-0.936586 -0.441013,-0.587298 -0.478912,-1.795896 0.437566,-2.432651 -0.0033,0.003 -0.01378,0.003 -0.01709,0.0091 l 0.02756,-0.02473 c -0.0033,0.003 -0.0069,0.0094 -0.01047,0.01558 0.930261,-0.812945 2.249852,-0.584207 3.097422,-0.01855 l 0.01736,0.01236 0.01378,0.01533 c 0.668409,0.605845 0.689081,1.92572 0.06202,3.072497 0,-0.0032 0.0033,-0.0094 0.0033,-0.0094 z m -8.169063,-32.663053 c -2.515148,9.68114713 -5.15433,13.4614928 -9.151004,19.1830136 -1.199002,1.7124384 -2.556493,3.6690684 -4.055245,5.9780774 l 12.434478,0 0,7.854341 -25.110134,0 0,-7.505053 0.05168,-0.06491 c 7.21813,-9.2360368 10.897825,-14.86791737 15.149459,-23.161186 1.054295,-3.106498 1.126649,-5.675155 0.182607,-7.05376 -0.430675,-0.624391 -1.071521,-1.010772 -1.891528,-1.140595 -2.808008,-0.299831 -4.272306,0.636755 -5.516099,6.9424825 l -0.04479,0.213282 -8.927052,0 0.02067,-0.2781939 c 0.575383,-7.8790686 4.737436,-16.2990706 14.701556,-16.2990706 5.130213,0 8.144945,2.219369 9.764287,4.083268 2.584056,2.970493 3.500535,7.276316 2.391113,11.248306 z M 40.190686,1.542383 26.757039,13.235799 26.402162,13.547994 26.274682,13.115248 C 25.072235,8.9670685 24.90341,5.0105333 24.90341,1.3538293 c 0,-3.010676 0.275632,-7.4988706 1.564215,-11.7614193 l 0.130926,-0.426564 0.354877,0.309105 13.240703,11.6934157 0.21017,0.1854626 -0.213615,0.1885537 z m 32.311037,-48.850845 c -28.531425,0 -51.657004,20.731626 -51.657004,46.3038254 0,25.5783816 23.125579,46.3100076 51.657004,46.3100076 28.527977,0 51.657007,-20.731626 51.657007,-46.3100076 0,-25.5721994 -23.12903,-46.3038254 -51.657007,-46.3038254"
       style="fill:#ffffff;fill-opacity:1;fill-rule:nonzero;stroke:none"
       id="path1144" />
    <path
       inkscape:connector-curvature="0"
       d="m 26.953428,-10.525049 -0.354877,-0.309105 -0.130926,0.426564 c -1.288583,4.2625487 -1.564215,8.7507433 -1.564215,11.7614193 0,3.656704 0.168825,7.6132392 1.371272,11.7614187 l 0.12748,0.432746 0.354877,-0.312195 L 40.190686,1.542383 40.404301,1.3538293 40.194131,1.1683667 26.953428,-10.525049"
       style="fill:#191412;fill-opacity:1;fill-rule:nonzero;stroke:none"
       id="path1146" />
    <path
       inkscape:connector-curvature="0"
       d="m 118.53237,-10.40759 -0.12748,-0.426564 -0.35487,0.309105 -13.24071,11.6934157 -0.21017,0.1854626 0.21017,0.1885537 13.24071,11.693416 0.34109,0.302922 0.13782,-0.417291 c 1.30236,-3.8359841 1.57111,-7.4772328 1.57111,-11.7676007 0,-3.0075849 -0.27219,-7.4895974 -1.56767,-11.7614193"
       style="fill:#191412;fill-opacity:1;fill-rule:nonzero;stroke:none"
       id="path1148" />
    <path
       inkscape:connector-curvature="0"
       d="m 54.592491,-25.60934 c -9.96412,0 -14.126173,8.420002 -14.701556,16.2990706 l -0.02067,0.2781939 8.927052,0 0.04479,-0.213282 c 1.243793,-6.3057275 2.708091,-7.2423135 5.516099,-6.9424825 0.820007,0.129823 1.460853,0.516204 1.891529,1.140595 0.944042,1.378605 0.871688,3.947262 -0.182607,7.05376 -4.251636,8.29326863 -7.931331,13.9251492 -15.149461,23.161186 l -0.05168,0.06491 0,7.505053 25.110134,0 0,-7.854341 -12.434478,0 c 1.498752,-2.309009 2.856243,-4.265639 4.055245,-5.9780774 3.996674,-5.7215208 6.635856,-9.50186647 9.151004,-19.1830136 1.109422,-3.97199 0.192943,-8.277813 -2.391113,-11.248306 -1.619343,-1.863899 -4.634075,-4.083268 -9.764288,-4.083268"
       style="fill:#191412;fill-opacity:1;fill-rule:nonzero;stroke:none"
       id="path1150" />
    <path
       inkscape:connector-curvature="0"
       d="M 86.979328,12.330123 C 89.07069,10.905153 90.042295,8.7939701 89.511703,6.5807832 88.998337,4.4448724 87.230842,2.83753 85.005109,2.4944242 l -0.02067,-0.00297 -0.01709,-0.00321 c -5.112986,-0.1854625 -6.58762,2.8993985 -7.30082,5.6102433 l -0.06546,0.2411014 0.265296,0.071094 3.311037,0.8747652 0.268742,0.068003 0.08958,-0.2318282 c 0.651182,-1.6846185 1.495307,-2.6459329 2.366995,-2.6953896 0.616728,-0.040184 1.147321,0.3925624 1.381609,0.8036712 0.189497,0.3338326 0.137816,0.8253085 -0.124035,1.3167843 -0.285969,0.5254774 -1.236902,1.8113514 -3.962219,2.3275554 l -0.223952,0.04637 0,3.613429 0.285969,0 c 1.443626,0 3.018177,0.102005 3.762386,0.862401 0.406558,0.420382 0.547819,1.00768 0.42723,1.80826 -0.344541,1.712438 -1.133539,1.863899 -2.201616,1.86699 -0.823455,-0.163825 -1.533209,-1.12823 -1.898422,-2.590294 l -0.0656,-0.262738 -0.289414,0.068 -3.700369,0.871674 -0.279078,0.068 0.06891,0.247283 c 0.730427,2.618114 2.101699,5.276411 6.721992,5.087857 1.68825,0.07418 3.207675,-0.4142 4.375668,-1.412607 1.174881,-1.004589 1.939762,-2.543928 1.939762,-3.910169 0,-2.516109 -1.081858,-3.678341 -3.142212,-4.908577"
       style="fill:#191412;fill-opacity:1;fill-rule:nonzero;stroke:none"
       id="path1152" />
    <path
       inkscape:connector-curvature="0"
       d="m 98.201022,18.895499 c -0.561602,0 -1.664132,-2.185368 -1.664132,-6.197541 0,-3.9503536 1.078412,-6.3644582 1.664132,-6.3644582 0.985386,0 2.043128,2.5562926 2.043128,6.3644582 0,3.829802 -1.061187,6.197541 -2.043128,6.197541 z M 98.39741,2.6613406 c -3.876084,0 -6.914934,4.4109185 -6.914934,10.0366174 0,5.63188 3.03885,10.039708 6.914934,10.039708 3.87264,0 6.90804,-4.407828 6.90804,-10.039708 0,-5.6256989 -3.0354,-10.0366174 -6.90804,-10.0366174"
       style="fill:#191412;fill-opacity:1;fill-rule:nonzero;stroke:none"
       id="path1154" />
    <path
       inkscape:connector-curvature="0"
       d="m 71.705833,19.322063 c 0.0033,-0.0062 0.01378,-0.0062 0.01709,-0.0091 0.0036,-0.0062 0.0069,-0.01236 0.01047,-0.01558 l -0.02756,0.02473"
       style="fill:#191412;fill-opacity:1;fill-rule:nonzero;stroke:none"
       id="path1156" />
    <path
       inkscape:connector-curvature="0"
       d="m 74.851491,19.322063 -0.01378,-0.01533 -0.01736,-0.01236 c -0.847571,-0.565661 -2.167162,-0.794398 -3.097422,0.01855 -0.916479,0.636755 -0.878579,1.845353 -0.437567,2.432651 0.303196,0.411109 0.695972,0.812945 1.271355,0.936586 -0.04479,0.200918 -0.310086,0.398745 -0.744208,0.652211 -0.07924,0.04018 -0.151598,0.08964 -0.227397,0.132914 -0.158488,0.068 -0.29975,0.126733 -0.416894,0.170008 -0.310087,0.12055 -0.534038,0.213282 -0.506475,0.448201 0.02756,0.250374 0.303196,0.299831 0.806225,0.395654 l 0.06202,0 c 1.019841,0 2.925151,-0.893312 3.383391,-2.086455 0.627064,-1.146777 0.606391,-2.466652 -0.06202,-3.072496"
       style="fill:#191412;fill-opacity:1;fill-rule:nonzero;stroke:none"
       id="path1158" />
    <path
       inkscape:connector-curvature="0"
       d="m 74.916954,22.385287 c 0,0 -0.0033,0.0062 -0.0033,0.0094 -0.0036,0.003 -0.0069,0.01236 -0.01378,0.01855 l 0.01709,-0.02794"
       style="fill:#191412;fill-opacity:1;fill-rule:nonzero;stroke:none"
       id="path1160" />
    <path
       inkscape:connector-curvature="0"
       d="m 91.289533,-11.303992 3.500535,0 0,-10.9052 c 0,-1.279692 -1.422954,-3.897806 -3.369609,-4.101814 -2.387668,-0.466748 -4.141381,0.04018 -5.068196,1.353876 -1.088749,-1.687709 -2.732208,-1.508429 -3.962219,-1.353876 l 0.04134,-0.0032 c -0.92337,0 -1.722704,0.389471 -2.242961,0.939677 l 0,-0.584207 -2.725318,0 0,14.654635 3.50398,0 0,-9.504957 c 0,-1.406425 0.813117,-2.030816 1.615897,-2.030816 0.844125,0 1.695141,0.695485 1.695141,2.030816 l 0,9.504957 3.693477,0 0,-9.504957 c 0,-1.341513 0.961269,-2.173004 1.85363,-2.173004 0.709754,0 1.464298,0.571843 1.464298,2.173004 l 0,9.504957"
       style="fill:#191412;fill-opacity:1;fill-rule:nonzero;stroke:none"
       id="path1162" />
  </g>
</svg>
