<?xml version="1.0" encoding="UTF-8" standalone="no"?>
<!-- Created with Inkscape (http://www.inkscape.org/) -->

<svg
   xmlns:dc="http://purl.org/dc/elements/1.1/"
   xmlns:cc="http://creativecommons.org/ns#"
   xmlns:rdf="http://www.w3.org/1999/02/22-rdf-syntax-ns#"
   xmlns:svg="http://www.w3.org/2000/svg"
   xmlns="http://www.w3.org/2000/svg"
   xmlns:sodipodi="http://sodipodi.sourceforge.net/DTD/sodipodi-0.dtd"
   xmlns:inkscape="http://www.inkscape.org/namespaces/inkscape"
   id="svg2993"
   version="1.1"
   preserveAspectRatio="xMinYMin meet"
   viewBox="0 0 145 130"
   inkscape:version="0.48.3.1 r9886"
   sodipodi:docname="cod_1.svg"
   width="100%"
   height="100%">
  <defs
     id="defs2995" />
  <sodipodi:namedview
     id="base"
     pagecolor="#ffffff"
     bordercolor="#666666"
     borderopacity="1.0"
     inkscape:pageopacity="0.0"
     inkscape:pageshadow="2"
     inkscape:zoom="4.0153846"
     inkscape:cx="72.5"
     inkscape:cy="65"
     inkscape:current-layer="layer1"
     showgrid="true"
     inkscape:document-units="px"
     inkscape:grid-bbox="true"
     inkscape:window-width="1366"
     inkscape:window-height="692"
     inkscape:window-x="0"
     inkscape:window-y="24"
     inkscape:window-maximized="1" />
  <metadata
     id="metadata2998">
    <rdf:RDF>
      <cc:Work
         rdf:about="">
        <dc:format>image/svg+xml</dc:format>
        <dc:type
           rdf:resource="http://purl.org/dc/dcmitype/StillImage" />
        <dc:title></dc:title>
      </cc:Work>
    </rdf:RDF>
  </metadata>
  <g
     id="layer1"
     inkscape:label="Layer 1"
     inkscape:groupmode="layer"
     transform="translate(0,66)">
    <path
       inkscape:connector-curvature="0"
       d="m 143.37523,59.570624 c -1.35166,2.378604 -3.77606,3.810138 -6.47581,3.810138 l -128.7939272,0 c -2.7033209,0 -5.1277277,-1.424249 -6.4793881,-3.810138 -1.3480846,-2.378604 -1.3480846,-5.238029 0,-7.616633 l 64.3933903,-113.5319 c 1.355236,-2.385889 3.779643,-3.806495 6.486537,-3.806495 2.699748,0 5.113427,1.420606 6.472236,3.806495 l 64.393392,113.5319 c 1.35881,2.378604 1.35881,5.230744 0.003,7.616633 z M 79.50749,-61.887528 C 78.048555,-64.466474 75.427478,-66 72.506032,-66 c -2.932171,0 -5.549675,1.533526 -7.015759,4.112472 L 1.0968832,51.64073 c -1.46251092,2.578946 -1.46251092,5.66421 0,8.243156 C 2.5558182,62.455547 5.1840468,64 8.1054928,64 L 136.89942,64 c 2.92502,0 5.53895,-1.544453 7.00503,-4.123399 1.46252,-2.578946 1.45894,-5.656925 0,-8.235871 L 79.50749,-61.887528"
       style="fill:#191412;fill-opacity:1;fill-rule:nonzero;stroke:none"
       id="path1178" />
    <path
       inkscape:connector-curvature="0"
       d="m 23.095335,46.952731 49.410697,-87.101348 49.396398,87.101348 -98.807095,0 z M 76.997266,-60.408641 c -2.00246,-3.526017 -6.994306,-3.526017 -8.99319,0 C 46.541997,-22.576816 25.07634,15.280507 3.6071097,53.119617 c -1.9953083,3.518731 0.5041908,7.929894 4.4983831,7.929894 l 128.7939272,0 c 3.9942,0 6.49012,-4.411163 4.49123,-7.929894 -21.4585,-37.83911 -42.927729,-75.696433 -64.393387,-113.528258"
       style="fill:#c13339;fill-opacity:1;fill-rule:nonzero;stroke:none"
       id="path1180" />
    <path
       inkscape:connector-curvature="0"
       d="m 60.895343,17.568046 c -0.182367,-0.189414 -0.361161,-0.189414 -0.543522,-0.189414 -0.715164,0 -1.616271,0.542744 -1.802217,1.28583 -0.35043,1.107344 0.185943,2.196476 1.087053,2.568019 l 0.715164,0 c 0.729468,0 1.444632,-0.371543 1.798635,-1.289473 0.361158,-0.914288 -0.354006,-2.021632 -1.255113,-2.374962"
       style="fill:#ffffff;fill-opacity:1;fill-rule:nonzero;stroke:none"
       id="path1182" />
    <path
       inkscape:connector-curvature="0"
       d="m 91.125339,28.739836 c -0.182367,-0.185772 -0.361164,-0.185772 -0.722316,-0.185772 -0.718746,0 -1.441059,0.55003 -1.802214,1.285831 -0.354009,1.096416 0.361155,2.18919 1.269416,2.564375 l 0.532798,0 c 0.901107,0 1.616271,-0.375185 1.798635,-1.289473 0.361158,-0.907002 -0.182367,-2.010703 -1.076319,-2.374961"
       style="fill:#ffffff;fill-opacity:1;fill-rule:nonzero;stroke:none"
       id="path1184" />
    <path
       inkscape:connector-curvature="0"
       d="M 92.923971,19.400263 90.764175,18.664462 86.448159,11.339236 80.866302,9.32489 79.071239,14.449999 77.808977,13.896327 79.611191,8.7748606 74.200974,6.7605144 68.812211,10.603435 62.150456,8.0390597 70.78964,3.8245958 l 16.548901,6.2251672 5.585433,9.3505 z M 103.89817,29.464709 50.27873,9.4997338 52.438529,5.1104262 c 0,0 38.504437,14.2898368 39.945496,14.8325818 l 11.514145,5.132393 0,4.389308 z m 6.30059,7.518283 c 0,0 0.71874,2.014346 0.89753,2.014346 -1.44462,-0.3679 -2.33858,-1.653731 -4.85953,-1.100059 -1.61985,0.546387 -2.51738,1.460674 -4.32317,1.460674 -1.6127,-0.174843 -2.692595,-1.096416 -4.670024,-1.460674 -1.616271,0.182129 -3.239694,1.100059 -4.68075,1.460674 -2.517378,0 -3.239694,-1.096416 -5.224275,-1.278545 -2.513802,0 -3.5937,1.278545 -5.935863,1.278545 -1.791487,0 -2.874961,-1.278545 -5.038332,-1.278545 -1.433905,0.55003 -2.692594,1.103702 -4.312441,1.646446 -2.52453,-0.185772 -3.418485,-1.464317 -5.403066,-1.646446 -2.15622,0.182129 -3.239694,1.646446 -5.392338,1.646446 -1.444632,-0.367901 -2.706897,-1.096416 -4.140801,-1.464317 -0.722316,-0.364258 -1.802214,0 -2.882112,0.367901 l 0,-1.464317 c 1.262265,-0.553672 2.159796,-0.553672 3.422061,-0.371543 1.43748,0.550029 2.338587,1.467959 3.954858,1.467959 1.444632,-0.546387 2.882112,-1.467959 4.501959,-1.650088 2.163372,0 3.783219,1.467959 5.760648,1.467959 1.977432,-0.546387 3.05733,-1.642803 4.855965,-1.642803 2.692597,0.174844 3.414913,1.278545 4.855966,1.278545 1.981005,0.182129 3.779643,-1.278545 5.578281,-1.278545 1.977429,0 3.239694,1.642803 5.038332,1.278545 1.623423,-0.182129 2.699748,-1.103701 4.323165,-1.464316 2.335014,0 3.422064,1.092773 5.388767,1.464316 1.62342,0 1.98458,-0.371543 3.41848,-1.103701 1.80579,-0.546387 3.60443,-0.360615 4.8667,0.371543 z m -3.962,3.47502 c -1.43748,0.739444 -2.51738,1.646446 -4.32317,1.464317 -1.6127,-0.171201 -2.51738,-1.096416 -4.487657,-1.274903 -1.798638,0 -3.239694,0.914288 -4.863117,1.457032 -2.33859,0 -3.239694,-1.096416 -5.224278,-1.457032 -2.331432,0 -3.407755,1.457032 -5.753493,1.457032 -1.973854,0 -3.057328,-1.278545 -5.038332,-1.278545 -1.441056,0.371543 -2.874961,1.096416 -4.316017,1.464316 -2.520954,-0.185771 -3.597276,-1.282187 -5.581857,-1.464316 -1.973853,0.182129 -3.053751,1.464316 -5.213547,1.464316 -1.623423,-0.185771 -2.885688,-0.910644 -4.319592,-1.464316 -0.722316,-0.367901 -1.802214,0 -2.882112,0.371543 l 0,-1.471602 c 1.262265,-0.542744 2.338587,-0.542744 3.597276,-0.185772 1.441056,0.55003 2.342163,1.285831 3.779643,1.285831 1.619847,-0.367901 3.064479,-1.285831 4.501959,-1.642803 2.342163,0.174843 3.954858,1.642803 5.939439,1.642803 1.977429,-0.55003 3.053752,-1.828575 4.677174,-1.642803 2.692594,0.174843 3.590125,1.274902 5.038333,1.274902 1.798635,0 3.597276,-1.460674 5.571126,-1.460674 1.984584,0 3.064479,1.828575 5.045487,1.460674 1.619844,-0.3679 2.517378,-1.274902 4.316013,-1.460674 2.159799,0 3.246846,1.092774 5.213552,1.460674 1.62342,-0.182129 2.16694,-0.546387 3.608,-1.274902 1.61627,-0.553672 3.41491,-0.185772 4.67717,0.542744 0.18595,-0.185772 0.89753,1.83586 0.89753,1.83586 -1.44462,-0.182129 -2.33858,-1.471602 -4.85953,-1.103702 z m -53.798231,1.832217 -21.054439,0 13.677517,-24.186724 7.376922,0 0,24.186724 z M 64.313828,20.860938 c -0.547103,1.650088 -2.163375,2.750147 -3.962007,2.750147 -0.539955,0 -1.079898,0 -1.441062,-0.185772 -2.338587,-0.735801 -3.414909,-3.482305 -2.70332,-5.503937 0.72947,-1.824932 2.342165,-2.917705 4.144382,-2.917705 0.361155,0 0.90468,0 1.444632,0.182129 2.152644,0.910644 3.232542,3.478662 2.517378,5.675138 z m 21.415591,7.878898 -20.518063,-7.689484 c 0.715165,-2.021632 0,-4.214464 -1.616268,-5.686066 l 26.807929,10.075373 c -2.156217,-0.189414 -3.954858,1.278545 -4.673598,3.300177 z m 8.810823,3.289249 c -0.715164,1.657373 -2.338587,2.750147 -4.137225,2.750147 -0.357582,0.182129 -0.897531,0 -1.441053,-0.178487 -2.159799,-0.732158 -3.232545,-3.485948 -2.513803,-5.496651 0.53995,-1.832218 2.335012,-2.932276 3.954859,-2.932276 0.539949,0 1.076322,0 1.616271,0.185771 2.166948,0.914287 3.239694,3.482306 2.520954,5.671496 z m -0.536373,-5.310881 9.175561,3.489591 -3.232546,3.110763 -4.687902,-0.914288 c 0.722316,-2.014346 0.185943,-4.214464 -1.255113,-5.686066 z M 50.089208,10.417664 60.173024,14.26787 c -2.15622,-0.189414 -3.965585,1.28583 -4.677174,3.300176 l -5.753493,-2.75379 0.346854,-4.396592 z m -26.993873,36.535067 98.807095,0 -49.396393,-87.101348 -49.410702,87.101348"
       style="fill:#ffffff;fill-opacity:1;fill-rule:nonzero;stroke:none"
       id="path1186" />
    <path
       inkscape:connector-curvature="0"
       d="m 96.524823,36.250834 c -1.623417,0.360615 -2.699745,1.282187 -4.323165,1.464316 -1.798638,0.364258 -3.060903,-1.278545 -5.038332,-1.278545 -1.798638,0 -3.597276,1.460674 -5.578281,1.278545 -1.441056,0 -2.163372,-1.103701 -4.855966,-1.278545 -1.798638,0 -2.878536,1.096416 -4.855965,1.642803 -1.977429,0 -3.597276,-1.467959 -5.760648,-1.467959 -1.619847,0.182129 -3.057327,1.103701 -4.501959,1.650088 -1.616271,0 -2.517378,-0.91793 -3.954858,-1.467959 -1.262265,-0.182129 -2.159796,-0.182129 -3.422061,0.371543 l 0,1.464317 c 1.079898,-0.367901 2.159796,-0.732159 2.882112,-0.367901 1.433904,0.367901 2.696169,1.096416 4.140801,1.464317 2.152644,0 3.236118,-1.464317 5.392338,-1.646446 1.984581,0.182129 2.878536,1.460674 5.403066,1.646446 1.619847,-0.542744 2.878536,-1.096416 4.312441,-1.646446 2.163371,0 3.246845,1.278545 5.038332,1.278545 2.342163,0 3.422061,-1.278545 5.935863,-1.278545 1.984581,0.182129 2.706897,1.278545 5.224275,1.278545 1.441056,-0.360615 3.064479,-1.278545 4.68075,-1.460674 1.977429,0.364258 3.057324,1.285831 4.670024,1.460674 1.80579,0 2.70332,-0.914287 4.32317,-1.460674 2.52095,-0.553672 3.41491,0.732159 4.85953,1.100059 -0.17879,0 -0.89753,-2.014346 -0.89753,-2.014346 -1.26226,-0.732158 -3.0609,-0.91793 -4.86669,-0.371543 -1.4339,0.732158 -1.79506,1.103701 -3.41848,1.103701 -1.966706,-0.371543 -3.053756,-1.464316 -5.388767,-1.464316"
       style="fill:#191412;fill-opacity:1;fill-rule:nonzero;stroke:none"
       id="path1188" />
    <path
       inkscape:connector-curvature="0"
       d="m 110.19877,39.725854 c -1.26227,-0.728516 -3.06091,-1.096416 -4.67718,-0.542744 -1.44105,0.728515 -1.98458,1.092773 -3.608,1.274902 -1.966701,-0.3679 -3.053753,-1.460674 -5.213546,-1.460674 -1.798638,0.185772 -2.696169,1.092774 -4.316016,1.460674 -1.981005,0.367901 -3.060903,-1.460674 -5.045487,-1.460674 -1.973853,0 -3.772491,1.460674 -5.571127,1.460674 -1.44821,0 -2.345738,-1.100059 -5.038335,-1.274902 -1.623422,-0.185772 -2.699745,1.092773 -4.677174,1.642803 -1.984581,0 -3.597276,-1.46796 -5.939439,-1.642803 -1.43748,0.356972 -2.882112,1.274902 -4.501959,1.642803 -1.43748,0 -2.338587,-0.735801 -3.779643,-1.285831 -1.258689,-0.356972 -2.335011,-0.356972 -3.597276,0.185772 l 0,1.471602 c 1.079898,-0.371543 2.159796,-0.739444 2.882112,-0.371543 1.433904,0.553672 2.696169,1.278545 4.319592,1.464316 2.159796,0 3.239694,-1.282187 5.213547,-1.464316 1.984581,0.182129 3.060903,1.278545 5.581857,1.464316 1.441056,-0.3679 2.874961,-1.092773 4.316017,-1.464316 1.981004,0 3.064478,1.278545 5.038332,1.278545 2.345738,0 3.422061,-1.457032 5.753493,-1.457032 1.984584,0.360616 2.885691,1.457032 5.224278,1.457032 1.623425,-0.542744 3.064479,-1.457032 4.863114,-1.457032 1.97028,0.178487 2.87496,1.103702 4.48766,1.274903 1.80579,0.182129 2.88569,-0.724873 4.32317,-1.464317 2.52095,-0.3679 3.41491,0.921573 4.85954,1.103702 0,0 -0.71159,-2.021632 -0.89753,-1.83586"
       style="fill:#191412;fill-opacity:1;fill-rule:nonzero;stroke:none"
       id="path1190" />
    <path
       inkscape:connector-curvature="0"
       d="m 52.438529,5.1104262 -2.159799,4.3893076 53.61944,19.9649752 0,-4.389308 -11.514145,-5.132393 C 90.942966,19.400263 52.438529,5.1104262 52.438529,5.1104262"
       style="fill:#191412;fill-opacity:1;fill-rule:nonzero;stroke:none"
       id="path1192" />
    <path
       inkscape:connector-curvature="0"
       d="m 92.201655,31.114797 c -0.182367,0.914288 -0.897531,1.289473 -1.798638,1.289473 l -0.532797,0 c -0.908259,-0.375185 -1.623423,-1.467959 -1.269417,-2.564375 0.361158,-0.735801 1.083474,-1.285831 1.802214,-1.285831 0.361158,0 0.539949,0 0.722316,0.185772 0.893955,0.364258 1.43748,1.467959 1.076322,2.374961 z m -0.182367,-4.757208 c -0.539949,-0.185771 -1.076322,-0.185771 -1.616271,-0.185771 -1.619844,0 -3.414909,1.100058 -3.954858,2.932276 -0.71874,2.010703 0.354006,4.764493 2.513802,5.496651 0.543525,0.178487 1.083477,0.360616 1.441059,0.178487 1.798638,0 3.422061,-1.092774 4.137225,-2.750147 0.71874,-2.18919 -0.354006,-4.757209 -2.520954,-5.671496"
       style="fill:#191412;fill-opacity:1;fill-rule:nonzero;stroke:none"
       id="path1194" />
    <path
       inkscape:connector-curvature="0"
       d="m 62.150453,19.943008 c -0.354,0.91793 -1.069164,1.289473 -1.798635,1.289473 l -0.715164,0 c -0.901107,-0.371543 -1.43748,-1.460675 -1.08705,-2.568019 0.185943,-0.743086 1.08705,-1.28583 1.802214,-1.28583 0.182367,0 0.361158,0 0.543525,0.189414 0.901104,0.35333 1.616268,1.460674 1.25511,2.374962 z M 61.79645,15.1858 c -0.539952,-0.182129 -1.083477,-0.182129 -1.444632,-0.182129 -1.802214,0 -3.414912,1.092773 -4.144379,2.917705 -0.711586,2.021632 0.364733,4.768136 2.70332,5.503937 0.361161,0.185772 0.901107,0.185772 1.441059,0.185772 1.798638,0 3.414909,-1.100059 3.96201,-2.750147 0.715164,-2.196476 -0.364734,-4.764494 -2.517378,-5.675138"
       style="fill:#191412;fill-opacity:1;fill-rule:nonzero;stroke:none"
       id="path1196" />
    <path
       inkscape:connector-curvature="0"
       d="m 99.946887,33.318558 3.232543,-3.110763 -9.175558,-3.489591 c 1.441056,1.471602 1.977429,3.67172 1.255113,5.686066 l 4.687902,0.914288"
       style="fill:#191412;fill-opacity:1;fill-rule:nonzero;stroke:none"
       id="path1198" />
    <path
       inkscape:connector-curvature="0"
       d="m 62.150453,8.0390597 6.661755,2.5643753 5.388766,-3.8429206 5.410217,2.0143462 -1.802214,5.1214664 1.262265,0.553672 1.795063,-5.125109 5.581856,2.014346 4.316017,7.325226 2.159796,0.735801 -5.585433,-9.3505 L 70.78964,3.8245958 62.150456,8.0390597"
       style="fill:#191412;fill-opacity:1;fill-rule:nonzero;stroke:none"
       id="path1200" />
    <path
       inkscape:connector-curvature="0"
       d="m 65.211356,21.050352 20.518063,7.689484 C 86.448164,26.718204 88.2468,25.250245 90.40302,25.439659 L 63.595088,15.364286 c 1.616271,1.471602 2.331435,3.664434 1.616271,5.686066"
       style="fill:#191412;fill-opacity:1;fill-rule:nonzero;stroke:none"
       id="path1202" />
    <path
       inkscape:connector-curvature="0"
       d="m 60.17303,14.26787 -10.083816,-3.850206 -0.346857,4.396592 5.753496,2.75379 c 0.711588,-2.014346 2.520954,-3.48959 4.677174,-3.300176"
       style="fill:#191412;fill-opacity:1;fill-rule:nonzero;stroke:none"
       id="path1204" />
    <path
       inkscape:connector-curvature="0"
       d="m 31.384088,42.290229 21.054438,0 0,-24.186724 -7.376922,0 -13.677516,24.186724"
       style="fill:#191412;fill-opacity:1;fill-rule:nonzero;stroke:none"
       id="path1206" />
  </g>
</svg>
