<?xml version="1.0" encoding="UTF-8" standalone="no"?>
<!-- Created with Inkscape (http://www.inkscape.org/) -->

<svg
   xmlns:dc="http://purl.org/dc/elements/1.1/"
   xmlns:cc="http://creativecommons.org/ns#"
   xmlns:rdf="http://www.w3.org/1999/02/22-rdf-syntax-ns#"
   xmlns:svg="http://www.w3.org/2000/svg"
   xmlns="http://www.w3.org/2000/svg"
   xmlns:sodipodi="http://sodipodi.sourceforge.net/DTD/sodipodi-0.dtd"
   xmlns:inkscape="http://www.inkscape.org/namespaces/inkscape"
   id="svg2993"
   version="1.1"
   preserveAspectRatio="xMinYMin meet"
   viewBox="0 0 145 130"
   inkscape:version="0.48.3.1 r9886"
   sodipodi:docname="cod_1.svg"
   width="100%"
   height="100%">
  <defs
     id="defs2995" />
  <sodipodi:namedview
     id="base"
     pagecolor="#ffffff"
     bordercolor="#666666"
     borderopacity="1.0"
     inkscape:pageopacity="0.0"
     inkscape:pageshadow="2"
     inkscape:zoom="4.0153846"
     inkscape:cx="72.5"
     inkscape:cy="65"
     inkscape:current-layer="layer1"
     showgrid="true"
     inkscape:document-units="px"
     inkscape:grid-bbox="true"
     inkscape:window-width="1366"
     inkscape:window-height="692"
     inkscape:window-x="0"
     inkscape:window-y="24"
     inkscape:window-maximized="1" />
  <metadata
     id="metadata2998">
    <rdf:RDF>
      <cc:Work
         rdf:about="">
        <dc:format>image/svg+xml</dc:format>
        <dc:type
           rdf:resource="http://purl.org/dc/dcmitype/StillImage" />
        <dc:title></dc:title>
      </cc:Work>
    </rdf:RDF>
  </metadata>
  <g
     id="layer1"
     inkscape:label="Layer 1"
     inkscape:groupmode="layer"
     transform="translate(0,66)">
    <path
       inkscape:connector-curvature="0"
       d="m 143.37659,59.566857 c -1.35165,2.389599 -3.77961,3.813887 -6.4829,3.813887 l -128.7891661,0 c -2.6997202,0 -5.1241045,-1.424288 -6.4793282,-3.810244 -1.34807212,-2.382313 -1.34807212,-5.227247 0,-7.616846 L 31.511634,-0.73408429 66.021565,-61.581428 c 1.351649,-2.385956 3.776033,-3.806602 6.479327,-3.806602 2.703297,0 5.124106,1.420646 6.482906,3.806602 L 143.37659,51.953654 c 1.34807,2.389599 1.34807,5.23089 0,7.613203 z M 79.509437,-61.891056 C 78.043366,-64.470074 75.422313,-66 72.500892,-66 c -2.928569,0 -5.546047,1.529926 -7.008542,4.108944 L 30.982416,-1.0473549 1.0995549,51.644026 c -1.46607318,2.579018 -1.46607318,5.660726 0,8.239744 C 2.5620522,62.459146 5.1831049,64 8.1045239,64 L 136.89369,64 c 2.93214,0 5.54962,-1.540854 7.01212,-4.119872 1.45892,-2.579018 1.45892,-5.657084 0,-8.236102 L 79.509437,-61.891056"
       style="fill:#191412;fill-opacity:1;fill-rule:nonzero;stroke:none"
       id="path1328" />
    <path
       inkscape:connector-curvature="0"
       d="m 23.094228,46.952253 49.406664,-87.103789 49.406668,87.103789 -98.813332,0 z M 76.999236,-60.408485 c -1.998867,-3.5334 -6.997817,-3.5334 -8.993109,0 C 46.540672,-22.5756 25.075215,15.279141 3.6097582,53.122954 c -1.9988656,3.522473 0.5041862,7.926474 4.4947657,7.926474 l 128.7891661,0 c 3.99415,0 6.4972,-4.404001 4.49476,-7.926474 C 119.92657,15.279141 98.464691,-22.5756 76.999236,-60.408485"
       style="fill:#c13339;fill-opacity:1;fill-rule:nonzero;stroke:none"
       id="path1330" />
    <path
       inkscape:connector-curvature="0"
       d="m 80.507085,20.677595 c -1.44462,2.207464 -3.772458,4.032448 -6.125326,4.768269 l -11.14931,-4.768269 c 2.342142,0 8.095587,-0.732179 10.076573,-5.125252 2.338566,-5.128895 0.17879,-9.3434773 -0.904673,-10.9899691 l 9.71899,7.6969851 c 0.361156,2.746581 -0.354001,6.225342 -1.616254,8.418236 z m 7.198059,4.221867 c 1.441043,-2.753867 1.441043,-5.318314 0.893949,-7.14694 l 5.939385,4.757341 c 0.364728,2.014403 -0.71516,4.946761 -1.433892,6.046851 -1.083464,1.65742 -2.520931,2.742939 -3.783185,3.296626 l -7.376852,-3.114492 c 1.619833,-0.553688 4.315979,-1.282224 5.760595,-3.839386 z m 10.974095,6.400191 c 0.897522,-1.460716 1.269405,-3.292984 0.897522,-4.571565 l 4.501919,3.486046 c 0.35758,1.639206 -0.17879,3.107207 -0.90468,4.017877 -0.71873,1.285866 -1.79146,2.02533 -2.69614,2.564447 l -5.574654,-2.564447 c 1.437468,-0.364268 2.878511,-1.460715 3.776033,-2.932358 z M 61.794985,19.581148 c -0.364732,0.182134 -0.904674,-0.182134 -0.904674,-0.371554 L 57.65422,6.2088657 69.886993,3.0980161 c 0.357577,0 0.901098,0.1821341 0.901098,0.7321789 0,0.3679108 -0.17879,0.7321789 -0.543521,0.914313 L 59.631633,7.4910894 62.334927,18.666835 c 0.17879,0.732179 -0.182366,0.732179 -0.539942,0.914313 z m -5.041863,22.533624 -2.699721,0 0,-34.8058166 c 0,-0.7358216 0.543521,-1.4643578 1.262254,-1.4643578 0.715159,0 1.258677,0.7285362 1.437467,1.4643578 l 0,34.8058166 z m -33.658894,4.837481 98.813332,0 -49.406668,-87.103789 -49.406664,87.103789"
       style="fill:#ffffff;fill-opacity:1;fill-rule:nonzero;stroke:none"
       id="path1332" />
    <path
       inkscape:connector-curvature="0"
       d="m 55.315655,5.8445976 c -0.718733,0 -1.262254,0.7285362 -1.262254,1.4643578 l 0,34.8058166 2.699721,0 0,-34.8058166 C 56.574332,6.5731338 56.030814,5.8445976 55.315655,5.8445976"
       style="fill:#191412;fill-opacity:1;fill-rule:nonzero;stroke:none"
       id="path1334" />
    <path
       inkscape:connector-curvature="0"
       d="M 59.631633,7.4910894 70.24457,4.744508 c 0.364731,-0.1821341 0.543521,-0.5464022 0.543521,-0.914313 0,-0.5500448 -0.543521,-0.7321789 -0.901098,-0.7321789 L 57.65422,6.2088657 60.890311,19.209594 c 0,0.18942 0.539942,0.553688 0.904674,0.371554 0.357576,-0.182134 0.718732,-0.182134 0.539942,-0.914313 L 59.631633,7.4910894"
       style="fill:#191412;fill-opacity:1;fill-rule:nonzero;stroke:none"
       id="path1336" />
    <path
       inkscape:connector-curvature="0"
       d="m 73.309022,15.552343 c -1.980986,4.393073 -7.734431,5.125252 -10.076573,5.125252 l 11.14931,4.768269 c 2.352868,-0.735821 4.680706,-2.560805 6.125326,-4.768269 1.262253,-2.192894 1.97741,-5.671655 1.616254,-8.418236 l -9.71899,-7.6969851 c 1.083463,1.6464918 3.243239,5.8610741 0.904673,10.9899691"
       style="fill:#191412;fill-opacity:1;fill-rule:nonzero;stroke:none"
       id="path1338" />
    <path
       inkscape:connector-curvature="0"
       d="m 89.321401,31.85334 c 1.262254,-0.553687 2.699721,-1.639206 3.783185,-3.296626 0.718732,-1.10009 1.79862,-4.032448 1.433892,-6.046851 l -5.939385,-4.757341 c 0.547094,1.828626 0.547094,4.393073 -0.893949,7.14694 -1.444616,2.557162 -4.140762,3.285698 -5.760595,3.839386 l 7.376852,3.114492"
       style="fill:#191412;fill-opacity:1;fill-rule:nonzero;stroke:none"
       id="path1340" />
    <path
       inkscape:connector-curvature="0"
       d="m 103.174,34.232011 c 0.72589,-0.91067 1.26226,-2.378671 0.90468,-4.017877 l -4.501919,-3.486046 c 0.371883,1.278581 0,3.110849 -0.897522,4.571565 -0.897522,1.471643 -2.338565,2.56809 -3.776033,2.932358 l 5.574654,2.564447 c 0.90468,-0.539117 1.97741,-1.278581 2.69614,-2.564447"
       style="fill:#191412;fill-opacity:1;fill-rule:nonzero;stroke:none"
       id="path1342" />
  </g>
</svg>
