<?xml version="1.0" encoding="UTF-8" standalone="no"?>
<!-- Created with Inkscape (http://www.inkscape.org/) -->

<svg
   xmlns:dc="http://purl.org/dc/elements/1.1/"
   xmlns:cc="http://creativecommons.org/ns#"
   xmlns:rdf="http://www.w3.org/1999/02/22-rdf-syntax-ns#"
   xmlns:svg="http://www.w3.org/2000/svg"
   xmlns="http://www.w3.org/2000/svg"
   xmlns:sodipodi="http://sodipodi.sourceforge.net/DTD/sodipodi-0.dtd"
   xmlns:inkscape="http://www.inkscape.org/namespaces/inkscape"
   id="svg2993"
   version="1.1"
   preserveAspectRatio="xMinYMin meet"
   viewBox="0 0 145 130"
   inkscape:version="0.48.4 r9939"
   sodipodi:docname="cod_349.svg"
   width="100%"
   height="100%">
  <defs
     id="defs2995">
    <clipPath
       clipPathUnits="userSpaceOnUse"
       id="clipPath3570">
      <path
         inkscape:connector-curvature="0"
         d="m 43.696,200.037 109.817,0 0,135.081 -109.817,0 0,-135.081 z"
         id="path3572" />
    </clipPath>
  </defs>
  <sodipodi:namedview
     id="base"
     pagecolor="#ffffff"
     bordercolor="#666666"
     borderopacity="1.0"
     inkscape:pageopacity="0.0"
     inkscape:pageshadow="2"
     inkscape:zoom="0.70597302"
     inkscape:cx="3.0748299"
     inkscape:cy="-58.273586"
     inkscape:current-layer="layer1"
     showgrid="true"
     inkscape:document-units="px"
     inkscape:grid-bbox="true"
     inkscape:window-width="1311"
     inkscape:window-height="744"
     inkscape:window-x="55"
     inkscape:window-y="24"
     inkscape:window-maximized="1" />
  <metadata
     id="metadata2998">
    <rdf:RDF>
      <cc:Work
         rdf:about="">
        <dc:format>image/svg+xml</dc:format>
        <dc:type
           rdf:resource="http://purl.org/dc/dcmitype/StillImage" />
        <dc:title></dc:title>
      </cc:Work>
    </rdf:RDF>
  </metadata>
  <g
     id="layer1"
     inkscape:label="Layer 1"
     inkscape:groupmode="layer"
     transform="translate(0,66)">
    <g
       id="g4522"
       transform="matrix(2.8210666,0,0,-2.5309063,72.501411,63.240728)">
      <path
         inkscape:connector-curvature="0"
         d="m 0,0 c -14.006,0 -25.399,11.387 -25.399,25.384 0,13.995 11.393,25.382 25.399,25.382 14.004,0 25.4,-11.387 25.4,-25.382 C 25.4,11.387 14.004,0 0,0 m 0,51.065 c -14.171,0 -25.7,-11.521 -25.7,-25.681 C -25.7,11.221 -14.171,-0.3 0,-0.3 c 14.171,0 25.699,11.521 25.699,25.684 0,14.16 -11.528,25.681 -25.699,25.681"
         style="fill:#1f1916;fill-opacity:1;fill-rule:nonzero;stroke:none"
         id="path4524" />
    </g>
    <g
       id="g4526"
       transform="matrix(2.8210666,0,0,-2.5309063,67.020078,7.7288426)">
      <path
         inkscape:connector-curvature="0"
         d="m 0,0 1.137,-6.895 c 0,-0.2 0,-0.267 -0.066,-0.401 -0.134,-0.069 -0.333,-0.135 -0.47,-0.069 l -18.49,10.848 18.49,10.78 c 0.137,0.065 0.336,0 0.47,-0.067 0.066,-0.133 0.066,-0.202 0.066,-0.404 L 0,6.898 21.776,6.898 21.776,0 0,0 z m 1.943,28.128 c -13.641,0 -24.698,-11.048 -24.698,-24.677 0,-13.632 11.057,-24.682 24.698,-24.682 13.641,0 24.697,11.05 24.697,24.682 0,13.629 -11.056,24.677 -24.697,24.677"
         style="fill:#00458f;fill-opacity:1;fill-rule:nonzero;stroke:none"
         id="path4528" />
    </g>
    <g
       id="g4530"
       transform="matrix(2.8210666,0,0,-2.5309063,67.020078,-9.7295917)">
      <path
         inkscape:connector-curvature="0"
         d="m 0,0 1.137,6.894 c 0,0.202 0,0.27 -0.066,0.404 C 0.937,7.365 0.738,7.43 0.601,7.365 l -18.49,-10.78 18.49,-10.848 c 0.137,-0.066 0.336,0 0.47,0.069 0.066,0.134 0.066,0.201 0.066,0.401 L 0,-6.898 l 21.776,0 0,6.898 L 0,0 z"
         style="fill:#ffffff;fill-opacity:1;fill-rule:nonzero;stroke:none"
         id="path4532" />
    </g>
  </g>
</svg>
