<?xml version="1.0" encoding="UTF-8" standalone="no"?>
<!-- Created with Inkscape (http://www.inkscape.org/) -->

<svg
   xmlns:dc="http://purl.org/dc/elements/1.1/"
   xmlns:cc="http://creativecommons.org/ns#"
   xmlns:rdf="http://www.w3.org/1999/02/22-rdf-syntax-ns#"
   xmlns:svg="http://www.w3.org/2000/svg"
   xmlns="http://www.w3.org/2000/svg"
   xmlns:sodipodi="http://sodipodi.sourceforge.net/DTD/sodipodi-0.dtd"
   xmlns:inkscape="http://www.inkscape.org/namespaces/inkscape"
   id="svg2993"
   version="1.1"
   preserveAspectRatio="xMinYMin meet"
   viewBox="0 0 145 130"
   inkscape:version="0.48.3.1 r9886"
   sodipodi:docname="cod_1.svg"
   width="100%"
   height="100%">
  <defs
     id="defs2995" />
  <sodipodi:namedview
     id="base"
     pagecolor="#ffffff"
     bordercolor="#666666"
     borderopacity="1.0"
     inkscape:pageopacity="0.0"
     inkscape:pageshadow="2"
     inkscape:zoom="11"
     inkscape:cx="135.21574"
     inkscape:cy="8.5843718"
     inkscape:current-layer="layer1"
     showgrid="true"
     inkscape:document-units="px"
     inkscape:grid-bbox="true"
     inkscape:window-width="1366"
     inkscape:window-height="692"
     inkscape:window-x="0"
     inkscape:window-y="24"
     inkscape:window-maximized="1" />
  <metadata
     id="metadata2998">
    <rdf:RDF>
      <cc:Work
         rdf:about="">
        <dc:format>image/svg+xml</dc:format>
        <dc:type
           rdf:resource="http://purl.org/dc/dcmitype/StillImage" />
        <dc:title></dc:title>
      </cc:Work>
    </rdf:RDF>
  </metadata>
  <g
     id="layer1"
     inkscape:label="Layer 1"
     inkscape:groupmode="layer"
     transform="translate(0,66)">
    <path
       inkscape:connector-curvature="0"
       d="m 143.40829,59.54484 c -1.3557,2.376437 -3.77736,3.803028 -6.48519,3.803028 l -128.8348119,0 c -2.704254,0 -5.1259203,-1.426591 -6.4780474,-3.803028 -1.35570405,-2.383716 -1.35570405,-5.225979 0,-7.613334 L 66.025854,-61.496983 c 1.352127,-2.376438 3.773794,-3.799388 6.478048,-3.799388 2.711408,0 5.133075,1.42295 6.481625,3.803027 l 64.419193,113.42485 c 1.35212,2.387355 1.35212,5.229618 0.003,7.613334 z M 79.518508,-61.806321 c -1.463015,-2.572956 -4.088574,-4.108725 -7.014606,-4.108725 -2.922454,0 -5.548013,1.535769 -7.003875,4.108725 L 1.0772594,51.622168 c -1.45943864,2.576598 -1.45943864,5.659052 0.00372,8.235648 1.4630157,2.572958 4.0849972,4.112365 7.0074516,4.112365 l 128.8348123,0 c 2.92603,0 5.55158,-1.539407 7.0146,-4.116004 1.46301,-2.576597 1.46301,-5.655411 0,-8.232009 L 79.518651,-61.806321"
       style="fill:#191412;fill-opacity:1;fill-rule:nonzero;stroke:none"
       id="path880" />
    <path
       inkscape:connector-curvature="0"
       d="m 23.086881,46.942079 49.417021,-87.029289 49.424178,87.029289 -98.841199,0 z m 53.916957,-107.27086 c -1.999574,-3.519165 -6.993144,-3.519165 -8.996294,0 C 46.538056,-22.520497 25.061416,15.291425 3.5919296,53.103348 1.5923554,56.618874 4.0927174,61.01874 8.0882881,61.01874 l 128.8348119,0 c 3.99915,0 6.49951,-4.399866 4.5035,-7.915392 C 119.94997,15.291425 98.476902,-22.520497 77.003838,-60.328781"
       style="fill:#c13339;fill-opacity:1;fill-rule:nonzero;stroke:none"
       id="path882" />
    <path
       inkscape:connector-curvature="0"
       d="m 101.58536,23.472484 c 0.71184,0 1.24482,0.727852 1.4344,1.277381 0.72257,2.012511 0.89785,4.392588 1.2627,6.583423 l 0,1.470261 -54.911376,0 0,-7.136591 -6.6569,0 0.186007,-1.281019 c 0.175275,-0.54589 1.434399,-0.731492 1.974534,-0.731492 l 16.021632,0 8.645743,-4.392587 3.233658,0 0,1.281019 -3.233658,0 -5.583784,2.929605 37.627044,0 z m 2.6971,13.356088 c 0,0.727852 -0.54013,1.652224 -1.45228,1.652224 l -6.467317,0 c 0,1.091779 -0.901419,2.008873 -1.981689,2.008873 -1.259124,0 -2.160541,-0.917094 -2.160541,-2.008873 l -5.043649,0 c 0,1.091779 -0.894264,2.008873 -1.978112,2.008873 -1.259123,0 -2.160542,-0.917094 -2.160542,-2.008873 l -21.061703,0 c 0,1.091779 -0.897841,2.008873 -1.985265,2.008873 -1.259124,0 -2.156965,-0.917094 -2.156965,-2.008873 l -5.043648,0 c 0,1.091779 -0.901418,2.008873 -2.14981,2.008873 -1.080271,0 -1.985266,-0.917094 -1.985266,-2.008873 l -7.923178,-1.106335 0,-2.744002 63.549965,0 0,2.198113 z m -61.750706,-9.880593 5.766213,0 0.175276,5.85557 -7.740748,0 1.799259,-5.85557 z m -19.444873,19.9941 98.841199,0 L 72.503902,-40.08721 23.086881,46.942079"
       style="fill:#ffffff;fill-opacity:1;fill-rule:nonzero;stroke:none"
       id="path884" />
    <path
       inkscape:connector-curvature="0"
       d="m 70.439941,31.333288 -9.185878,0 0,-5.484367 9.185878,0 0,5.484367 z m 1.262701,-5.480727 8.996294,0 0,5.484366 -8.996294,0 0,-5.484366 z m 10.437847,0 8.999872,0 0,5.484366 -8.999872,0 0,-5.484366 z m 10.434271,0 9.36473,0 0.89069,5.480727 -10.25542,0 0,-5.480727 z m -32.755096,5.480727 -9.003449,0 0,-5.484367 9.003449,0 0,5.484367 z m 12.956094,-10.790409 0,-1.281019 -3.233658,0 -8.645743,4.392587 -16.021632,0 c -0.540135,0 -1.799259,0.185602 -1.974534,0.731492 l -0.186007,1.281019 6.6569,0 0,7.136591 54.911376,0 0,-1.470261 c -0.36485,-2.190835 -0.54013,-4.570912 -1.2627,-6.583423 -0.18958,-0.549529 -0.72256,-1.277381 -1.4344,-1.277381 l -37.627044,0 5.583784,-2.929605 3.233658,0"
       style="fill:#191412;fill-opacity:1;fill-rule:nonzero;stroke:none"
       id="path886" />
    <path
       inkscape:connector-curvature="0"
       d="m 50.816215,31.333288 9.004127,0 0,-5.483056 -9.004127,0 0,5.483056 z"
       style="fill:#ffffff;fill-opacity:1;fill-rule:nonzero;stroke:none"
       id="path888" />
    <path
       inkscape:connector-curvature="0"
       d="m 61.254063,31.333288 9.18577,0 0,-5.483056 -9.18577,0 0,5.483056 z"
       style="fill:#ffffff;fill-opacity:1;fill-rule:nonzero;stroke:none"
       id="path890" />
    <path
       inkscape:connector-curvature="0"
       d="m 71.702642,31.336927 8.995722,0 0,-5.484477 -8.995722,0 0,5.484477 z"
       style="fill:#ffffff;fill-opacity:1;fill-rule:nonzero;stroke:none"
       id="path892" />
    <path
       inkscape:connector-curvature="0"
       d="m 82.140489,31.336927 8.999944,0 0,-5.484477 -8.999944,0 0,5.484477 z"
       style="fill:#ffffff;fill-opacity:1;fill-rule:nonzero;stroke:none"
       id="path894" />
    <path
       inkscape:connector-curvature="0"
       d="m 101.93949,25.852561 -9.36473,0 0,5.480727 10.25542,0 -0.89069,-5.480727"
       style="fill:#ffffff;fill-opacity:1;fill-rule:nonzero;stroke:none"
       id="path896" />
    <path
       inkscape:connector-curvature="0"
       d="m 47.038844,31.708132 -5.043648,0 1.259124,-3.664736 3.784524,0 0,3.664736 z m 1.259123,-4.760153 -5.766213,0 -1.799259,5.85557 7.740748,0 -0.175276,-5.85557"
       style="fill:#191412;fill-opacity:1;fill-rule:nonzero;stroke:none"
       id="path898" />
    <path
       inkscape:connector-curvature="0"
       d="m 41.995196,31.708132 5.043648,0 0,-3.664736 -3.784524,0 -1.259124,3.664736"
       style="fill:#ffffff;fill-opacity:1;fill-rule:nonzero;stroke:none"
       id="path900" />
    <path
       inkscape:connector-curvature="0"
       d="m 40.732495,37.374461 7.923178,1.106335 c 0,1.091779 0.904995,2.008873 1.985266,2.008873 1.248392,0 2.14981,-0.917094 2.14981,-2.008873 l 5.043648,0 c 0,1.091779 0.897841,2.008873 2.156965,2.008873 1.087424,0 1.985265,-0.917094 1.985265,-2.008873 l 21.061703,0 c 0,1.091779 0.901419,2.008873 2.160542,2.008873 1.083848,0 1.978112,-0.917094 1.978112,-2.008873 l 5.043649,0 c 0,1.091779 0.901417,2.008873 2.160541,2.008873 1.08027,0 1.981689,-0.917094 1.981689,-2.008873 l 6.467317,0 c 0.91215,0 1.45228,-0.924372 1.45228,-1.652224 l 0,-2.198113 -63.549965,0 0,2.744002"
       style="fill:#191412;fill-opacity:1;fill-rule:nonzero;stroke:none"
       id="path902" />
  </g>
</svg>
