<?xml version="1.0" encoding="UTF-8" standalone="no"?>
<!-- Created with Inkscape (http://www.inkscape.org/) -->

<svg
   xmlns:dc="http://purl.org/dc/elements/1.1/"
   xmlns:cc="http://creativecommons.org/ns#"
   xmlns:rdf="http://www.w3.org/1999/02/22-rdf-syntax-ns#"
   xmlns:svg="http://www.w3.org/2000/svg"
   xmlns="http://www.w3.org/2000/svg"
   xmlns:sodipodi="http://sodipodi.sourceforge.net/DTD/sodipodi-0.dtd"
   xmlns:inkscape="http://www.inkscape.org/namespaces/inkscape"
   id="svg2993"
   version="1.1"
   preserveAspectRatio="xMinYMin meet"
   viewBox="0 0 145 130"
   inkscape:version="0.48.3.1 r9886"
   sodipodi:docname="cod_1.svg"
   width="100%"
   height="100%">
  <defs
     id="defs2995" />
  <sodipodi:namedview
     id="base"
     pagecolor="#ffffff"
     bordercolor="#666666"
     borderopacity="1.0"
     inkscape:pageopacity="0.0"
     inkscape:pageshadow="2"
     inkscape:zoom="15.556349"
     inkscape:cx="143.51891"
     inkscape:cy="11.204034"
     inkscape:current-layer="layer1"
     showgrid="true"
     inkscape:document-units="px"
     inkscape:grid-bbox="true"
     inkscape:window-width="1366"
     inkscape:window-height="692"
     inkscape:window-x="0"
     inkscape:window-y="24"
     inkscape:window-maximized="1" />
  <metadata
     id="metadata2998">
    <rdf:RDF>
      <cc:Work
         rdf:about="">
        <dc:format>image/svg+xml</dc:format>
        <dc:type
           rdf:resource="http://purl.org/dc/dcmitype/StillImage" />
        <dc:title></dc:title>
      </cc:Work>
    </rdf:RDF>
  </metadata>
  <g
     id="layer1"
     inkscape:label="Layer 1"
     inkscape:groupmode="layer"
     transform="translate(0,66)">
    <path
       inkscape:connector-curvature="0"
       d="m 143.39986,59.545177 c -1.3544,2.384201 -3.77374,3.807441 -6.47539,3.807441 l -128.7108933,0 c -2.7052267,0 -5.1245641,-1.42324 -6.4789643,-3.807441 -1.34725287,-2.380561 -1.34725287,-5.223402 0.00714,-7.607602 L 42.538151,-19.992489 66.091848,-61.517622 c 1.350827,-2.380561 3.770164,-3.800162 6.47539,-3.800162 2.705224,0 5.120988,1.419601 6.471814,3.800162 L 143.39629,51.937575 c 1.35439,2.380561 1.35439,5.227041 0.003,7.607602 z M 79.567947,-61.823383 c -1.458035,-2.57712 -4.077494,-4.120481 -7.000709,-4.120481 -2.923217,0 -5.54625,1.543361 -7.004285,4.116841 L 42.002109,-20.301889 1.209291,51.624535 c -1.46518218,2.57712 -1.46518218,5.656561 0,8.233682 1.458035,2.573481 4.0810685,4.116842 7.0042857,4.116842 l 128.7108933,0 c 2.91964,0 5.54268,-1.543361 7.00071,-4.116842 1.46518,-2.577121 1.46161,-5.656562 0,-8.233682 L 79.567947,-61.823383"
       style="fill:#191412;fill-opacity:1;fill-rule:nonzero;stroke:none"
       id="path758" />
    <path
       inkscape:connector-curvature="0"
       d="m 23.197746,46.939853 49.369492,-87.043348 49.373062,87.043348 -98.742554,0 z m 53.85795,-107.289035 c -1.997648,-3.519882 -6.982841,-3.519882 -8.984065,0 C 46.61922,-22.536849 25.170382,15.282763 3.7179689,53.102375 c -1.997651,3.519881 0.5038797,7.924282 4.4956078,7.924282 l 128.7108933,0 c 3.99173,0 6.48611,-4.404401 4.49561,-7.924282 C 119.96767,15.282763 98.51168,-22.536849 77.055696,-60.349182"
       style="fill:#c13339;fill-opacity:1;fill-rule:nonzero;stroke:none"
       id="path760" />
    <path
       inkscape:connector-curvature="0"
       d="m 83.177299,29.871887 0,-13.358804 -7.375942,0 0,13.358804 7.375942,0"
       style="fill:#ffffff;fill-opacity:1;fill-rule:nonzero;stroke:none"
       id="path762" />
    <path
       inkscape:connector-curvature="0"
       d="m 62.314537,16.513083 0,13.358804 7.372368,0 0,-13.358804 -7.372368,0"
       style="fill:#ffffff;fill-opacity:1;fill-rule:nonzero;stroke:none"
       id="path764" />
    <path
       inkscape:connector-curvature="0"
       d="m 75.801357,6.9908398 0,3.8365612 7.375942,0 0,-3.6545611 3.055441,-3.2905612 3.059014,3.1085611 0,3.8365612 3.416375,0 0,5.685682 -3.416375,0 0,13.358804 3.595057,0 0,5.674762 -3.595057,0 0,3.290561 -6.114455,0 0,-3.10856 -7.375942,0 0,3.10856 -6.114452,0 0,-3.290561 -7.372368,0 0,3.290561 -6.114456,0 0,-3.290561 -3.955991,0 0,-5.674762 3.955991,0 0,-13.358804 -3.412802,0 0,-5.685682 3.412802,0 0,-3.6545611 3.051867,-3.2905612 3.062589,3.1085611 0,3.8365612 7.372368,0 0,-3.8365612 3.062587,-3.1085611 3.051865,3.1085611 z m -52.603611,39.9490132 98.742554,0 -49.373062,-87.043348 -49.369492,87.043348"
       style="fill:#ffffff;fill-opacity:1;fill-rule:nonzero;stroke:none"
       id="path766" />
    <path
       inkscape:connector-curvature="0"
       d="m 75.801357,16.513083 7.375942,0 0,13.358804 -7.375942,0 0,-13.358804 z m -6.114452,13.358804 -7.372368,0 0,-13.358804 7.372368,0 0,13.358804 z m 0,-19.044486 -7.372368,0 0,-3.8365612 -3.062589,-3.1085611 -3.051867,3.2905612 0,3.6545611 -3.412802,0 0,5.685682 3.412802,0 0,13.358804 -3.955991,0 0,5.674762 3.955991,0 0,3.290561 6.114456,0 0,-3.290561 7.372368,0 0,3.290561 6.114452,0 0,-3.10856 7.375942,0 0,3.10856 6.114455,0 0,-3.290561 3.595057,0 0,-5.674762 -3.595057,0 0,-13.358804 3.416375,0 0,-5.685682 -3.416375,0 0,-3.8365612 -3.059014,-3.1085611 -3.055441,3.2905612 0,3.6545611 -7.375942,0 0,-3.8365612 -3.051865,-3.1085611 -3.062587,3.1085611 0,3.8365612"
       style="fill:#191412;fill-opacity:1;fill-rule:nonzero;stroke:none"
       id="path768" />
  </g>
</svg>
