<?xml version="1.0" encoding="UTF-8" standalone="no"?>
<!-- Created with Inkscape (http://www.inkscape.org/) -->

<svg
   xmlns:dc="http://purl.org/dc/elements/1.1/"
   xmlns:cc="http://creativecommons.org/ns#"
   xmlns:rdf="http://www.w3.org/1999/02/22-rdf-syntax-ns#"
   xmlns:svg="http://www.w3.org/2000/svg"
   xmlns="http://www.w3.org/2000/svg"
   xmlns:sodipodi="http://sodipodi.sourceforge.net/DTD/sodipodi-0.dtd"
   xmlns:inkscape="http://www.inkscape.org/namespaces/inkscape"
   id="svg2993"
   version="1.1"
   preserveAspectRatio="xMinYMin meet"
   viewBox="0 0 145 130"
   inkscape:version="0.48.3.1 r9886"
   sodipodi:docname="cod_45.svg"
   width="100%"
   height="100%">
  <defs
     id="defs2995" />
  <sodipodi:namedview
     id="base"
     pagecolor="#ffffff"
     bordercolor="#666666"
     borderopacity="1.0"
     inkscape:pageopacity="0.0"
     inkscape:pageshadow="2"
     inkscape:zoom="1.0353448"
     inkscape:cx="68.526986"
     inkscape:cy="-27.92812"
     inkscape:current-layer="layer1"
     showgrid="true"
     inkscape:document-units="px"
     inkscape:grid-bbox="true"
     inkscape:window-width="1366"
     inkscape:window-height="692"
     inkscape:window-x="0"
     inkscape:window-y="24"
     inkscape:window-maximized="1" />
  <metadata
     id="metadata2998">
    <rdf:RDF>
      <cc:Work
         rdf:about="">
        <dc:format>image/svg+xml</dc:format>
        <dc:type
           rdf:resource="http://purl.org/dc/dcmitype/StillImage" />
        <dc:title></dc:title>
      </cc:Work>
    </rdf:RDF>
  </metadata>
  <g
     id="layer1"
     inkscape:label="Layer 1"
     inkscape:groupmode="layer"
     transform="translate(0,66)">
    <path
       d="m 72.498277,63.236512 c -39.513818,0 -71.65755747,-28.817796 -71.65755747,-64.241151 0,-35.420264 32.14373947,-64.238055 71.65755747,-64.238055 39.510373,0 71.657553,28.817791 71.657553,64.238055 0,35.423355 -32.14718,64.241151 -71.657553,64.241151 z M 72.498277,-66 C 32.526198,-66 0,-36.845285 0,-1.004639 0,34.836007 32.526198,64 72.498277,64 112.48069,64 145,34.836007 145,-1.004639 145,-36.845285 112.48069,-66 72.498277,-66"
       style="fill:#191412;fill-opacity:1;fill-rule:nonzero;stroke:none"
       id="path1186"
       inkscape:connector-curvature="0" />
    <path
       d="m 72.498277,45.305371 c -28.525889,0 -51.656013,-20.731627 -51.656013,-46.31001 0,-25.572201 23.130124,-46.303828 51.656013,-46.303828 28.525893,0 51.659463,20.731627 51.659463,46.303828 0,25.578383 -23.13357,46.31001 -51.659463,46.31001 z m 0,-108.764533 c -38.483592,0 -69.6797992,27.95539 -69.6797992,62.454523 0,34.499133 31.1962072,62.463801 69.6797992,62.463801 38.483593,0 69.679803,-27.964668 69.679803,-62.463801 0,-34.499133 -31.19621,-62.454523 -69.679803,-62.454523"
       style="fill:#c13339;fill-opacity:1;fill-rule:nonzero;stroke:none"
       id="path1188"
       inkscape:connector-curvature="0" />
    <path
       d="m 98.781099,28.499369 c 0,0 -0.189368,0 -0.189368,-0.17619 0,0 -0.192952,0 -0.192952,-0.176189 l 0.771808,-3.492879 -6.033197,0 0,-4.009083 6.033197,0.173098 -0.771808,-3.489788 c 0,-0.176189 0.192952,-0.176189 0.192952,-0.176189 0,-0.173099 0.189368,-0.173099 0.392795,-0.173099 l 10.898344,5.758614 -11.101633,5.761705 z M 87.297008,4.2377703 c 0,-2.9704926 2.535941,-5.23622725 5.840245,-5.23622725 2.921844,0 5.45434,2.26573465 5.45434,5.23622725 0,2.794303 -2.532496,5.0600377 -5.45434,5.0600377 -3.304304,0 -5.840245,-2.2657347 -5.840245,-5.0600377 z m 0,24.4377877 -2.1397,0 0,-6.287182 c 0,-2.445015 -2.92529,-1.743348 -2.92529,0 l 0,6.287182 -2.1397,0 0,-6.287182 c 0,-1.92572 -2.722002,-2.092636 -2.722002,0 l 0,6.287182 -2.342989,0 0,-9.430773 1.560844,0 0,1.050955 c 0,-0.704758 0.978542,-1.400243 1.946748,-1.400243 0.971651,-0.170007 2.143146,-0.170007 2.928736,1.047864 0.578856,-1.217871 2.325761,-1.217871 3.693653,-1.047864 1.168049,0.173099 2.1397,1.749531 2.1397,2.445015 l 0,7.335046 z M 50.70159,3.8853913 c 0,-3.65979513 -3.900388,-6.8064771 -7.797329,-6.8064771 l -0.775254,0 c -3.697099,0.5254773 -7.011739,3.14668197 -7.204691,6.8064771 l -2.329206,0 0,-11.5203181 4.2794,-10.9886582 14.013141,0 0,17.97132489 36.6092,0 C 86.325357,0.74489143 85.546658,0.92417194 85.35026,3.8853913 l -34.64867,0 z M 66.661479,28.499369 c -2.52905,0 -4.475798,-3.146682 -4.475798,-6.979576 0,-4.021447 1.946748,-7.161947 4.475798,-7.161947 2.529049,0 4.672195,3.1405 4.672195,7.161947 0,3.832894 -2.143146,6.979576 -4.672195,6.979576 z m -6.615498,0 -3.114797,0 0,-10.13244 -1.95364,0 0,-1.567159 c 1.753796,-0.170007 2.143146,-0.519295 2.732339,-2.265735 l 2.336098,0 0,13.965334 z M 37.26386,4.2377703 c 0,-2.9704926 2.529049,-5.23622725 5.640401,-5.23622725 3.121688,0 5.654183,2.26573465 5.654183,5.23622725 0,2.794303 -2.532495,5.0600377 -5.654183,5.0600377 -3.111352,0 -5.640401,-2.2657347 -5.640401,-5.0600377 z m 11.87344,20.4163407 -6.033196,0 0.585747,3.492879 0,0.176189 c 0,0.17619 -0.199843,0.17619 -0.392795,0.17619 L 32.398712,22.737664 43.297056,16.97905 c 0.192952,0 0.192952,0 0.392795,0.173099 l 0,0.176189 -0.585747,3.489788 6.033196,-0.173098 0,4.009083 z m 60.55248,-25.30637111 0,1.91953781 c -2.92529,0.8778563 -5.84369,1.7526215 -8.95849,2.6181136 -0.19295,-1.7402573 -0.19295,-3.14049987 -2.332649,-4.53765141 l 11.291139,0 z M 53.034242,-26.654116 l 56.658988,0 0,24.437788 -56.658988,0 0,-24.437788 z m 19.464035,-20.654351 c -28.525889,0 -51.656013,20.731627 -51.656013,46.303828 0,25.578383 23.130124,46.31001 51.656013,46.31001 28.525893,0 51.659463,-20.731627 51.659463,-46.31001 0,-25.572201 -23.13357,-46.303828 -51.659463,-46.303828"
       style="fill:#ffffff;fill-opacity:1;fill-rule:nonzero;stroke:none"
       id="path1190"
       inkscape:connector-curvature="0" />
    <path
       d="m 45.443647,4.2377703 c 0,-1.3971516 -1.168049,-2.4419242 -2.539386,-2.4419242 -1.557399,0 -2.722002,1.0447726 -2.722002,2.4419242 0,1.217871 1.164603,2.2657347 2.722002,2.2657347 1.371337,0 2.539386,-1.0478637 2.539386,-2.2657347"
       style="fill:#ffffff;fill-opacity:1;fill-rule:nonzero;stroke:none"
       id="path1192"
       inkscape:connector-curvature="0" />
    <path
       d="m 66.661479,16.629763 c -0.7787,0 -1.361001,2.095727 -1.361001,4.89003 0,2.615023 0.582301,4.71075 1.361001,4.71075 0.978542,-0.17619 1.557398,-2.271917 1.557398,-4.71075 0,-2.624296 -0.578856,-4.720023 -1.557398,-4.89003"
       style="fill:#ffffff;fill-opacity:1;fill-rule:nonzero;stroke:none"
       id="path1194"
       inkscape:connector-curvature="0" />
    <path
       d="m 95.669748,4.2377703 c 0,-1.3971516 -1.168049,-2.4419242 -2.532495,-2.4419242 -1.553953,0 -2.728893,1.0447726 -2.728893,2.4419242 0,1.217871 1.17494,2.2657347 2.728893,2.2657347 1.364446,0 2.532495,-1.0478637 2.532495,-2.2657347"
       style="fill:#ffffff;fill-opacity:1;fill-rule:nonzero;stroke:none"
       id="path1196"
       inkscape:connector-curvature="0" />
    <path
       d="m 38.039113,-16.181661 -2.921845,7.3257722 13.82708,0 0,-7.3257722 -10.905235,0"
       style="fill:#ffffff;fill-opacity:1;fill-rule:nonzero;stroke:none"
       id="path1198"
       inkscape:connector-curvature="0" />
    <path
       d="M 85.157308,18.895497 C 83.789416,18.72549 82.042511,18.72549 81.463655,19.943361 80.678065,18.72549 79.50657,18.72549 78.534919,18.895497 c -0.968206,0 -1.946748,0.695485 -1.946748,1.400243 l 0,-1.050955 -1.560844,0 0,9.430773 2.342989,0 0,-6.287182 c 0,-2.092636 2.722002,-1.92572 2.722002,0 l 0,6.287182 2.1397,0 0,-6.287182 c 0,-1.743348 2.92529,-2.445015 2.92529,0 l 0,6.287182 2.1397,0 0,-7.335046 c 0,-0.695484 -0.971651,-2.271916 -2.1397,-2.445015"
       style="fill:#191412;fill-opacity:1;fill-rule:nonzero;stroke:none"
       id="path1200"
       inkscape:connector-curvature="0" />
    <path
       d="m 66.661479,26.230543 c -0.7787,0 -1.361001,-2.095727 -1.361001,-4.71075 0,-2.794303 0.582301,-4.89003 1.361001,-4.89003 0.978542,0.170007 1.557398,2.265734 1.557398,4.89003 0,2.438833 -0.578856,4.53456 -1.557398,4.71075 z m 0,-11.872697 c -2.52905,0 -4.475798,3.1405 -4.475798,7.161947 0,3.832894 1.946748,6.979576 4.475798,6.979576 2.529049,0 4.672195,-3.146682 4.672195,-6.979576 0,-4.021447 -2.143146,-7.161947 -4.672195,-7.161947"
       style="fill:#191412;fill-opacity:1;fill-rule:nonzero;stroke:none"
       id="path1202"
       inkscape:connector-curvature="0" />
    <path
       d="m 54.977544,16.79977 0,1.567159 1.95364,0 0,10.13244 3.114797,0 0,-13.965334 -2.336098,0 c -0.589193,1.74644 -0.978543,2.095728 -2.732339,2.265735"
       style="fill:#191412;fill-opacity:1;fill-rule:nonzero;stroke:none"
       id="path1204"
       inkscape:connector-curvature="0" />
    <path
       d="m 43.689851,17.328338 0,-0.176189 C 43.490008,16.97905 43.490008,16.97905 43.297056,16.97905 l -10.898344,5.758614 10.898344,5.761705 c 0.192952,0 0.392795,0 0.392795,-0.17619 l 0,-0.176189 -0.585747,-3.492879 6.033196,0 0,-4.009083 -6.033196,0.173098 0.585747,-3.489788"
       style="fill:#191412;fill-opacity:1;fill-rule:nonzero;stroke:none"
       id="path1206"
       inkscape:connector-curvature="0" />
    <path
       d="m 98.984388,16.97905 c -0.203427,0 -0.392795,0 -0.392795,0.173099 0,0 -0.192952,0 -0.192952,0.176189 l 0.771808,3.489788 -6.033196,-0.173098 0,4.009083 6.033196,0 -0.771808,3.492879 c 0,0.176189 0.192952,0.176189 0.192952,0.176189 0,0.17619 0.189368,0.17619 0.189368,0.17619 L 109.88259,22.737664 98.98425,16.97905"
       style="fill:#191412;fill-opacity:1;fill-rule:nonzero;stroke:none"
       id="path1208"
       inkscape:connector-curvature="0" />
    <path
       d="m 53.030796,-2.216328 56.659324,0 0,-24.437355 -56.659324,0 0,24.437355 z"
       style="fill:#191412;fill-opacity:1;fill-rule:nonzero;stroke:none"
       id="path1210"
       inkscape:connector-curvature="0" />
    <path
       d="m 100.73129,3.8853913 c 3.1148,-0.8654921 6.0332,-1.7402573 8.95849,-2.6181136 l 0,-1.91953781 -11.291139,0 c 2.139699,1.39715154 2.139699,2.79739411 2.332649,4.53765141"
       style="fill:#191412;fill-opacity:1;fill-rule:nonzero;stroke:none"
       id="path1212"
       inkscape:connector-curvature="0" />
    <path
       d="m 48.944348,-8.8558888 -13.82708,0 2.921845,-7.3257722 10.905235,0 0,7.3257722 z m 38.552503,8.20362869 -36.6092,0 0,-17.97132489 -14.013141,0 -4.2794,10.9886582 0,11.5203181 2.329206,0 c 0.192952,-3.65979513 3.507592,-6.2809998 7.204691,-6.8064771 l 0.775254,0 c 3.896941,0 7.797329,3.14668197 7.797329,6.8064771 l 34.64867,0 c 0.19626,-2.96121936 0.975097,-3.14049987 2.146591,-4.53765141"
       style="fill:#191412;fill-opacity:1;fill-rule:nonzero;stroke:none"
       id="path1214"
       inkscape:connector-curvature="0" />
    <path
       d="m 40.182259,4.2377703 c 0,-1.3971516 1.164603,-2.4419242 2.722002,-2.4419242 1.371337,0 2.539386,1.0447726 2.539386,2.4419242 0,1.217871 -1.168049,2.2657347 -2.539386,2.2657347 -1.557399,0 -2.722002,-1.0478637 -2.722002,-2.2657347 z m 8.376185,0 c 0,-2.9704926 -2.532495,-5.23622725 -5.654183,-5.23622725 -3.111352,0 -5.640401,2.26573465 -5.640401,5.23622725 0,2.794303 2.529049,5.0600377 5.640401,5.0600377 3.121688,0 5.654183,-2.2657347 5.654183,-5.0600377"
       style="fill:#191412;fill-opacity:1;fill-rule:nonzero;stroke:none"
       id="path1216"
       inkscape:connector-curvature="0" />
    <path
       d="m 90.40836,4.2377703 c 0,-1.3971516 1.17494,-2.4419242 2.728893,-2.4419242 1.364446,0 2.532495,1.0447726 2.532495,2.4419242 0,1.217871 -1.168049,2.2657347 -2.532495,2.2657347 -1.553953,0 -2.728893,-1.0478637 -2.728893,-2.2657347 z m 8.183233,0 c 0,-2.9704926 -2.532496,-5.23622725 -5.45434,-5.23622725 -3.304304,0 -5.840245,2.26573465 -5.840245,5.23622725 0,2.794303 2.535941,5.0600377 5.840245,5.0600377 2.921844,0 5.45434,-2.2657347 5.45434,-5.0600377"
       style="fill:#191412;fill-opacity:1;fill-rule:nonzero;stroke:none"
       id="path1218"
       inkscape:connector-curvature="0" />
  </g>
</svg>
