<?xml version="1.0" encoding="UTF-8" standalone="no"?>
<!-- Created with Inkscape (http://www.inkscape.org/) -->

<svg
   xmlns:dc="http://purl.org/dc/elements/1.1/"
   xmlns:cc="http://creativecommons.org/ns#"
   xmlns:rdf="http://www.w3.org/1999/02/22-rdf-syntax-ns#"
   xmlns:svg="http://www.w3.org/2000/svg"
   xmlns="http://www.w3.org/2000/svg"
   xmlns:sodipodi="http://sodipodi.sourceforge.net/DTD/sodipodi-0.dtd"
   xmlns:inkscape="http://www.inkscape.org/namespaces/inkscape"
   id="svg2993"
   version="1.1"
   preserveAspectRatio="xMinYMin meet"
   viewBox="0 0 145 130"
   inkscape:version="0.48.3.1 r9886"
   sodipodi:docname="cod_77b.svg"
   width="100%"
   height="100%">
  <defs
     id="defs2995" />
  <sodipodi:namedview
     id="base"
     pagecolor="#ffffff"
     bordercolor="#666666"
     borderopacity="1.0"
     inkscape:pageopacity="0.0"
     inkscape:pageshadow="2"
     inkscape:zoom="1.0353448"
     inkscape:cx="-71.788619"
     inkscape:cy="-31.652006"
     inkscape:current-layer="layer1"
     showgrid="true"
     inkscape:document-units="px"
     inkscape:grid-bbox="true"
     inkscape:window-width="1366"
     inkscape:window-height="692"
     inkscape:window-x="0"
     inkscape:window-y="24"
     inkscape:window-maximized="1" />
  <metadata
     id="metadata2998">
    <rdf:RDF>
      <cc:Work
         rdf:about="">
        <dc:format>image/svg+xml</dc:format>
        <dc:type
           rdf:resource="http://purl.org/dc/dcmitype/StillImage" />
        <dc:title></dc:title>
      </cc:Work>
    </rdf:RDF>
  </metadata>
  <g
     id="layer1"
     inkscape:label="Layer 1"
     inkscape:groupmode="layer"
     transform="translate(0,66)">
    <path
       inkscape:connector-curvature="0"
       d="m 1.4476626,-58.63534 c 0,-3.589877 4.8707816,-6.501015 10.8725494,-6.501015 l 120.352038,0 c 6.00931,0 10.88009,2.911138 10.88009,6.501015 l 0,115.267974 c 0,3.587622 -4.87078,6.49876 -10.88009,6.49876 l -120.352038,0 c -6.0017678,0 -10.8725494,-2.911138 -10.8725494,-6.49876 l 0,-115.267974 z M 0,64 145,64 145,-66 0,-66 0,64"
       style="fill:#2c4aa0;fill-opacity:1;fill-rule:nonzero;stroke:none"
       id="path4025" />
    <path
       inkscape:connector-curvature="0"
       d="m 4.3429879,-58.63534 c 0,-2.631524 3.5739171,-4.76696 7.9772241,-4.76696 l 120.352038,0 c 4.40331,0 7.97345,2.135436 7.97345,4.76696 l 0,115.267974 c 0,2.634681 -3.57014,4.767186 -7.97345,4.767186 l -120.352038,0 c -4.403307,0 -7.9772241,-2.132505 -7.9772241,-4.767186 l 0,-115.267974 z m 7.9772241,121.766734 120.352038,0 c 6.00931,0 10.88009,-2.911138 10.88009,-6.49876 l 0,-115.267974 c 0,-3.589877 -4.87078,-6.501015 -10.88009,-6.501015 l -120.352038,0 c -6.0017678,0 -10.8725494,2.911138 -10.8725494,6.501015 l 0,115.267974 c 0,3.587622 4.8707816,6.49876 10.8725494,6.49876"
       style="fill:#ffffff;fill-opacity:1;fill-rule:nonzero;stroke:none"
       id="path4027" />
    <path
       inkscape:connector-curvature="0"
       d="m 74.464146,-26.457234 c 4.369378,0 7.588919,-0.690014 9.662394,-1.92798 2.077246,-1.235712 2.997115,-3.298989 2.997115,-5.914729 0,-2.613484 -0.919869,-4.541465 -3.230852,-5.779431 -2.065935,-1.237967 -5.289246,-1.927981 -9.666164,-1.927981 l -15.890359,0 0,15.550121 16.127866,0"
       style="fill:#2c4aa0;fill-opacity:1;fill-rule:nonzero;stroke:none"
       id="path4029" />
    <path
       inkscape:connector-curvature="0"
       d="m 69.525506,21.82368 c 0.426005,-0.08365 0.84824,0 0.987728,0.08547 0.139488,0.171592 0.286516,0.254584 0.286516,0.509844 l -2.412771,8.722138 46.050001,0 0,8.722138 -46.050001,0 2.412771,8.719433 c 0,0.255485 -0.147028,0.340723 -0.286516,0.509844 -0.139488,0.08547 -0.561723,0.169121 -0.987728,0.08547 L 30.551713,35.461623 69.525506,21.823698 z m -35.599683,-76.765416 43.29793,0 c 11.053508,0 19.339868,1.646112 25.096587,5.089418 5.75672,3.44105 8.75007,8.534977 8.75007,15.137465 0,6.746804 -2.75961,12.11358 -8.52387,15.694439 -5.749182,3.709389 -13.813115,5.504326 -24.410458,5.504326 l -19.799802,0 0,23.1199822 -24.410457,0 0,-64.5456302 z M 12.320212,61.39982 l 120.352038,0 c 4.40331,0 7.97345,-2.132505 7.97345,-4.767186 l 0,-115.267974 c 0,-2.631524 -3.57014,-4.76696 -7.97345,-4.76696 l -120.352038,0 c -4.403307,0 -7.9772241,2.135436 -7.9772241,4.76696 l 0,115.267974 c 0,2.634681 3.5739171,4.767186 7.9772241,4.767186"
       style="fill:#2c4aa0;fill-opacity:1;fill-rule:nonzero;stroke:none"
       id="path4031" />
    <path
       inkscape:connector-curvature="0"
       d="m 58.33628,-42.007355 15.890359,0 c 4.376918,0 7.600229,0.690014 9.666164,1.927981 2.310983,1.237966 3.230852,3.165947 3.230852,5.779431 0,2.61574 -0.919869,4.679017 -2.997115,5.914729 -2.073475,1.237966 -5.293016,1.92798 -9.662394,1.92798 l -16.127866,0 0,-15.550121 z m 0,28.491267 19.799802,0 c 10.597343,0 18.661276,-1.794937 24.410458,-5.504326 5.76426,-3.580859 8.52387,-8.947635 8.52387,-15.694439 0,-6.602488 -2.99335,-11.696415 -8.75007,-15.137465 -5.756719,-3.443306 -14.043079,-5.089418 -25.096587,-5.089418 l -43.29793,0 0,64.5456302 24.410457,0 0,-23.1199802"
       style="fill:#ffffff;fill-opacity:1;fill-rule:nonzero;stroke:none"
       id="path4033" />
    <path
       inkscape:connector-curvature="0"
       d="m 70.513234,49.09254 c 0.139488,-0.169121 0.286516,-0.254359 0.286516,-0.509844 l -2.412771,-8.719433 46.050001,0 0,-8.722138 -46.050001,0 2.412771,-8.722138 c 0,-0.25526 -0.147028,-0.338243 -0.286516,-0.509844 -0.139488,-0.08547 -0.561723,-0.169121 -0.987728,-0.08547 L 30.551713,35.461596 69.525506,49.177993 c 0.426005,0.08365 0.84824,0 0.987728,-0.08547"
       style="fill:#ffffff;fill-opacity:1;fill-rule:nonzero;stroke:none"
       id="path4035" />
  </g>
</svg>
