<?xml version="1.0" encoding="UTF-8" standalone="no"?>
<!-- Created with Inkscape (http://www.inkscape.org/) -->

<svg
   xmlns:dc="http://purl.org/dc/elements/1.1/"
   xmlns:cc="http://creativecommons.org/ns#"
   xmlns:rdf="http://www.w3.org/1999/02/22-rdf-syntax-ns#"
   xmlns:svg="http://www.w3.org/2000/svg"
   xmlns="http://www.w3.org/2000/svg"
   xmlns:sodipodi="http://sodipodi.sourceforge.net/DTD/sodipodi-0.dtd"
   xmlns:inkscape="http://www.inkscape.org/namespaces/inkscape"
   id="svg2993"
   version="1.1"
   preserveAspectRatio="xMinYMin meet"
   viewBox="0 0 145 130"
   inkscape:version="0.48.3.1 r9886"
   sodipodi:docname="cod_51.svg"
   width="100%"
   height="100%">
  <defs
     id="defs2995" />
  <sodipodi:namedview
     id="base"
     pagecolor="#ffffff"
     bordercolor="#666666"
     borderopacity="1.0"
     inkscape:pageopacity="0.0"
     inkscape:pageshadow="2"
     inkscape:zoom="4.0153846"
     inkscape:cx="26.178161"
     inkscape:cy="9.2145592"
     inkscape:current-layer="layer1"
     showgrid="true"
     inkscape:document-units="px"
     inkscape:grid-bbox="true"
     inkscape:window-width="1366"
     inkscape:window-height="692"
     inkscape:window-x="0"
     inkscape:window-y="24"
     inkscape:window-maximized="1" />
  <metadata
     id="metadata2998">
    <rdf:RDF>
      <cc:Work
         rdf:about="">
        <dc:format>image/svg+xml</dc:format>
        <dc:type
           rdf:resource="http://purl.org/dc/dcmitype/StillImage" />
        <dc:title></dc:title>
      </cc:Work>
    </rdf:RDF>
  </metadata>
  <g
     id="layer1"
     inkscape:label="Layer 1"
     inkscape:groupmode="layer"
     transform="translate(0,66)">
    <path
       inkscape:connector-curvature="0"
       d="m 72.501378,63.239603 c -39.508369,0 -71.65207279,-28.817795 -71.65207279,-64.2411485 0,-35.4202625 32.14370379,-64.2380575 71.65207279,-64.2380575 39.511122,0 71.653452,28.817795 71.653452,64.2380575 0,35.4233535 -32.14233,64.2411485 -71.653452,64.2411485 z M 72.501378,-66 C 32.527528,-66 0,-36.839099 0,-1.0015455 0,34.84219 32.527528,64 72.501378,64 112.48074,64 145,34.84219 145,-1.0015455 145,-36.839099 112.48074,-66 72.501378,-66"
       style="fill:#191412;fill-opacity:1;fill-rule:nonzero;stroke:none"
       id="path1266" />
    <path
       inkscape:connector-curvature="0"
       d="m 72.501378,45.305371 c -28.52873,0 -51.653605,-20.731626 -51.653605,-46.3069165 0,-25.5721995 23.124875,-46.3007345 51.653605,-46.3007345 28.531482,0 51.654982,20.728535 51.654982,46.3007345 0,25.5752905 -23.1235,46.3069165 -51.654982,46.3069165 z m 0,-108.764534 c -38.478866,0 -69.6761031,27.961576 -69.6761031,62.4576175 0,34.4991325 31.1972371,62.4637995 69.6761031,62.4637995 38.482652,0 69.675072,-27.964667 69.675072,-62.4637995 0,-34.4960415 -31.19242,-62.4576175 -69.675072,-62.4576175"
       style="fill:#c13339;fill-opacity:1;fill-rule:nonzero;stroke:none"
       id="path1268" />
    <path
       inkscape:connector-curvature="0"
       d="m 45.635081,5.7183822 c 0.388648,0.3523789 0.388648,0.7047578 0.388648,1.217871 0,1.2240531 -0.971619,2.0988183 -2.336365,2.0988183 -1.359233,0 -2.530344,-1.0447726 -2.530344,-2.0988183 0,-1.217871 1.171111,-2.0895452 2.530344,-2.0895452 l 5.259835,-8.7260147 c -1.755116,-0.5254773 -3.504719,-0.8747652 -5.259835,-0.8747652 -7.200317,0 -13.044157,5.23931811 -13.044157,11.5203177 0,6.4571892 5.84384,11.5203172 13.044157,11.6965072 6.036441,0 11.292141,-4.021447 12.462908,-9.248401 0.189858,-0.6985758 0.386236,-1.573341 0.386236,-2.4481062 0,-0.8716741 -0.196391,-1.5671588 -0.386236,-2.441924 -0.584005,-2.794303 -2.53689,-5.4062344 -5.257079,-6.9795754 l -5.258112,8.3736358"
       style="fill:#ffffff;fill-opacity:1;fill-rule:nonzero;stroke:none"
       id="path1270" />
    <path
       inkscape:connector-curvature="0"
       d="m 101.70852,20.555389 -0.39037,0 c -3.892334,0 -7.593444,-1.39406 -10.321557,-3.659795 -1.940826,-1.573341 -3.501963,-3.672159 -4.282704,-6.110992 0,-0.17619 -0.196391,-0.352379 -0.196391,-0.525477 l -3.11297,0.349287 -7.978646,0.695485 c -2.534134,0 -4.092858,-2.089545 -4.092858,-4.1852723 0,-0.6954847 0.193993,-1.4002425 0.78074,-2.2719167 L 71.140767,3.9750339 56.150272,-7.3690943 l -1.559759,-1.217871 -2.5331,4.0090829 c 1.555969,1.0478636 2.922092,2.2657346 4.092859,3.65979504 1.749603,2.27809876 2.723978,4.89312126 2.723978,7.68433316 0,2.9674014 -0.974375,5.5824242 -2.723978,7.8543402 -2.726735,3.492879 -7.400842,5.934803 -12.462908,5.934803 -8.371427,0 -15.381899,-6.114083 -15.381899,-13.7891432 0,-7.50505266 7.010472,-13.6191359 15.381899,-13.6191359 2.144108,0 4.477716,0.5316594 6.427845,1.2302351 l 6.035063,-10.129348 0,-0.346197 c -0.196391,-1.050955 -1.753738,-2.618114 -1.170767,-4.71075 0.196392,-0.346197 0.586762,-0.871674 1.170767,-1.220962 0.584005,-0.346197 1.16422,-0.525477 1.749603,-0.525477 l 8.962323,0 c 1.356477,0.17928 1.160086,2.092636 0,2.092636 l -7.597577,0 c -0.974376,0 -1.75236,0 -1.950129,0.877856 -0.189859,1.394061 1.950129,3.486697 1.559758,4.191455 l -1.943238,3.134317 30.563618,0 1.94186,-3.492878 c -0.970241,-0.346197 -1.746847,-0.695485 -2.722601,-0.865492 -0.39037,-0.173099 -0.777984,-0.352379 -1.16422,-0.352379 -0.974375,-0.522387 -0.590896,-1.74644 0.189859,-1.74644 l 8.184339,0 c 0.577458,0 1.551834,-0.173098 1.748225,1.044773 l 0,2.797394 c 0,0.698576 -0.780741,1.047864 -1.554591,0.698576 -0.783152,-0.352379 -1.754771,-0.698576 -2.532755,-1.047864 l -0.58814,1.047864 -0.970585,1.743348 0.970585,1.573341 3.70111,5.236227 c 1.950129,-0.6985757 4.286494,-1.4033335 6.620444,-1.4033335 l 0.39037,0 c 8.17607,0.1730984 14.98912,6.28718164 14.98912,13.7922343 0,7.5050522 -6.81305,13.6129542 -14.98912,13.7891432 z M 72.501378,-47.30228 c -28.52873,0 -51.653605,20.728535 -51.653605,46.3007345 0,25.5752905 23.124875,46.3069165 51.653605,46.3069165 28.531482,0 51.654982,-20.731626 51.654982,-46.3069165 0,-25.5721995 -23.1235,-46.3007345 -51.654982,-46.3007345"
       style="fill:#ffffff;fill-opacity:1;fill-rule:nonzero;stroke:none"
       id="path1272" />
    <path
       inkscape:connector-curvature="0"
       d="m 101.70852,-4.7540719 -0.39037,0 c -1.757874,0 -3.699733,0.3492879 -5.453471,1.0509547 l 5.843841,8.027439 0.19363,0.3492878 c 1.16698,0 2.14136,1.2209621 2.14136,2.0926362 0,1.2240531 -1.16836,2.2688257 -2.33499,2.2688257 l -0.19537,0 -10.516571,0.8716741 -1.940826,0.1730984 c 0.380723,1.224053 1.165598,2.448106 1.940826,3.492879 2.337743,2.967401 6.037474,4.71384 10.321551,4.71384 l 0.39038,0 c 6.81132,-0.173098 12.46015,-5.239318 12.46015,-11.5203172 0,-6.28099959 -5.64883,-11.3441282 -12.46015,-11.5203177"
       style="fill:#ffffff;fill-opacity:1;fill-rule:nonzero;stroke:none"
       id="path1274" />
    <path
       inkscape:connector-curvature="0"
       d="m 86.323519,-10.333405 -2.918991,0 0,-0.0062 -12.263761,0 0,0.0062 -15.186886,0 0.196391,0.3431061 14.990495,11.3503103 2.919336,2.2626436 c 0.392782,-0.1730984 0.77764,-0.3461969 1.169388,-0.3461969 l 2.917958,0 5.257079,-8.8991131 2.918991,-4.71075"
       style="fill:#ffffff;fill-opacity:1;fill-rule:nonzero;stroke:none"
       id="path1276" />
    <path
       inkscape:connector-curvature="0"
       d="m 92.945343,-4.7540719 -1.94875,-2.4357419 -2.336365,-2.9704922 -1.946339,3.3074159 -3.309361,5.4216896 -2.728113,4.7076586 2.728113,0.3461969 2.918991,0.3523789 c 0.193965,-0.5254773 0.193965,-0.8685831 0.39037,-1.220962 0.780741,-2.4419241 2.341878,-4.5376513 4.282704,-6.1140833 0.588139,-0.5192953 1.169388,-0.8654921 1.94875,-1.3940605"
       style="fill:#ffffff;fill-opacity:1;fill-rule:nonzero;stroke:none"
       id="path1278" />
    <path
       inkscape:connector-curvature="0"
       d="M 99.178175,4.6736096 94.117488,-2.828352 c -1.172145,0.6923937 -2.342911,1.5671589 -3.120895,2.61502247 C 90.026007,1.0076325 89.244233,2.404784 88.660228,3.9750339 l 2.336365,0.1700074 8.181582,0.5285683"
       style="fill:#ffffff;fill-opacity:1;fill-rule:nonzero;stroke:none"
       id="path1280" />
    <path
       inkscape:connector-curvature="0"
       d="m 101.70852,18.286563 -0.39037,0 c -4.284083,0 -7.983815,-1.746439 -10.321557,-4.71384 -0.775228,-1.044773 -1.560103,-2.268826 -1.940826,-3.492879 l 1.940826,-0.1730984 10.516567,-0.8716741 0.19537,0 c 1.16663,0 2.33499,-1.0447726 2.33499,-2.2688257 0,-0.8716741 -0.97438,-2.0926362 -2.14135,-2.0926362 l -0.19364,-0.3492878 -5.843837,-8.027439 c 1.753738,-0.7016668 3.695597,-1.0509547 5.453467,-1.0509547 l 0.39037,0 c 6.81133,0.1761895 12.46015,5.23931811 12.46015,11.5203177 0,6.2809992 -5.64882,11.3472192 -12.46015,11.5203172 z M 90.996593,-0.21332953 C 91.774577,-1.2611931 92.945343,-2.1359583 94.117488,-2.828352 L 99.178175,4.6736096 90.996593,4.1450413 88.660228,3.9750339 C 89.244233,2.404784 90.026007,1.0076325 90.996593,-0.21332953 z M 86.323519,3.9750339 83.404528,3.622655 80.676415,3.2764581 l 2.728113,-4.7076586 3.309361,-5.4216896 1.946339,-3.3074159 2.336365,2.9704922 1.94875,2.4357419 c -0.779362,0.5285684 -1.360611,0.8747652 -1.94875,1.3940605 -1.940826,1.576432 -3.501963,3.6721592 -4.282704,6.1140833 -0.196391,0.3523789 -0.196391,0.6954847 -0.39037,1.220962 z M 75.229491,3.2764581 c -0.391748,0 -0.776606,0.1730985 -1.169388,0.3461969 L 71.140767,1.3600114 56.150272,-9.9902989 l -0.196391,-0.3431061 15.186886,0 0,-0.0062 12.263761,0 0,0.0062 2.918991,0 -2.918991,4.71075 -5.257079,8.8991131 -2.917958,0 z M 56.150272,4.3243218 c 0.189858,0.8747652 0.386236,1.5702499 0.386236,2.441924 0,0.8747652 -0.196391,1.7495304 -0.386236,2.4481062 -1.170767,5.226954 -6.426467,9.248401 -12.462908,9.248401 -7.200317,-0.17619 -13.044157,-5.239318 -13.044157,-11.6965072 0,-6.28099959 5.84384,-11.5203177 13.044157,-11.5203177 1.755116,0 3.504719,0.3492879 5.259835,0.8747652 L 43.687364,4.846708 c -1.359233,0 -2.530344,0.8716742 -2.530344,2.0895452 0,1.0540457 1.171111,2.0988183 2.530344,2.0988183 1.364746,0 2.336365,-0.8747652 2.336365,-2.0988183 0,-0.5131132 0,-0.8654921 -0.388648,-1.217871 l 5.258112,-8.3736358 c 2.720189,1.573341 4.673074,4.1852724 5.257079,6.9795754 z m 45.558248,-11.3503103 -0.39037,0 c -2.333954,0 -4.670318,0.7047578 -6.620447,1.4033335 l -3.70111,-5.236227 -0.970586,-1.573341 0.970586,-1.743348 0.588139,-1.047864 c 0.777984,0.349288 1.749603,0.695485 2.532756,1.047864 0.773849,0.349288 1.55459,0 1.55459,-0.698576 l 0,-2.797394 c -0.196391,-1.217871 -1.170766,-1.044773 -1.748225,-1.044773 l -8.184339,0 c -0.780741,0 -1.16422,1.224053 -0.189859,1.74644 0.386236,0 0.77385,0.17928 1.16422,0.352379 0.975754,0.170007 1.75236,0.519295 2.722601,0.865492 l -1.94186,3.492878 -30.563617,0 1.943238,-3.134317 c 0.390384,-0.704758 -1.74959,-2.797394 -1.559745,-4.191455 0.197769,-0.877856 0.975753,-0.877856 1.950129,-0.877856 l 7.597577,0 c 1.160086,0 1.356477,-1.913356 0,-2.092636 l -8.962323,0 c -0.585383,0 -1.165598,0.17928 -1.749603,0.525477 -0.584005,0.349288 -0.974375,0.874765 -1.170767,1.220962 -0.582971,2.092636 0.974376,3.659795 1.170767,4.71075 l 0,0.346197 -6.035063,10.129348 c -1.950129,-0.6985757 -4.283737,-1.2302351 -6.427845,-1.2302351 -8.371427,0 -15.381899,6.11408324 -15.381899,13.6191359 0,7.6750602 7.010472,13.7891432 15.381899,13.7891432 5.062066,0 9.736173,-2.441924 12.462908,-5.934803 1.749603,-2.271916 2.723978,-4.8869388 2.723978,-7.8543402 0,-2.7912119 -0.974375,-5.4062344 -2.723978,-7.68433316 -1.170767,-1.39406044 -2.53689,-2.61193144 -4.092859,-3.65979504 l 2.5331,-4.0090829 1.559759,1.217871 14.990495,11.3441282 0.972997,0.8716741 c -0.586761,0.8716742 -0.78074,1.576432 -0.78074,2.2719167 0,2.0957273 1.558724,4.1852723 4.092858,4.1852723 l 7.978646,-0.695485 3.11297,-0.349287 c 0,0.173098 0.196391,0.349287 0.196391,0.525477 0.780741,2.438833 2.341878,4.537651 4.282704,6.110992 2.728113,2.265735 6.429223,3.659795 10.321557,3.659795 l 0.39037,0 c 8.17607,-0.176189 14.98912,-6.284091 14.98912,-13.7891432 0,-7.50505266 -6.81305,-13.6191359 -14.98912,-13.7922343"
       style="fill:#191412;fill-opacity:1;fill-rule:nonzero;stroke:none"
       id="path1282" />
  </g>
</svg>
