<?xml version="1.0" encoding="UTF-8" standalone="no"?>
<!-- Created with Inkscape (http://www.inkscape.org/) -->

<svg
   xmlns:dc="http://purl.org/dc/elements/1.1/"
   xmlns:cc="http://creativecommons.org/ns#"
   xmlns:rdf="http://www.w3.org/1999/02/22-rdf-syntax-ns#"
   xmlns:svg="http://www.w3.org/2000/svg"
   xmlns="http://www.w3.org/2000/svg"
   xmlns:sodipodi="http://sodipodi.sourceforge.net/DTD/sodipodi-0.dtd"
   xmlns:inkscape="http://www.inkscape.org/namespaces/inkscape"
   id="svg2993"
   version="1.1"
   preserveAspectRatio="xMinYMin meet"
   viewBox="0 0 145 130"
   inkscape:version="0.48.3.1 r9886"
   sodipodi:docname="cod_77h.svg"
   width="100%"
   height="100%">
  <defs
     id="defs2995" />
  <sodipodi:namedview
     id="base"
     pagecolor="#ffffff"
     bordercolor="#666666"
     borderopacity="1.0"
     inkscape:pageopacity="0.0"
     inkscape:pageshadow="2"
     inkscape:zoom="1.0353448"
     inkscape:cx="-71.788619"
     inkscape:cy="-31.652006"
     inkscape:current-layer="layer1"
     showgrid="true"
     inkscape:document-units="px"
     inkscape:grid-bbox="true"
     inkscape:window-width="1366"
     inkscape:window-height="692"
     inkscape:window-x="0"
     inkscape:window-y="24"
     inkscape:window-maximized="1" />
  <metadata
     id="metadata2998">
    <rdf:RDF>
      <cc:Work
         rdf:about="">
        <dc:format>image/svg+xml</dc:format>
        <dc:type
           rdf:resource="http://purl.org/dc/dcmitype/StillImage" />
        <dc:title></dc:title>
      </cc:Work>
    </rdf:RDF>
  </metadata>
  <g
     id="layer1"
     inkscape:label="Layer 1"
     inkscape:groupmode="layer"
     transform="translate(0,66)">
    <path
       inkscape:connector-curvature="0"
       d="m 114.99549,-14.680819 -65.703192,0 -19.54912,3.197128 -1.966832,15.1800833 88.039804,0 -0.82066,-18.3772113"
       style="fill:#191412;fill-opacity:1;fill-rule:nonzero;stroke:none"
       id="path4803" />
    <path
       inkscape:connector-curvature="0"
       d="m 46.497929,31.654947 c -1.478563,0 -2.952541,-2.793791 -2.952541,-6.78811 0,-3.593212 1.473978,-7.197583 2.952541,-7.197583 1.480855,0 2.96171,3.604371 2.96171,7.197583 0,3.994319 -1.480855,6.78811 -2.96171,6.78811 z m 0,-23.1687198 c -3.610444,0 -6.565277,7.5942258 -6.565277,16.3806098 0,8.389743 2.954833,15.977832 6.565277,15.977832 3.777785,0 6.572154,-7.588089 6.572154,-15.977832 0,-8.786384 -2.794369,-16.3806098 -6.572154,-16.3806098"
       style="fill:#191412;fill-opacity:1;fill-rule:nonzero;stroke:none"
       id="path4805" />
    <path
       inkscape:connector-curvature="0"
       d="m 96.10657,31.654947 c -1.478562,0 -2.959417,-2.793791 -2.959417,-6.78811 0,-3.593212 1.480855,-7.197583 2.959417,-7.197583 1.478563,0 2.957126,3.604371 2.957126,7.197583 0,3.994319 -1.478563,6.78811 -2.957126,6.78811 z m 0,-23.1687198 c -3.612736,0 -6.574446,7.5942258 -6.574446,16.3806098 0,8.389743 2.96171,15.977832 6.574446,15.977832 3.775493,0 6.56986,-7.588089 6.56986,-15.977832 0,-8.786384 -2.794367,-16.3806098 -6.56986,-16.3806098"
       style="fill:#191412;fill-opacity:1;fill-rule:nonzero;stroke:none"
       id="path4807" />
    <path
       inkscape:connector-curvature="0"
       d="m 43.545388,7.2873738 -15.443529,0 3.284931,14.7789782 7.225472,2.800485 c 0,-7.984731 1.971417,-14.78344 4.933126,-17.5794632"
       style="fill:#191412;fill-opacity:1;fill-rule:nonzero;stroke:none"
       id="path4809" />
    <path
       inkscape:connector-curvature="0"
       d="m 62.429728,-36.637855 9.036424,0 0,19.958761 2.136466,0 0,-19.958761 8.869083,0 5.749202,19.958761 11.170598,0 -10.51728,-25.559175 -27.097812,0 -12.974673,25.559175 3.610443,0 10.017549,-19.958761"
       style="fill:#191412;fill-opacity:1;fill-rule:nonzero;stroke:none"
       id="path4811" />
    <path
       inkscape:connector-curvature="0"
       d="m 93.312202,6.8907313 -43.852563,0 c 2.95254,2.8004857 4.923957,9.5841327 4.923957,17.9761057 l 33.837307,0 c 0,-8.391973 1.973709,-15.5811883 5.091299,-17.9761057"
       style="fill:#191412;fill-opacity:1;fill-rule:nonzero;stroke:none"
       id="path4813" />
    <path
       inkscape:connector-curvature="0"
       d="m 103.98995,24.866837 9.85479,-2.002737 1.6459,-15.9733687 -16.594286,0 c 3.124466,2.8004857 5.093596,9.5841327 5.093596,17.9761057"
       style="fill:#191412;fill-opacity:1;fill-rule:nonzero;stroke:none"
       id="path4815" />
    <path
       inkscape:connector-curvature="0"
       d="m 144.17705,61.99782 -143.35409809,0 0,-125.988388 143.35409809,0 0,125.988388 z M 0.41032978,-66 0,-66 0,64 145,64 145,-66 0.41032978,-66"
       style="fill:#191412;fill-opacity:1;fill-rule:nonzero;stroke:none"
       id="path4817" />
    <path
       inkscape:connector-curvature="0"
       d="m 3.5439656,-42.925001 c 0,-8.378585 2.6957979,-14.950801 6.1411927,-14.950801 l 125.8291217,0 c 3.28034,0 5.94405,6.704988 5.94405,14.950801 l 0,83.845539 c 0,7.838571 -2.72331,14.467689 -5.94405,14.467689 l -125.8291217,0 c -3.3857938,0 -6.1411927,-6.489651 -6.1411927,-14.467689 l 0,-83.845539 z m 6.1411927,101.771438 125.8291217,0 c 3.99326,0 7.36989,-8.206762 7.36989,-17.925899 l 0,-83.845539 c 0,-10.15483 -3.30557,-18.409568 -7.36989,-18.409568 l -125.8291217,0 c -4.2431309,0 -7.5670314,8.082916 -7.5670314,18.409568 l 0,83.845539 c 0,9.887054 3.3926708,17.925899 7.5670314,17.925899"
       style="fill:#191412;fill-opacity:1;fill-rule:nonzero;stroke:none"
       id="path4819" />
  </g>
</svg>
