<?xml version="1.0" encoding="UTF-8" standalone="no"?>
<!-- Created with Inkscape (http://www.inkscape.org/) -->

<svg
   xmlns:dc="http://purl.org/dc/elements/1.1/"
   xmlns:cc="http://creativecommons.org/ns#"
   xmlns:rdf="http://www.w3.org/1999/02/22-rdf-syntax-ns#"
   xmlns:svg="http://www.w3.org/2000/svg"
   xmlns="http://www.w3.org/2000/svg"
   xmlns:sodipodi="http://sodipodi.sourceforge.net/DTD/sodipodi-0.dtd"
   xmlns:inkscape="http://www.inkscape.org/namespaces/inkscape"
   id="svg2993"
   version="1.1"
   preserveAspectRatio="xMinYMin meet"
   viewBox="0 0 145 130"
   inkscape:version="0.48.3.1 r9886"
   sodipodi:docname="Nuovo documento 3">
  <defs
     id="defs2995" />
  <sodipodi:namedview
     id="base"
     pagecolor="#ffffff"
     bordercolor="#666666"
     borderopacity="1.0"
     inkscape:pageopacity="0.0"
     inkscape:pageshadow="2"
     inkscape:zoom="2.75"
     inkscape:cx="-37.360106"
     inkscape:cy="119.36197"
     inkscape:current-layer="layer1"
     showgrid="true"
     inkscape:document-units="px"
     inkscape:grid-bbox="true"
     inkscape:window-width="1366"
     inkscape:window-height="692"
     inkscape:window-x="0"
     inkscape:window-y="24"
     inkscape:window-maximized="1" />
  <metadata
     id="metadata2998">
    <rdf:RDF>
      <cc:Work
         rdf:about="">
        <dc:format>image/svg+xml</dc:format>
        <dc:type
           rdf:resource="http://purl.org/dc/dcmitype/StillImage" />
        <dc:title></dc:title>
      </cc:Work>
    </rdf:RDF>
  </metadata>
  <g
     id="layer1"
     inkscape:label="Layer 1"
     inkscape:groupmode="layer"
     transform="translate(0,66)">
    <path
       inkscape:connector-curvature="0"
       d="M 51.720361,46.290085 49.23857,49.147477 51.881517,64.77945 C 53.647062,58.302792 51.655756,55.095517 51.720219,46.290085"
       style="fill:#f3d998;fill-opacity:1;fill-rule:nonzero;stroke:none"
       id="path3120" />
    <path
       inkscape:connector-curvature="0"
       d="m 59.921403,49.297053 -1.683178,-8.156687 0.916795,13.259171 0.766383,-5.102484"
       style="fill:#f3d998;fill-opacity:1;fill-rule:nonzero;stroke:none"
       id="path3122" />
    <path
       inkscape:connector-curvature="0"
       d="m 143.57531,59.62594 c -1.35728,2.387088 -3.7818,3.812285 -6.48918,3.812285 l -128.9869342,0 c -2.7066923,0 -5.1326164,-1.425197 -6.4880967,-3.812285 -1.35407678,-2.38359 -1.35407678,-5.233691 0,-7.621072 L 66.102603,-61.594523 c 1.357285,-2.38359 3.778196,-3.804996 6.489185,-3.804996 2.707409,0 5.1319,1.421406 6.489186,3.804996 l 32.248966,56.8014451 32.24537,56.7979459 c 1.3537,2.38359 1.3537,5.233693 0,7.621072 z M 111.85638,-5.1065163 79.610996,-61.900672 c -1.464722,-2.5804 -4.089763,-4.122225 -7.019208,-4.122225 -2.925864,0 -5.554485,1.541825 -7.019236,4.122225 L 1.0825098,51.69143 c -1.46758737,2.580399 -1.46758737,5.667549 0,8.247948 1.4632897,2.576609 4.0861812,4.121933 7.016686,4.121933 l 128.9869042,0 c 2.92586,0 5.55448,-1.545324 7.01562,-4.121933 1.46834,-2.587689 1.46834,-5.667549 0,-8.247948 L 111.85635,-5.1065163"
       style="fill:#191412;fill-opacity:1;fill-rule:nonzero;stroke:none"
       id="path3744" />
    <path
       inkscape:connector-curvature="0"
       d="m 23.112421,47.000934 49.479367,-87.154232 49.478252,87.154232 -98.957619,0 z M 77.096974,-60.424742 c -2.001907,-3.524213 -7.004911,-3.524213 -9.00679,0 C 46.592071,-22.560513 25.093212,15.303423 3.5975918,53.174941 1.5956854,56.699155 4.0971876,61.10566 8.0991958,61.10566 l 128.9869342,0 c 4.00023,0 6.49992,-4.406505 4.5016,-7.930719 C 120.08962,15.303423 98.591477,-22.560513 77.096974,-60.424742"
       style="fill:#c13339;fill-opacity:1;fill-rule:nonzero;stroke:none"
       id="path3746" />
    <path
       inkscape:connector-curvature="0"
       d="m 103.41181,30.056894 c 0.54079,0.550485 1.26062,0.914949 1.98042,1.09718 l 0,9.541647 -65.599164,0 0,-10.088342 c 0.903902,-0.180773 2.161286,-0.368253 2.702768,-0.918447 3.42331,-4.030963 5.947733,-7.14727 11.538001,-7.14727 7.209012,0 10.446443,8.984165 17.659065,8.984165 7.570716,0 11.527945,-8.801933 19.460394,-8.801933 6.131063,0.186605 8.473186,3.663001 12.258516,7.333 z m -80.299389,16.94404 98.957619,0 -49.478252,-87.154232 -49.479367,87.154232"
       style="fill:#ffffff;fill-opacity:1;fill-rule:nonzero;stroke:none"
       id="path3748" />
    <path
       inkscape:connector-curvature="0"
       d="m 54.033835,22.541662 c -5.590268,0 -8.114691,3.116307 -11.538001,7.14727 -0.541453,0.550194 -1.798866,0.736216 -2.702768,0.918447 l 0,10.088342 65.599164,0 0,-9.541647 c -0.71983,-0.180774 -1.43966,-0.546695 -1.98042,-1.09718 -3.78533,-3.669999 -6.127453,-7.146977 -12.258516,-7.333 -7.93242,0 -11.889678,8.801933 -19.460394,8.801933 -7.212622,0 -10.450053,-8.984165 -17.659065,-8.984165"
       style="fill:#191412;fill-opacity:1;fill-rule:nonzero;stroke:none"
       id="path3750" />
  </g>
</svg>
