<?xml version="1.0" encoding="UTF-8" standalone="no"?>
<!-- Created with Inkscape (http://www.inkscape.org/) -->

<svg
   xmlns:dc="http://purl.org/dc/elements/1.1/"
   xmlns:cc="http://creativecommons.org/ns#"
   xmlns:rdf="http://www.w3.org/1999/02/22-rdf-syntax-ns#"
   xmlns:svg="http://www.w3.org/2000/svg"
   xmlns="http://www.w3.org/2000/svg"
   xmlns:sodipodi="http://sodipodi.sourceforge.net/DTD/sodipodi-0.dtd"
   xmlns:inkscape="http://www.inkscape.org/namespaces/inkscape"
   id="svg2993"
   version="1.1"
   preserveAspectRatio="xMinYMin meet"
   viewBox="0 0 145 130"
   inkscape:version="0.48.3.1 r9886"
   sodipodi:docname="cod_45.svg"
   width="100%"
   height="100%">
  <defs
     id="defs2995" />
  <sodipodi:namedview
     id="base"
     pagecolor="#ffffff"
     bordercolor="#666666"
     borderopacity="1.0"
     inkscape:pageopacity="0.0"
     inkscape:pageshadow="2"
     inkscape:zoom="1"
     inkscape:cx="59.333669"
     inkscape:cy="37.333741"
     inkscape:current-layer="layer1"
     showgrid="true"
     inkscape:document-units="px"
     inkscape:grid-bbox="true"
     inkscape:window-width="1366"
     inkscape:window-height="692"
     inkscape:window-x="0"
     inkscape:window-y="24"
     inkscape:window-maximized="1" />
  <metadata
     id="metadata2998">
    <rdf:RDF>
      <cc:Work
         rdf:about="">
        <dc:format>image/svg+xml</dc:format>
        <dc:type
           rdf:resource="http://purl.org/dc/dcmitype/StillImage" />
        <dc:title></dc:title>
      </cc:Work>
    </rdf:RDF>
  </metadata>
  <g
     id="layer1"
     inkscape:label="Layer 1"
     inkscape:groupmode="layer"
     transform="translate(0,66)">
    <path
       inkscape:connector-curvature="0"
       d="m 72.503445,63.239603 c -39.509433,0 -71.65929996,-28.817795 -71.65929996,-64.2411485 0,-35.4202625 32.14986696,-64.2380575 71.65929996,-64.2380575 39.509435,0 71.655855,28.817795 71.655855,64.2380575 0,35.4233535 -32.14642,64.2411485 -71.655855,64.2411485 z M 72.503445,-66 C 32.525425,-66 0,-36.839099 0,-1.0015455 0,34.84219 32.525425,64 72.503445,64 112.48147,64 145,34.84219 145,-1.0015455 145,-36.839099 112.48147,-66 72.503445,-66"
       style="fill:#191412;fill-opacity:1;fill-rule:nonzero;stroke:none"
       id="path1426" />
    <path
       inkscape:connector-curvature="0"
       d="m 72.503445,45.305371 c -28.532102,0 -51.661676,-20.731626 -51.661676,-46.3069165 0,-25.5721995 23.129574,-46.3007345 51.661676,-46.3007345 28.528655,0 51.651345,20.728535 51.651345,46.3007345 0,25.5752905 -23.12269,46.3069165 -51.651345,46.3069165 z m 0,-108.764534 c -38.482677,0 -69.6746977,27.961576 -69.6746977,62.4576175 0,34.4991325 31.1920207,62.4637995 69.6746977,62.4637995 38.479235,0 69.674695,-27.964667 69.674695,-62.4637995 0,-34.4960415 -31.19546,-62.4576175 -69.674695,-62.4576175"
       style="fill:#c13339;fill-opacity:1;fill-rule:nonzero;stroke:none"
       id="path1428" />
    <path
       inkscape:connector-curvature="0"
       d="m 39.309595,10.694962 c -1.557361,0 -2.728828,1.047863 -2.728828,2.441924 0,1.397151 1.171467,2.441924 2.728828,2.441924 1.557362,0 2.921776,-1.044773 2.921776,-2.441924 0,-1.394061 -1.364414,-2.441924 -2.921776,-2.441924"
       style="fill:#ffffff;fill-opacity:1;fill-rule:nonzero;stroke:none"
       id="path1430" />
    <path
       inkscape:connector-curvature="0"
       d="M 24.904002,5.9811209 C 23.732535,-2.040136 24.121875,-9.2051739 27.822332,-17.754999 l 28.618239,0 0,20.5956201 16.159348,0 0,-20.5956201 44.384801,0 c 3.9003,7.8543404 4.28964,15.5355825 3.12161,23.7361199 l -95.202328,0 z m 92.866288,6.9826661 -19.863247,0 C 97.521148,11.050432 97.521148,9.650189 95.374608,8.0768481 l 23.953042,0 c -0.19653,1.5733409 -0.77868,3.3135979 -1.55736,4.8869389 z m -28.039395,5.591697 c -3.30767,0 -6.029607,-2.445015 -6.029607,-5.418598 0,-2.964311 2.721937,-5.4062347 6.029607,-5.4062347 3.311116,0 5.846997,2.4419237 5.846997,5.4062347 0,2.973583 -2.535881,5.418598 -5.846997,5.418598 z m -17.130976,-5.591697 0,-4.8869389 11.287425,0 c -1.357523,1.4002425 -2.136203,1.7464393 -2.332596,4.8869389 l -8.954829,0 z m -16.159348,0 -8.951383,0 C 47.28935,9.8232874 46.514115,9.4770906 45.342648,8.0768481 l 11.097923,0 0,4.8869389 z m -17.130976,5.591697 c -3.118168,0 -5.843551,-2.445015 -5.843551,-5.418598 0,-2.964311 2.725383,-5.4062347 5.843551,-5.4062347 3.30767,0 6.033053,2.4419237 6.033053,5.4062347 0,2.973583 -2.725383,5.418598 -6.033053,5.418598 z m -8.179593,-5.591697 -4.475692,0 C 25.87563,11.390446 25.486289,9.650189 25.289896,8.0768481 l 8.372541,0 C 31.526233,9.650189 31.526233,11.050432 31.130002,12.963787 z M 72.503445,-47.30228 c -28.532102,0 -51.661676,20.728535 -51.661676,46.3007345 0,25.5752905 23.129574,46.3069165 51.661676,46.3069165 28.528655,0 51.651345,-20.731626 51.651345,-46.3069165 0,-25.5721995 -23.12269,-46.3007345 -51.651345,-46.3007345"
       style="fill:#ffffff;fill-opacity:1;fill-rule:nonzero;stroke:none"
       id="path1432" />
    <path
       inkscape:connector-curvature="0"
       d="m 89.730895,10.694962 c -1.557361,0 -2.725382,1.047863 -2.725382,2.441924 0,1.397151 1.168021,2.441924 2.725382,2.441924 1.557362,0 2.725383,-1.044773 2.725383,-2.441924 0,-1.394061 -1.168021,-2.441924 -2.725383,-2.441924"
       style="fill:#ffffff;fill-opacity:1;fill-rule:nonzero;stroke:none"
       id="path1434" />
    <path
       inkscape:connector-curvature="0"
       d="m 97.907043,12.963787 19.863247,0 c 0.77868,-1.573341 1.36097,-3.313598 1.55736,-4.8869389 l -23.953042,0 c 2.14654,1.5733409 2.14654,2.9735839 2.532435,4.8869389"
       style="fill:#191412;fill-opacity:1;fill-rule:nonzero;stroke:none"
       id="path1436" />
    <path
       inkscape:connector-curvature="0"
       d="m 72.599919,8.0768481 0,4.8869389 8.954829,0 c 0.196255,-3.1404996 0.975073,-3.4866964 2.332596,-4.8869389 l -11.287425,0"
       style="fill:#191412;fill-opacity:1;fill-rule:nonzero;stroke:none"
       id="path1438" />
    <path
       inkscape:connector-curvature="0"
       d="m 89.730895,15.57881 c -1.557361,0 -2.725382,-1.044773 -2.725382,-2.441924 0,-1.394061 1.168021,-2.441924 2.725382,-2.441924 1.557362,0 2.725383,1.047863 2.725383,2.441924 0,1.397151 -1.168021,2.441924 -2.725383,2.441924 z m 0,-7.8481587 c -3.30767,0 -6.029607,2.4419237 -6.029607,5.4062347 0,2.973583 2.721937,5.418598 6.029607,5.418598 3.311116,0 5.846997,-2.445015 5.846997,-5.418598 0,-2.964311 -2.535881,-5.4062347 -5.846997,-5.4062347"
       style="fill:#191412;fill-opacity:1;fill-rule:nonzero;stroke:none"
       id="path1440" />
    <path
       inkscape:connector-curvature="0"
       d="m 25.289896,8.0768481 c 0.196256,1.5733409 0.585734,3.3135979 1.364414,4.8869389 l 4.475692,0 c 0.396231,-1.913355 0.396231,-3.313598 2.532435,-4.8869389 l -8.372541,0"
       style="fill:#191412;fill-opacity:1;fill-rule:nonzero;stroke:none"
       id="path1442" />
    <path
       inkscape:connector-curvature="0"
       d="m 47.489188,12.963787 8.951383,0 0,-4.8869389 -11.097923,0 c 1.171467,1.4002425 1.946702,1.7464393 2.14654,4.8869389"
       style="fill:#191412;fill-opacity:1;fill-rule:nonzero;stroke:none"
       id="path1444" />
    <path
       inkscape:connector-curvature="0"
       d="m 39.309595,15.57881 c -1.557361,0 -2.728828,-1.044773 -2.728828,-2.441924 0,-1.394061 1.171467,-2.441924 2.728828,-2.441924 1.557362,0 2.921776,1.047863 2.921776,2.441924 0,1.397151 -1.364414,2.441924 -2.921776,2.441924 z m 0,-7.8481587 c -3.118168,0 -5.843551,2.4419237 -5.843551,5.4062347 0,2.973583 2.725383,5.418598 5.843551,5.418598 3.30767,0 6.033053,-2.445015 6.033053,-5.418598 0,-2.964311 -2.725383,-5.4062347 -6.033053,-5.4062347"
       style="fill:#191412;fill-opacity:1;fill-rule:nonzero;stroke:none"
       id="path1446" />
    <path
       inkscape:connector-curvature="0"
       d="m 116.98472,-17.754999 -44.384801,0 0,20.5956201 -16.159348,0 0,-20.5956201 -28.618239,0 c -3.700457,8.5498251 -4.089797,15.714863 -2.91833,23.7361199 l 95.202328,0 c 1.16803,-8.2005374 0.77869,-15.8817795 -3.12161,-23.7361199"
       style="fill:#191412;fill-opacity:1;fill-rule:nonzero;stroke:none"
       id="path1448" />
  </g>
</svg>
