<?xml version="1.0" encoding="UTF-8" standalone="no"?>
<!-- Created with Inkscape (http://www.inkscape.org/) -->

<svg
   xmlns:dc="http://purl.org/dc/elements/1.1/"
   xmlns:cc="http://creativecommons.org/ns#"
   xmlns:rdf="http://www.w3.org/1999/02/22-rdf-syntax-ns#"
   xmlns:svg="http://www.w3.org/2000/svg"
   xmlns="http://www.w3.org/2000/svg"
   xmlns:sodipodi="http://sodipodi.sourceforge.net/DTD/sodipodi-0.dtd"
   xmlns:inkscape="http://www.inkscape.org/namespaces/inkscape"
   id="svg2993"
   version="1.1"
   preserveAspectRatio="xMinYMin meet"
   viewBox="0 0 145 130"
   inkscape:version="0.48.3.1 r9886"
   sodipodi:docname="cod_23.svg"
   width="100%"
   height="100%">
  <defs
     id="defs2995" />
  <sodipodi:namedview
     id="base"
     pagecolor="#ffffff"
     bordercolor="#666666"
     borderopacity="1.0"
     inkscape:pageopacity="0.0"
     inkscape:pageshadow="2"
     inkscape:zoom="4.0153846"
     inkscape:cx="72.5"
     inkscape:cy="65"
     inkscape:current-layer="layer1"
     showgrid="true"
     inkscape:document-units="px"
     inkscape:grid-bbox="true"
     inkscape:window-width="1366"
     inkscape:window-height="692"
     inkscape:window-x="0"
     inkscape:window-y="24"
     inkscape:window-maximized="1" />
  <metadata
     id="metadata2998">
    <rdf:RDF>
      <cc:Work
         rdf:about="">
        <dc:format>image/svg+xml</dc:format>
        <dc:type
           rdf:resource="http://purl.org/dc/dcmitype/StillImage" />
        <dc:title></dc:title>
      </cc:Work>
    </rdf:RDF>
  </metadata>
  <g
     id="layer1"
     inkscape:label="Layer 1"
     inkscape:groupmode="layer"
     transform="translate(0,66)">
    <path
       inkscape:connector-curvature="0"
       d="m 143.37653,59.570872 c -1.34812,2.378471 -3.77975,3.806282 -6.47957,3.806282 l -128.7939215,0 c -2.7033958,0 -5.1278698,-1.427811 -6.4795706,-3.806282 -1.35884979,-2.389398 -1.35884979,-5.234092 0,-7.616206 L 66.018646,-61.574515 c 1.358849,-2.382113 3.779748,-3.802639 6.479567,-3.802639 2.703396,0 5.12787,1.420526 6.479568,3.802639 L 143.37653,51.954666 c 1.35528,2.382114 1.35528,5.226808 0,7.616206 z m 0.52924,-7.92945 L 79.510593,-61.884116 C 78.044466,-64.462918 75.426892,-66 72.498213,-66 c -2.925102,0 -5.542676,1.537082 -7.008804,4.115884 L 1.0942316,51.641422 c -1.45897548,2.578802 -1.45897548,5.663893 0,8.242694 C 2.556786,62.459275 5.1743597,64 8.1030385,64 L 136.89696,64 c 2.92868,0 5.54983,-1.540725 7.00881,-4.119526 1.45897,-2.578801 1.45897,-5.66025 0,-8.239052"
       style="fill:#191412;fill-opacity:1;fill-rule:nonzero;stroke:none"
       id="path1098" />
    <path
       inkscape:connector-curvature="0"
       d="m 23.089721,46.953686 49.408492,-87.100109 49.412067,87.100109 -98.820559,0 z M 76.993145,-60.405312 c -1.991787,-3.525819 -6.990924,-3.525819 -8.986288,0 C 46.537031,-22.568323 25.070781,15.279594 3.6081066,53.120226 1.6127401,56.63876 4.1051595,61.046034 8.1030385,61.046034 l 128.7939215,0 c 3.99431,0 6.49388,-4.407274 4.49494,-7.925808 C 119.92565,15.279594 98.459396,-22.568323 76.993145,-60.405312"
       style="fill:#c13339;fill-opacity:1;fill-rule:nonzero;stroke:none"
       id="path1100" />
    <path
       inkscape:connector-curvature="0"
       d="M 85.128364,-5.3508167 87.645812,2.8918775 85.485956,1.973999 83.687268,-3.5187022 C 83.329676,-4.4292959 83.15088,-4.7971758 82.070952,-5.3508167 l -8.278255,-1.6536382 -8.27468,-1.2784736 c -1.444672,0 -1.623468,0.1821188 -2.521024,0.9215209 l -3.239784,4.7605839 -1.802264,0 4.140916,-6.5963409 c 1.083504,-0.9178784 1.43752,-1.0999974 2.69982,-1.2784734 l 18.176403,3.2927067 c 1.2623,0.553641 1.619892,0.9142361 2.15628,1.8321146 z M 88.732892,6.1882267 84.052012,5.277633 C 83.329676,5.4561094 82.435696,5.4561094 82.253324,7.2882239 L 88.3753,8.3845787 88.189352,9.4809336 82.070952,8.20246 c -0.178796,1.2784736 0,2.014233 0.901132,2.382113 l 4.673728,0.732117 c 0,0.364238 -0.532812,0.73576 -0.897556,0.73576 L 71.275249,9.3060996 55.619869,6.3667031 c -0.361168,0 -0.71876,-0.5390715 -0.71876,-0.9105937 l 4.677304,0.9105937 c 1.083504,0 1.441096,-0.5390715 1.619892,-1.8248298 l -6.121976,-1.1036396 0.182372,-1.0927124 6.1184,1.2821159 C 61.738269,1.7918803 61.019509,1.4240004 60.297173,1.0561206 L 55.619869,0.14552688 C 56.521001,-0.95447031 57.779725,-1.69023 59.042025,-1.69023 c 4.319712,0.1894035 9.175812,0.91787843 13.67432,1.83575688 4.498508,0.91059372 9.175811,1.82847212 13.316727,2.93211172 1.433944,0.5499986 2.15628,1.6536382 2.69982,3.1105881 z m 3.236208,35.9028883 -9.175812,0 C 98.627464,31.644784 78.29478,31.280547 80.637008,20.841501 l 3.597376,0.549998 c -1.083504,8.242694 17.271696,6.953294 7.734716,20.699616 z m -12.054428,-23.631727 0.532813,-2.746351 5.585587,1.099997 -0.547116,2.746351 c -0.17522,0.371522 -0.71876,0.735759 -1.072776,0.546356 l -3.600952,-0.546356 c -0.543539,-0.178477 -0.897556,-0.546357 -0.897556,-1.099997 z m -21.416187,23.813846 -12.959136,0 c 26.640608,-12.453279 8.821796,-15.753271 9.53698,-25.831722 0,0 3.597376,0.371522 3.597376,0.557283 -2.692668,7.135413 16.020124,7.692696 -0.17522,25.274439 z m 1.798688,-30.220784 -0.539964,2.924827 c -0.178796,0.375165 -0.715184,0.546356 -1.083504,0.546356 l -3.772596,-0.728475 c -0.361168,0 -0.722336,-0.549998 -0.722336,-0.917878 l 0.536388,-2.746351 5.582012,0.921521 z m -7.191176,-3.6678713 0,-0.3642374 c 0.171644,-0.5499986 0.711608,-0.9178785 1.255148,-0.7321174 l 33.284667,5.8642231 c 0.54354,0.174834 0.908284,0.724833 0.908284,1.278474 L 88.3753,14.795158 c 0,0.557284 -0.539964,0.917879 -1.2623,0.728475 L 54.003553,9.6703371 C 53.277641,9.4809336 52.920049,8.930935 53.105997,8.3845787 z m -30.016276,38.5691073 98.820559,0 -49.412067,-87.100109 -49.408492,87.100109"
       style="fill:#ffffff;fill-opacity:1;fill-rule:nonzero;stroke:none"
       id="path1102" />
    <path
       inkscape:connector-curvature="0"
       d="m 58.673705,16.998795 c 0,-0.185761 -3.597376,-0.557283 -3.597376,-0.557283 -0.715184,10.078451 17.103628,13.378443 -9.53698,25.831722 l 12.959136,0 C 74.693829,24.691491 55.981037,24.134208 58.673705,16.998795"
       style="fill:#191412;fill-opacity:1;fill-rule:nonzero;stroke:none"
       id="path1104" />
    <path
       inkscape:connector-curvature="0"
       d="m 84.234384,21.391499 -3.597376,-0.549998 c -2.342228,10.439046 17.990456,10.803283 2.15628,21.249614 l 9.175812,0 C 101.50608,28.344793 83.15088,29.634193 84.234384,21.391499"
       style="fill:#191412;fill-opacity:1;fill-rule:nonzero;stroke:none"
       id="path1106" />
    <path
       inkscape:connector-curvature="0"
       d="M 54.003553,9.6703371 87.113,15.523633 c 0.722336,0.189404 1.2623,-0.171191 1.2623,-0.728475 l 0.178796,-0.364237 c 0,-0.553641 -0.364744,-1.10364 -0.908284,-1.278474 L 54.361145,7.2882239 c -0.54354,-0.1857611 -1.083504,0.1821188 -1.255148,0.7321174 l 0,0.3642374 c -0.185948,0.5463563 0.171644,1.0963549 0.897556,1.2857584"
       style="fill:#191412;fill-opacity:1;fill-rule:nonzero;stroke:none"
       id="path1108" />
    <path
       inkscape:connector-curvature="0"
       d="m 54.901109,14.795158 3.772596,0.728475 c 0.36832,0 0.904708,-0.171191 1.083504,-0.546356 l 0.539964,-2.924827 -5.582012,-0.921521 -0.536388,2.746351 c 0,0.36788 0.361168,0.917878 0.722336,0.917878"
       style="fill:#191412;fill-opacity:1;fill-rule:nonzero;stroke:none"
       id="path1110" />
    <path
       inkscape:connector-curvature="0"
       d="m 84.41318,20.105741 c 0.354016,0.189403 0.897556,-0.174834 1.072776,-0.546356 l 0.547116,-2.746351 -5.585587,-1.099997 -0.532813,2.746351 c 0,0.55364 0.354017,0.92152 0.897556,1.099997 l 3.600952,0.546356"
       style="fill:#191412;fill-opacity:1;fill-rule:nonzero;stroke:none"
       id="path1112" />
    <path
       inkscape:connector-curvature="0"
       d="m 62.095861,-9.1971646 -4.140916,6.5963409 1.802264,0 3.239784,-4.7605839 c 0.897556,-0.7394021 1.076352,-0.9215209 2.521024,-0.9215209 l 8.27468,1.2784736 8.278255,1.6536382 c 1.079928,0.5536409 1.258724,0.9215208 1.616316,1.8321145 l 1.798688,5.4927012 2.159856,0.9178785 -2.517448,-8.2426942 c -0.536388,-0.9178785 -0.89398,-1.2784736 -2.15628,-1.8321146 L 64.795681,-10.475638 c -1.2623,0.178476 -1.616316,0.360595 -2.69982,1.2784734"
       style="fill:#191412;fill-opacity:1;fill-rule:nonzero;stroke:none"
       id="path1114" />
    <path
       inkscape:connector-curvature="0"
       d="m 77.032481,5.8276316 -0.182372,1.6427111 c -0.178796,0.5499986 -0.71876,0.914236 -1.255148,0.7321173 l -8.09946,-1.4605923 c -0.715184,0 -1.079928,-0.553641 -0.904708,-1.1036396 l 0.189524,-1.6463534 c 0.17522,-0.7321173 0.715184,-1.0999972 1.255148,-0.9142361 l 8.095884,1.4642347 c 0.71876,0.1894035 1.083504,0.5463562 0.901132,1.2857583 z M 72.716345,0.14552688 C 68.217837,-0.77235157 63.361737,-1.5008265 59.042025,-1.69023 c -1.2623,0 -2.521024,0.73575969 -3.422156,1.83575688 l 4.677304,0.91059372 c 0.722336,0.3678798 1.441096,0.7357597 1.079928,2.5715166 l -6.1184,-1.2821159 -0.182372,1.0927124 6.121976,1.1036396 C 61.019509,5.8276316 60.661917,6.3667031 59.578413,6.3667031 L 54.901109,5.4561094 c 0,0.3715222 0.357592,0.9105937 0.71876,0.9105937 l 15.65538,2.9393965 15.473007,2.7463504 c 0.364744,0 0.897556,-0.371522 0.897556,-0.73576 L 82.972084,10.584573 C 82.070952,10.216693 81.892156,9.4809336 82.070952,8.20246 l 6.1184,1.2784736 L 88.3753,8.3845787 82.253324,7.2882239 C 82.435696,5.4561094 83.329676,5.4561094 84.052012,5.277633 l 4.68088,0.9105937 C 88.189352,4.7312768 87.467016,3.6276372 86.033072,3.0776386 81.892156,1.973999 77.214853,1.0561206 72.716345,0.14552688"
       style="fill:#191412;fill-opacity:1;fill-rule:nonzero;stroke:none"
       id="path1116" />
    <path
       inkscape:connector-curvature="0"
       d="M 76.131349,4.5418733 68.035465,3.0776386 C 67.495501,2.8918775 66.955537,3.2597574 66.780317,3.9918747 l -0.189524,1.6463534 c -0.17522,0.5499986 0.189524,1.1036396 0.904708,1.1036396 l 8.09946,1.4605923 c 0.536388,0.1821187 1.076352,-0.1821187 1.255148,-0.7321173 L 77.032481,5.8276316 C 77.214853,5.0882295 76.850109,4.7312768 76.131349,4.5418733"
       style="fill:#ffffff;fill-opacity:1;fill-rule:nonzero;stroke:none"
       id="path1118" />
  </g>
</svg>
