<?xml version="1.0" encoding="UTF-8" standalone="no"?>
<!-- Created with Inkscape (http://www.inkscape.org/) -->

<svg
   xmlns:dc="http://purl.org/dc/elements/1.1/"
   xmlns:cc="http://creativecommons.org/ns#"
   xmlns:rdf="http://www.w3.org/1999/02/22-rdf-syntax-ns#"
   xmlns:svg="http://www.w3.org/2000/svg"
   xmlns="http://www.w3.org/2000/svg"
   xmlns:sodipodi="http://sodipodi.sourceforge.net/DTD/sodipodi-0.dtd"
   xmlns:inkscape="http://www.inkscape.org/namespaces/inkscape"
   id="svg2993"
   version="1.1"
   preserveAspectRatio="xMinYMin meet"
   viewBox="0 0 145 130"
   inkscape:version="0.48.3.1 r9886"
   sodipodi:docname="cod_2.svg">
  <defs
     id="defs2995" />
  <sodipodi:namedview
     id="base"
     pagecolor="#ffffff"
     bordercolor="#666666"
     borderopacity="1.0"
     inkscape:pageopacity="0.0"
     inkscape:pageshadow="2"
     inkscape:zoom="3.8890873"
     inkscape:cx="101.22561"
     inkscape:cy="68.299248"
     inkscape:current-layer="layer1"
     showgrid="true"
     inkscape:document-units="px"
     inkscape:grid-bbox="true"
     inkscape:window-width="1366"
     inkscape:window-height="692"
     inkscape:window-x="0"
     inkscape:window-y="24"
     inkscape:window-maximized="1" />
  <metadata
     id="metadata2998">
    <rdf:RDF>
      <cc:Work
         rdf:about="">
        <dc:format>image/svg+xml</dc:format>
        <dc:type
           rdf:resource="http://purl.org/dc/dcmitype/StillImage" />
        <dc:title></dc:title>
      </cc:Work>
    </rdf:RDF>
  </metadata>
  <g
     id="layer1"
     inkscape:label="Layer 1"
     inkscape:groupmode="layer"
     transform="translate(0,66)">
    <path
       inkscape:connector-curvature="0"
       d="m 144.00517,59.73834 c -1.36055,2.39386 -3.78728,3.820688 -6.50837,3.820688 l -129.2914785,0 c -2.7175047,0 -5.1478227,-1.426828 -6.5011904,-3.817038 -1.36413714,-2.386562 -1.36413714,-5.236568 0,-7.630428 L 31.700787,-0.67012405 66.34628,-61.629614 c 1.356957,-2.390211 3.790865,-3.813389 6.50837,-3.813389 2.713915,0 5.140643,1.423178 6.4976,3.813389 l 64.64574,113.741176 c 1.36414,2.39386 1.36414,5.240217 0.006,7.626778 z m 0.5313,-7.936958 -64.645745,-113.741176 c -1.471832,-2.579968 -4.10318,-4.116271 -7.036075,-4.116271 -2.936485,0 -5.567834,1.536303 -7.039666,4.116271 L 31.173081,-0.98395321 1.1728356,51.801382 c -1.47183219,2.583617 -1.47183219,5.67082 0,8.250788 1.4610626,2.583616 4.0995911,4.127218 7.0324859,4.127218 l 129.2914785,0 c 2.94007,0 5.56783,-1.543602 7.03967,-4.127218 1.46824,-2.583617 1.46824,-5.667171 0,-8.250788"
       style="fill:#191412;fill-opacity:1;fill-rule:nonzero;stroke:none"
       id="path4396" />
    <path
       inkscape:connector-curvature="0"
       d="m 23.253908,47.101243 49.600742,-87.262753 49.59715,87.262753 -99.197892,0 z M 77.367072,-60.454579 c -2.006718,-3.539701 -7.025306,-3.539701 -9.032024,0 -21.542597,37.903994 -43.095962,75.826234 -64.6421485,113.737527 -2.0067176,3.528753 0.498987,7.940607 4.512422,7.940607 l 129.2914785,0 c 4.01343,0 6.52273,-4.411854 4.51601,-7.940607 C 120.46662,15.371655 98.913259,-22.550585 77.367072,-60.454579"
       style="fill:#c13339;fill-opacity:1;fill-rule:nonzero;stroke:none"
       id="path4398" />
    <path
       inkscape:connector-curvature="0"
       d="m 78.343507,-12.42777 0.01723,0 -0.0029,0.105826 c 0,0.0254 0.0029,0.05474 0.0029,0.08028 0,0.109475 -0.02585,0.21895 -0.03245,0.324777 l -2.135952,35.265639 -0.06462,0 c -0.168865,1.81729 -1.496961,3.127344 -3.184183,3.127344 -1.859534,0 -3.194953,-1.310054 -3.367265,-3.127344 l -0.0718,0 -2.139542,-35.316728 c 0,-0.09853 -0.0201,-0.182459 -0.0201,-0.273688 0,-0.0254 0,-0.05109 0,-0.07663 l 0,-0.109475 0.01436,0 c 0.100515,-3.036115 2.573911,-5.510256 5.585782,-5.510256 3.008281,0 5.305775,2.474141 5.399111,5.510256 z m -5.399111,53.398397 c -2.893407,0 -5.42065,-2.39386 -5.42065,-5.327798 0,-2.930288 2.527243,-5.309551 5.42065,-5.309551 2.889816,0 5.237568,2.379263 5.237568,5.309551 0,2.933938 -2.347752,5.327798 -5.237568,5.327798 z m -49.690488,6.130616 99.197892,0 L 72.85465,-40.16151 23.253908,47.101243"
       style="fill:#ffffff;fill-opacity:1;fill-rule:nonzero;stroke:none"
       id="path4400" />
    <path
       inkscape:connector-curvature="0"
       d="m 72.944396,30.333278 c -2.893407,0 -5.42065,2.379263 -5.42065,5.309551 0,2.933938 2.527243,5.327798 5.42065,5.327798 2.889816,0 5.237568,-2.39386 5.237568,-5.327798 0,-2.930288 -2.347752,-5.309551 -5.237568,-5.309551"
       style="fill:#191412;fill-opacity:1;fill-rule:nonzero;stroke:none"
       id="path4402" />
    <path
       inkscape:connector-curvature="0"
       d="m 67.358613,-12.42777 -0.01436,0 0,0.109475 c 0,0.02569 0,0.05109 0,0.07663 0,0.09123 0.0201,0.17516 0.0201,0.273688 l 2.139541,35.316728 0.0718,0 c 0.172312,1.81729 1.50773,3.127344 3.367265,3.127344 1.687222,0 3.015461,-1.310054 3.184183,-3.127344 l 0.06462,0 2.135952,-35.265639 c 0.0057,-0.105827 0.03216,-0.215302 0.03216,-0.324777 0,-0.0254 -0.0029,-0.05474 -0.0029,-0.08028 l 0.0029,-0.105826 -0.01723,0 c -0.09334,-3.036115 -2.39083,-5.510256 -5.399111,-5.510256 -3.011871,0 -5.485267,2.474141 -5.585782,5.510256"
       style="fill:#191412;fill-opacity:1;fill-rule:nonzero;stroke:none"
       id="path4404" />
  </g>
</svg>
