<?xml version="1.0" encoding="UTF-8" standalone="no"?>
<!-- Created with Inkscape (http://www.inkscape.org/) -->

<svg
   xmlns:dc="http://purl.org/dc/elements/1.1/"
   xmlns:cc="http://creativecommons.org/ns#"
   xmlns:rdf="http://www.w3.org/1999/02/22-rdf-syntax-ns#"
   xmlns:svg="http://www.w3.org/2000/svg"
   xmlns="http://www.w3.org/2000/svg"
   xmlns:sodipodi="http://sodipodi.sourceforge.net/DTD/sodipodi-0.dtd"
   xmlns:inkscape="http://www.inkscape.org/namespaces/inkscape"
   id="svg2993"
   version="1.1"
   preserveAspectRatio="xMinYMin meet"
   viewBox="0 0 145 130"
   inkscape:version="0.48.3.1 r9886"
   sodipodi:docname="cod_45.svg"
   width="100%"
   height="100%">
  <defs
     id="defs2995" />
  <sodipodi:namedview
     id="base"
     pagecolor="#ffffff"
     bordercolor="#666666"
     borderopacity="1.0"
     inkscape:pageopacity="0.0"
     inkscape:pageshadow="2"
     inkscape:zoom="2.9283974"
     inkscape:cx="89.73991"
     inkscape:cy="104.90474"
     inkscape:current-layer="layer1"
     showgrid="true"
     inkscape:document-units="px"
     inkscape:grid-bbox="true"
     inkscape:window-width="1366"
     inkscape:window-height="692"
     inkscape:window-x="0"
     inkscape:window-y="24"
     inkscape:window-maximized="1" />
  <metadata
     id="metadata2998">
    <rdf:RDF>
      <cc:Work
         rdf:about="">
        <dc:format>image/svg+xml</dc:format>
        <dc:type
           rdf:resource="http://purl.org/dc/dcmitype/StillImage" />
        <dc:title></dc:title>
      </cc:Work>
    </rdf:RDF>
  </metadata>
  <g
     id="layer1"
     inkscape:label="Layer 1"
     inkscape:groupmode="layer"
     transform="translate(0,66)">
    <path
       inkscape:connector-curvature="0"
       d="m 49.882246,27.46944 c -0.177138,-0.107212 -0.31675,-0.231101 -0.424178,-0.374049 -0.105266,-0.147714 -0.156785,-0.302575 -0.156785,-0.469349 l 0,-0.562265 c 0,-0.162009 0.0512,-0.319252 0.156785,-0.462201 0.107173,-0.147714 0.246785,-0.271603 0.424178,-0.381197 0.178411,-0.111976 0.387988,-0.197746 0.6273,-0.262073 0.243605,-0.06194 0.504447,-0.0953 0.777946,-0.0953 0.279542,0 0.537077,0.0405 0.777979,0.119124 0.245195,0.07862 0.453563,0.183451 0.628889,0.31687 0.180001,0.131036 0.321585,0.290663 0.426946,0.471731 0.101131,0.178686 0.155513,0.371667 0.155513,0.57656 0,0.204893 -0.05438,0.393109 -0.155513,0.569413 -0.105266,0.178686 -0.246786,0.331164 -0.426946,0.464583 -0.17523,0.133419 -0.38363,0.238248 -0.628889,0.31687 -0.240743,0.07862 -0.498501,0.116742 -0.777979,0.116742 -0.273499,0 -0.534278,-0.02859 -0.777946,-0.09292 -0.239471,-0.06195 -0.448826,-0.147714 -0.6273,-0.252543 z m 1.970531,2.020343 c 0.636459,0 1.222002,-0.081 1.770209,-0.245396 0.544995,-0.164391 1.021647,-0.393109 1.437843,-0.679006 0.413048,-0.283515 0.739021,-0.621828 0.976743,-1.000642 0.234701,-0.381197 0.355772,-0.788601 0.355772,-1.219829 0,-0.369285 -0.113216,-0.736187 -0.337104,-1.107853 -0.22516,-0.369285 -0.535868,-0.700449 -0.936163,-0.995877 -0.402298,-0.293045 -0.882131,-0.536058 -1.439847,-0.724274 -0.558924,-0.185833 -1.172326,-0.281132 -1.84294,-0.281132 -0.503271,0 -0.944146,0.03574 -1.324564,0.107211 -0.377652,0.06909 -0.796647,0.173921 -1.242292,0.31687 l -0.351001,-0.25969 -2.854252,0 0,7.747824 3.205253,0 0,-2.118025 c 0.144383,0.06433 0.322793,0.126272 0.533897,0.183451 0.209894,0.06194 0.434895,0.107212 0.672617,0.150096 0.234383,0.03574 0.47026,0.06909 0.704802,0.09292 0.242651,0.02383 0.462723,0.03336 0.671027,0.03336"
       style="fill:#191412;fill-opacity:1;fill-rule:nonzero;stroke:none"
       id="path3927" />
    <path
       inkscape:connector-curvature="0"
       d="m 63.455447,27.536149 c 0,0.0953 -0.07124,0.166774 -0.197174,0.212041 -0.131979,0.04765 -0.288446,0.08339 -0.473471,0.104829 -0.184772,0.02382 -0.369702,0.03812 -0.551356,0.04289 -0.183181,0.0048 -0.333924,0.0071 -0.454772,0.0071 -0.195902,0 -0.394762,-0.0405 -0.588755,-0.114359 -0.197174,-0.07624 -0.296397,-0.188216 -0.296397,-0.34546 0,-0.111976 0.06201,-0.200128 0.17841,-0.264455 0.117987,-0.06909 0.270319,-0.109594 0.450415,-0.123889 l 1.933164,-0.235865 0,0.717126 z m 4.032908,0.455054 c -0.13039,0.0048 -0.260779,0 -0.383599,-0.01201 -0.124029,-0.01182 -0.233111,-0.03335 -0.318436,-0.05956 -0.08555,-0.02621 -0.124029,-0.07386 -0.124029,-0.133418 l 0,-3.051957 c 0,-0.271603 -0.161873,-0.500321 -0.482981,-0.693301 -0.320026,-0.192886 -0.708013,-0.347747 -1.153626,-0.464489 -0.444437,-0.119124 -0.913138,-0.204893 -1.396119,-0.262072 -0.484603,-0.05241 -0.892848,-0.081 -1.220412,-0.081 -0.810957,0 -1.590112,0.07386 -2.332695,0.219188 -0.739021,0.142949 -1.428334,0.38358 -2.054425,0.712362 l 1.512578,1.377073 c 0.169506,-0.08577 0.371292,-0.169156 0.604243,-0.25016 0.229612,-0.08101 0.457953,-0.154862 0.684544,-0.212041 0.231202,-0.05718 0.456775,-0.109594 0.681776,-0.147714 0.223888,-0.0405 0.417786,-0.06433 0.588724,-0.07386 0.3538,-0.0143 0.661486,0.0071 0.917495,0.06909 0.254736,0.05718 0.38045,0.140567 0.38045,0.252543 l 0,0.188216 -2.656697,0.376432 c -0.326354,0.05003 -0.666257,0.111976 -1.023619,0.200128 -0.35539,0.08339 -0.675416,0.200128 -0.962813,0.343077 -0.291945,0.140566 -0.526327,0.312105 -0.708013,0.516998 -0.184772,0.207276 -0.277952,0.447906 -0.277952,0.719509 0,0.378814 0.108446,0.695684 0.318436,0.948227 0.207987,0.254925 0.487369,0.457436 0.8336,0.609915 0.347853,0.147713 0.745382,0.252543 1.192585,0.31687 0.444436,0.06433 0.899209,0.0953 1.358751,0.0953 0.389991,0 0.736222,-0.01658 1.022061,-0.04765 0.290354,-0.03336 0.537045,-0.07147 0.746939,-0.126271 0.212757,-0.04765 0.384808,-0.107212 0.532306,-0.169156 0.144701,-0.06195 0.27668,-0.131037 0.39473,-0.202511 0.3538,0.197746 0.752918,0.335929 1.201744,0.409786 0.444023,0.07386 0.913106,0.109594 1.396118,0.100064 l 1.046676,-1.474754 c -0.08237,0 -0.186361,0.0023 -0.318436,0.0071"
       style="fill:#191412;fill-opacity:1;fill-rule:nonzero;stroke:none"
       id="path3929" />
    <path
       inkscape:connector-curvature="0"
       d="m 74.201428,27.891139 c -0.548207,0 -1.113492,-0.06433 -1.689494,-0.188216 -0.580805,-0.126271 -1.063786,-0.30734 -1.459724,-0.543205 l -2.00316,1.107853 c 0.180001,0.162008 0.444055,0.324017 0.782336,0.471731 0.343464,0.152478 0.725504,0.27875 1.15563,0.393109 0.425355,0.114359 0.881717,0.202511 1.378627,0.266838 0.490932,0.06433 0.969174,0.0953 1.44104,0.0953 0.619746,0 1.200535,-0.0548 1.742366,-0.159626 0.545011,-0.107212 1.017274,-0.250161 1.420766,-0.431229 0.397528,-0.181069 0.714358,-0.395492 0.95367,-0.640887 0.234541,-0.250161 0.3538,-0.509851 0.3538,-0.786219 0,-0.188215 -0.05724,-0.371666 -0.165786,-0.559882 -0.113693,-0.185834 -0.26116,-0.352607 -0.446026,-0.505086 -0.181686,-0.154861 -0.399118,-0.28828 -0.648766,-0.402639 -0.248439,-0.111977 -0.513988,-0.192981 -0.806171,-0.24063 l -2.597863,-0.424082 c -0.183181,-0.03097 -0.335513,-0.07386 -0.451973,-0.128654 -0.119259,-0.05718 -0.17205,-0.104829 -0.158057,-0.154861 0.0095,-0.0548 0.08873,-0.102447 0.224841,-0.133419 0.13993,-0.03812 0.299896,-0.05718 0.482981,-0.05718 0.197174,0 0.417818,0.0143 0.658323,0.03812 0.244082,0.02383 0.484587,0.05718 0.720718,0.107212 0.234542,0.04527 0.459543,0.109594 0.669438,0.183451 0.209513,0.07386 0.369303,0.162009 0.490549,0.262073 l 1.93159,-1.274627 c -0.168966,-0.131036 -0.418995,-0.252543 -0.739005,-0.369284 -0.3216,-0.114359 -0.684941,-0.214423 -1.091612,-0.300193 -0.405479,-0.08577 -0.844748,-0.154861 -1.312241,-0.207275 -0.464313,-0.05003 -0.928626,-0.07624 -1.385004,-0.07624 -0.539048,0 -1.045085,0.0548 -1.518939,0.159626 -0.468702,0.107212 -0.880127,0.250161 -1.228362,0.438377 -0.34903,0.183451 -0.624119,0.397874 -0.826063,0.638504 -0.204807,0.247778 -0.30403,0.505086 -0.30403,0.779071 0,0.178686 0.04961,0.362137 0.147562,0.53844 0.09477,0.173921 0.231203,0.33593 0.400709,0.488409 0.17205,0.147713 0.375648,0.276367 0.61178,0.381196 0.237245,0.107212 0.487369,0.178686 0.746971,0.219189 l 2.658271,0.424081 c 0.170937,0.03097 0.315224,0.081 0.433306,0.147714 0.116459,0.06671 0.170937,0.131036 0.155417,0.195363 -0.01272,0.06909 -0.09343,0.128654 -0.234541,0.173921 -0.144701,0.04765 -0.307687,0.07386 -0.49373,0.07386"
       style="fill:#191412;fill-opacity:1;fill-rule:nonzero;stroke:none"
       id="path3931" />
    <path
       inkscape:connector-curvature="0"
       d="m 84.266841,27.891139 c -0.556142,0 -1.121029,-0.06433 -1.697445,-0.188216 -0.576018,-0.126271 -1.060605,-0.30734 -1.453363,-0.543205 l -2.009505,1.107853 c 0.184867,0.162008 0.44881,0.324017 0.789094,0.471731 0.339886,0.152478 0.723501,0.27875 1.147266,0.393109 0.425753,0.114359 0.888475,0.202511 1.379025,0.266838 0.490947,0.06433 0.976727,0.0953 1.44899,0.0953 0.617759,0 1.195765,-0.0548 1.740776,-0.159626 0.545011,-0.107212 1.018467,-0.250161 1.415995,-0.431229 0.402299,-0.181069 0.720719,-0.395492 0.956453,-0.640887 0.236132,-0.250161 0.354198,-0.509851 0.354198,-0.786219 0,-0.188215 -0.05604,-0.371666 -0.169347,-0.559882 -0.111722,-0.185834 -0.257599,-0.352607 -0.439269,-0.505086 -0.183245,-0.154861 -0.405479,-0.28828 -0.650754,-0.402639 -0.248471,-0.111977 -0.518774,-0.192981 -0.805789,-0.24063 l -2.601027,-0.424082 c -0.181654,-0.03097 -0.333923,-0.07386 -0.451989,-0.128654 -0.116492,-0.05718 -0.170937,-0.104829 -0.159807,-0.154861 0.01558,-0.0548 0.08984,-0.102447 0.229772,-0.133419 0.139516,-0.03812 0.296556,-0.05718 0.482996,-0.05718 0.198764,0 0.413032,0.0143 0.658307,0.03812 0.24211,0.02383 0.479816,0.05718 0.715948,0.107212 0.238899,0.04527 0.459543,0.109594 0.66904,0.183451 0.212662,0.07386 0.376062,0.162009 0.49532,0.262073 l 1.927217,-1.274627 c -0.170938,-0.131036 -0.417802,-0.252543 -0.739005,-0.369284 -0.323191,-0.114359 -0.684941,-0.214423 -1.09042,-0.300193 -0.406671,-0.08577 -0.84435,-0.154861 -1.308663,-0.207275 -0.464313,-0.05003 -0.930216,-0.07624 -1.390156,-0.07624 -0.53706,0 -1.040331,0.0548 -1.513787,0.159626 -0.472263,0.107212 -0.882115,0.250161 -1.231542,0.438377 -0.346247,0.183451 -0.622529,0.397874 -0.821293,0.638504 -0.206715,0.247778 -0.310486,0.505086 -0.310486,0.779071 0,0.178686 0.04971,0.362137 0.150266,0.53844 0.09817,0.173921 0.231361,0.33593 0.403889,0.488409 0.169347,0.147713 0.374074,0.276367 0.608615,0.381196 0.237722,0.107212 0.486177,0.178686 0.748546,0.219189 l 2.658668,0.424081 c 0.170556,0.03097 0.313666,0.081 0.430126,0.147714 0.119258,0.06671 0.168965,0.131036 0.158216,0.195363 -0.01081,0.06909 -0.09302,0.128654 -0.234542,0.173921 -0.144287,0.04765 -0.310485,0.07386 -0.49055,0.07386"
       style="fill:#191412;fill-opacity:1;fill-rule:nonzero;stroke:none"
       id="path3933" />
    <path
       inkscape:connector-curvature="0"
       d="m 96.411724,26.928617 c -0.102562,0.178686 -0.250029,0.331165 -0.442846,0.459819 -0.186044,0.131036 -0.411442,0.233483 -0.658307,0.309722 -0.248471,0.07147 -0.512414,0.109594 -0.785516,0.109594 -0.276679,0 -0.540638,-0.03812 -0.790683,-0.109594 -0.248471,-0.07624 -0.468686,-0.178686 -0.658307,-0.309722 -0.190813,-0.128654 -0.338694,-0.281133 -0.439268,-0.459819 -0.110513,-0.176303 -0.16022,-0.362137 -0.16022,-0.5575 0,-0.197746 0.04971,-0.383579 0.16022,-0.559883 0.100558,-0.181068 0.248471,-0.331164 0.439268,-0.464583 0.189637,-0.123889 0.409852,-0.226336 0.658307,-0.304958 0.250029,-0.07386 0.514004,-0.109594 0.790683,-0.109594 0.273086,0 0.537061,0.03574 0.785516,0.109594 0.246849,0.07862 0.472263,0.181069 0.658307,0.304958 0.192817,0.133419 0.340284,0.283515 0.442846,0.464583 0.103739,0.176304 0.161396,0.362137 0.161396,0.559883 0,0.195363 -0.05766,0.381197 -0.161396,0.5575 z m 2.805754,0.662329 c 0.265548,-0.383579 0.403888,-0.7886 0.403888,-1.219829 0,-0.435994 -0.13834,-0.843398 -0.403888,-1.222212 -0.271528,-0.383579 -0.633263,-0.712362 -1.090023,-0.993494 -0.462722,-0.283515 -0.99859,-0.509851 -1.613566,-0.674242 -0.619349,-0.166773 -1.282426,-0.247778 -1.988834,-0.247778 -0.697264,0 -1.351198,0.081 -1.970547,0.247778 -0.614976,0.164391 -1.154024,0.390727 -1.615157,0.674242 -0.459542,0.281132 -0.822883,0.609915 -1.090022,0.993494 -0.273499,0.378814 -0.402298,0.786218 -0.402298,1.222212 0,0.431229 0.128799,0.83625 0.389975,1.219829 0.263958,0.378815 0.627299,0.712362 1.082071,0.995877 0.462723,0.283515 0.997001,0.505086 1.616747,0.664712 0.614976,0.159626 1.279246,0.243013 1.989231,0.243013 0.706408,0 1.369485,-0.08339 1.988834,-0.243013 0.614976,-0.159626 1.150844,-0.381197 1.613566,-0.664712 0.45676,-0.283515 0.818511,-0.617062 1.090023,-0.995877"
       style="fill:#191412;fill-opacity:1;fill-rule:nonzero;stroke:none"
       id="path3935" />
    <path
       inkscape:connector-curvature="0"
       d="m 34.794844,36.415651 c 0.498501,0 0.892848,0.09292 1.179864,0.283515 0.290672,0.188216 0.52038,0.416934 0.689727,0.695684 l 2.791824,-0.602767 c -0.209576,-0.290663 -0.47026,-0.552736 -0.791876,-0.795748 -0.325973,-0.240631 -0.684925,-0.443142 -1.084043,-0.621828 -0.401917,-0.171538 -0.836813,-0.307339 -1.307486,-0.402639 -0.47344,-0.100064 -0.96399,-0.150096 -1.47801,-0.150096 -0.655508,0 -1.285987,0.07624 -1.891439,0.231101 -0.601062,0.152478 -1.13216,0.366901 -1.591702,0.640887 -0.461133,0.273985 -0.824474,0.602767 -1.091613,0.986346 -0.273499,0.378814 -0.402298,0.798131 -0.402298,1.255567 0,0.478878 0.128799,0.910107 0.402298,1.296069 0.267139,0.385962 0.63048,0.712361 1.091613,0.988729 0.459542,0.273985 0.99064,0.488408 1.591702,0.638504 0.605452,0.147714 1.235931,0.221571 1.891439,0.221571 1.00934,0 1.934786,-0.169156 2.777927,-0.516998 0.835223,-0.34546 1.465702,-0.850545 1.883488,-1.522404 l -2.791824,-0.609915 c -0.183181,0.29781 -0.416228,0.54797 -0.702035,0.752863 -0.279541,0.204894 -0.669055,0.30734 -1.167556,0.30734 -0.565285,0 -1.035958,-0.145331 -1.410016,-0.431229 -0.371292,-0.28828 -0.560515,-0.662329 -0.560515,-1.12453 0,-0.495556 0.193994,-0.87437 0.572822,-1.13406 0.383631,-0.257308 0.847944,-0.385962 1.397709,-0.385962"
       style="fill:#191412;fill-opacity:1;fill-rule:nonzero;stroke:none"
       id="path3937" />
    <path
       inkscape:connector-curvature="0"
       d="m 46.394334,38.407404 0,0.717126 c 0,0.0953 -0.06838,0.166774 -0.200354,0.209659 -0.130389,0.05003 -0.288447,0.08815 -0.471882,0.107211 -0.186361,0.02382 -0.366521,0.03812 -0.552946,0.04288 -0.18,0.0048 -0.332333,0.0071 -0.451592,0.0071 -0.198764,0 -0.393171,-0.0405 -0.588755,-0.114359 -0.198764,-0.07386 -0.294807,-0.188216 -0.294807,-0.34546 0,-0.109594 0.05724,-0.200128 0.178411,-0.266837 0.116396,-0.06671 0.268729,-0.107212 0.448825,-0.123889 l 1.933164,-0.233483 z m -2.719092,-1.074498 c -0.329154,0.04765 -0.670646,0.111976 -1.021648,0.200128 -0.35698,0.08577 -0.677006,0.202511 -0.965993,0.343077 -0.287175,0.140566 -0.523147,0.312105 -0.709604,0.516998 -0.180001,0.207276 -0.274771,0.445524 -0.274771,0.721891 0,0.376432 0.103993,0.693302 0.31357,0.945845 0.207987,0.257308 0.49055,0.457436 0.836813,0.609915 0.347821,0.147713 0.745349,0.252542 1.189785,0.314487 0.447235,0.06671 0.902008,0.0953 1.358752,0.0953 0.394348,0 0.73584,-0.01201 1.023237,-0.04765 0.288447,-0.02859 0.537077,-0.06909 0.750152,-0.121506 0.209576,-0.05003 0.386397,-0.107212 0.529507,-0.171539 0.145972,-0.06194 0.274772,-0.128653 0.395938,-0.20251 0.35062,0.197746 0.752918,0.335929 1.198532,0.409786 0.447235,0.07147 0.914728,0.107212 1.397709,0.100064 l 1.045085,-1.474755 c -0.07919,0 -0.184771,0.0023 -0.31675,0.0071 -0.130389,0.0048 -0.259189,0 -0.385221,-0.01182 -0.120848,-0.01201 -0.228022,-0.03336 -0.31198,-0.05718 -0.08555,-0.02859 -0.127209,-0.07624 -0.127209,-0.138184 l 0,-3.051956 c 0,-0.26922 -0.162828,-0.497938 -0.482981,-0.688537 -0.323206,-0.192981 -0.705215,-0.350224 -1.15086,-0.466966 -0.448793,-0.119124 -0.913106,-0.204893 -1.395705,-0.25969 -0.490963,-0.05241 -0.896029,-0.08339 -1.223592,-0.08339 -0.813756,0 -1.591703,0.07147 -2.334285,0.219188 -0.739021,0.142949 -1.423946,0.383579 -2.054426,0.712362 l 1.517349,1.379455 c 0.169188,-0.08815 0.368112,-0.171538 0.597883,-0.254925 0.22993,-0.07862 0.462723,-0.150096 0.689314,-0.209658 0.22834,-0.05718 0.452005,-0.109594 0.678596,-0.147714 0.222298,-0.0405 0.422557,-0.06433 0.591522,-0.07386 0.352592,-0.01201 0.657098,0.0071 0.913106,0.06909 0.254736,0.05718 0.382041,0.138184 0.382041,0.252543 l 0,0.185833 -2.653898,0.378815"
       style="fill:#191412;fill-opacity:1;fill-rule:nonzero;stroke:none"
       id="path3939" />
    <path
       inkscape:connector-curvature="0"
       d="m 56.135364,37.852286 c 0,-0.376432 0.263959,-0.669477 0.790668,-0.879135 0.524737,-0.209658 1.309076,-0.283515 2.36014,-0.228718 l 0,-1.922661 c -0.329153,0 -0.661487,0.01429 -0.99382,0.03812 -0.333924,0.02144 -0.65077,0.05956 -0.945736,0.111976 -0.291944,0.05003 -0.551355,0.111977 -0.764049,0.192981 -0.220071,0.07862 -0.366521,0.169156 -0.447203,0.271603 l -0.0159,-0.450289 -3.170685,0 0,5.929992 3.187763,0 0,-3.063869"
       style="fill:#191412;fill-opacity:1;fill-rule:nonzero;stroke:none"
       id="path3941" />
    <path
       inkscape:connector-curvature="0"
       d="m 65.480456,34.971868 c -0.294807,0.05003 -0.554154,0.111977 -0.76882,0.192981 -0.215619,0.07862 -0.366139,0.169156 -0.442464,0.271603 l -0.01908,-0.450289 -3.169094,0 0,5.929992 3.189384,0 0,-3.063869 c 0,-0.376432 0.262369,-0.669477 0.789078,-0.879135 0.521557,-0.209658 1.310252,-0.283515 2.35855,-0.228718 l 0,-1.922661 c -0.327563,0 -0.656716,0.01429 -0.99382,0.03812 -0.333924,0.02144 -0.64918,0.05956 -0.942556,0.111976"
       style="fill:#191412;fill-opacity:1;fill-rule:nonzero;stroke:none"
       id="path3943" />
    <path
       inkscape:connector-curvature="0"
       d="m 74.213752,38.407404 0,0.717126 c 0,0.0953 -0.0636,0.166774 -0.195584,0.209659 -0.131979,0.05003 -0.292199,0.08815 -0.472279,0.107211 -0.186362,0.02382 -0.369702,0.03812 -0.555745,0.04288 -0.181591,0.0048 -0.330743,0.0071 -0.451973,0.0071 -0.197174,0 -0.389578,-0.0405 -0.588342,-0.114359 -0.195902,-0.07386 -0.293853,-0.188216 -0.293853,-0.34546 0,-0.109594 0.05756,-0.200128 0.173958,-0.266837 0.119577,-0.06671 0.271592,-0.107212 0.453183,-0.123889 l 1.930396,-0.233483 z m -2.715928,-1.074498 c -0.327564,0.04765 -0.669438,0.111976 -1.026418,0.200128 -0.351002,0.08577 -0.672618,0.202511 -0.962813,0.343077 -0.285903,0.140566 -0.523529,0.312105 -0.707982,0.516998 -0.183181,0.207276 -0.27668,0.445524 -0.27668,0.721891 0,0.376432 0.105902,0.693302 0.313571,0.945845 0.211485,0.257308 0.492521,0.457436 0.837194,0.609915 0.347821,0.147713 0.748529,0.252542 1.192584,0.314487 0.444023,0.06671 0.896029,0.0953 1.358752,0.0953 0.392757,0 0.733041,-0.01201 1.020057,-0.04765 0.290672,-0.02859 0.539048,-0.06909 0.750135,-0.121506 0.209514,-0.05003 0.387988,-0.107212 0.531098,-0.171539 0.141107,-0.06194 0.273086,-0.128653 0.394348,-0.20251 0.354198,0.197746 0.754508,0.335929 1.200535,0.409786 0.444039,0.07147 0.912725,0.107212 1.395721,0.100064 l 1.045118,-1.474755 c -0.08227,0 -0.184867,0.0023 -0.316814,0.0071 -0.13198,0.0048 -0.259189,0 -0.382025,-0.01182 -0.124029,-0.01201 -0.229771,-0.03336 -0.315256,-0.05718 -0.08389,-0.02859 -0.127209,-0.07624 -0.127209,-0.138184 l 0,-3.051956 c 0,-0.26922 -0.161396,-0.497938 -0.482996,-0.688537 -0.319613,-0.192981 -0.704818,-0.350224 -1.148857,-0.466966 -0.450399,-0.119124 -0.914712,-0.204893 -1.402479,-0.25969 -0.482997,-0.05241 -0.891258,-0.08339 -1.218821,-0.08339 -0.810576,0 -1.591703,0.07147 -2.332314,0.219188 -0.740992,0.142949 -1.425536,0.383579 -2.056015,0.712362 l 1.516967,1.379455 c 0.172686,-0.08815 0.368111,-0.171538 0.601063,-0.254925 0.228022,-0.07862 0.459542,-0.150096 0.687723,-0.209658 0.228658,-0.05718 0.456776,-0.109594 0.677388,-0.147714 0.22675,-0.0405 0.422175,-0.06433 0.593112,-0.07386 0.35539,-0.01201 0.655127,0.0071 0.913138,0.06909 0.254418,0.05718 0.386398,0.138184 0.386398,0.252543 l 0,0.185833 -2.658287,0.378815"
       style="fill:#191412;fill-opacity:1;fill-rule:nonzero;stroke:none"
       id="path3945" />
    <path
       inkscape:connector-curvature="0"
       d="m 83.90191,37.687895 c 0,-0.166773 0.04335,-0.321635 0.145877,-0.466966 0.0962,-0.145331 0.236132,-0.273985 0.414622,-0.376432 0.178506,-0.104829 0.383615,-0.192981 0.619747,-0.252543 0.234128,-0.06194 0.490549,-0.0953 0.764049,-0.0953 0.263958,0 0.512414,0.03812 0.746558,0.119124 0.240902,0.07862 0.447219,0.185834 0.624516,0.31687 0.178506,0.133419 0.313634,0.28828 0.414622,0.464584 0.09779,0.178686 0.147467,0.369284 0.147467,0.574177 0,0.200128 -0.04971,0.395492 -0.147467,0.583708 -0.100972,0.181068 -0.236132,0.343077 -0.414622,0.476496 -0.177297,0.133418 -0.383614,0.238248 -0.624516,0.314487 -0.234129,0.081 -0.4826,0.119124 -0.746558,0.119124 -0.2735,0 -0.529905,-0.03097 -0.764049,-0.09292 -0.236132,-0.05956 -0.441257,-0.147714 -0.619747,-0.262073 -0.178474,-0.116741 -0.31842,-0.247777 -0.414622,-0.390726 -0.102562,-0.145331 -0.145877,-0.300193 -0.145877,-0.466966 l 0,-0.564648 z m -0.02035,2.956657 c 0.433306,0.142949 0.832424,0.250161 1.200535,0.3264 0.366521,0.07147 0.801019,0.109594 1.297929,0.109594 0.644394,0 1.236313,-0.09053 1.781324,-0.273985 0.541831,-0.188216 1.014094,-0.426464 1.410032,-0.719509 0.389578,-0.295427 0.697265,-0.628975 0.911533,-0.995876 0.215873,-0.369285 0.325973,-0.743334 0.325973,-1.119766 0,-0.433611 -0.11805,-0.841015 -0.344657,-1.226977 -0.229772,-0.388344 -0.545011,-0.717126 -0.94413,-1.000641 -0.403888,-0.283515 -0.869791,-0.507468 -1.408442,-0.674242 -0.539048,-0.164391 -1.108706,-0.247778 -1.709768,-0.247778 -0.209514,0 -0.436486,0.01429 -0.671028,0.03812 -0.235718,0.02144 -0.468686,0.0548 -0.700047,0.09768 -0.226973,0.04527 -0.444039,0.0953 -0.650754,0.152479 -0.200354,0.05956 -0.366521,0.121507 -0.4985,0.183451 l 0,-2.618345 -3.11185,0 0,8.240997 2.75487,0 0.35698,-0.271603"
       style="fill:#191412;fill-opacity:1;fill-rule:nonzero;stroke:none"
       id="path3947" />
    <path
       inkscape:connector-curvature="0"
       d="m 93.134899,40.916155 3.189544,0 0,-5.930135 -3.189544,0 0,5.930135 z"
       style="fill:#191412;fill-opacity:1;fill-rule:nonzero;stroke:none"
       id="path3949" />
    <path
       inkscape:connector-curvature="0"
       d="m 95.998692,32.827637 c -0.347837,-0.207276 -0.770409,-0.312105 -1.26891,-0.312105 -0.50009,0 -0.920675,0.104829 -1.268512,0.312105 -0.349427,0.209658 -0.525135,0.459818 -0.525135,0.760011 0,0.29781 0.175708,0.552735 0.525135,0.762393 0.347837,0.207276 0.768422,0.309722 1.268512,0.309722 0.498501,0 0.921073,-0.102446 1.26891,-0.309722 0.34903,-0.209658 0.523147,-0.464583 0.523147,-0.762393 0,-0.300193 -0.174117,-0.550353 -0.523147,-0.760011"
       style="fill:#191412;fill-opacity:1;fill-rule:nonzero;stroke:none"
       id="path3951" />
    <path
       inkscape:connector-curvature="0"
       d="m 100.21925,40.67076 c 0.27948,0.123889 0.59788,0.223953 0.95804,0.300192 0.36016,0.07147 0.7406,0.109594 1.14926,0.109594 0.17211,0 0.47504,-0.0023 0.90517,-0.0071 0.43768,0 0.8837,-0.03335 1.34165,-0.08815 l -0.27788,-1.743975 c -0.43172,0.06433 -0.77041,0.08815 -1.01251,0.08577 -0.2409,-0.0095 -0.42257,-0.04288 -0.54183,-0.100064 -0.11805,-0.05956 -0.18642,-0.142949 -0.20512,-0.25016 -0.0204,-0.107212 -0.0312,-0.228718 -0.0312,-0.369284 l 0,-5.932375 -3.171082,0 0,7.016403 c 0,0.188216 0.08231,0.366902 0.239312,0.533675 0.155036,0.171539 0.372484,0.31687 0.64598,0.445524"
       style="fill:#191412;fill-opacity:1;fill-rule:nonzero;stroke:none"
       id="path3953" />
    <path
       inkscape:connector-curvature="0"
       d="m 108.82812,37.249519 c 0.093,-0.209658 0.30132,-0.393109 0.6273,-0.540823 0.32915,-0.150096 0.68335,-0.223953 1.06378,-0.223953 0.38044,0 0.73304,0.07386 1.06379,0.223953 0.32915,0.147714 0.52951,0.331165 0.60861,0.540823 l -3.36348,0 z m 6.48169,1.019701 c 0.008,-0.121506 0.0108,-0.247778 0.0108,-0.381197 0,-0.443141 -0.12282,-0.848162 -0.37408,-1.219829 -0.24853,-0.374049 -0.58086,-0.700449 -0.99549,-0.974434 -0.41025,-0.273986 -0.89284,-0.488409 -1.44263,-0.640887 -0.55296,-0.154862 -1.12421,-0.231101 -1.71613,-0.231101 -0.71714,0 -1.40208,0.081 -2.03415,0.240631 -0.63485,0.162008 -1.19576,0.385961 -1.67717,0.662329 -0.47504,0.27875 -0.85389,0.60515 -1.12858,0.979199 -0.27509,0.371667 -0.41462,0.771923 -0.41462,1.196005 0,0.438376 0.13951,0.850545 0.41462,1.238889 0.27468,0.385962 0.65354,0.721892 1.12858,1.010172 0.48141,0.290662 1.04232,0.521763 1.67717,0.686154 0.63207,0.164391 1.31701,0.245395 2.03415,0.245395 0.38362,0 0.78274,-0.02382 1.20054,-0.07386 0.42217,-0.05241 0.83242,-0.123889 1.23154,-0.214423 0.4019,-0.09053 0.77637,-0.195363 1.12262,-0.31687 0.34784,-0.121506 0.63525,-0.25016 0.85707,-0.383579 l -2.04488,-1.19124 c -0.41184,0.181069 -0.83243,0.312105 -1.2705,0.395492 -0.43927,0.081 -0.84475,0.126271 -1.21127,0.126271 -0.42218,0 -0.81374,-0.06194 -1.18304,-0.181068 -0.36494,-0.116742 -0.60266,-0.312105 -0.708,-0.588473 l 6.45665,0 c 0.0401,-0.131036 0.0588,-0.25969 0.0668,-0.383579"
       style="fill:#191412;fill-opacity:1;fill-rule:nonzero;stroke:none"
       id="path3955" />
    <path
       inkscape:connector-curvature="0"
       d="m 5.1694561,-58.407037 c 0,-2.480162 3.3698621,-4.498122 7.5065399,-4.498122 l 119.646834,0 c 4.13668,0 7.50493,2.01796 7.50493,4.498122 l 0,114.821222 c 0,2.475396 -3.36825,4.490974 -7.50493,4.490974 l -119.646834,0 c -4.1366778,0 -7.5065399,-2.015578 -7.5065399,-4.490974 l 0,-114.821222 z m 7.5065399,119.819664 119.646834,0 c 4.60576,0 8.34928,-2.241913 8.34928,-4.998442 l 0,-114.821222 c 0,-2.761294 -3.74352,-5.003208 -8.34928,-5.003208 l -119.646834,0 c -4.6041709,0 -8.3512713,2.241914 -8.3512713,5.003208 l 0,114.821222 c 0,2.756529 3.7471004,4.998442 8.3512713,4.998442"
       style="fill:#191412;fill-opacity:1;fill-rule:nonzero;stroke:none"
       id="path3957" />
    <path
       inkscape:connector-curvature="0"
       d="m 2.2889671,-58.407037 c 0,-3.428389 4.6618286,-6.220655 10.3870289,-6.220655 l 119.646834,0 c 5.72838,0 10.39138,2.792266 10.39138,6.220655 l 0,114.821222 c 0,3.428388 -4.663,6.220654 -10.39138,6.220654 l -119.646834,0 c -5.7252003,0 -10.3870289,-2.792266 -10.3870289,-6.220654 l 0,-114.821222 z m 10.3870289,121.549344 119.646834,0 c 6.19587,0 11.23772,-3.018601 11.23772,-6.728122 l 0,-114.821222 c 0,-3.711904 -5.04185,-6.728123 -11.23772,-6.728123 l -119.646834,0 c -6.1942836,0 -11.2317603,3.016219 -11.2317603,6.728123 l 0,114.821222 c 0,3.709521 5.0374767,6.728122 11.2317603,6.728122"
       style="fill:#191412;fill-opacity:1;fill-rule:nonzero;stroke:none"
       id="path3959" />
    <path
       inkscape:connector-curvature="0"
       d="m 144.15366,63.492532 -143.30253632,0 0,-128.985064 143.30253632,0 0,128.985064 z M 144.57464,-66 0,-66 0,64 l 145,0 0,-130 -0.42536,0"
       style="fill:#191412;fill-opacity:1;fill-rule:nonzero;stroke:none"
       id="path3961" />
    <path
       inkscape:connector-curvature="0"
       d="m 72.502393,10.532392 c -25.221189,0 -45.736027,-12.2888295 -45.736027,-27.391368 0,-15.100156 20.514838,-27.388985 45.736027,-27.388985 25.219981,0 45.737597,12.288829 45.737597,27.388985 0,15.1025385 -20.517616,27.391368 -45.737597,27.391368 z m 0,-55.106753 c -25.514565,0 -46.277842,12.436543 -46.277842,27.715385 0,15.283607 20.763277,27.713003 46.277842,27.713003 25.516537,0 46.274667,-12.429396 46.274667,-27.713003 0,-15.278842 -20.75813,-27.715385 -46.274667,-27.715385"
       style="fill:#191412;fill-opacity:1;fill-rule:nonzero;stroke:none"
       id="path3963" />
    <path
       inkscape:connector-curvature="0"
       d="m 97.854354,-4.5844408 -0.13198,0.1000642 -0.153859,-0.085769 -45.728077,-27.3151291 -0.14629,-0.08577 0.161873,-0.07862 c 8.666114,-4.081187 17.539356,-4.579126 23.46173,-4.283698 7.646454,0.383579 15.039285,2.384862 20.281886,5.482085 5.318533,3.225878 8.641463,7.447632 9.374513,11.900486 0.80738,4.974618 -1.6569,9.9373226 -7.119733,14.3663522 z m -4.770338,2.9233025 C 85.634736,1.6171537 77.310099,3.0919086 69.010092,2.5963528 61.564008,2.1508291 54.542071,0.13048639 49.229887,-3.0787137 c -5.183354,-3.1091359 -8.542085,-7.5214883 -9.21906,-12.1101443 -0.51561,-3.554659 0.290355,-8.874736 7.093492,-14.011362 l 0.127209,-0.100064 0.147563,0.09053 45.732831,27.3818381 0.15386,0.095299 -0.181655,0.071474 z M 72.502393,-43.492715 c -24.561293,0 -44.473478,11.926693 -44.473478,26.633739 0,14.7094294 19.912185,26.6337399 44.473478,26.6337399 24.561277,0 44.470287,-11.9243105 44.470287,-26.6337399 0,-14.707046 -19.90901,-26.633739 -44.470287,-26.633739"
       style="fill:#c13339;fill-opacity:1;fill-rule:nonzero;stroke:none"
       id="path3965" />
    <path
       inkscape:connector-curvature="0"
       d="m 97.608681,-6.8978285 -0.124029,0.119124 -0.162986,-0.1000641 -41.505915,-24.9350314 -0.158693,-0.08577 0.186361,-0.07624 c 5.920785,-2.484926 12.941513,-3.490333 20.304943,-2.916155 6.838677,0.536058 13.214631,2.394392 17.952372,5.234308 10.053086,5.939521 11.459946,15.081096 3.507788,22.7598275 z m 7.365399,-12.0529645 c -0.73304,-4.452854 -4.05598,-8.674608 -9.374506,-11.900486 -5.242601,-3.097223 -12.635432,-5.098506 -20.281886,-5.482085 -5.922375,-0.295428 -14.795617,0.202511 -23.46173,4.283698 l -0.161874,0.07862 0.14629,0.08577 45.728077,27.3151291 0.15386,0.085769 0.131979,-0.1000642 c 5.46283,-4.4290296 7.92711,-9.3917342 7.11973,-14.3663522"
       style="fill:#ffffff;fill-opacity:1;fill-rule:nonzero;stroke:none"
       id="path3967" />
    <path
       inkscape:connector-curvature="0"
       d="m 76.148521,-34.891964 c -7.36343,-0.574178 -14.384158,0.431229 -20.304943,2.916155 l -0.186361,0.07624 0.158693,0.08577 41.505915,24.9350314 0.162986,0.1000641 0.124029,-0.119124 c 7.95215,-7.6787315 6.5453,-16.8203065 -3.507788,-22.7598275 -4.737741,-2.839916 -11.113695,-4.69825 -17.952372,-5.234308"
       style="fill:#2c4aa0;fill-opacity:1;fill-rule:nonzero;stroke:none"
       id="path3969" />
    <path
       inkscape:connector-curvature="0"
       d="M 89.22203,-1.8064695 C 82.704556,0.59983487 75.556999,1.6266836 68.57084,1.1644825 61.961537,0.72372381 55.758094,-1.0774308 51.093499,-3.9054341 46.364917,-6.7358199 43.284074,-10.554935 42.420643,-14.655182 c -0.913138,-4.34326 0.832424,-8.660314 4.924165,-12.160176 l 0.128799,-0.107212 0.157103,0.09053 41.622406,24.8564094 0.170938,0.1048291 -0.201945,0.064327 z M 47.378995,-29.20975 l -0.147562,-0.09053 -0.127209,0.100064 c -6.803297,5.136626 -7.60907,10.456703 -7.093492,14.011362 0.677006,4.588656 4.035705,9.0010084 9.219091,12.1101443 5.312153,3.20920009 12.33409,5.2295428 19.780206,5.6750665 8.29999,0.4955558 16.624627,-0.9791991 24.073907,-4.2574911 l 0.181655,-0.071474 -0.15386,-0.095299 L 47.3789,-29.20975"
       style="fill:#ffffff;fill-opacity:1;fill-rule:nonzero;stroke:none"
       id="path3971" />
    <path
       inkscape:connector-curvature="0"
       d="m 47.630647,-26.832035 -0.157103,-0.09053 -0.1288,0.107212 c -4.091773,3.499862 -5.837303,7.816916 -4.924197,12.160176 0.863431,4.100247 3.944275,7.9193621 8.672888,10.7497479 4.664595,2.8280033 10.868006,4.62915791 17.477309,5.0699166 6.986176,0.4622011 14.133732,-0.56464763 20.651206,-2.970952 l 0.201913,-0.064327 -0.170937,-0.1048291 -41.622375,-24.8564094"
       style="fill:#2c4aa0;fill-opacity:1;fill-rule:nonzero;stroke:none"
       id="path3973" />
    <path
       inkscape:connector-curvature="0"
       d="m 14.438636,-55.903051 116.129504,0 0,5.934756 -116.129504,0 0,-5.934756 z m 116.401014,6.261156 0.27191,0 0,-6.587556 -117.219541,0 0,6.587556 116.947631,0"
       style="fill:#191412;fill-opacity:1;fill-rule:nonzero;stroke:none"
       id="path3975" />
    <path
       inkscape:connector-curvature="0"
       d="m 14.438636,48.249427 116.129504,0 0,5.934757 -116.129504,0 0,-5.934757 z m 116.401014,6.258774 0.27191,0 0,-6.585173 -117.219541,0 0,6.585173 116.947631,0"
       style="fill:#191412;fill-opacity:1;fill-rule:nonzero;stroke:none"
       id="path3977" />
  </g>
</svg>
