<?xml version="1.0" encoding="UTF-8" standalone="no"?>
<!-- Created with Inkscape (http://www.inkscape.org/) -->

<svg
   xmlns:dc="http://purl.org/dc/elements/1.1/"
   xmlns:cc="http://creativecommons.org/ns#"
   xmlns:rdf="http://www.w3.org/1999/02/22-rdf-syntax-ns#"
   xmlns:svg="http://www.w3.org/2000/svg"
   xmlns="http://www.w3.org/2000/svg"
   xmlns:sodipodi="http://sodipodi.sourceforge.net/DTD/sodipodi-0.dtd"
   xmlns:inkscape="http://www.inkscape.org/namespaces/inkscape"
   id="svg2993"
   version="1.1"
   preserveAspectRatio="xMinYMin meet"
   viewBox="0 0 145 130"
   inkscape:version="0.48.3.1 r9886"
   sodipodi:docname="cod_46.svg"
   width="100%"
   height="100%">
  <defs
     id="defs2995" />
  <sodipodi:namedview
     id="base"
     pagecolor="#ffffff"
     bordercolor="#666666"
     borderopacity="1.0"
     inkscape:pageopacity="0.0"
     inkscape:pageshadow="2"
     inkscape:zoom="4.0153846"
     inkscape:cx="24.683908"
     inkscape:cy="65"
     inkscape:current-layer="layer1"
     showgrid="true"
     inkscape:document-units="px"
     inkscape:grid-bbox="true"
     inkscape:window-width="1366"
     inkscape:window-height="692"
     inkscape:window-x="0"
     inkscape:window-y="24"
     inkscape:window-maximized="1" />
  <metadata
     id="metadata2998">
    <rdf:RDF>
      <cc:Work
         rdf:about="">
        <dc:format>image/svg+xml</dc:format>
        <dc:type
           rdf:resource="http://purl.org/dc/dcmitype/StillImage" />
        <dc:title></dc:title>
      </cc:Work>
    </rdf:RDF>
  </metadata>
  <g
     id="layer1"
     inkscape:label="Layer 1"
     inkscape:groupmode="layer"
     transform="translate(0,66)">
    <path
       inkscape:connector-curvature="0"
       d="m 72.501723,63.239585 c -39.508495,0 -71.6507072,-28.81848 -71.6507072,-64.2457672 0,-35.4211048 32.1422122,-64.2395858 71.6507072,-64.2395858 39.511937,0 71.650707,28.818481 71.650707,64.2395858 0,35.4272872 -32.13877,64.2457672 -71.650707,64.2457672 z M 72.501723,-66 C 32.528098,-66 0,-36.844588 0,-1.0061822 0,34.838406 32.528098,64 72.501723,64 112.47879,64 145,34.838406 145,-1.0061822 145,-36.844588 112.47879,-66 72.501723,-66"
       style="fill:#191412;fill-opacity:1;fill-rule:nonzero;stroke:none"
       id="path1514" />
    <path
       inkscape:connector-curvature="0"
       d="m 72.501723,45.304927 c -28.527979,0 -51.657004,-20.732119 -51.657004,-46.3111092 0,-25.5728078 23.129025,-46.3049268 51.657004,-46.3049268 28.527977,0 51.657007,20.732119 51.657007,46.3049268 0,25.5789902 -23.12903,46.3111092 -51.657007,46.3111092 z m 0,-108.770211 c -38.478318,0 -69.6730429,27.96224 -69.6730429,62.4591018 0,34.4999522 31.1947249,62.4652842 69.6730429,62.4652842 38.485207,0 69.673047,-27.965332 69.673047,-62.4652842 0,-34.4968618 -31.18784,-62.4591018 -69.673047,-62.4591018"
       style="fill:#c13339;fill-opacity:1;fill-rule:nonzero;stroke:none"
       id="path1516" />
    <path
       inkscape:connector-curvature="0"
       d="m 47.432933,12.78638 c -2.143043,0 -3.893311,1.394094 -3.893311,3.313677 0,1.919583 1.750268,3.489871 3.893311,3.489871 1.943211,0 3.696923,-1.570288 3.696923,-3.489871 0,-1.919583 -1.753712,-3.313677 -3.696923,-3.313677"
       style="fill:#ffffff;fill-opacity:1;fill-rule:nonzero;stroke:none"
       id="path1518" />
    <path
       inkscape:connector-curvature="0"
       d="m 71.182131,-27.707247 -0.189497,0 c -2.921706,-0.173103 -4.093145,2.96438 -4.093145,5.75875 0.199834,3.48987 0.199834,6.454251 4.093145,6.633536 l 0.189497,0 c 3.507426,-0.179285 4.282643,-4.188463 4.282643,-6.108046 0,-4.540851 -1.750268,-6.28424 -4.282643,-6.28424"
       style="fill:#ffffff;fill-opacity:1;fill-rule:nonzero;stroke:none"
       id="path1520" />
    <path
       inkscape:connector-curvature="0"
       d="m 75.464774,5.9735591 2.139598,-8.5469375 42.829868,0 c 0.20328,2.96747199 0,5.4094541 -0.57883,8.5469375 l -44.390636,0 z m 40.886656,12.3953779 -3.50742,0 c 0.58572,-5.582557 -0.78211,-7.155935 -4.47559,-9.7741111 l 11.2906,0 c -0.9716,3.8391671 -1.55732,6.2811491 -3.30759,9.7741111 z m -13.04431,5.236351 c -4.475589,0 -8.179402,-3.313677 -8.179402,-7.505231 0,-4.01536 3.703813,-7.5052311 8.179402,-7.5052311 4.47903,0 8.1794,3.4898711 8.1794,7.5052311 0,4.191554 -3.70037,7.505231 -8.1794,7.505231 z m -24.145423,-6.806639 -2.332542,-8.2038231 21.223714,0 C 94.545444,11.036808 92.984674,12.959483 93.573839,18.01964 L 79.161697,16.798649 z m -7.979566,-29.319241 -0.385885,0 c -6.618629,0.170012 -7.590234,-5.938035 -7.400737,-10.472703 0.585719,-4.713952 2.143044,-7.508322 7.597125,-7.854527 l 0.189497,0 c 4.282643,0.173103 7.400737,2.445073 7.597125,8.550029 0.192943,5.236351 -1.753712,9.601008 -7.597125,9.777201 z M 25.237614,5.9735591 C 24.651895,3.1853719 24.262564,0.39409359 24.651895,-2.5733784 l 18.887727,0 25.306523,2.79127834 0.971605,5.75565916 -44.580136,0 z M 63.981228,17.494151 56.969823,18.01964 c 0.582274,-5.060157 -0.971605,-6.982832 -4.479031,-9.4248141 l 15.966022,0 -4.475586,8.8993251 z m -16.548295,6.111137 -0.199833,0 c -4.279197,0 -7.979565,-3.313677 -7.979565,-7.505231 0,-4.01536 3.700368,-7.5052311 7.979565,-7.5052311 l 0.199833,0 c 4.479031,0 8.175954,3.4898711 8.175954,7.5052311 0,4.191554 -3.696923,7.505231 -8.175954,7.505231 z M 28.937983,18.368937 C 27.187715,15.052169 26.212665,12.433993 25.626945,8.5948259 l 16.551741,0 C 38.474872,11.213002 37.310324,12.78638 37.69621,18.368937 l -8.758227,0 z m -0.975051,-33.337693 14.022811,10.8219993 -4.089699,0 -10.708329,-8.2038233 0.775217,-2.618176 z m 19.077225,-15.879066 13.437091,0 0,2.967472 -6.225852,15.183565 -4.289533,0 6.229298,-15.183565 -9.151004,0 0,-2.967472 z m 37.575621,8.899325 1.753712,0 0,1.047888 c 0,-0.522398 0.971605,-1.220991 1.94321,-1.220991 1.171439,-0.176193 2.339433,-0.176193 3.118095,1.041707 0.778662,-1.2179 2.725318,-1.2179 4.089699,-1.041707 1.557325,0 2.532375,1.74339 2.532375,2.438891 l 0,7.332129 -2.339432,0 0,-6.281149 c -0.192943,-2.448164 -3.114649,-1.919584 -3.114649,0 l 0,6.281149 -2.528929,0 0,-6.281149 c 0,-2.092686 -3.114649,-2.092686 -3.114649,0 l 0,6.281149 -2.339432,0 0,-9.597917 z m 27.446122,5.23326 4.28953,0 0.77866,3.842258 -1.17143,0 -5.64703,8.7262223 -10.511939,0 L 112.0619,-16.715237 z M 72.501723,-47.311109 c -28.527979,0 -51.657004,20.732119 -51.657004,46.3049268 0,25.5789902 23.129025,46.3111092 51.657004,46.3111092 28.527977,0 51.657007,-20.732119 51.657007,-46.3111092 0,-25.5728078 -23.12903,-46.3049268 -51.657007,-46.3049268"
       style="fill:#ffffff;fill-opacity:1;fill-rule:nonzero;stroke:none"
       id="path1522" />
    <path
       inkscape:connector-curvature="0"
       d="m 103.30712,12.78638 c -2.14305,0 -3.893315,1.394094 -3.893315,3.313677 0,1.919583 1.750265,3.489871 3.893315,3.489871 2.13959,0 3.70036,-1.570288 3.70036,-3.489871 0,-1.919583 -1.56077,-3.313677 -3.70036,-3.313677"
       style="fill:#ffffff;fill-opacity:1;fill-rule:nonzero;stroke:none"
       id="path1524" />
    <path
       inkscape:connector-curvature="0"
       d="m 41.985743,-4.1467567 -14.022811,-10.8219993 -0.775217,2.618176 10.708329,8.2038233 4.089699,0"
       style="fill:#191412;fill-opacity:1;fill-rule:nonzero;stroke:none"
       id="path1526" />
    <path
       inkscape:connector-curvature="0"
       d="m 43.539622,-2.5733784 -18.887727,0 c -0.389331,2.96747199 0,5.7587503 0.585719,8.5469375 l 44.580136,0 L 68.846145,0.21789994 43.539622,-2.5733784"
       style="fill:#191412;fill-opacity:1;fill-rule:nonzero;stroke:none"
       id="path1528" />
    <path
       inkscape:connector-curvature="0"
       d="m 42.178686,8.5948259 -16.551741,0 c 0.58572,3.8391671 1.56077,6.4573431 3.311038,9.7741111 l 8.758227,0 c -0.385886,-5.582557 0.778662,-7.155935 4.482476,-9.7741111"
       style="fill:#191412;fill-opacity:1;fill-rule:nonzero;stroke:none"
       id="path1530" />
    <path
       inkscape:connector-curvature="0"
       d="m 56.969823,18.01964 7.011405,-0.525489 4.475586,-8.8993251 -15.966022,0 c 3.507426,2.4419821 5.061305,4.3646571 4.479031,9.4248141"
       style="fill:#191412;fill-opacity:1;fill-rule:nonzero;stroke:none"
       id="path1532" />
    <path
       inkscape:connector-curvature="0"
       d="m 47.432933,19.589928 c -2.143043,0 -3.893311,-1.570288 -3.893311,-3.489871 0,-1.919583 1.750268,-3.313677 3.893311,-3.313677 1.943211,0 3.696923,1.394094 3.696923,3.313677 0,1.919583 -1.753712,3.489871 -3.696923,3.489871 z m 0,-10.9951021 -0.199833,0 c -4.279197,0 -7.979565,3.4898711 -7.979565,7.5052311 0,4.191554 3.700368,7.505231 7.979565,7.505231 l 0.199833,0 c 4.479031,0 8.175954,-3.313677 8.175954,-7.505231 0,-4.01536 -3.696923,-7.5052311 -8.175954,-7.5052311"
       style="fill:#191412;fill-opacity:1;fill-rule:nonzero;stroke:none"
       id="path1534" />
    <path
       inkscape:connector-curvature="0"
       d="m 120.43424,-2.5733784 -42.829868,0 -2.139598,8.5469375 44.390636,0 c 0.57883,-3.1374834 0.78211,-5.57946551 0.57883,-8.5469375"
       style="fill:#191412;fill-opacity:1;fill-rule:nonzero;stroke:none"
       id="path1536" />
    <path
       inkscape:connector-curvature="0"
       d="m 112.84401,18.368937 3.50742,0 c 1.75027,-3.492962 2.33599,-5.934944 3.30759,-9.7741111 l -11.2906,0 c 3.69348,2.6181761 5.06131,4.1915541 4.47559,9.7741111"
       style="fill:#191412;fill-opacity:1;fill-rule:nonzero;stroke:none"
       id="path1538" />
    <path
       inkscape:connector-curvature="0"
       d="m 98.052869,8.5948259 -21.223714,0 2.332542,8.2038231 14.412142,1.220991 c -0.589165,-5.060157 0.971605,-6.982832 4.47903,-9.4248141"
       style="fill:#191412;fill-opacity:1;fill-rule:nonzero;stroke:none"
       id="path1540" />
    <path
       inkscape:connector-curvature="0"
       d="m 103.30712,19.589928 c -2.14305,0 -3.893315,-1.570288 -3.893315,-3.489871 0,-1.919583 1.750265,-3.313677 3.893315,-3.313677 2.13959,0 3.70036,1.394094 3.70036,3.313677 0,1.919583 -1.56077,3.489871 -3.70036,3.489871 z m 0,-10.9951021 c -4.475589,0 -8.179402,3.4898711 -8.179402,7.5052311 0,4.191554 3.703813,7.505231 8.179402,7.505231 4.47903,0 8.1794,-3.313677 8.1794,-7.505231 0,-4.01536 -3.70037,-7.5052311 -8.1794,-7.5052311"
       style="fill:#191412;fill-opacity:1;fill-rule:nonzero;stroke:none"
       id="path1542" />
    <path
       inkscape:connector-curvature="0"
       d="m 115.95866,-12.872979 1.17143,0 -0.77866,-3.842258 -4.28953,0 -12.262209,12.5684803 10.511939,0 5.64703,-8.7262223"
       style="fill:#191412;fill-opacity:1;fill-rule:nonzero;stroke:none"
       id="path1544" />
    <path
       inkscape:connector-curvature="0"
       d="m 49.961863,-12.696785 4.289533,0 6.225852,-15.183565 0,-2.967472 -13.437091,0 0,2.967472 9.151004,0 -6.229298,15.183565"
       style="fill:#191412;fill-opacity:1;fill-rule:nonzero;stroke:none"
       id="path1546" />
    <path
       inkscape:connector-curvature="0"
       d="m 71.182131,-15.314961 -0.189497,0 c -3.893311,-0.179285 -3.893311,-3.143666 -4.093145,-6.633536 0,-2.79437 1.171439,-5.931853 4.093145,-5.75875 l 0.189497,0 c 2.532375,0 4.282643,1.743389 4.282643,6.28424 0,1.919583 -0.775217,5.928761 -4.282643,6.108046 z m 7.597125,-6.982832 c -0.196388,-6.104956 -3.314482,-8.376926 -7.597125,-8.550029 l -0.189497,0 c -5.454081,0.346205 -7.011406,3.140575 -7.597125,7.854527 -0.189497,4.534668 0.782108,10.642715 7.400737,10.472703 l 0.385885,0 c 5.843413,-0.176193 7.790068,-4.54085 7.597125,-9.777201"
       style="fill:#191412;fill-opacity:1;fill-rule:nonzero;stroke:none"
       id="path1548" />
    <path
       inkscape:connector-curvature="0"
       d="m 86.95521,-18.631729 c 0,-2.092686 3.114649,-2.092686 3.114649,0 l 0,6.281149 2.528929,0 0,-6.281149 c 0,-1.919584 2.921706,-2.448164 3.114649,0 l 0,6.281149 2.339432,0 0,-7.332129 c 0,-0.695501 -0.97505,-2.438891 -2.532375,-2.438891 -1.364381,-0.176193 -3.311037,-0.176193 -4.089699,1.041707 -0.778662,-1.2179 -1.946656,-1.2179 -3.118095,-1.041707 -0.971605,0 -1.94321,0.698593 -1.94321,1.220991 l 0,-1.047888 -1.753712,0 0,9.597917 2.339432,0 0,-6.281149"
       style="fill:#191412;fill-opacity:1;fill-rule:nonzero;stroke:none"
       id="path1550" />
  </g>
</svg>
