<?xml version="1.0" encoding="UTF-8" standalone="no"?>
<!-- Created with Inkscape (http://www.inkscape.org/) -->

<svg
   xmlns:dc="http://purl.org/dc/elements/1.1/"
   xmlns:cc="http://creativecommons.org/ns#"
   xmlns:rdf="http://www.w3.org/1999/02/22-rdf-syntax-ns#"
   xmlns:svg="http://www.w3.org/2000/svg"
   xmlns="http://www.w3.org/2000/svg"
   xmlns:sodipodi="http://sodipodi.sourceforge.net/DTD/sodipodi-0.dtd"
   xmlns:inkscape="http://www.inkscape.org/namespaces/inkscape"
   id="svg2993"
   version="1.1"
   preserveAspectRatio="xMinYMin meet"
   viewBox="0 0 145 130"
   inkscape:version="0.48.4 r9939"
   sodipodi:docname="cod_81b.svg"
   width="100%"
   height="100%">
  <defs
     id="defs2995">
    <clipPath
       clipPathUnits="userSpaceOnUse"
       id="clipPath3570">
      <path
         inkscape:connector-curvature="0"
         d="m 43.696,200.037 109.817,0 0,135.081 -109.817,0 0,-135.081 z"
         id="path3572" />
    </clipPath>
  </defs>
  <sodipodi:namedview
     id="base"
     pagecolor="#ffffff"
     bordercolor="#666666"
     borderopacity="1.0"
     inkscape:pageopacity="0.0"
     inkscape:pageshadow="2"
     inkscape:zoom="1.7015053"
     inkscape:cx="3.0748299"
     inkscape:cy="35.760797"
     inkscape:current-layer="layer1"
     showgrid="true"
     inkscape:document-units="px"
     inkscape:grid-bbox="true"
     inkscape:window-width="1311"
     inkscape:window-height="744"
     inkscape:window-x="55"
     inkscape:window-y="24"
     inkscape:window-maximized="1" />
  <metadata
     id="metadata2998">
    <rdf:RDF>
      <cc:Work
         rdf:about="">
        <dc:format>image/svg+xml</dc:format>
        <dc:type
           rdf:resource="http://purl.org/dc/dcmitype/StillImage" />
        <dc:title></dc:title>
      </cc:Work>
    </rdf:RDF>
  </metadata>
  <g
     id="layer1"
     inkscape:label="Layer 1"
     inkscape:groupmode="layer"
     transform="translate(0,66)">
    <g
       id="g3662"
       transform="matrix(2.8211214,0,0,-2.530857,72.5,63.240743)">
      <path
         inkscape:connector-curvature="0"
         d="m 0,0 c -14.006,0 -25.4,11.387 -25.4,25.384 0,13.995 11.394,25.382 25.4,25.382 14.005,0 25.398,-11.387 25.398,-25.382 C 25.398,11.387 14.005,0 0,0 m 0,51.066 c -14.172,0 -25.699,-11.522 -25.699,-25.682 C -25.699,11.222 -14.172,-0.3 0,-0.3 c 14.172,0 25.699,11.522 25.699,25.684 0,14.16 -11.527,25.682 -25.699,25.682"
         style="fill:#1f1916;fill-opacity:1;fill-rule:nonzero;stroke:none"
         id="path3664" />
    </g>
    <g
       id="g3666"
       transform="matrix(2.8211214,0,0,-2.530857,54.729485,21.881735)">
      <path
         inkscape:connector-curvature="0"
         d="m 0,0 c -0.132,0.137 -0.268,0.337 -0.268,0.471 0,0.133 0.068,0.336 0.202,0.467 l 6.03,4.352 -15.41,15.534 4.289,4.217 15.476,-15.464 4.423,6.159 c 0.135,0.134 0.266,0.201 0.402,0.201 0.134,0 0.335,-0.136 0.4,-0.336 L 21.24,-5.623 0,0 z m 6.299,33.719 c -13.641,0 -24.698,-11.047 -24.698,-24.677 0,-13.631 11.057,-24.681 24.698,-24.681 13.641,0 24.697,11.05 24.697,24.681 0,13.63 -11.056,24.677 -24.697,24.677"
         style="fill:#00458f;fill-opacity:1;fill-rule:nonzero;stroke:none"
         id="path3668" />
    </g>
    <g
       id="g3670"
       transform="matrix(2.8211214,0,0,-2.530857,97.452842,-18.452796)">
      <path
         inkscape:connector-curvature="0"
         d="M 0,0 C -0.136,0 -0.267,-0.067 -0.402,-0.201 L -4.825,-6.36 -20.301,9.104 -24.59,4.887 l 15.41,-15.534 -6.03,-4.352 c -0.134,-0.131 -0.202,-0.334 -0.202,-0.467 0,-0.134 0.136,-0.334 0.268,-0.471 L 6.096,-21.56 0.4,-0.336 C 0.335,-0.136 0.134,0 0,0"
         style="fill:#ffffff;fill-opacity:1;fill-rule:nonzero;stroke:none"
         id="path3672" />
    </g>
  </g>
</svg>
