<?xml version="1.0" encoding="UTF-8" standalone="no"?>
<!-- Created with Inkscape (http://www.inkscape.org/) -->

<svg
   xmlns:dc="http://purl.org/dc/elements/1.1/"
   xmlns:cc="http://creativecommons.org/ns#"
   xmlns:rdf="http://www.w3.org/1999/02/22-rdf-syntax-ns#"
   xmlns:svg="http://www.w3.org/2000/svg"
   xmlns="http://www.w3.org/2000/svg"
   xmlns:sodipodi="http://sodipodi.sourceforge.net/DTD/sodipodi-0.dtd"
   xmlns:inkscape="http://www.inkscape.org/namespaces/inkscape"
   id="svg2993"
   version="1.1"
   preserveAspectRatio="xMinYMin meet"
   viewBox="0 0 145 130"
   inkscape:version="0.48.3.1 r9886"
   sodipodi:docname="cod_1.svg"
   width="100%"
   height="100%">
  <defs
     id="defs2995" />
  <sodipodi:namedview
     id="base"
     pagecolor="#ffffff"
     bordercolor="#666666"
     borderopacity="1.0"
     inkscape:pageopacity="0.0"
     inkscape:pageshadow="2"
     inkscape:zoom="4.0153846"
     inkscape:cx="72.5"
     inkscape:cy="64.041711"
     inkscape:current-layer="layer1"
     showgrid="true"
     inkscape:document-units="px"
     inkscape:grid-bbox="true"
     inkscape:window-width="1366"
     inkscape:window-height="692"
     inkscape:window-x="0"
     inkscape:window-y="24"
     inkscape:window-maximized="1" />
  <metadata
     id="metadata2998">
    <rdf:RDF>
      <cc:Work
         rdf:about="">
        <dc:format>image/svg+xml</dc:format>
        <dc:type
           rdf:resource="http://purl.org/dc/dcmitype/StillImage" />
        <dc:title></dc:title>
      </cc:Work>
    </rdf:RDF>
  </metadata>
  <g
     id="layer1"
     inkscape:label="Layer 1"
     inkscape:groupmode="layer"
     transform="translate(0,66)">
    <path
       inkscape:connector-curvature="0"
       d="m 143.37394,59.566857 c -1.35163,2.389599 -3.77239,3.813887 -6.47921,3.813887 l -128.790356,0 c -2.7032459,0 -5.1240097,-1.424288 -6.4792084,-3.810244 -1.34804723,-2.382313 -1.34804723,-5.227247 0,-7.616846 L 66.020345,-61.577785 c 1.351622,-2.385956 3.775963,-3.806602 6.479208,-3.806602 2.703246,0 5.127585,1.420646 6.479209,3.806602 L 143.37394,51.953654 c 1.35162,2.389599 1.35162,5.23089 0,7.613203 z M 79.507968,-61.887413 C 78.045497,-64.466431 75.424494,-66 72.499553,-66 c -2.921365,0 -5.545945,1.533569 -7.008415,4.112587 L 1.0995344,51.644026 c -1.466046,2.579018 -1.466046,5.660726 0,8.239744 C 2.5620048,62.459146 5.183009,64 8.104374,64 l 128.790356,0 c 2.92494,0 5.54237,-1.540854 7.00842,-4.119872 1.46247,-2.579018 1.46247,-5.657084 0,-8.236102 L 79.507968,-61.887413"
       style="fill:#191412;fill-opacity:1;fill-rule:nonzero;stroke:none"
       id="path1302" />
    <path
       inkscape:connector-curvature="0"
       d="m 23.097377,46.952253 49.402176,-87.100146 49.405757,87.100146 -98.807933,0 z M 76.994235,-60.404842 c -1.995253,-3.533401 -6.994112,-3.533401 -8.989365,0 C 46.53981,-22.5756 25.074751,15.279141 3.6132671,53.122954 1.6144384,56.645427 4.1138682,61.049428 8.104374,61.049428 l 128.790356,0 c 3.99409,0 6.49351,-4.404001 4.49468,-7.926474 C 119.92435,15.279141 98.46287,-22.5756 76.994235,-60.404842"
       style="fill:#c13339;fill-opacity:1;fill-rule:nonzero;stroke:none"
       id="path1304" />
    <path
       inkscape:connector-curvature="0"
       d="m 81.592614,31.299653 c 0,5.205391 -4.076323,9.441829 -9.089485,9.441829 -5.109707,0 -9.268272,-4.236438 -9.268272,-9.441829 0,-2.447882 0.979748,-4.76827 2.756881,-6.527685 1.769984,-1.748487 4.0799,-2.71744 6.511391,-2.71744 5.013162,0 9.089485,4.149014 9.089485,9.245125 z m 3.203848,-6.527685 c 1.719921,-1.748487 3.997657,-2.71744 6.41842,-2.71744 5.020314,0 9.264688,4.236438 9.264688,9.245125 0,5.205391 -4.154981,9.441829 -9.264688,9.441829 -5.00601,0 -9.082334,-4.236438 -9.082334,-9.441829 0,-2.45881 0.943991,-4.779198 2.663914,-6.527685 z M 53.612589,40.741482 c -5.016738,0 -9.093061,-4.236438 -9.093061,-9.441829 0,-2.45881 0.947566,-4.779198 2.667488,-6.527685 1.719923,-1.748487 3.997657,-2.71744 6.425573,-2.71744 5.002435,0 9.082334,4.149014 9.082334,9.245125 0,5.205391 -4.079899,9.441829 -9.082334,9.441829 z m -30.515212,6.210771 98.807933,0 -49.405757,-87.100146 -49.402176,87.100146"
       style="fill:#ffffff;fill-opacity:1;fill-rule:nonzero;stroke:none"
       id="path1306" />
    <path
       inkscape:connector-curvature="0"
       d="m 72.503129,40.191437 c 4.716377,0 8.549552,-3.988736 8.549552,-8.891784 0,-4.793769 -3.833175,-8.691437 -8.549552,-8.691437 -2.288462,0 -4.466077,0.903385 -6.128788,2.557162 -1.673438,1.653777 -2.59955,3.835743 -2.59955,6.134275 0,4.903048 3.915416,8.891784 8.728338,8.891784"
       style="fill:#ecee23;fill-opacity:1;fill-rule:nonzero;stroke:none"
       id="path1308" />
    <path
       inkscape:connector-curvature="0"
       d="m 72.503129,22.608216 c 4.716377,0 8.549552,3.897668 8.549552,8.691437 0,4.903048 -3.833175,8.891784 -8.549552,8.891784 -4.812922,0 -8.728338,-3.988736 -8.728338,-8.891784 0,-2.298532 0.926112,-4.480498 2.59955,-6.134275 1.662711,-1.653777 3.840326,-2.557162 6.128788,-2.557162 z m -9.268272,8.691437 c 0,5.205391 4.158565,9.441829 9.268272,9.441829 5.013162,0 9.089485,-4.236438 9.089485,-9.441829 0,-5.096111 -4.076323,-9.245125 -9.089485,-9.245125 -2.431491,0 -4.741407,0.968953 -6.511391,2.71744 -1.777133,1.759415 -2.756881,4.079803 -2.756881,6.527685"
       style="fill:#191412;fill-opacity:1;fill-rule:nonzero;stroke:none"
       id="path1310" />
    <path
       inkscape:connector-curvature="0"
       d="m 53.612589,22.608216 c -2.281311,0 -4.426744,0.903385 -6.042971,2.553519 -1.619802,1.642849 -2.510157,3.828458 -2.510157,6.137918 0,4.903048 3.83675,8.891784 8.553128,8.891784 4.709226,0 8.538824,-3.988736 8.538824,-8.891784 0,-4.793769 -3.829598,-8.691437 -8.538824,-8.691437"
       style="fill:#c13339;fill-opacity:1;fill-rule:nonzero;stroke:none"
       id="path1312" />
    <path
       inkscape:connector-curvature="0"
       d="m 53.612589,40.191437 c -4.716378,0 -8.553128,-3.988736 -8.553128,-8.891784 0,-2.30946 0.890355,-4.495069 2.510157,-6.137918 1.616227,-1.650134 3.76166,-2.553519 6.042971,-2.553519 4.709226,0 8.538824,3.897668 8.538824,8.691437 0,4.903048 -3.829598,8.891784 -8.538824,8.891784 z m 0,-18.136909 c -2.427916,0 -4.70565,0.968953 -6.425573,2.71744 -1.719922,1.748487 -2.667488,4.068875 -2.667488,6.527685 0,5.205391 4.076323,9.441829 9.093061,9.441829 5.002435,0 9.082334,-4.236438 9.082334,-9.441829 0,-5.096111 -4.079899,-9.245125 -9.082334,-9.245125"
       style="fill:#191412;fill-opacity:1;fill-rule:nonzero;stroke:none"
       id="path1314" />
    <path
       inkscape:connector-curvature="0"
       d="m 91.214882,40.191437 c 4.812922,0 8.728342,-3.988736 8.728342,-8.891784 0,-4.709987 -4.001237,-8.691437 -8.728342,-8.691437 -2.274159,0 -4.419592,0.903385 -6.035818,2.553519 -1.616227,1.642849 -2.510157,3.828458 -2.510157,6.137918 0,4.903048 3.836749,8.891784 8.545975,8.891784"
       style="fill:#2ea04d;fill-opacity:1;fill-rule:nonzero;stroke:none"
       id="path1316" />
    <path
       inkscape:connector-curvature="0"
       d="m 85.179064,25.161735 c 1.616226,-1.650134 3.761659,-2.553519 6.035818,-2.553519 4.727105,0 8.728342,3.98145 8.728342,8.691437 0,4.903048 -3.91542,8.891784 -8.728342,8.891784 -4.709226,0 -8.545975,-3.988736 -8.545975,-8.891784 0,-2.30946 0.89393,-4.495069 2.510157,-6.137918 z m 6.035818,15.579747 c 5.109707,0 9.264688,-4.236438 9.264688,-9.441829 0,-5.008687 -4.244374,-9.245125 -9.264688,-9.245125 -2.420763,0 -4.698499,0.968953 -6.41842,2.71744 -1.719923,1.748487 -2.663914,4.068875 -2.663914,6.527685 0,5.205391 4.076324,9.441829 9.082334,9.441829"
       style="fill:#191412;fill-opacity:1;fill-rule:nonzero;stroke:none"
       id="path1318" />
  </g>
</svg>
