<?xml version="1.0" encoding="UTF-8" standalone="no"?>
<!-- Created with Inkscape (http://www.inkscape.org/) -->

<svg
   xmlns:dc="http://purl.org/dc/elements/1.1/"
   xmlns:cc="http://creativecommons.org/ns#"
   xmlns:rdf="http://www.w3.org/1999/02/22-rdf-syntax-ns#"
   xmlns:svg="http://www.w3.org/2000/svg"
   xmlns="http://www.w3.org/2000/svg"
   xmlns:sodipodi="http://sodipodi.sourceforge.net/DTD/sodipodi-0.dtd"
   xmlns:inkscape="http://www.inkscape.org/namespaces/inkscape"
   id="svg2993"
   version="1.1"
   preserveAspectRatio="xMinYMin meet"
   viewBox="0 0 145 130"
   inkscape:version="0.48.3.1 r9886"
   sodipodi:docname="cod_1.svg"
   width="100%"
   height="100%">
  <defs
     id="defs2995" />
  <sodipodi:namedview
     id="base"
     pagecolor="#ffffff"
     bordercolor="#666666"
     borderopacity="1.0"
     inkscape:pageopacity="0.0"
     inkscape:pageshadow="2"
     inkscape:zoom="7.7781746"
     inkscape:cx="124.92124"
     inkscape:cy="22.969882"
     inkscape:current-layer="layer1"
     showgrid="true"
     inkscape:document-units="px"
     inkscape:grid-bbox="true"
     inkscape:window-width="1366"
     inkscape:window-height="692"
     inkscape:window-x="0"
     inkscape:window-y="24"
     inkscape:window-maximized="1" />
  <metadata
     id="metadata2998">
    <rdf:RDF>
      <cc:Work
         rdf:about="">
        <dc:format>image/svg+xml</dc:format>
        <dc:type
           rdf:resource="http://purl.org/dc/dcmitype/StillImage" />
        <dc:title></dc:title>
      </cc:Work>
    </rdf:RDF>
  </metadata>
  <g
     id="layer1"
     inkscape:label="Layer 1"
     inkscape:groupmode="layer"
     transform="translate(0,66)">
    <path
       inkscape:connector-curvature="0"
       d="m 143.53976,59.512493 c -1.35692,2.375767 -3.77718,3.801956 -6.48744,3.801956 l -128.9540048,0 c -2.710261,0 -5.1341005,-1.426189 -6.487441,-3.801956 -1.34976009,-2.386683 -1.34976009,-5.228144 0,-7.60755 L 31.534734,-0.7184933 66.084296,-61.495215 c 1.356921,-2.379406 3.780758,-3.798318 6.491022,-3.798318 2.706681,0 5.130521,1.418912 6.487441,3.798318 L 143.53976,51.904943 c 1.35334,2.379406 1.35334,5.220867 0,7.60755 z M 79.589056,-61.804465 c -1.46433,-2.575871 -4.085084,-4.111206 -7.013741,-4.111206 -2.928657,0 -5.552992,1.535335 -7.017318,4.111206 L 31.004854,-1.0350198 1.080995,51.592054 c -1.46432869,2.575871 -1.46432869,5.657457 0,8.233327 1.4679088,2.572233 4.088663,4.111206 7.0173202,4.111206 l 128.9540048,0 c 2.92866,0 5.54941,-1.538973 7.01374,-4.114843 1.46791,-2.575871 1.46791,-5.653819 0,-8.22969 L 79.589057,-61.804465"
       style="fill:#191412;fill-opacity:1;fill-rule:nonzero;stroke:none"
       id="path944" />
    <path
       inkscape:connector-curvature="0"
       d="m 23.110369,46.909645 49.464949,-87.001122 49.464942,87.001122 -98.929891,0 z M 77.075712,-60.327341 c -2.001369,-3.521812 -7.003,-3.521812 -9.004371,0 -21.492332,37.793988 -42.981085,75.598892 -64.4698391,113.396519 -2.0049488,3.514536 0.497657,7.9168 4.4968133,7.9168 l 128.9540048,0 c 3.99916,0 6.49818,-4.402264 4.5004,-7.9168 C 120.06038,15.271551 98.568045,-22.533353 77.075712,-60.327341"
       style="fill:#c13339;fill-opacity:1;fill-rule:nonzero;stroke:none"
       id="path946" />
    <path
       inkscape:connector-curvature="0"
       d="m 71.769758,7.8932098 c -0.902227,1.4625705 -1.446427,2.5649562 -1.446427,3.4781532 -0.175433,0.734923 0,1.280658 0.5442,1.651758 0.716053,0.363824 1.260253,0.174636 1.800874,-0.3711 0.175433,-0.178273 0.361607,-0.360184 0.716052,-0.545735 0.365187,-0.549374 0.905808,-1.466209 1.625441,-2.3794055 0.719634,-1.4625707 1.260253,-2.7432295 1.439267,-3.4745149 0,-0.7312853 -0.179014,-1.4625706 -0.719633,-1.6481206 -0.54062,-0.3638235 -1.081241,-0.3638235 -1.800874,0.18555 -0.179014,0.1819118 -0.361607,0.3638236 -0.544201,0.5457353 -0.540619,0.5457354 -0.895066,1.2806589 -1.435686,2.379406 l -0.179013,0.1782735"
       style="fill:#ffffff;fill-opacity:1;fill-rule:nonzero;stroke:none"
       id="path948" />
    <path
       inkscape:connector-curvature="0"
       d="m 91.765541,25.45861 c 0.175433,0.18555 0.54062,0.18555 0.719633,0.18555 l 0.544201,0 c 0.361606,-0.18555 0.719633,-0.367461 0.895066,-0.731285 0.186174,-0.549374 0.361607,-0.916836 0.186174,-1.284297 -0.186174,-0.549374 -0.361607,-0.909559 -0.719634,-1.098748 -0.361606,-0.185549 -0.5442,-0.185549 -0.905807,-0.185549 l -0.361607,0 c -0.358026,0.185549 -0.719633,0.374738 -1.08482,0.734923 l 0,0.185551 c -0.171853,0.363823 -0.171853,0.731284 -0.171853,1.098746 0.171853,0.549374 0.53704,0.913198 0.898647,1.095109"
       style="fill:#ffffff;fill-opacity:1;fill-rule:nonzero;stroke:none"
       id="path950" />
    <path
       inkscape:connector-curvature="0"
       d="m 76.989785,2.2248391 c 1.62186,0.9168354 2.520507,2.2011324 2.706681,3.6564266 0.175433,1.6517588 -0.361607,3.4745146 -1.62544,5.6756463 -1.260254,2.197495 -2.520507,3.652789 -3.963355,4.205801 -0.179013,0.18555 -0.54062,0.18555 -0.723214,0.18555 -1.256673,0.363823 -2.516926,0.18555 -3.78076,-0.549373 -1.61828,-1.098748 -2.520507,-2.201133 -2.7031,-3.841978 -0.182594,-1.46257 0.361606,-3.474514 1.62186,-5.6756463 1.260254,-2.1902178 2.706681,-3.4708766 3.966934,-4.2058001 0.354447,0 0.540621,-0.1819118 0.895066,-0.1819118 1.088401,-0.3674617 2.345075,0 3.605328,0.7312853 z m 10.454376,16.8377529 5.041013,-2.928779 4.142365,-2.561318 1.62186,0.913197 -5.764225,3.470877 -5.041013,3.11433 -4.145948,2.379405 -1.442847,-0.920474 5.588795,-3.467238 z m -3.608908,-8.058691 c 0.723214,-1.0987471 1.446428,-1.6481207 2.524087,-2.0083059 0.358027,0 0.723214,-0.1819117 1.084821,-0.1819117 0.716052,0 1.439266,0.1819117 1.979887,0.7276475 1.081239,0.5530111 1.614699,1.2806581 1.979886,2.3794061 0.361607,1.102384 0.179014,2.193856 -0.365187,3.288964 -0.712473,0.924112 -1.435686,1.466209 -2.516927,1.837308 -0.361607,0.178275 -0.723213,0.178275 -1.077659,0.178275 -0.726794,0 -1.446428,-0.178275 -1.987048,-0.549374 -1.07766,-0.542097 -1.62186,-1.466209 -1.979887,-2.561317 -0.358027,-1.091472 -0.179013,-2.193856 0.358027,-3.110692 z m 4.686567,14.094524 c -0.179013,-1.102386 0,-2.197494 0.540621,-3.11433 0.54062,-1.095108 1.263833,-1.640844 2.341493,-2.011944 0.361607,0 0.719633,-0.181912 1.08124,-0.181912 0.719634,0 1.439267,0.181912 2.166062,0.553012 0.898643,0.727648 1.614696,1.462571 1.80087,2.55768 0.358027,1.095108 0.175433,2.197494 -0.361607,3.107052 -0.54062,1.102386 -1.439263,1.648121 -2.520504,2.011944 -0.365187,0 -0.723214,0.185551 -1.084821,0.185551 -0.719633,0 -1.256673,-0.185551 -1.979887,-0.549374 -0.902226,-0.734923 -1.62186,-1.46257 -1.983467,-2.557679 z m 23.52593,17.099706 -78.94844,0 0.239878,-0.411121 19.455163,-34.2030502 0.13605,-0.2437618 0.232717,0.1382529 58.014622,34.2066891 0.87001,0.512991 z m -51.631014,-43.6333567 1.08124,-2.0083059 0.179014,0.1782736 c 1.077659,0.5493735 1.983467,0.9168353 2.703099,0.9168353 0.716054,-0.1819119 1.442848,-0.5457353 1.979888,-1.2770207 L 68.705048,-2.1628727 61.676987,10.276254 58.615859,8.4462216 63.295267,0.21653319 60.416733,-1.4352257 z m -37.306367,48.3448707 98.929891,0 -49.464945,-87.001122 -49.464946,87.001122"
       style="fill:#ffffff;fill-opacity:1;fill-rule:nonzero;stroke:none"
       id="path952" />
    <path
       inkscape:connector-curvature="0"
       d="m 86.541934,14.485692 c 0.361607,0.174636 0.54062,0.174636 0.902227,0.174636 l 0.354446,0 c 0.5442,-0.174636 0.902227,-0.360186 1.08482,-0.727647 0.179014,-0.360186 0.179014,-0.90956 0.179014,-1.28066 -0.179014,-0.545735 -0.361607,-0.731284 -0.719634,-1.095109 -0.365187,-0.185549 -0.5442,-0.185549 -0.898646,-0.185549 l -0.361607,0 c -0.54062,0.185549 -0.898647,0.3711 -1.084821,0.920474 -0.179013,0.360184 -0.179013,0.731284 -0.179013,1.280658 0.179013,0.360186 0.365187,0.727647 0.723214,0.913197"
       style="fill:#ffffff;fill-opacity:1;fill-rule:nonzero;stroke:none"
       id="path954" />
    <path
       inkscape:connector-curvature="0"
       d="m 52.930401,7.340198 -0.13605,0.2437618 -19.45516,34.2030502 -0.239878,0.411121 78.948437,0 -0.87,-0.512991 L 53.163121,7.4784509 52.930404,7.340198"
       style="fill:#191412;fill-opacity:1;fill-rule:nonzero;stroke:none"
       id="path956" />
    <path
       inkscape:connector-curvature="0"
       d="m 61.67699,10.276254 7.028061,-12.4391267 -2.345074,-1.4625707 c -0.53704,0.7312854 -1.263834,1.0951088 -1.979888,1.2770207 -0.719632,0 -1.62544,-0.3674618 -2.703099,-0.9168353 l -0.179014,-0.1782736 -1.08124,2.0083059 2.878534,1.65175889 -4.679408,8.22968841 3.061128,1.8300324"
       style="fill:#191412;fill-opacity:1;fill-rule:nonzero;stroke:none"
       id="path958" />
    <path
       inkscape:connector-curvature="0"
       d="m 73.928658,4.789795 c 0.719633,-0.5493735 1.260254,-0.5493735 1.800874,-0.18555 0.540619,0.18555 0.719633,0.9168353 0.719633,1.6481206 -0.179014,0.7312854 -0.719633,2.0119442 -1.439267,3.4745149 -0.719633,0.9131965 -1.260254,1.8300315 -1.625441,2.3794055 -0.354445,0.185551 -0.540619,0.367462 -0.716052,0.545735 -0.540621,0.545736 -1.084821,0.734924 -1.800874,0.3711 -0.5442,-0.3711 -0.719633,-0.916835 -0.5442,-1.651758 0,-0.913197 0.5442,-2.0155827 1.446427,-3.4781532 l 0.179013,-0.1782735 c 0.54062,-1.0987471 0.895067,-1.8336706 1.435686,-2.379406 0.182594,-0.1819117 0.365187,-0.3638235 0.544201,-0.5457353 z m -5.406201,1.0914707 c -1.260254,2.2011323 -1.804454,4.2130763 -1.62186,5.6756463 0.182593,1.640845 1.08482,2.74323 2.7031,3.841978 1.263834,0.734923 2.524087,0.913196 3.78076,0.549373 0.182594,0 0.544201,0 0.723214,-0.18555 1.442848,-0.553012 2.703101,-2.008306 3.963355,-4.205801 1.263833,-2.2011317 1.800873,-4.0238875 1.62544,-5.6756463 C 79.510292,4.4259715 78.611645,3.1416745 76.989785,2.2248391 75.729532,1.4935538 74.472858,1.1260921 73.384457,1.4935538 c -0.354445,0 -0.540619,0.1819118 -0.895066,0.1819118 -1.260253,0.7349235 -2.70668,2.0155823 -3.966934,4.2058001"
       style="fill:#191412;fill-opacity:1;fill-rule:nonzero;stroke:none"
       id="path960" />
    <path
       inkscape:connector-curvature="0"
       d="m 91.038747,23.264755 0,-0.185551 c 0.365187,-0.360185 0.726794,-0.549374 1.08482,-0.734923 l 0.361607,0 c 0.361607,0 0.544201,0 0.905807,0.185549 0.358027,0.189189 0.53346,0.549374 0.719634,1.098748 0.175433,0.367461 0,0.734923 -0.186174,1.284297 -0.175433,0.363824 -0.53346,0.545735 -0.895066,0.731285 l -0.544201,0 c -0.179013,0 -0.5442,0 -0.719633,-0.18555 -0.361607,-0.181911 -0.726794,-0.545735 -0.898647,-1.095109 0,-0.367462 0,-0.734923 0.171853,-1.098746 z m 1.446427,4.940723 c 0.361607,0 0.719634,-0.185551 1.084821,-0.185551 1.081241,-0.363823 1.979884,-0.909558 2.520504,-2.011944 0.53704,-0.909558 0.719634,-2.011944 0.361607,-3.107052 -0.186174,-1.095109 -0.902227,-1.830032 -1.80087,-2.55768 -0.726795,-0.3711 -1.446428,-0.553012 -2.166062,-0.553012 -0.361607,0 -0.719633,0.181912 -1.08124,0.181912 -1.07766,0.3711 -1.800873,0.916836 -2.341493,2.011944 -0.540621,0.916836 -0.719634,2.011944 -0.540621,3.11433 0.361607,1.095109 1.081241,1.822756 1.983467,2.557679 0.723214,0.363823 1.260254,0.549374 1.979887,0.549374"
       style="fill:#191412;fill-opacity:1;fill-rule:nonzero;stroke:none"
       id="path962" />
    <path
       inkscape:connector-curvature="0"
       d="m 85.997733,12.291837 c 0.186174,-0.549374 0.544201,-0.734925 1.084821,-0.920474 l 0.361607,0 c 0.354446,0 0.533459,0 0.898646,0.185549 0.358027,0.363825 0.54062,0.549374 0.719634,1.095109 0,0.3711 0,0.920474 -0.179014,1.28066 -0.182593,0.367461 -0.54062,0.553011 -1.08482,0.727647 l -0.354446,0 c -0.361607,0 -0.54062,0 -0.902227,-0.174636 -0.358027,-0.18555 -0.544201,-0.553011 -0.723214,-0.913197 0,-0.549374 0,-0.920474 0.179013,-1.280658 z m -0.54062,4.384073 c 0.54062,0.371099 1.260254,0.549374 1.987048,0.549374 0.354446,0 0.716052,0 1.077659,-0.178275 1.081241,-0.371099 1.804454,-0.913196 2.516927,-1.837308 0.544201,-1.095108 0.726794,-2.18658 0.365187,-3.288964 -0.365187,-1.098748 -0.898647,-1.826395 -1.979886,-2.3794061 -0.540621,-0.5457358 -1.263835,-0.7276475 -1.979887,-0.7276475 -0.361607,0 -0.726794,0.1819117 -1.084821,0.1819117 -1.077659,0.3601852 -1.800873,0.9095588 -2.524087,2.0083059 -0.53704,0.916836 -0.716054,2.01922 -0.358027,3.110692 0.358027,1.095108 0.902227,2.01922 1.979887,2.561317"
       style="fill:#191412;fill-opacity:1;fill-rule:nonzero;stroke:none"
       id="path964" />
    <path
       inkscape:connector-curvature="0"
       d="m 87.444161,21.070899 5.041013,-3.11433 5.764225,-3.470877 -1.62186,-0.913197 -4.142365,2.561318 -5.041013,2.928779 -5.588795,3.467238 1.442847,0.920474 4.145948,-2.379405"
       style="fill:#191412;fill-opacity:1;fill-rule:nonzero;stroke:none"
       id="path966" />
  </g>
</svg>
