<?xml version="1.0" encoding="UTF-8" standalone="no"?>
<!-- Created with Inkscape (http://www.inkscape.org/) -->

<svg
   xmlns:dc="http://purl.org/dc/elements/1.1/"
   xmlns:cc="http://creativecommons.org/ns#"
   xmlns:rdf="http://www.w3.org/1999/02/22-rdf-syntax-ns#"
   xmlns:svg="http://www.w3.org/2000/svg"
   xmlns="http://www.w3.org/2000/svg"
   version="1.1"
   width="100%"
   height="100%"
   viewBox="0 0 145 130"
   id="svg2993">
  <defs
     id="defs2995" />
  <metadata
     id="metadata2998">
    <rdf:RDF>
      <cc:Work
         rdf:about="">
        <dc:format>image/svg+xml</dc:format>
        <dc:type
           rdf:resource="http://purl.org/dc/dcmitype/StillImage" />
        <dc:title></dc:title>
      </cc:Work>
    </rdf:RDF>
  </metadata>
  <g
     transform="translate(0,66)"
     id="layer1">
    <path
       d="m 72.501723,63.239603 c -39.508495,0 -71.6507072,-28.817795 -71.6507072,-64.2411485 0,-35.4202625 32.1422122,-64.2380575 71.6507072,-64.2380575 39.511937,0 71.650707,28.817795 71.650707,64.2380575 0,35.4233535 -32.13877,64.2411485 -71.650707,64.2411485 z M 72.501723,-66 C 32.528098,-66 0,-36.839099 0,-1.0015455 0,34.84219 32.528098,64 72.501723,64 112.47879,64 145,34.84219 145,-1.0015455 145,-36.839099 112.47879,-66 72.501723,-66"
       id="path1320"
       style="fill:#191412;fill-opacity:1;fill-rule:nonzero;stroke:none" />
    <path
       d="m 72.501723,45.305371 c -28.527979,0 -51.657004,-20.731626 -51.657004,-46.3069165 0,-25.5721995 23.129025,-46.3007345 51.657004,-46.3007345 28.527977,0 51.657007,20.728535 51.657007,46.3007345 0,25.5752905 -23.12903,46.3069165 -51.657007,46.3069165 z m 0,-108.764534 c -38.478318,0 -69.6730429,27.961576 -69.6730429,62.4576175 0,34.4991325 31.1947249,62.4637995 69.6730429,62.4637995 38.485207,0 69.673047,-27.964667 69.673047,-62.4637995 0,-34.4960415 -31.18784,-62.4576175 -69.673047,-62.4576175"
       id="path1322"
       style="fill:#c13339;fill-opacity:1;fill-rule:nonzero;stroke:none" />
    <path
       d="m 102.68005,5.7183822 c 2.92171,0 5.45064,-2.2688256 5.45064,-5.05694653 0,-2.79739397 -2.52893,-5.06621967 -5.45064,-5.06621967 -3.114647,0 -5.647022,2.2688257 -5.647022,5.06621967 0,2.78812093 2.532375,5.05694653 5.647022,5.05694653"
       id="path1324"
       style="fill:#ffffff;fill-opacity:1;fill-rule:nonzero;stroke:none" />
    <path
       d="m 42.712724,5.8945717 c 3.118095,0 5.653915,-2.2780988 5.653915,-5.06312866 0,-2.79430294 -2.53582,-5.05694654 -5.653915,-5.05694654 -3.114649,0 -5.450635,2.2626436 -5.450635,5.05694654 0,2.78502986 2.335986,5.06312866 5.450635,5.06312866"
       id="path1326"
       style="fill:#ffffff;fill-opacity:1;fill-rule:nonzero;stroke:none" />
    <path
       d="m 107.73791,12.874147 -70.475821,0 c -1.557325,0 -2.721873,-0.874765 -2.721873,-2.089545 0,-1.2209622 1.164548,-2.0988184 2.721873,-2.0988184 l 70.475821,0 c 1.56077,0 2.72876,0.8778562 2.72876,2.0988184 0,1.21478 -1.16799,2.089545 -2.72876,2.089545 z m -0.58227,8.206719 c 0,1.041682 -1.36438,1.74644 -1.9501,1.74644 l -8.3689,0 c -0.971605,-0.182372 -1.946655,-0.880947 -1.946655,-2.098818 l 0,-6.630288 12.265655,0 0,6.982666 z m -56.459905,0 c 0,1.041682 -1.167994,1.74644 -1.946656,1.74644 l -8.368896,0 c -0.975051,-0.182372 -1.946656,-0.880947 -1.946656,-2.098818 l 0,-6.630288 12.262208,0 0,6.982666 z M 42.712724,-6.1512233 c 0.196389,0 0.392777,0 0.589165,-0.1700074 9.926221,-1.0478636 18.687894,-1.2240531 29.782108,-1.2240531 11.101105,0 19.077224,0 29.010333,1.2240531 0.1895,0.1700074 0.39278,0.1700074 0.58572,0.1700074 9.92967,1.3971514 10.12261,12.5650902 0,13.4398554 -0.58572,0.1792805 -0.97505,0.1792805 -1.55732,0.1792805 l -57.627898,0 c -0.389331,0 -0.585719,0 -0.782108,-0.1792805 -10.119163,-0.6954847 -10.119163,-12.3919918 0,-13.4398554 z m 5.454081,-15.1801127 c 1.753713,-1.922629 2.918261,-2.621205 5.257693,-2.970492 6.615184,-0.349288 12.458596,-0.522387 18.880836,-0.522387 6.429132,0 12.462042,0.173099 18.884282,0.701667 2.925152,0.519295 3.507426,0.868583 4.868362,2.611931 l 7.983012,14.3146211 -4.671975,-0.8716742 -5.254247,-9.5976889 c -1.360936,-1.573341 -1.953547,-2.268826 -4.286088,-2.797394 -5.839967,-0.176189 -11.483545,-0.868583 -17.326957,-0.868583 -5.839967,0 -11.683379,0.522386 -17.523346,0.868583 -2.143044,0.349288 -3.114649,1.050955 -4.671973,2.621205 l -4.864917,9.9438853 -3.893311,0.5285684 6.618629,-13.9622417 z M 72.501723,-47.30228 c -28.527979,0 -51.657004,20.728535 -51.657004,46.3007345 0,25.5752905 23.129025,46.3069165 51.657004,46.3069165 28.527977,0 51.657007,-20.731626 51.657007,-46.3069165 0,-25.5721995 -23.12903,-46.3007345 -51.657007,-46.3007345"
       id="path1328"
       style="fill:#ffffff;fill-opacity:1;fill-rule:nonzero;stroke:none" />
    <path
       d="m 42.712724,-4.2255035 c 3.118095,0 5.653915,2.2626436 5.653915,5.05694654 0,2.78502986 -2.53582,5.06312866 -5.653915,5.06312866 -3.114649,0 -5.450635,-2.2780988 -5.450635,-5.06312866 0,-2.79430294 2.335986,-5.05694654 5.450635,-5.05694654 z M 102.68005,-4.404784 c 2.92171,0 5.45064,2.2688257 5.45064,5.06621967 0,2.78812093 -2.52893,5.05694653 -5.45064,5.05694653 -3.114647,0 -5.647022,-2.2688256 -5.647022,-5.05694653 0,-2.79739397 2.532375,-5.06621967 5.647022,-5.06621967 z M 42.712724,7.2886321 c 0.196389,0.1792805 0.392777,0.1792805 0.782108,0.1792805 l 57.627898,0 c 0.58227,0 0.9716,0 1.55732,-0.1792805 10.12261,-0.8747652 9.92967,-12.042704 0,-13.4398554 -0.19294,0 -0.39622,0 -0.58572,-0.1700074 -9.933109,-1.2240531 -17.909228,-1.2240531 -29.010333,-1.2240531 -11.094214,0 -19.855887,0.1761895 -29.782108,1.2240531 -0.196388,0.1700074 -0.392776,0.1700074 -0.589165,0.1700074 -10.119163,1.0478636 -10.119163,12.7443707 0,13.4398554"
       id="path1330"
       style="fill:#191412;fill-opacity:1;fill-rule:nonzero;stroke:none" />
    <path
       d="m 107.73791,8.6857836 -70.475821,0 c -1.557325,0 -2.721873,0.8778562 -2.721873,2.0988184 0,1.21478 1.164548,2.089545 2.721873,2.089545 l 70.475821,0 c 1.56077,0 2.72876,-0.874765 2.72876,-2.089545 0,-1.2209622 -1.16799,-2.0988184 -2.72876,-2.0988184"
       id="path1332"
       style="fill:#191412;fill-opacity:1;fill-rule:nonzero;stroke:none" />
    <path
       d="m 38.433527,20.728488 c 0,1.217871 0.971605,1.916446 1.946656,2.098818 l 8.368896,0 c 0.778662,0 1.946656,-0.704758 1.946656,-1.74644 l 0,-6.982666 -12.262208,0 0,6.630288"
       id="path1334"
       style="fill:#191412;fill-opacity:1;fill-rule:nonzero;stroke:none" />
    <path
       d="m 94.889985,20.728488 c 0,1.217871 0.97505,1.916446 1.946655,2.098818 l 8.3689,0 c 0.58572,0 1.9501,-0.704758 1.9501,-1.74644 l 0,-6.982666 -12.265655,0 0,6.630288"
       id="path1336"
       style="fill:#191412;fill-opacity:1;fill-rule:nonzero;stroke:none" />
    <path
       d="m 50.306404,-17.841548 c 1.557324,-1.57025 2.528929,-2.271917 4.671973,-2.621205 5.839967,-0.346197 11.683379,-0.868583 17.523346,-0.868583 5.843412,0 11.48699,0.692394 17.326957,0.868583 2.332541,0.528568 2.925152,1.224053 4.286088,2.797394 l 5.254247,9.5976889 4.671975,0.8716742 -7.983012,-14.3146211 c -1.360936,-1.743348 -1.94321,-2.092636 -4.868362,-2.611931 -6.42224,-0.528568 -12.45515,-0.701667 -18.884282,-0.701667 -6.42224,0 -12.265652,0.173099 -18.880836,0.522387 -2.339432,0.349287 -3.50398,1.047863 -5.257693,2.970492 l -6.618629,13.9622417 3.893311,-0.5285684 4.864917,-9.9438853"
       id="path1338"
       style="fill:#191412;fill-opacity:1;fill-rule:nonzero;stroke:none" />
  </g>
</svg>
