<?xml version="1.0" encoding="UTF-8" standalone="no"?>
<!-- Created with Inkscape (http://www.inkscape.org/) -->

<svg
   xmlns:dc="http://purl.org/dc/elements/1.1/"
   xmlns:cc="http://creativecommons.org/ns#"
   xmlns:rdf="http://www.w3.org/1999/02/22-rdf-syntax-ns#"
   xmlns:svg="http://www.w3.org/2000/svg"
   xmlns="http://www.w3.org/2000/svg"
   xmlns:sodipodi="http://sodipodi.sourceforge.net/DTD/sodipodi-0.dtd"
   xmlns:inkscape="http://www.inkscape.org/namespaces/inkscape"
   id="svg2993"
   version="1.1"
   preserveAspectRatio="xMinYMin meet"
   viewBox="0 0 145 130"
   inkscape:version="0.48.4 r9939"
   sodipodi:docname="cod_80a.svg"
   width="100%"
   height="100%">
  <defs
     id="defs2995">
    <clipPath
       clipPathUnits="userSpaceOnUse"
       id="clipPath3570">
      <path
         inkscape:connector-curvature="0"
         d="m 43.696,200.037 109.817,0 0,135.081 -109.817,0 0,-135.081 z"
         id="path3572" />
    </clipPath>
  </defs>
  <sodipodi:namedview
     id="base"
     pagecolor="#ffffff"
     bordercolor="#666666"
     borderopacity="1.0"
     inkscape:pageopacity="0.0"
     inkscape:pageshadow="2"
     inkscape:zoom="1.7015053"
     inkscape:cx="3.0748299"
     inkscape:cy="35.760797"
     inkscape:current-layer="layer1"
     showgrid="true"
     inkscape:document-units="px"
     inkscape:grid-bbox="true"
     inkscape:window-width="1311"
     inkscape:window-height="744"
     inkscape:window-x="55"
     inkscape:window-y="24"
     inkscape:window-maximized="1" />
  <metadata
     id="metadata2998">
    <rdf:RDF>
      <cc:Work
         rdf:about="">
        <dc:format>image/svg+xml</dc:format>
        <dc:type
           rdf:resource="http://purl.org/dc/dcmitype/StillImage" />
        <dc:title></dc:title>
      </cc:Work>
    </rdf:RDF>
  </metadata>
  <g
     id="layer1"
     inkscape:label="Layer 1"
     inkscape:groupmode="layer"
     transform="translate(0,66)">
    <g
       id="g4158"
       transform="matrix(2.8210666,0,0,-2.5309063,72.498589,63.240728)">
      <path
         inkscape:connector-curvature="0"
         d="m 0,0 c -14.005,0 -25.4,11.386 -25.4,25.383 0,13.995 11.395,25.382 25.4,25.382 14.006,0 25.401,-11.387 25.401,-25.382 C 25.401,11.386 14.006,0 0,0 m 0,51.065 c -14.171,0 -25.699,-11.521 -25.699,-25.682 C -25.699,11.221 -14.171,-0.3 0,-0.3 14.172,-0.3 25.7,11.221 25.7,25.383 25.7,39.544 14.172,51.065 0,51.065"
         style="fill:#1f1916;fill-opacity:1;fill-rule:nonzero;stroke:none"
         id="path4160" />
    </g>
    <g
       id="g4162"
       transform="matrix(2.8210666,0,0,-2.5309063,97.265004,15.687267)">
      <path
         inkscape:connector-curvature="0"
         d="m 0,0 c -0.068,-0.069 -0.336,-0.069 -0.402,0 -0.069,0.067 -0.203,0.131 -0.203,0.334 l 0,6.093 C -4.29,6.157 -6.232,4.686 -6.297,1.069 l 0.065,-10.443 -4.891,0 0,10.443 c -0.134,3.617 -2.011,5.088 -5.762,5.358 l 0,-6.093 C -16.953,0.131 -16.953,0.067 -17.088,0 c -0.065,-0.069 -0.333,-0.069 -0.401,0 l -13.668,11.381 16.751,6.16 c 0.066,0 0.333,-0.069 0.402,-0.201 0.065,-0.133 0.065,-0.202 0.065,-0.404 l -2.076,-5.757 c 3.015,-0.4 5.561,-1.272 7.305,-3.147 1.674,1.875 4.22,2.747 7.235,3.147 l -2.01,5.757 c -0.069,0.202 0,0.271 0.068,0.404 0.066,0.132 0.268,0.201 0.4,0.201 L 13.668,11.381 0,0 z m -8.779,31.272 c -13.641,0 -24.699,-11.048 -24.699,-24.678 0,-13.631 11.058,-24.68 24.699,-24.68 13.64,0 24.698,11.049 24.698,24.68 0,13.63 -11.058,24.678 -24.698,24.678"
         style="fill:#00458f;fill-opacity:1;fill-rule:nonzero;stroke:none"
         id="path4164" />
    </g>
    <g
       id="g4166"
       transform="matrix(2.8210666,0,0,-2.5309063,88.753846,-28.707359)">
      <path
         inkscape:connector-curvature="0"
         d="m 0,0 c -0.132,0 -0.334,-0.069 -0.4,-0.201 -0.068,-0.133 -0.137,-0.202 -0.068,-0.404 l 2.01,-5.757 c -3.015,-0.4 -5.561,-1.272 -7.235,-3.147 -1.744,1.875 -4.29,2.747 -7.305,3.147 l 2.076,5.757 c 0,0.202 0,0.271 -0.065,0.404 C -11.056,-0.069 -11.323,0 -11.389,0 l -16.751,-6.16 13.668,-11.381 c 0.068,-0.069 0.336,-0.069 0.401,0 0.135,0.067 0.135,0.131 0.203,0.334 l 0,6.093 c 3.751,-0.27 5.628,-1.741 5.762,-5.358 l 0,-10.443 4.891,0 -0.065,10.443 c 0.065,3.617 2.007,5.088 5.692,5.358 l 0,-6.093 c 0,-0.203 0.134,-0.267 0.203,-0.334 0.066,-0.069 0.334,-0.069 0.402,0 L 16.685,-6.16 0,0 z"
         style="fill:#ffffff;fill-opacity:1;fill-rule:nonzero;stroke:none"
         id="path4168" />
    </g>
  </g>
</svg>
