<?xml version="1.0" encoding="UTF-8" standalone="no"?>
<!-- Created with Inkscape (http://www.inkscape.org/) -->

<svg
   xmlns:dc="http://purl.org/dc/elements/1.1/"
   xmlns:cc="http://creativecommons.org/ns#"
   xmlns:rdf="http://www.w3.org/1999/02/22-rdf-syntax-ns#"
   xmlns:svg="http://www.w3.org/2000/svg"
   xmlns="http://www.w3.org/2000/svg"
   xmlns:sodipodi="http://sodipodi.sourceforge.net/DTD/sodipodi-0.dtd"
   xmlns:inkscape="http://www.inkscape.org/namespaces/inkscape"
   id="svg2993"
   version="1.1"
   preserveAspectRatio="xMinYMin meet"
   viewBox="0 0 145 130"
   inkscape:version="0.48.3.1 r9886"
   sodipodi:docname="cod_45.svg"
   width="100%"
   height="100%">
  <defs
     id="defs2995" />
  <sodipodi:namedview
     id="base"
     pagecolor="#ffffff"
     bordercolor="#666666"
     borderopacity="1.0"
     inkscape:pageopacity="0.0"
     inkscape:pageshadow="2"
     inkscape:zoom="1.9192863"
     inkscape:cx="248.03355"
     inkscape:cy="78.856306"
     inkscape:current-layer="layer1"
     showgrid="true"
     inkscape:document-units="px"
     inkscape:grid-bbox="true"
     inkscape:window-width="1366"
     inkscape:window-height="692"
     inkscape:window-x="0"
     inkscape:window-y="24"
     inkscape:window-maximized="1" />
  <metadata
     id="metadata2998">
    <rdf:RDF>
      <cc:Work
         rdf:about="">
        <dc:format>image/svg+xml</dc:format>
        <dc:type
           rdf:resource="http://purl.org/dc/dcmitype/StillImage" />
        <dc:title></dc:title>
      </cc:Work>
    </rdf:RDF>
  </metadata>
  <g
     id="layer1"
     inkscape:label="Layer 1"
     inkscape:groupmode="layer"
     transform="translate(0,66)">
    <path
       inkscape:connector-curvature="0"
       d="m 5.0777593,-58.626345 c 0,-2.485052 3.3677283,-4.506991 7.5117057,-4.506991 l 119.809135,0 c 4.14795,0 7.52365,2.021939 7.52365,4.506991 l 0,115.045239 c 0,2.480277 -3.3757,4.502217 -7.52365,4.502217 l -119.809135,0 c -4.1439774,0 -7.5117057,-2.02194 -7.5117057,-4.502217 l 0,-115.045239 z m 7.5117057,120.055926 119.809135,0 c 4.6137,0 8.36756,-2.246334 8.36756,-5.010687 l 0,-115.045239 c 0,-2.766739 -3.75386,-5.013073 -8.36756,-5.013073 l -119.809135,0 c -4.609727,0 -8.3635897,2.246334 -8.3635897,5.013073 l 0,115.045239 c 0,2.764353 3.7538627,5.010687 8.3635897,5.010687"
       style="fill:#191412;fill-opacity:1;fill-rule:nonzero;stroke:none"
       id="path3859" />
    <path
       inkscape:connector-curvature="0"
       d="m 2.1917037,-58.626345 c 0,-3.437536 4.6654582,-6.235307 10.3977613,-6.235307 l 119.809135,0 c 5.74423,0 10.4097,2.797771 10.4097,6.235307 l 0,115.045239 c 0,3.43515 -4.66547,6.232921 -10.4097,6.232921 l -119.809135,0 c -5.7323031,0 -10.3977613,-2.797771 -10.3977613,-6.232921 l 0,-115.045239 z m 10.3977613,121.786629 119.809135,0 c 6.206,0 11.2576,-3.024553 11.2576,-6.74139 l 0,-115.045239 c 0,-3.719223 -5.0516,-6.743776 -11.2576,-6.743776 l -119.809135,0 c -6.1980528,0 -11.2456646,3.024553 -11.2456646,6.743776 l 0,115.045239 c 0,3.716837 5.0476118,6.74139 11.2456646,6.74139"
       style="fill:#191412;fill-opacity:1;fill-rule:nonzero;stroke:none"
       id="path3861" />
    <path
       inkscape:connector-curvature="0"
       d="m 144.24933,63.513586 -143.50264458,0 0,-129.239397 143.50264458,0 0,129.239397 z m 0.42196,-129.747865 -144.76852706,0 0,130.256334 145.19447706,0 0,-130.256334 -0.42595,0"
       style="fill:#191412;fill-opacity:1;fill-rule:nonzero;stroke:none"
       id="path3863" />
    <path
       inkscape:connector-curvature="0"
       d="m 72.5,-55.079 c 29.76021,0 53.97522,14.511652 53.97522,32.351028 0,17.8346037 -24.21501,32.3462543 -53.97522,32.3462543 -29.768171,0 -53.979192,-14.5116506 -53.979192,-32.3462543 C 18.520808,-40.567348 42.731829,-55.079 72.5,-55.079 z m 0,65.079231 c 30.1145,0 54.61612,-14.6811421 54.61612,-32.728203 0,-18.047061 -24.50162,-32.730589 -54.61612,-32.730589 -30.118478,0 -54.620096,14.683528 -54.620096,32.730589 0,18.0470609 24.501618,32.728203 54.620096,32.728203"
       style="fill:#191412;fill-opacity:1;fill-rule:nonzero;stroke:none"
       id="path3865" />
    <path
       inkscape:connector-curvature="0"
       d="m 42.520848,-37.306463 0.151269,-0.119368 0.171173,0.107414 53.975212,32.34148 0.183115,0.1098081 -0.207,0.088333 C 88.001104,-0.90918189 78.172592,0.82868416 68.375926,0.24382589 59.586393,-0.28135441 51.298438,-2.6637567 45.032712,-6.461756 c -6.118438,-3.669092 -10.083281,-8.880301 -10.879434,-14.30158 -0.613039,-4.19427 0.334383,-10.472547 8.36757,-16.543139 z m 5.61288,-3.365921 c 10.222609,-4.817324 20.699987,-5.409344 27.694193,-5.058429 9.020416,0.458338 17.742275,2.814482 23.928387,6.476412 6.277662,3.807549 10.206682,8.799136 11.062542,14.055702 0.9554,5.874843 -1.95057,11.740138 -8.39941,16.9632821 l -0.15923,0.1241375 -0.17515,-0.1098081 -53.971235,-32.2555475 -0.175154,-0.105036 0.195057,-0.09071 z M 72.5,8.7230898 c 28.98794,0 52.4864,-14.0819585 52.4864,-31.4510618 0,-17.373877 -23.49846,-31.451062 -52.4864,-31.451062 -28.987941,0 -52.490386,14.077185 -52.490386,31.451062 0,17.3691033 23.502445,31.4510618 52.490386,31.4510618"
       style="fill:#c13339;fill-opacity:1;fill-rule:nonzero;stroke:none"
       id="path3867" />
    <path
       inkscape:connector-curvature="0"
       d="m 52.835013,-40.586445 c 6.986246,-2.931454 15.274202,-4.117881 23.972177,-3.439923 8.065032,0.630215 15.592661,2.824031 21.185638,6.178016 11.858702,7.011138 13.522672,17.815504 4.140002,26.879616 l -0.1473,0.138448 -0.19505,-0.114578 -48.983331,-29.443446 -0.183116,-0.107423 0.21098,-0.09071 z m 49.250047,32.3653499 0.17515,0.1098081 0.15923,-0.1241376 c 6.44884,-5.2231444 9.35481,-11.0884394 8.39941,-16.9632824 -0.85586,-5.256558 -4.78488,-10.248145 -11.062542,-14.055694 -6.186112,-3.66193 -14.907971,-6.018074 -23.928387,-6.476412 -6.994206,-0.350915 -17.471584,0.241105 -27.694193,5.058429 l -0.195057,0.09071 0.175154,0.105037 53.971235,32.2555397"
       style="fill:#ffffff;fill-opacity:1;fill-rule:nonzero;stroke:none"
       id="path3869" />
    <path
       inkscape:connector-curvature="0"
       d="m 101.79048,-10.944864 0.19505,0.114578 0.1473,-0.138448 c 9.38267,-9.064114 7.7187,-19.86848 -4.140002,-26.879618 -5.592977,-3.353985 -13.120606,-5.547801 -21.185638,-6.178016 -8.697975,-0.677958 -16.985931,0.508469 -23.972177,3.439923 l -0.21098,0.09071 0.183116,0.107423 48.983331,29.443446"
       style="fill:#2c4aa0;fill-opacity:1;fill-rule:nonzero;stroke:none"
       id="path3871" />
    <path
       inkscape:connector-curvature="0"
       d="m 42.807463,-34.491982 0.151269,-0.126513 0.183116,0.109808 49.130619,29.3551203 0.199038,0.1193674 -0.238846,0.081168 C 84.537838,-2.1099213 76.106575,-0.90439646 67.862407,-1.4462855 60.060105,-1.96669 52.735494,-4.08889 47.234075,-7.4309387 41.64906,-10.775374 38.01462,-15.284752 36.999525,-20.125948 c -1.078787,-5.132431 0.983249,-10.233829 5.807938,-14.366034 z M 68.375926,0.24383739 c 9.796666,0.58485827 19.625178,-1.15300778 28.418691,-5.02262179 l 0.207,-0.088325 L 96.818502,-4.9769197 42.84329,-37.3184 l -0.171173,-0.107413 -0.151269,0.119367 c -8.033187,6.070592 -8.980609,12.348868 -8.36757,16.543138 0.796153,5.42128 4.760996,10.632489 10.879434,14.3015808 6.265726,3.7979992 14.553681,6.18040153 23.343214,6.70558183"
       style="fill:#ffffff;fill-opacity:1;fill-rule:nonzero;stroke:none"
       id="path3873" />
    <path
       inkscape:connector-curvature="0"
       d="m 67.862407,-1.4462855 c 8.244168,0.54188904 16.675431,-0.6636358 24.370252,-3.5067627 l 0.238846,-0.081168 -0.199038,-0.1193674 -49.130619,-29.3551201 -0.183116,-0.109808 -0.151269,0.126513 c -4.824689,4.132205 -6.886725,9.233602 -5.807938,14.366034 1.015095,4.841195 4.649535,9.350574 10.23455,12.6950091 5.501419,3.3420486 12.82603,5.4642487 20.628332,5.9846531"
       style="fill:#2c4aa0;fill-opacity:1;fill-rule:nonzero;stroke:none"
       id="path3875" />
    <path
       inkscape:connector-curvature="0"
       d="m 25.02538,21.773789 12.77826,0 c 3.252287,0 5.700458,0.491759 7.400245,1.506309 1.695806,1.019325 2.583517,2.523247 2.583517,4.480733 0,1.990906 -0.816057,3.583153 -2.515844,4.640673 -1.699787,1.0981 -4.076305,1.630441 -7.201207,1.630441 l -5.839784,0 0,6.836877 -7.205187,0 0,-19.095033 z m -6.452822,21.7448 33.76486,0 c 1.628133,0 2.921883,-0.775833 2.921883,-1.752188 l 0,-20.233716 c 0,-0.981129 -1.29375,-1.756962 -2.921883,-1.756962 l -33.76486,0 c -1.568423,0 -2.921883,0.775833 -2.921883,1.756962 l 0,20.233716 c 0,0.976355 1.35346,1.752188 2.921883,1.752188"
       style="fill:#2c4aa0;fill-opacity:1;fill-rule:nonzero;stroke:none"
       id="path3877" />
    <path
       inkscape:connector-curvature="0"
       d="m 36.987583,30.202913 c 1.285788,0 2.241172,-0.205298 2.846247,-0.570536 0.61702,-0.367625 0.883731,-0.976355 0.883731,-1.749801 0,-0.775833 -0.266711,-1.34398 -0.951403,-1.711606 -0.609058,-0.367625 -1.56046,-0.570536 -2.850229,-0.570536 l -4.685362,0 0,4.602479 4.757016,0"
       style="fill:#2c4aa0;fill-opacity:1;fill-rule:nonzero;stroke:none"
       id="path3879" />
    <path
       inkscape:connector-curvature="0"
       d="m 32.230567,25.600434 4.685362,0 c 1.289769,0 2.241171,0.202911 2.850229,0.570536 0.684692,0.367626 0.951403,0.935773 0.951403,1.711606 0,0.773446 -0.266711,1.382176 -0.883731,1.749801 -0.605075,0.365238 -1.560459,0.570536 -2.846247,0.570536 l -4.757016,0 0,-4.602479 z m 0,8.431511 5.839784,0 c 3.124902,0 5.50142,-0.532341 7.201207,-1.630441 1.699787,-1.05752 2.515844,-2.649767 2.515844,-4.640673 0,-1.957486 -0.887711,-3.461408 -2.583517,-4.480733 -1.699787,-1.01455 -4.147958,-1.506309 -7.400245,-1.506309 l -12.77826,0 0,19.095033 7.205187,0 0,-6.836877"
       style="fill:#ffffff;fill-opacity:1;fill-rule:nonzero;stroke:none"
       id="path3881" />
    <path
       inkscape:connector-curvature="0"
       d="m 124.77542,35.337732 -8.90497,0 0,5.340115 -12.43591,0 0,-5.340115 -8.91294,0 0,-7.452769 8.91294,0 0,-5.335341 12.43591,0 0,5.335341 8.90497,0 0,7.452769 z m 0.57323,-15.456975 -31.475915,0 c -2.133691,0 -3.873286,1.040811 -3.873286,2.322724 l 0,18.858702 c 0,1.2843 1.739595,2.327498 3.873286,2.327498 l 31.475915,0 c 2.14165,0 3.88125,-1.043198 3.88125,-2.327498 l 0,-18.858702 c 0,-1.281913 -1.7396,-2.322724 -3.88125,-2.322724"
       style="fill:#ffffff;fill-opacity:1;fill-rule:nonzero;stroke:none"
       id="path3883" />
    <path
       inkscape:connector-curvature="0"
       d="m 129.2299,41.062183 c 0,1.2843 -1.7396,2.327498 -3.88125,2.327498 l -31.475915,0 c -2.133691,0 -3.873286,-1.043198 -3.873286,-2.327498 l 0,-18.858702 c 0,-1.281913 1.739595,-2.322724 3.873286,-2.322724 l 31.475915,0 c 2.14165,0 3.88125,1.040811 3.88125,2.322724 l 0,18.858702 z M 93.872735,19.739914 c -2.269037,0 -4.116112,1.102876 -4.116112,2.463567 l 0,18.858702 c 0,1.363078 1.847075,2.470728 4.116112,2.470728 l 31.475915,0 c 2.26904,0 4.1201,-1.10765 4.1201,-2.470728 l 0,-18.858702 c 0,-1.360691 -1.85106,-2.463567 -4.1201,-2.463567 l -31.475915,0"
       style="fill:#191412;fill-opacity:1;fill-rule:nonzero;stroke:none"
       id="path3885" />
    <path
       inkscape:connector-curvature="0"
       d="m 129.2299,41.062183 c 0,1.2843 -1.7396,2.327498 -3.88125,2.327498 l -31.475915,0 c -2.133691,0 -3.873286,-1.043198 -3.873286,-2.327498 l 0,-18.858702 c 0,-1.281913 1.739595,-2.322724 3.873286,-2.322724 l 31.475915,0 c 2.14165,0 3.88125,1.040811 3.88125,2.322724 l 0,18.858702 z M 93.872735,19.739914 c -2.269037,0 -4.116112,1.102876 -4.116112,2.463567 l 0,18.858702 c 0,1.363078 1.847075,2.470728 4.116112,2.470728 l 31.475915,0 c 2.26904,0 4.1201,-1.10765 4.1201,-2.470728 l 0,-18.858702 c 0,-1.360691 -1.85106,-2.463567 -4.1201,-2.463567 l -31.475915,0 z"
       style="fill:none;stroke:#191412;stroke-width:0.66585469;stroke-linecap:butt;stroke-linejoin:miter;stroke-miterlimit:10;stroke-opacity:1;stroke-dasharray:none"
       id="path3887" />
    <path
       inkscape:connector-curvature="0"
       d="m 115.87045,22.549622 -12.43591,0 0,5.335341 -8.91294,0 0,7.452769 8.91294,0 0,5.340115 12.43591,0 0,-5.340115 8.90497,0 0,-7.452769 -8.90497,0 0,-5.335341"
       style="fill:#c13339;fill-opacity:1;fill-rule:nonzero;stroke:none"
       id="path3889" />
    <path
       inkscape:connector-curvature="0"
       d="m 14.356925,48.240424 116.290135,0 0,5.94646 -116.290135,0 0,-5.94646 z m 116.560815,6.271116 0.2707,0 0,-6.598159 -117.376879,0 0,6.598159 117.106179,0"
       style="fill:#191412;fill-opacity:1;fill-rule:nonzero;stroke:none"
       id="path3891" />
  </g>
</svg>
